<svg width="172" height="167" viewBox="0 0 172 167" fill="none" xmlns="http://www.w3.org/2000/svg">
<g id="bulb-header">
<path id="path124" d="M104.844 141.505C104.779 140.741 103.968 140.078 102.598 139.547C104.088 138.757 104.913 137.91 104.844 137.076C104.632 134.557 96.355 133.144 86.352 133.92C76.3519 134.698 68.4129 137.371 68.6253 139.89C68.6881 140.654 69.4987 141.314 70.8688 141.845C69.3791 142.638 68.5565 143.488 68.6253 144.318C68.6881 145.082 69.4987 145.746 70.8688 146.273C69.3791 147.069 68.5565 147.916 68.6253 148.75C68.6881 149.514 69.4987 150.174 70.8688 150.704C69.3791 151.497 68.5565 152.345 68.6253 153.178C68.718 154.294 70.3931 155.19 73.0913 155.778C73.0554 156.6 73.0764 157.502 73.1601 158.5C73.552 163.144 78.9693 166.783 86.1366 166.783C93.3038 166.783 99.5049 161.821 99.5737 157.162C99.5917 156.021 99.5438 155.014 99.4361 154.124C102.864 153.019 104.952 151.67 104.844 150.364C104.779 149.6 103.968 148.937 102.598 148.407C104.088 147.617 104.913 146.766 104.844 145.936C104.779 145.172 103.968 144.509 102.598 143.978C104.088 143.185 104.913 142.338 104.844 141.505" fill="url(#paint0_linear)"/>
<path id="path142" d="M81.723 156.779C78.7534 156.779 76.0346 156.568 73.7886 156.154C73.6589 156.132 73.5724 156.009 73.5984 155.884C73.6214 155.759 73.7483 155.676 73.878 155.701C77.3926 156.348 82.0863 156.493 87.0943 156.104C91.1913 155.784 95.023 155.148 98.1771 154.259C98.304 154.225 98.4366 154.295 98.4741 154.417C98.5115 154.542 98.4395 154.67 98.3126 154.706C95.1268 155.601 91.2634 156.243 87.1318 156.565C85.2722 156.71 83.4529 156.779 81.723 156.779" fill="url(#paint1_linear)"/>
<path id="path160" d="M81.7732 152.344C77.9133 152.344 74.4659 151.994 72.0349 151.328C71.9042 151.295 71.8316 151.166 71.8693 151.043C71.9042 150.919 72.0349 150.849 72.1656 150.883C75.6305 151.835 81.2127 152.132 87.097 151.672C92.9144 151.222 98.3427 150.082 101.613 148.63C101.735 148.574 101.877 148.624 101.933 148.739C101.988 148.856 101.935 148.994 101.813 149.05C98.4937 150.522 93.0074 151.678 87.1347 152.134C85.3021 152.277 83.4955 152.344 81.7732 152.344Z" fill="url(#paint2_linear)"/>
<path id="path178" d="M81.7242 147.92C77.5593 147.92 73.9121 147.509 71.4582 146.728C71.3324 146.689 71.2622 146.556 71.3061 146.438C71.347 146.314 71.4816 146.249 71.6073 146.288C75.0235 147.374 80.8146 147.732 87.0971 147.244C92.9145 146.79 98.3429 145.651 101.616 144.2C101.736 144.146 101.876 144.194 101.932 144.31C101.987 144.428 101.938 144.566 101.815 144.62C98.495 146.094 93.0081 147.247 87.1351 147.703C85.2749 147.85 83.4528 147.92 81.7242 147.92" fill="url(#paint3_linear)"/>
<path id="path196" d="M81.7555 143.491C78.4485 143.491 75.4426 143.232 73.107 142.732C72.9771 142.703 72.8944 142.581 72.924 142.456C72.9505 142.33 73.0805 142.251 73.2104 142.279C76.7241 143.033 81.785 143.227 87.0939 142.814C92.8605 142.365 98.261 141.241 101.536 139.803C101.657 139.749 101.801 139.803 101.854 139.917C101.91 140.034 101.857 140.171 101.736 140.225C98.4086 141.682 92.9521 142.823 87.1323 143.278C85.2928 143.42 83.4828 143.491 81.7555 143.491" fill="url(#paint4_linear)"/>
<g id="bulb-color">
<path id="bulb-lamp-color" fill-rule="evenodd" clip-rule="evenodd" d="M61.2927 120.41C53.9595 123.765 53.8804 124.919 48.176 130.757C44.5839 134.432 38.2687 140.599 34.4106 143.485C36.5788 138.355 39.6834 134.13 43.3072 129.936C45.9633 126.856 56.8472 117.144 61.2927 120.41Z" fill="#FE7062"/>
<path id="bulb-lamp-color_2" fill-rule="evenodd" clip-rule="evenodd" d="M11.7595 94.8117C9.31542 95.903 12.2667 89.155 28.0533 88.1558C31.4811 87.9406 30.4359 87.8637 33.1413 88.494C28.7143 91.8296 22.3043 92.9671 16.9397 93.751C15.9098 93.9048 11.8056 93.9816 11.7595 94.8117Z" fill="#FE7062"/>
<path id="bulb-lamp-color_3" fill-rule="evenodd" clip-rule="evenodd" d="M0 58.9074C4.28865 56.7093 4.81128 56.7247 9.97611 57.401C15.8788 58.1696 21.5355 61.1824 26.2392 64.7332C22.0274 64.641 23.7336 64.9023 19.5218 63.8878C12.2203 62.1201 7.60889 60.1833 0 58.9074Z" fill="#FE7062"/>
<path id="bulb-lamp-color_4" fill-rule="evenodd" clip-rule="evenodd" d="M15.0977 15.5405C24.9508 17.4927 32.4521 20.7668 35.8953 31.0657L36.9559 35.9539L33.8201 32.1725C25.9961 22.2579 24.1976 23.0265 15.0977 15.5405Z" fill="#FE7062"/>
<path id="bulb-lamp-color_5" fill-rule="evenodd" clip-rule="evenodd" d="M60.2734 0C65.3307 6.02563 69.5425 12.3126 69.4963 20.398C66.9754 17.5696 68.0207 18.9838 65.8687 15.6021C62.2564 9.94536 60.5348 6.99403 60.2734 0Z" fill="#FE7062"/>
<path id="bulb-lamp-color_6" fill-rule="evenodd" clip-rule="evenodd" d="M96.7018 21.8583C95.2261 18.8608 104.234 12.5278 105.74 11.6055C109.645 9.22289 114.948 7.04013 119.544 6.79419C115.178 11.0521 109.353 14.2801 104.019 17.1546C100.191 19.2297 99.5609 20.0598 96.7018 21.8583Z" fill="#FE7062"/>
<path id="bulb-lamp-color_7" fill-rule="evenodd" clip-rule="evenodd" d="M126.832 36.4306C132.873 30.7738 140.789 25.6551 149.49 26.3469L153.548 27.2077L149.736 28.5604C142.004 31.0505 134.671 34.878 126.832 36.4306Z" fill="#FE7062"/>
<path id="bulb-lamp-color_8" fill-rule="evenodd" clip-rule="evenodd" d="M137.039 65.0984C142.727 63.8072 143.987 64.007 149.92 64.6987C155.516 65.3597 163.155 67.5732 168.013 70.5399L171.041 72.8764C161.372 71.493 146.462 67.9421 137.039 65.0984Z" fill="#FE7062"/>
<path id="bulb-lamp-color_9" fill-rule="evenodd" clip-rule="evenodd" d="M137.516 101.052C145.785 101.682 153.087 104.219 158.897 110.291C151.119 109.199 143.295 106.54 137.516 101.052Z" fill="#FE7062"/>
<path id="bulb-lamp-color_10" fill-rule="evenodd" clip-rule="evenodd" d="M115.164 116.593C121.482 123.003 125.386 131.411 125.863 140.403C120.406 133.671 116.486 125.17 115.164 116.593Z" fill="#FE7062"/>
<path id="bulb-lamp-color_11" d="M61.9109 119.145C60.7001 115 58.6365 111.126 55.8569 107.749C49.9025 100.516 40.1903 85.8089 38.9942 65.7362C37.2555 36.538 64.122 21.9193 88.6408 23.9045C113.156 25.8898 137.35 43.4827 134.703 70.6459C133.075 87.36 123.366 100.036 116.139 107.315C111.55 111.94 108.279 117.601 106.504 123.77C104.337 131.316 99.1763 140.719 86.9058 141.295C71.0325 142.035 64.4395 127.772 61.9109 119.145" fill="url(#paint5_linear)"/>
<path id="bulb-lamp-color_12" d="M90.9599 135.471L99.5397 81.6931C99.7163 80.5847 100.283 79.8394 100.81 80.029C101.33 80.2185 101.61 81.2754 101.433 82.3869C101.426 82.4159 101.42 82.4512 101.416 82.4801L91.6432 135.757C91.5699 136.155 91.3599 136.412 91.1732 136.322C90.9899 136.236 90.8999 135.86 90.9599 135.471Z" fill="url(#paint6_linear)"/>
<path id="bulb-lamp-color_13" d="M82.0557 135.899L73.4759 82.1236C73.2994 81.0098 72.7332 80.2651 72.2103 80.4577C71.6874 80.6471 71.4076 81.6999 71.5841 82.8137C71.5908 82.8426 71.5974 82.8779 71.6008 82.9068L81.3729 136.184C81.4462 136.586 81.656 136.839 81.8425 136.749C82.0257 136.666 82.1156 136.284 82.0557 135.899Z" fill="url(#paint7_linear)"/>
</g>
<path id="bulb-text" d="M55.4372 60.144C54.6452 60.144 53.9532 59.964 53.3612 59.604C52.7692 59.244 52.3092 58.744 51.9812 58.104C51.6532 57.456 51.4892 56.704 51.4892 55.848C51.4892 54.984 51.6572 54.224 51.9932 53.568C52.3372 52.904 52.8212 52.388 53.4452 52.02C54.0772 51.644 54.8252 51.456 55.6892 51.456C56.6732 51.456 57.4892 51.692 58.1372 52.164C58.7852 52.636 59.2052 53.288 59.3972 54.12H57.6812C57.5532 53.728 57.3212 53.424 56.9852 53.208C56.6492 52.984 56.2172 52.872 55.6892 52.872C54.8492 52.872 54.2012 53.14 53.7452 53.676C53.2892 54.204 53.0612 54.932 53.0612 55.86C53.0612 56.788 53.2852 57.508 53.7332 58.02C54.1892 58.524 54.8052 58.776 55.5812 58.776C56.3412 58.776 56.9132 58.572 57.2972 58.164C57.6892 57.748 57.9252 57.204 58.0052 56.532H55.8812V55.38H59.5532V60H58.1372L58.0172 58.896C57.7452 59.296 57.4052 59.604 56.9972 59.82C56.5892 60.036 56.0692 60.144 55.4372 60.144ZM63.9025 60.144C63.3025 60.144 62.7705 60.016 62.3065 59.76C61.8425 59.504 61.4785 59.144 61.2145 58.68C60.9505 58.216 60.8185 57.68 60.8185 57.072C60.8185 56.456 60.9465 55.908 61.2025 55.428C61.4665 54.948 61.8265 54.576 62.2825 54.312C62.7465 54.04 63.2905 53.904 63.9145 53.904C64.4985 53.904 65.0145 54.032 65.4625 54.288C65.9105 54.544 66.2585 54.896 66.5065 55.344C66.7625 55.784 66.8905 56.276 66.8905 56.82C66.8905 56.908 66.8865 57 66.8785 57.096C66.8785 57.192 66.8745 57.292 66.8665 57.396H62.3425C62.3745 57.86 62.5345 58.224 62.8225 58.488C63.1185 58.752 63.4745 58.884 63.8905 58.884C64.2025 58.884 64.4625 58.816 64.6705 58.68C64.8865 58.536 65.0465 58.352 65.1505 58.128H66.7105C66.5985 58.504 66.4105 58.848 66.1465 59.16C65.8905 59.464 65.5705 59.704 65.1865 59.88C64.8105 60.056 64.3825 60.144 63.9025 60.144ZM63.9145 55.152C63.5385 55.152 63.2065 55.26 62.9185 55.476C62.6305 55.684 62.4465 56.004 62.3665 56.436H65.3305C65.3065 56.044 65.1625 55.732 64.8985 55.5C64.6345 55.268 64.3065 55.152 63.9145 55.152ZM70.7289 60C70.1049 60 69.6049 59.848 69.2289 59.544C68.8529 59.24 68.6649 58.7 68.6649 57.924V55.332H67.6449V54.048H68.6649L68.8449 52.452H70.2009V54.048H71.8089V55.332H70.2009V57.936C70.2009 58.224 70.2609 58.424 70.3809 58.536C70.5089 58.64 70.7249 58.692 71.0289 58.692H71.7729V60H70.7289ZM78.891 60.144C78.275 60.144 77.731 60.04 77.259 59.832C76.787 59.616 76.415 59.312 76.143 58.92C75.871 58.52 75.731 58.036 75.723 57.468H77.343C77.359 57.86 77.499 58.192 77.763 58.464C78.035 58.728 78.407 58.86 78.879 58.86C79.287 58.86 79.611 58.764 79.851 58.572C80.091 58.372 80.211 58.108 80.211 57.78C80.211 57.436 80.103 57.168 79.887 56.976C79.679 56.784 79.399 56.628 79.047 56.508C78.695 56.388 78.319 56.26 77.919 56.124C77.271 55.9 76.775 55.612 76.431 55.26C76.095 54.908 75.927 54.44 75.927 53.856C75.919 53.36 76.035 52.936 76.275 52.584C76.523 52.224 76.859 51.948 77.283 51.756C77.707 51.556 78.195 51.456 78.747 51.456C79.307 51.456 79.799 51.556 80.223 51.756C80.655 51.956 80.991 52.236 81.231 52.596C81.479 52.956 81.611 53.384 81.627 53.88H79.983C79.975 53.584 79.859 53.324 79.635 53.1C79.419 52.868 79.115 52.752 78.723 52.752C78.387 52.744 78.103 52.828 77.871 53.004C77.647 53.172 77.535 53.42 77.535 53.748C77.535 54.028 77.623 54.252 77.799 54.42C77.975 54.58 78.215 54.716 78.519 54.828C78.823 54.94 79.171 55.06 79.563 55.188C79.979 55.332 80.359 55.5 80.703 55.692C81.047 55.884 81.323 56.14 81.531 56.46C81.739 56.772 81.843 57.176 81.843 57.672C81.843 58.112 81.731 58.52 81.507 58.896C81.283 59.272 80.951 59.576 80.511 59.808C80.071 60.032 79.531 60.144 78.891 60.144ZM85.7992 60C85.1752 60 84.6752 59.848 84.2992 59.544C83.9232 59.24 83.7352 58.7 83.7352 57.924V55.332H82.7152V54.048H83.7352L83.9152 52.452H85.2712V54.048H86.8792V55.332H85.2712V57.936C85.2712 58.224 85.3312 58.424 85.4512 58.536C85.5792 58.64 85.7952 58.692 86.0992 58.692H86.8432V60H85.7992ZM90.25 60.144C89.738 60.144 89.318 60.064 88.99 59.904C88.662 59.736 88.418 59.516 88.258 59.244C88.098 58.972 88.018 58.672 88.018 58.344C88.018 57.792 88.234 57.344 88.666 57C89.098 56.656 89.746 56.484 90.61 56.484H92.122V56.34C92.122 55.932 92.006 55.632 91.774 55.44C91.542 55.248 91.254 55.152 90.91 55.152C90.598 55.152 90.326 55.228 90.094 55.38C89.862 55.524 89.718 55.74 89.662 56.028H88.162C88.202 55.596 88.346 55.22 88.594 54.9C88.85 54.58 89.178 54.336 89.578 54.168C89.978 53.992 90.426 53.904 90.922 53.904C91.77 53.904 92.438 54.116 92.926 54.54C93.414 54.964 93.658 55.564 93.658 56.34V60H92.35L92.206 59.04C92.03 59.36 91.782 59.624 91.462 59.832C91.15 60.04 90.746 60.144 90.25 60.144ZM90.598 58.944C91.038 58.944 91.378 58.8 91.618 58.512C91.866 58.224 92.022 57.868 92.086 57.444H90.778C90.37 57.444 90.078 57.52 89.902 57.672C89.726 57.816 89.638 57.996 89.638 58.212C89.638 58.444 89.726 58.624 89.902 58.752C90.078 58.88 90.31 58.944 90.598 58.944ZM95.1238 60V54.048H96.4918L96.6358 55.164C96.8518 54.78 97.1438 54.476 97.5117 54.252C97.8878 54.02 98.3278 53.904 98.8318 53.904V55.524H98.3998C98.0638 55.524 97.7638 55.576 97.4998 55.68C97.2358 55.784 97.0278 55.964 96.8758 56.22C96.7318 56.476 96.6598 56.832 96.6598 57.288V60H95.1238ZM102.534 60C101.91 60 101.41 59.848 101.034 59.544C100.658 59.24 100.47 58.7 100.47 57.924V55.332H99.4496V54.048H100.47L100.65 52.452H102.006V54.048H103.614V55.332H102.006V57.936C102.006 58.224 102.066 58.424 102.186 58.536C102.314 58.64 102.53 58.692 102.834 58.692H103.578V60H102.534ZM107.672 60.144C107.072 60.144 106.54 60.016 106.076 59.76C105.612 59.504 105.248 59.144 104.984 58.68C104.72 58.216 104.588 57.68 104.588 57.072C104.588 56.456 104.716 55.908 104.972 55.428C105.236 54.948 105.596 54.576 106.052 54.312C106.516 54.04 107.06 53.904 107.684 53.904C108.268 53.904 108.784 54.032 109.232 54.288C109.68 54.544 110.028 54.896 110.276 55.344C110.532 55.784 110.66 56.276 110.66 56.82C110.66 56.908 110.656 57 110.648 57.096C110.648 57.192 110.644 57.292 110.636 57.396H106.112C106.144 57.86 106.304 58.224 106.592 58.488C106.888 58.752 107.244 58.884 107.66 58.884C107.972 58.884 108.232 58.816 108.44 58.68C108.656 58.536 108.816 58.352 108.92 58.128H110.48C110.368 58.504 110.18 58.848 109.916 59.16C109.66 59.464 109.34 59.704 108.956 59.88C108.58 60.056 108.152 60.144 107.672 60.144ZM107.684 55.152C107.308 55.152 106.976 55.26 106.688 55.476C106.4 55.684 106.216 56.004 106.136 56.436H109.1C109.076 56.044 108.932 55.732 108.668 55.5C108.404 55.268 108.076 55.152 107.684 55.152ZM114.688 60.144C114.128 60.144 113.628 60.008 113.188 59.736C112.748 59.464 112.4 59.092 112.144 58.62C111.888 58.148 111.76 57.612 111.76 57.012C111.76 56.412 111.888 55.88 112.144 55.416C112.4 54.944 112.748 54.576 113.188 54.312C113.628 54.04 114.128 53.904 114.688 53.904C115.136 53.904 115.528 53.988 115.864 54.156C116.2 54.324 116.472 54.56 116.68 54.864V51.36H118.216V60H116.848L116.68 59.148C116.488 59.412 116.232 59.644 115.912 59.844C115.6 60.044 115.192 60.144 114.688 60.144ZM115.012 58.8C115.508 58.8 115.912 58.636 116.224 58.308C116.544 57.972 116.704 57.544 116.704 57.024C116.704 56.504 116.544 56.08 116.224 55.752C115.912 55.416 115.508 55.248 115.012 55.248C114.524 55.248 114.12 55.412 113.8 55.74C113.48 56.068 113.32 56.492 113.32 57.012C113.32 57.532 113.48 57.96 113.8 58.296C114.12 58.632 114.524 58.8 115.012 58.8Z" fill="white"/>
<path id="path254" d="M99.4772 77.0783C99.26 76.7414 98.7543 76.6139 98.3503 76.797L93.5747 78.9462L91.915 74.396C91.8267 74.1572 91.6265 73.9446 91.3346 73.8334C90.7847 73.6142 90.1262 73.8072 89.8683 74.2684L89.8581 74.2815L85.9276 81.1869L82.2856 71.3571L82.2788 71.3407C82.1906 71.1019 82.0005 70.886 81.7256 70.7421C81.1146 70.4215 80.3068 70.5753 79.9233 71.0856L74.4314 78.3704C74.2074 78.6681 74.2855 79.0705 74.6249 79.2896C74.9881 79.5252 75.5108 79.4696 75.7925 79.1686L80.6292 73.9675L84.9806 83.3197L84.984 83.323C85.0553 83.4767 85.1842 83.6076 85.3675 83.6861C85.7748 83.8725 86.2874 83.745 86.508 83.4048L90.71 76.905L92.2917 80.1925L92.3053 80.2219C92.3155 80.2448 92.3291 80.2677 92.346 80.2906C92.5633 80.6276 93.0656 80.7551 93.4695 80.5719L99.1378 78.0204C99.5417 77.8372 99.6945 77.4153 99.4772 77.0783" fill="white"/>
<path id="path258" d="M116.324 100.386C116.1 100.386 115.872 100.317 115.676 100.179C115.191 99.834 115.09 99.1751 115.449 98.7077C116.91 96.8126 118.248 94.8516 119.43 92.8844C119.733 92.3824 120.397 92.2098 120.918 92.4985C121.439 92.7903 121.618 93.4303 121.315 93.9324C120.094 95.9717 118.711 97.9986 117.2 99.9595C116.985 100.239 116.656 100.386 116.324 100.386" fill="white"/>
<path id="path262" d="M123.381 88.7109C123.236 88.7109 123.091 88.6837 122.95 88.6224C122.395 88.3908 122.144 87.7743 122.384 87.2429C131.45 67.1231 123.628 50.2322 123.55 50.0653C123.299 49.5408 123.54 48.9174 124.088 48.6756C124.635 48.4338 125.279 48.662 125.53 49.1933C125.873 49.912 133.828 67.106 124.381 88.0808C124.204 88.4759 123.801 88.7109 123.381 88.7109" fill="white"/>
</g>
<defs>
<linearGradient id="paint0_linear" x1="268.016" y1="-44.7333" x2="258.487" y2="20.5255" gradientUnits="userSpaceOnUse">
<stop stop-color="#09005D"/>
<stop offset="1" stop-color="#1A0F91"/>
</linearGradient>
<linearGradient id="paint1_linear" x1="247.062" y1="-47.3192" x2="231.216" y2="134.005" gradientUnits="userSpaceOnUse">
<stop stop-color="#53D8FF"/>
<stop offset="1" stop-color="#3840F7"/>
</linearGradient>
<linearGradient id="paint2_linear" x1="252.118" y1="-52.0658" x2="236.156" y2="130.59" gradientUnits="userSpaceOnUse">
<stop stop-color="#53D8FF"/>
<stop offset="1" stop-color="#3840F7"/>
</linearGradient>
<linearGradient id="paint3_linear" x1="255.548" y1="-56.753" x2="239.475" y2="127.181" gradientUnits="userSpaceOnUse">
<stop stop-color="#53D8FF"/>
<stop offset="1" stop-color="#3840F7"/>
</linearGradient>
<linearGradient id="paint4_linear" x1="262.053" y1="-63.0127" x2="245.826" y2="122.676" gradientUnits="userSpaceOnUse">
<stop stop-color="#53D8FF"/>
<stop offset="1" stop-color="#3840F7"/>
</linearGradient>
<linearGradient id="paint5_linear" x1="427.182" y1="-394.804" x2="395.854" y2="-174.484" gradientUnits="userSpaceOnUse">
<stop stop-color="#FE7062"/>
<stop offset="1" stop-color="#FE7062"/>
</linearGradient>
<linearGradient id="paint6_linear" x1="629.968" y1="-536.744" x2="499.714" y2="-348.205" gradientUnits="userSpaceOnUse">
<stop stop-color="#E1473D"/>
<stop offset="1" stop-color="#E9605A"/>
</linearGradient>
<linearGradient id="paint7_linear" x1="610.177" y1="-548.911" x2="480.034" y2="-360.522" gradientUnits="userSpaceOnUse">
<stop stop-color="#E1473D"/>
<stop offset="1" stop-color="#E9605A"/>
</linearGradient>
</defs>
</svg>
