<svg width="121" height="156" viewBox="0 0 121 156" fill="none" xmlns="http://www.w3.org/2000/svg">
<path d="M56.5507 21.3524L49.1957 22.0042C45.6237 22.9691 44.8697 23.4611 41.9558 25.1162C40.9142 25.621 39.879 26.1322 38.863 26.6945C35.3421 28.6435 36.684 27.8511 33.1375 30.7075C32.3579 31.3337 31.0096 32.1005 30.115 33.3274C23.514 42.3118 23.6355 49.0725 25.7058 59.1816C26.5557 61.3095 26.1276 60.1913 28.0766 64.2234C28.9009 65.4439 29.821 66.5877 30.7796 67.6996C32.9777 70.294 31.7125 68.7284 33.9043 71.457C36.9971 74.9651 38.9716 79.5851 30.6006 80.6459C29.5974 81.0101 28.575 81.3552 27.5142 81.5021C27.003 81.5597 26.4663 81.6044 25.9614 81.451C25.7634 81.3488 25.6419 81.1571 25.495 80.9973C24.7793 80.1347 24.2425 79.1442 23.7441 78.141C22.3894 75.3421 21.3989 72.3835 20.3701 69.4505C20.2232 69.0735 20.2168 68.6645 20.172 68.2683C20.1401 67.8657 20.0954 67.4696 20.0762 67.0734C20.5682 66.7411 21.0155 66.313 21.252 65.7634C21.8015 64.511 21.8526 63.0796 21.5587 61.7568C21.5267 61.5907 21.4564 61.4182 21.5267 61.252C21.8462 60.4085 22.3958 52.5999 22.7089 48.3057L22.4213 45.673C22.1466 44.9765 22.7153 46.05 21.7376 44.2161C21.4117 43.641 20.9836 43.117 20.4468 42.7336C20.1784 42.5419 19.8717 42.4269 19.5842 42.2735C19.303 42.1265 18.9643 42.0562 18.6576 42.1649C18.2742 42.2927 17.9739 42.593 17.7438 42.9189C17.4499 43.3534 17.1559 43.788 16.9834 44.2864C16.7789 44.8231 16.715 45.3983 16.5872 45.9606C16.4275 46.7785 16.3572 47.6156 16.3636 48.4463C17.8716 47.3983 14.8683 46.5804 12.7148 47.9415C12.4848 48.0885 12.325 48.3121 12.1333 48.5038C11.8394 48.5613 11.5391 48.5933 11.2387 48.5869C10.555 48.6188 9.81374 48.6636 9.24502 49.0789C8.95108 49.2834 8.77216 49.5901 8.60601 49.8969C8.45904 49.8266 8.31207 49.7435 8.15232 49.7179C7.85838 49.654 7.56443 49.7243 7.2641 49.7371C6.73372 49.7435 6.18418 49.8841 5.74965 50.2036C5.37264 50.472 5.01479 50.7723 4.70168 51.111C4.37579 51.4688 4.1777 51.9161 4.04989 52.3762C3.89014 53.2836 4.14574 54.1974 4.3694 55.0728C4.74641 56.5425 5.38542 57.9356 5.99248 59.3222C6.5548 60.5683 7.19381 61.776 7.80726 62.9901C8.31207 63.9678 9.23224 64.6196 10.0757 65.2714C10.2355 65.412 10.5103 65.4759 10.5486 65.7187C10.6892 66.3896 10.8489 67.0798 11.1876 67.6868C11.3729 68.0383 11.6541 68.3258 11.9672 68.575C12.095 68.6645 12.1972 68.8115 12.3634 68.8242C12.8043 68.8945 13.2516 68.9584 13.6925 69.0415C13.8139 70.1726 13.9609 71.3036 14.1909 72.4219C14.306 73.0417 14.4977 73.6424 14.5807 74.2686C14.7085 75.1121 14.9194 75.9428 15.1878 76.7543C15.4626 78.1218 15.7437 79.4893 16.1527 80.8248C16.7022 82.6268 17.4179 84.4288 18.6512 85.8793C19.7886 87.234 21.4245 88.1223 23.1562 88.4609C24.6195 88.7549 26.1276 88.7165 27.6037 88.5312C30.0127 88.2053 32.3579 87.528 34.6455 86.7101C36.8501 85.9241 38.9844 84.9783 41.1251 84.039C41.6043 85.5407 41.9366 87.0935 42.1986 88.6526C42.3967 89.8156 42.499 90.9978 42.6204 92.1736C42.6523 92.3397 42.6587 92.5058 42.6523 92.672C42.6395 92.8892 42.6523 93.1065 42.6843 93.3238C42.7354 94.1289 42.8185 94.9341 42.7546 95.7392C42.7609 96.1354 42.7737 96.538 42.729 96.9406C42.6204 97.8543 42.499 98.7745 42.4159 99.6947C42.2945 101.037 42.205 102.398 42.3839 103.746C42.4095 103.944 42.4606 104.142 42.5117 104.34C42.6459 104.762 42.5565 105.203 42.6204 105.631C42.6587 106.666 42.9143 107.727 43.5277 108.583C44.1668 109.484 45.0997 110.11 46.0263 110.692C46.1988 110.813 46.4097 110.89 46.5375 111.063C46.6525 111.395 46.6717 111.753 46.7803 112.091C46.9976 112.794 47.3298 113.472 47.8283 114.021C48.4864 114.756 49.381 115.242 50.2948 115.574C51.33 115.938 52.4099 116.162 53.4963 116.29C53.6432 116.302 53.7966 116.315 53.9436 116.328C55.2983 116.488 56.6593 116.456 58.0204 116.405C59.1706 116.322 60.3336 116.092 61.3752 115.574C62.2315 115.159 62.9727 114.52 63.5223 113.74C64.0718 112.986 64.4233 112.117 64.7875 111.267C65.9888 111.101 67.2732 110.73 68.0976 109.785C68.481 109.369 68.6791 108.832 68.8835 108.315C69.3372 108.59 69.8293 108.794 70.3405 108.928C70.4938 108.941 70.4874 109.107 70.5194 109.216C70.5833 109.625 70.7239 110.034 70.9667 110.372C71.3565 110.909 71.9061 111.325 72.4939 111.619C73.0818 111.906 73.74 111.989 74.3854 112.021C75.2289 111.912 76.0852 111.702 76.7881 111.21C77.606 110.647 78.2003 109.823 78.7434 109.011C79.3888 108.046 79.9575 107.037 80.5774 106.053C81.2036 105.056 81.8618 104.078 82.5136 103.094C82.9353 102.442 83.3379 101.752 83.5232 100.985C83.6638 100.423 83.6446 99.8097 83.389 99.2857C83.159 98.7681 82.7756 98.3528 82.4305 97.9118C83.4657 97.0556 84.4498 96.1354 85.2869 95.081C86.4818 93.5922 87.3125 91.8029 87.6001 89.9115C87.9771 87.4705 87.7087 84.9847 87.2422 82.5757C86.7374 80.058 85.9898 77.585 85.0376 75.2015C84.2069 73.1056 83.127 71.1119 81.9001 69.2204C81.7467 68.9584 81.5359 68.7284 81.4336 68.4408C81.5487 68.1533 81.734 67.9041 81.8809 67.6293C82.226 67.0031 82.5711 66.3769 82.8842 65.7378C84.8204 62.185 83.8938 64.0573 85.2613 61.2073C85.8172 59.9676 86.2965 58.696 86.6863 57.3924C87.2806 54.3955 87.0761 55.878 87.5042 52.6765C87.5426 49.5071 87.6065 50.0438 87.1847 47.1364C87.1144 46.6379 86.9866 46.1523 86.9099 45.6602C85.8683 41.9029 85.9067 42.6633 84.3028 38.9698C82.8522 36.4394 83.7916 37.7621 80.571 33.4872C71.9955 24.2663 73.0882 26.8415 66.2892 23.1352C62.8194 22.2215 62.5126 21.9531 56.5507 21.3524ZM22.7089 48.3057C15.4178 72.2174 8.13315 96.129 22.7089 48.3057V48.3057ZM56.2184 22.803C56.5315 22.7966 56.8383 22.803 57.145 22.8349C60.4614 22.9244 63.7395 23.7487 66.7812 25.0714C70.3405 26.6114 73.6058 28.7393 76.8264 30.88C76.967 30.9695 77.0948 31.0653 77.2034 31.1867C77.5676 31.5957 77.9319 32.0047 78.2897 32.4136C78.507 32.6756 78.7562 32.9121 78.9415 33.206C80.2323 35.1997 81.4975 37.2126 82.6222 39.3085C83.7405 41.3981 84.7373 43.5643 85.3955 45.8519C85.8428 47.3983 86.1176 49.0023 86.1751 50.6189C86.2262 53.2069 85.6894 55.7757 84.8523 58.2167C84.0088 60.6513 82.8714 62.9709 81.587 65.2011C80.4623 67.1373 79.2355 69.0096 77.9255 70.8243C77.5421 71.3547 77.1076 71.8531 76.6794 72.3452C76.3344 72.7094 76.034 73.1248 75.6506 73.4507C74.0531 74.6137 72.4492 75.815 71.2031 77.3614C70.5577 78.1538 70.0402 79.0484 69.6631 79.9941C69.1008 81.4063 68.8069 82.908 68.596 84.4096C68.2062 87.5152 68.0081 90.64 67.7972 93.7583C67.7908 93.8414 67.7781 93.9372 67.6822 93.9692C65.5288 95.0108 63.337 96.0076 61.0302 96.6402C59.3304 97.1067 57.5731 97.324 55.8158 97.3431C54.3781 97.3176 52.9339 97.1706 51.5409 96.8C50.3523 96.4869 49.2149 95.9884 48.1733 95.3303C46.8186 94.4804 45.6301 93.3941 44.4799 92.2886C44.4032 92.2055 44.3009 92.1288 44.2818 92.0202C44.1987 91.7199 44.2115 91.4068 44.1668 91.1C43.8856 88.4034 43.5661 85.694 42.7865 83.0869C42.1347 80.844 41.1315 78.7033 39.8151 76.7671C38.6074 74.9907 37.1888 73.374 35.7638 71.7637C34.9395 70.8371 34.1407 69.8914 33.31 68.9712C31.4633 66.8242 29.6805 64.5812 28.4472 62.0124C27.1692 59.335 26.7027 56.3381 26.6835 53.3858C26.6644 51.6605 26.7922 49.9416 26.9775 48.2227C27.1308 46.9574 27.265 45.6858 27.4823 44.427C27.8337 43.1042 28.2299 41.7879 28.6836 40.4971C29.0926 39.3149 29.6485 38.1966 30.262 37.1167C30.7604 36.2413 31.2844 35.385 31.8723 34.5735C33.0161 32.9951 34.3708 31.5701 35.8788 30.3369C37.8022 28.7713 39.9429 27.4869 42.1794 26.4261C44.3009 25.3973 46.5375 24.6369 48.7804 23.934C50.6974 23.3397 52.6847 22.9691 54.6848 22.8541C55.196 22.8413 55.7072 22.8094 56.2184 22.803ZM18.9196 42.8358C18.9196 43.2895 19.795 43.0531 20.1593 43.3087C20.9964 43.9158 21.5459 44.8168 22.0124 45.7178C22.153 45.9989 22.2935 46.2801 22.383 46.574C22.645 47.6987 21.974 44.1011 22.0252 45.2577C22.1018 46.7849 22.0635 48.3249 21.891 49.8521C21.7696 50.9065 21.5779 51.9481 21.3542 52.9897C21.1497 52.5999 20.9452 52.2037 20.6513 51.8778C20.1912 51.3282 19.5714 50.9576 18.9324 50.6509C18.4787 50.4017 18.0122 50.178 17.5138 50.0438C17.386 49.5454 17.2837 49.0342 17.124 48.5358C15.7565 45.558 16.9578 49.2642 16.9578 48.2163C16.9259 46.8488 17.239 45.5069 17.5649 44.1905C17.616 43.986 17.6416 43.7624 17.7822 43.5963C18.0441 43.2512 18.3764 42.887 18.8301 42.8422C18.8557 42.8358 18.9196 42.8039 18.9196 42.8358ZM14.7149 47.9479C15.1942 47.9415 15.6862 48.0182 16.1463 48.1268C16.338 48.146 16.3955 48.3505 16.485 48.4847C16.7406 48.9256 16.7661 49.4496 16.9642 49.9096C16.0441 49.7243 15.0855 49.5646 14.159 49.7882C13.6286 49.9608 13.3474 50.4975 13.1813 50.9896C12.9001 51.8714 12.8171 52.8171 12.9768 53.7245C13.0982 54.4402 13.488 55.0792 13.9992 55.584C14.2868 55.8716 14.6319 56.1016 14.9641 56.3381C14.5807 56.5873 14.1526 56.9004 13.6669 56.7981C13.5455 56.7598 13.3538 56.7662 13.3155 56.6192C12.8554 55.5457 12.3825 54.4722 12.1653 53.3219C11.9161 52.0375 12.0183 50.7148 12.1781 49.424C12.4464 48.9447 12.8043 48.4847 13.3155 48.2546C13.7564 48.0437 14.2357 47.9543 14.7149 47.9479ZM11.8394 49.1556C11.7308 49.5071 11.6732 49.8713 11.6221 50.2355C11.4943 50.9512 11.424 51.6797 11.5071 52.4018C11.603 53.405 11.9352 54.3635 12.2675 55.3029C12.4145 55.6927 12.5806 56.0697 12.7532 56.4467C12.2611 56.8301 11.7691 57.2263 11.2068 57.501C10.9 57.648 10.5486 57.7439 10.2163 57.648C9.92876 57.5586 9.71789 57.3221 9.5773 57.0729C9.36643 56.6895 9.27058 56.2678 9.18112 55.846C9.02776 55.0089 8.95108 54.1654 8.88079 53.3219C8.86801 53.0536 8.82328 52.7916 8.84245 52.5232C8.8744 51.8011 8.89996 51.0599 9.16195 50.3761C9.25141 50.1461 9.33448 49.9096 9.45589 49.6988C9.6476 49.5007 9.92237 49.392 10.1844 49.3281C10.7275 49.2067 11.2835 49.1684 11.8394 49.1556ZM7.28966 50.3058C7.53248 50.3122 7.7753 50.3442 8.01174 50.3825C8.15871 52.1334 8.31846 53.8843 8.44626 55.6351C8.26734 56.1208 8.02452 56.6512 7.53248 56.894C7.04684 57.1368 6.49729 57.2071 5.96052 57.2454C5.72409 56.7726 5.53878 56.2678 5.32791 55.7821C4.89977 54.7917 4.71446 53.7117 4.71446 52.6382C4.70807 52.3443 4.66334 52.0248 4.83587 51.7692C5.0723 51.5072 5.30874 51.2388 5.57073 51.0087C5.83911 50.8298 6.11389 50.6573 6.37588 50.472C6.66343 50.3442 6.97655 50.3058 7.28966 50.3058ZM15.4114 50.3697C16.0313 50.3761 16.6447 50.5167 17.239 50.6892C18.3509 51.0151 19.4308 51.5519 20.2359 52.4082C20.7791 52.9641 21.1497 53.667 21.4309 54.3891C21.6993 55.1175 21.7504 55.9035 21.8271 56.6767C21.859 56.9451 21.8079 57.2199 21.7823 57.4883C21.6162 58.811 21.4053 60.1593 20.8622 61.3926C20.6257 61.8974 20.351 62.3958 19.9612 62.7984C19.2455 63.5652 18.517 64.332 17.6416 64.9263C16.8748 65.4503 15.9993 65.8529 15.0664 65.9615C13.7756 66.134 12.4401 65.9807 11.2451 65.4631C10.9703 65.3353 10.7083 65.1883 10.4591 65.0285C10.3697 64.9646 10.2802 64.9071 10.1908 64.8432C10.0118 64.709 9.84569 64.5621 9.67955 64.4151C9.47506 64.1914 9.28336 63.955 9.09805 63.7186C8.86801 63.4438 8.65074 63.1563 8.45265 62.8623C8.20344 62.5045 7.99896 62.1083 7.82643 61.7057C7.60916 61.2328 7.40468 60.7536 7.20659 60.2679L7.21937 60.2424C6.82318 59.5267 6.56758 58.7471 6.32476 57.9675C6.57397 58.0186 6.82957 58.0698 7.07879 57.9931C7.37273 57.9228 7.61555 57.7375 7.86477 57.5905C8.00535 57.4116 8.19066 57.2838 8.31846 57.0921C8.51016 56.8429 8.60601 56.5361 8.72103 56.2422C8.77855 56.5873 8.91913 56.9068 9.07888 57.2199C9.25141 57.5202 9.45589 57.8078 9.71789 58.0378C9.89681 58.172 10.1013 58.2615 10.3186 58.2998C10.4783 58.3062 10.6444 58.2934 10.8106 58.2998C11.1493 58.2103 11.4879 58.0953 11.801 57.9292C11.98 57.8333 12.1397 57.7119 12.3123 57.6097C12.5103 57.4371 12.702 57.2518 12.8554 57.041C12.964 57.124 13.0855 57.1943 13.1877 57.2838C13.75 57.6288 14.421 57.4052 14.9833 57.1879C14.127 57.6544 13.6286 58.581 13.4305 59.5075C13.3347 59.8845 13.3347 60.2871 13.226 60.6641C13.1813 60.8239 13.3666 61.0028 13.52 60.9133C13.603 60.8431 13.7117 60.7664 13.7181 60.645C13.8906 59.7503 14.1462 58.843 14.6702 58.0825C14.9577 57.7311 15.3731 57.5138 15.7948 57.3605C16.2485 57.1879 16.747 57.3285 17.2198 57.2966C17.3476 57.2071 17.2773 57.009 17.271 56.8748C17.2582 56.6767 17.0473 56.6128 16.8939 56.5489C16.2805 56.2933 15.667 56.0313 15.0792 55.7182C14.504 55.4179 14.1654 54.8364 13.8587 54.2932C13.7053 54.0312 13.4944 53.7692 13.5008 53.4497C13.4561 52.7213 13.3794 51.9609 13.6286 51.2643C13.7692 50.849 14.1398 50.5295 14.5743 50.4528C14.8491 50.3889 15.1303 50.3697 15.4114 50.3697ZM22.1146 52.2101C22.0379 52.5871 21.9804 52.9705 21.8654 53.3411L22.1146 52.2101ZM15.7885 56.6895C15.8971 56.7342 16.0057 56.7726 16.1143 56.8173C15.8012 56.8493 15.5073 56.9643 15.2197 57.0793C15.4114 56.9451 15.6095 56.8301 15.7885 56.6895ZM21.22 62.0636C21.2328 62.1977 21.252 62.3383 21.2328 62.4789C21.2456 62.6898 21.2647 62.9007 21.2392 63.1115C21.2456 63.4246 21.2328 63.7441 21.1817 64.0573C21.1753 64.1914 21.1497 64.332 21.1178 64.4662C21.0986 64.6196 21.0475 64.7729 20.9964 64.9199C20.9452 65.1244 20.8686 65.3161 20.7599 65.495C20.6896 65.6739 20.581 65.8465 20.4468 65.9871C19.9484 66.6452 19.2071 67.067 18.4787 67.4248C17.2837 67.9935 15.9929 68.3578 14.683 68.5431C14.389 68.5686 14.0887 68.6389 13.8075 68.5431C13.5775 68.5239 13.3538 68.4728 13.1238 68.4281C12.9065 68.4153 12.6957 68.3642 12.4784 68.3194C12.3442 68.345 12.2356 68.2364 12.1269 68.1725C12.0055 68.0574 11.8969 67.9424 11.7883 67.8146C11.7371 67.7124 11.6732 67.6165 11.6157 67.5207C11.5582 67.3929 11.5007 67.2715 11.4432 67.1437C11.3793 66.9775 11.3154 66.805 11.2579 66.6325C11.1684 66.3705 11.0981 66.1085 11.0279 65.8401C11.3793 66.0062 11.7627 66.1085 12.1269 66.2427C12.4081 66.2938 12.6893 66.3257 12.9513 66.4152L12.9896 66.3896C13.2388 66.428 13.488 66.4408 13.7372 66.4535C14.0695 66.4599 14.4082 66.428 14.7405 66.4216L14.7597 66.4024C15.3795 66.3513 15.9674 66.1404 16.5617 65.9679C16.7278 65.8784 16.9131 65.8273 17.0856 65.7506C17.3157 65.6548 17.5202 65.5206 17.7438 65.4247C18.1272 65.1627 18.5234 64.9007 18.8685 64.5876C19.0218 64.4598 19.1496 64.2937 19.3222 64.1914C19.4564 63.9997 19.6353 63.84 19.7886 63.6675C20.0059 63.4119 20.319 63.2777 20.5746 63.0732C20.811 62.7537 21.0155 62.4086 21.22 62.0636ZM77.4335 73.6871C79.2163 76.2431 80.2323 79.2401 80.9288 82.2562C81.2419 83.6684 81.4911 85.0998 81.6062 86.5439C81.6253 87.7516 81.5614 88.9658 81.2483 90.1351C81.0758 90.8061 80.8074 91.4515 80.4879 92.0713C80.3282 92.3908 80.0598 92.64 79.8361 92.9148C79.4208 93.4005 79.0182 93.8925 78.5965 94.3717C77.8488 94.1481 77.0692 94.0395 76.2896 94.065C75.7401 94.0842 75.1522 94.18 74.7241 94.5507C74.6027 94.6401 74.5132 94.7807 74.3726 94.8446C73.8422 94.8254 73.3055 94.7616 72.7687 94.7871C71.6696 94.8446 70.5833 95.113 69.5673 95.522C69.5226 95.5284 69.4778 95.5347 69.4331 95.5411C69.382 94.0778 69.2797 92.6145 69.3181 91.1575C69.3181 91.0361 69.3372 90.9147 69.3756 90.7997C69.382 90.0904 69.4523 89.3875 69.4586 88.6782C69.4778 87.8986 70.104 84.7291 70.2127 83.9623C70.922 81.2785 70.9987 80.8056 72.3661 78.9653L76.3727 74.4986C76.9223 74.013 76.8967 74.1855 77.4335 73.6871ZM44.5246 93.5474C45.2595 94.1864 45.9751 94.851 46.7675 95.4197C47.8666 96.2313 49.0871 96.9022 50.3843 97.3495C51.9179 97.8799 53.541 98.1227 55.1641 98.1866C55.4963 98.1611 55.8286 98.225 56.1609 98.1994C56.5443 98.1674 56.9277 98.1802 57.3111 98.1547C57.5476 98.1355 57.784 98.0908 58.0268 98.1035C58.2505 98.0396 58.4869 98.046 58.7106 98.0013C58.8959 97.9821 59.0748 97.9246 59.2601 97.9374C59.5413 97.8671 59.8288 97.8032 60.1228 97.7713C60.6084 97.6307 61.1132 97.5348 61.5989 97.3879C62.9344 96.9981 64.238 96.4996 65.5096 95.9437C66.2764 95.6114 67.0304 95.2408 67.7972 94.9021C67.7972 95.1961 67.7717 95.4836 67.7397 95.7776C67.7142 96.0587 67.7333 96.3399 67.6758 96.6147C67.4266 96.9214 67.1454 97.2089 66.9282 97.5412C66.8068 97.7649 66.5448 97.816 66.3403 97.9246C64.6853 98.717 62.9472 99.3432 61.1579 99.7458C60.9087 99.7969 60.6595 99.88 60.4039 99.8864C60.1291 99.995 59.8224 100.001 59.5349 100.065C59.1259 100.136 58.7233 100.199 58.3208 100.244C57.9501 100.283 57.5859 100.334 57.2153 100.346C55.6944 100.468 54.1544 100.442 52.6464 100.18C51.477 99.9886 50.3396 99.6052 49.2916 99.0493C47.5599 98.1483 46.0646 96.8575 44.646 95.5284C44.5374 95.4517 44.5885 95.3047 44.5821 95.1961C44.6077 94.6465 44.531 94.097 44.5246 93.5474ZM76.7369 94.8638C77.1651 94.8766 77.5996 94.9596 78.015 95.0683C77.8808 95.2216 77.753 95.375 77.6252 95.5284C77.4271 95.7584 77.2354 95.9948 77.0309 96.2185C76.8903 96.4102 76.7178 96.5699 76.59 96.768C76.4622 96.9917 76.5325 97.2537 76.5388 97.4965C76.8072 98.3336 77.3504 99.0493 78.0086 99.6244C78.1619 99.7458 78.3281 99.8544 78.475 99.9822C78.8329 100.129 79.2482 100.366 79.6253 100.155C79.8297 99.9822 79.9895 99.7458 80.2323 99.6116C80.5326 99.3816 80.833 99.1451 81.1525 98.9343C81.3506 98.7426 81.5806 98.5892 81.7979 98.4294C81.8554 98.5253 81.9129 98.6275 81.9768 98.7298C82.0854 98.9215 82.2324 99.1068 82.3091 99.3241C82.5647 99.7394 82.7692 100.199 82.8522 100.685C82.8522 100.902 82.7564 101.107 82.6861 101.305C82.4497 101.906 82.1046 102.449 81.7467 102.979C81.063 102.947 80.3665 102.858 79.7211 102.621C79.4208 102.557 79.1396 102.41 78.8648 102.27C78.5773 102.129 78.3089 101.944 78.0405 101.759C77.721 101.522 77.4015 101.279 77.1267 100.992C76.4047 100.334 75.7784 99.5541 75.3375 98.6787C75.2225 98.4167 75.0755 98.1611 75.0372 97.8799C74.8838 97.5157 74.8263 97.1195 74.7624 96.7425C74.6985 96.4166 74.7177 96.0715 74.8519 95.7776C74.9861 95.5475 75.1905 95.3814 75.3759 95.2025C75.4717 95.0938 75.6123 95.0427 75.7465 95.0108C76.066 94.9021 76.4047 94.8638 76.7369 94.8638ZM73.0627 95.5923C73.363 95.5859 73.6633 95.605 73.9637 95.6242C73.8806 96.2249 74.149 96.7808 74.1937 97.3687C74.3471 98.3336 74.8838 99.1771 75.4589 99.9375C76.1363 100.813 76.9095 101.618 77.7977 102.276C78.5006 102.8 79.3249 103.19 80.2067 103.305C80.5774 103.363 80.9608 103.331 81.3314 103.401C80.7052 104.212 80.0598 105.005 79.5422 105.893C78.9735 106.858 78.622 107.951 77.9511 108.852C77.2609 109.74 76.296 110.341 75.3631 110.935C74.871 111.28 74.2256 111.363 73.6505 111.21C73.1329 111.069 72.6601 110.807 72.2192 110.507C71.9444 110.302 71.6696 110.098 71.4651 109.817C71.3246 109.606 71.2223 109.35 71.267 109.094C71.2862 108.903 71.3437 108.679 71.2095 108.513C71.0626 108.36 70.8261 108.404 70.6344 108.392C69.8612 108.289 69.1519 107.868 68.6152 107.305C67.9506 106.622 67.3947 105.829 66.9601 104.979C66.6406 104.353 66.3914 103.625 66.5895 102.915C66.6598 102.564 66.8771 102.257 67.1199 102.001C67.3755 101.759 67.7269 101.663 68.0464 101.548C68.2765 101.452 68.5257 101.503 68.7621 101.516C68.7557 101.784 68.6599 102.04 68.5513 102.276C68.6535 102.327 68.7621 102.379 68.8644 102.43C68.9666 102.219 69.0625 102.001 69.0944 101.765C69.1392 101.478 69.088 101.19 69.088 100.902C69.0816 100.634 69.1455 100.372 69.1903 100.104C69.0752 100.084 68.9602 100.059 68.8452 100.04C68.7813 100.321 68.7302 100.608 68.7238 100.902C68.3148 100.922 67.8995 100.947 67.5097 101.069C67.3116 101.152 67.0496 101.107 66.9154 100.934C66.8068 100.755 66.794 100.532 66.7876 100.327C66.8196 99.6627 66.8835 98.979 67.1902 98.3783C67.5289 97.6562 68.1998 97.1642 68.8708 96.7744C70.0657 96.1035 71.4076 95.7392 72.7623 95.605C72.8646 95.5986 72.9668 95.5923 73.0627 95.5923ZM44.4607 96.5763C45.2211 97.2217 45.956 97.8927 46.7611 98.4806C47.8283 99.2793 48.9913 99.9631 50.2373 100.43C51.5153 100.928 52.8828 101.139 54.2439 101.26C55.6497 101.318 57.0683 101.286 58.4677 101.113C58.5444 101.107 58.6339 101.081 58.7106 101.107C59.0812 101.024 59.4518 100.973 59.8224 100.928C60.9215 100.717 62.027 100.487 63.1005 100.155C64.1805 99.8225 65.2348 99.4135 66.2636 98.947C66.155 99.4455 66.1742 99.9631 66.1103 100.468C64.5063 101.484 62.7746 102.321 60.9215 102.762C60.5573 102.839 60.2058 102.947 59.8352 102.966C59.586 103.056 59.3048 103.056 59.0428 103.094C58.391 103.171 57.7393 103.222 57.0875 103.235C55.6433 103.26 54.1992 103.145 52.7806 102.883C51.5984 102.66 50.4354 102.327 49.3299 101.848C47.4512 101.049 45.7962 99.8225 44.2243 98.5381C44.1604 98.4997 44.1348 98.4422 44.154 98.3655C44.2626 97.7713 44.3648 97.1706 44.4607 96.5763ZM44.0262 99.5158C45.0166 100.283 46.0071 101.043 47.0806 101.676C47.8602 102.123 48.6462 102.557 49.4641 102.928C50.7038 103.49 52.0329 103.816 53.3812 103.963C54.934 104.142 56.4996 104.129 58.0524 104.034C58.7489 103.976 59.4454 103.912 60.1355 103.81C60.4806 103.759 60.8129 103.682 61.1579 103.637L61.1643 103.618C62.1868 103.433 63.1517 103.018 64.091 102.589C64.9217 102.206 65.7269 101.765 66.5064 101.273C66.5448 101.382 66.5767 101.484 66.6151 101.586C66.3275 101.944 65.9505 102.244 65.7844 102.679C65.6949 102.877 65.6821 103.094 65.6566 103.305C65.4393 103.593 65.1581 103.823 64.8259 103.982C63.6565 104.628 62.4104 105.165 61.1068 105.497C60.8512 105.554 60.602 105.631 60.3464 105.657C59.8799 105.784 59.3943 105.823 58.9214 105.893C58.3335 105.944 57.7457 106.008 57.1514 105.995C55.8925 106.034 54.6273 105.931 53.3876 105.727C51.477 105.42 49.6175 104.794 47.9625 103.803C47.5088 103.516 47.0167 103.292 46.5694 102.998C45.6109 102.398 44.7802 101.631 43.9814 100.839C43.9687 100.398 44.0134 99.9567 44.0262 99.5158ZM43.9623 102.053C44.7227 102.756 45.5406 103.382 46.3585 104.014C48.2053 105.401 50.4162 106.206 52.6655 106.653C54.41 106.999 56.212 107.114 57.9821 106.922C58.2377 106.877 58.4933 106.845 58.7489 106.807C59.0748 106.775 59.3879 106.698 59.7074 106.698C60.2633 106.57 60.8321 106.5 61.3816 106.347C62.9791 105.931 64.4872 105.228 65.8994 104.391C66.0655 104.8 66.2764 105.197 66.4937 105.58C65.5927 106.289 64.5894 106.877 63.5159 107.286C62.3976 107.721 61.2155 107.938 60.0269 108.066C59.9375 108.072 59.848 108.072 59.7585 108.066C59.4837 108.117 59.209 108.136 58.9406 108.13C58.5891 108.155 58.2377 108.149 57.8926 108.181C57.2536 108.181 56.6146 108.149 55.982 108.123C54.8126 108.066 53.6432 107.925 52.493 107.682C51.1064 107.395 49.7325 107.03 48.4161 106.507C47.6174 106.187 46.8378 105.791 46.1413 105.267C45.285 104.634 44.5374 103.848 43.9239 102.973C43.9112 102.666 43.9175 102.353 43.9559 102.053H43.9623ZM44.2626 104.82C45.0039 105.497 45.7707 106.161 46.6397 106.679C48.6462 107.9 50.985 108.417 53.2854 108.743C54.0458 108.845 54.8062 108.928 55.5666 108.973C55.9309 109.024 56.3015 108.986 56.6657 109.043C57.3495 109.063 58.0396 109.043 58.7233 109.056C59.0109 108.999 59.3048 108.999 59.5988 108.999C60.0844 108.922 60.5765 108.909 61.0621 108.826C62.5254 108.622 63.9568 108.174 65.2604 107.459C65.861 107.133 66.4361 106.743 66.9857 106.334C67.0496 106.423 67.1199 106.513 67.171 106.615C66.909 107.599 66.3659 108.519 65.5671 109.152C64.7747 109.791 63.8098 110.168 62.8385 110.424C61.995 110.641 61.1324 110.788 60.2633 110.884C59.7457 110.935 59.2281 111.011 58.7106 111.005C58.2569 111.056 57.7904 111.082 57.3303 111.075C55.835 111.114 54.3334 111.043 52.8445 110.896C51.4834 110.75 50.1287 110.539 48.8187 110.136C47.8538 109.836 46.9017 109.408 46.1157 108.756C45.3553 108.142 44.8185 107.292 44.4351 106.404C44.3329 106.155 44.1731 105.912 44.2179 105.631C44.2498 105.363 44.237 105.088 44.2626 104.82ZM47.5343 111.523C47.5854 111.523 47.6493 111.548 47.6941 111.555C48.9082 111.912 50.1159 112.264 51.3492 112.52C53.8924 113.05 56.5188 113.254 59.1003 112.96C60.3656 112.813 61.6053 112.545 62.8385 112.251C63.0878 112.2 63.3497 112.136 63.6053 112.2C63.5734 112.756 63.2092 113.203 62.8385 113.574C62.1868 114.213 61.4455 114.775 60.6148 115.159C59.7457 115.574 58.7936 115.785 57.8351 115.887C56.2696 116.04 54.6784 115.977 53.1192 115.759C51.6176 115.536 50.0712 115.203 48.8187 114.296C48.4034 113.964 47.9752 113.612 47.7388 113.127C47.5854 112.826 47.3682 112.551 47.2659 112.226C47.1829 111.989 47.2979 111.74 47.4513 111.561C47.4704 111.535 47.5024 111.523 47.5343 111.523Z" fill="#0B0266"/>
<path d="M22.7089 48.3057C22.3958 52.5999 21.8462 60.4085 21.5267 61.252C21.4564 61.4182 21.5267 61.5907 21.5587 61.7568C21.8526 63.0796 21.8015 64.511 21.252 65.7634C21.0155 66.313 20.5682 66.7411 20.0762 67.0734C20.0954 67.4696 20.1401 67.8657 20.172 68.2683C20.2168 68.6645 20.2232 69.0735 20.3701 69.4505C21.3989 72.3835 22.3894 75.3421 23.7441 78.141C24.2425 79.1442 24.7793 80.1347 25.495 80.9973C25.6419 81.1571 25.7634 81.3488 25.9614 81.451C26.4663 81.6044 27.003 81.5597 27.5142 81.5021C28.575 81.3552 29.5974 81.0101 30.6006 80.6459C38.9716 79.5851 36.9971 74.9651 33.9043 71.457C31.7125 68.7284 32.9777 70.294 30.7796 67.6996C29.821 66.5877 28.9009 65.4439 28.0766 64.2234C26.1276 60.1913 26.5557 61.3095 25.7058 59.1816C23.6355 49.0725 23.514 42.3118 30.115 33.3274C31.0096 32.1005 32.3579 31.3337 33.1375 30.7075C36.684 27.8511 35.3421 28.6435 38.863 26.6945C39.879 26.1322 40.9142 25.621 41.9558 25.1162C44.8697 23.4611 45.6237 22.9691 49.1957 22.0042L56.5507 21.3524C62.5126 21.9531 62.8194 22.2215 66.2892 23.1352C73.0882 26.8415 71.9955 24.2663 80.571 33.4872C83.7916 37.7621 82.8522 36.4394 84.3028 38.9698C85.9067 42.6633 85.8683 41.9029 86.9099 45.6602C86.9866 46.1523 87.1144 46.6379 87.1847 47.1364C87.6065 50.0438 87.5426 49.5071 87.5042 52.6765C87.0761 55.878 87.2806 54.3955 86.6863 57.3924C86.2965 58.696 85.8172 59.9676 85.2613 61.2073C83.8938 64.0573 84.8204 62.185 82.8842 65.7378C82.5711 66.3769 82.226 67.0031 81.8809 67.6293C81.734 67.9041 81.5487 68.1533 81.4336 68.4408C81.5359 68.7284 81.7468 68.9584 81.9001 69.2204C83.127 71.1119 84.2069 73.1056 85.0376 75.2015C85.9898 77.585 86.7374 80.058 87.2422 82.5757C87.7087 84.9847 87.9771 87.4705 87.6001 89.9115C87.3125 91.8029 86.4818 93.5922 85.2869 95.081C84.4498 96.1354 83.4657 97.0556 82.4305 97.9118C82.7756 98.3528 83.159 98.7681 83.389 99.2857C83.6446 99.8097 83.6638 100.423 83.5232 100.985C83.3379 101.752 82.9353 102.442 82.5136 103.094C81.8618 104.078 81.2036 105.056 80.5774 106.053C79.9575 107.037 79.3888 108.046 78.7434 109.011C78.2003 109.823 77.606 110.647 76.7881 111.21C76.0852 111.702 75.2289 111.912 74.3854 112.021C73.74 111.989 73.0818 111.906 72.4939 111.619C71.9061 111.325 71.3565 110.909 70.9667 110.372C70.7239 110.034 70.5833 109.625 70.5194 109.216C70.4875 109.107 70.4938 108.941 70.3405 108.928C69.8293 108.794 69.3372 108.59 68.8835 108.315C68.6791 108.832 68.481 109.369 68.0976 109.785C67.2732 110.73 65.9888 111.101 64.7875 111.267C64.4233 112.117 64.0718 112.986 63.5223 113.74C62.9727 114.52 62.2315 115.159 61.3752 115.574C60.3336 116.092 59.1706 116.322 58.0204 116.405C56.6593 116.456 55.2983 116.488 53.9436 116.328C53.7966 116.315 53.6432 116.302 53.4963 116.29C52.4099 116.162 51.33 115.938 50.2948 115.574C49.381 115.242 48.4864 114.756 47.8283 114.021C47.3298 113.472 46.9976 112.794 46.7803 112.091C46.6717 111.753 46.6525 111.395 46.5375 111.063C46.4097 110.89 46.1988 110.813 46.0263 110.692C45.0997 110.11 44.1668 109.484 43.5277 108.583C42.9143 107.727 42.6587 106.666 42.6204 105.631C42.5565 105.203 42.6459 104.762 42.5117 104.34C42.4606 104.142 42.4095 103.944 42.3839 103.746C42.205 102.398 42.2945 101.037 42.4159 99.6947C42.4989 98.7745 42.6204 97.8543 42.729 96.9406C42.7737 96.538 42.7609 96.1354 42.7546 95.7392C42.8185 94.9341 42.7354 94.1289 42.6843 93.3238C42.6523 93.1065 42.6395 92.8892 42.6523 92.672C42.6587 92.5058 42.6523 92.3397 42.6204 92.1736C42.4989 90.9978 42.3967 89.8156 42.1986 88.6526C41.9366 87.0935 41.6043 85.5407 41.1251 84.039C38.9844 84.9783 36.8501 85.9241 34.6456 86.7101C32.3579 87.528 30.0127 88.2053 27.6037 88.5312C26.1276 88.7165 24.6195 88.7549 23.1562 88.4609C21.4245 88.1223 19.7886 87.234 18.6512 85.8794C17.4179 84.4288 16.7022 82.6268 16.1527 80.8248C15.7437 79.4893 15.4626 78.1218 15.1878 76.7543C14.9194 75.9428 14.7085 75.1121 14.5807 74.2686C14.4977 73.6424 14.306 73.0417 14.1909 72.4219C13.9609 71.3036 13.8139 70.1726 13.6925 69.0415C13.2516 68.9584 12.8043 68.8945 12.3634 68.8242C12.1972 68.8115 12.095 68.6645 11.9672 68.575C11.6541 68.3258 11.3729 68.0383 11.1876 67.6868C10.8489 67.0798 10.6892 66.3896 10.5486 65.7187C10.5103 65.4759 10.2355 65.412 10.0757 65.2714C9.23224 64.6196 8.31207 63.9678 7.80726 62.9901C7.19381 61.776 6.5548 60.5683 5.99248 59.3222C5.38542 57.9356 4.74641 56.5425 4.3694 55.0728C4.14574 54.1974 3.89014 53.2836 4.04989 52.3762C4.1777 51.9161 4.37579 51.4688 4.70168 51.111C5.01479 50.7723 5.37264 50.472 5.74965 50.2036C6.18418 49.8841 6.73372 49.7435 7.2641 49.7371C7.56443 49.7243 7.85838 49.654 8.15232 49.7179C8.31207 49.7435 8.45904 49.8266 8.60601 49.8969C8.77216 49.5901 8.95108 49.2834 9.24502 49.0789C9.81374 48.6636 10.555 48.6188 11.2387 48.5869C11.5391 48.5933 11.8394 48.5613 12.1333 48.5038C12.325 48.3121 12.4848 48.0885 12.7148 47.9415C14.8683 46.5804 17.8716 47.3983 16.3636 48.4463C16.3572 47.6156 16.4275 46.7785 16.5872 45.9606C16.715 45.3983 16.7789 44.8231 16.9834 44.2864C17.1559 43.788 17.4499 43.3534 17.7438 42.9189C17.9739 42.593 18.2742 42.2927 18.6576 42.1649C18.9643 42.0562 19.303 42.1265 19.5842 42.2735C19.8717 42.4269 20.1784 42.5419 20.4468 42.7336C20.9836 43.117 21.4117 43.641 21.7376 44.2161C22.7153 46.05 22.1466 44.9765 22.4213 45.673L22.7089 48.3057ZM22.7089 48.3057C8.13315 96.129 15.4178 72.2174 22.7089 48.3057ZM56.2184 22.803C56.5315 22.7966 56.8383 22.803 57.145 22.8349C60.4614 22.9244 63.7395 23.7487 66.7812 25.0714C70.3405 26.6114 73.6058 28.7393 76.8264 30.88C76.967 30.9695 77.0948 31.0653 77.2034 31.1867C77.5677 31.5957 77.9319 32.0047 78.2897 32.4136C78.507 32.6756 78.7562 32.9121 78.9415 33.206C80.2323 35.1997 81.4975 37.2126 82.6222 39.3085C83.7405 41.3981 84.7373 43.5643 85.3955 45.8519C85.8428 47.3983 86.1176 49.0023 86.1751 50.6189C86.2262 53.2069 85.6894 55.7757 84.8523 58.2167C84.0088 60.6513 82.8714 62.9709 81.587 65.2011C80.4624 67.1373 79.2355 69.0096 77.9255 70.8243C77.5421 71.3547 77.1076 71.8531 76.6794 72.3452C76.3344 72.7094 76.034 73.1248 75.6506 73.4507C74.0531 74.6137 72.4492 75.815 71.2031 77.3614C70.5577 78.1538 70.0402 79.0484 69.6631 79.9941C69.1008 81.4063 68.8069 82.908 68.596 84.4096C68.2062 87.5152 68.0081 90.64 67.7972 93.7583C67.7908 93.8414 67.7781 93.9372 67.6822 93.9692C65.5288 95.0108 63.337 96.0076 61.0302 96.6402C59.3304 97.1067 57.5731 97.324 55.8158 97.3431C54.3781 97.3176 52.9339 97.1706 51.5409 96.8C50.3523 96.4869 49.2149 95.9884 48.1733 95.3303C46.8186 94.4804 45.6301 93.3941 44.4799 92.2886C44.4032 92.2055 44.3009 92.1288 44.2818 92.0202C44.1987 91.7199 44.2115 91.4068 44.1668 91.1C43.8856 88.4034 43.5661 85.694 42.7865 83.0869C42.1347 80.844 41.1315 78.7033 39.8151 76.7671C38.6074 74.9907 37.1888 73.374 35.7638 71.7637C34.9395 70.8371 34.1407 69.8914 33.31 68.9712C31.4633 66.8242 29.6805 64.5812 28.4472 62.0124C27.1692 59.335 26.7027 56.338 26.6835 53.3858C26.6644 51.6605 26.7922 49.9416 26.9775 48.2227C27.1308 46.9574 27.265 45.6858 27.4823 44.427C27.8337 43.1042 28.2299 41.7879 28.6836 40.4971C29.0926 39.3149 29.6485 38.1966 30.262 37.1167C30.7604 36.2413 31.2844 35.385 31.8723 34.5735C33.0161 32.9951 34.3708 31.5701 35.8788 30.3369C37.8022 28.7713 39.9429 27.4869 42.1794 26.4261C44.3009 25.3973 46.5375 24.6369 48.7804 23.934C50.6974 23.3397 52.6847 22.9691 54.6848 22.8541C55.196 22.8413 55.7072 22.8094 56.2184 22.803ZM18.9196 42.8358C18.9196 43.2895 19.795 43.0531 20.1593 43.3087C20.9964 43.9158 21.5459 44.8168 22.0124 45.7178C22.153 45.9989 22.2935 46.2801 22.383 46.574C22.645 47.6987 21.974 44.1011 22.0252 45.2577C22.1018 46.7849 22.0635 48.3249 21.891 49.8521C21.7696 50.9065 21.5779 51.9481 21.3542 52.9897C21.1497 52.5999 20.9452 52.2037 20.6513 51.8778C20.1912 51.3282 19.5714 50.9576 18.9324 50.6509C18.4787 50.4017 18.0122 50.178 17.5138 50.0438C17.386 49.5454 17.2837 49.0342 17.124 48.5358C15.7565 45.558 16.9578 49.2642 16.9578 48.2163C16.9259 46.8488 17.239 45.5069 17.5649 44.1905C17.616 43.986 17.6416 43.7624 17.7822 43.5963C18.0441 43.2512 18.3764 42.887 18.8301 42.8422C18.8557 42.8358 18.9196 42.8039 18.9196 42.8358ZM14.7149 47.9479C15.1942 47.9415 15.6862 48.0182 16.1463 48.1268C16.338 48.146 16.3955 48.3505 16.485 48.4847C16.7406 48.9256 16.7661 49.4496 16.9642 49.9096C16.0441 49.7243 15.0855 49.5646 14.159 49.7882C13.6286 49.9608 13.3474 50.4975 13.1813 50.9896C12.9001 51.8714 12.8171 52.8171 12.9768 53.7245C13.0982 54.4402 13.488 55.0792 13.9992 55.584C14.2868 55.8716 14.6319 56.1016 14.9641 56.3381C14.5807 56.5873 14.1526 56.9004 13.6669 56.7981C13.5455 56.7598 13.3538 56.7662 13.3155 56.6192C12.8554 55.5457 12.3825 54.4722 12.1653 53.3219C11.9161 52.0375 12.0183 50.7148 12.1781 49.424C12.4464 48.9447 12.8043 48.4847 13.3155 48.2546C13.7564 48.0437 14.2357 47.9543 14.7149 47.9479ZM11.8394 49.1556C11.7308 49.5071 11.6732 49.8713 11.6221 50.2355C11.4943 50.9512 11.424 51.6797 11.5071 52.4018C11.603 53.405 11.9352 54.3635 12.2675 55.3029C12.4145 55.6927 12.5806 56.0697 12.7532 56.4467C12.2611 56.8301 11.7691 57.2263 11.2068 57.501C10.9 57.648 10.5486 57.7439 10.2163 57.648C9.92876 57.5586 9.71789 57.3221 9.5773 57.0729C9.36643 56.6895 9.27058 56.2678 9.18112 55.846C9.02776 55.0089 8.95108 54.1654 8.88079 53.3219C8.86801 53.0536 8.82328 52.7916 8.84245 52.5232C8.8744 51.8011 8.89996 51.0599 9.16195 50.3761C9.25141 50.1461 9.33448 49.9096 9.45589 49.6988C9.6476 49.5007 9.92237 49.392 10.1844 49.3281C10.7275 49.2067 11.2835 49.1684 11.8394 49.1556ZM7.28966 50.3058C7.53248 50.3122 7.7753 50.3442 8.01174 50.3825C8.15871 52.1334 8.31846 53.8843 8.44626 55.6351C8.26734 56.1208 8.02452 56.6512 7.53248 56.894C7.04684 57.1368 6.49729 57.2071 5.96052 57.2454C5.72409 56.7726 5.53878 56.2678 5.32791 55.7821C4.89977 54.7917 4.71446 53.7117 4.71446 52.6382C4.70807 52.3443 4.66334 52.0248 4.83587 51.7692C5.0723 51.5072 5.30874 51.2388 5.57073 51.0087C5.83911 50.8298 6.11389 50.6573 6.37588 50.472C6.66343 50.3442 6.97655 50.3058 7.28966 50.3058ZM15.4114 50.3697C16.0313 50.3761 16.6447 50.5167 17.239 50.6892C18.3509 51.0151 19.4308 51.5519 20.2359 52.4082C20.7791 52.9641 21.1497 53.667 21.4309 54.3891C21.6993 55.1175 21.7504 55.9035 21.8271 56.6767C21.859 56.9451 21.8079 57.2199 21.7823 57.4883C21.6162 58.811 21.4053 60.1593 20.8622 61.3926C20.6257 61.8974 20.351 62.3958 19.9612 62.7984C19.2455 63.5652 18.517 64.332 17.6416 64.9263C16.8748 65.4503 15.9993 65.8529 15.0664 65.9615C13.7756 66.134 12.4401 65.9807 11.2451 65.4631C10.9703 65.3353 10.7083 65.1883 10.4591 65.0285C10.3697 64.9646 10.2802 64.9071 10.1908 64.8432C10.0118 64.709 9.84569 64.5621 9.67955 64.4151C9.47506 64.1914 9.28336 63.955 9.09805 63.7186C8.86801 63.4438 8.65074 63.1563 8.45265 62.8623C8.20344 62.5045 7.99896 62.1083 7.82643 61.7057C7.60916 61.2328 7.40468 60.7536 7.20659 60.2679L7.21937 60.2424C6.82318 59.5267 6.56758 58.7471 6.32476 57.9675C6.57397 58.0186 6.82957 58.0698 7.07879 57.9931C7.37273 57.9228 7.61555 57.7375 7.86477 57.5905C8.00535 57.4116 8.19066 57.2838 8.31846 57.0921C8.51016 56.8429 8.60601 56.5361 8.72103 56.2422C8.77855 56.5873 8.91913 56.9068 9.07888 57.2199C9.25141 57.5202 9.45589 57.8078 9.71789 58.0378C9.89681 58.172 10.1013 58.2615 10.3186 58.2998C10.4783 58.3062 10.6444 58.2934 10.8106 58.2998C11.1493 58.2103 11.4879 58.0953 11.801 57.9292C11.98 57.8333 12.1397 57.7119 12.3123 57.6097C12.5103 57.4371 12.702 57.2518 12.8554 57.041C12.964 57.124 13.0855 57.1943 13.1877 57.2838C13.75 57.6288 14.421 57.4052 14.9833 57.1879C14.127 57.6544 13.6286 58.581 13.4305 59.5075C13.3347 59.8845 13.3347 60.2871 13.226 60.6641C13.1813 60.8239 13.3666 61.0028 13.52 60.9133C13.603 60.8431 13.7117 60.7664 13.7181 60.645C13.8906 59.7503 14.1462 58.843 14.6702 58.0825C14.9577 57.7311 15.3731 57.5138 15.7948 57.3605C16.2485 57.1879 16.747 57.3285 17.2198 57.2966C17.3476 57.2071 17.2773 57.009 17.271 56.8748C17.2582 56.6767 17.0473 56.6128 16.8939 56.5489C16.2805 56.2933 15.667 56.0313 15.0792 55.7182C14.504 55.4179 14.1654 54.8364 13.8587 54.2932C13.7053 54.0312 13.4944 53.7692 13.5008 53.4497C13.4561 52.7213 13.3794 51.9609 13.6286 51.2643C13.7692 50.849 14.1398 50.5295 14.5743 50.4528C14.8491 50.3889 15.1303 50.3697 15.4114 50.3697ZM22.1146 52.2101C22.0379 52.5871 21.9804 52.9705 21.8654 53.3411L22.1146 52.2101ZM15.7885 56.6895C15.8971 56.7342 16.0057 56.7726 16.1143 56.8173C15.8012 56.8493 15.5073 56.9643 15.2197 57.0793C15.4114 56.9451 15.6095 56.8301 15.7885 56.6895ZM21.22 62.0636C21.2328 62.1977 21.252 62.3383 21.2328 62.4789C21.2456 62.6898 21.2647 62.9007 21.2392 63.1115C21.2456 63.4246 21.2328 63.7441 21.1817 64.0573C21.1753 64.1914 21.1497 64.332 21.1178 64.4662C21.0986 64.6196 21.0475 64.7729 20.9964 64.9199C20.9452 65.1244 20.8686 65.3161 20.7599 65.495C20.6896 65.6739 20.581 65.8465 20.4468 65.9871C19.9484 66.6452 19.2071 67.067 18.4787 67.4248C17.2837 67.9935 15.9929 68.3578 14.683 68.5431C14.389 68.5686 14.0887 68.6389 13.8075 68.5431C13.5775 68.5239 13.3538 68.4728 13.1238 68.4281C12.9065 68.4153 12.6957 68.3642 12.4784 68.3194C12.3442 68.345 12.2356 68.2364 12.1269 68.1725C12.0055 68.0574 11.8969 67.9424 11.7883 67.8146C11.7371 67.7124 11.6732 67.6165 11.6157 67.5207C11.5582 67.3929 11.5007 67.2715 11.4432 67.1437C11.3793 66.9775 11.3154 66.805 11.2579 66.6325C11.1684 66.3705 11.0981 66.1085 11.0279 65.8401C11.3793 66.0062 11.7627 66.1085 12.1269 66.2427C12.4081 66.2938 12.6893 66.3257 12.9513 66.4152L12.9896 66.3896C13.2388 66.428 13.488 66.4408 13.7372 66.4535C14.0695 66.4599 14.4082 66.428 14.7405 66.4216L14.7597 66.4024C15.3795 66.3513 15.9674 66.1404 16.5617 65.9679C16.7278 65.8784 16.9131 65.8273 17.0856 65.7506C17.3157 65.6548 17.5202 65.5206 17.7438 65.4247C18.1272 65.1627 18.5234 64.9007 18.8685 64.5876C19.0218 64.4598 19.1496 64.2937 19.3222 64.1914C19.4564 63.9997 19.6353 63.84 19.7886 63.6675C20.0059 63.4119 20.319 63.2777 20.5746 63.0732C20.811 62.7537 21.0155 62.4086 21.22 62.0636ZM77.4335 73.6871C79.2163 76.2431 80.2323 79.2401 80.9288 82.2562C81.2419 83.6684 81.4911 85.0998 81.6062 86.5439C81.6253 87.7516 81.5614 88.9658 81.2483 90.1351C81.0758 90.8061 80.8074 91.4515 80.4879 92.0713C80.3282 92.3908 80.0598 92.64 79.8361 92.9148C79.4208 93.4005 79.0182 93.8925 78.5964 94.3717C77.8488 94.1481 77.0692 94.0395 76.2896 94.065C75.7401 94.0842 75.1522 94.18 74.7241 94.5507C74.6027 94.6401 74.5132 94.7807 74.3726 94.8446C73.8422 94.8254 73.3055 94.7615 72.7687 94.7871C71.6696 94.8446 70.5833 95.113 69.5673 95.522C69.5226 95.5284 69.4778 95.5347 69.4331 95.5411C69.382 94.0778 69.2797 92.6145 69.3181 91.1575C69.3181 91.0361 69.3372 90.9147 69.3756 90.7997C69.382 90.0904 69.4523 89.3875 69.4587 88.6782C69.4778 87.8986 70.1041 84.7291 70.2127 83.9623C70.922 81.2785 70.9987 80.8056 72.3661 78.9653L76.3727 74.4986C76.9223 74.013 76.8967 74.1855 77.4335 73.6871ZM44.5246 93.5474C45.2595 94.1864 45.9751 94.851 46.7675 95.4197C47.8666 96.2313 49.0871 96.9022 50.3843 97.3495C51.9179 97.8799 53.541 98.1227 55.1641 98.1866C55.4963 98.1611 55.8286 98.225 56.1609 98.1994C56.5443 98.1675 56.9277 98.1802 57.3111 98.1547C57.5476 98.1355 57.784 98.0908 58.0268 98.1035C58.2505 98.0396 58.4869 98.046 58.7106 98.0013C58.8959 97.9821 59.0748 97.9246 59.2601 97.9374C59.5413 97.8671 59.8288 97.8032 60.1228 97.7713C60.6084 97.6307 61.1132 97.5348 61.5989 97.3879C62.9344 96.9981 64.238 96.4996 65.5096 95.9437C66.2764 95.6114 67.0304 95.2408 67.7972 94.9021C67.7972 95.1961 67.7717 95.4836 67.7397 95.7776C67.7142 96.0587 67.7333 96.3399 67.6758 96.6147C67.4266 96.9214 67.1454 97.2089 66.9282 97.5412C66.8068 97.7649 66.5448 97.816 66.3403 97.9246C64.6853 98.717 62.9472 99.3432 61.1579 99.7458C60.9087 99.7969 60.6595 99.88 60.4039 99.8864C60.1291 99.995 59.8224 100.001 59.5349 100.065C59.1259 100.136 58.7233 100.199 58.3208 100.244C57.9501 100.283 57.5859 100.334 57.2153 100.346C55.6944 100.468 54.1544 100.442 52.6464 100.18C51.477 99.9886 50.3396 99.6052 49.2916 99.0493C47.5599 98.1483 46.0646 96.8575 44.646 95.5283C44.5374 95.4517 44.5885 95.3047 44.5821 95.1961C44.6077 94.6465 44.531 94.097 44.5246 93.5474ZM76.7369 94.8638C77.1651 94.8766 77.5996 94.9596 78.015 95.0683C77.8808 95.2216 77.753 95.375 77.6252 95.5283C77.4271 95.7584 77.2354 95.9948 77.0309 96.2185C76.8903 96.4102 76.7178 96.5699 76.59 96.768C76.4622 96.9917 76.5325 97.2537 76.5388 97.4965C76.8072 98.3336 77.3504 99.0493 78.0086 99.6244C78.1619 99.7458 78.3281 99.8544 78.475 99.9822C78.8329 100.129 79.2482 100.366 79.6253 100.155C79.8297 99.9822 79.9895 99.7458 80.2323 99.6116C80.5326 99.3816 80.833 99.1451 81.1525 98.9343C81.3506 98.7426 81.5806 98.5892 81.7979 98.4294C81.8554 98.5253 81.9129 98.6275 81.9768 98.7298C82.0854 98.9215 82.2324 99.1068 82.3091 99.3241C82.5647 99.7394 82.7692 100.199 82.8522 100.685C82.8522 100.902 82.7564 101.107 82.6861 101.305C82.4497 101.906 82.1046 102.449 81.7468 102.979C81.063 102.947 80.3665 102.858 79.7211 102.621C79.4208 102.557 79.1396 102.41 78.8648 102.27C78.5773 102.129 78.3089 101.944 78.0405 101.759C77.721 101.522 77.4015 101.279 77.1267 100.992C76.4047 100.334 75.7784 99.5541 75.3375 98.6787C75.2225 98.4167 75.0755 98.1611 75.0372 97.8799C74.8838 97.5157 74.8263 97.1195 74.7624 96.7425C74.6985 96.4166 74.7177 96.0715 74.8519 95.7776C74.9861 95.5475 75.1905 95.3814 75.3759 95.2025C75.4717 95.0938 75.6123 95.0427 75.7465 95.0108C76.066 94.9021 76.4047 94.8638 76.7369 94.8638ZM73.0627 95.5923C73.363 95.5859 73.6633 95.605 73.9637 95.6242C73.8806 96.2249 74.149 96.7808 74.1937 97.3687C74.3471 98.3336 74.8838 99.1771 75.4589 99.9375C76.1363 100.813 76.9095 101.618 77.7977 102.276C78.5006 102.8 79.3249 103.19 80.2068 103.305C80.5774 103.363 80.9608 103.331 81.3314 103.401C80.7052 104.212 80.0598 105.005 79.5422 105.893C78.9735 106.858 78.622 107.951 77.9511 108.852C77.2609 109.74 76.296 110.341 75.3631 110.935C74.871 111.28 74.2256 111.363 73.6505 111.21C73.1329 111.069 72.6601 110.807 72.2192 110.507C71.9444 110.302 71.6696 110.098 71.4651 109.817C71.3246 109.606 71.2223 109.35 71.267 109.094C71.2862 108.903 71.3437 108.679 71.2095 108.513C71.0626 108.36 70.8261 108.404 70.6344 108.392C69.8612 108.289 69.1519 107.868 68.6152 107.305C67.9506 106.622 67.3947 105.829 66.9601 104.979C66.6406 104.353 66.3914 103.625 66.5895 102.915C66.6598 102.564 66.8771 102.257 67.1199 102.001C67.3755 101.759 67.7269 101.663 68.0464 101.548C68.2765 101.452 68.5257 101.503 68.7621 101.516C68.7557 101.784 68.6599 102.04 68.5513 102.276C68.6535 102.327 68.7621 102.379 68.8644 102.43C68.9666 102.219 69.0625 102.001 69.0944 101.765C69.1391 101.478 69.088 101.19 69.088 100.902C69.0816 100.634 69.1455 100.372 69.1903 100.104C69.0752 100.084 68.9602 100.059 68.8452 100.04C68.7813 100.321 68.7302 100.608 68.7238 100.902C68.3148 100.922 67.8995 100.947 67.5097 101.069C67.3116 101.152 67.0496 101.107 66.9154 100.934C66.8068 100.755 66.794 100.532 66.7876 100.327C66.8196 99.6627 66.8835 98.979 67.1902 98.3783C67.5289 97.6562 68.1998 97.1642 68.8708 96.7744C70.0657 96.1035 71.4076 95.7392 72.7623 95.605C72.8646 95.5986 72.9668 95.5923 73.0627 95.5923ZM44.4607 96.5763C45.2211 97.2217 45.956 97.8927 46.7611 98.4806C47.8283 99.2793 48.9913 99.9631 50.2373 100.43C51.5153 100.928 52.8828 101.139 54.2439 101.26C55.6497 101.318 57.0683 101.286 58.4677 101.113C58.5444 101.107 58.6339 101.081 58.7106 101.107C59.0812 101.024 59.4518 100.973 59.8224 100.928C60.9215 100.717 62.027 100.487 63.1005 100.155C64.1804 99.8225 65.2348 99.4135 66.2636 98.947C66.155 99.4455 66.1742 99.9631 66.1103 100.468C64.5063 101.484 62.7746 102.321 60.9215 102.762C60.5573 102.839 60.2058 102.947 59.8352 102.966C59.586 103.056 59.3048 103.056 59.0428 103.094C58.391 103.171 57.7393 103.222 57.0875 103.235C55.6433 103.26 54.1992 103.145 52.7806 102.883C51.5984 102.66 50.4354 102.327 49.3299 101.848C47.4512 101.049 45.7962 99.8225 44.2243 98.5381C44.1604 98.4997 44.1348 98.4422 44.154 98.3655C44.2626 97.7713 44.3648 97.1706 44.4607 96.5763ZM44.0262 99.5158C45.0166 100.283 46.0071 101.043 47.0806 101.676C47.8602 102.123 48.6462 102.557 49.4641 102.928C50.7038 103.49 52.0329 103.816 53.3812 103.963C54.934 104.142 56.4996 104.129 58.0524 104.034C58.7489 103.976 59.4454 103.912 60.1355 103.81C60.4806 103.759 60.8129 103.682 61.1579 103.637L61.1643 103.618C62.1868 103.433 63.1517 103.018 64.091 102.589C64.9217 102.206 65.7269 101.765 66.5064 101.273C66.5448 101.382 66.5767 101.484 66.6151 101.586C66.3275 101.944 65.9505 102.244 65.7844 102.679C65.6949 102.877 65.6821 103.094 65.6566 103.305C65.4393 103.593 65.1581 103.823 64.8259 103.982C63.6565 104.628 62.4104 105.165 61.1068 105.497C60.8512 105.554 60.602 105.631 60.3464 105.657C59.8799 105.784 59.3943 105.823 58.9214 105.893C58.3335 105.944 57.7457 106.008 57.1514 105.995C55.8925 106.034 54.6273 105.931 53.3876 105.727C51.477 105.42 49.6175 104.794 47.9625 103.803C47.5088 103.516 47.0167 103.292 46.5694 102.998C45.6109 102.398 44.7802 101.631 43.9814 100.839C43.9687 100.398 44.0134 99.9567 44.0262 99.5158ZM43.9623 102.053C44.7227 102.756 45.5406 103.382 46.3585 104.014C48.2053 105.401 50.4162 106.206 52.6655 106.653C54.41 106.999 56.212 107.114 57.9821 106.922C58.2377 106.877 58.4933 106.845 58.7489 106.807C59.0748 106.775 59.3879 106.698 59.7074 106.698C60.2633 106.57 60.8321 106.5 61.3816 106.347C62.9791 105.931 64.4872 105.228 65.8994 104.391C66.0655 104.8 66.2764 105.197 66.4937 105.58C65.5927 106.289 64.5894 106.877 63.5159 107.286C62.3976 107.721 61.2155 107.938 60.0269 108.066C59.9374 108.072 59.848 108.072 59.7585 108.066C59.4838 108.117 59.209 108.136 58.9406 108.13C58.5891 108.155 58.2377 108.149 57.8926 108.181C57.2536 108.181 56.6146 108.149 55.982 108.123C54.8126 108.066 53.6432 107.925 52.493 107.682C51.1064 107.395 49.7325 107.03 48.4162 106.506C47.6174 106.187 46.8378 105.791 46.1413 105.267C45.285 104.634 44.5374 103.848 43.9239 102.973C43.9112 102.666 43.9175 102.353 43.9559 102.053H43.9623ZM44.2626 104.82C45.0039 105.497 45.7707 106.161 46.6397 106.679C48.6462 107.9 50.985 108.417 53.2854 108.743C54.0458 108.845 54.8062 108.928 55.5666 108.973C55.9309 109.024 56.3015 108.986 56.6657 109.043C57.3495 109.063 58.0396 109.043 58.7233 109.056C59.0109 108.999 59.3048 108.999 59.5988 108.999C60.0844 108.922 60.5765 108.909 61.0621 108.826C62.5254 108.622 63.9568 108.174 65.2604 107.459C65.861 107.133 66.4361 106.743 66.9857 106.334C67.0496 106.423 67.1199 106.513 67.171 106.615C66.909 107.599 66.3659 108.519 65.5671 109.152C64.7747 109.791 63.8098 110.168 62.8385 110.424C61.9951 110.641 61.1324 110.788 60.2633 110.884C59.7457 110.935 59.2281 111.011 58.7106 111.005C58.2569 111.056 57.7904 111.082 57.3303 111.075C55.835 111.114 54.3334 111.043 52.8445 110.896C51.4834 110.75 50.1287 110.539 48.8187 110.136C47.8538 109.836 46.9017 109.408 46.1157 108.756C45.3553 108.142 44.8185 107.292 44.4351 106.404C44.3329 106.155 44.1731 105.912 44.2179 105.631C44.2498 105.363 44.237 105.088 44.2626 104.82ZM47.5343 111.523C47.5854 111.523 47.6493 111.548 47.6941 111.555C48.9082 111.912 50.1159 112.264 51.3492 112.52C53.8924 113.05 56.5188 113.254 59.1004 112.96C60.3656 112.813 61.6053 112.545 62.8385 112.251C63.0878 112.2 63.3497 112.136 63.6053 112.2C63.5734 112.756 63.2092 113.203 62.8385 113.574C62.1868 114.213 61.4455 114.775 60.6148 115.159C59.7457 115.574 58.7936 115.785 57.8351 115.887C56.2695 116.04 54.6784 115.977 53.1192 115.759C51.6176 115.536 50.0712 115.203 48.8187 114.296C48.4034 113.964 47.9752 113.612 47.7388 113.127C47.5854 112.826 47.3682 112.551 47.2659 112.226C47.1829 111.989 47.2979 111.74 47.4513 111.561C47.4704 111.535 47.5024 111.523 47.5343 111.523Z" stroke="black" stroke-width="0.0803627" stroke-miterlimit="2.61313"/>
<path d="M54.6848 22.8541C55.5028 22.8349 56.3207 22.7582 57.1386 22.8349C64.6981 23.1416 71.1329 27.1035 76.8264 30.88C76.967 30.9695 77.0948 31.0653 77.2034 31.1867C77.5677 31.5957 77.9319 32.0047 78.2898 32.4136C78.507 32.6756 78.7562 32.9121 78.9415 33.206C80.2259 35.1997 81.4976 37.2126 82.6222 39.3085C83.7405 41.3981 84.7373 43.5707 85.3955 45.852C85.8428 47.3984 86.1176 49.0023 86.1687 50.6189C86.2198 53.2069 85.6895 55.7757 84.8524 58.2167C84.0089 60.6514 82.8714 62.971 81.587 65.2011C80.4624 67.1373 79.2355 69.0096 77.9255 70.8243C77.5421 71.3547 77.1076 71.8531 76.6731 72.3452C76.3344 72.7094 76.0341 73.1248 75.6507 73.4507C74.0531 74.6137 72.4492 75.8214 71.1968 77.3614C70.5578 78.1538 70.0338 79.0484 69.6632 79.9941C69.0944 81.4063 68.8069 82.908 68.596 84.4096C68.2062 87.5152 68.0081 90.64 67.7973 93.7583C67.7909 93.8414 67.7781 93.9372 67.6822 93.9692C65.5288 95.0108 63.337 96.0076 61.0302 96.6402C59.3304 97.1067 57.5731 97.324 55.8159 97.3431C54.3781 97.3176 52.934 97.1706 51.5409 96.8C50.3524 96.4869 49.2149 95.9884 48.1733 95.3303C46.8187 94.4804 45.6301 93.3941 44.4799 92.2886C44.4032 92.2055 44.301 92.1288 44.2818 92.0202C44.1987 91.7199 44.2115 91.4068 44.1668 91.1C43.8856 88.4034 43.5661 85.694 42.7865 83.0869C42.1347 80.844 41.1315 78.7033 39.8151 76.7671C38.6074 74.9907 37.1888 73.374 35.7638 71.7637C34.9395 70.8371 34.1408 69.8914 33.31 68.9712C31.4633 66.8306 29.6805 64.5812 28.4472 62.0124C27.1692 59.335 26.7027 56.3381 26.6835 53.3858C26.6644 51.6605 26.7922 49.9416 26.9775 48.2291C27.1308 46.9574 27.265 45.6858 27.4823 44.427C27.8401 43.1042 28.2299 41.7879 28.6836 40.4971C29.0926 39.3149 29.6485 38.1967 30.262 37.1167C30.7604 36.2413 31.2844 35.385 31.8723 34.5735C33.0161 32.9951 34.3708 31.5702 35.8789 30.3369C39.8726 27.1674 44.2946 25.3398 48.7804 23.9404C50.6974 23.3397 52.6847 22.9691 54.6848 22.8541ZM45.4895 40.1776C44.5949 40.823 43.8856 41.692 43.3361 42.6378C42.3009 44.4589 41.8536 46.574 41.8791 48.6636C41.9175 50.7723 42.4542 52.913 43.6045 54.7022C44.3776 55.8908 45.4576 56.9259 46.7995 57.4435C47.8794 57.8717 49.1127 57.9036 50.2118 57.5266C51.1575 57.2135 52.001 56.6256 52.6847 55.9035C53.4004 55.1495 53.9564 54.2549 54.3781 53.3092C54.9404 54.6191 55.7711 55.8588 56.9469 56.7023C57.8607 57.3605 59.0173 57.7119 60.1419 57.5713C61.0238 57.4627 61.8481 57.0793 62.5382 56.5362C63.3945 55.8588 64.0591 54.9642 64.5575 53.9993C65.6118 51.9289 65.9697 49.539 65.778 47.2386C65.5991 45.1554 64.9537 43.0595 63.6565 41.3981C62.8322 40.3501 61.6883 39.5002 60.3592 39.2702C59.2665 39.0721 58.1163 39.3469 57.1897 39.9411C55.8734 40.7782 54.9596 42.1202 54.3589 43.5387C53.688 42.0626 52.672 40.6824 51.247 39.8453C50.3204 39.3021 49.2213 39.021 48.1478 39.136C47.1829 39.2255 46.2627 39.6089 45.4895 40.1776ZM58.455 71.54C56.998 71.949 55.4836 72.1535 53.9755 72.2429C53.4707 72.2429 52.9723 72.3005 52.4675 72.2493C51.5473 72.1663 50.6399 71.9873 49.7517 71.7381C49.3044 71.6295 48.8763 71.4506 48.429 71.3611C48.4481 72.3324 48.5695 73.3101 48.8635 74.2366C49.1574 75.1376 49.5472 76.0514 50.2437 76.7224C50.87 77.3486 51.7134 77.7128 52.5633 77.9045C53.9883 78.2113 55.49 78.1346 56.8702 77.6873C57.8671 77.3742 58.7873 76.8055 59.4774 76.0195C60.0397 75.3996 60.4487 74.6648 60.8449 73.9299C61.1644 73.3356 61.3625 72.6839 61.535 72.0321C61.6883 71.4761 61.8098 70.901 61.797 70.3195C61.7075 70.2812 61.6181 70.2429 61.5286 70.2109C60.6212 70.8755 59.5668 71.3356 58.455 71.54Z" fill="#FE7062"/>
<path d="M54.6848 22.8541C55.5028 22.8349 56.3207 22.7582 57.1386 22.8349C64.6981 23.1416 71.1329 27.1035 76.8264 30.88C76.967 30.9695 77.0948 31.0653 77.2034 31.1867C77.5677 31.5957 77.9319 32.0047 78.2898 32.4136C78.507 32.6756 78.7562 32.9121 78.9415 33.206C80.2259 35.1997 81.4976 37.2126 82.6222 39.3085C83.7405 41.3981 84.7373 43.5707 85.3955 45.852C85.8428 47.3984 86.1176 49.0023 86.1687 50.6189C86.2198 53.2069 85.6895 55.7757 84.8524 58.2167C84.0089 60.6514 82.8714 62.971 81.587 65.2011C80.4624 67.1373 79.2355 69.0096 77.9255 70.8243C77.5421 71.3547 77.1076 71.8532 76.6731 72.3452C76.3344 72.7094 76.0341 73.1248 75.6506 73.4507C74.0531 74.6137 72.4492 75.8214 71.1968 77.3614C70.5578 78.1538 70.0338 79.0484 69.6632 79.9941C69.0944 81.4063 68.8069 82.908 68.596 84.4096C68.2062 87.5152 68.0081 90.64 67.7973 93.7583C67.7909 93.8414 67.7781 93.9372 67.6822 93.9692C65.5288 95.0108 63.337 96.0076 61.0302 96.6402C59.3304 97.1067 57.5731 97.324 55.8159 97.3431C54.3781 97.3176 52.934 97.1706 51.5409 96.8C50.3524 96.4869 49.2149 95.9884 48.1733 95.3303C46.8187 94.4804 45.6301 93.3941 44.4799 92.2886C44.4032 92.2055 44.301 92.1288 44.2818 92.0202C44.1987 91.7199 44.2115 91.4068 44.1668 91.1C43.8856 88.4034 43.5661 85.694 42.7865 83.0869C42.1347 80.844 41.1315 78.7033 39.8151 76.7671C38.6074 74.9907 37.1888 73.374 35.7638 71.7637C34.9395 70.8371 34.1408 69.8914 33.31 68.9712C31.4633 66.8306 29.6805 64.5812 28.4472 62.0124C27.1692 59.335 26.7027 56.3381 26.6835 53.3858C26.6644 51.6605 26.7922 49.9416 26.9775 48.2291C27.1308 46.9574 27.265 45.6858 27.4823 44.427C27.8401 43.1042 28.2299 41.7879 28.6836 40.4971C29.0926 39.3149 29.6485 38.1967 30.262 37.1167C30.7604 36.2413 31.2844 35.385 31.8723 34.5735C33.0161 32.9951 34.3708 31.5702 35.8789 30.3369C39.8726 27.1674 44.2946 25.3398 48.7804 23.9404C50.6974 23.3397 52.6847 22.9691 54.6848 22.8541V22.8541ZM45.4895 40.1776C44.5949 40.823 43.8856 41.692 43.3361 42.6378C42.3009 44.4589 41.8536 46.574 41.8791 48.6636C41.9175 50.7723 42.4542 52.913 43.6045 54.7022C44.3776 55.8908 45.4576 56.9259 46.7995 57.4435C47.8794 57.8717 49.1127 57.9036 50.2118 57.5266C51.1575 57.2135 52.001 56.6256 52.6847 55.9035C53.4004 55.1495 53.9564 54.2549 54.3781 53.3092C54.9404 54.6191 55.7711 55.8588 56.9469 56.7023C57.8607 57.3605 59.0173 57.7119 60.142 57.5713C61.0238 57.4627 61.8481 57.0793 62.5382 56.5362C63.3945 55.8588 64.0591 54.9642 64.5575 53.9993C65.6118 51.9289 65.9697 49.539 65.778 47.2386C65.5991 45.1554 64.9537 43.0595 63.6565 41.3981C62.8322 40.3501 61.6883 39.5002 60.3592 39.2702C59.2665 39.0721 58.1163 39.3469 57.1897 39.9411C55.8734 40.7782 54.9596 42.1202 54.3589 43.5388C53.688 42.0626 52.672 40.6824 51.247 39.8453C50.3204 39.3021 49.2213 39.021 48.1478 39.136C47.1829 39.2255 46.2627 39.6089 45.4895 40.1776V40.1776ZM58.455 71.54C56.998 71.949 55.4836 72.1535 53.9755 72.2429C53.4707 72.2429 52.9723 72.3005 52.4675 72.2493C51.5473 72.1663 50.6399 71.9873 49.7517 71.7381C49.3044 71.6295 48.8763 71.4506 48.429 71.3611C48.4481 72.3324 48.5695 73.3101 48.8635 74.2366C49.1574 75.1376 49.5472 76.0514 50.2437 76.7224C50.87 77.3486 51.7134 77.7128 52.5633 77.9045C53.9883 78.2113 55.49 78.1346 56.8702 77.6873C57.8671 77.3742 58.7873 76.8055 59.4774 76.0195C60.0397 75.3996 60.4487 74.6648 60.8449 73.9299C61.1644 73.3356 61.3625 72.6839 61.535 72.0321C61.6883 71.4761 61.8098 70.901 61.797 70.3195C61.7075 70.2812 61.6181 70.2429 61.5286 70.2109C60.6212 70.8755 59.5668 71.3356 58.455 71.54V71.54Z" stroke="black" stroke-width="0.0803627" stroke-miterlimit="2.61313"/>
<path d="M18.0505 43.232C18.3125 42.97 18.6448 42.6889 19.0985 42.6569C19.5841 42.625 20.0442 42.8039 20.434 43.0148C21.1561 43.8071 21.0538 43.6538 21.5459 44.4078C21.8015 45.2768 21.9804 46.1587 22.0315 47.0533C22.1018 48.2291 22.0699 49.4176 21.8973 50.587C21.7759 51.3985 21.5842 52.2037 21.3542 53.0024C21.1497 52.7021 20.9452 52.4018 20.6576 52.1462C20.1912 51.7308 19.6161 51.3282 18.9771 51.0918C18.5234 50.9001 18.2869 50.4784 17.7885 50.3761C17.6543 49.9863 17.2773 49.9608 17.1176 49.5774C16.6958 47.1172 17.2454 45.2768 17.8332 43.6921C17.8844 43.5323 17.9099 43.3598 18.0505 43.232Z" fill="#FE7062" stroke="black" stroke-width="0.0723264" stroke-miterlimit="2.61313"/>
<path d="M45.4825 40.1775C46.2621 39.6088 47.1823 39.219 48.1408 39.1359C49.2207 39.0209 50.3198 39.3021 51.2464 39.8452C52.6714 40.6823 53.6874 42.0626 54.3583 43.5387C54.959 42.1201 55.8728 40.7782 57.1891 39.9411C58.1157 39.3468 59.2659 39.072 60.3586 39.2701C61.6877 39.4938 62.8316 40.3501 63.6495 41.398C64.9531 43.0594 65.5985 45.1554 65.7774 47.2322C65.9691 49.539 65.6112 51.9289 64.5569 53.9992C64.0585 54.9641 63.3939 55.8588 62.5376 56.5361C61.8475 57.0793 61.0232 57.4627 60.1413 57.5649C59.0167 57.7119 57.8601 57.3604 56.9463 56.7022C55.7705 55.8588 54.9398 54.6191 54.3775 53.3091C53.9558 54.2549 53.3998 55.1495 52.6841 55.9035C52.0004 56.6256 51.1569 57.2135 50.2112 57.5266C49.1121 57.9036 47.8788 57.8716 46.7989 57.4435C45.457 56.9259 44.377 55.8907 43.6038 54.7022C42.4536 52.9129 41.9169 50.7723 41.8785 48.6635C41.8466 46.574 42.3003 44.4589 43.3355 42.6377C43.885 41.692 44.5943 40.8229 45.4825 40.1711V40.1775ZM47.9938 39.7877C46.5369 40.005 45.2908 40.9635 44.4409 42.1265C43.6741 43.1617 43.1629 44.3694 42.8626 45.6155C42.3706 47.6795 42.4217 49.8777 43.0351 51.9161C43.4952 53.4114 44.2748 54.8491 45.4634 55.8907C46.2877 56.6128 47.3293 57.1112 48.4347 57.1495C49.3166 57.1943 50.1984 56.9387 50.9524 56.485C52.0196 55.846 52.8375 54.8555 53.4254 53.7692C53.8216 53.0919 53.911 52.2995 54.1027 51.5519C54.1411 51.4113 54.1794 51.2579 54.2817 51.1493C54.4031 51.0598 54.5117 51.2004 54.55 51.309C54.7354 51.8202 54.7801 52.3698 54.9143 52.9002C55.3616 54.012 56.007 55.0664 56.9144 55.8588C57.6428 56.5042 58.5758 56.9579 59.5599 56.9642C60.5184 56.9898 61.4449 56.5936 62.1798 55.9993C62.8891 55.4242 63.445 54.683 63.8795 53.8906C64.4866 52.766 64.8572 51.5327 65.0425 50.2738C65.3684 47.8903 65.1 45.3854 64.0329 43.2128C63.5089 42.1648 62.7868 41.1872 61.8028 40.529C61.0296 40.0114 60.0647 39.7302 59.1253 39.8772C58.3713 39.9794 57.6684 40.3309 57.0805 40.8038C56.3265 41.4172 55.745 42.2096 55.2977 43.0658C54.9782 43.6665 54.7737 44.3247 54.4414 44.919C54.3903 44.9956 54.32 45.1043 54.2114 45.0787C54.0963 45.0404 54.058 44.9126 54.0197 44.8103C53.9174 44.4333 53.8407 44.0435 53.7002 43.6793C53.0931 42.3629 52.1857 41.1488 50.9269 40.4012C50.0514 39.8708 49.0035 39.6408 47.9938 39.7877Z" fill="black"/>
<path d="M45.4825 40.1775C46.2621 39.6088 47.1823 39.219 48.1408 39.1359C49.2207 39.0209 50.3198 39.3021 51.2464 39.8452C52.6714 40.6823 53.6874 42.0626 54.3583 43.5387C54.959 42.1201 55.8728 40.7782 57.1891 39.9411C58.1157 39.3468 59.2659 39.072 60.3586 39.2701C61.6877 39.4938 62.8316 40.3501 63.6495 41.398C64.9531 43.0594 65.5985 45.1554 65.7774 47.2322C65.9691 49.539 65.6112 51.9289 64.5569 53.9992C64.0585 54.9641 63.3939 55.8588 62.5376 56.5361C61.8475 57.0793 61.0232 57.4627 60.1414 57.5649C59.0167 57.7119 57.8601 57.3604 56.9463 56.7022C55.7705 55.8588 54.9398 54.6191 54.3775 53.3091C53.9558 54.2549 53.3998 55.1495 52.6841 55.9035C52.0004 56.6256 51.1569 57.2135 50.2112 57.5266C49.1121 57.9036 47.8788 57.8716 46.7989 57.4435C45.457 56.9259 44.377 55.8907 43.6038 54.7022C42.4536 52.9129 41.9169 50.7723 41.8785 48.6635C41.8466 46.574 42.3003 44.4589 43.3355 42.6377C43.885 41.692 44.5943 40.8229 45.4825 40.1711V40.1775ZM47.9938 39.7877C46.5369 40.005 45.2908 40.9635 44.4409 42.1265C43.6741 43.1617 43.1629 44.3694 42.8626 45.6155C42.3706 47.6795 42.4217 49.8777 43.0351 51.9161C43.4952 53.4114 44.2748 54.8491 45.4634 55.8907C46.2877 56.6128 47.3293 57.1112 48.4347 57.1495C49.3166 57.1943 50.1984 56.9387 50.9524 56.485C52.0196 55.846 52.8375 54.8555 53.4254 53.7692C53.8216 53.0919 53.911 52.2995 54.1027 51.5519C54.1411 51.4113 54.1794 51.2579 54.2817 51.1493C54.4031 51.0598 54.5117 51.2004 54.55 51.309C54.7354 51.8202 54.7801 52.3698 54.9143 52.9002C55.3616 54.012 56.007 55.0664 56.9144 55.8588C57.6428 56.5042 58.5758 56.9579 59.5599 56.9642C60.5184 56.9898 61.4449 56.5936 62.1798 55.9993C62.8891 55.4242 63.445 54.683 63.8795 53.8906C64.4866 52.766 64.8572 51.5327 65.0425 50.2738C65.3684 47.8903 65.1 45.3854 64.0329 43.2128C63.5089 42.1648 62.7868 41.1872 61.8028 40.529C61.0296 40.0114 60.0647 39.7302 59.1253 39.8772C58.3713 39.9794 57.6684 40.3309 57.0805 40.8038C56.3265 41.4172 55.745 42.2096 55.2977 43.0658C54.9782 43.6665 54.7737 44.3247 54.4414 44.919C54.3903 44.9956 54.32 45.1043 54.2114 45.0787C54.0963 45.0404 54.058 44.9126 54.0197 44.8103C53.9174 44.4333 53.8407 44.0435 53.7002 43.6793C53.0931 42.3629 52.1857 41.1488 50.9269 40.4012C50.0514 39.8708 49.0035 39.6408 47.9938 39.7877V39.7877Z" stroke="black" stroke-width="0.0803627" stroke-miterlimit="2.61313"/>
<path d="M46.6071 43.954C46.9969 43.8965 47.4059 43.954 47.7381 44.1649C48.2238 44.4652 48.5497 45.0211 48.5177 45.6026C48.5241 46.395 47.8468 47.1298 47.0544 47.181C46.5815 47.2257 46.0895 47.0596 45.7572 46.7209C45.131 46.1522 45.1182 45.0786 45.6869 44.4652C45.9234 44.2032 46.2557 44.0179 46.6071 43.954Z" fill="black" stroke="black" stroke-width="0.0803627" stroke-miterlimit="2.61313"/>
<path d="M56.5587 44.3247C57.1785 43.6985 58.3287 43.7432 58.8974 44.427C59.4981 45.066 59.415 46.1842 58.7441 46.7338C58.0795 47.3344 56.9357 47.2322 56.3989 46.5165C56.0539 46.1203 56.0219 45.5708 56.0667 45.0724C56.0667 45.0148 56.0858 44.9637 56.1114 44.919C56.2456 44.7081 56.3798 44.4972 56.5587 44.3247Z" fill="black" stroke="black" stroke-width="0.0803627" stroke-miterlimit="2.61313"/>
<path d="M13.3157 48.2545C14.1976 47.8327 15.22 47.9094 16.1465 48.1267C16.3383 48.1458 16.3958 48.3503 16.4852 48.4845C16.7408 48.9254 16.7664 49.4494 16.9645 49.9159C16.0443 49.7242 15.0858 49.5644 14.1592 49.7881C13.6289 49.9606 13.3477 50.4974 13.1816 50.9894C12.9004 51.8713 12.8173 52.817 12.9771 53.7244C13.0985 54.4401 13.4883 55.0791 13.9995 55.5839C14.287 55.8714 14.6321 56.1015 14.9644 56.3379C14.581 56.5871 14.1528 56.9002 13.6672 56.798C13.5458 56.7597 13.3541 56.7661 13.3157 56.6191C12.8557 55.5455 12.3828 54.472 12.1655 53.3218C11.9163 52.0374 12.0186 50.7147 12.1783 49.4239C12.4467 48.9446 12.8045 48.4845 13.3157 48.2545Z" fill="#FE7062" stroke="#FE7062" stroke-width="0.0803627" stroke-miterlimit="2.61313"/>
<path d="M10.1846 49.3282C10.7277 49.2068 11.2837 49.1684 11.8396 49.1556C11.7246 49.5071 11.6734 49.8713 11.6223 50.2356C11.4945 50.9512 11.4242 51.6797 11.5073 52.4018C11.6032 53.405 11.9354 54.3635 12.2677 55.3029C12.4083 55.6927 12.5808 56.0697 12.7534 56.4467C12.2613 56.8301 11.7693 57.2263 11.207 57.5011C10.9002 57.648 10.5488 57.7439 10.2165 57.648C9.92896 57.5586 9.71809 57.3221 9.5775 57.0729C9.36663 56.6895 9.26439 56.2678 9.18132 55.846C9.02796 55.0089 8.95128 54.1655 8.88099 53.322C8.86821 53.0536 8.82348 52.7916 8.83626 52.5232C8.8746 51.8011 8.89377 51.0599 9.16215 50.3761C9.25161 50.1461 9.33468 49.9097 9.45609 49.6988C9.6478 49.5007 9.92257 49.3921 10.1846 49.3282Z" fill="#FE7062" stroke="#FE7062" stroke-width="0.0803627" stroke-miterlimit="2.61313"/>
<path d="M64.0341 43.2128C63.5101 42.1648 62.788 41.1871 61.804 40.5289C61.0308 40.0114 60.0659 39.7302 59.1265 39.8772C58.3725 39.9794 57.6696 40.3309 57.0817 40.8037C56.3277 41.4172 55.7462 42.2095 55.2989 43.0658C54.9794 43.6665 54.7813 44.3246 54.4426 44.9189C54.3915 44.9956 54.3212 45.1042 54.2126 45.0787C54.0975 45.0403 54.0592 44.9125 54.0208 44.8103C53.9186 44.4333 53.8419 44.0435 53.7013 43.6792C53.1007 42.3629 52.1869 41.1488 50.9281 40.4011C50.0526 39.8708 49.0046 39.6407 47.995 39.7877C46.5381 40.005 45.2984 40.9635 44.4421 42.1265C43.6817 43.1617 43.1641 44.3694 42.8638 45.6154C42.3717 47.6794 42.4229 49.8776 43.0363 51.9161C43.4964 53.4113 44.276 54.8491 45.4645 55.8907C46.2889 56.6128 47.3368 57.1112 48.4359 57.1495C49.3178 57.1942 50.206 56.9386 50.9536 56.485C52.0208 55.8459 52.8387 54.8555 53.433 53.7692C53.8228 53.0918 53.9122 52.2995 54.1039 51.5518C54.1423 51.4112 54.1806 51.2579 54.2828 51.1492C54.4043 51.0598 54.5129 51.2004 54.5512 51.309C54.7365 51.8202 54.7813 52.3697 54.9155 52.9001C55.3628 54.012 56.0082 55.0664 56.9155 55.8587C57.644 56.5041 58.577 56.9578 59.5674 56.9642C60.5195 56.9898 61.4461 56.5936 62.181 55.9993C62.8903 55.4242 63.4462 54.6829 63.8807 53.8906C64.4878 52.7659 64.8584 51.5326 65.0437 50.2738C65.3696 47.8903 65.1012 45.3854 64.0341 43.2128ZM48.1548 44.2544C48.0845 44.1905 48.0078 44.1266 47.9311 44.0754C48.0078 44.1266 48.0845 44.1905 48.1548 44.2544ZM48.519 45.6027C48.5254 46.4014 47.848 47.1299 47.0557 47.181C46.5828 47.2257 46.0908 47.0596 45.7585 46.7209C45.1386 46.1522 45.1195 45.0787 45.6882 44.4652C45.931 44.2032 46.2569 44.0179 46.6084 43.954C46.9982 43.8965 47.4071 43.9604 47.7394 44.1649C48.2251 44.4652 48.5509 45.0276 48.519 45.6027ZM58.7431 46.7337C58.0785 47.3344 56.9347 47.2321 56.4043 46.5164C56.0529 46.1203 56.0209 45.5707 56.0657 45.0723C56.0657 45.0148 56.0848 44.9637 56.1104 44.9189C56.2446 44.7081 56.3788 44.4972 56.5577 44.3246C57.1775 43.6984 58.3278 43.7432 58.8965 44.4269C59.4971 45.0659 59.4141 46.1842 58.7431 46.7337Z" fill="white" stroke="white" stroke-width="0.0803627" stroke-miterlimit="2.61313"/>
<path d="M6.37639 50.4719C6.88759 50.2418 7.47548 50.2929 8.01225 50.3824C8.15922 52.1333 8.31897 53.8842 8.44677 55.635C8.26785 56.1207 8.02503 56.6511 7.53299 56.8939C7.04735 57.1367 6.4978 57.207 5.96103 57.2453C5.7246 56.7725 5.53929 56.2677 5.32842 55.782C4.90028 54.7916 4.71497 53.7116 4.71497 52.6381C4.70858 52.3442 4.66385 52.0247 4.83638 51.7691C5.07281 51.5071 5.30925 51.2387 5.57124 51.0086C5.83962 50.8297 6.1144 50.6572 6.37639 50.4719Z" fill="#FE7062" stroke="#FE7062" stroke-width="0.0803627" stroke-miterlimit="2.61313"/>
<path d="M15.2207 57.0795C15.4125 56.9452 15.6107 56.8301 15.7898 56.6895C15.8985 56.7342 16.0072 56.7726 16.1159 56.8173C15.8026 56.8493 15.5084 56.9644 15.2207 57.0795Z" fill="#FE7062" stroke="#FE7062" stroke-width="0.0803627" stroke-miterlimit="2.61313"/>
<path d="M21.8265 56.6768C21.7499 55.91 21.6987 55.1176 21.4303 54.3892C21.1492 53.6671 20.7786 52.9642 20.2354 52.4082C19.4303 51.552 18.3695 50.996 17.2576 50.6637C16.4014 50.4209 15.462 50.2612 14.5738 50.4529C14.1393 50.5296 13.7687 50.8491 13.6281 51.2644C13.3789 51.9609 13.4555 52.7214 13.5003 53.4498C13.4939 53.7693 13.7048 54.0313 13.8581 54.2933C14.1648 54.8365 14.5035 55.418 15.0786 55.7183C15.6665 56.0314 16.2799 56.2998 16.8934 56.549C17.0468 56.6129 17.2576 56.6768 17.2704 56.8749C17.2768 57.0091 17.3471 57.2072 17.2193 57.2966C16.7464 57.3286 16.248 57.188 15.7943 57.3605C15.3726 57.5139 14.9572 57.7312 14.6697 58.0826C14.1457 58.843 13.8901 59.7504 13.7175 60.645C13.7111 60.7664 13.6025 60.8431 13.5194 60.9134C13.3661 61.0029 13.1808 60.824 13.2191 60.6642C13.3341 60.2872 13.3341 59.8846 13.43 59.5076C13.6281 58.581 14.1265 57.6545 14.9828 57.188C14.4204 57.4053 13.7495 57.6289 13.1872 57.2839C13.0849 57.1944 12.9635 57.1241 12.8549 57.041C12.7015 57.2519 12.5098 57.4372 12.3117 57.6098C12.1392 57.712 11.9794 57.8334 11.8005 57.9293C11.4874 58.0954 11.1487 58.2104 10.81 58.2999C10.6439 58.2935 10.4778 58.3063 10.318 58.2999C10.1008 58.2615 9.89627 58.1721 9.71735 58.0443C9.45535 57.8078 9.25087 57.5203 9.07834 57.22C8.91859 56.9068 8.77801 56.5873 8.7205 56.2423C8.60547 56.5362 8.50962 56.8429 8.31792 57.0985C8.19012 57.2839 8.00481 57.4117 7.86423 57.5906C7.61501 57.7376 7.37219 57.9229 7.07825 57.9932C6.82903 58.0698 6.57343 58.0187 6.32422 57.9676C6.56704 58.7472 6.82264 59.5268 7.21883 60.2425L7.20605 60.268C7.40414 60.7537 7.60862 61.2329 7.82589 61.7058C7.99842 62.1084 8.2029 62.5045 8.45211 62.8624C8.6502 63.1563 8.86747 63.4439 9.09751 63.7187C9.28282 63.9551 9.47452 64.1915 9.67901 64.4152C9.84515 64.5621 10.0113 64.7091 10.1902 64.8433C10.2797 64.9072 10.3691 64.9647 10.4586 65.0286C10.7078 65.1884 10.9698 65.3353 11.2446 65.4631C12.4395 65.9807 13.775 66.1341 15.0658 65.9616C15.9988 65.8529 16.8742 65.4504 17.641 64.9264C18.5165 64.3321 19.2449 63.5653 19.9606 62.7985C20.3504 62.3959 20.6252 61.8975 20.8616 61.3927C21.4048 60.1594 21.6157 58.8111 21.7818 57.4883C21.801 57.22 21.8585 56.9452 21.8265 56.6768Z" fill="#FE7062" stroke="black" stroke-width="0.0803627" stroke-miterlimit="2.61313"/>
<path d="M21.2342 62.4788C21.2534 62.3383 21.2342 62.2041 21.2215 62.0635C21.017 62.4085 20.8125 62.7536 20.5761 63.0731C20.3205 63.2776 20.001 63.4118 19.7901 63.6674C19.6367 63.8399 19.4578 63.9997 19.3236 64.1914C19.1511 64.2936 19.0233 64.4598 18.8635 64.5876C18.5248 64.9007 18.1287 65.1627 17.7453 65.4247C17.5216 65.5205 17.3107 65.6547 17.0871 65.7505C16.9146 65.8272 16.7292 65.8783 16.5631 65.9678C15.9688 66.1403 15.3809 66.3512 14.7611 66.4023L14.7419 66.4215C14.4033 66.4279 14.071 66.4598 13.7387 66.4535C13.4895 66.4407 13.2339 66.4279 12.991 66.3896L12.9527 66.4151C12.6843 66.3257 12.4032 66.2937 12.1284 66.2426C11.7642 66.1084 11.3808 66.0062 11.0293 65.84C11.0996 66.1084 11.1699 66.3704 11.2593 66.6324C11.3169 66.8049 11.3744 66.9774 11.4447 67.1436C11.5022 67.2714 11.5597 67.3992 11.6172 67.5206C11.6747 67.6164 11.7322 67.7123 11.7897 67.8145C11.892 67.9423 12.007 68.0574 12.1284 68.1724C12.237 68.2363 12.3457 68.3449 12.4798 68.3194C12.6971 68.3641 12.908 68.4152 13.1252 68.428C13.3553 68.4727 13.5789 68.5238 13.809 68.543C14.0901 68.6389 14.3905 68.5686 14.6844 68.543C15.9944 68.3577 17.2852 67.9935 18.4801 67.4247C19.2086 67.0669 19.9498 66.6452 20.4483 65.987C20.5825 65.8464 20.6911 65.6739 20.7614 65.4949C20.87 65.316 20.9467 65.1243 20.9978 64.9198C21.0489 64.7729 21.1 64.6195 21.1128 64.4661C21.1512 64.332 21.1767 64.1914 21.1831 64.0572C21.2342 63.7441 21.247 63.4246 21.2406 63.1114C21.2662 62.9006 21.247 62.6897 21.2342 62.4788Z" fill="#7D97F4" stroke="#FE7062" stroke-width="0.0803627" stroke-miterlimit="2.61313"/>
<path d="M59.7913 76.7159C59.6826 76.9651 59.5804 77.2207 59.4718 77.4764C59.3376 77.7639 59.2098 78.0578 59.0756 78.3518C58.967 78.5754 58.8583 78.8055 58.7625 79.0483C58.5196 79.3934 58.1746 79.4828 57.8679 79.6554C57.0116 80.1154 56.085 80.2688 55.1776 80.2688C54.2383 80.1921 53.299 80.0643 52.3724 79.8598C52.7494 79.0739 53.1648 78.3262 53.6185 77.6169C53.8613 77.2399 54.1297 76.9012 54.4108 76.5817C54.6728 76.2622 54.9668 76.0002 55.2799 75.7894C55.6313 75.4635 56.0147 75.2143 56.4045 75.0098C56.871 74.7606 57.3567 74.62 57.8487 74.5114C57.6825 74.8436 57.4908 75.1568 57.2864 75.4443C57.1266 75.7063 56.986 75.9875 56.8071 76.2239C56.7176 76.5115 56.6346 76.8118 56.5771 77.1185C56.5579 77.4763 56.5515 77.8342 56.5643 78.192C56.7624 78.1473 56.7432 77.8406 56.7752 77.6361C56.8135 77.3613 56.8646 77.0929 56.9221 76.8246C57.018 76.5562 57.1266 76.3006 57.2416 76.045C57.363 75.8149 57.4972 75.5977 57.6314 75.3804C57.772 75.1504 57.9318 74.9267 58.0915 74.7158C58.2065 74.5241 58.3535 74.358 58.5452 74.3772C59.05 74.3644 59.5996 74.2621 60.066 74.6008C60.328 74.7925 60.1938 75.227 60.1299 75.5338C60.0852 75.7255 60.0405 75.9236 60.0021 76.1217L59.9446 76.1089C59.8999 76.3134 59.8424 76.5114 59.7913 76.7159ZM62.8329 70.083C62.5582 70.2875 62.3026 70.5303 62.047 70.7732C61.7275 71.0288 61.408 71.2844 61.0948 71.5528C60.6731 71.8595 60.2322 72.1343 59.8104 72.4474C59.4526 72.5943 59.1011 72.786 58.7497 72.9586C57.4142 73.604 56.0083 73.8404 54.6089 73.9938C53.8996 74.0513 53.1903 73.9426 52.481 73.9426C52.0721 73.8276 51.6567 73.7573 51.2414 73.6806C50.8707 73.5912 50.5065 73.4314 50.1359 73.3803C49.7589 73.227 49.3882 73.0416 49.0048 72.9394C48.4681 72.6902 47.9313 72.4538 47.3945 72.2173C47.5159 72.7477 47.6054 73.2972 47.7907 73.7957C48.0527 75.029 48.4681 76.1983 48.9984 77.2591C49.6758 78.6138 50.8004 79.4381 51.957 79.7129C52.219 79.3359 52.398 78.863 52.6344 78.4476C52.7302 78.3134 52.8133 78.1537 52.8964 78.0003C53.0753 77.7192 53.2542 77.4316 53.4395 77.1505C53.6504 76.8821 53.8613 76.6137 54.0594 76.3261C54.3341 76.1153 54.5514 75.7958 54.7815 75.5082C55.1265 75.259 55.4332 74.9331 55.7591 74.6392C56.1745 74.5114 56.5387 74.1727 56.9541 74.0257C57.6698 73.6934 58.4302 73.6231 59.1714 73.5337C59.5101 73.604 59.8488 73.6806 60.1811 73.7765C60.3728 73.9554 60.5581 74.1535 60.7306 74.3708C60.7881 74.7222 60.8073 75.0801 60.8137 75.4379C60.5389 76.6009 60.0149 77.585 59.5612 78.6138C60.737 77.3422 61.8553 75.898 62.654 74.1407C63.3761 72.5304 63.9256 70.7604 64.194 68.9009C63.7403 69.2907 63.2994 69.706 62.8329 70.083Z" fill="#FE7062" stroke="#FE0E0A" stroke-width="0.112508" stroke-miterlimit="2.61313"/>
<path fill-rule="evenodd" clip-rule="evenodd" d="M51.9504 80.1985L50.1037 79.47L48.5957 77.7958L47.8672 76.1152L50.7172 76.7862C50.7172 76.7862 54.8579 77.2335 55.3052 77.176C55.7525 77.1249 60.0594 76.505 60.0594 76.505L61.6761 75.783L62.0723 76.0066L61.0052 78.0706L58.3213 79.585L56.1998 80.256L51.9504 80.1985Z" fill="black" stroke="black" stroke-width="0.0803627" stroke-miterlimit="2.61313"/>
<path d="M60.4623 68.0765C62.0023 67.6867 63.4784 66.7985 64.7373 65.5077C64.8651 65.5716 64.9865 65.6419 65.1143 65.7186C65.1334 66.8432 64.9609 67.9487 64.75 69.035C64.5072 70.2875 64.2388 71.5527 63.7851 72.7093C63.242 74.1279 62.6669 75.5529 61.8873 76.7478C60.9224 78.2623 59.6444 79.3678 58.2577 79.9684C56.3343 80.8311 54.2384 80.9844 52.2638 80.3902C51.0689 80.0132 49.8995 79.3102 49.0241 78.1089C48.0592 76.8053 47.516 75.0417 47.1071 73.2972C46.6981 71.5016 46.5256 69.6101 46.5 67.7314C47.1262 67.904 47.7205 68.249 48.3403 68.4599C49.58 68.9392 50.8452 69.297 52.1297 69.4504C52.8262 69.5526 53.5227 69.4376 54.2192 69.4376C56.3279 69.2651 58.4303 68.8753 60.4623 68.0765ZM61.4016 68.396C60.6604 68.6836 59.9447 69.0925 59.1907 69.297C59.2482 70.2108 59.3888 71.1054 59.4846 72.0128C60.5134 71.5527 61.4336 70.7412 62.3154 69.8721C63.0183 69.2331 63.7212 68.5685 64.3666 67.8081C64.4625 67.3097 64.5136 66.7985 64.5903 66.2937C63.5743 67.1244 62.5327 67.9104 61.4016 68.396ZM46.9281 68.4471C47.0304 69.412 47.1518 70.3769 47.2412 71.3418C48.6662 72.0767 50.1359 72.6773 51.644 72.9266C51.6504 71.9297 51.6504 70.9393 51.644 69.9424C50.0273 69.8785 48.3723 69.5207 46.9281 68.4471ZM62.833 70.0702C62.5582 70.2811 62.3026 70.5175 62.047 70.7667C61.7275 71.0223 61.408 71.2779 61.0949 71.5463C60.6668 71.8466 60.2323 72.1278 59.8105 72.4345C59.4463 72.5879 59.1012 72.7796 58.7498 72.9521C57.4142 73.5975 56.0084 73.834 54.609 73.9873C53.8997 74.0448 53.1904 73.9362 52.4811 73.9362C52.0721 73.8212 51.6568 73.7509 51.2414 73.6742C50.8708 73.5847 50.5066 73.425 50.1359 73.3739C49.7589 73.2205 49.3883 73.0352 49.0049 72.933C48.4681 72.6837 47.9314 72.4473 47.3946 72.2109C47.516 72.7413 47.6055 73.2908 47.7908 73.7892C48.0528 75.0161 48.4681 76.1919 48.9921 77.2526C49.6759 78.6073 50.8005 79.4253 51.9571 79.7064C52.2191 79.3294 52.398 78.8566 52.6345 78.4412C52.7303 78.307 52.807 78.1473 52.8965 77.9939C53.0754 77.7063 53.2543 77.4252 53.4396 77.144C53.6505 76.8756 53.8614 76.6072 54.0594 76.3197C54.3342 76.1088 54.5515 75.7893 54.7815 75.4954C55.1266 75.2526 55.4333 74.9267 55.7592 74.6327C56.1746 74.5049 56.5388 74.1662 56.9542 74.0193C57.6698 73.6806 58.4303 73.6167 59.1715 73.5272C59.5102 73.5975 59.8489 73.6742 60.1811 73.7701C60.3728 73.949 60.5582 74.1471 60.7307 74.3643C60.7818 74.7158 60.8074 75.0736 60.8074 75.4315C60.539 76.5945 60.015 77.5785 59.5613 78.6073C60.7371 77.3357 61.8553 75.8916 62.6541 74.1279C63.3762 72.524 63.9257 70.7539 64.1941 68.8944C63.734 69.2778 63.2931 69.6996 62.833 70.0702ZM55.6506 69.9232C55.6506 70.952 55.6506 71.9872 55.6506 73.016C56.8903 72.8435 58.1363 72.6135 59.3185 72.0703C59.2098 71.1693 59.1012 70.2619 58.9926 69.3609C57.8935 69.6804 56.7752 69.8785 55.6506 69.9232ZM51.791 69.9552C51.7974 70.952 51.791 71.9553 51.7974 72.9585C53.0307 73.1183 54.2703 73.163 55.5036 73.016V69.9424C54.6729 69.9999 53.8486 69.9999 53.0179 69.9232C52.6089 69.8657 52.1999 69.9871 51.791 69.9552ZM58.0916 74.7094C57.9318 74.9203 57.7721 75.1375 57.6315 75.374C57.4973 75.5912 57.3631 75.8085 57.2417 76.0385C57.1267 76.2877 57.0181 76.5497 56.9222 76.8181C56.8647 77.0865 56.8136 77.3549 56.7752 77.6297C56.7433 77.8341 56.7625 78.1409 56.5644 78.1856C56.5516 77.8277 56.558 77.4699 56.5771 77.1121C56.6346 76.8053 56.7113 76.505 56.8008 76.2174C56.9861 75.981 57.1203 75.6999 57.28 75.4379C57.4909 75.1503 57.6826 74.8372 57.8488 74.5049C57.3567 74.6135 56.8711 74.7541 56.4046 74.9969C56.0084 75.2078 55.6314 75.4506 55.28 75.7829C54.9668 75.9938 54.6729 76.2558 54.4109 76.5753C54.1297 76.8948 53.8614 77.2335 53.6185 77.6105C53.1648 78.3198 52.7495 79.0674 52.3725 79.8534C53.299 80.0579 54.2384 80.1857 55.1777 80.2624C56.0851 80.2624 57.0117 80.109 57.8679 79.6489C58.1747 79.4764 58.5197 79.3869 58.7562 79.0419C58.8584 78.799 58.9606 78.569 59.0757 78.339C59.2099 78.0514 59.3376 77.7575 59.4718 77.4699C59.5741 77.2143 59.6827 76.9587 59.7913 76.7095C59.8425 76.505 59.8936 76.3069 59.9447 76.1024L59.9958 76.1152C60.0406 75.9171 60.0789 75.719 60.13 75.5273C60.1939 75.2206 60.3281 74.7861 60.0597 74.5944C59.5996 74.2557 59.0501 74.3579 58.5453 74.3707C58.3536 74.3515 58.2066 74.5177 58.0916 74.7094Z" fill="#010100"/>
<path d="M60.4623 68.0765C62.0023 67.6867 63.4784 66.7985 64.7373 65.5077C64.8651 65.5716 64.9865 65.6419 65.1143 65.7186C65.1334 66.8432 64.9609 67.9487 64.75 69.035C64.5072 70.2875 64.2388 71.5527 63.7851 72.7093C63.242 74.1279 62.6669 75.5529 61.8873 76.7478C60.9224 78.2623 59.6444 79.3678 58.2577 79.9684C56.3343 80.8311 54.2384 80.9844 52.2638 80.3902C51.0689 80.0132 49.8995 79.3102 49.0241 78.1089C48.0592 76.8053 47.516 75.0417 47.1071 73.2972C46.6981 71.5016 46.5256 69.6101 46.5 67.7314C47.1262 67.904 47.7205 68.249 48.3403 68.4599C49.58 68.9392 50.8452 69.297 52.1297 69.4504C52.8262 69.5526 53.5227 69.4376 54.2192 69.4376C56.3279 69.2651 58.4303 68.8753 60.4623 68.0765V68.0765ZM61.4016 68.396C60.6604 68.6836 59.9447 69.0925 59.1907 69.297C59.2482 70.2108 59.3888 71.1054 59.4846 72.0128C60.5134 71.5527 61.4336 70.7412 62.3154 69.8721C63.0183 69.2331 63.7212 68.5685 64.3666 67.8081C64.4625 67.3097 64.5136 66.7985 64.5903 66.2937C63.5743 67.1244 62.5327 67.9104 61.4016 68.396ZM46.9281 68.4471C47.0304 69.412 47.1518 70.3769 47.2412 71.3418C48.6662 72.0767 50.1359 72.6773 51.644 72.9266C51.6504 71.9297 51.6504 70.9393 51.644 69.9424C50.0273 69.8785 48.3723 69.5207 46.9281 68.4471ZM62.833 70.0702C62.5582 70.2811 62.3026 70.5175 62.047 70.7667C61.7275 71.0223 61.408 71.2779 61.0949 71.5463C60.6668 71.8466 60.2323 72.1278 59.8105 72.4345C59.4463 72.5879 59.1012 72.7796 58.7498 72.9521C57.4142 73.5975 56.0084 73.834 54.609 73.9873C53.8997 74.0448 53.1904 73.9362 52.4811 73.9362C52.0721 73.8212 51.6568 73.7509 51.2414 73.6742C50.8708 73.5847 50.5066 73.425 50.1359 73.3739C49.7589 73.2205 49.3883 73.0352 49.0049 72.933C48.4681 72.6837 47.9314 72.4473 47.3946 72.2109C47.516 72.7413 47.6055 73.2908 47.7908 73.7892C48.0528 75.0161 48.4681 76.1919 48.9921 77.2526C49.6759 78.6073 50.8005 79.4253 51.9571 79.7064C52.2191 79.3294 52.398 78.8566 52.6345 78.4412C52.7303 78.307 52.807 78.1473 52.8965 77.9939C53.0754 77.7063 53.2543 77.4252 53.4396 77.144C53.6505 76.8756 53.8614 76.6072 54.0594 76.3197C54.3342 76.1088 54.5515 75.7893 54.7815 75.4954C55.1266 75.2526 55.4333 74.9267 55.7592 74.6327C56.1746 74.5049 56.5388 74.1662 56.9542 74.0193C57.6698 73.6806 58.4303 73.6167 59.1715 73.5272C59.5102 73.5975 59.8489 73.6742 60.1811 73.7701C60.3728 73.949 60.5582 74.1471 60.7307 74.3643C60.7818 74.7158 60.8074 75.0736 60.8074 75.4315C60.539 76.5945 60.015 77.5785 59.5613 78.6073C60.7371 77.3357 61.8553 75.8916 62.6541 74.1279C63.3762 72.524 63.9257 70.7539 64.1941 68.8944C63.734 69.2778 63.2931 69.6996 62.833 70.0702V70.0702ZM55.6506 69.9232C55.6506 70.952 55.6506 71.9872 55.6506 73.016C56.8903 72.8435 58.1363 72.6135 59.3185 72.0703C59.2098 71.1693 59.1012 70.2619 58.9926 69.3609C57.8935 69.6804 56.7752 69.8785 55.6506 69.9232V69.9232ZM51.791 69.9552C51.7974 70.952 51.791 71.9553 51.7974 72.9585C53.0307 73.1183 54.2703 73.163 55.5036 73.016V69.9424C54.6729 69.9999 53.8486 69.9999 53.0179 69.9232C52.6089 69.8657 52.1999 69.9871 51.791 69.9552ZM58.0916 74.7094C57.9318 74.9203 57.7721 75.1375 57.6315 75.374C57.4973 75.5912 57.3631 75.8085 57.2417 76.0385C57.1267 76.2877 57.0181 76.5497 56.9222 76.8181C56.8647 77.0865 56.8136 77.3549 56.7752 77.6297C56.7433 77.8341 56.7625 78.1409 56.5644 78.1856C56.5516 77.8277 56.558 77.4699 56.5771 77.1121C56.6346 76.8053 56.7113 76.505 56.8008 76.2174C56.9861 75.981 57.1203 75.6999 57.28 75.4379C57.4909 75.1503 57.6826 74.8372 57.8488 74.5049C57.3567 74.6135 56.8711 74.7541 56.4046 74.9969C56.0084 75.2078 55.6314 75.4506 55.28 75.7829C54.9668 75.9938 54.6729 76.2558 54.4109 76.5753C54.1297 76.8948 53.8614 77.2335 53.6185 77.6105C53.1648 78.3198 52.7495 79.0674 52.3725 79.8534C53.299 80.0579 54.2384 80.1857 55.1777 80.2624C56.0851 80.2624 57.0117 80.109 57.8679 79.6489C58.1747 79.4764 58.5197 79.3869 58.7562 79.0419C58.8584 78.799 58.9606 78.569 59.0757 78.339C59.2099 78.0514 59.3376 77.7575 59.4718 77.4699C59.5741 77.2143 59.6827 76.9587 59.7913 76.7095C59.8425 76.505 59.8936 76.3069 59.9447 76.1024L59.9958 76.1152C60.0406 75.9171 60.0789 75.719 60.13 75.5273C60.1939 75.2206 60.3281 74.7861 60.0597 74.5944C59.5996 74.2557 59.0501 74.3579 58.5453 74.3707C58.3536 74.3515 58.2066 74.5177 58.0916 74.7094V74.7094Z" stroke="#010100" stroke-width="0.12858" stroke-miterlimit="2.61313"/>
<path d="M61.4004 68.396C62.5315 67.9104 63.573 67.1244 64.5891 66.2937C64.5124 66.7921 64.4613 67.3097 64.3654 67.8018C63.72 68.5686 63.0171 69.2331 62.3142 69.8721C61.4324 70.7412 60.5122 71.5527 59.4834 72.0128C59.3875 71.1054 59.247 70.2108 59.1895 69.297C59.9435 69.0926 60.6592 68.6772 61.4004 68.396Z" fill="white" stroke="white" stroke-width="0.12858" stroke-miterlimit="2.61313"/>
<path d="M46.9277 68.4471C48.3719 69.5207 50.0269 69.8785 51.6436 69.9424C51.65 70.9393 51.65 71.9297 51.6436 72.9266C50.1355 72.6774 48.6658 72.0767 47.2408 71.3418C47.1514 70.3769 47.03 69.412 46.9277 68.4471Z" fill="white" stroke="white" stroke-width="0.12858" stroke-miterlimit="2.61313"/>
<path d="M55.6504 69.9233C56.775 69.8722 57.8933 69.6741 58.9924 69.361C59.101 70.262 59.2097 71.163 59.3183 72.0704C58.1361 72.6135 56.8901 72.8436 55.6504 73.0161C55.6504 71.9809 55.6504 70.9521 55.6504 69.9233Z" fill="white" stroke="white" stroke-width="0.12858" stroke-miterlimit="2.61313"/>
<path d="M51.791 69.9553C52.2 69.9936 52.6089 69.8658 53.0179 69.9297C53.8422 70.0064 54.6729 70 55.5036 69.9425V73.0225C54.2704 73.1631 53.0307 73.1248 51.7974 72.9586C51.791 71.9618 51.7974 70.9585 51.791 69.9553Z" fill="white" stroke="white" stroke-width="0.12858" stroke-miterlimit="2.61313"/>
<path d="M62.2372 75.5529C62.8251 74.9714 61.5663 76.1281 62.0327 76.7543C61.1509 77.6169 60.5694 77.7575 59.9304 78.6138C59.8345 77.7064 60.0838 77.3677 60.0262 76.4539C60.7803 76.2559 61.496 75.8405 62.2372 75.5529Z" fill="white" stroke="white" stroke-width="0.12858" stroke-miterlimit="2.61313"/>
<path d="M47.7715 75.6041C49.2093 76.6777 50.8643 77.0355 52.481 77.0994C52.4874 78.0963 52.4874 79.0867 52.4874 80.0836C50.9729 79.8407 50.5128 78.7353 49.0878 78.0004C48.9984 77.0291 47.8737 76.569 47.7715 75.6041Z" fill="white" stroke="white" stroke-width="0.12858" stroke-miterlimit="2.61313"/>
<path d="M56.4931 77.0801C57.6113 77.0354 58.7296 76.8373 59.8287 76.5178C59.9373 77.4252 59.7712 77.8214 59.8798 78.7224C58.6913 79.2719 57.7264 80.0004 56.4931 80.1729C56.4867 79.1441 56.4867 78.1089 56.4931 77.0801Z" fill="white" stroke="white" stroke-width="0.12858" stroke-miterlimit="2.61313"/>
<path d="M52.627 77.1121C53.0423 77.144 53.4449 77.0226 53.8538 77.0865C54.6846 77.1568 55.5153 77.1568 56.3396 77.0993V80.1793C55.1063 80.3199 53.8666 80.2752 52.6333 80.1154C52.627 79.1122 52.6333 78.1153 52.627 77.1121Z" fill="white" stroke="white" stroke-width="0.12858" stroke-miterlimit="2.61313"/>
<path d="M63.5291 73.0352C63.5036 73.4569 62.7815 74.2109 62.6793 74.7796C62.5515 75.6743 61.8166 76.3133 61.6888 77.2079C61.4268 78.0258 60.4683 78.1792 59.9635 78.7798C59.3181 79.0993 58.6024 79.2719 58.0081 79.7192C57.58 79.8278 57.0049 80.5435 56.7173 80.3198C56.2828 80.109 55.6885 80.2559 55.1965 80.2112C53.861 80.2879 52.4935 80.3198 51.1899 79.9876C50.5765 79.6361 50.0141 79.1441 49.5349 78.6137C49.1579 77.7191 48.3336 77.112 48.0332 76.1727C47.6754 75.4826 47.6754 74.6966 47.5156 73.9553L47.5284 73.8211" stroke="black" stroke-width="1.01257" stroke-miterlimit="2.61313" stroke-linecap="round" stroke-linejoin="round"/>
<path d="M48.0898 75.783C48.3327 75.9811 48.0451 75.6424 48.3454 75.8533C48.6969 76.1025 49.1634 76.0834 49.4957 76.3709C50.0708 76.6968 50.7673 76.6265 51.3935 76.8118C52.0709 76.8566 52.7482 76.9524 53.4256 77.0099C54.0326 76.9652 54.6333 77.0674 55.2339 77.0674C55.8346 77.0547 56.4353 77.0163 57.0296 76.9652C57.5471 76.8502 58.0711 76.7863 58.5951 76.7351C59.068 76.6968 59.4961 76.4795 59.9562 76.4284C60.461 76.2239 60.9275 75.9428 61.4579 75.8022C61.6687 75.6744 61.9499 75.6105 62.0713 75.3868" stroke="black" stroke-width="0.948279" stroke-miterlimit="2.61313" stroke-linecap="round" stroke-linejoin="round"/>
<path d="M69.3252 91.1575C69.3252 91.0361 69.338 90.9147 69.3764 90.806C69.2997 92.2502 69.4466 93.6943 69.4658 95.1385C69.4594 95.2727 69.5105 95.4069 69.5681 95.5283C69.5233 95.5283 69.4786 95.5347 69.4339 95.5411C69.3827 94.0777 69.2869 92.6208 69.3252 91.1575Z" fill="#030303" fill-opacity="0.439216" stroke="#030303" stroke-opacity="0.439216" stroke-width="0.0803627" stroke-miterlimit="2.61313"/>
<path d="M42.6208 92.1735C42.6528 92.3333 42.6591 92.506 42.6528 92.6722C42.5568 92.5187 42.608 92.3333 42.6208 92.1735Z" fill="#191819" fill-opacity="0.658824" stroke="#191819" stroke-opacity="0.658824" stroke-width="0.0803627" stroke-miterlimit="2.61313"/>
<path d="M42.6841 93.3239C42.7352 94.1226 42.8183 94.9341 42.7544 95.7393C42.6841 95.2792 42.7608 94.8191 42.7033 94.3654C42.6777 94.0204 42.6713 93.6689 42.6841 93.3239Z" fill="#171717" fill-opacity="0.670588" stroke="#171717" stroke-opacity="0.670588" stroke-width="0.0803627" stroke-miterlimit="2.61313"/>
<path d="M42.7037 94.3717C42.7612 94.8254 42.6845 95.2855 42.7548 95.7392C42.7612 96.1354 42.7739 96.5379 42.7292 96.9405C42.6206 97.8543 42.4992 98.7745 42.4161 99.6946C42.2947 101.037 42.2052 102.398 42.3842 103.746C42.3139 103.676 42.2627 103.599 42.2691 103.503C42.2244 102.979 42.1413 102.462 42.1669 101.938C42.2436 100.429 42.3778 98.9278 42.5822 97.4262C42.6909 96.7488 42.6781 96.0523 42.627 95.3686C42.6206 95.0363 42.5822 94.6912 42.7037 94.3717Z" fill="black" fill-opacity="0.180392" stroke="black" stroke-opacity="0.180392" stroke-width="0.0803627" stroke-miterlimit="2.61313"/>
<path d="M68.8714 96.7743C70.0663 96.1034 71.4082 95.7392 72.7629 95.605C73.1655 95.5794 73.5681 95.5986 73.9643 95.6241C73.8812 96.2248 74.1496 96.7871 74.1943 97.375C74.3477 98.3335 74.8844 99.177 75.4595 99.9438C76.1369 100.813 76.9101 101.618 77.7983 102.276C78.5012 102.807 79.3255 103.19 80.2074 103.305C80.578 103.369 80.9614 103.331 81.332 103.401C80.7058 104.212 80.0604 105.005 79.5428 105.893C78.9741 106.858 78.6226 107.951 77.9517 108.852C77.2615 109.74 76.2966 110.34 75.3637 110.935C74.8717 111.28 74.2263 111.369 73.6512 111.21C73.1336 111.069 72.6607 110.807 72.2198 110.507C71.945 110.309 71.6702 110.098 71.4658 109.816C71.3252 109.606 71.2229 109.35 71.2677 109.094C71.2868 108.903 71.3443 108.679 71.2102 108.519C71.0632 108.366 70.8267 108.411 70.635 108.391C69.8618 108.289 69.1526 107.874 68.6158 107.305C67.9512 106.621 67.4017 105.829 66.9608 104.979C66.6413 104.353 66.392 103.625 66.5901 102.922C66.6604 102.564 66.8777 102.263 67.1205 102.001C67.3761 101.759 67.7276 101.663 68.0471 101.548C68.2771 101.452 68.5263 101.503 68.7628 101.522C68.7564 101.791 68.6605 102.04 68.5519 102.283C68.6541 102.327 68.7628 102.378 68.865 102.43C68.9672 102.219 69.0631 102.001 69.095 101.765C69.1398 101.477 69.0886 101.19 69.0886 100.902C69.0823 100.634 69.1462 100.372 69.1909 100.11C69.0759 100.084 68.9608 100.059 68.8458 100.04C68.7819 100.321 68.7308 100.608 68.7244 100.902C68.3155 100.922 67.9001 100.947 67.5103 101.075C67.3122 101.152 67.0502 101.107 66.916 100.941C66.8074 100.755 66.7946 100.532 66.7882 100.327C66.8202 99.6627 66.8841 98.9789 67.1908 98.3783C67.5295 97.6626 68.2004 97.1641 68.8714 96.7743Z" fill="#FE7062" stroke="#FE7062" stroke-width="0.0803627" stroke-miterlimit="2.61313"/>
<path d="M65.5104 95.9436C64.2324 96.4996 62.9352 96.998 61.5997 97.3878C61.1076 97.5348 60.6092 97.6306 60.1172 97.7712C59.8296 97.7968 59.5421 97.8607 59.2545 97.9373C59.0692 97.9246 58.8903 97.9821 58.7113 98.0012C58.4813 98.046 58.2449 98.0396 58.0276 98.1035C57.7848 98.0907 57.5484 98.1354 57.3055 98.1546C56.9221 98.1802 56.5387 98.1674 56.1617 98.1993C55.823 98.2249 55.4908 98.161 55.1585 98.1866C53.5418 98.1226 51.9187 97.8734 50.3851 97.3495C49.0815 96.9021 47.8674 96.2312 46.7619 95.4196C45.9695 94.8509 45.2602 94.18 44.5254 93.5474C44.5318 94.0969 44.6085 94.6465 44.5765 95.196C44.5829 95.3046 44.5318 95.4452 44.6404 95.5219C46.0654 96.8574 47.5543 98.1418 49.2924 99.0492C50.3404 99.5988 51.4714 99.9885 52.6408 100.18C54.1488 100.442 55.6952 100.468 57.2161 100.346C57.5867 100.334 57.9509 100.282 58.3152 100.238C58.7241 100.193 59.1267 100.129 59.5293 100.065C59.8168 100.001 60.1299 99.9949 60.4047 99.8863C60.6603 99.8799 60.9095 99.7968 61.1587 99.7457C62.948 99.3368 64.6861 98.7169 66.3347 97.9246C66.5456 97.8159 66.8076 97.7584 66.929 97.5412C67.1462 97.2089 67.4274 96.9213 67.6766 96.6146C67.7277 96.3398 67.7086 96.0523 67.7405 95.7775C67.7661 95.4835 67.7916 95.1896 67.798 94.8957C67.0312 95.2407 66.2772 95.6114 65.5104 95.9436Z" fill="#1A1091" stroke="#7D97F4" stroke-width="0.0803627" stroke-miterlimit="2.61313"/>
<path d="M82.3026 99.3241C82.2323 99.1068 82.0853 98.9279 81.9703 98.7298C81.9128 98.6276 81.8489 98.5253 81.7914 98.4295C81.5741 98.5956 81.3505 98.749 81.1524 98.9343C80.8329 99.1452 80.5326 99.3816 80.2322 99.6116C79.9894 99.7458 79.8296 99.9823 79.6252 100.155C79.2418 100.366 78.8264 100.129 78.4749 99.9823C78.3216 99.8545 78.1554 99.7458 78.0021 99.6244C77.3439 99.0557 76.8007 98.3336 76.5324 97.4965C76.526 97.2537 76.4557 96.9917 76.5899 96.7681C76.7113 96.57 76.8902 96.4102 77.0308 96.2185C77.2289 95.9949 77.4206 95.7584 77.6187 95.5284C77.7465 95.375 77.8807 95.2217 78.0085 95.0683C77.28 94.8702 76.4749 94.7616 75.7464 95.0108C75.6058 95.0491 75.4652 95.0939 75.3694 95.2025C75.1841 95.3814 74.9796 95.5539 74.8454 95.7776C74.7112 96.0779 74.692 96.4166 74.7559 96.7425C74.8262 97.1259 74.8773 97.5157 75.0371 97.8799C75.0754 98.1611 75.216 98.4167 75.331 98.6787C75.7783 99.5541 76.3982 100.334 77.1266 100.992C77.4014 101.279 77.7209 101.522 78.0404 101.759C78.3024 101.944 78.5708 102.129 78.8647 102.27C79.1331 102.41 79.4143 102.557 79.7146 102.621C80.3664 102.858 81.0629 102.947 81.7467 102.986C82.0981 102.449 82.4432 101.906 82.686 101.305C82.7563 101.107 82.8458 100.902 82.8521 100.685C82.7627 100.2 82.5646 99.7394 82.3026 99.3241Z" fill="#7D97F4" stroke="#0B0266" stroke-width="0.0803627" stroke-miterlimit="2.61313"/>
<path d="M63.1012 100.155C62.0277 100.487 60.9286 100.711 59.8231 100.928C59.4525 100.966 59.0819 101.024 58.7112 101.1C58.6346 101.081 58.5451 101.1 58.4684 101.107C57.069 101.286 55.6504 101.318 54.2446 101.254C52.8835 101.139 51.516 100.928 50.238 100.429C48.9919 99.9566 47.829 99.2728 46.7618 98.4805C45.9567 97.8926 45.2218 97.2152 44.4614 96.5698C44.3655 97.1705 44.2633 97.7712 44.1547 98.3654C44.1355 98.4357 44.1611 98.4932 44.225 98.538C45.7969 99.8224 47.4519 101.043 49.3306 101.848C50.4361 102.327 51.5991 102.66 52.7813 102.877C54.1999 103.145 55.644 103.26 57.0882 103.228C57.74 103.222 58.3917 103.171 59.0435 103.094C59.3055 103.056 59.5867 103.056 59.8359 102.96C60.2065 102.947 60.558 102.838 60.9222 102.762C62.7753 102.321 64.507 101.484 66.1109 100.468C66.1748 99.963 66.1557 99.4454 66.2643 98.9405C65.2355 99.4134 64.1811 99.8224 63.1012 100.155Z" fill="#1A1091" stroke="#1A1091" stroke-width="0.0803627" stroke-miterlimit="2.61313"/>
<path d="M66.5058 101.273C65.7262 101.765 64.9211 102.206 64.0904 102.589C63.151 103.018 62.1861 103.426 61.1637 103.612L61.1573 103.637C60.8123 103.682 60.4736 103.759 60.1349 103.803C59.4448 103.912 58.7483 103.976 58.0517 104.034C56.499 104.123 54.9334 104.136 53.3806 103.957C52.0323 103.816 50.7032 103.484 49.4635 102.928C48.6456 102.557 47.8596 102.123 47.08 101.676C46.0001 101.043 45.016 100.276 44.0255 99.5157C44.0128 99.9567 43.9616 100.398 43.9808 100.838C44.7796 101.631 45.6103 102.398 46.5624 102.998C47.0161 103.292 47.5081 103.51 47.9554 103.797C49.6169 104.794 51.4764 105.42 53.3806 105.727C54.6267 105.931 55.8919 106.034 57.1507 105.995C57.745 106.002 58.3329 105.938 58.9144 105.887C59.3937 105.823 59.8793 105.784 60.3458 105.65C60.6014 105.631 60.8506 105.554 61.1062 105.49C62.4098 105.158 63.6558 104.628 64.8252 103.976C65.1511 103.823 65.4387 103.586 65.6559 103.305C65.6815 103.094 65.6943 102.877 65.7837 102.679C65.9499 102.238 66.3205 101.938 66.6144 101.586C66.5761 101.478 66.5378 101.375 66.5058 101.273Z" fill="#1A1091" stroke="#7D97F4" stroke-width="0.0803627" stroke-miterlimit="2.61313"/>
<path d="M65.9012 104.391C64.489 105.235 62.9809 105.938 61.3898 106.347C60.8402 106.5 60.2715 106.577 59.7156 106.698C59.3897 106.698 59.0766 106.781 58.7571 106.807C58.5015 106.851 58.2395 106.877 57.9903 106.922C56.2138 107.12 54.4182 106.998 52.6673 106.653C50.4244 106.212 48.2071 105.401 46.3667 104.014C45.5488 103.382 44.7245 102.755 43.9641 102.052C43.9193 102.359 43.913 102.666 43.9257 102.973C44.5392 103.848 45.2868 104.634 46.1495 105.273C46.8396 105.797 47.6192 106.187 48.4243 106.513C49.7407 107.037 51.1146 107.395 52.5012 107.682C53.645 107.925 54.8144 108.072 55.9838 108.129C56.6228 108.149 57.2618 108.187 57.8944 108.181C58.2459 108.149 58.5909 108.161 58.9424 108.136C59.2172 108.136 59.4919 108.117 59.7603 108.072C59.8498 108.072 59.9392 108.072 60.0287 108.066C61.2173 107.944 62.4058 107.72 63.5241 107.286C64.5976 106.883 65.5945 106.289 66.5018 105.586C66.2782 105.203 66.0737 104.807 65.9076 104.391H65.9012Z" fill="#1A1091" stroke="#7D97F4" stroke-width="0.0803627" stroke-miterlimit="2.61313"/>
<path d="M66.9865 106.328C66.4369 106.743 65.8682 107.133 65.2612 107.459C63.964 108.168 62.5262 108.615 61.0629 108.826C60.5772 108.909 60.0852 108.922 59.5996 108.999C59.3056 108.992 59.0117 108.999 58.7241 109.05C58.0404 109.037 57.3503 109.056 56.6665 109.043C56.3023 108.986 55.9317 109.024 55.5674 108.967C54.807 108.922 54.0466 108.845 53.2862 108.743C50.9857 108.417 48.6534 107.893 46.6405 106.673C45.7714 106.161 45.0046 105.497 44.2634 104.819C44.2378 105.088 44.2506 105.363 44.2187 105.631C44.1739 105.906 44.3337 106.155 44.4359 106.404C44.8257 107.292 45.3561 108.136 46.1229 108.749C46.9025 109.408 47.8546 109.829 48.8195 110.136C50.1295 110.539 51.4842 110.743 52.8453 110.896C54.3341 111.043 55.8358 111.114 57.3311 111.069C57.7912 111.075 58.2576 111.056 58.7113 111.005C59.2289 111.011 59.7465 110.935 60.2641 110.884C61.1332 110.788 61.9958 110.641 62.8393 110.424C63.817 110.168 64.7755 109.791 65.5679 109.152C66.3666 108.519 66.9098 107.593 67.1718 106.615C67.1207 106.513 67.0504 106.423 66.9865 106.328Z" fill="#1A1091" stroke="#1A1091" stroke-width="0.0803627" stroke-miterlimit="2.61313"/>
<path d="M47.4514 111.567C47.5089 111.484 47.6176 111.542 47.7006 111.555C48.9084 111.912 50.1161 112.264 51.3494 112.52C53.8926 113.05 56.5189 113.254 59.1005 112.967C60.3658 112.82 61.6054 112.545 62.8387 112.251C63.0879 112.2 63.3499 112.136 63.6055 112.206C63.5736 112.756 63.2157 113.203 62.8387 113.58C62.1869 114.213 61.4457 114.775 60.615 115.159C59.7459 115.574 58.7938 115.785 57.8353 115.887C56.2697 116.047 54.6786 115.983 53.1194 115.766C51.6177 115.536 50.0713 115.203 48.8189 114.302C48.4035 113.97 47.9754 113.619 47.739 113.133C47.5856 112.826 47.3683 112.551 47.2661 112.226C47.183 111.996 47.2981 111.746 47.4514 111.567Z" fill="#1A1091" stroke="#4C4C4C" stroke-width="0.0803627" stroke-miterlimit="2.61313"/>
<path d="M53.4961 116.29C53.6431 116.302 53.7964 116.315 53.9434 116.328C55.2981 116.488 56.6592 116.456 58.0203 116.405C57.8286 116.475 57.6241 116.456 57.426 116.469C56.64 116.532 55.854 116.52 55.0681 116.462C54.5441 116.43 54.0073 116.43 53.4961 116.29Z" fill="black" fill-opacity="0.478431" stroke="black" stroke-opacity="0.478431" stroke-width="0.0803627" stroke-miterlimit="2.61313"/>
<path d="M55.6047 127.856C65.4969 127.856 73.5161 125.804 73.5161 123.274C73.5161 120.744 65.4969 118.692 55.6047 118.692C45.7126 118.692 37.6934 120.744 37.6934 123.274C37.6934 125.804 45.7126 127.856 55.6047 127.856Z" fill="#A1A1A1" stroke="#9D9D9E" stroke-width="0.0964352" stroke-miterlimit="2.61313"/>
</svg>
