<svg width="172" height="168" viewBox="0 0 172 168" fill="none" xmlns="http://www.w3.org/2000/svg">
<g id="bulb-header">
<path id="path124" d="M105.677 142.455C105.611 141.69 104.801 141.027 103.431 140.497C104.92 139.707 105.746 138.859 105.677 138.026C105.465 135.505 97.191 134.093 87.1922 134.868C77.1963 135.647 69.2606 138.32 69.4729 140.84C69.5357 141.604 70.346 142.264 71.7155 142.795C70.2264 143.588 69.4041 144.438 69.4729 145.269C69.5357 146.033 70.346 146.696 71.7155 147.224C70.2264 148.019 69.4041 148.867 69.4729 149.701C69.5357 150.465 70.346 151.125 71.7155 151.655C70.2264 152.448 69.4041 153.296 69.4729 154.129C69.5656 155.245 71.24 156.142 73.9371 156.73C73.9012 157.552 73.9221 158.455 74.0059 159.452C74.3976 164.097 79.8126 167.736 86.9769 167.736C94.1411 167.736 100.34 162.774 100.408 158.114C100.426 156.973 100.378 155.966 100.271 155.075C103.697 153.971 105.785 152.621 105.677 151.315C105.611 150.551 104.801 149.888 103.431 149.357C104.92 148.567 105.746 147.717 105.677 146.886C105.611 146.122 104.801 145.459 103.431 144.928C104.92 144.136 105.746 143.288 105.677 142.455Z" fill="url(#paint0_linear)"/>
<path id="path142" d="M82.5634 157.731C79.595 157.731 76.8773 157.52 74.6323 157.106C74.5026 157.084 74.4162 156.961 74.4421 156.836C74.4652 156.711 74.592 156.628 74.7217 156.653C78.2347 157.3 82.9265 157.445 87.9324 157.056C92.0276 156.736 95.8577 156.1 99.0105 155.211C99.1373 155.178 99.2699 155.247 99.3073 155.369C99.3448 155.494 99.2728 155.622 99.146 155.658C95.9614 156.553 92.0997 157.195 87.9699 157.517C86.111 157.662 84.2925 157.731 82.5634 157.731Z" fill="url(#paint1_linear)"/>
<path id="path160" d="M82.6167 153.296C78.7584 153.296 75.3124 152.946 72.8825 152.28C72.7518 152.246 72.6793 152.117 72.717 151.994C72.7518 151.871 72.8825 151.801 73.0131 151.834C76.4766 152.786 82.0564 153.083 87.9382 152.624C93.7532 152.173 99.1792 151.034 102.448 149.581C102.57 149.525 102.712 149.576 102.768 149.69C102.823 149.808 102.77 149.945 102.648 150.001C99.3302 151.473 93.8461 152.629 87.976 153.086C86.1441 153.228 84.3383 153.296 82.6167 153.296Z" fill="url(#paint2_linear)"/>
<path id="path178" d="M82.5675 148.871C78.4043 148.871 74.7586 148.46 72.3058 147.679C72.18 147.639 72.1099 147.507 72.1537 147.388C72.1947 147.264 72.3291 147.2 72.4548 147.239C75.8696 148.324 81.6582 148.682 87.9381 148.195C93.753 147.741 99.1792 146.602 102.451 145.15C102.571 145.097 102.711 145.145 102.766 145.26C102.822 145.379 102.772 145.517 102.649 145.57C99.3312 147.045 93.8466 148.197 87.9761 148.654C86.1167 148.801 84.2953 148.871 82.5675 148.871Z" fill="url(#paint3_linear)"/>
<path id="path196" d="M82.5955 144.442C79.2899 144.442 76.2853 144.183 73.9507 143.682C73.8208 143.653 73.7382 143.531 73.7677 143.406C73.7943 143.281 73.9241 143.201 74.054 143.229C77.5662 143.984 82.625 144.177 87.9317 143.764C93.6959 143.315 99.0941 142.191 102.367 140.754C102.488 140.7 102.633 140.754 102.686 140.867C102.742 140.984 102.689 141.121 102.568 141.175C99.2416 142.632 93.7874 143.773 87.9701 144.228C86.1313 144.371 84.3221 144.442 82.5955 144.442Z" fill="url(#paint4_linear)"/>
<g id="bulb-color">
<path id="bulb-lamp-color" fill-rule="evenodd" clip-rule="evenodd" d="M62.1428 121.357C54.8127 124.712 54.7336 125.867 49.0316 131.706C45.441 135.381 39.1285 141.548 35.272 144.435C37.4393 139.304 40.5426 135.079 44.1649 130.885C46.8199 127.804 57.6992 118.09 62.1428 121.357Z" fill="#FE7062"/>
<path id="bulb-lamp-color_2" fill-rule="evenodd" clip-rule="evenodd" d="M12.6303 95.7543C10.1872 96.8459 13.1373 90.0968 28.9172 89.0975C32.3436 88.8822 31.2988 88.8054 34.003 89.4357C29.5779 92.7718 23.1707 93.9095 17.8083 94.6936C16.7788 94.8473 12.6764 94.9242 12.6303 95.7543Z" fill="#FE7062"/>
<path id="bulb-lamp-color_3" fill-rule="evenodd" clip-rule="evenodd" d="M0.875 59.8447C5.16184 57.6463 5.68425 57.6617 10.8469 58.3381C16.7471 59.1068 22.4014 62.1201 27.1031 65.6714C22.8931 65.5792 24.5986 65.8405 20.3886 64.8259C13.0902 63.0579 8.48069 61.1208 0.875 59.8447Z" fill="#FE7062"/>
<path id="bulb-lamp-color_4" fill-rule="evenodd" clip-rule="evenodd" d="M15.9648 16.4714C25.8138 18.4239 33.312 21.6985 36.7537 31.999L37.8139 36.8879L34.6795 33.1059C26.8587 23.1898 25.0609 23.9585 15.9648 16.4714Z" fill="#FE7062"/>
<path id="bulb-lamp-color_5" fill-rule="evenodd" clip-rule="evenodd" d="M61.125 0.928467C66.1801 6.955 70.3901 13.2429 70.344 21.3295C67.8242 18.5007 68.869 19.9151 66.7179 16.5329C63.1071 10.8753 61.3862 7.92355 61.125 0.928467Z" fill="#FE7062"/>
<path id="bulb-lamp-color_6" fill-rule="evenodd" clip-rule="evenodd" d="M97.5376 22.79C96.0626 19.7921 105.067 13.4581 106.572 12.5356C110.475 10.1527 115.776 7.96961 120.37 7.72363C116.006 11.9822 110.183 15.2107 104.851 18.0856C101.026 20.1611 100.396 20.9912 97.5376 22.79Z" fill="#FE7062"/>
<path id="bulb-lamp-color_7" fill-rule="evenodd" clip-rule="evenodd" d="M127.652 37.3645C133.691 31.7069 141.604 26.5874 150.3 27.2792L154.357 28.1402L150.546 29.4931C142.818 31.9836 135.489 35.8117 127.652 37.3645Z" fill="#FE7062"/>
<path id="bulb-lamp-color_8" fill-rule="evenodd" clip-rule="evenodd" d="M137.855 66.0368C143.541 64.7454 144.8 64.9452 150.731 65.6371C156.324 66.2981 163.961 68.512 168.816 71.4791L171.843 73.8159C162.178 72.4323 147.274 68.8809 137.855 66.0368Z" fill="#FE7062"/>
<path id="bulb-lamp-color_9" fill-rule="evenodd" clip-rule="evenodd" d="M138.332 101.996C146.598 102.626 153.897 105.163 159.705 111.236C151.93 110.144 144.109 107.485 138.332 101.996Z" fill="#FE7062"/>
<path id="bulb-lamp-color_10" fill-rule="evenodd" clip-rule="evenodd" d="M115.992 117.539C122.307 123.95 126.21 132.359 126.686 141.353C121.232 134.619 117.314 126.117 115.992 117.539Z" fill="#FE7062"/>
<path id="bulb-lamp-color_11" d="M62.7606 120.091C61.5503 115.946 59.4876 112.071 56.7091 108.694C50.7573 101.46 41.0491 86.7502 39.8536 66.6745C38.1156 37.4719 64.9708 22.8511 89.4792 24.8366C113.984 26.8221 138.168 44.4176 135.522 71.5849C133.895 88.3016 124.19 100.98 116.965 108.26C112.379 112.886 109.11 118.547 107.335 124.717C105.169 132.264 100.01 141.668 87.745 142.245C71.8783 142.985 65.2882 128.72 62.7606 120.091Z" fill="url(#paint5_linear)"/>
<path id="bulb-lamp-color_12" d="M91.7958 136.42L100.372 82.634C100.549 81.5255 101.115 80.7801 101.641 80.9696C102.161 81.1592 102.441 82.2163 102.264 83.328C102.258 83.3569 102.251 83.3923 102.248 83.4212L92.4788 136.706C92.4055 137.104 92.1956 137.361 92.0091 137.272C91.8258 137.185 91.7358 136.809 91.7958 136.42Z" fill="url(#paint6_linear)"/>
<path id="bulb-lamp-color_13" d="M82.895 136.848L74.3189 83.0646C74.1424 81.9506 73.5764 81.2058 73.0537 81.3985C72.5311 81.5879 72.2514 82.6408 72.4279 83.7548C72.4345 83.7837 72.4412 83.8191 72.4445 83.8479L82.2125 137.133C82.2858 137.535 82.4955 137.788 82.682 137.698C82.8651 137.615 82.9549 137.233 82.895 136.848Z" fill="url(#paint7_linear)"/>
</g>
<rect id="bulb-text-bgr" x="48" y="48" width="75" height="18" rx="9" fill="#FE7062"/>
<g id="bulb-text" filter="url(#filter0_d)">
<path d="M56.2628 61.0783C55.4708 61.0783 54.7788 60.8983 54.1868 60.5383C53.5948 60.1783 53.1348 59.6783 52.8068 59.0383C52.4788 58.3903 52.3148 57.6383 52.3148 56.7823C52.3148 55.9183 52.4828 55.1583 52.8188 54.5023C53.1628 53.8383 53.6468 53.3223 54.2708 52.9543C54.9028 52.5783 55.6508 52.3903 56.5148 52.3903C57.4988 52.3903 58.3148 52.6263 58.9628 53.0983C59.6108 53.5703 60.0308 54.2223 60.2228 55.0543H58.5068C58.3788 54.6623 58.1468 54.3583 57.8108 54.1423C57.4748 53.9183 57.0428 53.8063 56.5148 53.8063C55.6748 53.8063 55.0268 54.0743 54.5708 54.6103C54.1148 55.1383 53.8868 55.8663 53.8868 56.7943C53.8868 57.7223 54.1108 58.4423 54.5588 58.9543C55.0148 59.4583 55.6308 59.7103 56.4068 59.7103C57.1668 59.7103 57.7388 59.5063 58.1228 59.0983C58.5148 58.6823 58.7508 58.1383 58.8308 57.4663H56.7068V56.3143H60.3788V60.9343H58.9628L58.8428 59.8303C58.5708 60.2303 58.2308 60.5383 57.8228 60.7543C57.4148 60.9703 56.8948 61.0783 56.2628 61.0783ZM64.728 61.0783C64.128 61.0783 63.596 60.9503 63.132 60.6943C62.668 60.4383 62.304 60.0783 62.04 59.6143C61.776 59.1503 61.644 58.6143 61.644 58.0063C61.644 57.3903 61.772 56.8423 62.028 56.3623C62.292 55.8823 62.652 55.5103 63.108 55.2463C63.572 54.9743 64.116 54.8383 64.74 54.8383C65.324 54.8383 65.84 54.9663 66.288 55.2223C66.736 55.4783 67.084 55.8303 67.332 56.2783C67.588 56.7183 67.716 57.2103 67.716 57.7543C67.716 57.8423 67.712 57.9343 67.704 58.0303C67.704 58.1263 67.7 58.2263 67.692 58.3303H63.168C63.2 58.7943 63.36 59.1583 63.648 59.4223C63.944 59.6863 64.3 59.8183 64.716 59.8183C65.028 59.8183 65.288 59.7503 65.496 59.6143C65.712 59.4703 65.872 59.2863 65.976 59.0623H67.536C67.424 59.4383 67.236 59.7823 66.972 60.0943C66.716 60.3983 66.396 60.6383 66.012 60.8143C65.636 60.9903 65.208 61.0783 64.728 61.0783ZM64.74 56.0863C64.364 56.0863 64.032 56.1943 63.744 56.4103C63.456 56.6183 63.272 56.9383 63.192 57.3703H66.156C66.132 56.9783 65.988 56.6663 65.724 56.4343C65.46 56.2023 65.132 56.0863 64.74 56.0863ZM71.5544 60.9343C70.9304 60.9343 70.4304 60.7823 70.0544 60.4783C69.6784 60.1743 69.4904 59.6343 69.4904 58.8583V56.2663H68.4704V54.9823H69.4904L69.6704 53.3863H71.0264V54.9823H72.6344V56.2663H71.0264V58.8703C71.0264 59.1583 71.0864 59.3583 71.2064 59.4703C71.3344 59.5743 71.5504 59.6263 71.8544 59.6263H72.5984V60.9343H71.5544ZM79.7166 61.0783C79.1006 61.0783 78.5566 60.9743 78.0846 60.7663C77.6126 60.5503 77.2406 60.2463 76.9686 59.8543C76.6966 59.4543 76.5566 58.9703 76.5486 58.4023H78.1686C78.1846 58.7943 78.3246 59.1263 78.5886 59.3983C78.8606 59.6623 79.2326 59.7943 79.7046 59.7943C80.1126 59.7943 80.4366 59.6983 80.6766 59.5063C80.9166 59.3063 81.0366 59.0423 81.0366 58.7143C81.0366 58.3703 80.9286 58.1023 80.7126 57.9103C80.5046 57.7183 80.2246 57.5623 79.8726 57.4423C79.5206 57.3223 79.1446 57.1943 78.7446 57.0583C78.0966 56.8343 77.6006 56.5463 77.2566 56.1943C76.9206 55.8423 76.7526 55.3743 76.7526 54.7903C76.7446 54.2943 76.8606 53.8703 77.1006 53.5183C77.3486 53.1583 77.6846 52.8823 78.1086 52.6903C78.5326 52.4903 79.0206 52.3903 79.5726 52.3903C80.1326 52.3903 80.6246 52.4903 81.0486 52.6903C81.4806 52.8903 81.8166 53.1703 82.0566 53.5303C82.3046 53.8903 82.4366 54.3183 82.4526 54.8143H80.8086C80.8006 54.5183 80.6846 54.2583 80.4606 54.0343C80.2446 53.8023 79.9406 53.6863 79.5486 53.6863C79.2126 53.6783 78.9286 53.7623 78.6966 53.9383C78.4726 54.1063 78.3606 54.3543 78.3606 54.6823C78.3606 54.9623 78.4486 55.1863 78.6246 55.3543C78.8006 55.5143 79.0406 55.6503 79.3446 55.7623C79.6486 55.8743 79.9966 55.9943 80.3886 56.1223C80.8046 56.2663 81.1846 56.4343 81.5286 56.6263C81.8726 56.8183 82.1486 57.0743 82.3566 57.3943C82.5646 57.7063 82.6686 58.1103 82.6686 58.6063C82.6686 59.0463 82.5566 59.4543 82.3326 59.8303C82.1086 60.2063 81.7766 60.5103 81.3366 60.7423C80.8966 60.9663 80.3566 61.0783 79.7166 61.0783ZM86.6248 60.9343C86.0008 60.9343 85.5008 60.7823 85.1248 60.4783C84.7488 60.1743 84.5608 59.6343 84.5608 58.8583V56.2663H83.5408V54.9823H84.5608L84.7408 53.3863H86.0968V54.9823H87.7048V56.2663H86.0968V58.8703C86.0968 59.1583 86.1568 59.3583 86.2768 59.4703C86.4048 59.5743 86.6208 59.6263 86.9248 59.6263H87.6688V60.9343H86.6248ZM91.0755 61.0783C90.5635 61.0783 90.1435 60.9983 89.8155 60.8383C89.4875 60.6703 89.2435 60.4503 89.0835 60.1783C88.9235 59.9063 88.8435 59.6063 88.8435 59.2783C88.8435 58.7263 89.0595 58.2783 89.4915 57.9343C89.9235 57.5903 90.5715 57.4183 91.4355 57.4183H92.9475V57.2743C92.9475 56.8663 92.8315 56.5663 92.5995 56.3743C92.3675 56.1823 92.0795 56.0863 91.7355 56.0863C91.4235 56.0863 91.1515 56.1623 90.9195 56.3143C90.6875 56.4583 90.5435 56.6743 90.4875 56.9623H88.9875C89.0275 56.5303 89.1715 56.1543 89.4195 55.8343C89.6755 55.5143 90.0035 55.2703 90.4035 55.1023C90.8035 54.9263 91.2515 54.8383 91.7475 54.8383C92.5955 54.8383 93.2635 55.0503 93.7515 55.4743C94.2395 55.8983 94.4835 56.4983 94.4835 57.2743V60.9343H93.1755L93.0315 59.9743C92.8555 60.2943 92.6075 60.5583 92.2875 60.7663C91.9755 60.9743 91.5715 61.0783 91.0755 61.0783ZM91.4235 59.8783C91.8635 59.8783 92.2035 59.7343 92.4435 59.4463C92.6915 59.1583 92.8475 58.8023 92.9115 58.3783H91.6035C91.1955 58.3783 90.9035 58.4543 90.7275 58.6063C90.5515 58.7503 90.4635 58.9303 90.4635 59.1463C90.4635 59.3783 90.5515 59.5583 90.7275 59.6863C90.9035 59.8143 91.1355 59.8783 91.4235 59.8783ZM95.9493 60.9343V54.9823H97.3173L97.4613 56.0983C97.6773 55.7143 97.9693 55.4103 98.3373 55.1863C98.7133 54.9543 99.1533 54.8383 99.6573 54.8383V56.4583H99.2253C98.8893 56.4583 98.5893 56.5103 98.3253 56.6143C98.0613 56.7183 97.8533 56.8983 97.7013 57.1543C97.5573 57.4103 97.4853 57.7663 97.4853 58.2223V60.9343H95.9493ZM103.359 60.9343C102.735 60.9343 102.235 60.7823 101.859 60.4783C101.483 60.1743 101.295 59.6343 101.295 58.8583V56.2663H100.275V54.9823H101.295L101.475 53.3863H102.831V54.9823H104.439V56.2663H102.831V58.8703C102.831 59.1583 102.891 59.3583 103.011 59.4703C103.139 59.5743 103.355 59.6263 103.659 59.6263H104.403V60.9343H103.359ZM108.498 61.0783C107.898 61.0783 107.366 60.9503 106.902 60.6943C106.438 60.4383 106.074 60.0783 105.81 59.6143C105.546 59.1503 105.414 58.6143 105.414 58.0063C105.414 57.3903 105.542 56.8423 105.798 56.3623C106.062 55.8823 106.422 55.5103 106.878 55.2463C107.342 54.9743 107.886 54.8383 108.51 54.8383C109.094 54.8383 109.61 54.9663 110.058 55.2223C110.506 55.4783 110.854 55.8303 111.102 56.2783C111.358 56.7183 111.486 57.2103 111.486 57.7543C111.486 57.8423 111.482 57.9343 111.474 58.0303C111.474 58.1263 111.47 58.2263 111.462 58.3303H106.938C106.97 58.7943 107.13 59.1583 107.418 59.4223C107.714 59.6863 108.07 59.8183 108.486 59.8183C108.798 59.8183 109.058 59.7503 109.266 59.6143C109.482 59.4703 109.642 59.2863 109.746 59.0623H111.306C111.194 59.4383 111.006 59.7823 110.742 60.0943C110.486 60.3983 110.166 60.6383 109.782 60.8143C109.406 60.9903 108.978 61.0783 108.498 61.0783ZM108.51 56.0863C108.134 56.0863 107.802 56.1943 107.514 56.4103C107.226 56.6183 107.042 56.9383 106.962 57.3703H109.926C109.902 56.9783 109.758 56.6663 109.494 56.4343C109.23 56.2023 108.902 56.0863 108.51 56.0863ZM115.513 61.0783C114.953 61.0783 114.453 60.9423 114.013 60.6703C113.573 60.3983 113.225 60.0263 112.969 59.5543C112.713 59.0823 112.585 58.5463 112.585 57.9463C112.585 57.3463 112.713 56.8143 112.969 56.3503C113.225 55.8783 113.573 55.5103 114.013 55.2463C114.453 54.9743 114.953 54.8383 115.513 54.8383C115.961 54.8383 116.353 54.9223 116.689 55.0903C117.025 55.2583 117.297 55.4943 117.505 55.7983V52.2943H119.041V60.9343H117.673L117.505 60.0823C117.313 60.3463 117.057 60.5783 116.737 60.7783C116.425 60.9783 116.017 61.0783 115.513 61.0783ZM115.837 59.7343C116.333 59.7343 116.737 59.5703 117.049 59.2423C117.369 58.9063 117.529 58.4783 117.529 57.9583C117.529 57.4383 117.369 57.0143 117.049 56.6863C116.737 56.3503 116.333 56.1823 115.837 56.1823C115.349 56.1823 114.945 56.3463 114.625 56.6743C114.305 57.0023 114.145 57.4263 114.145 57.9463C114.145 58.4663 114.305 58.8943 114.625 59.2303C114.945 59.5663 115.349 59.7343 115.837 59.7343Z" fill="white"/>
</g>
<path id="path254" d="M100.31 78.0185C100.093 77.6815 99.5877 77.5539 99.184 77.7372L94.4104 79.8866L92.7513 75.3357C92.6631 75.0969 92.4629 74.8843 92.1711 74.773C91.6215 74.5538 90.9633 74.7468 90.7055 75.2081L90.6953 75.2212L86.7664 82.1277L83.126 72.2964L83.1192 72.28C83.031 72.0412 82.841 71.8253 82.5662 71.6813C81.9555 71.3607 81.148 71.5145 80.7646 72.0248L75.2751 79.3108C75.0512 79.6085 75.1292 80.0109 75.4685 80.2301C75.8315 80.4657 76.354 80.4101 76.6356 80.1091L81.4703 74.9072L85.8199 84.2608L85.8232 84.2641C85.8945 84.4179 86.0234 84.5487 86.2066 84.6272C86.6138 84.8137 87.1261 84.6861 87.3466 84.3459L91.5469 77.8451L93.1279 81.1331L93.1415 81.1625C93.1516 81.1854 93.1652 81.2084 93.1822 81.2313C93.3993 81.5682 93.9014 81.6958 94.3052 81.5126L99.9711 78.9607C100.375 78.7775 100.528 78.3555 100.31 78.0185Z" fill="white"/>
<path id="path258" d="M117.152 101.33C116.927 101.33 116.7 101.261 116.504 101.123C116.02 100.778 115.919 100.119 116.277 99.651C117.738 97.7556 119.075 95.7944 120.256 93.8269C120.559 93.3248 121.223 93.1522 121.743 93.4409C122.264 93.7327 122.443 94.3729 122.14 94.875C120.92 96.9147 119.537 98.9418 118.027 100.903C117.813 101.182 117.484 101.33 117.152 101.33Z" fill="white"/>
<path id="path262" d="M124.205 89.6528C124.06 89.6528 123.915 89.6256 123.774 89.5643C123.219 89.3326 122.968 88.716 123.208 88.1846C132.27 68.0617 124.452 51.1683 124.374 51.0014C124.123 50.4768 124.364 49.8533 124.911 49.6115C125.459 49.3696 126.102 49.5979 126.353 50.1293C126.695 50.8481 134.648 68.0447 125.204 89.0226C125.028 89.4178 124.625 89.6528 124.205 89.6528Z" fill="white"/>
</g>
<defs>
<filter id="filter0_d" x="48.3164" y="52.2944" width="74.7267" height="16.784" filterUnits="userSpaceOnUse" color-interpolation-filters="sRGB">
<feFlood flood-opacity="0" result="BackgroundImageFix"/>
<feColorMatrix in="SourceAlpha" type="matrix" values="0 0 0 0 0 0 0 0 0 0 0 0 0 0 0 0 0 0 127 0"/>
<feOffset dy="4"/>
<feGaussianBlur stdDeviation="2"/>
<feColorMatrix type="matrix" values="0 0 0 0 0 0 0 0 0 0 0 0 0 0 0 0 0 0 0.25 0"/>
<feBlend mode="normal" in2="BackgroundImageFix" result="effect1_dropShadow"/>
<feBlend mode="normal" in="SourceGraphic" in2="effect1_dropShadow" result="shape"/>
</filter>
<linearGradient id="paint0_linear" x1="268.78" y1="-43.8116" x2="259.244" y2="21.4555" gradientUnits="userSpaceOnUse">
<stop stop-color="#09005D"/>
<stop offset="1" stop-color="#1A0F91"/>
</linearGradient>
<linearGradient id="paint1_linear" x1="247.833" y1="-46.367" x2="231.98" y2="134.956" gradientUnits="userSpaceOnUse">
<stop stop-color="#53D8FF"/>
<stop offset="1" stop-color="#3840F7"/>
</linearGradient>
<linearGradient id="paint2_linear" x1="252.889" y1="-51.1144" x2="236.921" y2="131.54" gradientUnits="userSpaceOnUse">
<stop stop-color="#53D8FF"/>
<stop offset="1" stop-color="#3840F7"/>
</linearGradient>
<linearGradient id="paint3_linear" x1="256.318" y1="-55.8023" x2="240.238" y2="128.13" gradientUnits="userSpaceOnUse">
<stop stop-color="#53D8FF"/>
<stop offset="1" stop-color="#3840F7"/>
</linearGradient>
<linearGradient id="paint4_linear" x1="262.817" y1="-62.0625" x2="246.583" y2="123.626" gradientUnits="userSpaceOnUse">
<stop stop-color="#53D8FF"/>
<stop offset="1" stop-color="#3840F7"/>
</linearGradient>
<linearGradient id="paint5_linear" x1="427.878" y1="-393.935" x2="396.528" y2="-173.586" gradientUnits="userSpaceOnUse">
<stop stop-color="#FE7062"/>
<stop offset="1" stop-color="#FE7062"/>
</linearGradient>
<linearGradient id="paint6_linear" x1="630.577" y1="-535.896" x2="500.277" y2="-347.398" gradientUnits="userSpaceOnUse">
<stop stop-color="#E1473D"/>
<stop offset="1" stop-color="#E9605A"/>
</linearGradient>
<linearGradient id="paint7_linear" x1="610.794" y1="-548.065" x2="480.605" y2="-359.717" gradientUnits="userSpaceOnUse">
<stop stop-color="#E1473D"/>
<stop offset="1" stop-color="#E9605A"/>
</linearGradient>
</defs>
</svg>
