<svg width="70" height="70" viewBox="0 0 70 70" fill="none" xmlns="http://www.w3.org/2000/svg">
<rect x="0.0390625" width="69.7545" height="69.635" rx="34.8175" fill="#00A99D"/>
<path d="M34.4191 17.9061C24.8036 17.9061 16.9805 25.7158 16.9805 35.3149C16.9805 44.9139 24.8036 52.7236 34.4191 52.7236C37.4856 52.7236 40.5009 51.9182 43.1406 50.3935L40.9586 46.6257C38.981 47.7679 36.7192 48.3715 34.4191 48.3715C27.207 48.3715 21.3401 42.5147 21.3401 35.3149C21.3401 28.1151 27.207 22.2583 34.4191 22.2583C41.6312 22.2583 47.4981 28.1151 47.4981 35.3149V37.2104C47.4981 38.6343 46.5817 39.667 45.3182 39.667C44.1165 39.667 43.1384 38.6906 43.1384 37.4909V28.7866H40.1251C38.5916 27.4492 36.6104 26.6105 34.4191 26.6105C29.6113 26.6105 25.6997 30.5153 25.6997 35.3149C25.6997 40.1144 29.6113 44.0193 34.4191 44.0193C36.7086 44.0193 38.7785 43.1154 40.336 41.6695C41.5365 43.0937 43.3121 44.0193 45.3182 44.0193C48.985 44.0193 51.8577 41.0283 51.8577 37.2104V35.3149C51.8577 25.7158 44.0346 17.9061 34.4191 17.9061V17.9061ZM34.4191 39.667C32.0147 39.667 30.0595 37.7151 30.0595 35.3149C30.0595 32.9146 32.0147 30.9627 34.4191 30.9627C36.8235 30.9627 38.7787 32.9146 38.7787 35.3149C38.7787 37.7152 36.8235 39.667 34.4191 39.667Z" fill="white"/>
</svg>
