<svg width="70" height="68" viewBox="0 0 70 68" fill="none" xmlns="http://www.w3.org/2000/svg">
<rect x="0.175781" y="0.818237" width="68.8599" height="66.7144" rx="33.3572" fill="black"/>
<path d="M46.3363 29.0526H44.2664V26.3787C44.2664 21.2183 39.9332 17.0201 34.6069 17.0201C29.2805 17.0201 24.9474 21.2183 24.9474 26.3787V29.0526H22.8775C22.4961 29.0526 22.1875 29.3516 22.1875 29.721V46.4328C22.1875 47.9074 23.4252 49.1066 24.9474 49.1066H44.2664C45.7885 49.1066 47.0262 47.9074 47.0262 46.4327V29.721C47.0262 29.3516 46.7176 29.0526 46.3363 29.0526ZM36.6728 43.0166C36.6943 43.2052 36.6317 43.3946 36.501 43.5363C36.3702 43.6779 36.1829 43.7589 35.9868 43.7589H33.227C33.0309 43.7589 32.8436 43.6779 32.7129 43.5363C32.5821 43.3946 32.5194 43.2053 32.5411 43.0166L32.9763 39.2245C32.2695 38.7264 31.8471 37.9385 31.8471 37.0742C31.8471 35.5995 33.0848 34.4003 34.6069 34.4003C36.1291 34.4003 37.3668 35.5994 37.3668 37.0742C37.3668 37.9385 36.9444 38.7264 36.2376 39.2245L36.6728 43.0166ZM40.1266 29.0526H29.0872V26.3787C29.0872 23.43 31.5634 21.0309 34.6069 21.0309C37.6504 21.0309 40.1266 23.43 40.1266 26.3787V29.0526Z" fill="white"/>
</svg>
