<svg width="71" height="70" viewBox="0 0 71 70" fill="none" xmlns="http://www.w3.org/2000/svg">
<rect x="0.677734" width="69.7685" height="69.1136" rx="34.5568" fill="#6AB04C"/>
<path d="M48.6775 27.2006C48.6669 27.0599 48.548 26.9511 48.4058 26.9511H43.5002V25.6012C43.5002 21.2841 39.9545 17.772 35.5967 17.772C31.2389 17.772 27.6933 21.2841 27.6933 25.6012V26.9511H22.7877C22.6454 26.9511 22.5266 27.0599 22.5159 27.2006L20.6082 52.0383C20.6025 52.113 20.6284 52.187 20.6802 52.2421C20.7317 52.2974 20.8042 52.3288 20.8799 52.3288H50.3135C50.3893 52.3288 50.4618 52.2974 50.5133 52.2424C50.5648 52.1873 50.591 52.1133 50.5852 52.0385L48.6775 27.2006ZM29.8735 25.6012C29.8735 22.4752 32.4408 19.9318 35.5967 19.9318C38.7527 19.9318 41.3199 22.4752 41.3199 25.6012V26.9511H29.8735V25.6012ZM28.7834 34.5104C27.2804 34.5104 26.0581 33.2993 26.0581 31.8107C26.0581 30.7332 26.6031 29.7624 27.6933 29.3363V31.8107C27.6933 32.4062 28.1824 32.8906 28.7834 32.8906C29.3843 32.8906 29.8735 32.4062 29.8735 31.8107V29.338C30.9637 29.764 31.5087 30.7421 31.5087 31.8107C31.5087 33.2993 30.2864 34.5104 28.7834 34.5104ZM42.41 34.5104C40.907 34.5104 39.6847 33.2993 39.6847 31.8107C39.6847 30.7332 40.2298 29.7624 41.3199 29.3363V31.8107C41.3199 32.4062 41.8091 32.8906 42.41 32.8906C43.011 32.8906 43.5002 32.4062 43.5002 31.8107V29.338C44.5903 29.764 45.1354 30.7421 45.1354 31.8107C45.1354 33.2993 43.9131 34.5104 42.41 34.5104Z" fill="white"/>
</svg>
