<svg width="1104" height="558" viewBox="0 0 1104 558" fill="none" xmlns="http://www.w3.org/2000/svg">
<path d="M565.613 498.141C431.052 494.295 325.053 380.808 328.853 244.657C332.654 108.509 444.816 1.25416 579.379 5.10029C713.938 8.94632 819.94 122.434 816.139 258.585C812.338 394.736 700.173 501.987 565.613 498.141Z" fill="#0DA957" stroke="#0DA957" stroke-width="9.83852"/>
<path d="M565.851 498.141C431.29 494.295 325.291 380.808 329.091 244.657C332.893 108.509 445.054 1.25416 579.617 5.10029C714.176 8.94632 820.179 122.434 816.377 258.585C812.576 394.736 700.412 501.987 565.851 498.141Z" fill="#7CB7ED"/>
<path d="M336.682 319.967C336.682 319.967 314.427 241.681 343.098 163.744C343.098 163.744 348.422 209.178 359.76 230.72C371.1 252.261 336.682 319.967 336.682 319.967Z" fill="white"/>
<path d="M431.342 388.098C431.342 388.098 473.438 387.833 493.034 387.658C512.632 387.483 525.48 395.193 543.873 386.173C562.266 377.155 576.563 384.904 577.534 376.122C578.503 367.34 584.359 339.607 578.988 324.035C573.617 308.461 599.938 275.438 616.635 275.182C633.332 274.926 645.801 270.143 645.801 270.143C645.801 270.143 675.658 290.087 674.459 295.191C673.26 300.297 693.541 301.612 694.889 305.322C696.238 309.031 705.304 348.203 704.996 359.209C704.689 370.212 693.312 361.81 693.312 361.81L680.047 395.206L692.936 401.449L683.416 430.546C683.416 430.546 700.838 430.31 703.198 423.769C705.557 417.227 719.388 389.722 719.388 389.722C719.388 389.722 708.347 395.281 705.529 392.263C702.71 389.244 719.654 380.185 719.654 380.185L728.223 359.139C728.223 359.139 726.456 344.403 723.783 336.249C721.108 328.096 707.434 324.035 707.434 324.035C707.434 324.035 700.592 309.156 703.034 299.68C705.475 290.204 723.521 293.656 723.521 293.656C723.521 293.656 724.479 311.305 729.513 312.917C734.548 314.529 744.364 300.861 744.364 300.861L749.131 312.01L766.566 322.787L764.345 338.877L783.055 344.551L801.717 343.795C801.717 343.795 748.803 449.79 665.254 481.299L676.672 464.126L660.516 471.007L662.609 474.003L646.413 482.351L633.361 481.978L613.431 477.004C613.431 477.004 660.827 450.376 673.061 437.59C673.061 437.59 629.024 455.434 605.911 477.523L613.206 485.073L578.153 484.071L563.109 477.034L539.408 468.28L520.597 466.273L498.119 465.63L487.552 454.315L479.882 443.083L470.456 442.814L456.243 431.394L440.722 415.531L431 399.835L431.328 388.098H431.342Z" fill="#0DA957"/>
<path d="M354.732 173.581L373.994 159.449L384.084 161.94L383.818 171.476L394.271 169.74L407.725 172.894L417.813 175.385L426.111 183.928C426.111 183.928 433.008 202.987 459.173 201.532C459.173 201.532 480.475 218.291 492.178 214.956C503.881 211.619 503.773 189.494 503.773 189.494L520.021 153.343C520.021 153.343 535.33 150.845 537.067 140.615C538.803 130.384 531.635 127.243 537.559 123.006C543.482 118.769 552.358 112.923 553.405 101.319C554.452 89.7156 564.287 75.3116 564.287 75.3116C564.287 75.3116 572.323 73.3382 569.771 60.7848C569.771 60.7848 577.973 52.9418 593.824 57.0661C593.824 57.0661 602.544 56.582 599.226 45.4717C599.226 45.4717 608.899 36.939 608.981 34.0034C609.063 31.0693 636.738 27.4542 648.696 41.0146C648.696 41.0146 662.849 53.8994 653.758 67.5915C653.758 67.5915 640.003 66.4619 633.416 68.4767C626.829 70.4915 642.659 75.3485 642.659 75.3485L662.939 76.6631C662.939 76.6631 667.024 86.3255 674.048 94.6034C681.074 102.879 690.583 100.214 697.525 111.426C704.469 122.638 697.157 124.632 697.157 124.632L709.463 125.716L709.176 135.989L719.356 161.243C719.356 161.243 718.958 149.484 725.608 145.27L741.403 177.291L750.828 177.56L770.466 175.957L761.972 168.334L770.713 167.118L772.871 153.228L773.014 148.094L767.948 136.2L760.717 135.259L755.286 121.888L761.997 115.47L768.378 120.794L773.629 126.083L791.544 140.279C791.544 140.279 743.804 48.1567 655.596 19.1936C655.596 19.1936 627.598 16.9156 617.468 15.8927C607.338 14.8683 597.667 23.4011 597.667 23.4011L597.442 31.4721L590.108 34.1989L587.748 40.7391L585.47 44.3468L579.756 46.385L569.375 49.0247L567.739 55.5873L561.113 59.0675L560.265 63.4495L566.106 62.1482L565.942 68.0179L560.806 70.0726L555.915 63.3251L550.9 60.9787L539.32 59.9144L530.598 60.3983L522.602 60.9048L519.161 54.1987L511.145 55.4362L506.048 56.027L498.072 55.799L496.724 52.0877L460.459 77.4834L457.332 85.4715L456.465 90.5846L453.338 98.573L440.828 104.824C440.828 104.824 393.826 124.773 387.221 127.521C380.618 130.27 352.93 160.316 354.737 173.581" fill="#0DA957"/>
<path d="M817.704 258.627C815.427 340.147 779.639 384.213 779.639 384.213C779.639 384.213 767.63 353.55 781.796 306.965C781.796 306.965 781.077 270.696 771.182 244.904C761.287 219.114 789.506 206.388 789.506 206.388C789.506 206.388 774.971 183.637 794.229 145.736C794.229 145.736 819.417 197.229 817.704 258.627Z" fill="white"/>
<path fill-rule="evenodd" clip-rule="evenodd" d="M761.816 423.418C763.413 421.556 765.058 419.636 766.659 417.594C776.178 405.5 778.171 391.228 788.129 378.002C793.446 370.927 796.663 369.239 799.99 366.559C800 366.554 800.029 366.528 800.04 366.524C806.979 364.492 814.186 361.665 822.769 358.304C840.035 351.544 838.225 350.45 846.885 343.79L838.32 365.034C837.003 369.033 838.015 373.289 840.469 374.3L842.786 375.122C841.099 375.07 839.386 375.157 837.617 375.41C828.978 376.65 818.114 388.993 818.114 388.993C810.259 393.363 803.599 398.174 799.906 403.979C798.349 405.184 773.981 417.457 761.816 423.418ZM769.778 416.655C778.024 412.198 794.519 403.067 795.819 402.051C798.122 398.261 801.985 395.014 806.615 392.026C806.624 392.023 806.663 391.993 806.663 391.992C806.674 391.986 806.662 391.957 806.673 391.951C806.673 391.948 806.713 391.96 806.713 391.958C822.295 376.574 831.677 363.016 806.251 371.179C806.241 371.177 806.21 371.173 806.21 371.172C806.021 371.251 805.852 371.339 805.663 371.416C805.663 371.416 805.632 371.409 805.623 371.41C805.623 371.41 805.592 371.402 805.592 371.403C805.582 371.403 805.583 371.442 805.583 371.443C805.464 371.494 805.344 371.543 805.225 371.592C802.127 372.899 799.216 374.029 796.419 374.964C794.131 376.949 791.961 378.229 788.26 383.42C781.329 393.123 779.728 403.505 773.115 412.383C772.001 413.882 770.885 415.286 769.778 416.655Z" fill="black"/>
<path fill-rule="evenodd" clip-rule="evenodd" d="M769.797 416.645C770.915 415.275 772.01 413.86 773.124 412.362C779.737 403.483 781.318 393.125 788.248 383.42C791.95 378.229 794.15 376.964 796.439 374.979C799.245 374.043 802.146 372.886 805.243 371.58C805.363 371.53 805.472 371.474 805.592 371.425C805.612 371.416 805.652 371.417 805.681 371.408C805.861 371.331 806.031 371.26 806.219 371.182C806.23 371.178 806.24 371.197 806.25 371.193C831.687 363.03 822.284 376.556 806.712 391.94C806.682 391.955 806.673 391.993 806.643 392.009C802.014 394.996 798.141 398.252 795.838 402.043C794.766 402.937 778.113 412.152 769.797 416.645Z" fill="#3145FF"/>
<path fill-rule="evenodd" clip-rule="evenodd" d="M744.254 331.45C743.286 337.536 744.331 344.438 749.479 352.189C747.659 344.681 738.724 331.102 759.249 316.635C783.022 299.878 798.553 296.658 838.249 280.186C877.935 263.704 858.885 242.304 915.711 248.397C907.873 239.52 883.003 239.391 879.002 240.838C879.543 230.759 905.437 231.347 915.762 236.535C907.691 231.193 897.301 228.102 886.9 229.787C891.944 225.903 915.189 222.526 934.67 219.761C939.202 219.125 950.19 219.19 965.588 228.765C967.559 226.994 957.237 216.785 942.591 214.558C958.189 195.968 1030.13 199.878 1057.99 201.076C1074.91 201.799 1100.95 206.492 1100.95 206.492C1101.72 202.49 1103.71 190.749 1103.99 188.92C1103.99 188.92 1092.51 177.368 1046.56 180.556C1014.87 182.763 954.799 200.025 930.966 212.683C907.687 214.046 881.285 218.802 864.525 245.475C853.071 263.727 860.193 267.169 827.279 280.467C801.689 290.821 750.4 303.863 744.606 329.772C744.482 330.329 744.348 330.878 744.254 331.45Z" fill="black"/>
<path fill-rule="evenodd" clip-rule="evenodd" d="M939.361 304.145C929.553 311.546 910.458 318.533 893.37 321.659C868.857 326.141 870.683 321.966 846.004 339.415C826.862 352.953 804.771 360.013 781.305 364.361C757.827 368.709 758.67 358.312 752.57 355.292C754.751 361.721 761.296 367.686 771.588 367.636C790.648 367.542 804.483 362.064 825.63 353.562C846.766 345.059 841.714 344.825 855.698 335.141C876.004 321.079 896.597 325.448 918.031 319.313C930.182 315.832 936.284 308.343 939.361 304.145Z" fill="black"/>
<path fill-rule="evenodd" clip-rule="evenodd" d="M837.605 287.758C843.987 290.773 859.039 311.443 852.644 325.011C848.188 334.435 843.407 333.908 848.907 325.525C855.232 315.87 845.766 291.81 837.605 287.758Z" fill="black"/>
<path fill-rule="evenodd" clip-rule="evenodd" d="M848.633 291.476C852.547 294.029 862.325 310.339 859.078 320.357C856.814 327.32 853.95 326.722 856.875 320.591C860.246 313.534 853.644 294.883 848.633 291.476Z" fill="black"/>
<path fill-rule="evenodd" clip-rule="evenodd" d="M782.872 311.332C783.014 311.347 783.177 311.372 783.328 311.388C782.543 323.937 791.894 343.673 797.748 349.179C797.563 349.39 797.367 349.583 797.182 349.789C797.172 349.788 797.141 349.777 797.141 349.776C796.724 349.683 796.317 349.553 795.987 349.338C790.394 345.737 779.255 322.4 782.872 311.332Z" fill="black"/>
<path fill-rule="evenodd" clip-rule="evenodd" d="M756.528 319.99C757.212 318.312 758.403 317.047 760.228 316.343C766.738 313.823 774.46 310.333 782.745 311.293C775.174 310.576 768.024 314.242 761.99 316.88C751.767 321.355 762.219 345.606 770.171 356.504C762.743 347.182 753.13 328.417 756.528 319.99ZM788.248 312.67C798.488 316.747 804.44 329.483 804.193 340.25C803.986 349.083 793.702 355.164 787.638 358.692C784.606 360.458 779.374 362.902 776.081 361.859C779.106 362.38 783.602 359.99 786.272 358.273C791.94 354.627 801.561 348.345 801.951 339.57C802.426 328.987 797.405 316.618 788.248 312.67Z" fill="black"/>
<path fill-rule="evenodd" clip-rule="evenodd" d="M581.075 497.758C580.949 498.888 580.973 499.989 581.108 501.081C582.884 514.851 585.278 513.317 598.519 512.709C614.048 511.997 641.719 525.454 678.221 524.814C717.576 524.123 737.5 526.789 749.863 523.588C766.679 519.237 777.118 517.104 802.973 497.904C843.927 467.485 872.545 482.795 898.48 441.118C915.674 413.485 928.326 406.349 945.836 382.094C952.397 373.015 965.09 357.321 992.104 343.54C1014.14 332.297 1040.76 325.991 1065.04 320.677C1066.46 317.498 1067.83 314.306 1069.18 311.091C1047.25 317.893 1022.12 326.717 991.971 338.779C946.655 356.908 946.902 377.506 919.225 407.989C913.022 414.825 908.718 420.107 905.523 424.421C905.495 424.469 905.465 424.517 905.437 424.564C902.477 429.925 899.518 434.341 896.596 438.014C896.568 438.066 896.539 438.137 896.51 438.189C896.491 438.215 896.452 438.244 896.432 438.27C893.07 443.646 889.697 448.077 879.431 456.315C855.876 475.216 855.138 466.839 824.637 481.423C794.164 495.995 789.908 508.241 760.825 516.95C731.613 525.699 731.605 520.638 711.763 521.534C691.911 522.427 695.704 522.428 680.419 521.561C665.133 520.692 667.832 522.117 650.03 519.226C632.239 516.335 624.556 513.999 608.842 511.425C594.905 509.144 589.041 511.693 587.23 510.888C587.168 510.859 587.086 510.798 587.034 510.759C587.023 510.75 586.993 510.728 586.972 510.719C586.931 510.681 586.878 510.614 586.846 510.569C586.835 510.563 586.825 510.54 586.825 510.533C586.815 510.526 586.804 510.504 586.794 510.497C586.782 510.468 586.761 510.427 586.75 510.395C586.75 510.388 586.729 510.367 586.729 510.358C586.728 510.346 586.737 510.308 586.736 510.296C586.726 510.272 586.724 510.225 586.724 510.2C586.713 510.184 586.702 510.154 586.701 510.133L586.7 510.102C586.711 510.099 586.71 510.073 586.71 510.071C586.719 510.051 586.718 510.023 586.717 510.011C586.728 510.001 586.726 509.964 586.736 509.949L586.735 509.918C586.744 509.898 586.794 509.864 586.814 509.836C586.813 509.833 586.813 509.81 586.822 509.806C586.832 509.778 586.88 509.732 586.899 509.693C586.899 509.688 586.898 509.668 586.909 509.662C586.909 509.658 586.938 509.643 586.938 509.638C586.967 509.604 586.996 509.554 587.025 509.524C589.007 507.402 599.331 504.185 604.714 503.352C596.652 503.395 589.816 504.565 585.181 508.008C581.832 500.009 586.752 491.527 594.356 483.685C604.844 472.857 621.736 473.804 638.688 477.242C644.437 478.41 652.506 478.937 659.335 478.847C662.304 482.75 665.911 484.485 665.173 493.121C666.861 483.593 665.83 480.636 663.23 478.507C675.646 477.966 688.621 476.285 699.345 475.512C692.839 475.315 686.216 473.956 679.735 471.971C678.559 472.391 677.382 472.828 676.144 473.278C669.61 475.667 654.92 475.773 645.688 474.563C631.105 472.655 624.263 468.134 607.136 472.907C595.091 476.264 584.586 485.577 581.746 494.715C581.424 495.728 581.195 496.762 581.075 497.759V497.758Z" fill="black"/>
<path fill-rule="evenodd" clip-rule="evenodd" d="M607.867 526.495C609.252 522.728 612.168 518.863 615.858 515.561C616.418 515.692 616.976 515.806 617.545 515.943C616.336 516.942 615.239 518.021 614.308 519.211C607.217 528.272 608.089 533.564 611.582 539.985C615.211 536.668 620.893 535.084 627.732 534.352C623.158 535.532 614.145 539.371 613.126 541.285C613.116 541.296 613.108 541.347 613.108 541.367C613.099 541.378 613.09 541.429 613.08 541.439C613.08 541.45 613.071 541.47 613.072 541.481C613.072 541.491 613.062 541.512 613.062 541.522C613.053 541.532 613.035 541.584 613.035 541.604C613.036 541.625 613.047 541.676 613.048 541.696C613.059 541.716 613.06 541.767 613.061 541.788C613.071 541.797 613.082 541.828 613.093 541.838C613.115 541.878 613.166 541.917 613.187 541.947C614.337 543.219 618.747 540.009 631.739 540.777C645.146 541.573 651.807 542.892 666.993 543.773C682.179 544.663 679.816 543.687 692.726 543.097C705.634 542.497 702.477 543.202 719.009 540.369C754.16 534.349 760.352 538.046 770.271 532.562C776.728 529.001 784.397 517.426 792.771 505.174C795.795 503.141 799.032 500.814 802.592 498.181C799.499 502.199 796.737 506.151 794.376 510.003C789.827 517.445 779.686 530.296 775.075 533.553C765.242 540.485 749.797 538.723 691.131 545.991C660.552 549.787 636.204 541.564 623.143 542.761C609.831 543.988 611.692 545.431 607.595 534.521C606.67 532.076 606.836 529.319 607.867 526.495Z" fill="black"/>
<path fill-rule="evenodd" clip-rule="evenodd" d="M614.967 434.475C618.035 426.138 629.971 418.69 642.562 417.656C659.221 416.286 664.995 421.454 678.325 425.581C686.783 428.197 692.11 429.129 698.538 428.472C714.492 426.842 749.104 429.316 751.115 429.4C751.124 429.401 751.155 429.41 751.156 429.411C753.255 428.778 797.836 407.497 799.707 406.033C803.599 400.137 810.77 395.219 819.268 390.721C819.268 390.721 830.87 378.161 840.304 376.812C842.243 376.534 844.127 376.42 845.975 376.454L843.386 375.665C840.671 374.674 839.497 370.39 840.833 366.343L852.563 337.282C853.46 336.622 854.437 335.922 855.553 335.151C856.492 334.504 857.431 333.89 858.362 333.317L843.676 365.295C842.65 368.636 844.481 373.538 846.573 374.292C846.624 374.309 846.715 374.335 846.776 374.351C846.776 374.355 846.807 374.362 846.807 374.364C846.848 374.367 846.938 374.369 846.979 374.371C847.03 374.375 847.1 374.381 847.151 374.379C847.312 374.373 847.492 374.334 847.651 374.272C847.662 374.268 847.691 374.25 847.701 374.245C848.07 374.073 848.473 373.757 848.81 373.237L857.729 363.235C863.072 358.574 867.184 354.558 872.905 354.225C867.487 358.723 862.694 363.868 863.046 370.58C875.815 361.063 888.751 345.288 898.217 333.108C890.758 346.19 877.073 362.229 860.139 379.846C862.945 381.161 865.692 382.824 868.42 384.839C858.439 380.349 849.132 378.346 838.881 380.326C833.227 382.485 830.291 385.055 827.375 387.633C833.146 388.265 839.34 387.874 843.889 391.309C837.903 388.99 830.92 389.99 823.665 391.928C816.925 394.864 811.414 398.68 806.739 403.097C815.024 402.779 820.001 406.009 824.011 410.298C817.023 407.608 810.036 404.909 802.859 408.383C788.022 414.077 769.955 425.523 759.022 431.195C761.404 435.683 762.954 440.687 763.897 446.259C761.837 441.112 759.533 436.491 756.667 432.346C753.297 433.976 750.882 434.825 749.8 434.423C739.272 430.511 710.21 429.617 694.15 432.038C696.261 434.348 696.781 437.089 693.906 445.154C695.722 437.764 692.646 435.576 690.454 431.652C684.063 430.591 676.629 428.775 671.419 426.778C656.087 420.9 640.431 417.258 629.093 425.103C620.885 430.783 615.082 437.489 617.079 445.141C621.95 442.831 628.564 442.923 636.216 444.278C631.082 444.067 620.392 445.237 618.455 446.86C618.445 446.872 618.396 446.917 618.386 446.929C618.377 446.943 618.338 446.981 618.328 446.995C618.318 447.01 618.279 447.044 618.26 447.063C618.26 447.072 618.261 447.095 618.25 447.103C618.25 447.106 618.242 447.139 618.242 447.143C618.232 447.155 618.193 447.198 618.173 447.211C618.173 447.218 618.164 447.243 618.164 447.25C618.175 447.26 618.185 447.293 618.196 447.302C618.196 447.306 618.187 447.338 618.177 447.342C618.178 447.345 618.168 447.378 618.168 447.382C618.169 447.397 618.181 447.457 618.182 447.474C618.788 449.427 624.359 447.186 638.661 452.093C652.964 456.997 658.11 461.793 673.952 466.552C691.181 471.732 689.955 471.918 704.068 473.019C714.336 473.821 719.596 474.542 732.461 478.961C749.621 484.86 754.051 489.02 780.064 476.122C789.097 471.642 805.396 469.739 817.617 465.282C825.21 462.516 834.564 459.272 846.937 456.101C877.49 448.27 880.024 449.57 889.028 440.652C896.827 432.922 904.454 426.094 913.704 407.067C886.025 472.869 863.884 447.849 821.325 467.97C794.457 480.67 785.146 474.988 768.572 486.428C752.364 497.625 727.883 475.209 701.564 475.555C673.683 475.922 643.389 453.51 628.813 451.487C616.367 449.759 613.948 450.837 614.251 438.338C614.284 437.156 614.478 435.96 614.875 434.795C614.903 434.696 614.93 434.576 614.967 434.476V434.475ZM852.28 376.721C852.224 376.854 852.209 377.021 852.153 377.158C853.169 377.371 854.185 377.6 855.184 377.907C855.785 373.94 857.238 369.782 861.163 365.232C857.697 367.674 854.607 371.147 852.28 376.721ZM877.852 335.034C878.455 333.357 879.374 331.753 880.048 330.102C881.256 328.097 882.671 326.222 884.312 324.501C884.323 324.504 884.353 324.512 884.353 324.514C886.854 324.135 889.357 323.835 891.881 323.547C885.812 327.902 880.573 333.298 878.016 342.155C876.948 339.649 877.084 337.541 877.707 335.551C877.762 335.375 877.797 335.208 877.852 335.034Z" fill="black"/>
<path opacity="0.70098" d="M624.531 428.663C625.936 427.44 627.503 426.264 629.163 425.12C640.491 417.276 656.156 420.896 671.488 426.774C676.698 428.771 684.122 430.598 690.514 431.658C692.695 435.551 695.751 437.741 694.022 444.993C696.829 437.055 696.299 434.334 694.199 432.041C710.259 429.619 739.351 430.526 749.879 434.437C750.962 434.84 753.356 433.961 756.726 432.33C759.591 436.475 761.907 441.119 763.956 446.266C763.014 440.695 761.463 435.664 759.082 431.177C770.014 425.503 788.091 414.084 802.939 408.388C810.116 404.917 817.103 407.618 824.091 410.309C820.08 406.019 815.105 402.797 806.819 403.115C811.494 398.698 816.984 394.844 823.723 391.909C830.858 390.001 837.73 388.991 843.652 391.173C839.14 387.945 833.104 388.237 827.444 387.617C830.349 385.039 833.287 382.486 838.941 380.327C849.121 378.362 858.356 380.292 868.253 384.707C865.589 382.765 862.934 381.144 860.199 379.862C877.143 362.245 890.807 346.182 898.266 333.101C888.81 345.28 875.896 361.072 863.136 370.588C862.774 363.876 867.537 358.738 872.955 354.239C867.234 354.573 863.141 358.556 857.798 363.218L848.879 373.229C848.715 373.474 848.531 373.696 848.355 373.856C848.226 373.97 848.058 374.087 847.93 374.163C847.91 374.174 847.851 374.215 847.831 374.23C847.831 374.234 847.792 374.261 847.781 374.264C847.781 374.263 847.751 374.258 847.741 374.257C847.741 374.256 847.711 374.251 847.7 374.25C847.611 374.287 847.501 374.336 847.391 374.364C847.371 374.369 847.321 374.389 847.311 374.391C847.301 374.393 847.271 374.385 847.271 374.385C847.26 374.385 847.23 374.379 847.23 374.378C847.19 374.382 847.1 374.39 847.059 374.39C847.019 374.387 846.927 374.369 846.897 374.363C846.886 374.362 846.856 374.358 846.856 374.357C846.846 374.355 846.825 374.352 846.816 374.35C846.784 374.336 846.733 374.301 846.702 374.288C846.692 374.285 846.662 374.283 846.661 374.28C844.559 373.527 842.731 368.646 843.755 365.307L858.451 333.316C867.026 328.075 875.656 325.881 884.384 324.553C882.752 326.265 881.337 328.104 880.127 330.098C879.463 331.749 878.525 333.353 877.921 335.03C877.867 335.204 877.812 335.375 877.756 335.549C877.143 337.54 877.027 339.639 878.105 342.144C880.653 333.31 885.872 327.924 891.922 323.575C891.931 323.563 891.951 323.552 891.961 323.541C900.508 322.562 909.184 321.818 917.975 319.301C923.085 317.839 927.105 315.667 930.291 313.33C930.11 372.669 857.723 435.518 767.895 454.065C706.794 466.683 653.191 455.579 624.531 428.663Z" fill="url(#paint0_radial)"/>
<path opacity="0.45588" d="M746.863 331.265C748.403 326.648 752.002 321.716 759.179 316.654C782.953 299.897 798.463 296.677 838.16 280.195C877.856 263.723 858.834 242.281 915.66 248.375C907.823 239.496 882.944 239.409 878.933 240.857C879.468 230.922 904.711 231.346 915.302 236.342C907.308 231.17 897.13 228.093 886.917 229.71C892.196 225.87 915.249 222.459 934.569 219.72C937.17 219.36 941.912 219.238 948.387 221.013C934.614 254.185 902.103 286.355 858.187 307.636C856.363 301.938 853.165 296.51 850.649 293.523C853.103 296.788 855.547 302.639 856.825 308.293C855.572 308.886 854.319 309.458 853.035 310.041C850.49 301.309 844.343 292.95 839.919 289.31C844.468 293.396 848.937 302.627 850.468 311.197C846.189 313.094 841.814 314.881 837.336 316.559C825.368 321.056 813.387 324.507 801.596 326.964C799.196 321.22 795.152 316.189 789.879 313.476C794.699 316.235 798.213 321.429 800.173 327.267C795.651 328.18 791.174 328.96 786.713 329.583C784.436 323.3 782.956 316.695 783.284 311.368C783.142 311.352 782.98 311.346 782.838 311.331C782.718 311.682 782.609 312.054 782.529 312.415C781.446 317.112 782.609 323.589 784.723 329.829C775.808 330.989 767.036 331.57 758.539 331.594C756.982 324.732 757.443 318.866 761.972 316.88C767.447 314.485 773.853 311.201 780.653 311.166C773.158 310.927 766.151 314.015 760.189 316.324C758.363 317.027 757.173 318.312 756.499 319.981C756.284 320.512 756.12 321.068 756.007 321.671C755.488 324.409 755.92 327.871 756.997 331.622C753.575 331.605 750.189 331.464 746.863 331.265Z" fill="url(#paint1_radial)"/>
<path opacity="0.70098" d="M781.203 311.189C781.319 311.185 781.426 311.193 781.543 311.199C781.426 311.193 781.32 311.196 781.203 311.189Z" fill="#1DFFFF" fill-opacity="0.59375"/>
<path opacity="0.70098" d="M789.656 313.36C789.71 313.39 789.763 313.399 789.817 313.429C789.753 313.399 789.72 313.39 789.656 313.36Z" fill="#1DFFFF" fill-opacity="0.59375"/>
<path opacity="0.70098" d="M839.414 288.879C839.447 288.91 839.468 288.909 839.502 288.94C839.469 288.92 839.447 288.899 839.414 288.879Z" fill="#1DFFFF" fill-opacity="0.59375"/>
<path opacity="0.45588" d="M590.555 488.01C591.72 486.56 593.017 485.119 594.395 483.7C604.893 472.871 621.765 473.785 638.716 477.222C644.474 478.39 652.545 478.937 659.374 478.846C662.312 482.719 665.918 484.425 665.256 492.887C666.888 483.52 665.879 480.625 663.299 478.512C675.524 477.981 688.248 476.332 698.869 475.543C698.88 475.543 698.91 475.55 698.91 475.55C698.941 475.547 698.97 475.526 699.001 475.523C699.01 475.522 699.031 475.53 699.041 475.53C699.92 475.561 700.788 475.571 701.656 475.56C715.688 475.375 729.186 481.664 741.206 485.879C720.593 495.934 692.678 501.986 662.022 501.73C634.919 501.504 610.083 496.376 590.555 488.01Z" fill="url(#paint2_radial)"/>
<path opacity="0.45588" d="M611.074 524.022C611.102 523.957 611.15 523.895 611.189 523.831C611.227 523.755 611.265 523.675 611.313 523.599C611.361 523.505 611.419 523.427 611.476 523.333C611.486 523.322 611.475 523.302 611.485 523.291C611.504 523.256 611.523 523.213 611.542 523.177C611.581 523.124 611.62 523.078 611.658 523.025C611.687 522.978 611.695 522.917 611.724 522.869C611.733 522.853 611.764 522.85 611.773 522.835C611.792 522.805 611.802 522.79 611.822 522.761C611.831 522.749 611.821 522.73 611.83 522.719C611.859 522.682 611.868 522.64 611.897 522.602C611.993 522.449 612.08 522.302 612.176 522.147C612.243 522.048 612.33 521.945 612.398 521.846C612.456 521.759 612.504 521.668 612.562 521.582C612.59 521.548 612.599 521.499 612.628 521.465C612.638 521.45 612.658 521.446 612.667 521.431C612.687 521.405 612.706 521.381 612.725 521.356C612.89 521.125 613.054 520.876 613.218 520.64C613.257 520.585 613.285 520.547 613.335 520.49C613.363 520.439 613.402 520.393 613.441 520.341C613.45 520.318 613.48 520.288 613.489 520.265C613.508 520.239 613.527 520.217 613.547 520.191C613.576 520.148 613.616 520.124 613.644 520.081C613.664 520.061 613.683 520.027 613.702 520.007C613.741 519.96 613.78 519.903 613.809 519.857C613.848 519.804 613.877 519.76 613.915 519.707C613.935 519.684 613.954 519.656 613.974 519.632C613.993 519.604 614.002 519.584 614.032 519.556C614.06 519.514 614.09 519.491 614.129 519.448C614.149 519.427 614.168 519.394 614.187 519.373C614.216 519.326 614.255 519.271 614.294 519.223C614.322 519.186 614.362 519.151 614.391 519.113C614.478 519.003 614.566 518.889 614.653 518.779C614.692 518.744 614.732 518.707 614.76 518.671C614.848 518.563 614.925 518.444 615.022 518.338C615.052 518.302 615.091 518.264 615.12 518.228C615.286 518.051 615.453 517.897 615.629 517.724C615.658 517.69 615.697 517.649 615.727 517.616C616.03 517.307 616.343 517.016 616.667 516.723C616.707 516.691 616.735 516.648 616.765 516.615C616.912 516.486 617.059 516.354 617.207 516.227C617.246 516.195 617.275 516.15 617.314 516.117C617.344 516.087 617.404 516.088 617.444 516.057C617.483 516.026 617.511 515.979 617.541 515.947C617.469 515.932 617.419 515.929 617.348 515.913C616.85 515.799 616.352 515.689 615.864 515.573C615.92 515.448 615.998 515.336 616.086 515.231C616.675 515.37 617.275 515.512 617.875 515.658C632.213 519.1 650.754 524.337 672.687 524.786C672.708 524.787 672.717 524.793 672.728 524.793C672.748 524.794 672.758 524.8 672.769 524.801C672.789 524.801 672.799 524.807 672.809 524.807C673.052 524.811 673.283 524.799 673.525 524.802C673.535 524.803 673.546 524.81 673.566 524.809C673.576 524.81 673.587 524.817 673.607 524.816C673.616 524.817 673.627 524.824 673.647 524.824C673.879 524.827 674.112 524.817 674.353 524.82C674.364 524.819 674.374 524.826 674.394 524.827C674.404 524.827 674.414 524.833 674.434 524.833C674.586 524.834 674.737 524.828 674.889 524.828C675.141 524.83 675.424 524.837 675.676 524.837C676.242 524.837 676.817 524.844 677.381 524.836C677.522 524.836 677.663 524.827 677.805 524.825C677.946 524.823 678.078 524.815 678.218 524.813C678.531 524.807 678.834 524.806 679.136 524.802C680.357 524.782 681.547 524.761 682.727 524.746C682.738 524.746 682.758 524.753 682.768 524.753C683.05 524.75 683.362 524.739 683.645 524.736C684.231 524.731 684.816 524.746 685.392 524.742C685.673 524.74 685.935 524.72 686.229 524.719C686.804 524.715 687.368 524.719 687.934 524.718C688.499 524.716 689.084 524.718 689.639 524.717C690.194 524.716 690.718 524.701 691.263 524.701C692.353 524.703 693.453 524.708 694.503 524.714C710.087 524.782 721.919 525.243 731.162 525.218C731.172 525.219 731.193 525.226 731.202 525.225C732.444 525.224 733.644 525.19 734.793 525.17C734.935 525.167 735.106 525.168 735.247 525.164C735.54 525.158 735.801 525.148 736.084 525.141C736.225 525.136 736.366 525.132 736.508 525.129C736.921 525.116 737.354 525.108 737.757 525.092C737.899 525.086 738.04 525.086 738.181 525.079C738.715 525.057 739.209 525.04 739.733 525.01C739.985 524.994 740.276 524.955 740.528 524.938C740.911 524.912 741.254 524.903 741.626 524.873C741.868 524.854 742.149 524.816 742.391 524.794C742.632 524.773 742.823 524.765 743.065 524.741C743.075 524.74 743.086 524.749 743.106 524.748C743.337 524.724 743.548 524.682 743.779 524.656C744.131 524.617 744.463 524.58 744.805 524.536C745.026 524.506 745.257 524.475 745.478 524.443C745.708 524.411 745.909 524.377 746.121 524.343C747.426 524.139 748.67 523.89 749.831 523.591C750.261 523.479 750.702 523.376 751.132 523.266C751.152 523.262 751.162 523.238 751.182 523.233C751.582 523.128 751.993 523.04 752.393 522.936C752.454 522.922 752.513 522.898 752.573 522.882C752.974 522.779 753.384 522.689 753.785 522.586C753.936 522.547 754.075 522.49 754.225 522.451C754.285 522.436 754.335 522.413 754.395 522.398C754.545 522.36 754.686 522.34 754.826 522.303C754.895 522.286 754.976 522.274 755.046 522.256C755.176 522.222 755.307 522.189 755.436 522.155C755.587 522.116 755.727 522.058 755.876 522.02C755.936 522.004 755.996 521.981 756.047 521.967C756.136 521.944 756.228 521.947 756.308 521.926C756.428 521.894 756.537 521.849 756.657 521.818C756.748 521.795 756.837 521.76 756.917 521.737C757.027 521.709 757.118 521.691 757.227 521.663C757.327 521.635 757.428 521.616 757.528 521.588C757.628 521.561 757.739 521.541 757.828 521.514C758.139 521.432 758.448 521.335 758.748 521.252C758.839 521.227 758.928 521.195 759.019 521.17C759.128 521.138 759.248 521.094 759.368 521.061C759.438 521.042 759.509 521.035 759.578 521.015C759.709 520.978 759.839 520.951 759.969 520.915C760.039 520.895 760.119 520.886 760.19 520.867C760.339 520.824 760.488 520.734 760.638 520.691C760.678 520.679 760.719 520.683 760.759 520.672C760.909 520.63 761.05 520.618 761.19 520.577C761.27 520.555 761.339 520.511 761.419 520.488C761.449 520.481 761.479 520.47 761.509 520.461C761.549 520.45 761.59 520.454 761.63 520.442C761.69 520.426 761.719 520.396 761.769 520.38C761.809 520.368 761.85 520.374 761.899 520.361C761.959 520.344 762.01 520.324 762.07 520.307C762.139 520.286 762.229 520.239 762.299 520.218C762.319 520.21 762.359 520.2 762.379 520.192C762.419 520.18 762.469 520.183 762.509 520.171C762.599 520.145 762.689 520.117 762.779 520.09C762.928 520.043 763.1 520.01 763.249 519.962C763.269 519.957 763.279 519.933 763.299 519.928C763.359 519.909 763.419 519.892 763.479 519.875C763.519 519.86 763.568 519.827 763.608 519.814C763.618 519.809 763.639 519.824 763.648 519.821C763.828 519.763 764.007 519.675 764.187 519.617C764.197 519.614 764.218 519.628 764.227 519.624C764.318 519.596 764.398 519.572 764.487 519.543C764.498 519.54 764.518 519.553 764.528 519.55C764.718 519.489 764.918 519.417 765.107 519.354C765.197 519.322 765.276 519.264 765.376 519.231C765.585 519.162 765.776 519.115 765.985 519.043C766.085 519.01 766.156 518.995 766.255 518.962C766.265 518.956 766.285 518.933 766.294 518.928C766.374 518.899 766.485 518.875 766.565 518.846C766.674 518.806 766.794 518.78 766.914 518.739C766.984 518.713 767.064 518.676 767.133 518.65C767.164 518.641 767.193 518.634 767.224 518.624C767.303 518.593 767.371 518.525 767.451 518.495C767.462 518.49 767.482 518.506 767.492 518.502C767.691 518.429 767.911 518.347 768.11 518.271C768.221 518.233 768.32 518.195 768.43 518.156C768.48 518.137 768.55 518.123 768.6 518.102C768.649 518.085 768.689 518.058 768.739 518.041C768.809 518.012 768.879 517.982 768.959 517.953C768.988 517.942 769.019 517.937 769.048 517.925C769.088 517.91 769.129 517.923 769.179 517.906C769.239 517.882 769.298 517.835 769.358 517.812C769.398 517.796 769.448 517.806 769.488 517.791C769.548 517.766 769.607 517.721 769.667 517.697C769.697 517.684 769.727 517.681 769.757 517.669C769.826 517.64 769.906 517.61 769.976 517.581C770.006 517.57 770.036 517.565 770.066 517.554C770.136 517.525 770.216 517.496 770.285 517.466C770.315 517.455 770.345 517.451 770.376 517.439C770.455 517.409 770.525 517.381 770.595 517.351C770.644 517.333 770.684 517.309 770.734 517.29C770.794 517.265 770.853 517.219 770.913 517.195C770.922 517.191 770.943 517.207 770.953 517.202C771.053 517.164 771.132 517.119 771.232 517.079C771.241 517.073 771.261 517.053 771.271 517.046C771.36 517.01 771.452 517.001 771.541 516.965C771.651 516.916 771.739 516.858 771.859 516.809C772.168 516.676 772.477 516.561 772.795 516.423C772.965 516.35 773.114 516.287 773.284 516.213C773.403 516.164 773.492 516.107 773.602 516.056C773.651 516.036 773.691 516.016 773.741 515.996C773.83 515.957 773.92 515.914 774.009 515.874C774.029 515.865 774.039 515.848 774.059 515.839C774.148 515.801 774.238 515.758 774.327 515.717C774.347 515.709 774.357 515.692 774.377 515.684C774.456 515.644 774.547 515.642 774.637 515.603C774.776 515.538 774.905 515.445 775.053 515.379C775.123 515.346 775.204 515.324 775.273 515.291C775.312 515.273 775.332 515.239 775.371 515.223C775.441 515.188 775.522 515.169 775.591 515.135C775.63 515.115 775.681 515.093 775.72 515.074C775.79 515.044 775.849 515.008 775.909 514.978C775.959 514.956 775.999 514.939 776.038 514.918C776.108 514.888 776.167 514.852 776.227 514.822C776.266 514.8 776.317 514.784 776.356 514.761C776.426 514.732 776.475 514.697 776.545 514.666C776.595 514.641 776.665 514.638 776.715 514.613C776.814 514.565 776.893 514.497 776.992 514.45C777.012 514.44 777.021 514.424 777.041 514.415C777.091 514.393 777.131 514.377 777.181 514.354C777.24 514.321 777.29 514.293 777.359 514.26C777.409 514.234 777.479 514.231 777.539 514.206C777.599 514.175 777.658 514.141 777.718 514.11C777.768 514.087 777.808 514.073 777.857 514.049C778.016 513.964 778.185 513.885 778.354 513.798C778.374 513.789 778.384 513.772 778.404 513.764C778.483 513.72 778.583 513.687 778.672 513.643C778.702 513.626 778.732 513.591 778.761 513.575C778.791 513.561 778.832 513.561 778.851 513.547C778.94 513.501 778.998 513.424 779.088 513.378C779.117 513.363 779.148 513.364 779.178 513.351C779.267 513.303 779.366 513.235 779.455 513.187C779.465 513.182 779.486 513.2 779.495 513.193C779.605 513.138 779.705 513.095 779.813 513.038C779.824 513.03 779.843 513.013 779.863 513.004C779.963 512.951 780.031 512.895 780.141 512.841C780.18 512.818 780.23 512.805 780.269 512.78C780.468 512.676 780.666 512.568 780.865 512.462C781.093 512.336 781.322 512.203 781.56 512.074C781.569 512.065 781.589 512.05 781.599 512.04C781.817 511.92 782.025 511.811 782.243 511.687C782.263 511.678 782.273 511.663 782.293 511.652C782.392 511.596 782.511 511.515 782.619 511.457C782.63 511.447 782.649 511.432 782.659 511.422C782.768 511.365 782.878 511.325 782.977 511.267C783.126 511.185 783.295 511.091 783.443 511.009C783.522 510.959 783.591 510.888 783.68 510.838C783.72 510.814 783.77 510.801 783.81 510.777C783.889 510.733 783.969 510.693 784.037 510.649C784.136 510.593 784.226 510.542 784.315 510.486C784.354 510.466 784.384 510.437 784.413 510.417C784.463 510.389 784.504 510.384 784.543 510.357C784.622 510.31 784.702 510.274 784.781 510.227C784.88 510.164 784.999 510.094 785.098 510.031C785.118 510.02 785.137 510.006 785.148 509.997C785.207 509.963 785.276 509.935 785.336 509.902C785.395 509.862 785.454 509.805 785.524 509.766C785.583 509.727 785.642 509.669 785.711 509.63C785.77 509.594 785.83 509.57 785.889 509.534C785.969 509.49 786.048 509.451 786.118 509.405C786.177 509.374 786.216 509.335 786.266 509.303C786.346 509.256 786.415 509.223 786.494 509.175C786.544 509.144 786.583 509.104 786.632 509.072C786.722 509.022 786.822 509.002 786.91 508.95C786.95 508.921 786.999 508.877 787.048 508.848C787.266 508.714 787.483 508.55 787.701 508.413C787.731 508.397 787.761 508.404 787.791 508.387C787.9 508.318 788.009 508.258 788.118 508.189C788.147 508.17 788.177 508.14 788.206 508.122C788.316 508.057 788.394 507.982 788.493 507.917C788.522 507.9 788.553 507.908 788.582 507.89C788.83 507.733 789.076 507.55 789.334 507.388C789.344 507.381 789.365 507.401 789.375 507.394C789.513 507.307 789.652 507.22 789.79 507.13C766.119 524.257 730.261 535.733 689.818 536.8C660.465 537.582 633.198 532.776 611.074 524.022Z" fill="url(#paint3_radial)"/>
<path opacity="0.45588" d="M838.328 458.513C841.059 457.727 843.95 456.916 847.023 456.127C877.576 448.295 880.099 449.588 889.093 440.67C896.609 433.236 904.001 426.663 912.778 409.246C910.294 414.995 907.901 420.05 905.475 424.447C905.486 424.448 905.506 424.452 905.506 424.452C908.7 420.138 913.014 414.825 919.217 407.989C946.901 377.505 946.644 356.908 991.96 338.778C1022.11 326.718 1047.24 317.895 1069.17 311.091C1075.56 295.971 1081.28 280.41 1086.26 264.504L1085.48 263.169C1042.02 267.779 992.636 286.947 946.701 319.945C891.25 359.779 852.91 411.066 838.328 458.51V458.513Z" fill="url(#paint4_radial)"/>
<path fill-rule="evenodd" clip-rule="evenodd" d="M376.408 424.622C374.741 422.664 373.025 420.645 371.359 418.503C361.459 405.818 359.804 391.197 349.466 377.34C343.947 369.929 340.516 368.086 337.001 365.229C336.991 365.223 336.959 365.196 336.948 365.191C329.49 362.857 321.768 359.703 312.572 355.953C294.073 348.409 296.077 347.362 286.914 340.247L295.454 362.222C296.741 366.347 295.491 370.647 292.792 371.583L290.248 372.333C292.081 372.344 293.938 372.498 295.848 372.823C305.18 374.414 316.532 387.404 316.532 387.404C324.902 392.156 331.959 397.311 335.76 403.367C337.407 404.655 363.418 418.086 376.408 424.622ZM368.008 417.428C359.217 412.573 341.64 402.642 340.264 401.558C337.9 397.608 333.823 394.152 328.904 390.932C328.894 390.929 328.853 390.897 328.853 390.895C328.842 390.889 328.855 390.859 328.844 390.853C328.844 390.85 328.8 390.86 328.8 390.859C312.436 374.59 302.736 360.417 330.041 369.7C330.053 369.698 330.086 369.696 330.086 369.695C330.289 369.781 330.468 369.878 330.671 369.964C330.671 369.964 330.705 369.957 330.715 369.959C330.715 369.959 330.748 369.952 330.748 369.953C330.76 369.953 330.757 369.993 330.757 369.994C330.885 370.05 331.013 370.105 331.141 370.16C334.456 371.609 337.575 372.871 340.577 373.929C342.99 376.04 345.3 377.426 349.132 382.857C356.308 393.009 357.677 403.649 364.538 412.948C365.694 414.518 366.855 415.991 368.008 417.428Z" fill="black"/>
<path fill-rule="evenodd" clip-rule="evenodd" d="M367.982 417.417C366.818 415.978 365.68 414.495 364.524 412.926C357.662 403.627 356.315 393.01 349.139 382.857C345.306 377.427 342.963 376.054 340.55 373.944C337.537 372.884 334.43 371.595 331.115 370.147C330.988 370.091 330.871 370.03 330.742 369.975C330.721 369.966 330.677 369.965 330.646 369.955C330.453 369.87 330.272 369.79 330.07 369.704C330.059 369.699 330.047 369.718 330.036 369.714C302.72 360.431 312.444 374.572 328.797 390.84C328.828 390.857 328.837 390.896 328.869 390.913C333.786 394.133 337.874 397.597 340.239 401.548C341.37 402.501 359.117 412.523 367.982 417.417Z" fill="#FF4A4A"/>
<path fill-rule="evenodd" clip-rule="evenodd" d="M398.734 331.56C399.569 337.799 398.189 344.794 392.325 352.498C394.569 344.915 404.749 331.415 382.987 315.893C357.782 297.915 341.04 294.045 298.543 275.753C256.057 257.451 277.494 236.364 215.603 240.42C224.425 231.67 251.422 232.481 255.713 234.108C255.485 223.816 227.361 223.433 215.97 228.33C224.919 223.191 236.306 220.435 247.535 222.546C242.199 218.397 217.09 214.074 196.045 210.518C191.149 209.698 179.221 209.348 162.169 218.522C160.092 216.643 171.659 206.63 187.633 204.915C171.366 185.378 93.1473 186.636 62.865 186.802C44.4744 186.897 16.052 190.693 16.052 190.693C15.3573 186.585 13.6152 174.544 13.3703 172.67C13.3703 172.67 26.2451 161.332 75.9971 166.322C110.323 169.773 174.901 189.641 200.317 203.444C225.534 205.716 254.019 211.564 271.26 239.383C283.042 258.417 275.191 261.655 310.439 276.456C337.845 287.977 393.046 303.212 398.413 329.837C398.527 330.409 398.653 330.974 398.734 331.56Z" fill="black"/>
<path fill-rule="evenodd" clip-rule="evenodd" d="M187.954 296.339C198.336 304.253 218.811 312.097 237.246 315.931C263.691 321.428 261.858 317.103 288.022 335.821C308.315 350.344 332.04 358.376 357.354 363.697C382.681 369.018 382.135 358.39 388.863 355.543C386.268 362.013 378.951 367.844 367.783 367.403C347.101 366.585 332.28 360.477 309.631 351.011C286.994 341.544 292.486 341.498 277.653 331.099C256.114 315.998 233.609 319.669 210.564 312.605C197.5 308.597 191.144 300.734 187.954 296.339Z" fill="black"/>
<path fill-rule="evenodd" clip-rule="evenodd" d="M298.98 283.495C291.947 286.326 274.875 306.82 281.333 320.89C285.834 330.664 291.041 330.308 285.371 321.556C278.849 311.476 289.979 287.315 298.98 283.495Z" fill="black"/>
<path fill-rule="evenodd" clip-rule="evenodd" d="M286.871 286.865C282.532 289.319 271.339 305.571 274.507 315.903C276.716 323.085 279.846 322.584 276.889 316.226C273.482 308.905 281.311 290.148 286.871 286.865Z" fill="black"/>
<path fill-rule="evenodd" clip-rule="evenodd" d="M357.536 309.593C357.381 309.604 357.204 309.623 357.039 309.634C357.445 322.453 346.594 342.211 340.044 347.601C340.237 347.823 340.443 348.027 340.636 348.244C340.648 348.243 340.681 348.233 340.681 348.232C341.137 348.154 341.584 348.036 341.949 347.83C348.148 344.372 361.068 321.011 357.536 309.593Z" fill="black"/>
<path fill-rule="evenodd" clip-rule="evenodd" d="M385.831 319.416C385.148 317.68 383.9 316.346 381.945 315.56C374.969 312.744 366.713 308.895 357.686 309.559C365.929 309.115 373.559 313.122 380.013 316.039C390.949 320.988 378.743 345.307 369.724 356.112C378.118 346.893 389.219 328.134 385.831 319.416ZM351.665 310.754C340.406 314.52 333.493 327.275 333.378 338.257C333.288 347.267 344.233 353.854 350.689 357.679C353.917 359.594 359.508 362.283 363.119 361.345C359.818 361.761 355.023 359.155 352.186 357.304C346.165 353.373 335.946 346.607 335.835 337.649C335.697 326.845 341.586 314.431 351.665 310.754Z" fill="black"/>
<path fill-rule="evenodd" clip-rule="evenodd" d="M569.924 507.235C570.02 508.391 569.955 509.512 569.769 510.62C567.352 524.586 564.808 522.931 550.458 521.81C533.63 520.496 503.119 533.162 463.525 531.126C420.836 528.93 399.117 530.892 385.813 527.162C367.716 522.09 356.463 519.52 329.084 498.973C285.719 466.42 254.114 480.938 227.449 437.481C209.771 408.668 196.293 400.916 178.153 375.533C171.355 366.032 158.138 349.557 129.308 334.488C105.794 322.195 77.122 314.76 50.9574 308.423C49.5306 305.13 48.1664 301.825 46.8132 298.497C70.3722 306.26 97.3317 316.206 129.622 329.641C178.16 349.835 177.159 370.817 206.113 402.932C212.602 410.134 217.085 415.68 220.399 420.198C220.428 420.248 220.459 420.298 220.488 420.347C223.509 425.923 226.564 430.536 229.604 434.389C229.633 434.443 229.662 434.516 229.691 434.57C229.711 434.598 229.752 434.629 229.773 434.656C233.231 440.263 236.734 444.906 247.582 453.691C272.475 473.846 273.574 465.337 306.159 481.356C338.713 497.362 342.897 510.003 374.152 519.982C405.545 530.005 405.734 524.847 427.237 526.512C448.752 528.175 444.634 528.032 461.255 527.727C477.876 527.422 474.896 528.771 494.32 526.499C513.733 524.228 522.154 522.138 539.3 520.111C554.508 518.314 560.782 521.134 562.776 520.382C562.844 520.355 562.935 520.296 562.993 520.259C563.005 520.249 563.039 520.228 563.062 520.22C563.108 520.183 563.167 520.116 563.204 520.072C563.215 520.066 563.228 520.044 563.228 520.036C563.239 520.029 563.252 520.007 563.263 520.001C563.277 519.971 563.301 519.93 563.314 519.898C563.315 519.891 563.338 519.87 563.338 519.861C563.34 519.85 563.331 519.81 563.332 519.798C563.345 519.774 563.348 519.726 563.349 519.7C563.362 519.685 563.375 519.654 563.376 519.633L563.378 519.602C563.367 519.598 563.369 519.572 563.369 519.57C563.36 519.549 563.362 519.521 563.363 519.508C563.352 519.498 563.355 519.46 563.346 519.444L563.348 519.413C563.338 519.392 563.286 519.355 563.265 519.326C563.266 519.323 563.267 519.3 563.257 519.295C563.247 519.266 563.196 519.217 563.177 519.177C563.177 519.172 563.179 519.152 563.168 519.146C563.168 519.142 563.136 519.125 563.137 519.12C563.107 519.083 563.077 519.032 563.047 519C560.971 516.762 549.881 513.093 544.068 512.039C552.816 512.389 560.194 513.84 565.101 517.525C569.022 509.5 563.984 500.669 556.009 492.389C545.012 480.957 526.644 481.281 508.124 484.142C501.843 485.115 493.067 485.347 485.658 484.995C482.297 488.861 478.32 490.492 478.814 499.321C477.32 489.547 478.545 486.572 481.443 484.502C467.987 483.479 453.965 481.274 442.353 480.08C449.421 480.126 456.657 478.993 463.761 477.215C465.024 477.688 466.286 478.178 467.613 478.683C474.62 481.366 490.56 482.031 500.622 481.147C516.517 479.755 524.104 475.407 542.523 480.92C555.476 484.798 566.546 494.687 569.303 504.108C569.617 505.152 569.829 506.215 569.924 507.236L569.924 507.235Z" fill="black"/>
<path fill-rule="evenodd" clip-rule="evenodd" d="M539.824 535.505C538.455 531.614 535.427 527.565 531.54 524.06C530.928 524.172 530.318 524.267 529.695 524.385C530.972 525.449 532.124 526.59 533.092 527.839C540.466 537.341 539.331 542.701 535.312 549.113C531.492 545.595 525.38 543.766 517.984 542.76C522.907 544.136 532.552 548.39 533.589 550.379C533.6 550.391 533.607 550.443 533.606 550.464C533.616 550.475 533.624 550.527 533.634 550.538C533.633 550.549 533.643 550.57 533.641 550.581C533.641 550.591 533.651 550.613 533.65 550.624C533.66 550.634 533.678 550.688 533.677 550.708C533.676 550.729 533.661 550.781 533.66 550.801C533.647 550.821 533.644 550.874 533.642 550.894C533.631 550.904 533.618 550.935 533.606 550.944C533.581 550.985 533.524 551.022 533.5 551.052C532.206 552.304 527.534 548.866 513.406 549.157C498.827 549.459 491.55 550.551 475.038 550.873C458.524 551.205 461.123 550.299 447.133 549.209C433.145 548.108 436.546 548.947 418.704 545.433C380.768 537.966 373.916 541.498 363.346 535.534C356.465 531.659 348.553 519.573 339.9 506.769C336.69 504.582 333.26 502.088 329.49 499.27C332.704 503.482 335.561 507.615 337.986 511.63C342.659 519.386 353.208 532.868 358.097 536.362C368.522 543.799 385.347 542.589 448.761 552.219C481.814 557.247 508.532 549.789 522.666 551.504C537.07 553.259 534.998 554.659 539.834 543.696C540.924 541.239 540.843 538.423 539.824 535.505Z" fill="black"/>
<path fill-rule="evenodd" clip-rule="evenodd" d="M535.389 441.456C532.356 432.844 519.667 424.801 506.038 423.269C488.006 421.242 481.556 426.29 466.941 429.99C457.669 432.336 451.853 433.084 444.901 432.171C427.643 429.905 389.99 431.114 387.804 431.124C387.794 431.124 387.76 431.133 387.759 431.134C385.504 430.409 337.876 407.031 335.897 405.469C331.883 399.312 324.275 394.029 315.212 389.122C315.212 389.122 303.066 375.883 292.876 374.149C290.782 373.793 288.74 373.605 286.734 373.569L289.571 372.864C292.554 371.957 293.981 367.635 292.675 363.46L280.978 333.398C280.028 332.692 278.992 331.942 277.808 331.114C276.812 330.418 275.815 329.757 274.825 329.138L289.626 362.285C290.62 365.728 288.46 370.654 286.162 371.344C286.106 371.36 286.006 371.382 285.939 371.396C285.939 371.4 285.905 371.406 285.905 371.408C285.861 371.41 285.763 371.409 285.718 371.409C285.663 371.411 285.586 371.415 285.532 371.411C285.357 371.399 285.162 371.351 284.992 371.282C284.981 371.278 284.949 371.258 284.939 371.253C284.545 371.064 284.118 370.726 283.771 370.184L274.447 359.653C268.814 354.699 264.494 350.451 258.296 349.895C264.017 354.684 269.036 360.11 268.415 366.937C254.895 356.754 241.416 340.187 231.576 327.415C239.207 341.029 253.488 357.894 271.24 376.49C268.148 377.724 265.107 379.314 262.075 381.264C273.067 377.067 283.24 375.378 294.296 377.785C300.355 380.2 303.451 382.93 306.523 385.668C300.237 386.093 293.528 385.46 288.469 388.788C295.049 386.651 302.592 387.936 310.397 390.186C317.607 393.433 323.453 397.531 328.369 402.21C319.389 401.571 313.873 404.675 309.368 408.894C317.047 406.417 324.727 403.931 332.393 407.744C348.293 414.109 367.495 426.459 379.158 432.654C376.414 437.138 374.553 442.179 373.332 447.821C375.75 442.654 378.416 438.032 381.673 433.916C385.273 435.705 387.864 436.661 389.053 436.293C400.618 432.706 432.192 432.895 449.536 435.971C447.163 438.246 446.501 441.02 449.334 449.348C447.626 441.747 451.042 439.634 453.561 435.718C460.535 434.88 468.668 433.31 474.393 431.472C491.244 426.063 508.365 422.945 520.391 431.37C529.098 437.47 535.157 444.523 532.718 452.246C527.512 449.708 520.332 449.551 511.978 450.641C517.557 450.621 529.119 452.219 531.163 453.946C531.173 453.958 531.225 454.006 531.235 454.018C531.245 454.034 531.286 454.073 531.296 454.088C531.307 454.104 531.348 454.141 531.368 454.16C531.367 454.17 531.365 454.193 531.377 454.202C531.376 454.205 531.385 454.238 531.384 454.242C531.394 454.255 531.435 454.3 531.456 454.315C531.456 454.322 531.465 454.347 531.464 454.354C531.453 454.364 531.44 454.398 531.428 454.406C531.428 454.41 531.436 454.443 531.448 454.447C531.446 454.451 531.456 454.485 531.456 454.489C531.454 454.505 531.439 454.565 531.438 454.582C530.71 456.549 524.744 454.055 509.046 458.513C493.348 462.969 487.592 467.662 470.229 471.911C451.346 476.537 452.669 476.773 437.313 477.361C426.14 477.789 420.406 478.324 406.286 482.34C387.452 487.701 382.496 491.774 354.721 477.643C345.077 472.735 327.456 470.178 314.35 465.172C306.207 462.065 296.171 458.405 282.855 454.704C249.973 445.565 247.177 446.794 237.723 437.364C229.533 429.191 221.498 421.943 212.135 402.201C239.835 470.311 264.756 445.652 310.23 467.771C338.939 481.732 349.247 476.295 366.828 488.581C384.02 500.606 411.389 478.69 439.941 480.04C470.188 481.47 503.865 459.778 519.756 458.269C533.326 456.979 535.913 458.17 536.029 445.42C536.035 444.214 535.867 442.988 535.477 441.785C535.451 441.684 535.426 441.56 535.389 441.457L535.389 441.456ZM279.881 373.603C279.937 373.741 279.948 373.911 280.004 374.053C278.894 374.232 277.783 374.427 276.688 374.701C276.176 370.636 274.747 366.343 270.65 361.558C274.324 364.177 277.554 367.835 279.881 373.603ZM253.61 330.15C253.016 328.418 252.076 326.748 251.403 325.039C250.163 322.951 248.694 320.986 246.974 319.17C246.963 319.173 246.929 319.18 246.929 319.181C244.229 318.7 241.523 318.3 238.793 317.911C245.225 322.579 250.72 328.277 253.179 337.401C254.428 334.887 254.355 332.734 253.75 330.681C253.697 330.5 253.664 330.329 253.61 330.15Z" fill="black"/>
<path opacity="0.70098" d="M525.216 435.171C523.735 433.871 522.076 432.613 520.315 431.385C508.3 422.961 491.169 426.056 474.319 431.466C468.594 433.303 460.471 434.884 453.496 435.722C450.99 439.607 447.596 441.723 449.214 449.179C446.45 440.983 447.122 438.23 449.483 435.972C432.139 432.895 400.531 432.717 388.966 436.305C387.777 436.674 385.21 435.687 381.61 433.898C378.353 438.014 375.674 442.658 373.267 447.827C374.488 442.184 376.35 437.116 379.095 432.633C367.431 426.437 348.218 414.114 332.306 407.746C324.64 403.936 316.96 406.425 309.281 408.902C313.786 404.682 319.301 401.587 328.282 402.225C323.366 397.546 317.545 393.41 310.334 390.164C302.658 387.949 295.237 386.659 288.732 388.659C293.743 385.54 300.284 386.066 306.449 385.648C303.388 382.912 300.29 380.198 294.23 377.783C283.251 375.395 273.16 377.012 262.261 381.137C265.222 379.258 268.161 377.707 271.175 376.505C253.412 357.908 239.154 341.02 231.523 327.406C241.353 340.176 254.807 356.759 268.317 366.941C268.949 360.114 263.962 354.698 258.242 349.907C264.439 350.464 268.74 354.679 274.373 359.632L283.697 370.173C283.866 370.429 284.058 370.662 284.244 370.832C284.379 370.953 284.557 371.079 284.694 371.161C284.715 371.173 284.778 371.217 284.799 371.233C284.799 371.237 284.84 371.266 284.851 371.27C284.851 371.269 284.885 371.265 284.895 371.264C284.895 371.263 284.928 371.259 284.94 371.259C285.036 371.3 285.153 371.354 285.272 371.387C285.293 371.392 285.346 371.415 285.357 371.417C285.368 371.42 285.401 371.412 285.401 371.412C285.412 371.412 285.446 371.408 285.446 371.407C285.489 371.412 285.587 371.424 285.631 371.426C285.675 371.423 285.775 371.409 285.808 371.404C285.819 371.404 285.853 371.4 285.853 371.399C285.863 371.397 285.886 371.395 285.896 371.394C285.931 371.381 285.988 371.347 286.021 371.335C286.033 371.333 286.065 371.332 286.066 371.329C288.375 370.64 290.533 365.736 289.54 362.293L274.729 329.133C265.609 323.468 256.32 320.904 246.895 319.22C248.605 321.027 250.075 322.955 251.317 325.033C251.98 326.741 252.94 328.411 253.536 330.143C253.589 330.322 253.643 330.498 253.696 330.678C254.291 332.73 254.342 334.874 253.083 337.386C250.632 328.286 245.159 322.599 238.748 317.938C238.738 317.925 238.717 317.914 238.707 317.902C229.466 316.581 220.076 315.493 210.625 312.595C205.13 310.911 200.845 308.545 197.47 306.043C195.555 366.524 271.882 433.319 368.714 455.625C434.58 470.8 493.152 461.515 525.216 435.171Z" fill="url(#paint5_radial)"/>
<path opacity="0.45588" d="M395.913 331.273C394.406 326.509 390.675 321.346 383.066 315.915C357.861 297.937 341.141 294.067 298.644 275.766C256.146 257.474 277.554 236.343 215.662 240.399C224.485 231.648 251.49 232.502 255.791 234.13C255.564 223.985 228.152 223.46 216.479 228.15C225.339 223.182 236.495 220.432 247.522 222.467C241.93 218.353 217.031 214.003 196.16 210.48C193.349 210.015 188.207 209.71 181.116 211.274C194.884 245.603 229.025 279.62 275.931 302.973C278.113 297.235 281.777 291.824 284.614 288.876C281.835 292.11 278.974 297.98 277.385 303.694C278.724 304.346 280.064 304.976 281.436 305.619C284.51 296.817 291.478 288.531 296.409 284.988C291.327 288.98 286.148 298.219 284.182 306.894C288.759 308.99 293.443 310.977 298.243 312.857C311.073 317.894 323.954 321.864 336.663 324.815C339.473 319.052 344.041 314.079 349.86 311.513C344.53 314.142 340.532 319.303 338.197 325.178C343.072 326.28 347.903 327.245 352.723 328.048C355.417 321.731 357.259 315.056 357.093 309.615C357.247 309.604 357.423 309.604 357.578 309.594C357.695 309.957 357.801 310.339 357.875 310.71C358.883 315.538 357.39 322.096 354.874 328.374C364.508 329.895 374.008 330.819 383.229 331.166C385.164 324.231 384.872 318.236 380.027 316.04C374.171 313.392 367.334 309.802 359.955 309.509C368.098 309.549 375.594 312.962 381.982 315.542C383.938 316.327 385.185 317.682 385.857 319.407C386.072 319.957 386.23 320.53 386.33 321.149C386.797 323.959 386.204 327.47 384.902 331.253C388.617 331.365 392.296 331.35 395.913 331.273Z" fill="url(#paint6_radial)"/>
<path opacity="0.70098" d="M359.355 309.511C359.23 309.503 359.113 309.507 358.986 309.508C359.113 309.507 359.228 309.514 359.355 309.511Z" fill="#1DFFFF" fill-opacity="0.59375"/>
<path opacity="0.70098" d="M350.105 311.404C350.046 311.433 349.988 311.44 349.928 311.468C349.999 311.44 350.035 311.432 350.105 311.404Z" fill="#1DFFFF" fill-opacity="0.59375"/>
<path opacity="0.70098" d="M296.969 284.568C296.932 284.598 296.909 284.596 296.873 284.626C296.908 284.607 296.932 284.587 296.969 284.568Z" fill="#1DFFFF" fill-opacity="0.59375"/>
<path opacity="0.45588" d="M559.979 496.941C558.765 495.418 557.409 493.901 555.964 492.402C544.955 480.969 526.612 481.261 508.091 484.121C501.8 485.093 493.022 485.345 485.613 484.993C482.287 488.829 478.313 490.431 478.73 499.079C477.292 489.472 478.49 486.56 481.365 484.504C468.116 483.499 454.364 481.337 442.865 480.13C442.854 480.13 442.82 480.136 442.82 480.136C442.787 480.131 442.756 480.109 442.723 480.105C442.713 480.103 442.69 480.11 442.679 480.11C441.724 480.109 440.782 480.086 439.84 480.041C424.618 479.322 409.743 485.219 396.548 489.06C418.561 500.088 448.644 507.313 481.925 508.215C511.349 509.012 538.486 504.726 559.979 496.941Z" fill="url(#paint7_radial)"/>
<path opacity="0.45588" d="M536.43 532.864C536.402 532.797 536.352 532.732 536.312 532.665C536.274 532.586 536.236 532.503 536.186 532.424C536.137 532.326 536.077 532.245 536.018 532.146C536.009 532.135 536.021 532.115 536.011 532.104C535.991 532.067 535.972 532.023 535.953 531.985C535.912 531.93 535.871 531.881 535.832 531.826C535.803 531.777 535.796 531.714 535.766 531.664C535.756 531.648 535.724 531.644 535.714 531.628C535.694 531.596 535.684 531.58 535.664 531.55C535.654 531.538 535.666 531.519 535.656 531.508C535.626 531.468 535.617 531.425 535.588 531.386C535.489 531.226 535.4 531.073 535.301 530.911C535.232 530.808 535.141 530.7 535.071 530.596C535.011 530.505 534.963 530.411 534.903 530.32C534.873 530.285 534.865 530.234 534.834 530.199C534.825 530.184 534.803 530.179 534.793 530.163C534.772 530.136 534.753 530.11 534.733 530.084C534.562 529.843 534.393 529.583 534.224 529.336C534.184 529.278 534.154 529.239 534.102 529.179C534.073 529.126 534.033 529.077 533.993 529.023C533.983 528.999 533.952 528.967 533.943 528.944C533.923 528.917 533.903 528.893 533.882 528.866C533.853 528.821 533.81 528.796 533.781 528.75C533.76 528.729 533.741 528.694 533.721 528.672C533.68 528.624 533.64 528.563 533.61 528.516C533.57 528.46 533.54 528.414 533.501 528.358C533.48 528.334 533.46 528.305 533.439 528.28C533.42 528.251 533.41 528.23 533.379 528.201C533.35 528.156 533.318 528.132 533.277 528.087C533.257 528.064 533.237 528.03 533.217 528.008C533.188 527.959 533.147 527.901 533.107 527.851C533.077 527.812 533.035 527.775 533.005 527.736C532.914 527.62 532.823 527.501 532.733 527.385C532.692 527.348 532.65 527.309 532.62 527.271C532.529 527.158 532.449 527.033 532.348 526.921C532.317 526.884 532.276 526.844 532.245 526.806C532.071 526.619 531.896 526.456 531.711 526.273C531.68 526.237 531.639 526.194 531.608 526.159C531.291 525.833 530.961 525.525 530.62 525.214C530.578 525.18 530.548 525.134 530.518 525.1C530.362 524.962 530.208 524.822 530.052 524.688C530.011 524.654 529.98 524.606 529.939 524.571C529.908 524.54 529.843 524.539 529.801 524.506C529.759 524.472 529.73 524.423 529.699 524.39C529.777 524.377 529.832 524.376 529.909 524.362C530.454 524.265 530.998 524.171 531.532 524.072C531.476 523.942 531.395 523.825 531.304 523.715C530.659 523.834 530.003 523.956 529.347 524.082C513.663 527.046 493.353 531.681 469.533 531.307C469.51 531.308 469.499 531.313 469.488 531.313C469.466 531.313 469.455 531.319 469.443 531.319C469.421 531.318 469.41 531.325 469.4 531.324C469.136 531.319 468.885 531.298 468.623 531.292C468.611 531.293 468.6 531.299 468.578 531.298C468.566 531.298 468.555 531.305 468.533 531.303C468.523 531.304 468.511 531.31 468.489 531.309C468.237 531.304 467.985 531.285 467.723 531.279C467.711 531.277 467.7 531.284 467.678 531.284C467.668 531.284 467.656 531.29 467.634 531.289C467.47 531.285 467.306 531.272 467.142 531.266C466.868 531.26 466.561 531.256 466.287 531.246C465.673 531.225 465.048 531.21 464.436 531.181C464.283 531.175 464.13 531.16 463.976 531.153C463.823 531.145 463.681 531.133 463.528 531.125C463.189 531.108 462.861 531.095 462.532 531.08C461.208 531.013 459.917 530.946 458.637 530.887C458.626 530.886 458.604 530.892 458.592 530.892C458.286 530.878 457.948 530.855 457.641 530.841C457.006 530.814 456.37 530.807 455.745 530.781C455.44 530.768 455.156 530.738 454.838 530.725C454.214 530.7 453.601 530.683 452.987 530.66C452.374 530.636 451.738 530.616 451.136 530.594C450.535 530.572 449.966 530.538 449.374 530.517C448.191 530.478 446.997 530.441 445.857 530.407C428.942 529.886 416.083 529.908 406.052 529.532C406.042 529.532 406.019 529.539 406.009 529.537C404.661 529.489 403.36 529.409 402.113 529.345C401.959 529.337 401.773 529.331 401.621 529.322C401.303 529.305 401.02 529.284 400.713 529.267C400.56 529.256 400.407 529.247 400.253 529.238C399.805 529.209 399.335 529.185 398.899 529.153C398.745 529.142 398.592 529.136 398.439 529.124C397.86 529.081 397.325 529.045 396.757 528.995C396.485 528.969 396.17 528.918 395.897 528.891C395.482 528.851 395.111 528.828 394.708 528.783C394.446 528.754 394.142 528.705 393.881 528.674C393.62 528.643 393.412 528.628 393.151 528.594C393.139 528.592 393.128 528.602 393.106 528.6C392.856 528.567 392.629 528.516 392.379 528.48C391.999 528.428 391.639 528.377 391.27 528.319C391.031 528.281 390.781 528.24 390.542 528.199C390.294 528.157 390.077 528.115 389.848 528.073C388.439 527.815 387.098 527.514 385.849 527.165C385.386 527.035 384.911 526.914 384.448 526.786C384.426 526.781 384.416 526.756 384.395 526.75C383.965 526.628 383.521 526.522 383.091 526.401C383.025 526.384 382.962 526.358 382.898 526.34C382.466 526.219 382.024 526.112 381.592 525.992C381.431 525.947 381.282 525.882 381.12 525.837C381.055 525.82 381.002 525.795 380.938 525.777C380.776 525.733 380.624 525.707 380.473 525.664C380.398 525.644 380.311 525.629 380.236 525.608C380.096 525.568 379.955 525.53 379.816 525.49C379.654 525.445 379.504 525.38 379.343 525.335C379.279 525.317 379.214 525.291 379.16 525.275C379.064 525.249 378.964 525.248 378.878 525.223C378.749 525.186 378.632 525.136 378.503 525.1C378.405 525.073 378.31 525.034 378.224 525.008C378.105 524.975 378.007 524.953 377.889 524.92C377.782 524.888 377.673 524.865 377.565 524.833C377.458 524.802 377.339 524.777 377.242 524.746C376.908 524.651 376.576 524.539 376.253 524.444C376.156 524.416 376.06 524.379 375.963 524.351C375.845 524.313 375.717 524.264 375.587 524.226C375.512 524.204 375.435 524.194 375.361 524.171C375.22 524.129 375.08 524.096 374.941 524.054C374.865 524.031 374.778 524.019 374.702 523.997C374.542 523.948 374.384 523.851 374.222 523.801C374.179 523.787 374.134 523.79 374.091 523.776C373.931 523.728 373.778 523.71 373.628 523.664C373.542 523.638 373.468 523.591 373.382 523.564C373.35 523.555 373.317 523.544 373.286 523.534C373.243 523.52 373.198 523.523 373.155 523.509C373.09 523.49 373.059 523.459 373.006 523.441C372.963 523.427 372.919 523.432 372.865 523.416C372.801 523.397 372.747 523.375 372.682 523.355C372.608 523.331 372.512 523.28 372.436 523.256C372.415 523.247 372.372 523.235 372.351 523.226C372.308 523.212 372.253 523.214 372.21 523.2C372.113 523.17 372.016 523.138 371.92 523.107C371.759 523.054 371.575 523.013 371.414 522.959C371.393 522.952 371.383 522.929 371.362 522.922C371.297 522.901 371.233 522.881 371.168 522.861C371.125 522.845 371.073 522.809 371.03 522.794C371.02 522.789 370.996 522.804 370.986 522.799C370.793 522.734 370.602 522.637 370.408 522.572C370.398 522.568 370.375 522.581 370.365 522.577C370.268 522.545 370.182 522.517 370.085 522.484C370.074 522.481 370.052 522.494 370.041 522.491C369.837 522.421 369.623 522.34 369.419 522.268C369.323 522.232 369.24 522.17 369.132 522.133C368.907 522.054 368.702 522 368.478 521.918C368.37 521.881 368.294 521.863 368.187 521.825C368.177 521.819 368.156 521.795 368.146 521.79C368.06 521.757 367.941 521.728 367.855 521.696C367.738 521.651 367.609 521.62 367.48 521.573C367.405 521.544 367.32 521.504 367.245 521.475C367.212 521.465 367.181 521.456 367.148 521.445C367.063 521.41 366.991 521.338 366.906 521.304C366.894 521.299 366.872 521.315 366.861 521.31C366.648 521.228 366.412 521.136 366.198 521.051C366.08 521.009 365.974 520.965 365.855 520.922C365.802 520.9 365.726 520.884 365.673 520.86C365.62 520.841 365.578 520.812 365.524 520.793C365.449 520.761 365.375 520.728 365.289 520.695C365.257 520.682 365.224 520.676 365.193 520.663C365.15 520.646 365.105 520.657 365.052 520.639C364.988 520.612 364.925 520.562 364.861 520.536C364.818 520.518 364.763 520.526 364.72 520.51C364.656 520.482 364.593 520.434 364.529 520.407C364.497 520.393 364.464 520.389 364.433 520.375C364.358 520.343 364.273 520.309 364.198 520.277C364.166 520.265 364.134 520.258 364.101 520.246C364.027 520.214 363.941 520.182 363.867 520.148C363.835 520.136 363.802 520.13 363.769 520.118C363.685 520.084 363.609 520.053 363.535 520.02C363.482 519.999 363.439 519.973 363.386 519.951C363.322 519.925 363.259 519.875 363.195 519.848C363.185 519.844 363.162 519.859 363.151 519.854C363.044 519.812 362.96 519.762 362.853 519.718C362.843 519.712 362.822 519.691 362.812 519.683C362.716 519.643 362.617 519.63 362.521 519.59C362.404 519.536 362.31 519.474 362.182 519.419C361.851 519.272 361.52 519.143 361.179 518.99C360.998 518.909 360.838 518.84 360.657 518.757C360.529 518.703 360.434 518.641 360.317 518.586C360.264 518.564 360.221 518.541 360.168 518.519C360.073 518.476 359.977 518.428 359.881 518.385C359.86 518.375 359.85 518.357 359.829 518.347C359.733 518.305 359.637 518.258 359.542 518.212C359.52 518.204 359.511 518.186 359.489 518.177C359.405 518.134 359.306 518.128 359.21 518.085C359.061 518.013 358.925 517.913 358.766 517.841C358.692 517.805 358.605 517.779 358.531 517.743C358.489 517.723 358.468 517.688 358.427 517.669C358.352 517.631 358.265 517.609 358.191 517.572C358.149 517.549 358.095 517.526 358.054 517.505C357.978 517.472 357.915 517.432 357.851 517.399C357.798 517.376 357.756 517.356 357.714 517.333C357.639 517.3 357.576 517.262 357.512 517.229C357.47 517.205 357.416 517.186 357.374 517.162C357.299 517.129 357.247 517.092 357.172 517.057C357.119 517.03 357.043 517.024 356.99 516.997C356.884 516.944 356.801 516.872 356.695 516.82C356.674 516.81 356.664 516.793 356.643 516.783C356.59 516.759 356.547 516.741 356.493 516.716C356.43 516.68 356.377 516.649 356.303 516.613C356.25 516.584 356.174 516.579 356.11 516.551C356.046 516.517 355.983 516.48 355.919 516.447C355.866 516.421 355.823 516.405 355.77 516.379C355.6 516.287 355.42 516.2 355.239 516.105C355.218 516.094 355.208 516.077 355.187 516.068C355.103 516.02 354.995 515.982 354.9 515.934C354.868 515.916 354.837 515.879 354.806 515.861C354.774 515.846 354.73 515.845 354.71 515.829C354.614 515.78 354.554 515.699 354.459 515.648C354.427 515.632 354.394 515.632 354.361 515.617C354.267 515.565 354.162 515.492 354.066 515.44C354.056 515.434 354.033 515.452 354.023 515.445C353.906 515.385 353.799 515.337 353.683 515.275C353.672 515.266 353.652 515.248 353.631 515.238C353.524 515.18 353.452 515.121 353.335 515.062C353.293 515.037 353.239 515.021 353.197 514.995C352.985 514.881 352.774 514.763 352.562 514.648C352.319 514.51 352.076 514.367 351.822 514.226C351.812 514.216 351.791 514.2 351.781 514.19C351.548 514.059 351.326 513.94 351.094 513.806C351.072 513.795 351.063 513.78 351.041 513.769C350.936 513.707 350.809 513.621 350.694 513.556C350.683 513.546 350.663 513.53 350.652 513.52C350.536 513.457 350.417 513.413 350.312 513.349C350.154 513.261 349.974 513.158 349.816 513.069C349.732 513.015 349.66 512.94 349.565 512.886C349.522 512.86 349.469 512.845 349.426 512.819C349.342 512.771 349.257 512.728 349.184 512.68C349.078 512.619 348.983 512.563 348.888 512.503C348.846 512.481 348.815 512.45 348.784 512.429C348.731 512.399 348.687 512.392 348.645 512.363C348.561 512.312 348.476 512.272 348.392 512.222C348.286 512.153 348.16 512.078 348.054 512.01C348.033 511.998 348.013 511.983 348.002 511.973C347.939 511.936 347.865 511.905 347.801 511.869C347.738 511.826 347.676 511.765 347.602 511.724C347.539 511.682 347.477 511.62 347.403 511.578C347.34 511.539 347.276 511.512 347.213 511.474C347.128 511.425 347.044 511.382 346.97 511.333C346.907 511.3 346.866 511.258 346.813 511.223C346.728 511.172 346.654 511.136 346.57 511.084C346.517 511.051 346.476 511.009 346.424 510.974C346.328 510.92 346.22 510.896 346.126 510.839C346.084 510.808 346.033 510.762 345.98 510.731C345.748 510.586 345.518 510.41 345.286 510.262C345.255 510.244 345.222 510.25 345.19 510.232C345.075 510.157 344.958 510.092 344.843 510.018C344.811 509.998 344.78 509.966 344.749 509.946C344.632 509.876 344.55 509.797 344.445 509.727C344.414 509.708 344.38 509.715 344.349 509.696C344.086 509.526 343.825 509.33 343.552 509.155C343.54 509.148 343.517 509.168 343.507 509.16C343.36 509.066 343.212 508.972 343.066 508.875C368.146 527.227 406.656 540.282 450.513 542.902C482.342 544.811 512.107 540.947 536.43 532.864Z" fill="url(#paint8_radial)"/>
<path opacity="0.45588" d="M292.11 457.488C289.174 456.584 286.066 455.648 282.759 454.728C249.877 445.588 247.092 446.81 237.649 437.38C229.756 429.519 221.967 422.541 213.061 404.457C215.552 410.41 217.97 415.653 220.446 420.226C220.435 420.227 220.413 420.23 220.413 420.23C217.099 415.712 212.606 410.134 206.117 402.933C177.156 370.816 178.168 349.835 129.63 329.641C97.3392 316.207 70.3797 306.263 46.8208 298.497C40.4243 282.846 34.7669 266.771 29.9279 250.372L30.8228 249.04C77.8267 255.386 130.741 276.792 179.422 312.162C238.187 354.86 277.972 408.582 292.111 457.485L292.11 457.488Z" fill="url(#paint9_radial)"/>
<defs>
<radialGradient id="paint0_radial" cx="0" cy="0" r="1" gradientUnits="userSpaceOnUse" gradientTransform="translate(776.461 379.482) rotate(66.3577) scale(53.7709 138.589)">
<stop stop-color="#1F1F1F"/>
<stop offset="1" stop-opacity="0"/>
</radialGradient>
<radialGradient id="paint1_radial" cx="0" cy="0" r="1" gradientUnits="userSpaceOnUse" gradientTransform="translate(840.662 260.231) rotate(64.6518) scale(40.8358 96.8063)">
<stop stop-color="#1F1F1F"/>
<stop offset="1" stop-opacity="0"/>
</radialGradient>
<radialGradient id="paint2_radial" cx="0" cy="0" r="1" gradientUnits="userSpaceOnUse" gradientTransform="translate(668.882 469.042) rotate(93.7558) scale(27.5287 77.8467)">
<stop stop-color="#1F1F1F"/>
<stop offset="1" stop-opacity="0"/>
</radialGradient>
<radialGradient id="paint3_radial" cx="0" cy="0" r="1" gradientUnits="userSpaceOnUse" gradientTransform="translate(700.111 517.346) rotate(89.8126) scale(15.1105 98.2173)">
<stop stop-color="#1F1F1F"/>
<stop offset="1" stop-opacity="0"/>
</radialGradient>
<radialGradient id="paint4_radial" cx="0" cy="0" r="1" gradientUnits="userSpaceOnUse" gradientTransform="translate(1007.45 375.997) rotate(141.854) scale(168.705 71.136)">
<stop stop-color="#1F1F1F"/>
<stop offset="1" stop-opacity="0"/>
</radialGradient>
<radialGradient id="paint5_radial" cx="0" cy="0" r="1" gradientUnits="userSpaceOnUse" gradientTransform="translate(362.072 379.291) rotate(116.995) scale(55.4213 148.909)">
<stop stop-color="#1F1F1F"/>
<stop offset="1" stop-opacity="0"/>
</radialGradient>
<radialGradient id="paint6_radial" cx="0" cy="0" r="1" gradientUnits="userSpaceOnUse" gradientTransform="translate(296.638 255.325) rotate(118.771) scale(42.1512 103.862)">
<stop stop-color="#1F1F1F"/>
<stop offset="1" stop-opacity="0"/>
</radialGradient>
<radialGradient id="paint7_radial" cx="0" cy="0" r="1" gradientUnits="userSpaceOnUse" gradientTransform="translate(475.643 474.642) rotate(88.001) scale(28.0805 84.5167)">
<stop stop-color="#1F1F1F"/>
<stop offset="1" stop-opacity="0"/>
</radialGradient>
<radialGradient id="paint8_radial" cx="0" cy="0" r="1" gradientUnits="userSpaceOnUse" gradientTransform="translate(440.033 522.685) rotate(92.1996) scale(15.409 106.663)">
<stop stop-color="#1F1F1F"/>
<stop offset="1" stop-opacity="0"/>
</radialGradient>
<radialGradient id="paint9_radial" cx="0" cy="0" r="1" gradientUnits="userSpaceOnUse" gradientTransform="translate(111.491 366.984) rotate(38.4085) scale(179.032 74.2352)">
<stop stop-color="#1F1F1F"/>
<stop offset="1" stop-opacity="0"/>
</radialGradient>
</defs>
</svg>
