<svg width="1175" height="575" viewBox="0 0 1175 575" fill="none" xmlns="http://www.w3.org/2000/svg">
<path d="M582.887 515.768C441.715 511.787 330.508 394.313 334.495 253.379C338.483 112.449 456.155 1.42628 597.329 5.40752C738.499 9.38866 849.709 126.863 845.721 267.796C841.733 408.73 724.058 519.749 582.887 515.768Z" fill="#0FB55E" stroke="#0FB55E" stroke-width="10.5956"/>
<path d="M582.887 515.768C441.715 511.787 330.508 394.313 334.495 253.379C338.483 112.449 456.155 1.42628 597.329 5.40752C738.499 9.38866 849.709 126.863 845.721 267.796C841.733 408.73 724.058 519.749 582.887 515.768Z" fill="#7CB7ED"/>
<path d="M342.711 331.335C342.711 331.335 319.363 250.299 349.442 169.624C349.442 169.624 355.028 216.654 366.923 238.953C378.82 261.251 342.711 331.335 342.711 331.335Z" fill="white"/>
<path d="M442.074 401.858C442.074 401.858 486.238 401.584 506.797 401.403C527.358 401.222 540.837 409.202 560.133 399.866C579.43 390.531 594.43 398.552 595.448 389.462C596.465 380.371 602.608 351.664 596.974 335.545C591.339 319.424 618.953 285.241 636.47 284.976C653.987 284.711 667.069 279.76 667.069 279.76C667.069 279.76 698.393 300.404 697.135 305.688C695.877 310.973 717.155 312.334 718.569 316.174C719.984 320.014 729.495 360.562 729.172 371.954C728.85 383.344 716.914 374.647 716.914 374.647L702.998 409.216L716.52 415.678L706.532 445.797C706.532 445.797 724.81 445.553 727.286 438.782C729.761 432.01 744.271 403.539 744.271 403.539C744.271 403.539 732.688 409.294 729.731 406.17C726.774 403.045 744.55 393.667 744.55 393.667L753.54 371.882C753.54 371.882 751.687 356.628 748.882 348.188C746.076 339.749 731.73 335.545 731.73 335.545C731.73 335.545 724.552 320.143 727.114 310.334C729.675 300.525 748.607 304.099 748.607 304.099C748.607 304.099 749.612 322.368 754.894 324.036C760.176 325.705 770.474 311.557 770.474 311.557L775.476 323.097L793.767 334.253L791.437 350.908L811.066 356.782L830.645 355.999C830.645 355.999 775.132 465.717 687.478 498.333L699.457 480.557L682.507 487.68L684.703 490.781L667.711 499.422L654.018 499.036L633.109 493.887C633.109 493.887 682.833 466.324 695.668 453.089C695.668 453.089 649.468 471.56 625.219 494.425L632.873 502.24L596.098 501.203L580.315 493.918L555.449 484.857L535.714 482.779L512.132 482.114L501.045 470.401L492.999 458.775L483.109 458.496L468.198 446.675L451.915 430.255L441.715 414.008L442.059 401.858H442.074Z" fill="#0FB55E"/>
<path d="M361.693 179.811L381.901 165.182L392.487 167.761L392.208 177.632L403.174 175.835L417.289 179.1L427.873 181.678L436.579 190.521C436.579 190.521 443.815 210.25 471.265 208.744C471.265 208.744 493.614 226.092 505.891 222.639C518.169 219.185 518.056 196.283 518.056 196.283L535.102 158.862C535.102 158.862 551.164 156.276 552.986 145.687C554.807 135.097 547.287 131.845 553.502 127.459C559.716 123.074 569.028 117.022 570.126 105.011C571.225 92.9998 581.543 78.0898 581.543 78.0898C581.543 78.0898 589.974 76.0471 587.297 63.0527C587.297 63.0527 595.902 54.9342 612.531 59.2034C612.531 59.2034 621.68 58.7023 618.199 47.2017C618.199 47.2017 628.347 38.3693 628.433 35.3305C628.519 32.2934 657.554 28.5513 670.099 42.588C670.099 42.588 684.947 55.9255 675.41 70.0985C675.41 70.0985 660.979 68.9292 654.068 71.0148C647.158 73.1004 663.765 78.128 663.765 78.128L685.042 79.4888C685.042 79.4888 689.328 89.4906 696.697 98.0593C704.068 106.625 714.044 103.867 721.327 115.473C728.612 127.078 720.941 129.142 720.941 129.142L733.851 130.265L733.55 140.898L744.231 167.04C744.231 167.04 743.813 154.867 750.79 150.505L767.361 183.651L777.249 183.93L797.852 182.27L788.94 174.38L798.111 173.121L800.375 158.743L800.525 153.429L795.21 141.117L787.624 140.143L781.926 126.302L788.966 119.659L795.661 125.17L801.17 130.644L819.965 145.339C819.965 145.339 769.88 49.981 677.338 20.0005C677.338 20.0005 647.965 17.6425 637.337 16.5837C626.709 15.5233 616.563 24.3558 616.563 24.3558L616.327 32.7103L608.633 35.5329L606.157 42.3029L603.767 46.0373L597.772 48.1471L586.881 50.8795L585.165 57.6726L578.213 61.2751L577.323 65.811L583.451 64.464L583.279 70.5399L577.891 72.6668L572.76 65.6823L567.498 63.2534L555.35 62.1518L546.199 62.6527L537.81 63.1769L534.2 56.2353L525.79 57.5162L520.443 58.1278L512.075 57.8918L510.661 54.0501L472.614 80.3379L469.334 88.6066L468.424 93.8993L465.143 102.168L452.019 108.639C452.019 108.639 402.708 129.288 395.778 132.133C388.851 134.978 359.802 166.08 361.698 179.811" fill="#0FB55E"/>
<path d="M847.374 267.842C844.986 352.225 807.439 397.839 807.439 397.839C807.439 397.839 794.84 366.099 809.702 317.878C809.702 317.878 808.948 280.335 798.567 253.637C788.186 226.941 817.791 213.767 817.791 213.767C817.791 213.767 802.542 190.217 822.746 150.985C822.746 150.985 849.172 204.287 847.374 267.842Z" fill="white"/>
<path fill-rule="evenodd" clip-rule="evenodd" d="M815.629 446.547C817.306 444.617 819.033 442.627 820.715 440.511C830.711 427.978 832.804 413.187 843.262 399.48C848.846 392.148 852.224 390.398 855.718 387.621C855.728 387.616 855.759 387.589 855.77 387.585C863.057 385.479 870.626 382.549 879.64 379.066C897.772 372.06 895.871 370.926 904.966 364.024L895.971 386.041C894.588 390.185 895.651 394.596 898.228 395.643L900.661 396.495C898.889 396.441 897.09 396.531 895.233 396.794C886.16 398.079 874.751 410.87 874.751 410.87C866.502 415.399 859.508 420.385 855.63 426.401C853.995 427.65 828.404 440.369 815.629 446.547ZM823.99 439.538C832.65 434.919 849.972 425.456 851.338 424.403C853.756 420.475 857.813 417.11 862.675 414.014C862.685 414.011 862.726 413.98 862.726 413.978C862.737 413.972 862.725 413.942 862.736 413.936C862.736 413.933 862.778 413.945 862.778 413.943C879.142 398 888.995 383.949 862.293 392.409C862.282 392.407 862.25 392.403 862.25 392.402C862.051 392.483 861.874 392.575 861.675 392.655C861.675 392.655 861.643 392.647 861.633 392.648C861.633 392.648 861.601 392.64 861.601 392.641C861.59 392.641 861.591 392.681 861.591 392.682C861.466 392.735 861.34 392.786 861.215 392.837C857.962 394.191 854.905 395.363 851.968 396.331C849.565 398.389 847.286 399.715 843.399 405.095C836.121 415.151 834.439 425.91 827.495 435.111C826.325 436.664 825.153 438.119 823.99 439.538Z" fill="#4D4848" fill-opacity="0.94"/>
<path fill-rule="evenodd" clip-rule="evenodd" d="M824.008 439.528C825.182 438.108 826.332 436.642 827.502 435.089C834.447 425.888 836.107 415.153 843.385 405.095C847.273 399.716 849.583 398.405 851.987 396.347C854.934 395.377 857.98 394.178 861.233 392.825C861.358 392.773 861.473 392.715 861.599 392.664C861.62 392.655 861.662 392.656 861.693 392.647C861.882 392.567 862.06 392.493 862.258 392.412C862.269 392.408 862.28 392.428 862.29 392.424C889.003 383.964 879.128 397.982 862.775 413.925C862.744 413.941 862.734 413.98 862.703 413.996C857.842 417.092 853.774 420.466 851.356 424.395C850.23 425.322 832.741 434.873 824.008 439.529V439.528Z" fill="url(#paint0_linear)"/>
<path fill-rule="evenodd" clip-rule="evenodd" d="M797.165 351.236C796.148 357.543 797.245 364.696 802.652 372.729C800.74 364.948 791.357 350.875 812.912 335.882C837.878 318.516 854.188 315.179 895.876 298.108C937.553 281.027 917.547 258.849 977.224 265.164C968.993 255.964 942.875 255.83 938.673 257.33C939.241 246.885 966.434 247.494 977.277 252.871C968.802 247.334 957.89 244.131 946.967 245.877C952.264 241.852 976.676 238.352 997.134 235.487C1001.89 234.828 1013.43 234.895 1029.6 244.818C1031.67 242.983 1020.83 232.403 1005.45 230.095C1021.83 210.829 1097.38 214.881 1126.64 216.123C1144.41 216.872 1171.75 221.735 1171.75 221.735C1172.56 217.588 1174.65 205.42 1174.95 203.525C1174.95 203.525 1162.89 191.553 1114.64 194.857C1081.35 197.144 1018.27 215.033 993.244 228.151C968.797 229.564 941.071 234.493 923.47 262.136C911.441 281.051 918.92 284.618 884.355 298.4C857.481 309.13 803.619 322.646 797.534 349.497C797.404 350.074 797.263 350.643 797.165 351.236Z" fill="#4D4848" fill-opacity="0.94"/>
<path fill-rule="evenodd" clip-rule="evenodd" d="M1002.07 322.939C991.772 330.609 971.719 337.85 953.774 341.09C928.031 345.735 929.949 341.408 904.031 359.491C883.929 373.521 860.73 380.838 836.086 385.344C811.43 389.85 812.316 379.075 805.91 375.945C808.2 382.608 815.074 388.79 825.882 388.738C845.898 388.641 860.427 382.963 882.635 374.152C904.832 365.34 899.526 365.098 914.212 355.062C935.537 340.489 957.163 345.016 979.672 338.658C992.433 335.051 998.841 327.29 1002.07 322.939Z" fill="#4D4848" fill-opacity="0.94"/>
<path fill-rule="evenodd" clip-rule="evenodd" d="M895.32 305.956C902.022 309.081 917.829 330.502 911.113 344.563C906.433 354.33 901.413 353.784 907.188 345.096C913.831 335.09 903.89 310.155 895.32 305.956Z" fill="#4D4848" fill-opacity="0.94"/>
<path fill-rule="evenodd" clip-rule="evenodd" d="M906.793 309.808C910.904 312.454 921.172 329.357 917.762 339.739C915.385 346.955 912.377 346.335 915.449 339.982C918.989 332.668 912.056 313.339 906.793 309.808Z" fill="#4D4848" fill-opacity="0.94"/>
<path fill-rule="evenodd" clip-rule="evenodd" d="M837.775 330.387C837.924 330.403 838.095 330.429 838.254 330.446C837.429 343.451 847.249 363.904 853.397 369.61C853.203 369.829 852.997 370.029 852.803 370.242C852.792 370.241 852.76 370.23 852.76 370.229C852.322 370.133 851.894 369.998 851.548 369.775C845.674 366.043 833.976 341.858 837.775 330.387Z" fill="#4D4848" fill-opacity="0.94"/>
<path fill-rule="evenodd" clip-rule="evenodd" d="M810.111 339.361C810.829 337.622 812.08 336.311 813.996 335.582C820.833 332.97 828.942 329.353 837.643 330.348C829.692 329.605 822.183 333.404 815.847 336.138C805.111 340.776 816.087 365.909 824.438 377.203C816.637 367.542 806.542 348.095 810.111 339.361ZM843.422 331.775C854.176 336 860.426 349.199 860.167 360.358C859.95 369.512 849.15 375.814 842.781 379.47C839.597 381.3 834.103 383.833 830.645 382.752C833.821 383.292 838.543 380.815 841.347 379.036C847.299 375.257 857.403 368.747 857.813 359.653C858.311 348.685 853.038 335.867 843.422 331.775Z" fill="#4D4848" fill-opacity="0.94"/>
<path fill-rule="evenodd" clip-rule="evenodd" d="M625.872 523.591C625.74 524.762 625.765 525.903 625.907 527.035C627.772 541.305 630.286 539.715 644.192 539.085C660.5 538.347 689.559 552.294 727.892 551.63C769.222 550.914 790.146 553.677 803.129 550.36C820.789 545.851 831.751 543.64 858.904 523.742C901.912 492.217 931.966 508.084 959.202 464.892C977.259 436.254 990.546 428.859 1008.93 403.722C1015.82 394.313 1029.15 378.049 1057.52 363.767C1080.66 352.115 1108.62 345.58 1134.12 340.072C1135.61 336.778 1137.04 333.47 1138.46 330.138C1115.43 337.187 1089.04 346.332 1057.38 358.832C1009.79 377.621 1010.05 398.967 980.988 430.558C974.474 437.643 969.954 443.117 966.599 447.588C966.569 447.638 966.538 447.687 966.508 447.736C963.4 453.292 960.292 457.869 957.224 461.675C957.194 461.729 957.164 461.802 957.134 461.856C957.114 461.883 957.073 461.913 957.052 461.94C953.521 467.512 949.979 472.104 939.198 480.641C914.461 500.229 913.686 491.548 881.654 506.662C849.653 521.764 845.183 534.455 814.641 543.481C783.963 552.548 783.955 547.303 763.117 548.231C742.269 549.157 746.253 549.158 730.201 548.259C714.148 547.359 716.982 548.835 698.287 545.839C679.603 542.843 671.535 540.422 655.033 537.755C640.396 535.391 634.238 538.032 632.336 537.198C632.271 537.168 632.185 537.105 632.13 537.065C632.119 537.055 632.087 537.032 632.065 537.023C632.022 536.984 631.967 536.914 631.933 536.868C631.922 536.861 631.911 536.838 631.911 536.83C631.9 536.823 631.889 536.8 631.878 536.793C631.866 536.763 631.844 536.72 631.832 536.687C631.832 536.68 631.81 536.658 631.81 536.649C631.809 536.637 631.819 536.597 631.818 536.585C631.807 536.56 631.805 536.511 631.805 536.485C631.793 536.469 631.782 536.437 631.781 536.416L631.78 536.384C631.791 536.381 631.79 536.354 631.79 536.352C631.8 536.331 631.799 536.302 631.798 536.289C631.809 536.279 631.807 536.241 631.817 536.225L631.816 536.193C631.826 536.172 631.878 536.137 631.899 536.108C631.898 536.105 631.898 536.081 631.908 536.077C631.918 536.048 631.969 536 631.989 535.96C631.989 535.955 631.988 535.934 631.999 535.928C631.999 535.924 632.03 535.908 632.03 535.903C632.06 535.867 632.091 535.816 632.121 535.785C634.203 533.585 645.044 530.252 650.697 529.388C642.231 529.433 635.052 530.645 630.185 534.214C626.667 525.924 631.834 517.133 639.82 509.006C650.834 497.785 668.574 498.766 686.376 502.329C692.413 503.54 700.887 504.086 708.059 503.992C711.177 508.037 714.965 509.835 714.19 518.785C715.963 508.911 714.88 505.846 712.149 503.64C725.188 503.079 738.814 501.337 750.076 500.536C743.244 500.332 736.289 498.924 729.483 496.866C728.247 497.302 727.011 497.755 725.711 498.221C718.849 500.697 703.422 500.807 693.727 499.553C678.413 497.575 671.227 492.89 653.241 497.836C640.592 501.315 629.56 510.967 626.577 520.437C626.239 521.487 625.998 522.559 625.872 523.592V523.591Z" fill="#4D4848" fill-opacity="0.94"/>
<path fill-rule="evenodd" clip-rule="evenodd" d="M654.02 553.372C655.474 549.468 658.538 545.463 662.413 542.041C663.001 542.177 663.586 542.295 664.184 542.437C662.914 543.472 661.763 544.59 660.785 545.824C653.338 555.214 654.253 560.698 657.921 567.353C661.732 563.915 667.7 562.274 674.882 561.515C670.078 562.738 660.614 566.716 659.544 568.7C659.533 568.711 659.525 568.764 659.525 568.785C659.515 568.796 659.506 568.849 659.496 568.86C659.496 568.871 659.485 568.892 659.486 568.903C659.486 568.913 659.477 568.935 659.477 568.946C659.467 568.956 659.447 569.01 659.447 569.031C659.448 569.052 659.461 569.105 659.462 569.126C659.473 569.147 659.475 569.2 659.476 569.221C659.486 569.231 659.498 569.263 659.509 569.273C659.532 569.315 659.586 569.355 659.608 569.386C660.816 570.704 665.447 567.378 679.091 568.174C693.17 568.998 700.166 570.365 716.113 571.278C732.061 572.201 729.58 571.189 743.137 570.578C756.693 569.956 753.378 570.687 770.739 567.751C807.654 561.512 814.155 565.343 824.572 559.66C831.353 555.969 839.408 543.974 848.202 531.276C851.378 529.169 854.777 526.758 858.516 524.029C855.268 528.193 852.366 532.289 849.887 536.281C845.109 543.993 834.46 557.312 829.618 560.687C819.292 567.871 803.072 566.045 741.462 573.577C709.349 577.511 683.78 568.989 670.063 570.23C656.083 571.501 658.038 572.997 653.735 561.69C652.764 559.156 652.937 556.299 654.02 553.372Z" fill="#4D4848" fill-opacity="0.94"/>
<path fill-rule="evenodd" clip-rule="evenodd" d="M661.543 458.008C664.765 449.368 677.3 441.649 690.523 440.577C708.018 439.158 714.081 444.513 728.08 448.79C736.962 451.501 742.557 452.467 749.307 451.786C766.062 450.097 802.41 452.661 804.522 452.748C804.532 452.749 804.564 452.759 804.565 452.76C806.769 452.104 853.587 430.049 855.552 428.532C859.639 422.421 867.17 417.325 876.094 412.663C876.094 412.663 888.279 399.647 898.186 398.248C900.222 397.96 902.201 397.842 904.141 397.877L901.423 397.06C898.571 396.033 897.338 391.593 898.741 387.399L911.06 357.281C912.002 356.597 913.028 355.872 914.2 355.073C915.186 354.402 916.172 353.766 917.15 353.172L901.727 386.313C900.65 389.775 902.572 394.855 904.769 395.637C904.823 395.655 904.919 395.681 904.983 395.698C904.983 395.702 905.015 395.709 905.015 395.711C905.058 395.715 905.153 395.717 905.196 395.719C905.249 395.723 905.323 395.729 905.376 395.727C905.545 395.721 905.735 395.68 905.902 395.616C905.913 395.612 905.944 395.593 905.954 395.588C906.341 395.41 906.765 395.082 907.119 394.544L916.485 384.178C922.096 379.347 926.415 375.185 932.423 374.84C926.733 379.502 921.699 384.834 922.069 391.79C935.479 381.927 949.064 365.579 959.005 352.956C951.171 366.513 936.8 383.135 919.016 401.393C921.963 402.756 924.848 404.479 927.713 406.567C917.231 401.914 907.457 399.838 896.691 401.89C890.754 404.128 887.67 406.791 884.608 409.463C890.669 410.118 897.174 409.713 901.951 413.272C895.664 410.869 888.331 411.906 880.712 413.914C873.634 416.957 867.846 420.911 862.937 425.489C871.638 425.159 876.864 428.507 881.075 432.952C873.737 430.164 866.399 427.367 858.862 430.967C843.281 436.868 824.307 448.73 812.826 454.609C815.327 459.26 816.955 464.446 817.945 470.22C815.782 464.886 813.362 460.097 810.353 455.801C806.814 457.491 804.277 458.37 803.141 457.954C792.085 453.9 761.565 452.973 744.699 455.482C746.916 457.876 747.462 460.717 744.443 469.075C746.35 461.416 743.12 459.149 740.818 455.082C734.106 453.983 726.299 452.1 720.828 450.031C704.726 443.939 688.285 440.165 676.378 448.295C667.758 454.182 661.664 461.131 663.761 469.061C668.877 466.668 675.822 466.763 683.858 468.167C678.467 467.948 667.24 469.161 665.206 470.843C665.196 470.855 665.144 470.902 665.134 470.914C665.124 470.929 665.083 470.968 665.073 470.983C665.062 470.998 665.021 471.034 665.001 471.053C665.001 471.063 665.002 471.087 664.991 471.095C664.991 471.098 664.982 471.132 664.982 471.136C664.972 471.149 664.931 471.193 664.91 471.207C664.91 471.214 664.901 471.24 664.901 471.247C664.912 471.257 664.923 471.292 664.934 471.301C664.934 471.305 664.925 471.338 664.914 471.342C664.915 471.346 664.905 471.38 664.905 471.384C664.906 471.4 664.918 471.462 664.919 471.479C665.556 473.503 671.406 471.181 686.426 476.266C701.447 481.349 706.851 486.319 723.488 491.251C741.581 496.619 740.294 496.812 755.115 497.953C765.898 498.784 771.422 499.531 784.932 504.111C802.953 510.224 807.605 514.536 834.924 501.169C844.41 496.526 861.526 494.554 874.361 489.935C882.335 487.068 892.158 483.706 905.152 480.42C937.238 472.304 939.899 473.651 949.354 464.409C957.545 456.398 965.554 449.322 975.269 429.603C946.201 497.797 922.949 471.868 878.255 492.72C850.039 505.882 840.26 499.994 822.855 511.849C805.834 523.453 780.124 500.223 752.485 500.581C723.205 500.961 691.391 477.735 676.084 475.638C663.013 473.847 660.473 474.965 660.791 462.011C660.826 460.786 661.03 459.547 661.447 458.339C661.476 458.237 661.504 458.112 661.543 458.009V458.008ZM910.763 398.154C910.704 398.292 910.688 398.465 910.629 398.607C911.696 398.828 912.763 399.065 913.812 399.383C914.444 395.272 915.97 390.963 920.091 386.248C916.452 388.778 913.207 392.378 910.763 398.154ZM937.618 354.952C938.251 353.214 939.216 351.551 939.924 349.84C941.193 347.763 942.679 345.819 944.402 344.036C944.413 344.039 944.445 344.047 944.445 344.049C947.071 343.656 949.7 343.346 952.351 343.047C945.977 347.56 940.475 353.153 937.79 362.332C936.668 359.735 936.811 357.55 937.465 355.487C937.523 355.305 937.56 355.132 937.618 354.952Z" fill="#4D4848" fill-opacity="0.94"/>
<path opacity="0.70098" d="M671.516 451.984C672.991 450.716 674.637 449.497 676.38 448.312C688.276 440.183 704.727 443.934 720.829 450.026C726.3 452.095 734.097 453.989 740.809 455.087C743.1 459.122 746.309 461.392 744.493 468.907C747.441 460.681 746.885 457.861 744.679 455.484C761.545 452.974 792.097 453.914 803.153 457.968C804.29 458.385 806.804 457.474 810.343 455.784C813.352 460.08 815.784 464.892 817.936 470.227C816.947 464.453 815.318 459.239 812.817 454.589C824.298 448.709 843.282 436.875 858.875 430.972C866.412 427.374 873.75 430.174 881.088 432.962C876.876 428.516 871.651 425.177 862.95 425.507C867.859 420.929 873.624 416.935 880.702 413.893C888.195 411.916 895.411 410.869 901.63 413.131C896.892 409.785 890.553 410.088 884.609 409.445C887.66 406.774 890.745 404.128 896.683 401.89C907.374 399.854 917.072 401.854 927.466 406.43C924.668 404.417 921.88 402.737 919.008 401.409C936.802 383.151 951.151 366.504 958.985 352.948C949.054 365.569 935.492 381.935 922.092 391.797C921.712 384.841 926.714 379.517 932.404 374.854C926.396 375.2 922.097 379.328 916.486 384.159L907.12 394.534C906.948 394.788 906.754 395.018 906.569 395.184C906.434 395.302 906.258 395.424 906.123 395.502C906.102 395.514 906.04 395.556 906.019 395.572C906.019 395.576 905.978 395.604 905.967 395.607C905.967 395.606 905.935 395.601 905.925 395.6C905.925 395.599 905.893 395.594 905.882 395.593C905.788 395.631 905.673 395.682 905.557 395.711C905.536 395.716 905.484 395.737 905.473 395.739C905.463 395.741 905.431 395.732 905.431 395.732C905.42 395.732 905.388 395.726 905.388 395.725C905.346 395.729 905.251 395.738 905.208 395.738C905.166 395.734 905.07 395.716 905.038 395.71C905.027 395.709 904.995 395.704 904.995 395.703C904.985 395.701 904.963 395.698 904.953 395.696C904.92 395.682 904.866 395.645 904.834 395.632C904.823 395.629 904.792 395.627 904.791 395.624C902.583 394.843 900.663 389.785 901.739 386.324L917.172 353.17C926.177 347.739 935.24 345.465 944.406 344.089C942.692 345.863 941.206 347.769 939.936 349.836C939.238 351.547 938.253 353.209 937.619 354.947C937.562 355.127 937.504 355.304 937.446 355.485C936.802 357.548 936.68 359.723 937.812 362.319C940.488 353.164 945.969 347.582 952.322 343.075C952.332 343.063 952.353 343.052 952.363 343.04C961.339 342.026 970.45 341.254 979.682 338.646C985.049 337.131 989.27 334.88 992.616 332.458C992.426 393.954 916.407 459.088 822.073 478.309C757.906 491.386 701.614 479.878 671.516 451.984Z" fill="url(#paint1_radial)"/>
<path opacity="0.45588" d="M799.98 351.046C801.597 346.261 805.377 341.149 812.914 335.903C837.88 318.537 854.169 315.2 895.857 298.119C937.545 281.048 917.569 258.827 977.246 265.142C969.015 255.941 942.888 255.85 938.676 257.351C939.238 247.055 965.747 247.494 976.87 252.672C968.475 247.312 957.786 244.123 947.061 245.799C952.604 241.819 976.814 238.284 997.103 235.446C999.835 235.073 1004.82 234.946 1011.62 236.786C997.151 271.164 963.008 304.503 916.889 326.558C914.974 320.653 911.615 315.027 908.973 311.932C911.55 315.315 914.117 321.379 915.459 327.239C914.143 327.853 912.827 328.446 911.479 329.05C908.806 320.001 902.351 311.338 897.705 307.565C902.482 311.8 907.175 321.367 908.783 330.248C904.289 332.214 899.695 334.066 894.992 335.805C882.423 340.466 869.841 344.042 857.459 346.588C854.938 340.635 850.691 335.422 845.154 332.61C850.216 335.469 853.906 340.852 855.964 346.902C851.215 347.849 846.514 348.657 841.829 349.302C839.438 342.791 837.884 335.946 838.228 330.425C838.079 330.409 837.909 330.403 837.76 330.387C837.634 330.751 837.519 331.136 837.435 331.51C836.298 336.378 837.519 343.091 839.739 349.557C830.377 350.76 821.165 351.362 812.242 351.387C810.606 344.275 811.09 338.196 815.847 336.138C821.596 333.656 828.324 330.252 835.465 330.216C827.594 329.968 820.235 333.169 813.974 335.562C812.057 336.29 810.807 337.622 810.099 339.351C809.873 339.902 809.701 340.478 809.583 341.103C809.037 343.94 809.491 347.528 810.622 351.416C807.028 351.398 803.473 351.252 799.98 351.046Z" fill="url(#paint2_radial)"/>
<path opacity="0.70098" d="M836.082 330.239C836.198 330.235 836.305 330.243 836.422 330.249C836.305 330.243 836.199 330.246 836.082 330.239Z" fill="#1DFFFF" fill-opacity="0.59375"/>
<path opacity="0.70098" d="M844.965 332.489C845.019 332.519 845.072 332.528 845.126 332.558C845.062 332.528 845.029 332.519 844.965 332.489Z" fill="#1DFFFF" fill-opacity="0.59375"/>
<path opacity="0.70098" d="M897.125 307.117C897.158 307.148 897.179 307.147 897.212 307.178C897.18 307.158 897.158 307.137 897.125 307.117Z" fill="#1DFFFF" fill-opacity="0.59375"/>
<path opacity="0.45588" d="M635.793 513.488C637.017 511.985 638.379 510.492 639.826 509.021C650.851 497.799 668.569 498.746 686.371 502.308C692.418 503.518 700.893 504.085 708.065 503.991C711.15 508.005 714.937 509.773 714.242 518.542C715.956 508.835 714.896 505.835 712.187 503.645C725.025 503.094 738.388 501.386 749.542 500.568C749.553 500.568 749.585 500.575 749.585 500.575C749.617 500.572 749.648 500.55 749.68 500.547C749.69 500.546 749.712 500.554 749.722 500.554C750.645 500.587 751.557 500.597 752.468 500.585C767.204 500.394 781.38 506.911 794.003 511.28C772.356 521.7 743.04 527.972 710.846 527.707C682.383 527.473 656.301 522.158 635.793 513.488Z" fill="url(#paint3_radial)"/>
<path opacity="0.45588" d="M657.402 550.809C657.431 550.742 657.482 550.678 657.523 550.611C657.562 550.532 657.602 550.45 657.653 550.371C657.703 550.273 657.764 550.193 657.824 550.095C657.834 550.084 657.823 550.063 657.833 550.052C657.853 550.015 657.873 549.971 657.893 549.933C657.934 549.879 657.975 549.831 658.015 549.776C658.045 549.727 658.054 549.664 658.084 549.614C658.094 549.598 658.126 549.595 658.136 549.579C658.156 549.548 658.166 549.532 658.187 549.502C658.197 549.49 658.186 549.47 658.196 549.459C658.226 549.42 658.236 549.377 658.266 549.338C658.367 549.179 658.458 549.027 658.559 548.866C658.629 548.763 658.721 548.657 658.792 548.554C658.853 548.464 658.903 548.37 658.964 548.28C658.994 548.245 659.003 548.194 659.034 548.159C659.044 548.144 659.065 548.14 659.075 548.124C659.096 548.097 659.116 548.072 659.136 548.046C659.309 547.807 659.481 547.549 659.653 547.304C659.694 547.247 659.724 547.208 659.776 547.149C659.806 547.096 659.846 547.048 659.887 546.994C659.897 546.97 659.928 546.939 659.938 546.916C659.958 546.889 659.978 546.866 659.999 546.839C660.029 546.794 660.071 546.77 660.101 546.725C660.122 546.704 660.142 546.669 660.162 546.648C660.203 546.6 660.244 546.54 660.274 546.493C660.315 546.438 660.345 546.392 660.385 546.337C660.406 546.313 660.426 546.284 660.447 546.26C660.467 546.231 660.477 546.21 660.508 546.181C660.538 546.137 660.569 546.114 660.61 546.069C660.631 546.047 660.651 546.013 660.671 545.991C660.701 545.942 660.742 545.885 660.783 545.836C660.813 545.797 660.855 545.761 660.885 545.722C660.977 545.608 661.069 545.49 661.16 545.376C661.201 545.339 661.243 545.301 661.273 545.264C661.365 545.152 661.446 545.028 661.548 544.918C661.579 544.881 661.62 544.842 661.651 544.805C661.825 544.621 662 544.462 662.185 544.282C662.216 544.247 662.257 544.205 662.288 544.17C662.606 543.85 662.935 543.549 663.275 543.245C663.317 543.212 663.347 543.167 663.378 543.133C663.533 542.999 663.687 542.862 663.842 542.731C663.883 542.698 663.914 542.651 663.955 542.617C663.986 542.586 664.049 542.587 664.091 542.555C664.132 542.522 664.162 542.474 664.193 542.441C664.118 542.425 664.065 542.422 663.991 542.405C663.468 542.287 662.945 542.173 662.432 542.053C662.491 541.923 662.573 541.807 662.665 541.699C663.284 541.843 663.914 541.99 664.544 542.141C679.601 545.708 699.073 551.136 722.106 551.601C722.128 551.602 722.138 551.608 722.149 551.608C722.17 551.609 722.181 551.615 722.192 551.616C722.213 551.616 722.224 551.623 722.234 551.623C722.489 551.627 722.732 551.614 722.986 551.618C722.997 551.619 723.008 551.626 723.029 551.625C723.04 551.626 723.051 551.633 723.072 551.632C723.082 551.633 723.093 551.64 723.114 551.64C723.358 551.643 723.602 551.633 723.856 551.636C723.867 551.635 723.878 551.642 723.899 551.643C723.909 551.643 723.92 551.65 723.941 551.65C724.1 551.651 724.259 551.644 724.418 551.644C724.683 551.647 724.98 551.654 725.245 551.654C725.839 551.654 726.443 551.661 727.036 551.653C727.184 551.653 727.332 551.643 727.481 551.641C727.629 551.639 727.767 551.631 727.915 551.629C728.243 551.623 728.561 551.622 728.879 551.618C730.161 551.597 731.411 551.575 732.65 551.56C732.661 551.56 732.682 551.567 732.693 551.567C732.989 551.564 733.317 551.552 733.614 551.549C734.229 551.544 734.844 551.56 735.448 551.555C735.744 551.553 736.019 551.533 736.327 551.531C736.931 551.527 737.524 551.532 738.118 551.53C738.711 551.528 739.326 551.53 739.909 551.529C740.491 551.528 741.042 551.513 741.614 551.513C742.759 551.515 743.914 551.52 745.017 551.526C761.382 551.597 773.808 552.075 783.515 552.049C783.525 552.05 783.547 552.057 783.557 552.056C784.861 552.055 786.121 552.02 787.328 551.999C787.477 551.996 787.657 551.997 787.805 551.993C788.112 551.987 788.387 551.976 788.684 551.969C788.832 551.964 788.98 551.96 789.129 551.956C789.563 551.943 790.018 551.935 790.441 551.918C790.59 551.912 790.738 551.912 790.886 551.905C791.447 551.882 791.966 551.864 792.516 551.833C792.78 551.817 793.086 551.776 793.351 551.758C793.753 551.732 794.113 551.722 794.504 551.691C794.758 551.671 795.053 551.632 795.307 551.609C795.56 551.587 795.761 551.579 796.015 551.554C796.026 551.553 796.037 551.563 796.058 551.562C796.301 551.537 796.522 551.493 796.765 551.466C797.134 551.426 797.483 551.387 797.842 551.342C798.074 551.311 798.317 551.279 798.549 551.245C798.791 551.212 799.002 551.177 799.224 551.142C800.595 550.93 801.901 550.672 803.12 550.362C803.572 550.246 804.035 550.14 804.487 550.026C804.508 550.022 804.518 549.997 804.539 549.992C804.959 549.883 805.391 549.791 805.811 549.684C805.875 549.669 805.937 549.644 806 549.628C806.421 549.521 806.852 549.428 807.273 549.321C807.431 549.281 807.577 549.221 807.735 549.181C807.798 549.166 807.85 549.142 807.913 549.126C808.071 549.087 808.219 549.066 808.366 549.028C808.439 549.01 808.524 548.998 808.597 548.979C808.734 548.944 808.871 548.91 809.007 548.874C809.165 548.834 809.312 548.774 809.469 548.734C809.532 548.718 809.595 548.694 809.648 548.679C809.742 548.656 809.838 548.659 809.922 548.637C810.048 548.604 810.163 548.557 810.289 548.525C810.384 548.501 810.478 548.465 810.562 548.441C810.678 548.412 810.773 548.393 810.888 548.364C810.993 548.335 811.099 548.316 811.204 548.287C811.309 548.259 811.425 548.238 811.519 548.21C811.845 548.125 812.17 548.024 812.485 547.938C812.58 547.913 812.674 547.879 812.769 547.854C812.884 547.82 813.01 547.775 813.136 547.741C813.21 547.721 813.284 547.714 813.357 547.693C813.494 547.655 813.631 547.627 813.767 547.589C813.841 547.568 813.925 547.559 813.999 547.539C814.156 547.495 814.312 547.402 814.47 547.357C814.512 547.345 814.555 547.349 814.597 547.337C814.754 547.294 814.902 547.281 815.049 547.239C815.133 547.216 815.206 547.171 815.29 547.147C815.321 547.139 815.353 547.128 815.384 547.119C815.426 547.107 815.469 547.111 815.511 547.099C815.574 547.082 815.605 547.051 815.657 547.035C815.699 547.022 815.742 547.029 815.794 547.015C815.857 546.997 815.91 546.977 815.973 546.959C816.046 546.937 816.14 546.889 816.214 546.867C816.235 546.859 816.277 546.848 816.298 546.84C816.34 546.827 816.393 546.831 816.435 546.818C816.529 546.791 816.624 546.762 816.718 546.734C816.875 546.686 817.055 546.651 817.212 546.602C817.233 546.596 817.243 546.572 817.264 546.566C817.327 546.547 817.39 546.529 817.453 546.511C817.495 546.496 817.547 546.462 817.589 546.448C817.599 546.443 817.621 546.459 817.631 546.455C817.82 546.395 818.008 546.304 818.197 546.244C818.207 546.241 818.229 546.255 818.239 546.251C818.334 546.222 818.418 546.197 818.512 546.167C818.523 546.164 818.544 546.178 818.555 546.175C818.754 546.111 818.964 546.037 819.163 545.971C819.257 545.938 819.34 545.878 819.445 545.844C819.665 545.772 819.865 545.724 820.085 545.649C820.19 545.615 820.264 545.599 820.369 545.565C820.379 545.559 820.4 545.535 820.41 545.53C820.494 545.5 820.61 545.475 820.694 545.445C820.809 545.404 820.935 545.377 821.061 545.334C821.134 545.307 821.218 545.269 821.291 545.242C821.323 545.233 821.354 545.225 821.386 545.215C821.469 545.183 821.541 545.112 821.625 545.081C821.636 545.076 821.657 545.093 821.668 545.088C821.877 545.013 822.108 544.928 822.317 544.849C822.433 544.81 822.537 544.77 822.653 544.73C822.705 544.71 822.779 544.696 822.831 544.674C822.883 544.656 822.925 544.628 822.977 544.611C823.051 544.581 823.124 544.55 823.208 544.52C823.239 544.508 823.271 544.503 823.302 544.491C823.344 544.475 823.387 544.488 823.439 544.471C823.502 544.446 823.564 544.397 823.627 544.373C823.669 544.357 823.722 544.367 823.764 544.352C823.827 544.326 823.889 544.279 823.952 544.254C823.983 544.241 824.015 544.238 824.046 544.225C824.119 544.195 824.203 544.164 824.276 544.134C824.308 544.123 824.339 544.117 824.371 544.106C824.444 544.076 824.528 544.046 824.601 544.015C824.632 544.003 824.664 543.999 824.696 543.987C824.779 543.956 824.853 543.927 824.926 543.896C824.978 543.877 825.02 543.852 825.072 543.832C825.135 543.807 825.197 543.759 825.26 543.734C825.27 543.73 825.292 543.746 825.302 543.741C825.407 543.702 825.49 543.655 825.595 543.614C825.605 543.608 825.626 543.587 825.636 543.58C825.73 543.542 825.826 543.533 825.92 543.496C826.035 543.445 826.128 543.385 826.254 543.334C826.578 543.196 826.903 543.077 827.237 542.934C827.415 542.858 827.572 542.793 827.75 542.716C827.875 542.665 827.969 542.606 828.084 542.554C828.136 542.533 828.178 542.512 828.23 542.491C828.324 542.451 828.418 542.406 828.512 542.365C828.533 542.356 828.543 542.338 828.564 542.329C828.658 542.289 828.752 542.245 828.846 542.202C828.867 542.194 828.877 542.176 828.898 542.168C828.981 542.127 829.077 542.125 829.171 542.084C829.317 542.017 829.452 541.92 829.608 541.852C829.681 541.818 829.766 541.795 829.839 541.761C829.88 541.742 829.901 541.707 829.942 541.69C830.015 541.654 830.1 541.634 830.173 541.599C830.214 541.578 830.267 541.556 830.308 541.536C830.382 541.505 830.444 541.467 830.507 541.436C830.559 541.414 830.601 541.396 830.642 541.374C830.716 541.343 830.778 541.306 830.841 541.275C830.882 541.252 830.935 541.235 830.976 541.212C831.05 541.181 831.101 541.145 831.175 541.113C831.227 541.087 831.301 541.084 831.353 541.058C831.457 541.008 831.54 540.938 831.644 540.889C831.665 540.879 831.675 540.862 831.696 540.853C831.748 540.83 831.79 540.814 831.843 540.79C831.905 540.756 831.957 540.726 832.03 540.692C832.082 540.665 832.156 540.662 832.219 540.636C832.282 540.604 832.344 540.569 832.407 540.537C832.459 540.513 832.501 540.498 832.553 540.474C832.72 540.386 832.897 540.304 833.075 540.214C833.096 540.204 833.106 540.187 833.127 540.178C833.21 540.133 833.315 540.098 833.409 540.053C833.44 540.035 833.471 539.999 833.502 539.982C833.533 539.968 833.576 539.968 833.596 539.953C833.69 539.906 833.751 539.826 833.845 539.778C833.876 539.763 833.908 539.764 833.94 539.75C834.033 539.7 834.137 539.63 834.231 539.58C834.241 539.575 834.263 539.594 834.273 539.587C834.388 539.53 834.493 539.485 834.607 539.426C834.618 539.418 834.638 539.4 834.659 539.391C834.764 539.336 834.836 539.278 834.951 539.222C834.992 539.198 835.045 539.184 835.086 539.159C835.295 539.051 835.503 538.939 835.712 538.829C835.951 538.698 836.191 538.561 836.441 538.427C836.451 538.417 836.472 538.402 836.482 538.392C836.711 538.267 836.93 538.154 837.159 538.026C837.18 538.016 837.19 538.001 837.211 537.99C837.315 537.931 837.44 537.848 837.554 537.787C837.565 537.777 837.585 537.761 837.596 537.751C837.71 537.692 837.826 537.651 837.93 537.59C838.086 537.506 838.263 537.408 838.419 537.323C838.502 537.271 838.574 537.198 838.668 537.146C838.71 537.121 838.762 537.108 838.804 537.083C838.887 537.037 838.971 536.996 839.043 536.95C839.147 536.892 839.241 536.839 839.335 536.781C839.376 536.76 839.407 536.73 839.438 536.71C839.49 536.681 839.533 536.675 839.574 536.647C839.657 536.599 839.741 536.561 839.824 536.513C839.928 536.447 840.053 536.375 840.157 536.31C840.178 536.298 840.198 536.284 840.209 536.274C840.271 536.239 840.344 536.21 840.407 536.176C840.469 536.134 840.531 536.075 840.604 536.035C840.666 535.995 840.728 535.934 840.801 535.894C840.863 535.857 840.926 535.832 840.988 535.795C841.072 535.749 841.155 535.708 841.228 535.661C841.29 535.629 841.331 535.588 841.383 535.555C841.467 535.506 841.54 535.472 841.623 535.422C841.675 535.39 841.716 535.349 841.768 535.316C841.862 535.264 841.967 535.243 842.06 535.189C842.102 535.159 842.153 535.114 842.205 535.084C842.434 534.945 842.662 534.775 842.891 534.633C842.922 534.616 842.954 534.623 842.985 534.606C843.099 534.534 843.214 534.472 843.328 534.401C843.359 534.381 843.39 534.35 843.421 534.331C843.536 534.264 843.618 534.186 843.722 534.119C843.753 534.101 843.785 534.109 843.816 534.091C844.076 533.928 844.335 533.738 844.605 533.57C844.616 533.563 844.638 533.584 844.648 533.577C844.793 533.486 844.939 533.396 845.084 533.303C820.226 551.053 782.569 562.946 740.096 564.052C709.271 564.862 680.636 559.881 657.402 550.809Z" fill="url(#paint4_radial)"/>
<path opacity="0.45588" d="M896.043 482.919C898.911 482.105 901.947 481.264 905.174 480.447C937.26 472.33 939.91 473.67 949.355 464.428C957.248 456.723 965.011 449.912 974.228 431.861C971.62 437.819 969.106 443.058 966.559 447.615C966.57 447.616 966.591 447.62 966.591 447.62C969.946 443.149 974.476 437.643 980.99 430.559C1010.06 398.967 1009.79 377.621 1057.38 358.832C1089.04 346.333 1115.43 337.19 1138.46 330.138C1145.17 314.469 1151.18 298.342 1156.41 281.858L1155.59 280.474C1109.95 285.252 1058.09 305.116 1009.85 339.314C951.62 380.596 911.357 433.748 896.043 482.916V482.919Z" fill="url(#paint5_radial)"/>
<path fill-rule="evenodd" clip-rule="evenodd" d="M340.143 436.119C338.617 434.231 337.054 432.289 335.532 430.245C326.539 418.114 325.607 404.909 316.256 391.701C311.243 384.632 308.007 382.711 304.74 379.885C304.739 379.876 304.695 379.85 304.694 379.841C297.586 377.165 290.255 373.728 281.534 369.642C263.974 361.43 265.963 360.657 257.422 353.563L264.676 373.892C265.724 377.683 264.327 381.429 261.66 382.051L259.163 382.512C260.937 382.671 262.725 382.958 264.559 383.398C273.518 385.562 283.915 398.075 283.915 398.075C291.79 402.995 298.388 408.16 301.784 413.883C303.32 415.158 327.869 429.236 340.143 436.119ZM332.346 429.018C324.065 423.975 307.505 413.696 306.227 412.623C304.12 408.897 300.328 405.484 295.724 402.219C295.713 402.21 295.679 402.184 295.669 402.184C295.668 402.175 295.675 402.147 295.664 402.139C295.664 402.139 295.624 402.149 295.623 402.14C280.543 386.3 271.798 372.851 297.8 383.327L297.852 383.325C298.037 383.42 298.212 383.514 298.398 383.609L298.48 383.606L298.484 383.642L298.844 383.822C301.991 385.38 304.945 386.762 307.806 387.945C310.045 390.028 312.217 391.446 315.67 396.609C322.145 406.255 322.981 415.874 329.189 424.732C330.241 426.225 331.295 427.635 332.346 429.018Z" fill="#4D4848" fill-opacity="0.94"/>
<path fill-rule="evenodd" clip-rule="evenodd" d="M332.334 428.999C331.284 427.625 330.239 426.205 329.198 424.712C322.989 415.854 322.166 406.252 315.691 396.607C312.238 391.444 310.026 390.037 307.787 387.953C304.926 386.77 301.98 385.37 298.833 383.812C298.723 383.752 298.603 383.692 298.483 383.632C298.461 383.614 298.42 383.616 298.397 383.598C298.213 383.513 298.038 383.428 297.853 383.333C297.842 383.324 297.813 383.344 297.801 383.335C271.8 372.868 280.562 386.28 295.643 402.129C295.665 402.146 295.679 402.183 295.702 402.2C300.306 405.465 304.109 408.887 306.216 412.613C307.273 413.547 323.977 423.921 332.334 428.999Z" fill="url(#paint6_linear)"/>
<path fill-rule="evenodd" clip-rule="evenodd" d="M366.028 354.265C365.989 353.882 365.91 353.51 365.85 353.127C361.88 328.896 309.163 310.888 283.165 298.417C249.728 282.374 257.481 280.103 246.954 262.157C231.558 235.911 204.257 228.418 179.956 224.382C155.998 210.019 94.2115 188.158 61.3509 181.314L0 177.727C0.20159 180.009 0.43591 182.308 0.66932 184.597C1.04688 188.301 1.45443 191.994 1.93409 195.685C21.1747 195.125 152.758 205.929 167.608 224.688C152.442 224.943 140.979 232.605 142.225 234.686C142.25 234.731 142.298 234.793 142.333 234.829C159.257 227.986 170.792 229.238 175.488 230.367C195.694 235.211 219.808 241.074 224.77 245.206C213.958 242.419 202.776 244.021 193.857 247.934C205.061 244.419 232.415 246.957 232.157 256.193C228.075 254.402 201.98 251.536 193.047 258.654C253.13 259.949 231.403 277.099 271.689 296.834C311.976 316.568 327.997 321.354 351.558 339.43C371.909 355.043 361.423 366.305 358.911 372.909C365.095 366.316 366.678 360.028 366.028 354.265Z" fill="#4D4848" fill-opacity="0.94"/>
<path fill-rule="evenodd" clip-rule="evenodd" d="M163.691 306.447C173.369 314.343 192.824 322.985 210.49 327.879C235.83 334.9 234.262 330.889 258.715 349.703C277.681 364.302 300.271 373.366 324.54 380.13C348.799 386.904 348.767 377.358 355.409 375.354C352.595 380.924 345.239 385.562 334.456 384.275C314.472 381.904 300.413 375.265 278.931 365C257.46 354.735 262.774 355.129 248.903 344.657C228.747 329.44 206.799 330.935 184.82 322.784C172.353 318.168 166.568 310.623 163.691 306.447Z" fill="#4D4848" fill-opacity="0.94"/>
<path fill-rule="evenodd" clip-rule="evenodd" d="M271.619 303.783C264.683 305.752 247.208 322.719 252.814 335.809C256.709 344.902 261.776 344.994 256.693 336.728C250.839 327.19 262.73 306.478 271.619 303.783Z" fill="#4D4848" fill-opacity="0.94"/>
<path fill-rule="evenodd" clip-rule="evenodd" d="M259.87 305.844C255.559 307.685 243.97 321.32 246.561 330.815C248.362 337.417 251.412 337.212 248.844 331.295C245.894 324.476 254.333 308.34 259.87 305.844Z" fill="#4D4848" fill-opacity="0.94"/>
<path fill-rule="evenodd" clip-rule="evenodd" d="M327.163 331.782C327.007 331.778 326.831 331.775 326.676 331.771C326.482 343.266 315.061 360.062 308.477 364.361C308.643 364.575 308.84 364.779 309.016 364.984L309.057 364.982C309.509 364.948 309.936 364.879 310.313 364.719C316.46 362.119 330.052 342.264 327.163 331.782Z" fill="#4D4848" fill-opacity="0.94"/>
<path fill-rule="evenodd" clip-rule="evenodd" d="M354.077 342.802C353.5 341.201 352.354 339.904 350.498 339.043C343.877 335.976 336.065 331.877 327.293 331.758C335.292 332.014 342.493 336.197 348.602 339.319C358.968 344.62 346.027 365.386 336.793 374.327C345.35 366.755 356.957 350.868 354.077 342.802ZM321.406 332.344C310.345 334.82 303.064 345.671 302.44 355.478C301.936 363.523 312.223 370.282 318.302 374.22C321.335 376.185 326.631 379.033 330.164 378.481C326.948 378.592 322.432 375.882 319.779 374.005C314.118 370.007 304.546 363.15 304.845 355.13C305.214 345.46 311.484 334.836 321.406 332.344Z" fill="#4D4848" fill-opacity="0.94"/>
<path fill-rule="evenodd" clip-rule="evenodd" d="M523.416 523.841C523.351 523.402 523.233 522.954 523.115 522.507C520.879 513.865 510.622 504.144 498.26 499.644C480.7 493.254 473.153 496.534 457.711 496.515C447.917 496.503 432.525 494.643 425.864 491.695C424.617 491.134 423.404 490.599 422.213 490.072C415.254 491.099 408.194 491.533 401.359 490.935C412.545 492.922 426.004 496.011 438.988 497.991C436.082 499.61 434.771 502.173 435.757 511.036C435.693 503.102 439.61 501.961 443.039 498.767C450.194 499.675 458.704 500.161 464.83 499.795C482.879 498.708 500.673 499.882 510.791 510.976C518.125 519.008 522.601 527.306 518.429 534.167C513.855 530.484 506.786 528.6 498.337 527.592C503.9 528.996 514.469 533.157 516.376 535.325C516.41 535.354 516.425 535.401 516.459 535.437C516.46 535.442 516.482 535.46 516.493 535.464C516.494 535.469 516.485 535.487 516.496 535.492C516.51 535.53 516.556 535.577 516.57 535.604L516.572 535.632C516.596 535.66 516.641 535.697 516.643 535.716L516.663 535.916C516.665 535.933 516.647 535.959 516.638 535.974C516.63 535.997 516.624 536.039 516.616 536.06L516.622 536.118C516.623 536.124 516.593 536.143 516.594 536.147C516.576 536.174 516.559 536.211 516.541 536.235C516.531 536.241 516.512 536.259 516.513 536.264C516.484 536.286 516.447 536.333 516.418 536.354C516.4 536.373 516.361 536.397 516.331 536.413C516.312 536.421 516.282 536.437 516.262 536.445C516.213 536.472 516.115 536.519 516.055 536.537C514.09 537.051 508.146 534.031 493.346 534.428C476.649 534.877 468.405 536.077 449.508 536.563C430.612 537.05 433.564 536.081 417.458 535.033C401.353 533.984 405.339 534.439 384.588 531.241C363.848 528.044 363.427 532.64 333.509 521.181C303.72 509.777 300.259 498.142 269.487 481.249C238.681 464.329 237.227 471.876 214.071 451.882C203.978 443.167 200.803 438.708 197.71 433.423C197.697 433.396 197.652 433.36 197.639 433.333C197.603 433.289 197.589 433.244 197.553 433.199C194.799 429.513 192.044 425.113 189.381 419.886L189.305 419.752C186.301 415.443 182.223 410.136 176.27 403.173C149.726 372.165 151.679 353.488 105.627 331.572C75.3674 317.169 49.9719 306.251 27.7227 297.486C28.9036 300.548 30.093 303.592 31.3442 306.634C56.1303 314.314 83.1565 323.171 105.095 335.883C132.297 351.646 144.341 367.425 150.474 376.46C166.865 400.594 179.543 408.599 195.333 435.765C219.138 476.735 250.389 466.27 290.865 498.822C316.404 519.365 327.185 522.557 344.465 528.529C357.168 532.92 378.272 532.894 419.503 538.252C457.716 543.221 487.834 534.323 504.057 536.835C517.896 538.979 520.291 540.66 523.267 528.366C523.607 526.932 523.669 525.411 523.416 523.841Z" fill="#4D4848" fill-opacity="0.94"/>
<path fill-rule="evenodd" clip-rule="evenodd" d="M493.116 548.235C491.975 544.646 489.234 540.787 485.635 537.342C485.031 537.395 484.445 537.431 483.83 537.487C485.023 538.54 486.078 539.651 486.965 540.844C493.661 549.927 492.321 554.629 488.126 560.045C484.599 556.595 478.767 554.469 471.656 552.987C476.35 554.602 485.493 559.172 486.406 561.034C486.408 561.051 486.413 561.094 486.425 561.11C486.426 561.125 486.431 561.17 486.442 561.185L486.446 561.222C486.447 561.23 486.46 561.253 486.46 561.259C486.462 561.274 486.477 561.322 486.478 561.335C486.47 561.355 486.454 561.398 486.456 561.416C486.447 561.435 486.442 561.481 486.423 561.498C486.424 561.509 486.405 561.53 486.396 561.541C486.368 561.573 486.32 561.608 486.282 561.635C484.978 562.648 480.614 559.2 466.927 558.34C452.803 557.453 445.707 557.846 429.708 556.825C413.709 555.804 416.274 555.206 402.793 553.113C389.3 551.021 392.548 552.037 375.443 547.479C339.066 537.789 332.269 540.401 322.322 534.233C315.842 530.215 308.741 518.787 300.957 506.651C297.95 504.438 294.737 501.939 291.223 499.113C294.146 503.141 296.718 507.062 298.872 510.842C303.05 518.149 312.627 531.038 317.204 534.548C326.943 542.024 343.288 542.281 404.218 555.939C435.969 563.059 462.188 558.517 475.779 561.177C489.634 563.887 487.563 564.973 492.757 555.56C493.927 553.449 493.98 550.924 493.116 548.235Z" fill="#4D4848" fill-opacity="0.94"/>
<path fill-rule="evenodd" clip-rule="evenodd" d="M493.115 463.793C490.578 455.852 478.666 447.656 465.54 445.206C448.177 441.957 441.706 445.951 427.385 448.1C418.31 449.464 412.643 449.668 405.957 448.296C389.364 444.902 352.869 442.988 350.742 442.823L350.702 442.825C348.56 442.001 303.539 417.313 301.694 415.756C298.092 409.939 290.97 404.608 282.424 399.501C282.424 399.501 271.284 386.693 261.499 384.338C259.495 383.857 257.526 383.522 255.583 383.333L258.366 382.926C261.296 382.349 262.868 378.606 261.794 374.762L251.865 346.955C250.977 346.253 250.011 345.499 248.902 344.667C247.972 343.967 247.045 343.294 246.101 342.658L258.911 373.47C259.709 376.628 257.391 380.863 255.129 381.298C255.078 381.309 254.985 381.321 254.913 381.324C254.903 381.324 254.884 381.334 254.874 381.334C254.833 381.336 254.738 381.32 254.697 381.322C254.655 381.314 254.571 381.308 254.52 381.31C254.351 381.279 254.159 381.221 254.006 381.144C253.986 381.145 253.963 381.127 253.952 381.119C253.58 380.921 253.183 380.577 252.862 380.067L244.329 369.915C239.115 365.032 235.125 360.894 229.15 359.9C234.473 364.642 239.073 369.885 238.16 375.94C225.55 365.764 213.258 349.883 204.331 337.685C211.094 350.461 224.133 366.673 240.461 384.713C237.404 385.568 234.39 386.752 231.357 388.247C242.191 385.367 252.111 384.669 262.71 387.702C268.461 390.342 271.329 393.026 274.169 395.72C268.075 395.6 261.604 394.504 256.561 397.076C263.029 395.691 270.27 397.438 277.715 400.066C284.554 403.547 290.021 407.671 294.552 412.248C285.9 410.961 280.409 413.301 275.865 416.716C283.406 415.111 290.945 413.498 298.191 417.515C313.296 424.474 331.31 437.037 342.311 443.507C339.45 447.294 337.413 451.648 335.973 456.595C338.541 452.167 341.348 448.254 344.681 444.835C348.089 446.713 350.555 447.782 351.72 447.541C363.08 445.256 393.624 447.932 410.271 452.065C407.863 453.906 407.098 456.339 409.462 464.012C408.155 457.072 411.559 455.463 414.18 452.16C420.975 451.963 428.913 451.205 434.531 450.015C451.094 446.526 467.816 445.1 479.064 453.584C487.209 459.73 492.751 466.515 490.033 473.227C485.106 470.549 478.155 469.836 470.027 470.142C475.428 470.57 486.547 472.916 488.449 474.627C488.46 474.635 488.495 474.68 488.507 474.689C488.519 474.707 488.553 474.751 488.565 474.76C488.577 474.778 488.612 474.813 488.625 474.831C488.636 474.84 488.637 474.858 488.638 474.867L488.642 474.904C488.655 474.922 488.7 474.966 488.712 474.975L488.715 475.011C488.706 475.02 488.687 475.049 488.678 475.058L488.693 475.094L488.697 475.131C488.698 475.149 488.681 475.195 488.673 475.214C487.885 476.916 482.231 474.208 466.832 476.943C451.423 479.688 445.64 483.42 428.647 485.844C410.156 488.474 411.429 488.788 396.527 488.091C385.701 487.593 380.119 487.611 366.275 490.082C347.799 493.372 342.804 496.619 316.585 481.784C307.475 476.623 290.543 472.939 278.076 467.417C270.343 463.993 260.797 459.927 248.086 455.558C216.686 444.773 213.92 445.646 205.208 436.471C197.654 428.511 190.205 421.388 182.062 402.994C205.725 466.094 230.982 446.031 273.978 469.416C301.12 484.182 311.35 480.142 327.794 492.521C343.88 504.637 371.382 487.225 398.956 490.699C428.164 494.383 461.746 477.667 477.198 477.576C490.397 477.507 492.853 478.778 493.543 467.385C493.61 466.311 493.505 465.198 493.186 464.092C493.156 464.002 493.146 463.892 493.115 463.793ZM248.954 382.819C248.998 382.946 249.004 383.101 249.048 383.228C247.959 383.302 246.882 383.384 245.812 383.54C245.5 379.871 244.311 375.921 240.574 371.317C244.006 373.945 246.961 377.477 248.954 382.819ZM225.525 341.882C225.042 340.287 224.198 338.714 223.633 337.132C222.512 335.166 221.195 333.298 219.609 331.54L219.568 331.541C216.979 330.898 214.378 330.328 211.755 329.759C217.765 334.441 222.818 339.979 224.775 348.325C226.108 346.183 226.128 344.25 225.646 342.363C225.599 342.2 225.573 342.045 225.525 341.882Z" fill="#4D4848" fill-opacity="0.94"/>
<path opacity="0.70098" d="M483.63 457.371C482.249 456.091 480.704 454.835 479.068 453.601C467.819 445.108 451.095 446.515 434.543 450.013C428.914 451.195 420.977 451.962 414.192 452.159C411.589 455.434 408.197 457.06 409.428 463.856C407.127 456.301 407.905 453.894 410.294 452.064C393.647 447.939 363.063 445.264 351.703 447.549C350.538 447.791 348.1 446.703 344.702 444.815C341.358 448.234 338.554 452.175 335.975 456.603C337.426 451.656 339.451 447.275 342.322 443.487C331.321 437.018 313.289 424.474 298.183 417.514C290.938 413.497 283.398 415.111 275.847 416.716C280.4 413.301 285.882 410.97 294.545 412.256C290.005 407.689 284.565 403.528 277.725 400.046C270.398 397.46 263.282 395.718 256.895 396.981C261.895 394.594 268.201 395.586 274.18 395.701C271.341 393.015 268.473 390.34 262.712 387.7C252.209 384.693 242.356 385.333 231.62 388.155C234.575 386.708 237.487 385.555 240.463 384.721C224.136 366.69 211.105 350.45 204.352 337.674C213.28 349.872 225.532 365.772 238.142 375.949C239.066 369.894 234.488 364.659 229.175 359.917C235.151 360.911 239.117 365.022 244.34 369.896L252.884 380.056C253.022 380.298 253.2 380.521 253.373 380.689C253.499 380.813 253.667 380.935 253.8 381.022C253.811 381.031 253.877 381.074 253.889 381.092L253.934 381.127L254.027 381.124C254.115 381.176 254.235 381.236 254.342 381.269C254.363 381.277 254.407 381.303 254.428 381.303C254.439 381.311 254.459 381.302 254.469 381.301L254.51 381.3C254.553 381.308 254.648 381.332 254.689 381.33C254.731 381.338 254.823 381.326 254.865 381.324L254.906 381.323C254.916 381.323 254.938 381.331 254.947 381.321C254.988 381.32 255.037 381.291 255.077 381.28L255.118 381.279C257.38 380.844 259.692 376.636 258.894 373.478L246.093 342.657C237.519 336.865 228.647 333.837 219.605 331.576C221.181 333.334 222.516 335.174 223.615 337.132C224.19 338.705 225.043 340.277 225.526 341.872C225.574 342.035 225.621 342.198 225.659 342.362C226.151 344.249 226.088 346.164 224.756 348.315C222.81 339.979 217.77 334.467 211.791 329.784C211.769 329.776 211.757 329.758 211.746 329.749C202.852 327.83 193.825 326.117 184.808 322.775C179.573 320.831 175.528 318.379 172.376 315.87C167.738 369.79 238.522 435.573 331.221 463.22C394.267 482.016 451.386 478.379 483.63 457.371Z" fill="url(#paint7_radial)"/>
<path opacity="0.45588" d="M363.272 354.202C362.039 349.823 358.664 344.913 351.551 339.454C327.99 321.379 311.979 316.583 271.692 296.849C231.404 277.106 253.107 259.92 193.014 258.624C201.958 251.507 228.057 254.418 232.15 256.218C232.391 247.12 205.884 244.47 194.366 247.74C203.168 244.005 214.105 242.43 224.68 245.133C219.451 241.011 195.563 235.14 175.517 230.336C172.814 229.687 167.853 229.006 160.926 229.839C172.658 261.63 204.132 294.748 248.463 319.36C250.833 314.4 254.631 309.866 257.508 307.451C254.668 310.121 251.632 315.141 249.833 320.118C251.104 320.816 252.371 321.478 253.662 322.166C257.052 314.543 264.171 307.68 269.111 304.911C264.004 308.07 258.558 315.919 256.261 323.523C260.595 325.763 265.034 327.908 269.598 329.976C281.775 335.498 294.061 340.065 306.234 343.721C309.217 338.794 313.856 334.699 319.617 332.871C314.342 334.801 310.23 339.098 307.696 344.165C312.366 345.542 316.991 346.784 321.623 347.888C324.523 342.452 326.619 336.631 326.701 331.758C326.856 331.753 327.023 331.775 327.179 331.778C327.264 332.105 327.351 332.45 327.407 332.796C328.165 337.191 326.413 342.936 323.697 348.348C332.942 350.474 342.101 352.054 350.997 353.095C353.204 347.05 353.193 341.668 348.601 339.327C343.047 336.488 336.615 332.736 329.476 331.892C337.353 332.573 344.447 336.22 350.515 339.032C352.371 339.893 353.518 341.199 354.095 342.8C354.27 343.306 354.396 343.833 354.463 344.389C354.796 346.941 354.056 350.033 352.622 353.313C356.209 353.703 359.764 353.983 363.272 354.202Z" fill="url(#paint8_radial)"/>
<path opacity="0.70098" d="M328.873 331.829C328.749 331.824 328.635 331.82 328.52 331.806C328.634 331.811 328.749 331.824 328.873 331.829Z" fill="#1DFFFF" fill-opacity="0.59375"/>
<path opacity="0.70098" d="M319.817 332.793C319.767 332.813 319.716 332.814 319.656 332.834C319.716 332.814 319.757 332.813 319.817 332.793Z" fill="#1DFFFF" fill-opacity="0.59375"/>
<path opacity="0.70098" d="M269.715 304.588C269.686 304.606 269.666 304.607 269.637 304.626C269.667 304.616 269.696 304.597 269.715 304.588Z" fill="#1DFFFF" fill-opacity="0.59375"/>
<path opacity="0.45588" d="M514.473 515.367C513.362 513.908 512.117 512.443 510.789 510.988C500.671 499.893 482.885 498.691 464.836 499.778C458.71 500.144 450.202 499.677 443.046 498.769C439.646 501.934 435.727 503.057 435.733 510.82C434.783 502.11 436.068 499.604 438.955 497.994C426.18 496.044 412.966 493.019 401.883 491.029C401.882 491.02 401.852 491.03 401.842 491.03C401.82 491.022 401.787 490.996 401.755 490.988L401.714 490.989C400.797 490.92 399.877 490.823 398.965 490.708C384.266 488.851 369.595 492.944 356.652 495.329C377.454 506.935 406.227 515.788 438.401 519.239C466.841 522.291 493.311 520.618 514.473 515.367Z" fill="url(#paint9_radial)"/>
<path opacity="0.45588" d="M489.957 545.601C489.92 545.539 489.882 545.477 489.845 545.414C489.806 545.34 489.778 545.262 489.739 545.189C489.689 545.097 489.639 545.019 489.589 544.927C489.577 544.916 489.586 544.899 489.585 544.888C489.56 544.853 489.546 544.812 489.521 544.776C489.496 544.726 489.449 544.678 489.423 544.627C489.398 544.58 489.392 544.523 489.367 544.476C489.355 544.461 489.323 544.454 489.322 544.44C489.298 544.41 489.286 544.394 489.273 544.364C489.261 544.354 489.27 544.338 489.269 544.327C489.244 544.29 489.23 544.251 489.206 544.215C489.118 544.063 489.041 543.919 488.953 543.765C488.891 543.668 488.809 543.565 488.747 543.467C488.697 543.381 488.646 543.291 488.586 543.205C488.572 543.172 488.557 543.125 488.533 543.093C488.521 543.078 488.5 543.071 488.488 543.056C488.475 543.031 488.452 543.006 488.439 542.981C488.291 542.752 488.132 542.507 487.973 542.272C487.937 542.216 487.912 542.179 487.875 542.122C487.839 542.071 487.814 542.025 487.778 541.974C487.755 541.951 487.741 541.922 487.718 541.899C487.705 541.873 487.693 541.85 487.669 541.824C487.644 541.781 487.6 541.755 487.575 541.713C487.563 541.693 487.539 541.659 487.526 541.638C487.491 541.593 487.454 541.535 487.418 541.489C487.381 541.436 487.356 541.393 487.32 541.34C487.307 541.317 487.284 541.288 487.271 541.265C487.248 541.238 487.235 541.218 487.222 541.191C487.187 541.147 487.153 541.123 487.118 541.08C487.105 541.059 487.081 541.025 487.069 541.005C487.033 540.958 487.007 540.903 486.971 540.856C486.946 540.818 486.901 540.782 486.877 540.744C486.793 540.632 486.709 540.52 486.625 540.409C486.591 540.373 486.556 540.335 486.521 540.299C486.437 540.189 486.363 540.072 486.28 539.964C486.245 539.927 486.21 539.888 486.176 539.853C486.023 539.672 485.851 539.511 485.688 539.335C485.664 539.299 485.629 539.258 485.594 539.224C485.304 538.907 485.004 538.606 484.683 538.3C484.649 538.267 484.624 538.223 484.589 538.189C484.441 538.054 484.303 537.917 484.155 537.784C484.12 537.751 484.095 537.706 484.061 537.673C484.016 537.64 483.953 537.634 483.919 537.601C483.885 537.568 483.859 537.523 483.825 537.49C483.897 537.483 483.959 537.489 484.041 537.483C484.564 537.439 485.098 537.398 485.621 537.352C485.567 537.23 485.494 537.12 485.411 537.016C484.785 537.07 484.15 537.128 483.504 537.186C468.187 538.591 448.319 541.119 425.268 538.891C425.258 538.89 425.248 538.894 425.227 538.892C425.216 538.891 425.196 538.895 425.186 538.894C425.175 538.891 425.155 538.897 425.144 538.895C424.894 538.871 424.652 538.832 424.401 538.805C424.39 538.804 424.37 538.809 424.36 538.807C424.339 538.806 424.329 538.811 424.319 538.808C424.298 538.807 424.288 538.812 424.277 538.81C424.027 538.784 423.785 538.748 423.534 538.721C423.513 538.72 423.503 538.725 423.482 538.723C423.472 538.721 423.462 538.726 423.441 538.724C423.284 538.707 423.127 538.682 422.959 538.665C422.698 538.635 422.406 538.609 422.134 538.579C421.548 538.511 420.941 538.446 420.344 538.373C420.198 538.355 420.061 538.329 419.914 538.311C419.757 538.292 419.62 538.269 419.473 538.25C419.149 538.209 418.834 538.171 418.51 538.13C417.231 537.965 415.994 537.804 414.748 537.649C414.738 537.647 414.728 537.652 414.707 537.65C414.413 537.613 414.088 537.565 413.795 537.528C413.177 537.454 412.561 537.398 411.964 537.324C411.66 537.288 411.386 537.239 411.083 537.202C410.486 537.13 409.89 537.066 409.293 536.997C408.707 536.927 408.09 536.858 407.504 536.791C406.928 536.723 406.372 536.647 405.807 536.582C404.656 536.451 403.506 536.326 402.397 536.203C386.059 534.393 373.609 533.389 363.917 532.256C363.906 532.255 363.886 532.259 363.875 532.258C362.578 532.107 361.319 531.934 360.114 531.776C359.967 531.756 359.789 531.736 359.642 531.717C359.338 531.677 359.055 531.634 358.761 531.594C358.614 531.573 358.467 531.554 358.32 531.532C357.89 531.471 357.439 531.412 357.009 531.348C356.872 531.328 356.715 531.309 356.579 531.287C356.011 531.202 355.497 531.127 354.95 531.037C354.687 530.993 354.38 530.922 354.117 530.876C353.717 530.807 353.36 530.757 352.98 530.685C352.717 530.638 352.431 530.571 352.188 530.522C351.935 530.473 351.725 530.443 351.482 530.393C351.472 530.391 351.452 530.398 351.441 530.395C351.188 530.345 350.974 530.28 350.731 530.229C350.372 530.151 350.023 530.078 349.673 529.998C349.44 529.943 349.197 529.887 348.963 529.831C348.741 529.775 348.528 529.72 348.305 529.663C346.957 529.321 345.667 528.946 344.477 528.535C344.038 528.381 343.578 528.234 343.139 528.085C343.117 528.078 343.105 528.054 343.094 528.048C342.676 527.904 342.249 527.774 341.841 527.632C341.777 527.611 341.723 527.583 341.658 527.562C341.251 527.419 340.824 527.288 340.417 527.147C340.256 527.094 340.114 527.025 339.964 526.972C339.9 526.95 339.846 526.924 339.781 526.902C339.631 526.85 339.483 526.815 339.333 526.764C339.268 526.739 339.184 526.721 339.119 526.696C338.98 526.649 338.851 526.603 338.712 526.557C338.562 526.504 338.41 526.435 338.26 526.381C338.206 526.361 338.141 526.331 338.087 526.311C338.001 526.282 337.897 526.273 337.822 526.243C337.693 526.202 337.574 526.146 337.456 526.104C337.37 526.071 337.283 526.03 337.186 525.998C337.079 525.96 336.983 525.933 336.876 525.894C336.769 525.858 336.673 525.828 336.565 525.79C336.458 525.755 336.352 525.723 336.255 525.687C335.944 525.576 335.621 525.449 335.309 525.337C335.223 525.305 335.137 525.265 335.04 525.232C334.922 525.189 334.803 525.135 334.684 525.092C334.609 525.065 334.536 525.051 334.46 525.023C334.321 524.974 334.193 524.934 334.053 524.884C333.988 524.858 333.904 524.842 333.839 524.816C333.678 524.759 333.534 524.66 333.383 524.602C333.34 524.587 333.288 524.584 333.245 524.569C333.105 524.514 332.947 524.486 332.807 524.431C332.722 524.402 332.655 524.354 332.579 524.324C332.547 524.314 332.515 524.3 332.483 524.289C332.45 524.274 332.398 524.271 332.355 524.255C332.301 524.235 332.277 524.205 332.213 524.184C332.17 524.166 332.129 524.168 332.086 524.15C332.021 524.128 331.967 524.104 331.903 524.08C331.828 524.053 331.75 524.001 331.675 523.974C331.653 523.963 331.621 523.949 331.588 523.938C331.545 523.922 331.494 523.92 331.461 523.904C331.364 523.871 331.278 523.834 331.192 523.799C331.03 523.738 330.849 523.688 330.698 523.626C330.677 523.619 330.664 523.596 330.643 523.589C330.589 523.565 330.524 523.543 330.47 523.519C330.427 523.5 330.382 523.465 330.328 523.447C330.318 523.443 330.298 523.454 330.287 523.448C330.104 523.375 329.928 523.275 329.745 523.2C329.734 523.196 329.714 523.206 329.704 523.201C329.617 523.165 329.521 523.133 329.434 523.096C329.423 523.092 329.404 523.103 329.393 523.097C329.199 523.019 328.993 522.931 328.809 522.85C328.702 522.81 328.633 522.748 328.526 522.708C328.31 522.617 328.117 522.554 327.901 522.462C327.804 522.421 327.729 522.398 327.632 522.357C327.61 522.349 327.608 522.328 327.587 522.32C327.5 522.285 327.393 522.25 327.317 522.215C327.198 522.163 327.081 522.126 326.962 522.074C326.886 522.044 326.799 521.999 326.734 521.968C326.701 521.955 326.669 521.945 326.637 521.932C326.551 521.895 326.492 521.826 326.405 521.788C326.394 521.782 326.375 521.795 326.364 521.789C326.158 521.698 325.941 521.598 325.735 521.506C325.627 521.459 325.519 521.411 325.421 521.364C325.367 521.339 325.292 521.319 325.238 521.294C325.194 521.273 325.15 521.243 325.106 521.222C325.02 521.186 324.955 521.152 324.878 521.115C324.846 521.102 324.814 521.093 324.782 521.08C324.749 521.061 324.698 521.065 324.654 521.047C324.589 521.017 324.532 520.968 324.467 520.939C324.435 520.921 324.373 520.923 324.34 520.905C324.275 520.875 324.218 520.826 324.153 520.797C324.121 520.782 324.099 520.776 324.067 520.761C323.991 520.726 323.915 520.69 323.839 520.655C323.806 520.642 323.774 520.633 323.742 520.619C323.666 520.584 323.6 520.548 323.524 520.513C323.492 520.5 323.46 520.491 323.428 520.478C323.352 520.442 323.276 520.408 323.2 520.371C323.156 520.349 323.112 520.323 323.068 520.299C323.003 520.27 322.946 520.221 322.881 520.191C322.87 520.186 322.851 520.198 322.84 520.193C322.742 520.148 322.665 520.095 322.567 520.049C322.556 520.041 322.533 520.021 322.522 520.012C322.435 519.97 322.34 519.951 322.253 519.907C322.133 519.849 322.054 519.787 321.934 519.728C321.608 519.57 321.304 519.428 320.977 519.264C320.813 519.179 320.65 519.102 320.476 519.016C320.366 518.956 320.267 518.895 320.158 518.835C320.114 518.809 320.07 518.783 320.027 518.766C319.938 518.714 319.84 518.663 319.753 518.62C319.732 518.612 319.719 518.594 319.698 518.585C319.61 518.533 319.511 518.482 319.424 518.439C319.413 518.43 319.401 518.412 319.379 518.404C319.292 518.361 319.198 518.346 319.11 518.294C318.968 518.226 318.844 518.12 318.701 518.043C318.626 518.009 318.539 517.975 318.474 517.941C318.43 517.915 318.417 517.888 318.373 517.862C318.307 517.827 318.221 517.794 318.155 517.759C318.111 517.733 318.057 517.708 318.013 517.682C317.949 517.657 317.892 517.613 317.827 517.579C317.783 517.553 317.74 517.536 317.696 517.51C317.63 517.475 317.574 517.432 317.508 517.397C317.464 517.371 317.421 517.354 317.377 517.328C317.312 517.294 317.256 517.25 317.19 517.216C317.136 517.19 317.062 517.175 317.007 517.149C316.909 517.097 316.829 517.027 316.73 516.966C316.719 516.957 316.707 516.94 316.685 516.931C316.641 516.905 316.598 516.888 316.554 516.862C316.488 516.819 316.432 516.784 316.367 516.75C316.313 516.724 316.238 516.709 316.184 516.683C316.129 516.648 316.062 516.605 316.007 516.57C315.953 516.544 315.91 516.528 315.866 516.502C315.701 516.407 315.536 516.312 315.361 516.217C315.349 516.199 315.337 516.181 315.315 516.173C315.228 516.13 315.131 516.087 315.043 516.036C315.009 516.009 314.986 515.983 314.952 515.956C314.92 515.948 314.888 515.94 314.855 515.923C314.767 515.871 314.718 515.79 314.619 515.739C314.598 515.73 314.566 515.722 314.533 515.705C314.445 515.653 314.345 515.584 314.256 515.523C314.246 515.523 314.226 515.533 314.215 515.524C314.105 515.464 313.997 515.412 313.897 515.343C313.875 515.334 313.863 515.316 313.852 515.308C313.742 515.247 313.674 515.186 313.574 515.125C313.53 515.099 313.477 515.082 313.433 515.056L312.837 514.692C312.606 514.554 312.374 514.406 312.142 514.259C312.13 514.25 312.118 514.232 312.097 514.224C311.877 514.094 311.677 513.963 311.456 513.825C311.435 513.816 311.423 513.798 311.411 513.789C311.302 513.729 311.189 513.641 311.079 513.572C311.068 513.563 311.055 513.545 311.034 513.537C310.934 513.467 310.816 513.425 310.716 513.356C310.572 513.269 310.395 513.156 310.252 513.07C310.173 513.008 310.104 512.937 310.016 512.885C309.982 512.859 309.929 512.843 309.885 512.817C309.807 512.764 309.73 512.721 309.653 512.669C309.553 512.608 309.475 512.547 309.376 512.486C309.343 512.469 309.318 512.433 309.286 512.416C309.241 512.381 309.188 512.374 309.143 512.339C309.066 512.286 308.99 512.252 308.912 512.2C308.812 512.13 308.7 512.052 308.59 511.982C308.578 511.964 308.556 511.956 308.544 511.938C308.489 511.903 308.413 511.869 308.358 511.835C308.291 511.791 308.243 511.729 308.177 511.685C308.11 511.642 308.053 511.589 307.987 511.545C307.931 511.502 307.866 511.476 307.8 511.433C307.732 511.38 307.645 511.337 307.567 511.285C307.523 511.259 307.477 511.215 307.433 511.18C307.355 511.128 307.278 511.085 307.2 511.032L307.065 510.927C306.976 510.866 306.871 510.842 306.792 510.781C306.737 510.746 306.691 510.702 306.647 510.676C306.435 510.528 306.211 510.352 305.998 510.195C305.965 510.178 305.934 510.179 305.902 510.162C305.801 510.092 305.691 510.022 305.579 509.944C305.547 509.927 305.522 509.891 305.49 509.874C305.389 509.804 305.309 509.724 305.209 509.654C305.176 509.637 305.145 509.638 305.112 509.621C304.867 509.446 304.619 509.244 304.373 509.07C304.362 509.061 304.333 509.08 304.332 509.071C304.188 508.975 304.044 508.88 303.91 508.784C327.338 527.182 364.012 541.91 406.336 547.748C437.058 551.984 466.049 550.891 489.957 545.601Z" fill="url(#paint10_radial)"/>
<path opacity="0.45588" d="M256.977 458.794C245.558 413.939 209.532 362.752 154.623 319.902C109.142 284.41 58.91 261.063 13.7092 251.658L13.1016 252.393C17.1738 267.686 22.0659 282.705 27.7143 297.432C49.9635 306.196 75.3542 317.17 105.625 331.572C151.677 353.489 149.723 372.166 176.267 403.174C182.22 410.137 186.302 415.48 189.305 419.779L189.336 419.778C187.162 415.496 185.061 410.616 182.927 405.096C190.707 421.965 197.932 428.829 205.196 436.48C213.91 445.664 216.654 444.791 248.055 455.576C251.217 456.667 254.181 457.746 256.977 458.794Z" fill="url(#paint11_radial)"/>
<defs>
<linearGradient id="paint0_linear" x1="801.885" y1="358.693" x2="874.495" y2="418.893" gradientUnits="userSpaceOnUse">
<stop stop-opacity="0.67843"/>
<stop offset="0.57" stop-opacity="0.32941"/>
<stop offset="1" stop-opacity="0"/>
</linearGradient>
<radialGradient id="paint1_radial" cx="0" cy="0" r="1" gradientUnits="userSpaceOnUse" gradientTransform="translate(831.068 401.015) rotate(66.0776) scale(55.8458 145.229)">
<stop stop-color="#1F1F1F"/>
<stop offset="1" stop-opacity="0"/>
</radialGradient>
<radialGradient id="paint2_radial" cx="0" cy="0" r="1" gradientUnits="userSpaceOnUse" gradientTransform="translate(898.485 277.429) rotate(64.3569) scale(42.4243 101.414)">
<stop stop-color="#1F1F1F"/>
<stop offset="1" stop-opacity="0"/>
</radialGradient>
<radialGradient id="paint3_radial" cx="0" cy="0" r="1" gradientUnits="userSpaceOnUse" gradientTransform="translate(718.05 493.831) rotate(93.8057) scale(28.5311 81.7477)">
<stop stop-color="#1F1F1F"/>
<stop offset="1" stop-opacity="0"/>
</radialGradient>
<radialGradient id="paint4_radial" cx="0" cy="0" r="1" gradientUnits="userSpaceOnUse" gradientTransform="translate(750.906 543.89) rotate(89.8101) scale(15.6598 103.145)">
<stop stop-color="#1F1F1F"/>
<stop offset="1" stop-opacity="0"/>
</radialGradient>
<radialGradient id="paint5_radial" cx="0" cy="0" r="1" gradientUnits="userSpaceOnUse" gradientTransform="translate(1073.65 397.404) rotate(142.222) scale(176.284 74.0924)">
<stop stop-color="#1F1F1F"/>
<stop offset="1" stop-opacity="0"/>
</radialGradient>
<linearGradient id="paint6_linear" x1="360.8" y1="360.693" x2="290.878" y2="414.632" gradientUnits="userSpaceOnUse">
<stop stop-opacity="0.67843"/>
<stop offset="0.57" stop-opacity="0.32941"/>
<stop offset="1" stop-opacity="0"/>
</linearGradient>
<radialGradient id="paint7_radial" cx="0" cy="0" r="1" gradientUnits="userSpaceOnUse" gradientTransform="translate(328.285 394.408) rotate(122.282) scale(49.8553 143.843)">
<stop stop-color="#1F1F1F"/>
<stop offset="1" stop-opacity="0"/>
</radialGradient>
<radialGradient id="paint8_radial" cx="0" cy="0" r="1" gradientUnits="userSpaceOnUse" gradientTransform="translate(270.637 278.377) rotate(124.186) scale(37.9814 100.164)">
<stop stop-color="#1F1F1F"/>
<stop offset="1" stop-opacity="0"/>
</radialGradient>
<radialGradient id="paint9_radial" cx="0" cy="0" r="1" gradientUnits="userSpaceOnUse" gradientTransform="translate(433.883 488.729) rotate(90.7903) scale(25.1695 81.9343)">
<stop stop-color="#1F1F1F"/>
<stop offset="1" stop-opacity="0"/>
</radialGradient>
<radialGradient id="paint10_radial" cx="0" cy="0" r="1" gradientUnits="userSpaceOnUse" gradientTransform="translate(397.096 528.829) rotate(95.3427) scale(13.7787 103.652)">
<stop stop-color="#1F1F1F"/>
<stop offset="1" stop-opacity="0"/>
</radialGradient>
<radialGradient id="paint11_radial" cx="0" cy="0" r="1" gradientUnits="userSpaceOnUse" gradientTransform="translate(86.3268 363.524) rotate(40.2468) scale(171.172 67.4691)">
<stop stop-color="#1F1F1F"/>
<stop offset="1" stop-opacity="0"/>
</radialGradient>
</defs>
</svg>
