<svg width="77" height="99" viewBox="0 0 77 99" fill="none" xmlns="http://www.w3.org/2000/svg">
<g clip-path="url(#clip0)">
<path d="M5.33596 45.0933C3.25019 47.0048 1.9517 49.6199 1.69247 52.4311C1.43324 55.2424 2.23175 58.0494 3.93306 60.3073C4.66814 61.2879 5.58372 62.1541 6.70441 62.6477C7.82509 63.1413 9.16564 63.2132 10.2568 62.6477" fill="#F0D7C2"/>
<path d="M3.3262 59.8987C3.92017 60.9937 4.69792 62.0151 5.73164 62.7163C6.17302 63.017 6.88022 62.9729 7.55788 62.9238C6.58979 62.2276 5.85142 61.247 5.2837 60.1978C2.71581 55.4582 3.74953 49.0614 7.67766 45.3661H11.655V45.0654H5.71852C1.79039 48.7639 0.756668 55.1624 3.3262 59.8987Z" fill="#D7AD8C"/>
<path d="M69.1208 44.9446C71.5919 46.3264 73.4596 48.5733 74.3615 51.2492C75.2635 53.925 75.1355 56.8393 74.0022 59.4264C73.51 60.5443 72.8225 61.6034 71.8462 62.3388C70.8699 63.0743 69.5786 63.4535 68.3906 63.156" fill="#D7AD8C"/>
<path d="M67.8828 63.2099C68.9779 63.3439 70.0861 63.1024 71.025 62.5252C72.1276 61.8714 72.9595 60.863 73.5863 59.7844C75.0223 57.326 75.4507 54.4106 74.7825 51.6454C74.1065 48.9356 71.724 46.4988 69.2874 44.9446L69.1233 47.1493C70.4179 48.5303 71.806 50.2121 72.2572 52.0131C72.9246 54.7773 72.4962 57.6913 71.0611 60.1488C70.4343 61.2275 69.6008 62.231 68.4998 62.8896C68.3019 63.0106 68.0957 63.1176 67.8828 63.2099V63.2099Z" fill="#C4987A"/>
<path d="M74.5979 19.3607C73.1572 14.4463 69.2816 10.045 64.2738 8.95491C63.9636 7.87751 63.4197 6.88108 62.6806 6.03598C61.7929 5.03413 60.6541 4.28397 59.4629 3.66946C53.5281 0.613247 46.4578 0.891084 39.8305 1.73277C37.1805 2.07108 34.5355 2.48947 31.9545 3.18896C21.4319 6.04742 12.3516 13.7909 7.90663 23.713C3.46165 33.635 4.25581 45.5379 9.1471 55.2557L43.4222 30.3843V54.6445H68.4185C66.9664 50.2742 67.6572 42.6942 69.6918 38.5103C71.203 35.405 73.4017 33.2657 74.3632 29.8368C75.3592 26.3034 75.6414 22.9285 74.5979 19.3607Z" fill="#8376A5"/>
<path d="M74.9741 30.4593C74.5393 32.0331 73.837 33.321 73.0625 34.5647C72.928 26.6219 71.2576 18.576 67.1375 11.7853C66.7275 11.0897 66.2622 10.4278 65.7461 9.80615C70.3404 11.1839 73.8518 15.3629 75.2071 19.9897C76.2523 23.5509 75.9651 26.9258 74.9741 30.4593Z" fill="#655A8E"/>
<path d="M9.18606 54.1328C11.6637 52.3203 12.6958 49.1709 13.4604 46.2046C15.0554 40.0215 16.1214 33.7149 16.6469 27.3525L31.5784 31.7914C33.2192 32.2817 34.8797 32.772 36.5894 32.8341C40.8835 32.9975 44.7493 30.4953 48.7725 28.9934C52.7011 27.5322 56.9164 26.999 61.0869 27.4359C61.0869 27.4359 62.3175 47.3258 69.0991 54.3158C69.232 66.2465 61.9549 76.7814 53.9543 85.6592C52.1051 87.7102 50.1804 89.7581 47.793 91.1538L47.7585 91.1734C45.9458 92.248 43.8789 92.8233 41.7695 92.8404L36.87 92.865C34.7513 92.8759 32.669 92.3163 30.8433 91.2453L30.6792 91.1538C28.2918 89.7581 26.3671 87.7119 24.5179 85.6592C16.5337 76.7814 8.90876 66.2449 9.03674 54.3158" fill="#EBCBAC"/>
<path d="M24.3592 86.3439C16.4323 77.5185 8.93543 67.0587 9.06013 55.2179L9.20944 55.0333C11.6854 53.2208 12.7192 50.0714 13.4756 47.1051C15.0731 40.9228 16.1413 34.6167 16.6686 28.2546L21.2925 29.6291C19.8108 36.4165 13.9924 66.8757 24.3592 86.3439Z" fill="#F0D7C2"/>
<path d="M53.4537 85.86C52.4597 86.9941 51.4082 88.0769 50.3033 89.1042C53.9886 82.544 56.1085 75.0816 56.8666 67.575C57.9052 57.2624 56.4991 46.8304 54.0444 36.758C53.9541 36.3886 53.8524 36.0013 53.5932 35.7218C53.1879 35.2854 52.5266 35.2315 51.931 35.2103C48.5247 35.073 45.0789 34.9144 41.8186 33.924C40.8324 33.6286 39.8747 33.2457 38.957 32.78C42.1451 32.1148 45.1544 30.3644 48.2605 29.2041C52.1927 27.737 56.4135 27.2004 60.5896 27.6367C60.5896 27.6367 61.8186 47.525 68.6018 54.5151C68.7297 66.4457 61.4527 76.9774 53.4537 85.86Z" fill="#D7AD8C"/>
<path d="M64.457 8.89917C69.5928 9.87977 73.58 14.3595 75.0453 19.3589C76.0905 22.9251 75.8017 26.3 74.8106 29.835C73.8491 33.2671 71.6504 35.4016 70.1392 38.5085C68.1046 42.6924 67.7141 50.1237 69.1662 54.4939" stroke="#42565E" stroke-width="1.64082" stroke-miterlimit="10" stroke-linecap="round"/>
<path d="M4.8838 45.0933C2.79778 47.0045 1.49899 49.6195 1.23946 52.4308C0.979921 55.2421 1.77816 58.0492 3.47926 60.3073C4.21435 61.2879 5.12993 62.1541 6.25061 62.6477C7.37129 63.1413 8.71184 63.2132 9.80299 62.6477" stroke="#42565E" stroke-width="1.64082" stroke-miterlimit="10" stroke-linecap="round"/>
<path d="M69.6794 44.843C72.1509 46.2249 74.0188 48.472 74.9208 51.1483C75.8228 53.8245 75.6945 56.7391 74.5608 59.3265C74.0686 60.4444 73.3811 61.5035 72.4048 62.2389C71.4285 62.9744 70.1372 63.3535 68.9492 63.0561" stroke="#42565E" stroke-width="1.64082" stroke-miterlimit="10" stroke-linecap="round"/>
<path d="M39.2852 57.7429V70.6427H43.804L39.2852 57.7429Z" fill="#D7AD8C"/>
<path d="M39.3157 58.4177L39.1303 69.2158L39.1172 69.966" stroke="#42565E" stroke-width="1.64082" stroke-miterlimit="10" stroke-linecap="square"/>
<path d="M56.8619 50.4323C56.9554 51.2495 56.7946 51.9032 56.683 51.8918C56.5715 51.8804 56.5354 51.2381 56.4451 50.4781C56.3549 49.7181 56.2482 49.0856 56.3614 49.048C56.4747 49.0105 56.77 49.6152 56.8619 50.4323Z" fill="#DCB79B"/>
<path d="M26.7262 33.4632C27.984 33.7422 29.208 34.1554 30.377 34.6955C31.2778 35.1384 31.7684 35.5585 31.6897 35.7693C31.6109 35.9801 30.9775 35.9622 30.0242 35.82C29.0709 35.6778 27.7763 35.4261 26.3406 35.0861C25.0952 34.8107 23.8743 34.4352 22.6897 33.9634C21.7758 33.5744 21.2524 33.2001 21.318 32.9828C21.3837 32.7654 22.0137 32.7294 22.9835 32.8193C24.2439 32.9518 25.4942 33.167 26.7262 33.4632V33.4632Z" fill="white"/>
<path d="M65.563 20.9489C65.7382 21.7002 65.8426 22.4662 65.8747 23.2369C65.8747 23.5916 65.8862 23.9283 65.8599 24.2437C65.8485 24.4071 65.8435 24.5526 65.8255 24.698L65.7681 25.1148C65.604 26.1738 65.3053 26.7802 65.1445 26.7491C64.9837 26.7181 64.9411 26.0709 64.8804 25.0707L64.8574 24.6784C64.8574 24.5428 64.8311 24.4006 64.8197 24.2551C64.8016 23.9642 64.7573 23.6537 64.7212 23.3285C64.6326 22.6747 64.5128 21.9736 64.3405 21.2398C64.1683 20.506 63.9484 19.8244 63.7351 19.205C63.6186 18.8994 63.5185 18.6036 63.4069 18.3339C63.3511 18.1983 63.3035 18.0643 63.2428 17.9401L63.087 17.5789C62.6882 16.6587 62.4175 16.0704 62.5635 15.9609C62.7096 15.8514 63.2281 16.273 63.8598 17.1409L64.0993 17.4857C64.1814 17.6066 64.2552 17.739 64.3356 17.8747C64.4997 18.1443 64.6474 18.4467 64.8033 18.767C65.1242 19.4691 65.3785 20.1996 65.563 20.9489Z" fill="#40565A"/>
<path d="M71.7701 19.326C71.7279 20.3337 71.5995 21.3359 71.3862 22.3218C71.2763 22.7729 71.1745 23.2027 71.0416 23.5933C70.9776 23.7894 70.9218 23.9806 70.8546 24.1588L70.6544 24.6785C70.5377 24.9712 70.4057 25.2576 70.2589 25.5365C70.195 25.6607 70.1375 25.7751 70.0768 25.8781C70.0161 25.9811 69.9554 26.0726 69.8996 26.1543C69.6797 26.4812 69.5222 26.6446 69.4418 26.607C69.2777 26.5302 69.5042 25.713 69.8044 24.4105L69.9209 23.8989C69.962 23.7224 69.9915 23.5345 70.0309 23.3432C70.1146 22.9608 70.172 22.5473 70.2458 22.1159C70.383 21.1774 70.4728 20.2326 70.5149 19.2852C70.5423 18.3374 70.5221 17.3888 70.4542 16.4431C70.4115 16.0083 70.3836 15.5916 70.3279 15.2042C70.3016 15.0114 70.2868 14.8218 70.2589 14.642L70.1802 14.1239C69.9751 12.8034 69.8028 11.9715 69.9767 11.9078C70.0588 11.8784 70.2032 12.05 70.4001 12.3981C70.4493 12.4842 70.504 12.58 70.5641 12.6857C70.6166 12.7936 70.6659 12.9113 70.7282 13.0404C70.853 13.3292 70.9625 13.6243 71.0564 13.9246L71.2205 14.4492C71.2746 14.6322 71.3173 14.8267 71.3665 15.0277C71.4715 15.4281 71.5404 15.8629 71.6175 16.3205C71.7538 17.3162 71.8049 18.3217 71.7701 19.326V19.326Z" fill="#40565A"/>
<path d="M67.1549 38.8759C67.2356 38.1282 67.4008 37.3919 67.6472 36.681C67.7581 36.3726 67.8868 36.0708 68.0328 35.7772C68.1033 35.6399 68.164 35.5059 68.2379 35.3833L68.4528 35.0336C68.5771 34.8346 68.7152 34.6445 68.8663 34.4648C68.9319 34.3848 68.9927 34.3096 69.0534 34.2458C69.1141 34.1821 69.1764 34.1265 69.2322 34.0824C69.4537 33.8863 69.6063 33.8062 69.6769 33.8569C69.8262 33.9647 69.5751 34.5351 69.2503 35.4324L69.1239 35.7854C69.0796 35.908 69.0452 36.0387 69.0025 36.1711C68.9106 36.4342 68.8384 36.7235 68.758 37.0226C68.4257 38.3285 68.2886 39.6761 68.3511 41.0218C68.3724 41.3323 68.3806 41.6298 68.4167 41.9044C68.4331 42.0433 68.4397 42.1789 68.4578 42.3064L68.5103 42.6774C68.6464 43.6237 68.7761 44.2316 68.6071 44.3117C68.5283 44.3461 68.3938 44.2366 68.2182 44.0012C68.1744 43.9424 68.1279 43.8754 68.0787 43.8002C68.0311 43.725 67.9885 43.6367 67.9409 43.5485C67.8277 43.34 67.7295 43.1237 67.6472 42.9013L67.5077 42.5156C67.4618 42.3799 67.429 42.2361 67.3879 42.089C67.3048 41.7721 67.2401 41.4507 67.1943 41.1264C67.0963 40.3801 67.0831 39.6252 67.1549 38.8759V38.8759Z" fill="#40565A"/>
<path d="M55.8449 1.79796C52.2383 1.97447 48.6471 2.38556 45.0943 3.02862C43.5453 3.30973 41.9931 3.63659 40.5361 4.22496C39.2841 4.73977 38.1142 5.42946 36.8458 5.89688L36.6818 5.95408C34.1992 6.83172 31.2342 7.01313 29.5918 9.05933L29.8789 8.49875C30.0222 8.22309 30.1644 7.94689 30.3055 7.67014C27.8901 7.83236 25.603 8.81276 23.8243 10.4485C23.6864 10.5776 23.5404 10.7002 23.3927 10.8195C21.916 12.0028 20.0668 12.6663 18.6557 14.0571C18.6065 13.5864 18.5578 13.1152 18.5097 12.6434C18.2909 12.7774 18.0754 12.9147 17.8632 13.0553C16.3257 14.0669 14.9097 15.2665 13.7923 16.7309C12.5928 18.3162 11.7724 20.2284 11.6773 22.2092C11.6454 22.0954 11.57 21.9986 11.4672 21.9395C11.4311 21.9935 11.395 22.049 11.3606 22.103C8.96754 25.7969 7.51865 30.0181 7.14039 34.3981C6.98834 33.9013 6.83684 33.4055 6.68589 32.9108C6.67276 33.1021 6.65963 33.2982 6.65143 33.5041C6.53293 36.6466 6.71423 39.7932 7.1929 42.9016C6.17629 41.8032 5.43472 40.481 5.02865 39.0429C4.87337 35.7673 5.16649 32.486 5.89993 29.2892C6.37792 27.2278 7.05546 25.2174 7.92307 23.2862C8.78276 21.3725 9.81063 19.5381 10.9947 17.8047C11.0673 17.3084 11.1837 16.8195 11.3425 16.3436C14.7529 11.7231 19.1731 7.93518 24.2689 5.26603C23.6262 5.77922 23.01 6.32471 22.423 6.90037C24.7281 5.48176 27.1841 4.32245 29.746 3.44374C30.4778 3.19205 31.2173 2.96434 31.9644 2.76059C33.9238 2.24532 35.9121 1.84638 37.9189 1.56589C38.5572 1.4711 39.1971 1.38611 39.8354 1.30276C41.5419 1.08376 43.2811 0.905615 45.0139 0.812458C48.7024 0.613068 52.3894 0.792846 55.8449 1.79796Z" fill="#A699D6"/>
<path d="M8.72147 54.9006C3.82197 45.1878 3.03274 33.2849 7.48101 23.3628C11.9293 13.4408 21.0063 5.694 31.5338 2.83881C34.1116 2.13932 36.7566 1.72092 39.4098 1.38262C46.037 0.53603 53.1074 0.263095 59.0422 3.31931C60.2334 3.93218 61.3722 4.68398 62.2599 5.68583C64.1698 7.84479 64.6965 11.084 63.712 13.7938C62.7275 16.5035 60.3434 18.6249 57.5753 19.46" stroke="#42565E" stroke-width="1.64082" stroke-miterlimit="10" stroke-linecap="round"/>
<path d="M19.9733 9.10529C20.5484 8.39408 21.1717 7.72298 21.8389 7.09669C22.1523 6.81395 22.4477 6.54592 22.7447 6.31384C23.0416 6.08177 23.3157 5.8693 23.5766 5.68789C24.625 4.96225 25.3634 4.65826 25.4569 4.79391C25.667 5.09626 23.2599 6.98392 20.9562 9.8865C18.6229 12.7662 17.3053 15.5266 16.9624 15.3844C16.8098 15.3223 16.9427 14.5395 17.4218 13.3595C17.5433 13.0653 17.6811 12.7466 17.8517 12.4132C18.0224 12.0798 18.2094 11.7284 18.4178 11.3607C18.884 10.5744 19.4037 9.82079 19.9733 9.10529V9.10529Z" fill="#40565A"/>
<path d="M25.4663 7.31208C26.1116 6.54375 26.802 5.81411 27.5338 5.12697C27.8767 4.81481 28.2016 4.52063 28.5183 4.26241C28.835 4.00418 29.1385 3.7721 29.4207 3.56127C30.5545 2.74411 31.347 2.37148 31.4455 2.50549C31.6621 2.80131 29.0499 4.94392 26.4279 8.11291C23.7861 11.2606 22.1502 14.2188 21.8188 14.0554C21.6695 13.9834 21.8877 13.1401 22.4899 11.8784C22.6408 11.5646 22.8181 11.2247 23.0166 10.8651C23.2151 10.5056 23.4448 10.1313 23.6893 9.73907C24.2331 8.89587 24.8265 8.08546 25.4663 7.31208V7.31208Z" fill="#40565A"/>
<path d="M32.0387 5.24835C32.7754 4.48493 33.5948 3.80524 34.4819 3.22177C35.2056 2.74619 35.9751 2.34378 36.779 2.02053C38.1524 1.47956 39.0762 1.39621 39.1156 1.55147C39.155 1.70674 38.369 2.10551 37.1712 2.81482C35.6191 3.72216 34.1974 4.83432 32.9444 6.12108C31.4776 7.62958 30.3372 9.20344 29.4725 10.3262C28.6078 11.449 28.0318 12.1354 27.8809 12.0439C27.7299 11.9524 28.045 11.1173 28.7243 9.84737C29.6144 8.17161 30.7294 6.62438 32.0387 5.24835V5.24835Z" fill="#40565A"/>
<path d="M40.7793 2.50392C41.6522 1.97492 42.5722 1.52738 43.5277 1.16703C44.3101 0.869742 45.1203 0.650751 45.9463 0.513298C47.3623 0.289393 48.2434 0.429946 48.2566 0.590111C48.2697 0.750277 47.4362 0.949666 46.1563 1.37296C44.5022 1.92669 42.916 2.66406 41.4275 3.57114C39.6767 4.63183 38.1901 5.77913 37.0908 6.59794C35.9914 7.41674 35.276 7.90541 35.1546 7.77793C35.0332 7.65045 35.5353 6.94442 36.5017 5.93603C37.7748 4.61498 39.2124 3.46158 40.7793 2.50392V2.50392Z" fill="#40565A"/>
<path d="M6.67222 31.4546C6.79638 32.215 6.96513 32.9675 7.17759 33.7083C7.28588 34.0466 7.37777 34.3751 7.49099 34.6726C7.54513 34.8213 7.58943 34.97 7.64522 35.1089L7.8011 35.5061C8.20146 36.521 8.50009 37.1568 8.34914 37.2646C8.27858 37.3153 8.1145 37.2172 7.8733 36.9917C7.81313 36.935 7.74805 36.8708 7.67804 36.7988C7.61077 36.7253 7.54513 36.6354 7.4713 36.5504C7.30431 36.3472 7.15031 36.1338 7.01022 35.9114L6.77231 35.5208C6.69026 35.3835 6.61807 35.2348 6.53767 35.0828C6.36946 34.7568 6.21831 34.4224 6.0848 34.0809C5.47428 32.5045 5.21344 30.8152 5.32018 29.1289C5.34441 28.763 5.38768 28.3986 5.4498 28.0372C5.48098 27.8737 5.50395 27.7103 5.54169 27.5469L5.65491 27.1023C5.72117 26.8485 5.80337 26.599 5.90103 26.3554C5.94369 26.2476 5.98143 26.1479 6.02245 26.0563C6.06347 25.9648 6.10941 25.8929 6.15043 25.8145C6.31452 25.5268 6.43922 25.3846 6.52126 25.4108C6.69683 25.468 6.60658 26.1642 6.52946 27.251L6.50157 27.6776C6.49172 27.8247 6.50157 27.98 6.4868 28.1385C6.46875 28.4555 6.4868 28.7922 6.4868 29.1518C6.50345 29.9223 6.56536 30.6912 6.67222 31.4546V31.4546Z" fill="#40565A"/>
<path d="M6.29055 40.981C6.54574 41.4606 6.82616 41.9265 7.13065 42.3767C7.27832 42.581 7.41123 42.782 7.5507 42.9569C7.61961 43.0468 7.68197 43.1367 7.7476 43.2184L7.93793 43.4553C8.43018 44.0617 8.75835 44.4539 8.65169 44.5994C8.54504 44.7448 8.0331 44.5994 7.32919 44.096L7.05845 43.8933C6.96493 43.8214 6.87796 43.7299 6.7828 43.6531C6.58251 43.4725 6.39294 43.2804 6.21507 43.0778C5.3977 42.1414 4.8166 41.0241 4.5201 39.8189C4.45655 39.5577 4.40834 39.2931 4.37571 39.0263C4.36094 38.9004 4.34453 38.7811 4.33797 38.6635C4.33141 38.5458 4.33797 38.4347 4.32812 38.3268C4.32812 37.4671 4.51354 36.9556 4.67762 36.9605C4.8417 36.9654 4.99102 37.459 5.20761 38.2042L5.29293 38.4951C5.32246 38.5965 5.3602 38.6994 5.39466 38.8073C5.45701 39.023 5.54562 39.2469 5.62766 39.4839C5.82188 39.9942 6.04315 40.494 6.29055 40.981V40.981Z" fill="#40565A"/>
<path d="M11.5211 20.2086C11.5622 20.721 11.629 21.231 11.7213 21.7367C11.7721 21.9704 11.8099 22.196 11.864 22.4019C11.8903 22.5065 11.9083 22.6095 11.9346 22.7059L12.0068 22.9854C12.1922 23.6996 12.3235 24.1719 12.1709 24.2683C12.0183 24.3647 11.6212 24.0346 11.1864 23.3335L11.0223 23.054C10.9681 22.9559 10.9222 22.8497 10.8713 22.7402C10.7643 22.5067 10.6712 22.2671 10.5924 22.0227C10.2322 20.8935 10.1483 19.6949 10.3479 18.5269C10.3923 18.2741 10.4514 18.0242 10.5251 17.7784C10.5612 17.6623 10.5907 17.5512 10.6301 17.4515L10.7499 17.1524C11.0781 16.399 11.4407 16.0231 11.59 16.0917C11.7393 16.1604 11.6917 16.6507 11.6081 17.3845L11.5752 17.6721C11.5638 17.7718 11.5588 17.8764 11.5473 17.9826C11.5227 18.1951 11.5162 18.4239 11.4981 18.6625C11.4798 19.178 11.4875 19.694 11.5211 20.2086Z" fill="#40565A"/>
<path d="M58.7315 28.488C55.3843 28.4477 52.0585 29.0257 48.9227 30.1926C47.1785 30.8464 45.4655 31.6799 43.7328 32.4088V31.7355L41.7507 33.1769C40.9887 33.4431 40.2091 33.6561 39.4174 33.8143C39.1631 33.8634 38.9071 33.9059 38.6479 33.9418C38.0151 34.0269 37.3761 34.0587 36.738 34.0366C35.0266 33.9729 33.3661 33.4809 31.7285 32.9939L22.4923 30.2482L20.1066 29.5389L16.802 28.5583C16.5011 32.1953 16.0237 35.812 15.3695 39.4087C14.8959 42.0247 14.3276 44.6228 13.6647 47.2028C13.6483 47.2698 13.6303 47.3368 13.6138 47.4039C12.8492 50.3685 11.8171 53.5195 9.34771 55.3304L9.19675 55.5151C9.19675 55.6981 9.19675 55.8828 9.19675 56.0642C8.85984 55.3745 8.54425 54.675 8.25 53.9657C10.091 52.4703 11.3544 50.3032 11.9812 48.0102C12.6901 45.4149 12.6376 42.661 12.2109 40.0019C12.2378 40.0373 12.2739 40.0646 12.3153 40.081C12.3566 40.0975 12.4017 40.1023 12.4456 40.0951C12.6819 40.0608 12.9378 39.7094 13.0035 39.4119C13.5949 36.7723 13.8354 34.0666 13.7189 31.3645C13.7189 31.2566 13.709 31.1504 13.7041 31.0376L14.2341 31.5933C15.2186 29.7187 14.9314 26.45 15.2678 24.3613C17.5469 26.4664 23.2701 26.5187 26.1104 25.2618C25.3999 25.878 25.2899 27.3636 24.4531 27.8114C24.7042 27.8114 23.0945 28.6286 23.3456 28.6188C27.1979 28.4375 30.9285 27.2174 34.1389 25.0886C33.2791 26.8864 31.7745 29.449 29.8728 30.0603C30.1501 30.1191 30.3076 29.0274 30.5849 29.0797C31.9489 29.3531 33.3212 29.5803 34.7017 29.7612C36.6805 30.0243 38.7365 30.1894 40.6366 29.5798C43.0141 28.8182 44.8436 26.9518 46.5698 25.1523C46.5698 25.4683 46.5506 25.7843 46.5123 26.1003C46.4014 27.1876 46.1247 28.2518 45.6919 29.2562L51.0426 26.9877C51.0508 27.0694 51.0574 27.1511 51.0623 27.2345C51.1032 28.0764 50.901 28.9124 50.4798 29.6435C53.231 28.3578 55.9432 26.9959 58.6167 25.5577C58.9797 26.4948 59.0201 27.5255 58.7315 28.488V28.488Z" fill="#655A8E"/>
<path d="M67.9317 52.17C66.5698 50.3967 65.4622 48.0842 64.563 45.5804C64.5499 45.5444 64.5368 45.5084 64.5253 45.4741C62.6794 40.0661 61.7622 33.8834 61.3438 30.1865C63.1011 34.5878 65.4458 39.9255 67.825 44.1519C67.4624 46.914 67.4689 49.8165 67.9317 52.17Z" fill="#655A8E"/>
<path d="M44.6129 28.8787C48.5936 26.6462 51.803 24.7749 52.0048 25.0658C52.2067 25.3567 49.2679 27.7036 45.2315 29.9688C41.1951 32.234 37.6542 33.5219 37.5197 33.2146C37.3851 32.9074 40.6372 31.121 44.6129 28.8787Z" fill="#485D63"/>
<path d="M42.5737 28.3804C43.2973 27.6286 43.9504 26.88 44.5263 26.1805C44.8069 25.8243 45.0809 25.4925 45.3205 25.1673C45.4419 25.0038 45.565 24.8535 45.6749 24.7015L45.9932 24.2635C46.8021 23.1456 47.3059 22.4265 47.4699 22.5066C47.634 22.5866 47.4027 23.443 46.7595 24.7227L46.4986 25.213C46.4067 25.3846 46.2984 25.5579 46.1917 25.7393C45.9817 26.1054 45.7258 26.4764 45.4583 26.8686C44.2664 28.5517 42.8195 30.0403 41.1692 31.2813C40.7852 31.5608 40.421 31.8272 40.0616 32.0495C39.8828 32.1622 39.7138 32.275 39.5448 32.3763L39.0525 32.6525C37.7891 33.3357 36.9195 33.5792 36.8522 33.4337C36.7849 33.2883 37.4724 32.7539 38.5668 31.9105L38.9951 31.5837C39.1444 31.4693 39.2921 31.3418 39.4512 31.2159C39.7696 30.9675 40.0944 30.6831 40.4357 30.3988C41.1134 29.8006 41.8436 29.1273 42.5737 28.3804Z" fill="#485D63"/>
<path d="M27.8452 27.867C29.019 27.5643 30.1642 27.1608 31.2679 26.6609C31.7602 26.4108 32.2524 26.1902 32.679 25.9287C32.894 25.8028 33.1106 25.6933 33.3058 25.5675L33.8654 25.203C34.2329 24.984 34.5315 24.7389 34.8138 24.5493C34.9516 24.4496 35.0878 24.3613 35.2043 24.2747C35.3208 24.1881 35.4258 24.1015 35.5226 24.0296C35.9131 23.7403 36.1642 23.603 36.2281 23.6602C36.2921 23.7174 36.1642 23.9658 35.8688 24.3744C35.7944 24.4758 35.7102 24.5847 35.6161 24.7013C35.5177 24.819 35.4028 24.9366 35.288 25.0657C35.0149 25.3643 34.7222 25.6444 34.4118 25.9042L33.867 26.3569C33.675 26.5121 33.4584 26.6494 33.2419 26.803C32.7766 27.1261 32.2928 27.4218 31.793 27.6889C30.6377 28.2889 29.4172 28.755 28.1553 29.078C26.8883 29.38 25.5907 29.5363 24.2879 29.5438C23.7207 29.5407 23.1542 29.5047 22.5913 29.436C22.3271 29.4 22.0711 29.3804 21.8299 29.333L21.1359 29.1859C20.7396 29.1029 20.3493 28.9937 19.9676 28.859C19.8035 28.8002 19.6394 28.7512 19.5 28.6956C19.3605 28.64 19.2325 28.573 19.1193 28.5175C18.6664 28.2952 18.4367 28.135 18.463 28.0533C18.4892 27.9716 18.778 27.9765 19.2604 28.0533C19.3802 28.0713 19.5131 28.0958 19.6575 28.122C19.8019 28.1481 19.9627 28.1596 20.1317 28.1824C20.4713 28.2233 20.8504 28.3001 21.2803 28.323L21.9464 28.3851C22.1778 28.4063 22.4206 28.4014 22.67 28.4129C23.1623 28.4456 23.7021 28.4129 24.26 28.4031C25.4684 28.3279 26.6679 28.1485 27.8452 27.867V27.867Z" fill="#40565A"/>
<path d="M22.158 26.9668C22.8097 26.7165 23.4448 26.4256 24.0597 26.0957C24.3387 25.9322 24.6111 25.7901 24.8523 25.6315C24.9737 25.5547 25.0967 25.4861 25.2083 25.4093L25.5365 25.1919C26.3569 24.6346 26.8606 24.2391 27.0017 24.3567C27.0674 24.4123 27.0231 24.5839 26.8803 24.847C26.8442 24.9135 26.8026 24.9865 26.7556 25.066C26.7064 25.1429 26.6457 25.2213 26.5817 25.3063C26.4392 25.5008 26.2835 25.6854 26.1157 25.8587L25.8056 26.1496C25.7006 26.2526 25.5824 26.3474 25.4626 26.452C25.2059 26.6712 24.9369 26.8758 24.657 27.0648C23.3633 27.9328 21.8828 28.4854 20.3351 28.6779C19.9997 28.7187 19.6622 28.7405 19.3243 28.7433C19.1602 28.7433 19.0126 28.7433 18.8665 28.7433L18.4448 28.7106C18.2041 28.6899 17.9651 28.6528 17.7294 28.5995C17.6244 28.5766 17.5276 28.557 17.4407 28.5325C17.3537 28.508 17.2766 28.4769 17.2027 28.4508C16.9189 28.3429 16.7728 28.2432 16.786 28.1566C16.8139 27.9752 17.4571 27.9408 18.4416 27.8297L18.8272 27.7823C18.9601 27.766 19.0979 27.7382 19.2406 27.7169C19.5261 27.6793 19.8281 27.6091 20.1447 27.5535C20.8276 27.4004 21.5 27.2044 22.158 26.9668V26.9668Z" fill="#40565A"/>
<path d="M12.2303 41.3489C11.5839 38.3761 10.5813 36.0733 10.9013 35.9001C11.049 35.8216 11.5018 36.3086 12.022 37.2271C12.1516 37.4576 12.2878 37.7174 12.4158 37.9936C12.5437 38.2698 12.6799 38.5706 12.803 38.8974C13.0722 39.6059 13.2915 40.3322 13.4593 41.0711C13.6208 41.8106 13.7305 42.5604 13.7875 43.315C13.8072 43.6632 13.8269 43.9933 13.8203 44.3038C13.8137 44.6143 13.8088 44.902 13.7891 45.1651C13.7071 46.2176 13.5036 46.8485 13.3363 46.8403C12.972 46.8223 12.9047 44.312 12.2303 41.3489Z" fill="#40565A"/>
<path d="M13.933 34.4059C13.7804 33.5708 13.6196 32.783 13.462 32.0672C13.3767 31.7125 13.298 31.371 13.2208 31.0555L13.1076 30.5963L12.996 30.1746C12.7138 29.0992 12.5268 28.4161 12.6892 28.3344C12.8517 28.2526 13.3127 28.8247 13.8279 29.8657L14.0232 30.2792C14.0888 30.4247 14.1479 30.5783 14.2119 30.7368C14.3432 31.0539 14.458 31.4004 14.5794 31.7648C14.8249 32.558 15.0222 33.3652 15.1701 34.182C15.4318 35.6539 15.5636 37.1457 15.5639 38.6405C15.5639 39.7845 15.4573 40.4938 15.285 40.5085C15.1127 40.5233 14.8978 39.8368 14.6795 38.7238C14.4613 37.6109 14.2316 36.0762 13.933 34.4059Z" fill="#40565A"/>
<path d="M56.8314 25.2572C57.0841 24.9303 57.3089 24.6035 57.5107 24.306C57.6059 24.1524 57.7043 24.0102 57.7864 23.8697C57.8684 23.7291 57.9505 23.6 58.0259 23.4807C58.3196 22.9985 58.5346 22.6782 58.7102 22.7142C58.8857 22.7501 58.9661 23.1505 58.8611 23.783C58.8328 23.9546 58.7923 24.1239 58.7397 24.2897C58.6818 24.4811 58.6122 24.6689 58.5313 24.8519C58.1549 25.6936 57.5775 26.4309 56.8495 26.9994C56.6924 27.122 56.528 27.235 56.3572 27.3377C56.2084 27.4293 56.0533 27.5101 55.8929 27.5796C55.3038 27.8362 54.887 27.8444 54.8165 27.6956C54.7459 27.5469 54.9986 27.2478 55.3957 26.8474C55.4941 26.7461 55.6041 26.6399 55.7239 26.5205C55.8436 26.4012 55.9552 26.277 56.0816 26.1479C56.3146 25.8783 56.5738 25.5824 56.8314 25.2572Z" fill="#40565A"/>
<path d="M9.20571 54.484C11.685 52.6715 12.7154 49.5205 13.4817 46.5558C15.0762 40.3727 16.1416 34.0661 16.6665 27.7037L31.598 32.1426C33.2388 32.6329 34.8994 33.1232 36.6091 33.1853C40.9031 33.3488 44.7689 30.8466 48.7922 29.3446C52.7225 27.8813 56.9402 27.347 61.1131 27.7838C61.1131 27.7838 62.3437 47.6737 69.1253 54.6638C69.2582 66.5944 61.9811 77.1294 53.9805 86.0071C52.1313 88.0582 50.2066 90.106 47.8192 91.5017L47.7913 91.523C45.9786 92.5976 43.9117 93.1729 41.8023 93.19L36.9028 93.2145C34.7841 93.2254 32.7017 92.6658 30.8761 91.5949L30.712 91.5034C28.3246 90.1077 26.3999 88.0615 24.5507 86.0087C16.5533 77.1408 8.92349 66.5961 9.0564 54.667" stroke="#42565E" stroke-width="1.64082" stroke-miterlimit="10" stroke-linecap="round"/>
<path d="M60.5552 13.5649C61.1394 12.0629 61.3264 10.5397 61.4757 9.41529C61.6251 8.29087 61.7498 7.55541 61.986 7.5358C62.2223 7.51619 62.5029 8.21569 62.6604 9.41366C62.7506 10.1227 62.7665 10.8391 62.708 11.5514C62.6377 12.4468 62.4382 13.3275 62.1157 14.1663C61.7791 15.0285 61.2863 15.8218 60.6619 16.5067C60.1515 17.0682 59.5391 17.5284 58.857 17.8632C58.4027 18.0943 57.9057 18.2305 57.3967 18.2636C57.034 18.2734 56.8306 18.1999 56.8076 18.0904C56.7551 17.8485 57.418 17.5559 58.2204 16.8662C58.689 16.469 59.1102 16.0193 59.4756 15.5261C59.9178 14.9208 60.2806 14.2617 60.5552 13.5649V13.5649Z" fill="#796F9C"/>
<path d="M64.9774 13.4802C65.1201 12.6842 65.1693 11.8867 65.2743 11.2754C65.3794 10.6642 65.5402 10.2605 65.7666 10.2376C65.993 10.2147 66.2473 10.5645 66.4508 11.1839C66.5674 11.5505 66.6439 11.9286 66.6789 12.3116C66.7264 12.8022 66.7071 13.297 66.6215 13.7825C66.5309 14.2892 66.3527 14.7764 66.0947 15.2224C65.8821 15.5944 65.599 15.9219 65.2612 16.1866C65.033 16.3727 64.7626 16.5006 64.4736 16.5592C64.2587 16.5919 64.1176 16.5462 64.0585 16.4497C63.9387 16.2438 64.1471 15.9022 64.3637 15.4168C64.6498 14.7998 64.856 14.149 64.9774 13.4802V13.4802Z" fill="#796F9C"/>
<path d="M60.0186 19.0125C60.629 18.6121 61.1885 18.2574 61.6463 18.0221C62.1041 17.7867 62.4667 17.6854 62.6308 17.839C62.7949 17.9926 62.7522 18.3767 62.4667 18.8687C62.0687 19.4827 61.5462 20.0071 60.9328 20.4082C60.3193 20.8093 59.6284 21.0782 58.9045 21.1976C58.3368 21.2646 57.9577 21.1567 57.8905 20.9394C57.8232 20.722 58.0545 20.4294 58.4549 20.1058C58.8553 19.7822 59.4066 19.4113 60.0186 19.0125Z" fill="#796F9C"/>
<path d="M66.8662 33.0139C67.1645 32.4781 67.5905 32.0235 68.1066 31.6901C68.5201 31.4433 68.8663 31.4058 69.0255 31.5676C69.1846 31.7294 69.1502 32.0579 69.0058 32.4583C68.8152 32.9396 68.5847 33.4043 68.3166 33.8475C68.0654 34.3004 67.7767 34.7317 67.4536 35.137C67.1795 35.4638 66.9154 35.6583 66.6906 35.5995C66.4658 35.5406 66.3296 35.2268 66.3362 34.7463C66.3676 34.1343 66.5496 33.5394 66.8662 33.0139Z" fill="#796F9C"/>
<path d="M7.93023 26.7184C8.0905 26.3102 8.29286 25.9197 8.53406 25.5531C8.73209 25.2552 8.96388 24.981 9.22484 24.7359C9.68099 24.3143 10.0764 24.1655 10.2536 24.3061C10.4308 24.4466 10.3849 24.8454 10.2192 25.3766C10.0535 25.9077 9.78272 26.5844 9.49066 27.3378C9.19859 28.0912 8.94098 28.7629 8.70306 29.2679C8.46514 29.773 8.23707 30.0982 8.00243 30.0851C7.76779 30.072 7.58566 29.6929 7.53479 29.0751C7.5097 28.717 7.52622 28.3573 7.58402 28.003C7.65391 27.5639 7.76995 27.1333 7.93023 26.7184V26.7184Z" fill="white"/>
<path d="M13.082 17.8487C13.3738 17.5779 13.7444 17.4062 14.1403 17.3584C14.4685 17.3323 14.7162 17.4385 14.8245 17.6411C14.8728 17.7557 14.8936 17.8799 14.8853 18.0038C14.8771 18.1278 14.84 18.2481 14.777 18.3553C14.4828 18.9186 13.9929 19.3561 13.3987 19.586C13.285 19.6367 13.1611 19.6605 13.0367 19.6554C12.9122 19.6503 12.7907 19.6165 12.6816 19.5566C12.4913 19.4275 12.4125 19.1676 12.4732 18.8489C12.5641 18.4595 12.7773 18.1091 13.082 17.8487Z" fill="white"/>
<path d="M36.3561 36.307C36.383 35.8465 35.7623 35.436 34.9698 35.3901C34.1773 35.3441 33.5131 35.6802 33.4862 36.1406C33.4593 36.6011 34.0799 37.0116 34.8724 37.0575C35.6649 37.1035 36.3292 36.7674 36.3561 36.307Z" fill="white"/>
<path d="M37.2578 72.3672H41.0219" stroke="#42565E" stroke-width="1.64082" stroke-miterlimit="10" stroke-linecap="square"/>
<path d="M3.79688 55.5677C4.04475 54.7133 4.48624 53.927 5.08734 53.2693C5.68844 52.6116 6.4331 52.1002 7.26393 51.7744" stroke="#42565E" stroke-width="1.64082" stroke-miterlimit="10" stroke-linecap="square"/>
<path d="M72.9261 55.5677C72.6772 54.7123 72.2342 53.9253 71.6314 53.2676C71.0285 52.6099 70.2819 52.099 69.4492 51.7744" stroke="#42565E" stroke-width="1.64082" stroke-miterlimit="10" stroke-linecap="square"/>
<path d="M6.39408 58.7102C6.66836 59.0927 6.91405 59.4948 7.12917 59.9131C7.3031 60.2874 7.34904 60.6077 7.18988 60.7777C7.03072 60.9476 6.71076 60.9411 6.30876 60.7646C5.77436 60.517 5.3198 60.1259 4.9961 59.6353C4.58754 59.0338 4.4415 58.3278 4.53503 57.8228C4.56216 57.6159 4.64557 57.4204 4.77623 57.2573C4.8152 57.2051 4.86674 57.1635 4.9261 57.1364C4.98546 57.1092 5.05073 57.0974 5.11588 57.102C5.34888 57.1364 5.51624 57.3815 5.70822 57.6626C5.90019 57.9437 6.1217 58.3049 6.39408 58.7102Z" fill="white"/>
<path d="M50.7052 45.9494C49.5932 46.0658 48.5138 46.3931 47.5253 46.9137C46.7279 47.3141 46.2127 47.6524 46.0043 47.489C45.9075 47.4122 45.9075 47.216 46.0207 46.9317C46.1935 46.5424 46.4378 46.1888 46.741 45.8889C46.9436 45.6777 47.1631 45.4831 47.3973 45.3071C47.6723 45.1056 47.9638 44.9274 48.2686 44.7743C49.6998 44.0561 51.3533 43.9128 52.8875 44.3739C53.2141 44.4721 53.5319 44.5973 53.8376 44.7482C54.1012 44.88 54.3536 45.0331 54.5923 45.2058C54.9431 45.4486 55.2453 45.7546 55.4833 46.1079C55.6474 46.3694 55.6769 46.5623 55.5965 46.6538C55.4209 46.8499 54.8532 46.6064 53.9984 46.3498C52.9363 46.0087 51.8185 45.8728 50.7052 45.9494V45.9494Z" fill="#D7AD8C"/>
<path d="M56.5545 45.8205C55.7338 45.1085 54.7774 44.5686 53.7424 44.2329C52.7075 43.8973 51.6153 43.7728 50.531 43.8669C49.4467 43.961 48.3925 44.2718 47.4315 44.7807C46.4705 45.2897 45.6222 45.9863 44.9375 46.8289" stroke="#42565E" stroke-width="1.64082" stroke-miterlimit="10" stroke-linecap="square"/>
<path d="M43.7109 52.8679C45.8194 51.938 47.959 51.0195 50.2266 50.606C52.4943 50.1925 54.9325 50.3249 56.9639 51.4134" stroke="#42565E" stroke-width="1.8049" stroke-miterlimit="10"/>
<path d="M53.8959 52.4919C53.8778 53.2556 53.5605 53.982 53.0118 54.5157C52.4631 55.0495 51.7266 55.3483 50.9597 55.3483C50.1927 55.3483 49.4562 55.0495 48.9076 54.5157C48.3589 53.982 48.0416 53.2556 48.0234 52.4919C48.0234 50.8772 49.3361 50.2415 50.9605 50.2415C52.5849 50.2415 53.8959 50.8772 53.8959 52.4919Z" fill="#325560"/>
<path d="M27.8308 45.9498C28.9428 46.0662 30.0222 46.3935 31.0107 46.9141C31.8082 47.3145 32.3234 47.6528 32.5318 47.4894C32.6286 47.4125 32.6286 47.2164 32.5154 46.9321C32.3426 46.5428 32.0983 46.1892 31.795 45.8893C31.5924 45.6781 31.3729 45.4835 31.1387 45.3075C30.8637 45.106 30.5723 44.9278 30.2674 44.7747C28.8335 44.0539 27.176 43.9105 25.6387 44.3743C25.3121 44.4725 24.9943 44.5977 24.6886 44.7486C24.425 44.8804 24.1726 45.0335 23.9339 45.2062C23.5831 45.449 23.2809 45.755 23.0429 46.1083C22.8788 46.3698 22.8493 46.5627 22.9297 46.6542C23.1053 46.8503 23.673 46.6068 24.5278 46.3502C25.5931 46.0079 26.7143 45.872 27.8308 45.9498V45.9498Z" fill="#D7AD8C"/>
<path d="M21.9805 45.8205C22.8012 45.1085 23.7576 44.5686 24.7926 44.2329C25.8275 43.8973 26.9197 43.7728 28.004 43.8669C29.0883 43.961 30.1425 44.2718 31.1035 44.7807C32.0645 45.2897 32.9127 45.9863 33.5975 46.8289" stroke="#42565E" stroke-width="1.64082" stroke-miterlimit="10" stroke-linecap="square"/>
<path d="M34.8271 52.8679C32.7187 51.938 30.5791 51.0195 28.3114 50.606C26.0438 50.1925 23.6056 50.3249 21.5742 51.4134" stroke="#42565E" stroke-width="1.8049" stroke-miterlimit="10"/>
<path d="M24.6406 52.4919C24.6588 53.2556 24.9761 53.982 25.5247 54.5157C26.0734 55.0495 26.8099 55.3483 27.5769 55.3483C28.3438 55.3483 29.0803 55.0495 29.629 54.5157C30.1777 53.982 30.495 53.2556 30.5131 52.4919C30.5131 50.8772 29.2005 50.2415 27.5761 50.2415C25.9516 50.2415 24.6406 50.8772 24.6406 52.4919Z" fill="#325560"/>
<path d="M34.1758 81.4359C35.7214 82.1147 37.418 82.3806 39.0982 82.2073C41.4381 81.9605 43.8812 80.573 44.4063 78.2849" stroke="#42565E" stroke-width="1.64082" stroke-miterlimit="10" stroke-linecap="square"/>
<path d="M40.6856 87.4184C41.2522 86.6515 41.0874 85.5722 40.3174 85.0077C39.5474 84.4433 38.4638 84.6075 37.8971 85.3745C37.3305 86.1414 37.4953 87.2207 38.2653 87.7852C39.0353 88.3496 40.1189 88.1854 40.6856 87.4184Z" fill="#F0D7C2"/>
</g>
<defs>
<clipPath id="clip0">
<rect width="76.1538" height="99" fill="white" transform="translate(0.371094)"/>
</clipPath>
</defs>
</svg>
