<svg width="1180" height="310" viewBox="0 0 1180 310" fill="none" xmlns="http://www.w3.org/2000/svg">
<path d="M654.134 90.0351C663.075 90.0351 671.491 91.9912 678.846 95.4352C686.493 78.688 705.317 66.8436 727.328 66.8436C727.459 66.8436 727.591 66.8472 727.722 66.8481C727.464 65.0195 727.328 63.1579 727.328 61.2687C727.328 36.2678 750.669 15.9999 779.463 15.9999C807.42 15.9999 830.236 35.1091 831.536 59.1047C838.089 56.9037 845.21 55.6937 852.657 55.6937C868.688 55.6937 883.213 61.2905 893.787 70.3536C899.045 68.1089 904.957 66.8436 911.212 66.8436C927.17 66.8436 940.911 75.0549 947.162 86.8725C949.974 86.3221 952.895 86.0215 955.899 86.0215C977.741 86.0215 995.449 101.397 995.449 120.363C995.449 139.329 977.741 154.705 955.899 154.705C948.583 154.705 941.737 152.973 935.858 149.967C935.859 150.06 935.867 150.152 935.867 150.245C935.867 169.211 918.159 184.587 896.316 184.587C887.142 184.587 878.704 181.867 871.993 177.315C863.503 192.321 845.731 202.65 825.177 202.65C799.971 202.65 778.944 187.118 774.095 166.476C765.585 181.434 747.842 191.723 727.328 191.723C709.53 191.723 693.819 183.977 684.412 172.159C675.876 177.455 665.424 180.573 654.134 180.573C625.341 180.573 601.999 160.305 601.999 135.304C601.999 110.303 625.341 90.0351 654.134 90.0351Z" fill="white"/>
<path d="M519.318 151.035C510.376 151.035 501.96 152.991 494.606 156.435C486.958 139.688 468.134 127.843 446.123 127.843C445.992 127.843 445.86 127.847 445.729 127.848C445.987 126.019 446.123 124.158 446.123 122.268C446.123 97.2677 422.781 76.9999 393.988 76.9999C366.03 76.9999 343.215 96.109 341.914 120.104C335.361 117.903 328.24 116.693 320.794 116.693C304.762 116.693 290.237 122.29 279.663 131.353C274.405 129.109 268.493 127.843 262.238 127.843C246.28 127.843 232.539 136.055 226.288 147.872C223.476 147.322 220.555 147.021 217.551 147.021C195.708 147.021 178 162.397 178 181.363C178 200.329 195.708 215.704 217.551 215.704C224.867 215.704 231.713 213.973 237.591 210.967C237.591 211.059 237.583 211.151 237.583 211.244C237.583 230.21 255.291 245.586 277.134 245.586C286.308 245.586 294.746 242.866 301.457 238.314C309.947 253.32 327.72 263.649 348.274 263.649C373.479 263.649 394.507 248.118 399.356 227.475C407.866 242.433 425.609 252.722 446.123 252.722C463.921 252.722 479.632 244.976 489.04 233.158C497.575 238.455 508.027 241.572 519.318 241.572C548.111 241.572 571.453 221.304 571.453 196.303C571.453 171.302 548.111 151.035 519.318 151.035Z" fill="white"/>
<path d="M506.318 99.0347C497.376 99.0347 488.96 100.991 481.606 104.435C473.958 87.6876 455.134 75.8433 433.123 75.8433C432.992 75.8433 432.86 75.8469 432.729 75.8478C432.987 74.0192 433.123 72.1576 433.123 70.2684C433.123 45.2677 409.781 24.9999 380.988 24.9999C353.03 24.9999 330.215 44.109 328.914 68.1044C322.361 65.9035 315.24 64.6935 307.794 64.6935C291.762 64.6935 277.237 70.2903 266.663 79.3533C261.405 77.1086 255.493 75.8433 249.238 75.8433C233.28 75.8433 219.539 84.0546 213.288 95.8721C210.476 95.3217 207.555 95.0211 204.551 95.0211C182.708 95.0211 165 110.397 165 129.363C165 148.329 182.708 163.704 204.551 163.704C211.867 163.704 218.713 161.973 224.591 158.967C224.591 159.059 224.583 159.151 224.583 159.244C224.583 178.21 242.291 193.586 264.134 193.586C273.308 193.586 281.746 190.866 288.457 186.314C296.947 201.32 314.72 211.649 335.274 211.649C360.479 211.649 381.507 196.118 386.356 175.475C394.866 190.433 412.609 200.722 433.123 200.722C450.921 200.722 466.632 192.976 476.04 181.158C484.575 186.455 495.027 189.572 506.318 189.572C535.111 189.572 558.453 169.304 558.453 144.303C558.453 119.302 535.111 99.0347 506.318 99.0347Z" fill="white"/>
<path d="M738.787 126.978C746.469 126.978 753.698 128.299 760.016 130.623C766.586 119.318 782.757 111.322 801.666 111.322C801.779 111.322 801.892 111.325 802.005 111.325C801.782 110.091 801.666 108.834 801.666 107.559C801.666 90.6819 821.718 76.9999 846.453 76.9999C870.47 76.9999 890.07 89.8997 891.188 106.098C896.817 104.612 902.934 103.796 909.332 103.796C923.104 103.796 935.582 107.574 944.665 113.692C949.182 112.177 954.261 111.322 959.634 111.322C973.343 111.322 985.148 116.866 990.518 124.843C992.934 124.472 995.443 124.269 998.023 124.269C1016.79 124.269 1032 134.648 1032 147.451C1032 160.255 1016.79 170.634 998.023 170.634C991.739 170.634 985.857 169.465 980.808 167.436C980.808 167.499 980.815 167.561 980.815 167.624C980.815 180.427 965.602 190.806 946.838 190.806C938.956 190.806 931.708 188.97 925.943 185.897C918.65 196.027 903.382 203 885.725 203C864.071 203 846.007 192.515 841.841 178.58C834.531 188.678 819.289 195.624 801.666 195.624C786.376 195.624 772.879 190.395 764.798 182.417C757.465 185.992 748.486 188.096 738.787 188.096C714.052 188.096 694 174.415 694 157.537C694 140.66 714.052 126.978 738.787 126.978Z" fill="white"/>
<path d="M433.134 197.035C442.075 197.035 450.491 198.991 457.846 202.435C465.493 185.688 484.317 173.844 506.328 173.844C506.459 173.844 506.591 173.847 506.722 173.848C506.464 172.02 506.328 170.158 506.328 168.269C506.328 143.268 529.669 123 558.463 123C586.42 123 609.236 142.109 610.536 166.105C617.089 163.904 624.21 162.694 631.657 162.694C647.688 162.694 662.213 168.291 672.787 177.354C678.045 175.109 683.957 173.844 690.212 173.844C706.17 173.844 719.911 182.055 726.162 193.872C728.974 193.322 731.895 193.022 734.899 193.022C756.741 193.022 778.5 202.034 778.5 221C778.5 239.966 760.843 236 739 236C731.684 236 720.737 259.973 714.858 256.967C714.859 257.06 714.867 257.152 714.867 257.245C714.867 276.211 697.159 291.587 675.316 291.587C666.142 291.587 657.704 288.867 650.993 284.315C642.503 299.321 624.731 309.65 604.177 309.65C578.971 309.65 557.944 294.118 553.095 273.476C544.585 288.434 526.842 298.723 506.328 298.723C488.53 298.723 472.819 290.977 463.412 279.159C454.876 284.455 444.424 287.573 433.134 287.573C404.341 287.573 380.999 267.305 380.999 242.304C380.999 217.303 404.341 197.035 433.134 197.035Z" fill="white"/>
<path d="M881.318 140.035C872.376 140.035 863.96 141.991 856.606 145.435C848.958 128.688 830.134 116.843 808.123 116.843C807.992 116.843 807.86 116.847 807.729 116.848C807.987 115.019 808.123 113.158 808.123 111.268C808.123 86.2677 784.781 65.9999 755.988 65.9999C728.03 65.9999 705.215 85.109 703.914 109.104C697.361 106.903 690.24 105.693 682.794 105.693C666.762 105.693 652.237 111.29 641.663 120.353C636.405 118.109 630.493 116.843 624.238 116.843C608.28 116.843 594.539 125.055 588.288 136.872C585.476 136.322 582.555 136.021 579.551 136.021C557.708 136.021 540 151.397 540 170.363C540 189.329 557.708 204.704 579.551 204.704C586.867 204.704 593.713 202.973 599.591 199.967C599.591 200.059 599.583 200.151 599.583 200.244C599.583 219.21 617.291 234.586 639.134 234.586C648.308 234.586 656.746 231.866 663.457 227.314C671.947 242.32 689.72 252.649 710.274 252.649C735.479 252.649 756.507 237.118 761.356 216.475C769.866 231.433 787.609 241.722 808.123 241.722C825.921 241.722 841.632 233.976 851.04 222.158C859.575 227.455 870.027 230.572 881.318 230.572C910.111 230.572 933.453 210.304 933.453 185.303C933.453 160.302 910.111 140.035 881.318 140.035Z" fill="white"/>
<path d="M848.318 175.035C839.376 175.035 830.96 176.991 823.606 180.435C815.958 163.688 797.134 151.843 775.123 151.843C774.992 151.843 774.86 151.847 774.729 151.848C774.987 150.019 775.123 148.158 775.123 146.268C775.123 121.268 751.781 101 722.988 101C695.03 101 672.215 120.109 670.914 144.104C664.361 141.903 657.24 140.693 649.794 140.693C633.762 140.693 619.237 146.29 608.663 155.353C603.405 153.109 597.493 151.843 591.238 151.843C575.28 151.843 561.539 160.055 555.288 171.872C552.476 171.322 549.555 171.021 546.551 171.021C524.708 171.021 507 186.397 507 205.363C507 224.329 524.708 239.704 546.551 239.704C553.867 239.704 560.713 237.973 566.591 234.967C566.591 235.059 566.583 235.151 566.583 235.244C566.583 254.21 584.291 269.586 606.134 269.586C615.308 269.586 623.746 266.866 630.457 262.314C638.947 277.32 654.446 291.5 675 291.5C700.206 291.5 723.507 272.118 728.356 251.475C736.866 266.433 754.609 276.722 775.123 276.722C792.921 276.722 808.632 268.976 818.04 257.158C826.575 262.455 837.027 265.572 848.318 265.572C877.111 265.572 900.453 245.304 900.453 220.303C900.453 195.302 877.111 175.035 848.318 175.035Z" fill="white"/>
<path d="M727.318 74.0349C718.376 74.0349 709.96 75.991 702.606 79.435C694.958 62.6879 676.134 50.8436 654.123 50.8436C653.992 50.8436 653.86 50.8472 653.729 50.8481C653.987 49.0195 654.123 47.1579 654.123 45.2686C654.123 20.2679 630.781 0.00012207 601.988 0.00012207C574.03 0.00012207 551.215 19.1093 549.914 43.1047C543.361 40.9037 536.24 39.6937 528.794 39.6937C512.762 39.6937 498.237 45.2905 487.663 54.3536C482.405 52.1089 476.493 50.8436 470.238 50.8436C454.28 50.8436 440.539 59.0548 434.288 70.8723C431.476 70.322 428.555 70.0214 425.551 70.0214C403.708 70.0214 386 85.3971 386 104.363C386 123.329 403.708 138.705 425.551 138.705C432.867 138.705 439.713 136.973 445.591 133.967C445.591 134.06 445.583 134.152 445.583 134.245C445.583 153.211 463.291 168.586 485.134 168.586C494.308 168.586 502.746 165.866 509.457 161.314C517.947 176.32 535.72 186.649 556.274 186.649C581.479 186.649 602.507 171.118 607.356 150.475C615.866 165.433 633.609 175.722 654.123 175.722C671.921 175.722 687.632 167.977 697.04 156.158C705.575 161.455 716.027 164.572 727.318 164.572C756.111 164.572 779.453 144.305 779.453 119.303C779.453 94.3027 756.111 74.0349 727.318 74.0349Z" fill="white"/>
<path d="M366.95 112.56C357.337 112.56 348.289 115.19 340.382 119.822C332.16 97.3005 311.922 81.3726 288.259 81.3726C288.117 81.3726 287.976 81.3774 287.834 81.3786C288.113 78.9196 288.259 76.4162 288.259 73.8756C288.259 40.2554 263.164 12.9999 232.208 12.9999C202.151 12.9999 177.622 38.6972 176.224 70.9656C169.178 68.0058 161.523 66.3786 153.517 66.3786C136.282 66.3786 120.665 73.905 109.297 86.0927C103.644 83.0741 97.2889 81.3726 90.564 81.3726C73.4076 81.3726 58.6347 92.4148 51.9141 108.307C48.8907 107.567 45.7503 107.162 42.5209 107.162C19.0378 107.162 0 127.839 0 153.344C0 178.849 19.0378 199.526 42.5209 199.526C50.3861 199.526 57.7467 197.197 64.0663 193.154C64.0657 193.279 64.0574 193.403 64.0574 193.528C64.0574 219.033 83.0952 239.71 106.578 239.71C116.442 239.71 125.513 236.052 132.728 229.93C141.856 250.109 160.963 264 183.061 264C210.159 264 232.766 243.114 237.979 215.354C247.128 235.469 266.204 249.306 288.259 249.306C307.393 249.306 324.284 238.89 334.398 222.997C343.574 230.119 354.811 234.311 366.95 234.311C397.906 234.311 423 207.056 423 173.435C423 139.815 397.906 112.56 366.95 112.56Z" fill="white"/>
<path d="M813.05 112.56C822.663 112.56 831.711 115.19 839.618 119.822C847.84 97.3005 868.078 81.3726 891.741 81.3726C891.883 81.3726 892.024 81.3774 892.166 81.3786C891.887 78.9196 891.741 76.4162 891.741 73.8756C891.741 40.2554 916.836 12.9999 947.792 12.9999C977.849 12.9999 1002.38 38.6972 1003.78 70.9656C1010.82 68.0058 1018.48 66.3786 1026.48 66.3786C1043.72 66.3786 1059.33 73.905 1070.7 86.0927C1076.36 83.0741 1082.71 81.3726 1089.44 81.3726C1106.59 81.3726 1121.37 92.4148 1128.09 108.307C1131.11 107.567 1134.25 107.162 1137.48 107.162C1160.96 107.162 1180 127.839 1180 153.344C1180 178.849 1160.96 199.526 1137.48 199.526C1129.61 199.526 1122.25 197.197 1115.93 193.154C1115.93 193.279 1115.94 193.403 1115.94 193.528C1115.94 219.033 1096.9 239.71 1073.42 239.71C1063.56 239.71 1054.49 236.052 1047.27 229.93C1038.14 250.109 1019.04 264 996.939 264C969.841 264 947.234 243.114 942.021 215.354C932.872 235.469 913.796 249.306 891.741 249.306C872.607 249.306 855.716 238.89 845.602 222.997C836.426 230.119 825.189 234.311 813.05 234.311C782.094 234.311 757 207.056 757 173.435C757 139.815 782.094 112.56 813.05 112.56Z" fill="white"/>
<path d="M1094.6 176.932H1154.42L1161.99 140.106H1102.17L1094.6 176.932Z" fill="#1B262C"/>
<path d="M1160.73 146.979H1102.97" stroke="#1B262C" stroke-width="0.219149" stroke-miterlimit="10" stroke-linecap="round" stroke-linejoin="round"/>
<path d="M1158.42 158.519H1100.6" stroke="#1B262C" stroke-width="0.219149" stroke-miterlimit="10" stroke-linecap="round" stroke-linejoin="round"/>
<path d="M1155.98 170.059H1098.22" stroke="#1B262C" stroke-width="0.219149" stroke-miterlimit="10" stroke-linecap="round" stroke-linejoin="round"/>
<path d="M1124.91 61.1531C1124.91 61.1531 1120.03 67.1181 1107.61 66.0638C1101.36 65.5336 1095.61 59.8875 1095.61 59.8875L1097.9 55.1337C1097.9 55.1337 1102.49 58.5108 1109.02 58.2086C1116.66 57.855 1119.51 52.9978 1119.51 52.9978" fill="#FF7B17"/>
<path d="M1059.02 27.9364V50.8703C1055.21 50.8703 1052.12 54.1654 1052.12 58.23C1052.12 62.2948 1055.21 65.5898 1059.02 65.5898V80.2379H1103.93C1104.05 78.8608 1104.1 77.4652 1104.1 76.056C1104.1 49.4797 1083.92 27.9364 1059.02 27.9364Z" fill="#094974"/>
<path d="M1096.86 57.9817C1096.86 57.9817 1095.41 55.1802 1093.06 55.3041L1095.83 57.9817H1096.86Z" fill="white"/>
<path d="M1096.86 57.9817C1096.86 57.9817 1095.41 55.1802 1093.06 55.3041L1095.83 57.9817H1096.86Z" stroke="#111D5E" stroke-width="0.107504" stroke-miterlimit="10" stroke-linecap="round" stroke-linejoin="round"/>
<path d="M1096.34 58.5293C1096.34 58.5293 1094.14 55.69 1092.78 55.1094C1092.6 55.0331 1092.23 54.928 1092.22 55.3998C1092.22 55.8954 1092.43 56.1439 1092.78 56.5579C1093.34 57.225 1095.32 58.5293 1095.32 58.5293H1096.34Z" fill="white"/>
<path d="M1096.34 58.5293C1096.34 58.5293 1094.14 55.69 1092.78 55.1094C1092.6 55.0331 1092.23 54.928 1092.22 55.3998C1092.22 55.8954 1092.43 56.1439 1092.78 56.5579C1093.34 57.225 1095.32 58.5293 1095.32 58.5293H1096.34Z" stroke="#111D5E" stroke-width="0.107504" stroke-miterlimit="10" stroke-linecap="round" stroke-linejoin="round"/>
<path d="M1093.74 56.8086C1093.74 56.8086 1092.69 56.068 1092.24 56.2832C1091.8 56.4985 1092.35 57.0905 1092.9 57.478C1093.44 57.8655 1094.92 59.3617 1094.92 59.3617H1095.46L1095.61 59.1034L1094.94 57.4134L1093.74 56.8086Z" fill="white"/>
<path d="M1093.74 56.8086C1093.74 56.8086 1092.69 56.068 1092.24 56.2832C1091.8 56.4985 1092.35 57.0905 1092.9 57.478C1093.44 57.8655 1094.92 59.3617 1094.92 59.3617H1095.46L1095.61 59.1034L1094.94 57.4134L1093.74 56.8086Z" stroke="#111D5E" stroke-width="0.107504" stroke-miterlimit="10" stroke-linecap="round" stroke-linejoin="round"/>
<path d="M1133.41 131.444L1135.12 134.927L1129.98 140.105L1126.4 140.051C1125.8 140.074 1125.41 139.372 1125.73 138.824L1126.31 137.823C1126.56 137.392 1126.96 137.094 1127.43 137.004L1128.7 136.757L1128.17 134.827L1133.41 131.444Z" fill="#1B262C"/>
<path d="M1118.29 77.5002C1118.29 77.5002 1115.14 104.018 1115.63 108.808C1116.13 113.597 1127.26 135.296 1127.21 135.413C1127.15 135.53 1134.4 130.799 1134.4 130.799L1124.8 108.165L1122.56 81.2092L1118.29 77.5002Z" fill="white"/>
<path d="M1118.29 77.5004C1118.29 77.5004 1115.14 104.018 1115.63 108.808C1116.13 113.597 1127.26 135.296 1127.21 135.413C1127.15 135.53 1134.4 130.799 1134.4 130.799L1124.8 108.165L1122.56 81.2093L1118.29 77.5004Z" stroke="#1B262C" stroke-width="0.215007" stroke-miterlimit="10" stroke-linecap="round" stroke-linejoin="round"/>
<path d="M1132.08 76.157L1125.81 136.056H1116.84L1118.04 77.0038L1132.08 76.157Z" fill="white"/>
<path d="M1123.99 136.056V140.105H1113.47C1112.79 140.105 1112.38 139.283 1112.77 138.683L1113.23 137.98C1113.56 137.475 1114.09 137.152 1114.66 137.1L1117.57 136.835L1118.81 136.056H1123.99Z" fill="#1B262C"/>
<path d="M1098.28 60.0846C1098.28 60.0846 1097.66 56.619 1096.78 56.3464C1095.91 56.0738 1097 59.812 1097 59.812L1098.28 60.0846Z" fill="white"/>
<path d="M1098.28 60.0846C1098.28 60.0846 1097.66 56.619 1096.78 56.3464C1095.91 56.0738 1097 59.812 1097 59.812L1098.28 60.0846Z" stroke="#111D5E" stroke-width="0.107504" stroke-miterlimit="10" stroke-linecap="round" stroke-linejoin="round"/>
<path d="M1094.65 58.7052C1094.65 58.7052 1093.21 57.8828 1092.7 57.9819C1092.18 58.0809 1092.28 58.5438 1093.23 59.0389C1094.18 59.5341 1094.74 60.0858 1095.1 60.714C1095.46 61.3423 1096.08 62.182 1096.8 62.1496C1097.53 62.1174 1097.9 60.9548 1097.9 60.9548V59.8317L1097.66 59.0497L1096.85 57.803L1095.8 57.4458L1094.65 58.7052Z" fill="white"/>
<path d="M1094.65 58.7052C1094.65 58.7052 1093.21 57.8828 1092.7 57.9819C1092.18 58.0809 1092.28 58.5438 1093.23 59.0389C1094.18 59.5341 1094.74 60.0858 1095.1 60.714C1095.46 61.3423 1096.08 62.182 1096.8 62.1496C1097.53 62.1174 1097.9 60.9548 1097.9 60.9548V59.8317L1097.66 59.0497L1096.85 57.803L1095.8 57.4458L1094.65 58.7052Z" stroke="#111D5E" stroke-width="0.107504" stroke-miterlimit="10" stroke-linecap="round" stroke-linejoin="round"/>
<path d="M1098.28 60.0845C1098.28 60.0845 1097.66 56.6189 1096.78 56.3462C1096.44 56.2414 1096.4 56.7303 1096.47 57.371C1095.9 56.5671 1094.73 55.2615 1093.14 55.303C1093.01 55.2247 1092.89 55.1583 1092.77 55.1092C1092.59 55.0329 1092.23 54.9277 1092.22 55.3995C1092.22 55.7614 1092.33 55.9917 1092.53 56.2506C1092.42 56.238 1092.32 56.2451 1092.24 56.2832C1091.8 56.4985 1092.35 57.0905 1092.9 57.478C1093.11 57.6294 1093.47 57.9498 1093.82 58.2842C1093.41 58.0997 1092.94 57.9341 1092.7 57.9817C1092.18 58.0808 1092.28 58.5436 1093.23 59.0389C1094.18 59.5339 1094.73 60.0857 1095.1 60.714C1095.46 61.3423 1096.08 62.1819 1096.8 62.1496C1097.53 62.1173 1097.9 60.9548 1097.9 60.9548V60.0044L1098.28 60.0845Z" fill="white"/>
<path d="M1098.28 60.0845C1098.28 60.0845 1097.66 56.6189 1096.78 56.3462C1096.44 56.2414 1096.4 56.7303 1096.47 57.371C1095.9 56.5671 1094.73 55.2615 1093.14 55.303C1093.01 55.2247 1092.89 55.1583 1092.77 55.1092C1092.59 55.0329 1092.23 54.9277 1092.22 55.3995C1092.22 55.7614 1092.33 55.9917 1092.53 56.2506C1092.42 56.238 1092.32 56.2451 1092.24 56.2832C1091.8 56.4985 1092.35 57.0905 1092.9 57.478C1093.11 57.6294 1093.47 57.9498 1093.82 58.2842C1093.41 58.0997 1092.94 57.9341 1092.7 57.9817C1092.18 58.0808 1092.28 58.5436 1093.23 59.0389C1094.18 59.5339 1094.73 60.0857 1095.1 60.714C1095.46 61.3423 1096.08 62.1819 1096.8 62.1496C1097.53 62.1173 1097.9 60.9548 1097.9 60.9548V60.0044L1098.28 60.0845Z" stroke="#1B262C" stroke-width="0.107504" stroke-miterlimit="10" stroke-linecap="round" stroke-linejoin="round"/>
<path d="M1121.02 45.2172L1123.69 50.0234L1118.58 53.3977L1116.98 47.4498L1121.02 45.2172Z" fill="white"/>
<path d="M1121.02 45.2172L1123.69 50.0234L1118.58 53.3977L1116.98 47.4498L1121.02 45.2172Z" stroke="#1B262C" stroke-width="0.215007" stroke-miterlimit="10" stroke-linecap="round" stroke-linejoin="round"/>
<path d="M1120.27 47.3641C1120.41 46.9069 1120.5 46.4694 1120.56 46.0508L1116.98 47.4499L1117.84 50.6575C1118.85 50.0843 1119.78 49.0315 1120.27 47.3641Z" fill="#1B262C"/>
<path d="M1133.25 76.5612C1133.25 76.5612 1131.65 49.0492 1122.03 49.5759C1115.72 49.9217 1116.49 59.8652 1116.72 67.9118C1116.94 75.9236 1117.28 77.9582 1117.28 77.9582C1117.28 77.9582 1122.81 78.9804 1133.25 76.5612" fill="#FF7B17"/>
<path d="M1125.53 59.5784C1125.53 59.5784 1121.46 66.2024 1109.02 66.9769C1102.76 67.3663 1096.34 62.6157 1096.34 62.6157L1098.92 58.0208C1098.92 58.0208 1103.02 60.474 1109.45 59.2182C1116.97 57.7491 1119.98 54.4286 1119.98 54.4286L1125.53 59.5784Z" fill="#FF7B17"/>
<path d="M1119.98 54.4287C1119.98 54.4287 1116.97 57.7492 1109.45 59.2183C1103.02 60.4741 1098.92 58.0209 1098.92 58.0209L1096.34 62.6158C1096.34 62.6158 1102.76 67.3663 1109.02 66.9769C1121.46 66.2025 1125.53 59.5785 1125.53 59.5785" stroke="#1B262C" stroke-width="0.215007" stroke-miterlimit="10" stroke-linecap="round" stroke-linejoin="round"/>
<path d="M1111.53 39.5145C1111.53 39.5145 1111.6 42.7887 1112.12 44.2615C1112.12 44.2615 1111.16 44.4903 1111.4 45.4197C1111.64 46.349 1112.75 46.3348 1112.75 46.3348C1112.97 46.6064 1113.74 48.5509 1115.38 49.123C1117.01 49.6948 1119.82 48.8418 1120.82 45.4483C1121.82 42.0548 1120.51 39.7099 1119.44 38.6995C1118.37 37.6891 1113.32 35.3918 1111.53 39.5145Z" fill="white"/>
<path d="M1111.53 39.5145C1111.53 39.5145 1111.6 42.7887 1112.12 44.2615C1112.12 44.2615 1111.16 44.4903 1111.4 45.4197C1111.64 46.349 1112.75 46.3348 1112.75 46.3348C1112.97 46.6064 1113.74 48.5509 1115.38 49.123C1117.01 49.6948 1119.82 48.8418 1120.82 45.4483C1121.82 42.0548 1120.51 39.7099 1119.44 38.6995C1118.37 37.6891 1113.32 35.3918 1111.53 39.5145Z" stroke="#1B262C" stroke-width="0.215007" stroke-miterlimit="10" stroke-linecap="round" stroke-linejoin="round"/>
<path d="M1117.12 42.6268C1117.12 42.6268 1116.15 43.0428 1116.15 41.9196C1116.15 40.7965 1115.85 39.6337 1114.35 39.9006C1112.85 40.1675 1109.74 41.1397 1109.1 38.7377C1108.46 36.3355 1111.73 35.7255 1111.73 35.7255C1111.73 35.7255 1111.71 33.2091 1114.15 33.2281C1116.6 33.2471 1117.12 33.4759 1118.99 33.5713C1120.87 33.6666 1121.87 34.8104 1121.94 38.0895C1122.01 41.3685 1122.8 44.3998 1122.21 45.5245C1121.62 46.6493 1119.55 46.2489 1118.33 43.294C1118.33 43.294 1118.17 42.4743 1117.12 42.6268Z" fill="#1B262C"/>
<path d="M1116.72 43.2751C1116.72 43.2751 1116.6 40.6252 1117.99 40.1105C1119.39 39.5958 1119.81 41.159 1119.3 42.4363C1118.78 43.7137 1117.6 43.9043 1117.39 43.8089C1117.17 43.7137 1116.72 43.2751 1116.72 43.2751Z" fill="white"/>
<path d="M1117.91 78.1725L1116.84 136.056H1125.81L1132.08 76.8241" stroke="#1B262C" stroke-width="0.215007" stroke-miterlimit="10" stroke-linecap="round" stroke-linejoin="round"/>
<path d="M1113.54 43.232C1113.62 43.5938 1113.47 43.9384 1113.21 44.0016C1112.95 44.0648 1112.68 43.8226 1112.6 43.4608C1112.53 43.099 1112.67 42.7544 1112.93 42.6913C1113.19 42.6281 1113.47 42.8702 1113.54 43.232Z" fill="#1B262C"/>
<path d="M1114.23 47.2928C1114.23 47.2928 1115.49 47.2499 1116.2 46.4635" stroke="#1B262C" stroke-width="0.215007" stroke-miterlimit="10" stroke-linecap="round" stroke-linejoin="round"/>
<path d="M1093.14 55.3034C1093.14 55.3034 1094.24 55.7429 1096.14 57.446" stroke="#1B262C" stroke-width="0.107504" stroke-miterlimit="10" stroke-linecap="round" stroke-linejoin="round"/>
<path d="M1096.47 57.3712L1097.17 58.474" stroke="#1B262C" stroke-width="0.107504" stroke-miterlimit="10" stroke-linecap="round" stroke-linejoin="round"/>
<path d="M1092.53 56.2508C1092.53 56.2508 1094.42 57.1733 1095.31 58.2085" stroke="#1B262C" stroke-width="0.107504" stroke-miterlimit="10" stroke-linecap="round" stroke-linejoin="round"/>
<path d="M1093.82 58.2844C1093.82 58.2844 1094.53 58.8242 1094.95 59.2621" stroke="#1B262C" stroke-width="0.107504" stroke-miterlimit="10" stroke-linecap="round" stroke-linejoin="round"/>
<path d="M1116.59 65.5797C1116.59 65.5797 1116.97 75.5231 1117.28 77.958C1117.28 77.958 1122.69 79.0774 1133.26 76.5611" stroke="#111D5E" stroke-width="0.215007" stroke-miterlimit="10" stroke-linecap="round" stroke-linejoin="round"/>
<path d="M1116.84 56.6698C1116.98 54.0825 1118.12 50.6576 1120.91 49.7561C1125.52 48.2707 1128.06 53.574 1128.89 55.5824C1130.08 58.4564 1131.62 64.33 1132.31 68.3385" stroke="#1B262C" stroke-width="0.215007" stroke-miterlimit="10" stroke-linecap="round" stroke-linejoin="round"/>
<path d="M1113.8 41.6664C1113.8 41.6664 1112.72 41.1991 1112.22 42.0752" stroke="#1B262C" stroke-width="0.215007" stroke-miterlimit="10" stroke-linecap="round" stroke-linejoin="round"/>
<path d="M1116.58 44.1811C1116.69 44.6895 1116.39 45.1957 1115.92 45.3117C1115.44 45.4275 1114.97 45.1092 1114.86 44.6007C1114.75 44.0923 1115.05 43.5861 1115.52 43.4701C1116 43.3543 1116.47 43.6726 1116.58 44.1811Z" fill="#FF7B17"/>
<path d="M1049.87 83.1247V68.4766C1046.06 68.4766 1042.98 65.1815 1042.98 61.1168C1042.98 57.0521 1046.06 53.7571 1049.87 53.7571V30.8232C1024.97 30.8232 1004.79 52.3665 1004.79 78.9427C1004.79 85.433 1006 91.6212 1008.18 97.2719H1008.18L1008.2 97.3154C1008.93 99.2141 1032.22 149.619 1032.22 149.619H1067.53C1067.53 149.619 1090.6 99.6304 1091.04 98.5781L1091.56 97.2719C1093.28 92.8474 1094.39 88.0936 1094.79 83.1247H1049.87Z" fill="#094974"/>
<path d="M1052.31 140.106C1052.11 129.034 1051.83 111.698 1051.94 107.26C1052.11 100.601 1056.81 95.1694 1060.97 97.3305C1065.13 99.4916 1062.65 107.76 1049.13 107.435C1034.55 107.085 1032.91 99.4916 1037.07 97.3305C1041.23 95.1694 1045.93 100.601 1046.1 107.26C1046.26 113.919 1045.55 149.619 1045.55 149.619" stroke="white" stroke-width="0.430014" stroke-miterlimit="10" stroke-linecap="round" stroke-linejoin="round"/>
<path d="M1052.49 149.619C1052.49 149.619 1052.46 147.86 1052.41 145.051" stroke="white" stroke-width="0.430014" stroke-miterlimit="10" stroke-linecap="round" stroke-linejoin="round"/>
<path d="M1067.82 176.933H1031.93C1030.42 176.933 1029.19 175.622 1029.19 174.005V152.547C1029.19 150.93 1030.42 149.619 1031.93 149.619H1067.82C1069.33 149.619 1070.56 150.93 1070.56 152.547V174.005C1070.56 175.622 1069.33 176.933 1067.82 176.933Z" fill="white"/>
<path d="M1067.82 176.933H1031.93C1030.42 176.933 1029.19 175.622 1029.19 174.005V152.547C1029.19 150.93 1030.42 149.619 1031.93 149.619H1067.82C1069.33 149.619 1070.56 150.93 1070.56 152.547V174.005C1070.56 175.622 1069.33 176.933 1067.82 176.933Z" stroke="#1B262C" stroke-width="0.215007" stroke-miterlimit="10" stroke-linecap="round" stroke-linejoin="round"/>
<path d="M1029.19 155.128H1058.74" stroke="#1B262C" stroke-width="0.215007" stroke-miterlimit="10" stroke-linecap="round" stroke-linejoin="round"/>
<path d="M1035.97 160.56H1070.56" stroke="#1B262C" stroke-width="0.215007" stroke-miterlimit="10" stroke-linecap="round" stroke-linejoin="round"/>
<path d="M1029.19 165.992H1070.56" stroke="#1B262C" stroke-width="0.215007" stroke-miterlimit="10" stroke-linecap="round" stroke-linejoin="round"/>
<path d="M1033.02 171.424H1070.56" stroke="#1B262C" stroke-width="0.215007" stroke-miterlimit="10" stroke-linecap="round" stroke-linejoin="round"/>
<path d="M1061.75 155.128H1068.31" stroke="#1B262C" stroke-width="0.215007" stroke-miterlimit="10" stroke-linecap="round" stroke-linejoin="round"/>
<path d="M1029.19 160.56H1031.87" stroke="#1B262C" stroke-width="0.215007" stroke-miterlimit="10" stroke-linecap="round" stroke-linejoin="round"/>
<path d="M1017.86 49.084C1017.39 49.6854 1016.94 50.3086 1016.49 50.9534" stroke="white" stroke-width="0.215007" stroke-miterlimit="10" stroke-linecap="round" stroke-linejoin="round"/>
<path d="M1029.22 39.1742C1026.28 40.7445 1022.81 43.3787 1019.61 46.9716" stroke="white" stroke-width="0.215007" stroke-miterlimit="10" stroke-linecap="round" stroke-linejoin="round"/>
<path d="M1062.81 27.9366L1080.08 15.9661L1091.64 42.8472" stroke="#1B262C" stroke-width="0.215007" stroke-miterlimit="10" stroke-linecap="round" stroke-linejoin="round"/>
<path d="M1080.02 16.7523H1079.93C1079.71 16.7523 1079.53 16.5606 1079.53 16.324V15.1095C1079.53 14.8729 1079.71 14.6812 1079.93 14.6812H1080.02C1080.24 14.6812 1080.42 14.8729 1080.42 15.1095V16.324C1080.42 16.5606 1080.24 16.7523 1080.02 16.7523Z" fill="#1B262C"/>
<path d="M1079.97 15.0706L1079 3" stroke="#1B262C" stroke-width="0.215007" stroke-miterlimit="10" stroke-linecap="round" stroke-linejoin="round"/>
<path d="M1109.83 176.818L1102.3 140.22H1161.9L1169.42 176.818H1109.83Z" fill="white"/>
<path d="M1161.98 140.106H1102.17L1109.74 176.932H1169.56L1161.98 140.106ZM1161.81 140.334L1169.29 176.704H1109.91L1102.43 140.334H1161.81Z" fill="#1B262C"/>
<path d="M1103.58 146.979H1163.35" stroke="#1B262C" stroke-width="0.219149" stroke-miterlimit="10" stroke-linecap="round" stroke-linejoin="round"/>
<path d="M1105.57 158.519H1165.77" stroke="#1B262C" stroke-width="0.219149" stroke-miterlimit="10" stroke-linecap="round" stroke-linejoin="round"/>
<path d="M1104.6 170.059H1168.14" stroke="#1B262C" stroke-width="0.219149" stroke-miterlimit="10" stroke-linecap="round" stroke-linejoin="round"/>
<path d="M1004.99 112.671C1004.99 112.671 1002.63 135.625 996.339 148.817C990.052 162.009 982.796 172.588 982.796 172.588L975.492 167.424C975.492 167.424 987.337 148.665 989.98 131.888C992.624 115.111 993.195 111.299 993.195 111.299L1004.99 112.671Z" fill="white"/>
<path d="M1004.99 112.671C1004.99 112.671 1002.63 135.625 996.339 148.817C990.052 162.009 982.796 172.588 982.796 172.588L975.492 167.424C975.492 167.424 987.337 148.665 989.98 131.888C992.624 115.111 993.195 111.299 993.195 111.299L1004.99 112.671Z" stroke="#1B262C" stroke-width="0.215007" stroke-miterlimit="10" stroke-linecap="round" stroke-linejoin="round"/>
<path d="M976.62 168.138L974.766 171.914L979.832 176.898L983.835 176.897C984.288 176.897 984.557 176.357 984.305 175.956L983.583 174.81C983.335 174.379 982.927 174.081 982.461 173.991L981.186 173.744L981.716 171.814L976.62 168.138Z" fill="#1B262C"/>
<path d="M1007.21 97.1721C1007.21 97.1721 1007.21 106.638 1017.88 114.444L1016.03 115.362C1016.03 115.362 1009.28 112.957 1006.84 109.068C1004.39 105.179 1007.21 97.1721 1007.21 97.1721Z" fill="white"/>
<path d="M1007.21 97.1721C1007.21 97.1721 1007.21 106.638 1017.88 114.444L1016.03 115.362C1016.03 115.362 1009.28 112.957 1006.84 109.068C1004.39 105.179 1007.21 97.1721 1007.21 97.1721Z" stroke="#1B262C" stroke-width="0.215007" stroke-miterlimit="10" stroke-linecap="round" stroke-linejoin="round"/>
<path d="M1004.01 82.7403L1001.63 87.0107L1006.74 90.385L1008.35 84.4371L1004.01 82.7403Z" fill="white"/>
<path d="M1005.05 84.3512C1004.92 83.8939 1004.83 83.4564 1004.77 83.0379L1008.35 84.437L1007.48 87.6445C1006.47 87.0715 1005.54 86.0185 1005.05 84.3512Z" fill="#1B262C"/>
<path d="M1004.01 82.7403L1001.63 87.0107L1006.74 90.385L1008.35 84.4371L1004.01 82.7403Z" stroke="#1B262C" stroke-width="0.215007" stroke-miterlimit="10" stroke-linecap="round" stroke-linejoin="round"/>
<path d="M1012.48 75.0569C1012.48 75.0569 1013.19 78.2412 1013.04 79.8075C1013.04 79.8075 1014.03 79.7662 1014.02 80.7306C1014 81.6948 1012.93 81.9835 1012.93 81.9835C1012.78 82.3044 1012.5 84.3962 1011.05 85.3938C1009.61 86.3916 1006.69 86.3295 1004.92 83.3202C1003.14 80.3112 1003.84 77.689 1004.63 76.4204C1005.43 75.1517 1009.76 71.5576 1012.48 75.0569Z" fill="white"/>
<path d="M1012.48 75.0569C1012.48 75.0569 1013.19 78.2412 1013.04 79.8075C1013.04 79.8075 1014.03 79.7662 1014.02 80.7306C1014 81.6948 1012.93 81.9835 1012.93 81.9835C1012.78 82.3044 1012.5 84.3962 1011.05 85.3938C1009.61 86.3916 1006.69 86.3295 1004.92 83.3202C1003.14 80.3112 1003.84 77.689 1004.63 76.4204C1005.43 75.1517 1009.76 71.5576 1012.48 75.0569Z" stroke="#1B262C" stroke-width="0.215007" stroke-miterlimit="10" stroke-linecap="round" stroke-linejoin="round"/>
<path d="M1007.82 79.586C1007.82 79.586 1008.85 79.7258 1008.58 78.6399C1008.31 77.5539 1008.33 76.3468 1009.84 76.1967C1011.36 76.0466 1014.59 76.1412 1014.64 73.6435C1014.69 71.1458 1011.38 71.4452 1011.38 71.4452C1011.38 71.4452 1010.8 69.0069 1008.44 69.6912C1006.08 70.3754 1005.63 70.7375 1003.84 71.3399C1002.05 71.9423 1001.36 73.3205 1002.07 76.5106C1002.78 79.7008 1002.75 82.8457 1003.59 83.7729C1004.42 84.7002 1006.33 83.7494 1006.8 80.5616C1006.8 80.5616 1006.76 79.7252 1007.82 79.586" fill="#1B262C"/>
<path d="M1008.36 80.1051C1008.36 80.1051 1007.84 77.5094 1006.37 77.3908C1004.9 77.272 1004.86 78.9002 1005.67 79.9944C1006.47 81.0886 1007.66 80.9523 1007.84 80.8018C1008.03 80.6513 1008.36 80.1051 1008.36 80.1051Z" fill="white"/>
<path d="M1011.42 79.1985C1011.43 79.5695 1011.66 79.8625 1011.93 79.8529C1012.19 79.8434 1012.4 79.5349 1012.39 79.1639C1012.38 78.793 1012.15 78.5001 1011.88 78.5096C1011.62 78.5192 1011.41 78.8276 1011.42 79.1985Z" fill="#1B262C"/>
<path d="M1011.73 83.3108C1011.73 83.3108 1010.5 83.6118 1009.63 83.0447" stroke="#1B262C" stroke-width="0.215007" stroke-miterlimit="10" stroke-linecap="round" stroke-linejoin="round"/>
<path d="M1006.91 114.425L1013.56 171.923L1004.9 173.189L992.766 112.9L1006.91 114.425Z" fill="white"/>
<path d="M1006.91 114.425L1013.56 171.923L1004.9 173.189L992.766 112.9L1006.91 114.425Z" stroke="#1B262C" stroke-width="0.215007" stroke-miterlimit="10" stroke-linecap="round" stroke-linejoin="round"/>
<path d="M1006.84 172.871L1007.25 176.897L1017.72 175.684C1018.4 175.606 1018.71 174.742 1018.26 174.19L1017.74 173.544C1017.36 173.08 1016.8 172.82 1016.23 172.834L1013.31 172.905L1011.95 172.094L1006.84 172.871Z" fill="#1B262C"/>
<path d="M992.07 113.548C992.07 113.548 993.677 86.036 1003.29 86.5626C1009.6 86.9085 1008.83 96.852 1008.61 104.898C1008.38 112.91 1008.04 114.945 1008.04 114.945C1008.04 114.945 1002.51 115.967 992.07 113.548Z" fill="#FF7B17"/>
<path d="M1008.61 104.898C1008.61 104.898 1008.36 112.51 1008.04 114.945C1008.04 114.945 1002.63 116.064 992.07 113.548" stroke="#1B262C" stroke-width="0.215007" stroke-miterlimit="10" stroke-linecap="round" stroke-linejoin="round"/>
<path d="M1008.49 93.6566C1008.34 91.0693 1007.21 87.6444 1004.41 86.7429C999.804 85.2575 997.272 90.5607 996.439 92.5691C995.247 95.4432 993.944 99.9782 993.25 103.987" stroke="#1B262C" stroke-width="0.215007" stroke-miterlimit="10" stroke-linecap="round" stroke-linejoin="round"/>
<path d="M961.491 120.372L961 118.743L1037.6 92.4755L1038.09 94.1053L961.491 120.372Z" fill="white"/>
<path d="M961.491 120.372L961 118.743L1037.6 92.4755L1038.09 94.1053L961.491 120.372Z" stroke="#1B262C" stroke-width="0.215007" stroke-miterlimit="10" stroke-linecap="round" stroke-linejoin="round"/>
<path d="M965.389 133.325L964.898 131.695L1041.5 105.428L1041.99 107.058L965.389 133.325Z" fill="white"/>
<path d="M965.389 133.325L964.898 131.695L1041.5 105.428L1041.99 107.058L965.389 133.325Z" stroke="#1B262C" stroke-width="0.215007" stroke-miterlimit="10" stroke-linecap="round" stroke-linejoin="round"/>
<path d="M1033.99 108.002L1030.58 96.6798L1032.11 96.1543L1035.52 107.477L1033.99 108.002Z" fill="white"/>
<path d="M1033.99 108.002L1030.58 96.6798L1032.11 96.1543L1035.52 107.477L1033.99 108.002Z" stroke="#1B262C" stroke-width="0.215007" stroke-miterlimit="10" stroke-linecap="round" stroke-linejoin="round"/>
<path d="M1023.47 111.609L1020.06 100.287L1021.59 99.7616L1025 111.084L1023.47 111.609Z" fill="white"/>
<path d="M1023.47 111.609L1020.06 100.287L1021.59 99.7616L1025 111.084L1023.47 111.609Z" stroke="#1B262C" stroke-width="0.215007" stroke-miterlimit="10" stroke-linecap="round" stroke-linejoin="round"/>
<path d="M1012.95 115.217L1009.54 103.894L1011.07 103.369L1014.48 114.691L1012.95 115.217Z" fill="white"/>
<path d="M1012.95 115.217L1009.54 103.894L1011.07 103.369L1014.48 114.691L1012.95 115.217Z" stroke="#1B262C" stroke-width="0.215007" stroke-miterlimit="10" stroke-linecap="round" stroke-linejoin="round"/>
<path d="M1002.43 118.824L999.023 107.502L1000.56 106.976L1003.96 118.299L1002.43 118.824Z" fill="white"/>
<path d="M1002.43 118.824L999.023 107.502L1000.56 106.976L1003.96 118.299L1002.43 118.824Z" stroke="#1B262C" stroke-width="0.215007" stroke-miterlimit="10" stroke-linecap="round" stroke-linejoin="round"/>
<path d="M991.912 122.431L988.504 111.109L990.036 110.583L993.444 121.906L991.912 122.431Z" fill="white"/>
<path d="M991.912 122.431L988.504 111.109L990.036 110.583L993.444 121.906L991.912 122.431Z" stroke="#1B262C" stroke-width="0.215007" stroke-miterlimit="10" stroke-linecap="round" stroke-linejoin="round"/>
<path d="M981.389 126.039L977.98 114.716L979.513 114.191L982.921 125.513L981.389 126.039Z" fill="white"/>
<path d="M981.389 126.039L977.98 114.716L979.513 114.191L982.921 125.513L981.389 126.039Z" stroke="#1B262C" stroke-width="0.215007" stroke-miterlimit="10" stroke-linecap="round" stroke-linejoin="round"/>
<path d="M970.873 129.646L967.465 118.323L968.997 117.798L972.405 129.12L970.873 129.646Z" fill="white"/>
<path d="M970.873 129.646L967.465 118.323L968.997 117.798L972.405 129.12L970.873 129.646Z" stroke="#1B262C" stroke-width="0.215007" stroke-miterlimit="10" stroke-linecap="round" stroke-linejoin="round"/>
<path d="M998.157 118.905C998.157 118.905 997.648 119.792 997.97 121.05C998.291 122.308 998.452 122.48 999.336 122.423C1000.22 122.365 1002.18 121.593 1002.42 121.193C1002.59 120.912 1001.82 119.884 1001.63 119.098C1002.32 118.832 1002.15 118.415 1001.55 118.123C1001.08 117.891 1000.34 117.876 1000.34 117.876" fill="white"/>
<path d="M998.157 118.905C998.157 118.905 997.648 119.792 997.97 121.05C998.291 122.308 998.452 122.48 999.336 122.423C1000.22 122.365 1002.18 121.593 1002.42 121.193C1002.59 120.912 1001.82 119.884 1001.63 119.098C1002.32 118.832 1002.15 118.415 1001.55 118.123C1001.08 117.891 1000.34 117.876 1000.34 117.876" stroke="#1B262C" stroke-width="0.215007" stroke-miterlimit="10" stroke-linecap="round" stroke-linejoin="round"/>
<path d="M1001.02 100.157C1001.02 100.157 998.963 102.834 998.856 106.895C998.749 110.955 1000.34 117.876 1000.34 117.876L999.531 118.257L998.16 118.905C998.16 118.905 992.982 111.245 992.534 105.297C992.087 99.349 996.721 94.3696 996.721 94.3696L1001.02 100.157Z" fill="white"/>
<path d="M1000.34 117.876C1000.34 117.876 998.749 110.955 998.856 106.895C998.963 102.834 1001.02 100.157 1001.02 100.157L996.721 94.3697C996.721 94.3697 992.086 99.3491 992.534 105.297C992.982 111.245 998.16 118.905 998.16 118.905" stroke="#1B262C" stroke-width="0.215007" stroke-miterlimit="10" stroke-linecap="round" stroke-linejoin="round"/>
<path d="M999.818 89.394L994.406 96.7146L1000.86 101.576L1004.77 94.5986" fill="#FF7B17"/>
<path d="M999.818 89.394L994.406 96.7146L1000.86 101.576L1004.77 94.5986" stroke="#1B262C" stroke-width="0.215007" stroke-miterlimit="10" stroke-linecap="round" stroke-linejoin="round"/>
<path d="M174.536 49.7264C174.536 49.7264 173.244 48.8951 171.226 49.5375C169.208 50.1799 167.084 54.034 168.005 59.9286C168.925 65.823 169.156 68.3009 167.784 70.6327C166.412 72.9644 166.293 75.5483 166.73 76.5295C167.168 77.5109 172.915 76.025 172.915 76.025C172.915 76.025 176.147 73.8336 176.572 72.9267C176.997 72.0198 178.84 70.915 178.874 68.5957C178.908 66.2764 178.837 63.9631 178.944 63.0793C179.05 62.1956 174.837 52.6133 174.837 52.6133L174.536 49.7264Z" fill="#1B262C"/>
<path d="M176.816 49.5186C176.816 49.5186 176.055 48.8951 174.781 49.1975C173.506 49.4997 172.143 52.1447 172.055 52.7682C171.966 53.3916 172.409 53.9773 172.409 53.9773L176.816 49.5186Z" fill="#FF7B17"/>
<path d="M161.051 180.446L158.828 188H167.885L167.198 180.446H161.051Z" fill="#363742"/>
<path d="M162.629 183.271C162.629 183.271 153.686 183.066 154.009 188H164.22L162.629 183.271Z" fill="#363742"/>
<path d="M189.455 180.446L191.678 188H182.621L183.309 180.446H189.455Z" fill="#363742"/>
<path d="M187.88 183.271C187.88 183.271 196.823 183.066 196.501 188H186.289L187.88 183.271Z" fill="#363742"/>
<path d="M186.481 104.968L191.767 181.835H180.439L174.586 123.71L176.663 104.364L186.481 104.968Z" fill="white"/>
<path d="M186.481 104.968L191.767 181.835H180.439L174.586 123.71L176.663 104.364L186.481 104.968Z" stroke="#1B262C" stroke-width="0.278178" stroke-miterlimit="10" stroke-linecap="round" stroke-linejoin="round"/>
<path d="M178.933 114.221L170.246 181.835H158.352L163.921 102.852L179.875 106.883" fill="white"/>
<path d="M178.933 114.221L170.246 181.835H158.352L163.921 102.852L179.875 106.883" stroke="#1B262C" stroke-width="0.278178" stroke-miterlimit="10" stroke-linecap="round" stroke-linejoin="round"/>
<path d="M186.649 108.773C186.649 108.773 173.821 111.617 163.699 105.955L163.932 103.637L186.516 105.603L186.649 108.773Z" fill="#1B262C"/>
<path d="M177.344 70.017C177.344 70.017 172.282 71.0372 169.237 72.7376C166.193 74.4379 165.662 92.7638 163.68 97.3358C161.697 101.908 161.237 103.306 163.68 105.157C166.122 107.009 171.857 108.331 179.433 107.878C187.009 107.425 187.929 105.686 187.929 105.686C187.929 105.686 190.49 85.2697 189.121 78.5188C187.752 71.7679 179.233 70.7813 177.344 70.017Z" fill="#FF7B17"/>
<path d="M169.458 72.6179C169.458 72.6179 166.038 74.0853 162.357 80.2821C158.675 86.4789 159.194 94.7916 165.661 94.9931C172.127 95.1946 179.868 90.6604 179.868 90.6604L181.379 88.4437C181.379 88.4437 178.452 83.7583 168.398 86.4285C168.398 86.4285 169.956 85.169 170.239 79.6775" fill="#FF7B17"/>
<path d="M181.456 67.9641L181.62 72.0725C181.661 73.1009 181.09 74.0619 180.182 74.4112C179.547 74.656 178.693 74.7648 177.597 74.4758C175.774 73.9956 175.067 72.8457 174.794 72.0713C174.648 71.6578 174.667 71.1998 174.832 70.7947L176.535 66.6165L181.456 67.9641Z" fill="white"/>
<path d="M181.456 67.9641L181.62 72.0725C181.661 73.1009 181.09 74.0619 180.182 74.4112C179.547 74.656 178.693 74.7648 177.597 74.4758C175.774 73.9956 175.067 72.8457 174.794 72.0713C174.648 71.6578 174.667 71.1998 174.832 70.7947L176.535 66.6165L181.456 67.9641Z" stroke="#1B262C" stroke-width="0.278178" stroke-miterlimit="10" stroke-linecap="round" stroke-linejoin="round"/>
<path d="M176.293 67.1929C176.857 68.2459 178.514 70.7284 181.557 70.6566L181.449 67.964L177.2 66.8007L176.471 66.7551L176.293 67.1929Z" fill="#1B262C"/>
<path d="M180.89 69.0479C179.792 69.0479 178.122 68.7781 176.4 67.4935C173.733 65.5031 173.475 63.4818 173.888 59.415C174.153 56.7968 177.742 52.4653 181.332 52.4653C183.12 52.4653 185.564 53.5581 187.056 58.7643C187.066 58.7993 187.063 58.8372 187.049 58.8704C187.041 58.887 186.313 60.5505 186.188 61.7088C186.157 61.9951 186.159 62.3233 186.162 62.7036C186.17 63.8363 186.181 65.3875 185.199 66.9994C184.429 68.2629 182.777 69.0479 180.89 69.0479Z" fill="white"/>
<path d="M181.323 52.3174V52.6134L181.323 52.3174C179.685 52.3175 177.843 53.2357 176.269 54.8366C174.848 56.2808 173.88 58.0291 173.741 59.3992C173.322 63.5275 173.587 65.5814 176.312 67.6149C178.063 68.9215 179.763 69.1959 180.881 69.1959C182.815 69.1959 184.511 68.3853 185.306 67.0803C186.311 65.4309 186.3 63.8539 186.292 62.7025C186.289 62.3272 186.287 62.0032 186.317 61.726C186.44 60.5922 187.158 58.95 187.165 58.9336C187.195 58.8671 187.2 58.7914 187.18 58.7212C185.663 53.4284 183.158 52.3174 181.323 52.3174ZM181.323 52.6134C183.474 52.6133 185.6 54.2199 186.914 58.8075C186.914 58.8075 186.171 60.4954 186.041 61.6919C185.911 62.8885 186.348 64.8281 185.074 66.919C184.348 68.1091 182.745 68.8999 180.881 68.8999C179.471 68.8999 177.912 68.4472 176.471 67.3723C173.922 65.4704 173.592 63.619 174.017 59.4311C174.279 56.8405 177.834 52.6137 181.323 52.6134" fill="#1B262C"/>
<path d="M182.917 55.0353C182.917 55.0353 182.599 55.7344 181.36 56.6412L181.289 55.8382C181.289 55.8382 177.979 60.4953 173.859 60.9865C173.859 60.9865 171.731 59.6074 171.766 56.6034C171.801 53.5995 173.554 49.821 177.997 48.3096C182.44 46.7981 186.404 51.1021 187.52 55.1487C188.051 57.0757 189.272 57.8504 189.502 57.8504C189.732 57.8504 189.661 58.8327 188.528 59.5318C187.396 60.2308 183.749 59.6641 182.917 55.0353Z" fill="#1B262C"/>
<path d="M174.024 60.9644C174.024 60.9644 172.997 57.9923 171.726 59.4307C171.132 60.1025 171.545 61.5734 172.161 62.2082C172.9 62.97 174.026 63.4505 174.263 63.1966C174.67 62.7606 174.024 60.9644 174.024 60.9644Z" fill="white"/>
<path d="M162.356 80.282C158.675 86.4788 159.194 94.7916 165.661 94.9932C172.127 95.1947 179.868 90.6605 179.868 90.6605L181.379 88.4437C181.379 88.4437 178.452 83.7583 168.398 86.4285C168.398 86.4285 169.956 85.169 170.239 79.6776" stroke="#1B262C" stroke-width="0.278178" stroke-miterlimit="10" stroke-linecap="round" stroke-linejoin="round"/>
<path d="M179.873 60.8164C179.873 61.286 179.608 61.6666 179.281 61.6666C178.953 61.6666 178.688 61.286 178.688 60.8164C178.688 60.3469 178.953 59.9662 179.281 59.9662C179.608 59.9662 179.873 60.3469 179.873 60.8164Z" fill="#1B262C"/>
<path d="M185.122 61.1514C185.122 61.6209 184.867 62.0016 184.551 62.0016C184.236 62.0016 183.98 61.6209 183.98 61.1514C183.98 60.6819 184.236 60.3012 184.551 60.3012C184.867 60.3012 185.122 60.6819 185.122 61.1514Z" fill="#1B262C"/>
<path d="M183.432 62.5923C183.432 62.5923 183.839 63.3101 183.432 63.6312C183.025 63.9526 182.211 63.6312 182.211 63.6312" fill="white"/>
<path d="M183.432 62.5923C183.432 62.5923 183.839 63.3101 183.432 63.6312C183.025 63.9526 182.211 63.6312 182.211 63.6312" stroke="#1B262C" stroke-width="0.278178" stroke-miterlimit="10" stroke-linecap="round" stroke-linejoin="round"/>
<path d="M180.141 65.8796C180.141 65.8796 181.419 67.5234 183.415 66.182Z" fill="white"/>
<path d="M180.141 65.8796C180.141 65.8796 181.419 67.5234 183.415 66.182" stroke="#1B262C" stroke-width="0.278178" stroke-miterlimit="10" stroke-linecap="round" stroke-linejoin="round"/>
<path d="M178.16 59.2935C178.16 59.2935 179.411 58.1902 180.389 59.2671" stroke="#1B262C" stroke-width="0.278178" stroke-miterlimit="10" stroke-linecap="round" stroke-linejoin="round"/>
<path d="M185.55 59.8152C185.55 59.8152 185.126 58.6059 183.789 59.431" stroke="#1B262C" stroke-width="0.278178" stroke-miterlimit="10" stroke-linecap="round" stroke-linejoin="round"/>
<path d="M178.992 63.3643C178.992 64.1169 178.46 64.7269 177.803 64.7269C177.146 64.7269 176.613 64.1169 176.613 63.3643C176.613 62.6117 177.146 62.0015 177.803 62.0015C178.46 62.0015 178.992 62.6117 178.992 63.3643Z" fill="#FF7B17"/>
<path d="M185.637 65.7201C185.973 64.7462 186.014 63.8352 186.014 63.0539C185.916 63.0239 185.815 63.0031 185.709 63.0031C185.052 63.0031 184.52 63.6131 184.52 64.3657C184.52 65.09 185.014 65.6765 185.637 65.7201Z" fill="#FF7B17"/>
<path d="M188.609 99.4769L188.09 97.3646L184.801 96.4753V98.2426C184.801 98.2426 185.312 100.847 188.447 101.09C188.499 100.581 188.554 100.042 188.609 99.4769Z" fill="#1B262C"/>
<path d="M187.729 78.2922H180.389L177.203 98.2428H189.845L191.765 78.8967L187.729 78.2922Z" fill="white"/>
<path d="M187.729 78.2922H180.389L177.203 98.2428H189.845L191.765 78.8967L187.729 78.2922Z" stroke="#1B262C" stroke-width="0.278178" stroke-miterlimit="10" stroke-linecap="round" stroke-linejoin="round"/>
<path d="M192.191 83.6072C192.191 83.6072 193.843 79.7783 193.512 78.2165C193.182 76.6546 188.91 75.8486 186.916 77.2593C186.916 77.2593 186.137 77.9394 186.09 78.2922C186.09 78.2922 187.022 78.796 187.471 78.9722C187.919 79.1486 187.703 80.6761 189.144 82.0787C190.586 83.4813 192.191 83.6072 192.191 83.6072Z" fill="white"/>
<path d="M192.191 83.6072C192.191 83.6072 193.843 79.7783 193.512 78.2165C193.182 76.6546 188.91 75.8486 186.916 77.2593C186.916 77.2593 186.137 77.9394 186.09 78.2922C186.09 78.2922 187.022 78.796 187.471 78.9722C187.919 79.1486 187.703 80.6761 189.144 82.0787C190.586 83.4813 192.191 83.6072 192.191 83.6072Z" stroke="#1B262C" stroke-width="0.278178" stroke-miterlimit="10" stroke-linecap="round" stroke-linejoin="round"/>
<path d="M188.935 82.1461C188.935 82.1461 192.192 81.0377 193.042 81.8943C193.891 82.7507 194.694 96.8573 192.239 99.4771C189.785 102.097 185.678 100.585 185.82 97.6129C185.962 94.6405 188.841 85.0179 188.935 82.1461Z" fill="#FF7B17"/>
<path d="M191.633 162.697L191.762 164.672Z" fill="white"/>
<path d="M191.633 162.697L191.762 164.672" stroke="#1B262C" stroke-width="0.278178" stroke-miterlimit="10" stroke-linecap="round" stroke-linejoin="round"/>
<path d="M190.547 146.137L191.526 161.004Z" fill="white"/>
<path d="M190.547 146.137L191.526 161.004" stroke="#1B262C" stroke-width="0.278178" stroke-miterlimit="10" stroke-linecap="round" stroke-linejoin="round"/>
<path d="M162.018 112.951L161.297 123.061Z" fill="white"/>
<path d="M162.018 112.951L161.297 123.061" stroke="#1B262C" stroke-width="0.278178" stroke-miterlimit="10" stroke-linecap="round" stroke-linejoin="round"/>
<path d="M160.759 117.48L160.496 120.569Z" fill="white"/>
<path d="M160.759 117.48L160.496 120.569" stroke="#1B262C" stroke-width="0.278178" stroke-miterlimit="10" stroke-linecap="round" stroke-linejoin="round"/>
</svg>
