<svg width="21" height="20" viewBox="0 0 21 20" fill="none" xmlns="http://www.w3.org/2000/svg">
<path d="M10.1674 0.79834C4.6499 0.79834 0.175781 5.11447 0.175781 10.4389C0.175781 14.6984 3.03868 18.3121 7.00866 19.5868C7.508 19.6761 7.69133 19.3777 7.69133 19.1231C7.69133 18.8932 7.68206 18.1338 7.67776 17.3282C4.89809 17.9114 4.31154 16.1907 4.31154 16.1907C3.85703 15.0764 3.20215 14.7801 3.20215 14.7801C2.29562 14.1818 3.27049 14.1941 3.27049 14.1941C4.27382 14.2621 4.80212 15.1875 4.80212 15.1875C5.69327 16.6614 7.13953 16.2353 7.7097 15.9889C7.79937 15.3658 8.05831 14.9406 8.34406 14.6998C6.12478 14.456 3.79184 13.6294 3.79184 9.9354C3.79184 8.88287 4.18216 8.02287 4.82132 7.34773C4.71757 7.10491 4.37557 6.12438 4.91811 4.79646C4.91811 4.79646 5.75714 4.53736 7.66651 5.78466C8.46352 5.57106 9.31827 5.46393 10.1674 5.46026C11.0165 5.46393 11.8719 5.57106 12.6704 5.78466C14.5775 4.53736 15.4154 4.79646 15.4154 4.79646C15.9592 6.12438 15.617 7.10491 15.5133 7.34773C16.154 8.02287 16.5416 8.88287 16.5416 9.9354C16.5416 13.6382 14.2042 14.4535 11.9793 14.6922C12.3377 14.9913 12.657 15.578 12.657 16.4775C12.657 17.7674 12.6454 18.8055 12.6454 19.1231C12.6454 19.3796 12.8253 19.6802 13.3318 19.5856C17.2996 18.3094 20.1588 14.6969 20.1588 10.4389C20.1588 5.11447 15.6854 0.79834 10.1674 0.79834ZM3.91796 14.5315C3.89596 14.5794 3.81786 14.5938 3.74672 14.5609C3.67425 14.5295 3.63354 14.4642 3.65704 14.4161C3.67855 14.3668 3.75681 14.3531 3.82911 14.3861C3.90175 14.4176 3.94311 14.4835 3.91796 14.5315ZM4.40944 14.9547C4.36179 14.9973 4.26864 14.9775 4.20543 14.9101C4.14008 14.8429 4.12783 14.753 4.17615 14.7098C4.22529 14.6672 4.31563 14.6871 4.38115 14.7543C4.4465 14.8223 4.45924 14.9116 4.40944 14.9547ZM4.74661 15.4961C4.68539 15.5371 4.58529 15.4986 4.52341 15.4129C4.46219 15.3272 4.46219 15.2243 4.52473 15.1832C4.58678 15.142 4.68539 15.179 4.7481 15.2641C4.80916 15.3513 4.80916 15.4541 4.74661 15.4961ZM5.31684 16.1231C5.26208 16.1813 5.14543 16.1657 5.06005 16.0862C4.97269 16.0084 4.94837 15.8981 5.0033 15.8398C5.05873 15.7814 5.17604 15.7979 5.26208 15.8767C5.34877 15.9543 5.37525 16.0654 5.31684 16.1231ZM6.05381 16.3347C6.02965 16.4102 5.91731 16.4446 5.80413 16.4125C5.69113 16.3794 5.61717 16.291 5.64 16.2147C5.66349 16.1387 5.77634 16.1029 5.89034 16.1372C6.00318 16.1701 6.0773 16.2579 6.05381 16.3347ZM6.8925 16.4245C6.89532 16.504 6.79935 16.5699 6.68055 16.5714C6.56109 16.5739 6.46447 16.5096 6.46314 16.4314C6.46314 16.3511 6.55696 16.2858 6.67642 16.2839C6.79522 16.2816 6.8925 16.3455 6.8925 16.4245ZM7.71643 16.394C7.73066 16.4716 7.6481 16.5513 7.53013 16.5725C7.41414 16.5929 7.30676 16.5451 7.29203 16.4681C7.27764 16.3886 7.36169 16.3089 7.47751 16.2883C7.59565 16.2686 7.70137 16.3152 7.71643 16.394Z" fill="#161614"/>
</svg>
