<svg width="97" height="54" viewBox="0 0 97 54" fill="none" xmlns="http://www.w3.org/2000/svg">
<path d="M5.625 29.2322C5.07812 29.2322 4.70052 29.2778 4.49219 29.3689C4.34896 29.434 4.27083 30.1111 4.25781 31.4001V33.6462C4.25781 33.9327 4.36849 34.1215 4.58984 34.2126C4.8112 34.3038 5.11719 34.3494 5.50781 34.3494H6.01562C6.4974 34.3494 6.92708 34.1215 7.30469 33.6658C7.69531 33.21 7.89062 32.6176 7.89062 31.8884C7.89062 30.1176 7.13542 29.2322 5.625 29.2322ZM5.9375 28.2556C6.27604 28.2556 6.6276 28.2947 6.99219 28.3728C7.36979 28.4379 7.75391 28.5551 8.14453 28.7244C8.54818 28.8936 8.90625 29.102 9.21875 29.3494C9.53125 29.5968 9.78516 29.9223 9.98047 30.3259C10.1758 30.7296 10.2734 31.1853 10.2734 31.6931C10.2734 32.3962 10.0456 33.0603 9.58984 33.6853C9.13411 34.3103 8.58073 34.753 7.92969 35.0134C7.82552 35.0525 7.79948 35.1176 7.85156 35.2087C8.58073 36.5238 9.3099 37.6306 10.0391 38.5291C10.4948 39.0889 10.9831 39.5707 11.5039 39.9744C12.0378 40.365 12.526 40.5603 12.9688 40.5603C13.0208 40.6384 13.0469 40.7426 13.0469 40.8728C13.0469 41.003 13.0208 41.1202 12.9688 41.2244C12.8125 41.2504 12.6107 41.2634 12.3633 41.2634C11.6992 41.2634 11.0938 41.1853 10.5469 41.0291C10.013 40.8728 9.54427 40.6449 9.14062 40.3455C8.75 40.033 8.42448 39.7335 8.16406 39.447C7.90365 39.1606 7.63021 38.796 7.34375 38.3533C7.16146 38.0929 6.95312 37.7869 6.71875 37.4353C6.48438 37.0837 6.30208 36.8168 6.17188 36.6345C6.05469 36.4392 5.91797 36.2374 5.76172 36.0291C5.60547 35.8207 5.46875 35.6645 5.35156 35.5603C5.2474 35.4561 5.14323 35.3845 5.03906 35.3455C4.96094 35.3064 4.80469 35.2869 4.57031 35.2869C4.36198 35.2869 4.25781 35.3975 4.25781 35.6189V38.3728C4.25781 39.1541 4.3099 39.7074 4.41406 40.033C4.45312 40.1892 4.66797 40.3194 5.05859 40.4236C5.46224 40.5147 5.75521 40.5603 5.9375 40.5603C5.98958 40.5603 6.01562 40.671 6.01562 40.8923C6.01562 41.0356 6.0026 41.1462 5.97656 41.2244C4.54427 41.1462 3.61979 41.1072 3.20312 41.1072C2.85156 41.1072 2.45443 41.1202 2.01172 41.1462C1.58203 41.1593 1.23698 41.1723 0.976562 41.1853L0.585938 41.2244C0.546875 41.1723 0.527344 41.0551 0.527344 40.8728C0.527344 40.6645 0.546875 40.5603 0.585938 40.5603C0.755208 40.5603 1.0026 40.5212 1.32812 40.4431C1.66667 40.352 1.86198 40.2478 1.91406 40.1306C1.99219 39.8962 2.03125 39.3038 2.03125 38.3533V30.9705C2.03125 30.2283 1.99219 29.6944 1.91406 29.3689C1.875 29.2647 1.67969 29.1606 1.32812 29.0564C0.989583 28.9392 0.742188 28.8806 0.585938 28.8806C0.533854 28.8806 0.507812 28.783 0.507812 28.5876C0.507812 28.3923 0.533854 28.2751 0.585938 28.2361C1.96615 28.2751 2.83203 28.2947 3.18359 28.2947C3.54818 28.2947 3.9974 28.2882 4.53125 28.2751C5.07812 28.2621 5.54688 28.2556 5.9375 28.2556ZM17.7734 33.4119C17.4609 33.4119 17.181 33.503 16.9336 33.6853C16.6862 33.8676 16.4974 34.0889 16.3672 34.3494C16.237 34.6098 16.1393 34.8572 16.0742 35.0916C16.0221 35.3129 15.9961 35.5017 15.9961 35.658C15.9961 35.7491 16.0352 35.7947 16.1133 35.7947H19.2773C19.3945 35.7947 19.4531 35.697 19.4531 35.5017C19.4531 35.046 19.2969 34.5837 18.9844 34.115C18.6849 33.6462 18.2812 33.4119 17.7734 33.4119ZM17.9102 32.5134C18.5221 32.5134 19.069 32.6371 19.5508 32.8845C20.0326 33.1189 20.4102 33.4249 20.6836 33.8025C20.957 34.1671 21.1654 34.5512 21.3086 34.9548C21.4518 35.3455 21.5234 35.7231 21.5234 36.0876C21.5234 36.3741 21.4714 36.5564 21.3672 36.6345C21.276 36.6996 21.0807 36.7322 20.7812 36.7322H16.1133C16.0221 36.7322 15.9766 36.7712 15.9766 36.8494C15.9766 37.3181 16.0612 37.7738 16.2305 38.2166C16.3997 38.6593 16.6862 39.0434 17.0898 39.3689C17.5065 39.6944 18.0013 39.8572 18.5742 39.8572C18.7695 39.8572 18.9583 39.8507 19.1406 39.8376C19.3229 39.8116 19.4922 39.7791 19.6484 39.74C19.8047 39.6879 19.9414 39.6423 20.0586 39.6033C20.1758 39.5642 20.293 39.5056 20.4102 39.4275C20.5404 39.3494 20.6315 39.2973 20.6836 39.2712C20.7357 39.2322 20.8138 39.1801 20.918 39.115C21.0221 39.0369 21.0742 38.9978 21.0742 38.9978C21.1003 39.0108 21.1328 39.0499 21.1719 39.115C21.2109 39.1801 21.2305 39.2452 21.2305 39.3103C21.2305 39.4535 21.1914 39.5772 21.1133 39.6814C20.918 40.033 20.5339 40.3845 19.9609 40.7361C19.388 41.0876 18.7435 41.2634 18.0273 41.2634C16.8945 41.2634 15.918 40.8468 15.0977 40.0134C14.2773 39.1671 13.8672 38.1449 13.8672 36.947C13.8672 35.6319 14.2448 34.5642 15 33.7439C15.7682 32.9236 16.7383 32.5134 17.9102 32.5134ZM25.6445 40.0134C25.9961 40.0134 26.2956 39.9223 26.543 39.74C26.8034 39.5577 26.9336 39.3494 26.9336 39.115V37.1228C26.8424 37.1619 26.6471 37.227 26.3477 37.3181C26.0612 37.4093 25.8398 37.4874 25.6836 37.5525C25.5273 37.6176 25.3451 37.7087 25.1367 37.8259C24.9284 37.9431 24.7721 38.0863 24.668 38.2556C24.5768 38.4249 24.5312 38.6072 24.5312 38.8025C24.5312 39.2192 24.6354 39.5251 24.8438 39.7205C25.0521 39.9158 25.319 40.0134 25.6445 40.0134ZM26.5234 32.5134C27.3307 32.5134 27.9362 32.7283 28.3398 33.158C28.7435 33.5746 28.9453 34.2973 28.9453 35.3259V39.1736C28.9453 39.434 29.0039 39.6358 29.1211 39.7791C29.2383 39.9093 29.3945 39.9744 29.5898 39.9744C29.7852 39.9744 30.0065 39.8897 30.2539 39.7205C30.332 39.7465 30.3711 39.8181 30.3711 39.9353C30.3711 40.1957 30.332 40.391 30.2539 40.5212C30.0586 40.6775 29.7982 40.8403 29.4727 41.0095C29.1471 41.1788 28.8346 41.2634 28.5352 41.2634C28.2357 41.2634 27.9427 41.1528 27.6562 40.9314C27.3698 40.71 27.181 40.4692 27.0898 40.2087C27.0768 40.2218 27.0247 40.2673 26.9336 40.3455C26.8555 40.4106 26.7383 40.4952 26.582 40.5994C26.4388 40.7035 26.2695 40.8077 26.0742 40.9119C25.8919 41.016 25.6706 41.1007 25.4102 41.1658C25.1628 41.2439 24.9089 41.283 24.6484 41.283C23.9974 41.283 23.4635 41.1072 23.0469 40.7556C22.6432 40.391 22.4414 39.8962 22.4414 39.2712C22.4414 38.9587 22.513 38.6658 22.6562 38.3923C22.8125 38.1189 22.9948 37.8975 23.2031 37.7283C23.4115 37.546 23.6914 37.3702 24.043 37.2009C24.3945 37.0317 24.694 36.908 24.9414 36.8298C25.2018 36.7387 25.5273 36.6345 25.918 36.5173C26.3216 36.4001 26.6016 36.3155 26.7578 36.2634C26.875 36.2113 26.9336 36.1072 26.9336 35.9509V34.8767C26.9336 34.421 26.8294 34.0629 26.6211 33.8025C26.4128 33.5421 26.1328 33.4119 25.7812 33.4119C25.3906 33.4119 25.0846 33.5356 24.8633 33.783C24.6419 34.0173 24.5312 34.3559 24.5312 34.7986C24.5312 35.059 24.4336 35.2543 24.2383 35.3845C24.043 35.5017 23.8216 35.5603 23.5742 35.5603C23.0924 35.5603 22.7539 35.4041 22.5586 35.0916C22.5586 34.4666 22.9818 33.8806 23.8281 33.3337C24.6875 32.7869 25.5859 32.5134 26.5234 32.5134ZM34.6484 38.3337C34.6484 39.141 34.694 39.727 34.7852 40.0916C34.8112 40.1827 34.9674 40.2869 35.2539 40.4041C35.5534 40.5082 35.7552 40.5603 35.8594 40.5603C35.8984 40.5603 35.918 40.6514 35.918 40.8337C35.931 41.016 35.9245 41.1397 35.8984 41.2048C35.7161 41.1918 35.4688 41.1723 35.1562 41.1462C34.8568 41.1332 34.5833 41.1202 34.3359 41.1072C34.0885 41.0942 33.8542 41.0876 33.6328 41.0876C33.3854 41.0876 33.138 41.0942 32.8906 41.1072C32.6432 41.1202 32.3698 41.1332 32.0703 41.1462C31.7708 41.1723 31.5234 41.1918 31.3281 41.2048C31.276 41.1528 31.25 41.0356 31.25 40.8533C31.25 40.658 31.276 40.5603 31.3281 40.5603C31.4714 40.5603 31.6862 40.5082 31.9727 40.4041C32.2721 40.2869 32.4349 40.1827 32.4609 40.0916C32.5651 39.6358 32.6172 39.1541 32.6172 38.6462V30.5212C32.6172 30.0264 32.5781 29.5837 32.5 29.1931C32.4349 28.9848 32.1094 28.8806 31.5234 28.8806H31.3281C31.25 28.8806 31.2109 28.8025 31.2109 28.6462C31.2109 28.4379 31.25 28.3337 31.3281 28.3337C31.7318 28.2947 32.1159 28.2426 32.4805 28.1775C32.8451 28.1124 33.1445 28.0473 33.3789 27.9822C33.6263 27.9171 33.8346 27.8585 34.0039 27.8064C34.1862 27.7413 34.3294 27.6892 34.4336 27.6501L34.5703 27.5916H34.6094C34.6615 27.5916 34.7135 27.6306 34.7656 27.7087C34.8307 27.7869 34.8698 27.852 34.8828 27.9041C34.7266 28.3988 34.6484 29.0108 34.6484 29.74V38.3337ZM63.0078 30.9509C63.0078 30.1697 62.9557 29.6228 62.8516 29.3103C62.7995 29.2061 62.6172 29.1085 62.3047 29.0173C61.9922 28.9132 61.7578 28.8611 61.6016 28.8611C61.5495 28.8611 61.5234 28.7634 61.5234 28.5681C61.5234 28.3598 61.5365 28.2426 61.5625 28.2166C61.6276 28.2166 61.9857 28.2361 62.6367 28.2751C63.3008 28.3142 63.8086 28.3337 64.1602 28.3337C64.2643 28.3337 65.0977 28.2947 66.6602 28.2166C66.6992 28.3337 66.7188 28.4379 66.7188 28.5291C66.7188 28.7504 66.6927 28.8611 66.6406 28.8611C66.5234 28.8611 66.2891 28.9132 65.9375 29.0173C65.5859 29.1215 65.3971 29.2192 65.3711 29.3103C65.2669 29.7139 65.2148 30.2869 65.2148 31.0291V38.3728C65.2148 39.0889 65.2734 39.6749 65.3906 40.1306C65.4167 40.2218 65.5924 40.3194 65.918 40.4236C66.2565 40.5147 66.4844 40.5603 66.6016 40.5603C66.6536 40.5603 66.6797 40.684 66.6797 40.9314C66.6797 41.0356 66.6667 41.1267 66.6406 41.2048C65.0781 41.1267 64.2513 41.0876 64.1602 41.0876C63.8997 41.0876 63.6263 41.0942 63.3398 41.1072C63.0534 41.1202 62.7344 41.1332 62.3828 41.1462C62.0443 41.1723 61.7708 41.1918 61.5625 41.2048C61.5104 41.1528 61.4844 41.0616 61.4844 40.9314C61.4844 40.684 61.5104 40.5603 61.5625 40.5603C61.7188 40.5603 61.9596 40.5147 62.2852 40.4236C62.6237 40.3324 62.8125 40.2348 62.8516 40.1306C62.9557 39.727 63.0078 39.1801 63.0078 38.49V30.9509ZM72.0312 33.4119C71.3411 33.4119 70.8203 33.7048 70.4688 34.2908C70.1172 34.8767 69.9414 35.6645 69.9414 36.6541C69.9414 37.7608 70.1432 38.6267 70.5469 39.2517C70.9505 39.8637 71.5169 40.1697 72.2461 40.1697C72.6888 40.1697 73.0469 40.059 73.3203 39.8376C73.5938 39.6033 73.7305 39.3103 73.7305 38.9587V34.8572C73.7305 34.727 73.7044 34.5903 73.6523 34.447C73.6133 34.3038 73.5352 34.1541 73.418 33.9978C73.3138 33.8285 73.138 33.6918 72.8906 33.5876C72.6562 33.4705 72.3698 33.4119 72.0312 33.4119ZM72.207 32.4744C72.7669 32.4744 73.2422 32.5655 73.6328 32.7478C73.6979 32.7478 73.7305 32.6436 73.7305 32.4353V30.5994C73.7305 30.1046 73.6914 29.6619 73.6133 29.2712C73.5482 29.0629 73.2096 28.9587 72.5977 28.9587H72.4414C72.3633 28.9587 72.3242 28.8546 72.3242 28.6462C72.3242 28.4379 72.3633 28.3337 72.4414 28.3337C72.832 28.2947 73.2096 28.2426 73.5742 28.1775C73.9518 28.1124 74.2578 28.0473 74.4922 27.9822C74.7396 27.9171 74.9479 27.852 75.1172 27.7869C75.2995 27.7218 75.4362 27.6762 75.5273 27.6501C75.6185 27.6111 75.6706 27.5916 75.6836 27.5916H75.7227C75.7747 27.5916 75.8268 27.6306 75.8789 27.7087C75.931 27.7738 75.957 27.8389 75.957 27.9041C75.8268 28.4119 75.7617 29.0238 75.7617 29.74V38.3337C75.7617 38.9327 75.8008 39.4145 75.8789 39.7791C75.8919 39.8702 75.957 39.9418 76.0742 39.9939C76.1914 40.046 76.3151 40.0785 76.4453 40.0916C76.5755 40.1046 76.6992 40.1176 76.8164 40.1306C76.9336 40.1306 76.9987 40.1306 77.0117 40.1306C77.0378 40.1567 77.0508 40.2348 77.0508 40.365C77.0508 40.6254 77.0117 40.7556 76.9336 40.7556C76.7513 40.7686 76.5169 40.7947 76.2305 40.8337C75.957 40.8728 75.6836 40.9184 75.4102 40.9705C75.1497 41.0095 74.8958 41.0551 74.6484 41.1072C74.4141 41.1462 74.2188 41.1788 74.0625 41.2048C73.9193 41.2439 73.8477 41.2634 73.8477 41.2634C73.7695 41.2634 73.7305 41.1528 73.7305 40.9314V40.5994C73.7305 40.5603 73.7174 40.5343 73.6914 40.5212C73.6784 40.5082 73.6654 40.5082 73.6523 40.5212C73.0273 41.003 72.3503 41.2439 71.6211 41.2439C70.5664 41.2439 69.6484 40.8598 68.8672 40.0916C68.0859 39.3103 67.6953 38.3337 67.6953 37.1619C67.6953 35.8728 68.138 34.7725 69.0234 33.8611C69.9219 32.9366 70.9831 32.4744 72.207 32.4744ZM81.8359 33.4119C81.5234 33.4119 81.2435 33.503 80.9961 33.6853C80.7487 33.8676 80.5599 34.0889 80.4297 34.3494C80.2995 34.6098 80.2018 34.8572 80.1367 35.0916C80.0846 35.3129 80.0586 35.5017 80.0586 35.658C80.0586 35.7491 80.0977 35.7947 80.1758 35.7947H83.3398C83.457 35.7947 83.5156 35.697 83.5156 35.5017C83.5156 35.046 83.3594 34.5837 83.0469 34.115C82.7474 33.6462 82.3438 33.4119 81.8359 33.4119ZM81.9727 32.5134C82.5846 32.5134 83.1315 32.6371 83.6133 32.8845C84.0951 33.1189 84.4727 33.4249 84.7461 33.8025C85.0195 34.1671 85.2279 34.5512 85.3711 34.9548C85.5143 35.3455 85.5859 35.7231 85.5859 36.0876C85.5859 36.3741 85.5339 36.5564 85.4297 36.6345C85.3385 36.6996 85.1432 36.7322 84.8438 36.7322H80.1758C80.0846 36.7322 80.0391 36.7712 80.0391 36.8494C80.0391 37.3181 80.1237 37.7738 80.293 38.2166C80.4622 38.6593 80.7487 39.0434 81.1523 39.3689C81.569 39.6944 82.0638 39.8572 82.6367 39.8572C82.832 39.8572 83.0208 39.8507 83.2031 39.8376C83.3854 39.8116 83.5547 39.7791 83.7109 39.74C83.8672 39.6879 84.0039 39.6423 84.1211 39.6033C84.2383 39.5642 84.3555 39.5056 84.4727 39.4275C84.6029 39.3494 84.694 39.2973 84.7461 39.2712C84.7982 39.2322 84.8763 39.1801 84.9805 39.115C85.0846 39.0369 85.1367 38.9978 85.1367 38.9978C85.1628 39.0108 85.1953 39.0499 85.2344 39.115C85.2734 39.1801 85.293 39.2452 85.293 39.3103C85.293 39.4535 85.2539 39.5772 85.1758 39.6814C84.9805 40.033 84.5964 40.3845 84.0234 40.7361C83.4505 41.0876 82.806 41.2634 82.0898 41.2634C80.957 41.2634 79.9805 40.8468 79.1602 40.0134C78.3398 39.1671 77.9297 38.1449 77.9297 36.947C77.9297 35.6319 78.3073 34.5642 79.0625 33.7439C79.8307 32.9236 80.8008 32.5134 81.9727 32.5134ZM89.707 40.0134C90.0586 40.0134 90.3581 39.9223 90.6055 39.74C90.8659 39.5577 90.9961 39.3494 90.9961 39.115V37.1228C90.9049 37.1619 90.7096 37.227 90.4102 37.3181C90.1237 37.4093 89.9023 37.4874 89.7461 37.5525C89.5898 37.6176 89.4076 37.7087 89.1992 37.8259C88.9909 37.9431 88.8346 38.0863 88.7305 38.2556C88.6393 38.4249 88.5938 38.6072 88.5938 38.8025C88.5938 39.2192 88.6979 39.5251 88.9062 39.7205C89.1146 39.9158 89.3815 40.0134 89.707 40.0134ZM90.5859 32.5134C91.3932 32.5134 91.9987 32.7283 92.4023 33.158C92.806 33.5746 93.0078 34.2973 93.0078 35.3259V39.1736C93.0078 39.434 93.0664 39.6358 93.1836 39.7791C93.3008 39.9093 93.457 39.9744 93.6523 39.9744C93.8477 39.9744 94.069 39.8897 94.3164 39.7205C94.3945 39.7465 94.4336 39.8181 94.4336 39.9353C94.4336 40.1957 94.3945 40.391 94.3164 40.5212C94.1211 40.6775 93.8607 40.8403 93.5352 41.0095C93.2096 41.1788 92.8971 41.2634 92.5977 41.2634C92.2982 41.2634 92.0052 41.1528 91.7188 40.9314C91.4323 40.71 91.2435 40.4692 91.1523 40.2087C91.1393 40.2218 91.0872 40.2673 90.9961 40.3455C90.918 40.4106 90.8008 40.4952 90.6445 40.5994C90.5013 40.7035 90.332 40.8077 90.1367 40.9119C89.9544 41.016 89.7331 41.1007 89.4727 41.1658C89.2253 41.2439 88.9714 41.283 88.7109 41.283C88.0599 41.283 87.526 41.1072 87.1094 40.7556C86.7057 40.391 86.5039 39.8962 86.5039 39.2712C86.5039 38.9587 86.5755 38.6658 86.7188 38.3923C86.875 38.1189 87.0573 37.8975 87.2656 37.7283C87.474 37.546 87.7539 37.3702 88.1055 37.2009C88.457 37.0317 88.7565 36.908 89.0039 36.8298C89.2643 36.7387 89.5898 36.6345 89.9805 36.5173C90.3841 36.4001 90.6641 36.3155 90.8203 36.2634C90.9375 36.2113 90.9961 36.1072 90.9961 35.9509V34.8767C90.9961 34.421 90.8919 34.0629 90.6836 33.8025C90.4753 33.5421 90.1953 33.4119 89.8438 33.4119C89.4531 33.4119 89.1471 33.5356 88.9258 33.783C88.7044 34.0173 88.5938 34.3559 88.5938 34.7986C88.5938 35.059 88.4961 35.2543 88.3008 35.3845C88.1055 35.5017 87.8841 35.5603 87.6367 35.5603C87.1549 35.5603 86.8164 35.4041 86.6211 35.0916C86.6211 34.4666 87.0443 33.8806 87.8906 33.3337C88.75 32.7869 89.6484 32.5134 90.5859 32.5134Z" fill="#FFF2F2"/>
<g clip-path="url(#clip0)">
<path fill-rule="evenodd" clip-rule="evenodd" d="M45.4604 44.1542C45.3972 44.1368 45.377 43.9773 45.379 43.6891C45.381 43.401 45.4044 42.9832 45.4037 42.447C45.403 41.9109 45.3776 41.2551 45.2664 40.5047C45.1552 39.7542 44.9578 38.9078 44.6054 38.023C44.2897 37.2143 43.8376 36.3754 43.2594 35.4984C42.6812 34.6214 41.9758 33.7065 41.2186 32.7171C40.5996 31.9252 39.939 31.0708 39.3101 30.1152C38.6813 29.1597 38.0841 28.1029 37.6271 26.8934C37.6271 26.8934 37.6271 26.8934 37.6271 26.8934C37.0534 25.3315 36.7974 23.5841 36.9384 21.7975C37.0794 20.0111 37.6178 18.1862 38.6141 16.5331C39.4996 15.0762 40.7258 13.796 42.1977 12.8179C43.6695 11.8398 45.3867 11.1643 47.2173 10.9256C47.2981 10.9151 47.3791 10.9054 47.4601 10.8966C49.3449 10.7001 51.2215 10.9865 52.9087 11.6473C54.5961 12.3081 56.0938 13.3428 57.2661 14.6423C58.5634 16.0941 59.4106 17.8228 59.8252 19.5791C60.2398 21.3352 60.2222 23.1178 59.8263 24.7483C59.5863 25.6928 59.2515 26.5465 58.895 27.3372C58.5385 28.128 58.1603 28.8561 57.8136 29.544C57.8136 29.544 57.8136 29.544 57.8136 29.544C55.9163 33.3514 54.7011 36.6424 53.8824 38.9434C53.473 40.0939 53.1624 40.999 52.9248 41.61C52.6872 42.2209 52.522 42.5376 52.4245 42.5166C52.327 42.4955 52.3024 42.1376 52.3596 41.4788C52.4169 40.8199 52.5568 39.86 52.8097 38.6434C53.0625 37.4268 53.4291 35.9534 53.9496 34.2777C54.4701 32.602 55.1453 30.7239 56.0156 28.7095C56.0156 28.7095 56.0156 28.7095 56.0156 28.7095C56.3274 27.9792 56.6612 27.2479 56.9592 26.5091C57.2572 25.7703 57.5194 25.0239 57.6683 24.2577C57.9372 22.9643 57.8959 21.5426 57.5252 20.1533C57.1542 18.7637 56.4537 17.4067 55.4323 16.3129C54.5179 15.3219 53.3261 14.5295 51.9908 14.0217C50.6556 13.5139 49.1775 13.2909 47.7309 13.4478C47.6685 13.4542 47.6061 13.4613 47.5438 13.4691C46.1312 13.6464 44.7741 14.179 43.601 14.9452C42.4279 15.7115 41.4393 16.7111 40.7327 17.8381C39.9251 19.1128 39.4636 20.5704 39.311 22.0131C39.1584 23.4557 39.3148 24.8829 39.732 26.1581L39.732 26.1581C40.0498 27.1673 40.5363 28.1051 41.0753 29.0022C41.6144 29.8994 42.2062 30.7559 42.7693 31.5888C43.4799 32.6168 44.1538 33.6324 44.7016 34.6336C45.2494 35.6348 45.6721 36.6211 45.949 37.5695C46.248 38.6165 46.3558 39.5854 46.3622 40.4232C46.3686 41.2609 46.2742 41.9686 46.1523 42.5294C46.0304 43.0902 45.8815 43.5054 45.7547 43.7755C45.6279 44.0455 45.5237 44.1712 45.4606 44.1539L45.4604 44.1542Z" fill="white"/>
<path fill-rule="evenodd" clip-rule="evenodd" d="M46.2264 39.079C46.3097 38.3758 47.7631 37.9693 49.4705 38.1716C51.178 38.3739 52.4961 39.1089 52.4129 39.8121C52.3296 40.5153 50.8762 40.9218 49.1688 40.7195C47.4613 40.5171 46.1433 39.7822 46.2264 39.079V39.079Z" fill="white"/>
<path fill-rule="evenodd" clip-rule="evenodd" d="M45.3686 42.7811C45.4268 42.0753 47.2187 41.6463 49.3684 41.8233C51.5181 42.0004 53.2157 42.7168 53.1575 43.4226C53.0994 44.1283 51.3075 44.5574 49.1577 44.3804C47.008 44.2034 45.3104 43.4869 45.3686 42.7811V42.7811Z" fill="white"/>
<path fill-rule="evenodd" clip-rule="evenodd" d="M45.497 46.2621C45.6008 45.5627 47.3476 45.2404 49.3962 45.5439C51.4448 45.8474 53.0231 46.6623 52.9195 47.3628C52.8157 48.0633 51.0689 48.3855 49.0203 48.082C46.9717 47.7785 45.3934 46.9637 45.497 46.2632V46.2621Z" fill="white"/>
<path fill-rule="evenodd" clip-rule="evenodd" d="M31.6178 6.85323C32.0636 6.30306 34.1091 7.22086 36.1835 8.90189C38.258 10.5829 39.5798 12.3939 39.1339 12.944C38.6881 13.4941 36.6426 12.5764 34.5681 10.8953C32.4936 9.21429 31.1718 7.40333 31.6178 6.85323Z" fill="white"/>
<path fill-rule="evenodd" clip-rule="evenodd" d="M46.7785 0.00118301C47.4842 -0.056803 48.2021 1.65943 48.3809 3.83185C48.5597 6.00453 48.1322 7.81519 47.4264 7.87317C46.7207 7.93116 46.0027 6.21518 45.8239 4.0425C45.645 1.86982 46.0727 0.0594256 46.7785 0.00118301Z" fill="white"/>
<path fill-rule="evenodd" clip-rule="evenodd" d="M65.0214 4.23863C65.5889 4.66213 64.7857 6.69957 63.2286 8.78643C61.6714 10.8734 59.947 12.2235 59.3794 11.7999C58.8118 11.3764 59.615 9.33896 61.1722 7.25211C62.7294 5.16517 64.4538 3.81502 65.0214 4.23863Z" fill="white"/>
<path fill-rule="evenodd" clip-rule="evenodd" d="M62.5069 20.1251C62.1998 19.4871 63.9905 17.9872 66.5039 16.7773C69.0173 15.5673 71.3064 15.1031 71.6138 15.7412C71.921 16.3792 70.1304 17.8791 67.6169 19.0892C65.1034 20.2992 62.8143 20.7634 62.5069 20.1254V20.1251Z" fill="white"/>
<path fill-rule="evenodd" clip-rule="evenodd" d="M26.0414 17.7264C26.3738 17.1011 28.6192 17.6441 31.0531 18.9384C33.487 20.2327 35.1924 21.7905 34.8601 22.4158C34.5277 23.041 32.2823 22.4981 29.8484 21.2038C27.4145 19.9095 25.7091 18.3517 26.0414 17.7264Z" fill="white"/>
<path d="M52.1517 39.1263C51.3651 38.1733 47.7417 37.748 46.6276 38.478C46.3202 38.6794 46.3201 38.6793 46.3201 38.114C46.3201 36.3439 45.1478 33.733 42.8763 30.4445C40.3997 26.8588 39.9268 25.9837 39.4521 24.1063C38.8332 21.6595 39.4099 18.4178 40.8176 16.4303C44.3176 11.4892 51.0193 10.8483 55.2192 15.0527C57.2428 17.0784 58.2342 20.3233 57.6743 23.0873C57.4323 24.2816 57.1614 25.0285 56.0399 27.5936C54.2859 31.6054 52.9484 35.8255 52.3881 39.1148C52.3476 39.3528 52.3389 39.3532 52.1516 39.1263H52.1517Z" fill="#FE7062"/>
<path d="M53.4536 29.1316C53.4062 29.1316 53.3588 29.1227 53.3125 29.1026C53.1309 29.0268 53.0488 28.8251 53.1275 28.6512C56.0939 22.0678 53.5346 16.5409 53.5091 16.4863C53.427 16.3146 53.5056 16.1107 53.6849 16.0315C53.8642 15.9524 54.0746 16.0271 54.1567 16.2009C54.2689 16.4361 56.8722 22.0622 53.7809 28.9254C53.7231 29.0547 53.5912 29.1316 53.4536 29.1316Z" fill="white"/>
<path d="M51.4477 32.5779C51.3755 32.5779 51.3024 32.5557 51.2396 32.5114C51.0839 32.4006 51.0514 32.189 51.1664 32.0388C51.6358 31.4302 52.0655 30.8005 52.445 30.1688C52.5422 30.0075 52.7555 29.9521 52.9228 30.0448C53.0901 30.1385 53.1476 30.3441 53.0503 30.5053C52.6583 31.1602 52.214 31.8111 51.7289 32.4409C51.6599 32.5305 51.5543 32.5779 51.4477 32.5779Z" fill="white"/>
</g>
<defs>
<clipPath id="clip0">
<rect width="45.6473" height="48.1951" fill="white" transform="translate(26)"/>
</clipPath>
</defs>
</svg>
