<svg width="157" height="249" viewBox="0 0 157 249" fill="none" xmlns="http://www.w3.org/2000/svg">
<path d="M126.676 3.4135H33.336C24.5014 3.4135 17.2539 11.1057 17.2539 20.5296V231.434C17.2539 240.848 24.5014 248.529 33.336 248.529H126.676C135.521 248.529 142.738 240.848 142.738 231.434V20.5296C142.738 11.1057 135.521 3.4135 126.676 3.4135Z" fill="#E2E2E2"/>
<path d="M125.102 0.627426H31.7618C22.9272 0.627426 15.6797 8.3196 15.6797 17.7435V228.648C15.6797 238.061 22.9272 245.743 31.7618 245.743H125.102C133.947 245.743 141.163 238.061 141.163 228.648V17.7435C141.163 8.3196 133.947 0.627426 125.102 0.627426Z" fill="#3F4A5A"/>
<path d="M132.061 208.694H24.7734V37.6864H132.061V208.694Z" fill="white"/>
<path d="M80.6964 21.9932C79.4103 21.9932 78.3691 20.8807 78.3691 19.5134V18.7678C78.3691 17.3949 79.4103 16.288 80.6964 16.288H91.437C92.7176 16.288 93.759 17.3949 93.759 18.7678V19.5134C93.759 20.8807 92.7176 21.9932 91.437 21.9932H80.6964Z" fill="#333C49"/>
<path d="M74.4343 19.1462C74.4343 21.535 72.6199 23.4414 70.3928 23.4414C68.1562 23.4414 66.3418 21.535 66.3418 19.1462C66.3418 16.7791 68.1562 14.8504 70.3928 14.8504C72.6199 14.8504 74.4343 16.7791 74.4343 19.1462Z" fill="#333C49"/>
<path d="M72.0065 19.1463C72.0065 20.0881 71.2848 20.8552 70.3982 20.8552C69.5014 20.8552 68.7695 20.0881 68.7695 19.1463C68.7695 18.2038 69.5014 17.4259 70.3982 17.4259C71.2848 17.4259 72.0065 18.2038 72.0065 19.1463Z" fill="#3F4A5A"/>
<path d="M47.0493 94.2949C55.7194 94.2949 62.7395 86.8218 62.7395 77.6169H31.3691C31.3691 86.8218 38.3893 94.2949 47.0493 94.2949Z" fill="#FF5A66"/>
<path d="M15.6801 94.2948C24.3502 94.2948 31.3709 86.8217 31.3709 77.6168H0C0 86.8217 7.02016 94.2948 15.6801 94.2948Z" fill="#FFBBC3"/>
<path d="M78.4228 94.2949C87.0823 94.2949 94.1131 86.8218 94.1131 77.6169H62.7422C62.7422 86.8218 69.7629 94.2949 78.4228 94.2949Z" fill="#FFBBC3"/>
<path d="M109.792 94.2949C118.451 94.2949 125.472 86.8218 125.472 77.6169H94.1113C94.1113 86.8218 101.132 94.2949 109.792 94.2949Z" fill="#FF5A66"/>
<path d="M141.163 94.2949C149.823 94.2949 156.854 86.8218 156.854 77.6169H125.473C125.473 86.8218 132.504 94.2949 141.163 94.2949Z" fill="#FFBBC3"/>
<path d="M46.2365 37.6863H24.7832L0 77.6168H31.3603L46.2365 37.6863Z" fill="#FF5A66"/>
<path d="M67.688 37.6863H46.2347L31.3691 77.6168H62.7295L67.688 37.6863Z" fill="#FFBBC3"/>
<path d="M89.1444 37.6863H67.7012L62.7422 77.6168H94.1028L89.1444 37.6863Z" fill="#FF5A66"/>
<path d="M110.606 37.6863H89.1426L94.1112 77.6168H125.472L110.606 37.6863Z" fill="#FFBBC3"/>
<path d="M132.061 37.6863H110.607L125.484 77.6168H156.844L132.061 37.6863Z" fill="#FF5A66"/>
<path d="M89.6716 227.102C89.6716 233.737 84.6107 239.117 78.368 239.117C72.1252 239.117 67.0645 233.737 67.0645 227.102C67.0645 220.466 72.1252 215.087 78.368 215.087C84.6107 215.087 89.6716 220.466 89.6716 227.102Z" fill="#333C49"/>
<path d="M96.8028 138.545L78.4419 119.029L60.081 138.545L57.8809 136.203L77.3401 115.515C77.9233 114.895 78.9606 114.895 79.5438 115.515L99.0065 136.203L96.8028 138.545Z" fill="#3F4A5A"/>
<path d="M83.1127 116.686C83.1127 119.429 81.021 121.652 78.441 121.652C75.8612 121.652 73.7695 119.429 73.7695 116.686C73.7695 113.944 75.8612 111.721 78.441 111.721C81.021 111.721 83.1127 113.944 83.1127 116.686Z" fill="#3F4A5A"/>
<path d="M111.526 174.608H45.3574V137.374H111.526V174.608Z" fill="#90DEA9"/>
<path d="M48.0822 171.711H108.799V140.271H48.0822V171.711ZM109.189 177.505H47.6889C44.9022 177.505 42.6309 175.091 42.6309 172.129V139.857C42.6309 136.891 44.9022 134.477 47.6889 134.477H109.189C111.979 134.477 114.251 136.891 114.251 139.857V172.129C114.251 175.091 111.979 177.505 109.189 177.505Z" fill="#71BF8C"/>
<path d="M101.796 163.516C101.356 163.516 100.935 163.286 100.681 162.882L95.4806 154.591V163.516H92.7988V149.888C92.7988 149.261 93.1853 148.707 93.7515 148.526C94.3175 148.339 94.9279 148.577 95.2533 149.095L100.454 157.391V148.461H103.135V162.093C103.135 162.724 102.749 163.275 102.183 163.459C102.054 163.499 101.925 163.516 101.796 163.516Z" fill="white"/>
<path d="M90.1159 163.516H81.1185C80.3797 163.516 79.7793 162.882 79.7793 162.093V149.888C79.7793 149.103 80.3797 148.461 81.1185 148.461H90.1159V151.312H82.4577V160.67H90.1159V163.516Z" fill="white"/>
<path d="M86.2884 157.416H79.7793V154.565H86.2884V157.416Z" fill="white"/>
<path d="M69.4434 154.565H72.8877C73.2978 154.565 73.681 154.396 73.9692 154.09C74.2607 153.78 74.4235 153.373 74.4235 152.937C74.4235 152.504 74.2607 152.097 73.9758 151.791C73.6843 151.481 73.2978 151.312 72.8877 151.312H69.4434V154.565ZM69.4434 163.516H66.7617V149.888C66.7617 149.103 67.3618 148.461 68.1043 148.461H72.8877C74.0166 148.461 75.0744 148.93 75.8676 149.773C76.6608 150.616 77.1016 151.74 77.1016 152.937C77.1016 154.133 76.6643 155.257 75.8676 156.104C75.0709 156.951 74.0133 157.416 72.8877 157.416H69.4434V163.516Z" fill="white"/>
<path d="M57.9586 151.312C57.5484 151.312 57.1653 151.481 56.8738 151.787C56.5856 152.094 56.4263 152.504 56.4263 152.937V159.041C56.4263 159.477 56.5856 159.884 56.8738 160.194C57.1653 160.5 57.5484 160.67 57.9586 160.67H59.8706C60.2808 160.67 60.6673 160.5 60.9555 160.194C61.2436 159.884 61.403 159.481 61.403 159.041V152.937C61.403 152.501 61.2436 152.094 60.9587 151.791C60.6673 151.481 60.2808 151.312 59.8706 151.312H57.9586ZM59.8706 163.516H57.9586C56.8331 163.516 55.7754 163.052 54.9787 162.208C54.1854 161.362 53.748 160.237 53.748 159.041V152.937C53.748 151.74 54.1854 150.616 54.9787 149.773C55.7754 148.93 56.8331 148.461 57.9586 148.461H59.8706C60.9996 148.461 62.0573 148.93 62.8505 149.773C63.6437 150.616 64.0846 151.74 64.0846 152.937V159.041C64.0846 160.245 63.6437 161.369 62.8505 162.208C62.0573 163.052 60.9996 163.516 59.8706 163.516Z" fill="white"/>
</svg>
