<svg width="242" height="141" viewBox="0 0 242 141" fill="none" xmlns="http://www.w3.org/2000/svg">
<g clip-path="url(#clip0)">
<path d="M31.047 0.359619H212.713C214.484 0.359619 216.183 1.06316 217.435 2.31547C218.687 3.56778 219.391 5.26627 219.391 7.03731V128.619H24.375V7.03731C24.375 5.26627 25.0785 3.56778 26.3308 2.31547C27.5832 1.06316 29.2817 0.359619 31.0527 0.359619H31.047Z" fill="#040404"/>
<path d="M209.856 12.1642H34.689C34.4573 12.1642 34.2695 12.352 34.2695 12.5837V117.341C34.2695 117.572 34.4573 117.76 34.689 117.76H209.856C210.087 117.76 210.275 117.572 210.275 117.341V12.5837C210.275 12.352 210.087 12.1642 209.856 12.1642Z" fill="white"/>
<path d="M122.179 7.56709C122.795 7.56709 123.295 7.27051 123.295 6.90464C123.295 6.53878 122.795 6.24219 122.179 6.24219C121.562 6.24219 121.062 6.53878 121.062 6.90464C121.062 7.27051 121.562 7.56709 122.179 7.56709Z" fill="#4D4D4D"/>
<path d="M210.023 17.3271H34.0176V24.468H210.023V17.3271Z" fill="#86328C"/>
<path d="M192.568 27.7062H49.3379V64.7372H192.568V27.7062Z" fill="#86328C"/>
<path d="M166.397 43.5956H75.5117V51.1426H166.397V43.5956Z" fill="#F7F7F7"/>
<path d="M166.394 43.5956H147.037V51.2318H166.394V43.5956Z" fill="#EC008C"/>
<path d="M142.908 68.8657H98.7305V88.3483H142.908V68.8657Z" fill="#0083CA"/>
<path d="M192.562 68.4139H148.385V87.8965H192.562V68.4139Z" fill="#0083CA"/>
<path d="M93.5154 68.8657H49.3379V88.3483H93.5154V68.8657Z" fill="#0083CA"/>
<path d="M143.043 91.4897H98.8652V92.7881H143.043V91.4897Z" fill="#999999"/>
<path d="M143.043 95.2139H98.8652V96.5122H143.043V95.2139Z" fill="#999999"/>
<path d="M143.043 98.9399H98.8652V100.238H143.043V98.9399Z" fill="#999999"/>
<path d="M143.043 102.666H98.8652V103.964H143.043V102.666Z" fill="#999999"/>
<path d="M192.568 107.011H49.3379V117.713H192.568V107.011Z" fill="#ED1164"/>
<path d="M93.5154 91.3436H49.3379V92.642H93.5154V91.3436Z" fill="#999999"/>
<path d="M93.5154 95.0696H49.3379V96.3679H93.5154V95.0696Z" fill="#999999"/>
<path d="M93.5154 98.7939H49.3379V100.092H93.5154V98.7939Z" fill="#999999"/>
<path d="M93.5154 102.52H49.3379V103.818H93.5154V102.52Z" fill="#999999"/>
<path d="M192.562 91.4897H148.385V92.7881H192.562V91.4897Z" fill="#999999"/>
<path d="M192.562 95.2139H148.385V96.5122H192.562V95.2139Z" fill="#999999"/>
<path d="M192.562 98.9399H148.385V100.238H192.562V98.9399Z" fill="#999999"/>
<path d="M192.562 102.666H148.385V103.964H192.562V102.666Z" fill="#999999"/>
<path d="M170.394 20.2162H149.012V21.991H170.394V20.2162Z" fill="#999999"/>
<path d="M143.564 20.2162H122.182V21.991H143.564V20.2162Z" fill="#AFAFAF"/>
<path d="M91.0428 20.2162H69.6602V21.991H91.0428V20.2162Z" fill="#999999"/>
<path d="M116.73 20.2162H95.3477V21.991H116.73V20.2162Z" fill="#999999"/>
<path d="M240.578 134.923C240.578 136.886 232.83 139.737 231.386 139.737H12.0736C10.6291 139.737 2.88086 136.89 2.88086 134.923H240.578Z" fill="#919296"/>
<path d="M0.230469 128.583H242.206V132.911C242.206 134.063 241.749 135.168 240.934 135.982C240.12 136.797 239.015 137.254 237.863 137.254H4.46714C3.3435 137.254 2.26589 136.808 1.47136 136.013C0.676832 135.219 0.230469 134.141 0.230469 133.017V128.583Z" fill="url(#paint0_linear)"/>
<path d="M234.769 138.564C234.769 139.41 227.39 140.64 226.014 140.64H17.18C15.8039 140.64 8.42578 139.41 8.42578 138.564H234.769Z" fill="#464142"/>
<path d="M136.863 129.166C136.863 130.916 135.369 132.666 133.393 132.666H106.356C104.403 132.666 103.197 130.916 103.197 129.166H136.863Z" fill="url(#paint1_linear)"/>
<path d="M86.6113 140.014C87.27 139.505 89.1169 139.517 89.5857 140.033C88.593 140.28 87.6022 140.337 86.6113 140.014Z" fill="#1D1E21"/>
<path d="M152.199 140.147C152.858 139.638 154.705 139.65 155.174 140.166C154.181 140.413 153.19 140.471 152.199 140.147Z" fill="#1D1E21"/>
<path d="M17.1152 139.913C17.7739 139.405 19.6208 139.416 20.0896 139.932C19.1026 140.179 18.1042 140.236 17.1152 139.913Z" fill="#1D1E21"/>
<path d="M220.686 140.082C221.344 139.574 223.191 139.585 223.66 140.101C222.665 140.352 221.674 140.405 220.686 140.082Z" fill="#1D1E21"/>
<path d="M218.446 133.479C218.291 133.549 218.127 133.598 217.958 133.623H210.855C210.768 133.631 210.68 133.622 210.597 133.595C210.513 133.567 210.437 133.523 210.371 133.465C213.061 133.401 215.76 133.384 218.446 133.479Z" fill="#0D0F12"/>
<path d="M210.228 134.001C209.919 133.621 209.645 133.241 210.359 133.002C212.153 133.162 213.95 133.05 215.746 133.067C216.642 133.067 217.542 133.148 218.436 133.01C219.146 133.357 218.815 133.693 218.422 134.027C217.944 134.232 217.443 134.116 216.953 134.12C214.991 134.135 213.028 134.132 211.069 134.12C210.786 134.118 210.479 134.238 210.228 134.001Z" fill="#1C1E20"/>
<path d="M210.228 134.001L218.423 134.027C218.421 134.076 218.416 134.125 218.408 134.173C215.698 134.187 212.989 134.197 210.28 134.202C210.259 134.202 210.219 134.175 210.219 134.16C210.218 134.107 210.221 134.053 210.228 134.001Z" fill="#DCDDE0"/>
<path d="M218.446 133.01C218.291 133.08 218.127 133.129 217.958 133.154H210.855C210.768 133.162 210.68 133.153 210.597 133.126C210.513 133.099 210.437 133.055 210.371 132.997C213.061 132.932 215.76 132.915 218.446 133.01Z" fill="#0D0F12"/>
<path d="M218.446 133.01C218.291 133.08 218.127 133.129 217.958 133.154H210.855C210.768 133.162 210.68 133.153 210.597 133.126C210.513 133.099 210.437 133.055 210.371 132.997C213.061 132.932 215.76 132.915 218.446 133.01Z" fill="#0D0F12"/>
<path d="M210.228 134.001C209.919 133.621 209.645 133.241 210.359 133.002C212.153 133.162 213.95 133.05 215.746 133.067C216.642 133.067 217.542 133.148 218.436 133.01C219.146 133.357 218.815 133.693 218.422 134.027C217.944 134.232 217.443 134.116 216.953 134.12C214.991 134.135 213.028 134.132 211.069 134.12C210.786 134.118 210.479 134.238 210.228 134.001Z" fill="#1C1E20"/>
<path d="M210.228 134.001L218.423 134.027C218.421 134.076 218.416 134.125 218.408 134.173C215.698 134.187 212.989 134.197 210.28 134.202C210.259 134.202 210.219 134.175 210.219 134.16C210.218 134.107 210.221 134.053 210.228 134.001Z" fill="#CECECE"/>
<path d="M218.446 133.01C218.291 133.08 218.127 133.129 217.958 133.154H210.855C210.768 133.162 210.68 133.153 210.597 133.126C210.513 133.099 210.437 133.055 210.371 132.997C213.061 132.932 215.76 132.915 218.446 133.01Z" fill="#0D0F12"/>
</g>
<defs>
<linearGradient id="paint0_linear" x1="0.230469" y1="132.917" x2="242.21" y2="132.917" gradientUnits="userSpaceOnUse">
<stop stop-color="#606162"/>
<stop offset="0.12" stop-color="#B7BABB"/>
<stop offset="0.36" stop-color="#A2A5A6"/>
<stop offset="0.51" stop-color="#C9CCCD"/>
<stop offset="0.73" stop-color="#848687"/>
<stop offset="0.88" stop-color="#9C9FA0"/>
<stop offset="1" stop-color="#4C4D4E"/>
</linearGradient>
<linearGradient id="paint1_linear" x1="120.028" y1="129.166" x2="120.028" y2="132.666" gradientUnits="userSpaceOnUse">
<stop stop-color="#9C9FA0"/>
<stop offset="0.24" stop-color="#A2A5A6"/>
<stop offset="1" stop-color="#4C4D4E"/>
</linearGradient>
<clipPath id="clip0">
<rect width="242" height="141" fill="white"/>
</clipPath>
</defs>
</svg>
