<svg width="448" height="534" viewBox="0 0 448 534" fill="none" xmlns="http://www.w3.org/2000/svg">
<g id="sun">
<path id="sun-ray" d="M213.075 410.474C213.075 410.474 150.319 418.584 101.985 389.689C53.6514 360.795 19.7506 294.892 19.7506 294.892L177.628 170.946L335.505 46.9999L274.291 228.734L213.077 410.467L213.075 410.474Z" fill="url(#paint0_radial_204_125)"/>
<g id="sun_2">
<path id="Vector" fill-rule="evenodd" clip-rule="evenodd" d="M338.011 153.565C345.381 157.21 346.024 165.977 342.62 172.624C341.961 173.909 341.174 175.033 340.356 175.884C339.922 176.35 338.076 177.891 337.16 178.1C336.357 178.292 335.651 177.779 335.49 177.12C335.266 176.189 335.828 175.755 336.422 175.45C337.706 174.776 338.541 173.925 339.328 172.833C342.298 168.755 343.438 160.55 338.22 156.857C334.912 154.513 332.953 155.909 332.632 154.127C332.472 153.212 333.018 152.698 333.74 152.521C334.688 152.313 337.241 153.18 338.011 153.549V153.565ZM256.106 104.833C255.512 105.668 255.753 115.286 255.865 116.94C256.893 133.543 262.786 149.615 272.693 162.428C273.383 163.328 276.145 166.78 276.916 167.551C277.751 168.385 283.868 174.872 284.767 175.097C284.912 174.15 283.9 168 285.281 164.211C286.469 160.967 288.878 159.891 293.085 159.988C296.601 160.068 300.407 160.742 303.859 161.24C306.171 161.577 312.626 162.525 314.585 162.573C315.5 160.373 318.84 158.591 321.569 158.382C328.586 157.868 333.387 164.452 330.015 170.023C326.691 175.531 317.459 175.322 314.472 169.75C314.328 169.493 314.247 169.044 313.926 168.899L306.476 167.856C303.345 167.422 296.778 166.427 293.647 167.261C293.117 167.406 293.069 167.39 292.908 167.92C292.41 169.509 292.523 172.978 292.587 174.631C293.277 174.808 296.409 174.712 297.42 174.76C302.06 174.969 314.858 176.205 315.147 182.018C315.291 184.876 314.472 188.537 314.617 191.395C316.094 191.732 317.491 192.197 319.016 192.535C321.955 193.161 325.519 193.867 328.49 194.092L333.146 194.317C333.933 194.269 333.451 194.237 333.74 194.124C334.27 193.899 337.995 193.932 338.927 193.883C340.612 193.803 342.347 193.643 344.016 193.45C344.595 193.386 345.991 193.257 346.457 193.097C347.485 192.727 347.533 192.759 348.769 192.647C355.08 192.085 364.28 188.408 369.322 185.662C372.501 183.928 376.467 181.167 379.036 178.79C379.309 178.533 379.518 178.421 379.775 178.148L381.894 176.109C393.824 163.825 399.813 146.324 399.412 127.586C399.3 122.11 398.32 115.704 397.244 110.373C396.891 108.59 397.084 108.96 396.923 107.884C396.682 107.756 396.57 107.756 396.329 107.563C396.072 107.354 396.12 107.29 395.831 107.226C394.675 107.242 388.67 109.377 387.209 109.891C381.862 111.738 372.164 115.495 367.186 118.048L363.445 119.83C363.044 124.76 360.218 127.682 357.697 129.817C351.692 134.939 341.592 137.428 333.355 136.513C325.134 135.598 315.291 130.331 309.206 125.257L306.026 122.479C304.999 121.307 303.554 120.167 302.189 118.449C301.868 118.048 301.627 117.807 301.322 117.406C297.902 113.086 293.663 106.214 296.698 100.594C297.243 99.5988 297.709 99.2616 298.287 98.6675C298.528 98.4266 298.367 98.6354 298.496 98.3945C297.083 97.9128 294.594 97.1582 292.892 97.7362C292.555 101.831 289.665 104.512 287.401 106.07C281.315 110.292 272.629 111.641 265.371 109.201C259.751 107.322 257.407 105.315 256.074 104.817L256.106 104.833Z" fill="#E7E60D"/>
<path id="Vector_2" fill-rule="evenodd" clip-rule="evenodd" d="M262.063 79.898C265.017 80.5724 267.201 80.8132 270.589 81.7124C275.711 83.0612 281.251 84.8113 285.682 87.557C287.416 88.6328 290.339 90.7523 291.222 92.5025C295.541 92.6952 299.218 93.6104 302.734 95.6014C303.939 96.2758 303.425 96.0992 304.886 95.8101C316.479 93.5943 338.782 98.9733 348.881 103.774C351.788 105.155 354.068 106.424 356.364 108.093C360.635 111.208 361.582 113.713 362.08 114.147C363.718 113.745 376.29 108.559 378.233 107.788C383.515 105.701 389.232 103.437 394.851 101.799C394.37 96.4845 389.039 85.9835 386.325 81.2307C384.11 77.3611 381.171 73.1542 378.49 69.7181L374.652 65.158C373.689 64.1304 370.333 60.614 369.209 59.6506C367.363 58.061 366.046 56.7604 363.958 55.1226C349.058 43.4655 330.625 35.7743 305.641 35.9349C305.32 35.5656 305.368 35.6459 303.987 36.3042C297.516 39.371 294.273 41.2818 288.476 45.5689C287.481 46.3075 286.292 47.2227 285.393 48.0095L277.012 56.1021C276.771 56.4071 276.642 56.5195 276.353 56.8246C276.097 57.0976 276.016 57.2581 275.727 57.5793C275.342 57.9967 274.844 58.5908 274.475 59.0886C272.821 61.2562 271.28 63.0706 269.786 65.447C267.538 68.9955 265.563 72.0945 263.781 76.0284C263.348 76.9918 262.32 78.9507 262.111 79.9141L262.063 79.898Z" fill="#E7E60D"/>
<path id="Vector_3" fill-rule="evenodd" clip-rule="evenodd" d="M375.136 57.9003C379.728 57.1456 394.757 56.6318 399.108 56.6318C403.155 56.6479 407.201 56.7924 411.215 57.1296C412.997 57.2741 421.186 58.0769 422.214 58.6871C422.005 59.4257 421.363 60.7423 421.042 61.4649C420.624 62.3801 420.239 63.2632 419.837 64.1945C418.36 67.5503 416.417 71.5163 414.764 74.7437C411.279 81.5517 407.522 88.2152 403.315 94.5416L400.2 99.198C399.879 98.8769 399.767 98.1704 399.59 97.6566C398.434 94.1401 396.989 90.5435 395.463 87.2197C394.58 85.309 393.89 83.2698 393.007 81.3751C391.369 77.7945 389.249 73.9248 386.937 70.858L383.244 66.2658C382.907 65.8644 382.57 65.5433 382.233 65.1418L375.168 57.8842L375.136 57.9003ZM358.067 0H358.822C360.01 0.256906 360.235 1.8144 360.476 2.8902C361.648 8.39763 363.254 13.7606 364.731 19.0432C365.807 22.8647 367.043 26.7183 367.942 30.604C368.44 30.6521 369.227 31.0536 369.66 31.2302L374.493 33.4139C376.613 34.4736 378.556 35.5173 380.547 36.7216C381.574 37.3317 382.441 37.8776 383.421 38.5199C383.935 38.8571 384.336 39.1301 384.818 39.4512L388.896 42.3896C389.362 42.7428 389.731 43.0479 390.197 43.4172C390.646 43.7704 391.016 44.0916 391.433 44.4127L396.347 48.8443C397.149 49.6472 397.888 50.3697 398.691 51.1886C398.9 51.3973 399.076 51.5579 399.285 51.7666C400.537 53.1154 399.815 52.6337 401.677 52.8746C402.304 52.9548 403.315 52.9067 403.989 52.9067L410.669 53.2439C416.209 53.854 419.356 54.143 424.911 55.267C426.212 55.54 427.159 56.5676 426.613 57.9806L425.923 59.6344C425.666 60.2285 425.457 60.662 425.216 61.2561L421.973 68.5298C421.844 68.7867 421.716 69.0115 421.588 69.3005L420.094 72.4797C419.42 74.0693 418.521 75.5305 417.766 77.0559C416.658 79.2717 416.546 78.6615 417.108 80.203C418.151 83.1092 419.227 85.9994 419.966 89.0341C420.126 89.6764 420.303 90.1902 420.448 90.8806C420.608 91.6032 420.721 92.0849 420.881 92.7914C421.491 95.4728 421.877 98.0419 422.262 100.772C422.439 102.072 422.631 103.598 422.631 104.946C422.342 104.416 422.166 103.646 421.812 103.019C420.255 100.145 417.83 99.776 417.317 99.3104C417.846 99.471 417.413 99.3746 417.589 99.2301C416.755 93.7548 415.502 89.2429 413.945 84.3295C413.607 84.6507 413.029 85.7586 412.789 86.2082C411.103 89.1947 408.887 92.8396 407.04 95.6655C406.719 96.1633 404.728 99.0214 404.728 99.198C404.471 99.3907 400.457 100.194 399.734 100.386C398.065 100.82 396.523 101.285 394.885 101.751C394.404 96.4362 389.073 85.9352 386.359 81.1824C384.143 77.3128 381.205 73.1059 378.524 69.6698L374.686 65.1097C373.723 64.0821 370.367 60.5657 369.243 59.6023C367.396 58.0127 366.08 56.7121 363.992 55.0743C349.092 43.4172 330.659 35.726 305.675 35.8866C305.353 35.5173 305.402 35.5976 304.021 36.2559C297.55 39.3227 294.307 41.2335 288.51 45.5206C287.515 46.2592 286.326 47.1744 285.427 47.9612L277.046 56.0538C276.805 56.3588 276.676 56.4712 276.387 56.7763C276.13 57.0493 276.05 57.2098 275.761 57.531C275.376 57.9485 274.878 58.5426 274.509 59.0403C272.855 61.208 271.313 63.0224 269.82 65.3987C267.572 68.9473 265.597 72.0462 263.815 75.9801C263.381 76.9435 262.354 78.9024 262.145 79.8658L256.541 79.1272C257.007 78.9987 257.184 79.1753 257.681 79.2556C257.922 78.0835 260.299 73.1702 260.957 71.8696L264.81 65.0134C257.103 65.5111 246.49 67.4379 238.59 69.1721L237 69.6216C237.434 70.7617 239.521 74.6474 240.196 75.8035C240.79 76.799 241.32 77.7624 241.946 78.7418L243.76 81.6641C243.407 82.1298 243.038 82.3546 242.636 83.0129C242.299 83.5428 242.074 84.0887 241.93 84.7309C241.432 84.4259 239.007 80.2993 238.526 79.4965C238.156 78.8863 237.867 78.3886 237.498 77.7624C236.085 75.3699 234.672 72.849 233.628 70.2639C233.131 69.0115 232.151 67.3095 234.528 66.7314C236.069 66.3621 237.546 65.9928 239.12 65.6878C242.203 65.0776 245.302 64.4353 248.545 63.8412C253.731 62.8939 259.624 62.0911 264.987 61.6736C266.175 61.5773 267.01 61.6897 267.347 61.2722L269.13 58.7995C269.724 58.0127 269.997 57.8361 269.836 56.7121L269.354 48.6998C269.226 46.3877 269.114 36.4004 269.258 34.6663C269.322 33.8956 269.29 32.7395 269.371 31.9046L269.563 29.3355C269.82 24.1974 270.43 19.1395 271.506 14.162C271.667 13.4234 271.859 12.6366 272.036 11.8177C272.405 10.0354 273.176 8.89538 275.087 9.87484L284.576 14.5152C288.285 16.3457 291.994 18.3849 295.495 20.5043L302.528 24.8557C304.824 26.2847 306.959 27.9386 309.207 29.4479C310.138 29.2231 311.038 28.8056 312.017 28.5327C312.643 28.356 314.458 27.8904 314.811 27.6014L318.905 24.2616C321.651 22.0458 324.493 19.8781 327.383 17.855L331.751 14.7721C332.136 14.5152 332.489 14.2744 332.907 14.0014C337.001 11.2878 341.08 8.5582 345.399 6.19787L354.005 1.73412C354.92 1.26848 356.927 0.321133 357.859 0.0642266C357.955 0.0321133 358.035 0.0160567 358.132 0H358.067ZM377.207 53.9343C375.473 54.0949 373.482 54.3839 371.764 54.4481C371.748 51.1083 371.459 47.9452 370.977 44.7017C370.752 43.1924 370.479 41.7312 370.19 40.2701C369.901 38.841 369.484 37.3157 369.259 35.9027C370.222 36.1275 372.037 37.123 372.984 37.5886C377.448 39.8044 381.96 42.5983 385.829 45.5848C386.52 46.1147 390.807 49.5669 391.513 50.3215C392.429 51.3171 393.312 51.7666 394.163 52.9548C388.623 53.0512 382.747 53.4365 377.223 53.9343H377.207ZM315.566 31.7279C315.758 31.2302 323.915 24.9039 325.071 24.0047C330.595 19.7818 334.544 17.2127 340.309 13.4073C342.894 11.7053 354.712 4.817 357.136 4.31924C357.088 5.26658 359.641 14.3868 360.091 16.0085C361.118 19.7818 362.258 23.5391 363.302 27.3605C365.357 34.8269 367.814 43.7704 368.103 51.9272C367.525 51.574 365.775 49.8559 364.988 49.1655C359.689 44.509 352.608 40.2219 345.736 37.7974C341.304 36.2238 336.439 34.8269 331.429 33.9116C326.115 32.9482 320.944 32.4184 315.549 31.7119L315.566 31.7279ZM272.919 54.0627C272.662 52.6979 272.678 50.2573 272.614 48.7801C272.261 40.3825 272.357 31.1178 273.353 22.8165C273.545 21.1787 274.412 14.5794 274.99 13.5679C276.773 14.0496 288.51 20.3598 290.822 21.6765C294.708 23.8762 298.24 26.0439 301.917 28.4524C302.608 28.902 305.016 30.4595 305.402 30.9091C303.924 31.3747 301.949 32.3863 300.536 33.0606C294.515 35.8706 288.526 39.7884 283.5 43.8668L278.828 47.913C278.491 48.2502 278.33 48.459 277.993 48.7801C277.286 49.4224 273.609 53.1796 272.919 54.0467V54.0627Z" fill="#C1B509"/>
<path id="Vector_4" fill-rule="evenodd" clip-rule="evenodd" d="M277.095 244.946C277.224 245.059 277.336 244.738 277.175 245.267L277.208 245.476C277.368 245.605 277.416 245.492 277.256 245.685L277.32 245.894C277.561 246.183 277.4 245.508 277.416 246.022C277.416 246.231 277.432 246.102 277.368 246.215L277.416 246.423C277.721 246.745 277.48 246.086 277.513 246.552C277.529 246.761 277.529 246.616 277.464 246.745L277.561 246.873C277.577 246.889 277.593 246.889 277.609 246.937C277.609 246.969 277.641 246.985 277.641 247.001C277.673 247.146 277.673 247.13 277.673 247.291C277.753 247.403 277.737 247.291 277.77 247.515C277.786 247.612 277.786 247.724 277.786 247.82C277.962 248.013 277.914 247.901 277.753 248.029L279.937 258.643C286.938 260.714 287.452 260.778 294.806 260.345C297.359 260.184 299.912 259.943 302.32 259.381C303.99 258.996 307.33 257.888 308.39 257.085L309.128 245.059C308.984 244.978 308.871 245.059 308.968 244.111L309.176 241.655C309.192 241.366 309.144 241.719 309.192 241.462C309.241 241.221 309.192 241.35 309.273 241.221C309.273 241.012 309.257 240.772 309.257 240.579C309.257 240.547 309.273 240.29 309.273 240.274C309.353 239.937 309.241 240.145 309.433 239.953L309.449 239.535C309.385 239.326 309.353 239.423 309.369 239.102C309.401 238.363 309.305 238.909 309.546 238.684L312.372 192.602C311.569 192.858 310.686 193.276 309.899 193.581C299.655 197.611 282.972 199.024 272.262 197.001C270.143 196.6 268.232 195.941 266.963 195.7C267.236 197.643 267.814 199.939 268.232 201.898L274.59 232.727C275.216 235.746 276.758 242.441 277.127 244.946H277.095Z" fill="#69CFF7"/>
<path id="Vector_5" fill-rule="evenodd" clip-rule="evenodd" d="M352.013 195.555C360.01 194.495 368.006 191.717 373.85 188.12C375.424 187.141 376.885 186.258 378.282 185.23C379.037 184.668 379.695 184.187 380.402 183.625C381.076 183.111 381.815 182.533 382.376 181.987L386.15 178.438C386.776 177.796 387.338 177.282 387.916 176.592C388.253 176.174 389.361 175.082 389.586 174.633C389.891 174.938 389.827 175.291 389.859 175.805C390.71 186.129 391.256 196.213 390.341 206.57C390.196 208.127 389.441 215.336 388.96 216.22C388.43 216.107 387.017 215.417 386.423 215.16L379.021 211.724C375.729 210.15 372.614 208.448 369.499 206.778C366.336 205.092 363.349 203.198 360.411 201.415C360.09 201.223 352.158 196.149 351.981 195.571L352.013 195.555ZM448 141.604V142.07C448 142.086 448 142.102 448 142.118C447.856 143.322 446.732 143.724 445.897 144.286C444.162 145.442 442.284 146.502 440.598 147.61L435.267 150.789C433.212 152.025 430.803 153.229 429.005 154.305C427.512 155.204 425.553 156.103 424.14 156.89C421.731 158.239 419.339 159.283 416.979 160.471C416.465 160.728 416.031 160.888 415.517 161.145C415.004 161.402 414.554 161.579 414.072 161.82L404.984 165.705C404.23 165.994 404.246 166.075 403.796 166.653L401.339 169.607L394.499 176.592C394.114 176.881 393.841 177.411 393.327 177.555L394.13 195.153C394.018 195.924 394.066 196.823 394.066 197.642C394.066 204.37 393.407 211.21 392.283 216.798C391.994 218.259 391.946 220.009 390.405 220.25C389.377 220.41 378.748 215.288 375.841 213.827C374.653 213.233 373.513 212.687 372.373 212.093L361.423 205.927C358.934 204.45 356.638 202.925 354.229 201.319L349.573 198.108C349.46 198.092 345.671 198.638 345.061 198.718L337.819 199.344C337.402 199.44 337.402 199.617 337.097 199.89L332.89 203.663C331.991 204.579 327.768 208.047 326.564 209.026C322.244 212.543 319.129 214.774 314.489 217.889C313.927 218.259 313.461 218.596 312.883 218.885L313.14 214.742C313.879 214.453 315.356 213.329 316.046 212.848C318.359 211.242 322.148 208.384 324.284 206.618C324.749 206.232 325.086 205.927 325.552 205.558L328.153 203.374C329.341 202.298 331.477 200.58 332.617 199.44C333.018 199.039 334.303 198.043 334.56 197.594C328.731 197.369 324.813 197.273 319.065 196.197C318.262 196.052 314.778 195.201 314.344 195.298L314.601 191.396C316.079 191.733 317.476 192.199 319.001 192.536C321.939 193.162 325.504 193.869 328.474 194.094L333.131 194.318C333.918 194.27 333.436 194.238 333.725 194.126C334.255 193.901 337.98 193.933 338.911 193.885C340.597 193.805 342.331 193.644 344.001 193.451C344.579 193.387 345.976 193.259 346.442 193.098C347.469 192.729 347.517 192.761 348.754 192.648C355.064 192.086 364.265 188.409 369.306 185.664C372.486 183.93 376.452 181.168 379.021 178.792C379.294 178.535 379.502 178.422 379.759 178.149L381.879 176.11C393.809 163.827 399.798 146.325 399.397 127.587C399.284 122.112 398.305 115.705 397.229 110.374C396.876 108.592 397.068 108.961 396.908 107.885C396.667 107.757 396.555 107.757 396.314 107.564C396.057 107.355 396.105 107.291 395.816 107.227C396.153 106.874 401.082 105.653 401.917 105.493C401.805 105.894 402.239 107.869 402.479 108.303C402.656 108.64 404.294 109.411 404.743 109.668L413.799 114.854C414.49 115.271 417.846 117.407 418.263 117.471C418.359 115.753 418.681 108.383 418.231 107.195C419.114 107.628 418.424 108.271 420.334 108.624C422.181 108.961 422.47 107.869 422.759 107.5C422.759 109.603 422.984 111.835 422.871 114.051C422.839 114.597 422.759 114.934 422.759 115.641L422.438 120.217L430.145 125.483C433.726 128.181 436.343 130.06 439.747 133.094C439.988 133.303 440.084 133.335 440.325 133.576L444.259 137.189C444.981 137.927 445.672 138.57 446.394 139.308C446.651 139.565 446.683 139.694 446.924 139.95C447.31 140.368 447.872 140.753 447.968 141.572L448 141.604ZM392.845 172.08C392.669 171.438 392.733 171.197 393.038 170.747C393.199 170.506 393.472 170.009 393.632 169.848C393.857 169.607 395.382 169.109 395.848 169.077L392.861 172.064L392.845 172.08ZM400.617 163.136C399.702 163.49 398.321 164.084 397.373 164.276C397.646 163.377 398.176 162.35 398.529 161.466C403.057 150.211 404.23 137.751 403.33 125.644C403.154 123.348 402.929 121.068 402.624 118.788C402.463 117.503 401.628 113.264 401.693 112.413L404.486 113.939C406.991 115.287 410.427 117.327 412.82 118.788C420.174 123.252 427.11 127.86 433.661 133.142C434.93 134.17 442.396 140.48 442.878 141.508C442.091 141.893 441.064 142.632 440.213 143.178C434.304 146.871 427.415 150.773 421.218 153.952C416.706 156.264 408.629 160.069 403.684 161.948C402.688 162.317 401.661 162.719 400.617 163.136Z" fill="#C1B509"/>
<path id="Vector_6" fill-rule="evenodd" clip-rule="evenodd" d="M310.604 99.6132C321.362 98.7462 339.634 103.74 348.096 107.882C352.335 109.954 359.271 114.257 358.453 120.535C357.746 125.898 351.58 129.8 346.603 131.646C340.068 134.071 333.693 134.665 327.078 132.513C321.699 130.763 314.971 126.572 311.599 123.538C311.278 123.249 311.134 123.184 310.796 122.847C310.523 122.574 310.267 122.446 309.994 122.157C309.223 121.37 307.103 119.427 306.445 118.576C305.466 117.324 304.936 116.778 303.924 115.349C303.121 114.225 302.463 113.053 301.837 111.704C298.481 104.478 302.736 100.239 310.604 99.5972V99.6132ZM252.639 82.1757C260.876 81.405 275.103 85.2907 281.493 88.4699C284.737 90.0756 289.907 93.319 289.409 98.1039C288.622 105.618 274.171 110.708 265.452 107.593C258.243 105.008 249.219 98.714 246.072 91.6812C243.535 86.0132 246.843 82.7377 252.639 82.1918V82.1757ZM243.68 81.6779C243.326 82.1436 242.957 82.3684 242.556 83.0267C242.219 83.5566 241.994 84.1025 241.849 84.7448C241.127 85.933 242.09 89.2406 242.556 90.3967C243.375 92.4198 245.719 95.9362 247.389 97.5901L251.836 101.813C252.19 101.909 252.559 102.327 252.864 102.536L255.931 104.687C256.059 104.783 256.027 104.767 256.124 104.848C257.44 105.345 259.784 107.353 265.42 109.231C272.678 111.656 281.381 110.323 287.45 106.1C289.714 104.527 292.604 101.861 292.941 97.7667C294.627 97.1887 297.132 97.9433 298.545 98.425C298.401 98.6498 298.561 98.4571 298.336 98.698C297.758 99.2921 297.293 99.6293 296.747 100.625C293.696 106.245 297.935 113.117 301.371 117.436C301.692 117.838 301.917 118.078 302.238 118.48C303.603 120.198 305.064 121.338 306.076 122.51L309.255 125.288C315.34 130.346 325.183 135.628 333.404 136.544C341.641 137.459 351.741 134.97 357.746 129.848C360.267 127.696 363.093 124.774 363.494 119.861L367.236 118.078C372.213 115.525 381.895 111.784 387.258 109.922C388.719 109.424 394.725 107.288 395.881 107.256C396.218 106.903 401.147 105.683 401.982 105.522C403.299 105.008 409.16 103.852 411.038 103.387C414.683 102.503 418.119 106.646 418.28 107.24C419.163 107.674 418.472 108.316 420.383 108.669C422.23 109.006 422.519 107.915 422.808 107.545C422.904 107.031 422.968 106.919 422.856 106.293C422.776 105.859 422.727 105.345 422.599 105.04C422.31 104.511 422.133 103.74 421.78 103.114C420.223 100.239 417.798 99.8701 417.284 99.4045C416.578 99.3563 415.341 98.9228 414.394 98.8104C412.226 98.5374 409.866 98.6338 407.714 98.9067C406.831 99.0191 405.483 99.3403 404.696 99.2921C404.439 99.4848 400.425 100.288 399.702 100.48C398.032 100.914 396.491 101.379 394.853 101.845C389.233 103.483 383.533 105.747 378.234 107.834C376.292 108.605 363.719 113.791 362.081 114.193C361.584 113.759 360.636 111.254 356.365 108.139C354.069 106.469 351.789 105.201 348.883 103.82C338.783 99.0191 316.481 93.6401 304.888 95.856C303.41 96.145 303.924 96.3216 302.736 95.6472C299.22 93.6562 295.559 92.757 291.223 92.5483C290.324 90.7981 287.418 88.6786 285.684 87.6028C281.252 84.8572 275.713 83.107 270.591 81.7582C267.203 80.8591 265.003 80.6182 262.065 79.9438L256.461 79.2052C255.529 79.3337 253.667 79.141 252.575 79.1731C251.403 79.2052 250.231 79.2855 249.107 79.4782C246.923 79.8475 244.996 80.6182 243.68 81.7101V81.6779Z" fill="#2F2E2E"/>
<path id="Vector_7" fill-rule="evenodd" clip-rule="evenodd" d="M339.86 116.653C339.347 117.103 338.624 117.44 338.094 117.826C337.532 118.243 337.067 118.612 336.456 119.062C335.332 119.897 334.337 120.716 333.245 121.583C332.555 122.129 328.011 125.998 327.625 126.031C327.288 126.047 326.999 125.742 327.079 125.404C327.176 125.035 329.745 123.028 330.194 122.675L336.585 117.585C337.388 116.975 339.941 114.743 339.86 116.637V116.653ZM338.207 109.589C338.56 110.536 337.741 110.777 336.408 111.788L331.383 115.385C327.898 117.922 323.563 120.732 319.902 123.253C319.565 123.494 318.971 124.072 318.505 123.767C317.799 123.285 318.682 122.755 319.051 122.498C319.517 122.193 319.902 121.952 320.336 121.647L327.962 116.413C329.648 115.273 331.383 114.084 333.052 112.88C333.903 112.27 334.787 111.66 335.589 111.066C336.778 110.183 337.42 109.38 338.223 109.589H338.207ZM317.51 117.826C317.188 116.975 317.542 116.991 318.81 116.204L324.478 112.607C325.747 111.788 326.967 111.05 328.235 110.199C328.846 109.781 329.504 109.412 330.114 108.994C330.515 108.705 331.559 107.79 332.025 108.208C332.699 108.818 331.286 109.524 330.901 109.765L325.281 113.394C324.045 114.229 322.76 114.984 321.508 115.786C320.817 116.22 320.287 116.573 319.613 116.975C318.987 117.36 318.312 118.066 317.526 117.81L317.51 117.826ZM301.838 107.694C302.127 112.013 307.057 118.227 310.445 121.053C310.734 121.294 310.862 121.47 311.151 121.727C314.507 124.698 319.533 128.118 323.515 129.884C329.729 132.63 334.433 133.657 341.867 131.907C348.049 130.462 353.091 127.668 355.853 123.975C357.667 121.535 357.956 118.388 356.238 115.658C352.529 109.733 341.691 106.04 334.835 104.194C328.46 102.475 301.019 95.3303 301.838 107.678V107.694Z" fill="#2F2E2E"/>
<path id="Vector_8" fill-rule="evenodd" clip-rule="evenodd" d="M309.528 238.667L309.432 239.518L309.416 239.935C309.335 240.272 309.367 240.24 309.351 240.577C309.351 240.674 309.351 240.786 309.335 240.882L309.271 241.139C309.271 241.155 309.255 241.188 309.239 241.22C309.239 241.958 309.239 242.584 309.159 243.163C309.11 243.564 309.046 244.832 309.078 245.041L308.34 257.068C307.28 257.87 303.94 258.978 302.27 259.364C299.862 259.926 297.325 260.183 294.756 260.327C287.402 260.777 286.888 260.696 279.887 258.625L277.704 248.012L277.736 247.803C277.655 247.69 277.672 247.803 277.639 247.578C277.623 247.482 277.623 247.369 277.623 247.273C277.607 247.257 277.591 247.193 277.575 247.209C277.575 247.225 277.543 247.161 277.543 247.145C277.511 247.016 277.511 247.016 277.511 246.872L277.415 246.743L277.366 246.422L277.318 246.213L277.286 245.892L277.222 245.683L277.174 245.475L277.142 245.266L277.061 244.945C276.692 242.44 275.151 235.744 274.524 232.726L268.166 201.897C267.765 199.938 267.17 197.642 266.898 195.699C268.166 195.94 270.077 196.598 272.196 197C282.906 199.007 299.605 197.61 309.833 193.58C310.62 193.275 311.503 192.857 312.306 192.6L309.48 238.683L309.528 238.667ZM283.629 193.114C289.072 193.13 294.756 192.52 299.846 191.412C303.94 190.529 307.778 189.357 311.342 187.269C311.808 186.996 312.241 186.595 312.739 186.402L312.514 190.047C309.721 191.765 302.624 193.676 299.22 194.286C291.544 195.683 281.878 196.325 273.962 195.073C270.045 194.447 269.691 194.077 266.4 193.162L265.774 189.967C266.336 190.176 266.978 190.529 267.588 190.786C272.212 192.632 278.699 193.082 283.629 193.098V193.114ZM285.347 180.317L285.636 182.388C285.684 183.111 286.037 186.113 286.246 186.611C286.711 187.671 288.446 187.896 289.891 187.751C294.643 187.301 293.439 185.15 293.166 182.228L293.022 180.59L292.717 176.881C297.823 176.816 307.184 177.218 311.439 180.124C312.033 180.526 312.98 181.248 312.964 182.228C312.948 183.159 312.001 184.106 311.551 184.443C303.426 190.866 279.984 192.825 268.953 189.003C267.395 188.458 265.051 187.334 264.73 185.985C263.59 181.136 283.227 176.993 285.025 177.491L285.331 180.317H285.347ZM291.866 185.567C290.982 185.84 290.533 186.097 289.361 186.161C287.498 186.258 287.691 185.728 287.595 184.941C287 180.22 285.893 172.738 286.23 168.355C286.792 168.403 288.301 169.398 290.982 169.575C290.79 177.122 291.448 178.904 291.866 185.583V185.567ZM290.742 168.531C290.372 168.579 288.831 168.21 288.494 168.098C287.691 167.857 287.016 167.471 286.326 167.247L286.422 166.524C287.161 166.861 287.755 167.198 288.638 167.52C289.152 167.696 290.822 168.082 291.127 168.403C290.533 168.804 290.822 168.531 290.742 168.531ZM286.92 164.613C287.45 164.662 288.815 165.448 289.377 165.721L291.127 166.749C291.4 166.958 291.416 166.893 291.448 167.215C290.388 167.375 287.546 165.962 286.663 165.48C286.711 165.047 286.76 164.902 286.92 164.613ZM287.434 163.522C288.622 162.96 291.801 165.705 292.09 166.171L287.916 163.891C287.466 163.682 287.53 163.73 287.418 163.522H287.434ZM292.187 164.822C291.801 164.517 291.496 164.244 291.063 163.923C289.746 162.943 288.783 162.703 288.478 162.462C289.248 162.141 289.264 162.205 290.035 162.606C291.111 163.168 292.99 164.758 293.407 165.657C292.749 165.641 292.941 165.416 292.187 164.806V164.822ZM304.743 165.994C301.211 165.529 298.192 165.24 294.547 165.432C293.873 164.276 291.946 162.51 290.726 161.82C292.074 161.017 300.857 162.478 302.848 162.767C306.333 163.265 309.881 163.778 313.382 164.132C313.799 164.18 314.457 164.18 314.811 164.373L314.473 167.295C311.278 167.054 307.922 166.396 304.743 165.994ZM284.752 175.114C284.447 175.42 283.709 175.387 283.291 175.436L279.036 176.11C278.298 176.287 277.382 176.463 276.531 176.64C272.132 177.587 260.668 181.2 262.723 186.948C263.253 188.425 268.086 212.35 268.616 215.063L272.855 235.487C273.208 237.205 273.561 238.94 273.898 240.61L277.912 259.781C278.442 260.761 279.903 261.001 281.059 261.323C287.289 263.041 288.044 262.944 294.772 262.591L297.63 262.366C301.901 261.933 306.028 261.018 309.705 258.914C311.005 258.159 310.523 255.928 310.812 253.856L311.166 248.044C311.166 247.273 311.262 245.828 311.342 245.137C311.471 244.19 311.407 243.163 311.487 242.199C311.631 240.369 311.696 238.249 311.888 236.435L312.9 218.917L313.157 214.774L314.361 195.314L314.618 191.412C314.473 188.554 315.276 184.893 315.148 182.035C314.875 176.222 302.062 174.986 297.421 174.777C296.394 174.729 293.279 174.825 292.588 174.649C292.508 172.995 292.412 169.527 292.909 167.937C293.07 167.407 293.102 167.423 293.648 167.279C296.779 166.444 303.33 167.439 306.477 167.873L313.927 168.917C314.249 169.061 314.329 169.511 314.473 169.768C317.46 175.339 326.709 175.548 330.016 170.041C333.388 164.453 328.587 157.886 321.57 158.399C318.825 158.592 315.485 160.39 314.586 162.59C312.627 162.542 306.172 161.595 303.86 161.258C300.392 160.76 296.602 160.085 293.086 160.005C288.879 159.909 286.471 160.985 285.282 164.228C283.901 168.001 284.929 174.167 284.769 175.114H284.752Z" fill="#2F2E2E"/>
<path id="Vector_9" fill-rule="evenodd" clip-rule="evenodd" d="M397.408 164.291C398.339 164.082 399.72 163.504 400.651 163.151C401.695 162.749 402.723 162.348 403.718 161.963C408.664 160.1 416.74 156.295 421.252 153.966C427.45 150.787 434.338 146.885 440.247 143.192C441.098 142.662 442.126 141.924 442.913 141.522C442.447 140.495 434.981 134.184 433.696 133.157C427.145 127.874 420.192 123.266 412.854 118.802C410.462 117.357 407.026 115.302 404.521 113.953L401.727 112.428C401.663 113.279 402.498 117.518 402.658 118.802C402.964 121.082 403.188 123.362 403.365 125.658C404.28 137.765 403.092 150.225 398.564 161.481C398.211 162.364 397.681 163.375 397.408 164.291Z" fill="#E7E60D"/>
<path id="Vector_10" fill-rule="evenodd" clip-rule="evenodd" d="M315.565 31.7276C320.96 32.4341 326.13 32.98 331.445 33.9274C336.455 34.8265 341.32 36.2395 345.751 37.8131C352.624 40.2376 359.689 44.5408 365.003 49.1812C365.79 49.8716 367.54 51.5897 368.118 51.9429C367.829 43.7862 365.373 34.8426 363.317 27.3763C362.258 23.5548 361.118 19.7975 360.106 16.0242C359.657 14.4025 357.103 5.2823 357.152 4.33496C354.727 4.81666 342.909 11.721 340.324 13.423C334.56 17.2124 330.61 19.7975 325.087 24.0204C323.93 24.9035 315.774 31.2459 315.581 31.7437L315.565 31.7276Z" fill="#E7E60D"/>
<path id="Vector_11" fill-rule="evenodd" clip-rule="evenodd" d="M375.135 57.9017L382.2 65.1593C382.521 65.5607 382.858 65.8819 383.211 66.2833L386.904 70.8755C389.232 73.9423 391.336 77.8119 392.974 81.3926C393.841 83.2873 394.547 85.3265 395.43 87.2372C396.956 90.5609 398.401 94.1576 399.557 97.674C399.717 98.1878 399.846 98.8783 400.167 99.2155L403.282 94.559C407.489 88.2167 411.246 81.5531 414.73 74.7612C416.384 71.5338 418.327 67.5517 419.804 64.212C420.206 63.2967 420.607 62.3976 421.009 61.4823C421.346 60.7598 421.988 59.4431 422.181 58.7045C421.153 58.0944 412.964 57.2915 411.182 57.147C407.168 56.8259 403.121 56.6653 399.075 56.6493C394.724 56.6332 379.711 57.1631 375.103 57.9178L375.135 57.9017Z" fill="#E7E60D"/>
<path id="Vector_12" fill-rule="evenodd" clip-rule="evenodd" d="M352.014 195.554C352.206 196.132 360.122 201.206 360.443 201.398C363.382 203.197 366.384 205.075 369.531 206.761C372.646 208.431 375.761 210.133 379.053 211.707L386.455 215.143C387.049 215.4 388.462 216.106 388.992 216.202C389.474 215.319 390.229 208.094 390.373 206.552C391.288 196.196 390.742 186.128 389.891 175.788C389.843 175.274 389.907 174.921 389.618 174.616C389.394 175.065 388.286 176.157 387.948 176.575C387.37 177.265 386.808 177.779 386.182 178.421L382.409 181.97C381.847 182.516 381.108 183.094 380.434 183.607C379.727 184.153 379.053 184.651 378.314 185.213C376.918 186.257 375.456 187.14 373.883 188.103C368.038 191.7 360.042 194.478 352.046 195.538L352.014 195.554Z" fill="#E7E60D"/>
<path id="Vector_13" fill-rule="evenodd" clip-rule="evenodd" d="M264.247 102.409C264.054 101.59 264.648 101.365 265.114 100.98C265.596 100.578 265.949 100.305 266.399 99.9199L271.617 95.7772C272.002 95.4882 273.977 93.7381 274.491 94.3964C275.053 95.1189 273.961 95.4079 273.544 95.697L265.708 101.895C265.21 102.296 264.986 102.746 264.247 102.409ZM272.693 89.178C273.094 89.0013 273.56 89.4349 273.303 89.9326C273.207 90.1093 272.629 90.5428 272.388 90.7194C270.284 92.3251 266.431 95.0065 264.167 96.5319L259.992 99.3739C259.735 99.5506 258.097 100.691 257.937 100.739C257.391 100.915 256.941 100.418 257.262 99.9359L260.361 97.8004C261.758 96.8852 263.139 95.9218 264.536 94.9584L272.709 89.1619L272.693 89.178ZM267.651 88.0861C268.261 87.765 268.984 88.5036 268.036 89.1298L258.836 95.0226C258.467 95.2634 257.728 95.7933 257.327 95.9699C256.588 96.3232 255.978 95.4561 256.925 94.9262C257.439 94.6212 258.001 94.284 258.499 93.9468L267.651 88.0861ZM253.617 83.1728C248.046 83.4618 244.578 85.8221 247.227 91.5544C249.379 96.2268 255.464 101.301 259.863 103.79C266.399 107.499 272.163 108.671 279.549 105.957C289.793 102.2 292.218 94.7175 280.593 89.2261C274.314 86.2717 261.549 82.7553 253.617 83.1567V83.1728Z" fill="#2F2E2E"/>
<path id="Vector_14" fill-rule="evenodd" clip-rule="evenodd" d="M272.92 54.0772C273.61 53.2101 277.287 49.4529 277.993 48.8106C278.331 48.5055 278.491 48.2968 278.828 47.9436L283.501 43.8973C288.527 39.8189 294.516 35.9011 300.537 33.0912C301.95 32.4328 303.925 31.4052 305.402 30.9396C305.017 30.49 302.608 28.9325 301.918 28.4829C298.241 26.0744 294.708 23.9068 290.823 21.707C288.511 20.3904 276.773 14.0801 274.991 13.5984C274.413 14.61 273.546 21.2092 273.353 22.847C272.342 31.1483 272.261 40.413 272.614 48.8106C272.679 50.2878 272.663 52.7124 272.92 54.0933V54.0772Z" fill="#E7E60D"/>
<path id="Vector_15" fill-rule="evenodd" clip-rule="evenodd" d="M260.38 167.81C260.316 167.2 263.431 157.71 263.832 157.148C265.952 160.311 266.947 162.19 269.484 165.417L271.459 167.938C269.083 168.323 262.917 168.067 260.38 167.81ZM243.633 126.721C243.794 126.239 244.227 126.014 244.613 125.677C245.383 124.987 245.961 124.232 246.539 123.67C246.893 123.333 247.166 123.076 247.519 122.739L251.629 118.933C251.79 121.229 252.095 123.558 252.448 125.805C252.786 127.989 253.348 130.077 253.669 132.164C252.047 131.634 244.581 127.604 243.633 126.737V126.721ZM279.054 176.095L283.309 175.421C283.727 175.356 284.465 175.404 284.77 175.099C283.871 174.891 277.738 168.388 276.919 167.553C276.148 166.782 273.386 163.33 272.696 162.431C262.789 149.617 256.912 133.545 255.868 116.942C255.772 115.288 255.515 105.67 256.109 104.835C256.029 104.755 256.045 104.787 255.917 104.675L252.85 102.523C252.545 102.299 252.175 101.897 251.822 101.801C251.822 103.069 251.501 104.402 251.501 105.686C251.501 106.939 251.276 108.464 251.292 109.733C251.308 111.146 251.292 112.575 251.292 113.988C251.308 115.048 251.1 114.823 250.522 115.337C250.088 115.706 249.831 116.075 249.382 116.428L241.273 124.264C241.048 124.521 241 124.633 240.743 124.906C240.117 125.549 238.961 126.287 239.394 127.572C239.635 128.278 240.936 128.985 241.722 129.499L252.93 135.52C255.403 136.772 254.295 135.199 256.173 140.883C257.538 145.009 259.369 148.975 261.36 152.813C261.761 153.583 261.52 153.535 261.247 154.338C260.043 157.774 258.437 162.238 257.49 165.674L256.511 168.966C256.286 170.78 257.843 170.893 258.71 171.005C262.436 171.487 267.124 171.503 271.074 171.294C271.797 171.262 272.439 171.342 273.145 171.23C274.59 171.005 274.607 171.583 275.779 172.868C276.132 173.253 276.469 173.558 276.838 173.927C277.256 174.345 278.878 175.822 279.038 176.127L279.054 176.095Z" fill="#C1B509"/>
<path id="Vector_16" fill-rule="evenodd" clip-rule="evenodd" d="M297.132 178.6C296.779 177.331 298.208 177.54 299.027 177.668C299.91 177.797 300.761 177.941 301.644 178.134C303.41 178.503 304.935 178.905 306.493 179.563C310.314 181.153 310.732 183.898 306.654 186.018C301.676 188.619 292.283 189.743 285.973 190.353C285.218 190.417 283.789 190.77 283.468 190.144C282.842 188.956 284.271 188.876 285.106 188.796C287 188.635 288.911 188.426 290.774 188.201C294.178 187.768 305.192 186.21 307.617 183.352C309.431 181.217 300.969 179.643 299.524 179.402C298.689 179.258 297.325 179.306 297.148 178.616L297.132 178.6ZM293.038 180.591C293.872 180.623 294.691 180.687 295.51 180.751C296.249 180.815 297.148 180.783 297.196 181.586C297.276 182.903 295.141 182.325 293.182 182.228C293.439 185.151 294.659 187.302 289.906 187.752C288.461 187.896 286.727 187.655 286.262 186.612C286.037 186.114 285.7 183.111 285.651 182.389C285.603 182.212 285.539 182.244 285.443 182.148C282.922 182.325 274.396 183.063 273.705 185.889C273.448 186.933 274.797 187.383 275.696 187.575C278.988 188.266 281.702 186.676 282.376 187.511C282.777 188.009 282.488 188.571 282.087 188.747C280.802 189.341 272.549 190.449 272.051 186.435C271.57 182.533 278.908 181.185 281.91 180.799C282.472 180.735 283.066 180.671 283.628 180.623L285.025 180.526C285.33 180.446 285.234 180.591 285.33 180.302L285.025 177.476C283.227 176.978 263.59 181.12 264.73 185.97C265.051 187.318 267.395 188.442 268.953 188.988C279.983 192.794 303.426 190.835 311.551 184.428C312 184.075 312.948 183.144 312.964 182.212C312.98 181.233 312.033 180.51 311.438 180.109C307.183 177.219 297.822 176.817 292.716 176.865L293.021 180.575L293.038 180.591Z" fill="#69CFF7"/>
<path id="Vector_17" fill-rule="evenodd" clip-rule="evenodd" d="M243.68 81.6797C244.996 80.6039 246.923 79.8332 249.107 79.4478C250.231 79.2551 251.403 79.1748 252.575 79.1427C253.667 79.1106 255.545 79.3033 256.461 79.1748C256.926 79.0464 257.103 79.223 257.601 79.3033C257.841 78.1311 260.218 73.2178 260.876 71.9172L264.73 65.061C257.023 65.5588 246.409 67.4856 238.509 69.2197L236.92 69.6693C237.353 70.8093 239.441 74.695 240.115 75.8511C240.709 76.8466 241.239 77.81 241.865 78.7895L243.68 81.7118V81.6797Z" fill="#E7E60D"/>
<path id="Vector_18" fill-rule="evenodd" clip-rule="evenodd" d="M371.763 54.4492C373.481 54.385 375.472 54.096 377.206 53.9354C382.729 53.4377 388.622 53.0523 394.146 52.956C393.295 51.7678 392.411 51.3182 391.496 50.3227C390.79 49.568 386.503 46.1158 385.812 45.586C381.926 42.6155 377.431 39.8056 372.967 37.5898C372.036 37.1241 370.205 36.1286 369.242 35.9038C369.466 37.3168 369.884 38.8422 370.173 40.2712C370.462 41.7324 370.735 43.1935 370.96 44.7029C371.458 47.9463 371.73 51.1095 371.747 54.4492H371.763Z" fill="#E7E60D"/>
<path id="Vector_19" fill-rule="evenodd" clip-rule="evenodd" d="M313.158 214.743C313.896 214.454 315.374 213.33 316.064 212.848C318.376 211.242 322.165 208.384 324.301 206.618C324.767 206.233 325.104 205.928 325.57 205.558L328.171 203.375C329.359 202.299 331.494 200.581 332.634 199.441C333.036 199.039 334.32 198.044 334.577 197.594C328.749 197.369 324.831 197.273 319.083 196.197C318.28 196.053 314.795 195.202 314.362 195.298L313.158 214.759V214.743Z" fill="#E7E60D"/>
<path id="Vector_20" fill-rule="evenodd" clip-rule="evenodd" d="M301.837 107.691C301.034 95.3432 328.475 102.504 334.833 104.206C341.689 106.053 352.528 109.746 356.237 115.671C357.955 118.401 357.666 121.564 355.851 123.988C353.106 127.681 348.048 130.475 341.866 131.92C334.416 133.654 329.711 132.643 323.513 129.897C319.531 128.131 314.505 124.711 311.15 121.74C310.861 121.483 310.716 121.307 310.443 121.066C307.055 118.224 302.126 112.026 301.837 107.707V107.691ZM310.604 99.5982C302.736 100.224 298.481 104.479 301.837 111.705C302.463 113.054 303.121 114.226 303.924 115.35C304.936 116.779 305.466 117.325 306.445 118.577C307.103 119.412 309.223 121.371 309.994 122.158C310.267 122.431 310.523 122.575 310.796 122.848C311.134 123.185 311.278 123.25 311.599 123.539C314.971 126.573 321.699 130.764 327.078 132.514C333.693 134.666 340.068 134.088 346.603 131.647C351.564 129.801 357.746 125.915 358.453 120.536C359.271 114.258 352.335 109.955 348.096 107.883C339.65 103.741 321.378 98.7472 310.604 99.6143V99.5982Z" fill="#B1B8AB"/>
<path id="Vector_21" fill-rule="evenodd" clip-rule="evenodd" d="M401.966 105.49C401.854 105.892 402.287 107.867 402.528 108.3C402.705 108.637 404.342 109.408 404.792 109.665L413.848 114.851C414.538 115.269 417.894 117.404 418.312 117.469C418.408 115.751 418.729 108.381 418.28 107.192C418.119 106.598 414.667 102.456 411.038 103.339C409.143 103.804 403.283 104.961 401.982 105.474L401.966 105.49Z" fill="#E7E60D"/>
<path id="Vector_22" fill-rule="evenodd" clip-rule="evenodd" d="M283.611 193.115C278.682 193.099 272.211 192.649 267.571 190.802C266.944 190.562 266.318 190.192 265.756 189.984L266.382 193.179C269.674 194.094 270.011 194.463 273.945 195.09C281.861 196.342 291.527 195.684 299.202 194.303C302.606 193.693 309.703 191.782 312.497 190.064L312.722 186.419C312.224 186.612 311.791 187.013 311.325 187.286C307.76 189.373 303.939 190.546 299.828 191.429C294.738 192.537 289.054 193.131 283.611 193.131V193.115Z" fill="#69CFF7"/>
<path id="Vector_23" fill-rule="evenodd" clip-rule="evenodd" d="M253.617 83.1736C261.549 82.7561 274.314 86.2725 280.592 89.243C292.217 94.7344 289.793 102.201 279.549 105.974C272.163 108.688 266.398 107.515 259.863 103.806C255.464 101.302 249.378 96.2437 247.227 91.5712C244.577 85.839 248.046 83.4786 253.617 83.1896V83.1736ZM252.638 82.162C246.841 82.6919 243.534 85.9835 246.071 91.6515C249.218 98.6843 258.242 104.978 265.451 107.564C274.17 110.695 288.605 105.605 289.408 98.0741C289.905 93.2893 284.735 90.0458 281.492 88.4401C275.101 85.277 260.875 81.3913 252.638 82.1459V82.162Z" fill="#B1B8AB"/>
<path id="Vector_24" fill-rule="evenodd" clip-rule="evenodd" d="M404.68 99.2442C405.467 99.2924 406.832 98.9712 407.699 98.8588C409.85 98.6019 412.227 98.4895 414.378 98.7625C415.326 98.8749 416.562 99.3084 417.269 99.3566C417.798 99.5172 417.365 99.4208 417.542 99.2763C416.707 93.801 415.454 89.2891 413.897 84.3757C413.56 84.6969 412.981 85.8048 412.741 86.2544C411.055 89.2409 408.839 92.8858 406.992 95.7117C406.671 96.2095 404.68 99.0676 404.68 99.2442Z" fill="#E7E60D"/>
<path id="Vector_25" fill-rule="evenodd" clip-rule="evenodd" d="M333.742 152.538C333.019 152.699 332.473 153.213 332.634 154.144C332.939 155.926 334.914 154.529 338.221 156.874C343.44 160.583 342.284 168.788 339.329 172.85C338.543 173.942 337.692 174.809 336.423 175.467C335.845 175.772 335.283 176.222 335.492 177.137C335.652 177.812 336.359 178.309 337.162 178.117C338.077 177.908 339.923 176.366 340.357 175.901C341.176 175.05 341.963 173.91 342.621 172.641C346.025 165.994 345.383 157.227 338.013 153.582C337.258 153.213 334.689 152.33 333.742 152.554V152.538Z" fill="#2F2E2E"/>
<path id="Vector_26" fill-rule="evenodd" clip-rule="evenodd" d="M291.866 185.565C291.449 178.886 290.807 177.119 290.983 169.557C288.318 169.38 286.793 168.401 286.231 168.336C285.893 172.736 287.001 180.202 287.595 184.923C287.692 185.71 287.499 186.24 289.362 186.143C290.534 186.079 290.983 185.822 291.866 185.549V185.565Z" fill="#FEFDFD"/>
<path id="Vector_27" fill-rule="evenodd" clip-rule="evenodd" d="M290.743 161.82C291.963 162.494 293.89 164.276 294.564 165.432C298.209 165.224 301.228 165.529 304.76 165.994C307.939 166.412 311.295 167.07 314.49 167.295L314.828 164.373C314.474 164.18 313.816 164.18 313.399 164.132C309.898 163.762 306.35 163.265 302.865 162.767C300.874 162.478 292.091 161.017 290.743 161.82Z" fill="#FEFDFD"/>
<path id="Vector_28" fill-rule="evenodd" clip-rule="evenodd" d="M285.974 190.334C292.284 189.74 301.677 188.6 306.655 185.999C310.733 183.863 310.3 181.134 306.494 179.544C304.937 178.902 303.411 178.5 301.645 178.115C300.762 177.922 299.911 177.794 299.028 177.649C298.209 177.521 296.78 177.312 297.133 178.581C297.326 179.271 298.691 179.223 299.51 179.367C300.955 179.608 309.401 181.182 307.602 183.317C305.178 186.176 294.163 187.733 290.759 188.167C288.896 188.407 286.985 188.616 285.091 188.761C284.256 188.825 282.827 188.921 283.453 190.109C283.774 190.736 285.203 190.398 285.958 190.318L285.974 190.334Z" fill="#0289C4"/>
<path id="Vector_29" fill-rule="evenodd" clip-rule="evenodd" d="M243.632 126.719C244.595 127.586 252.061 131.632 253.667 132.146C253.33 130.059 252.784 127.971 252.447 125.788C252.093 123.54 251.788 121.212 251.628 118.916L247.517 122.721C247.164 123.058 246.891 123.315 246.538 123.652C245.96 124.214 245.382 124.969 244.611 125.659C244.226 126.013 243.792 126.237 243.632 126.703V126.719Z" fill="#E7E60D"/>
<path id="Vector_30" fill-rule="evenodd" clip-rule="evenodd" d="M260.379 167.809C262.916 168.066 269.081 168.339 271.458 167.938L269.483 165.417C266.962 162.189 265.95 160.311 263.831 157.148C263.429 157.71 260.314 167.199 260.379 167.809Z" fill="#E7E60D"/>
<path id="Vector_31" fill-rule="evenodd" clip-rule="evenodd" d="M285.634 182.387L285.345 180.315C285.265 180.604 285.345 180.46 285.04 180.54L283.643 180.637C283.081 180.685 282.487 180.749 281.925 180.813C278.923 181.182 271.585 182.531 272.066 186.449C272.564 190.463 280.817 189.355 282.102 188.761C282.487 188.585 282.776 188.007 282.391 187.525C281.716 186.69 279.003 188.296 275.711 187.589C274.812 187.396 273.463 186.947 273.72 185.903C274.411 183.061 282.921 182.323 285.458 182.162C285.554 182.258 285.618 182.226 285.666 182.403L285.634 182.387Z" fill="#0289C4"/>
<path id="Vector_32" fill-rule="evenodd" clip-rule="evenodd" d="M338.203 109.585C337.401 109.36 336.758 110.163 335.57 111.062C334.767 111.672 333.884 112.266 333.033 112.876C331.379 114.081 329.645 115.269 327.943 116.409L320.316 121.643C319.883 121.948 319.497 122.189 319.032 122.494C318.679 122.735 317.779 123.265 318.486 123.763C318.952 124.084 319.546 123.49 319.883 123.249C323.544 120.728 327.879 117.918 331.363 115.381L336.389 111.785C337.722 110.773 338.541 110.532 338.187 109.585H338.203Z" fill="#B1B8AB"/>
<path id="Vector_33" fill-rule="evenodd" clip-rule="evenodd" d="M272.694 89.1782L264.521 94.9746C263.14 95.938 261.759 96.9014 260.346 97.8167L257.247 99.9522C256.926 100.434 257.376 100.932 257.922 100.755C258.098 100.691 259.72 99.5668 259.977 99.3902L264.152 96.5482C266.432 95.0228 270.269 92.3574 272.373 90.7357C272.614 90.5591 273.192 90.1095 273.288 89.9489C273.545 89.4511 273.079 89.0176 272.678 89.1942L272.694 89.1782Z" fill="#B1B8AB"/>
<path id="Vector_34" fill-rule="evenodd" clip-rule="evenodd" d="M317.506 117.823C318.293 118.064 318.968 117.358 319.594 116.988C320.268 116.571 320.798 116.234 321.489 115.8C322.757 114.997 324.025 114.243 325.262 113.408L330.882 109.779C331.267 109.522 332.68 108.831 332.006 108.221C331.54 107.788 330.496 108.719 330.095 109.008C329.485 109.442 328.826 109.811 328.216 110.212C326.948 111.063 325.727 111.802 324.459 112.621L318.791 116.218C317.539 117.004 317.185 117.004 317.49 117.839L317.506 117.823Z" fill="#B1B8AB"/>
<path id="Vector_35" fill-rule="evenodd" clip-rule="evenodd" d="M339.861 116.651C339.941 114.74 337.404 116.972 336.585 117.598L330.195 122.688C329.745 123.041 327.16 125.048 327.08 125.418C327 125.771 327.289 126.06 327.626 126.044C328.027 126.028 332.571 122.158 333.246 121.596C334.338 120.729 335.349 119.894 336.457 119.075C337.051 118.626 337.517 118.256 338.095 117.839C338.625 117.454 339.347 117.116 339.861 116.667V116.651Z" fill="#B1B8AB"/>
<path id="Vector_36" fill-rule="evenodd" clip-rule="evenodd" d="M267.653 88.1026L258.501 93.9633C257.987 94.3005 257.441 94.6376 256.927 94.9427C255.996 95.4886 256.59 96.3396 257.329 95.9864C257.73 95.7937 258.453 95.2799 258.838 95.0391L268.038 89.1463C268.986 88.5201 268.263 87.7815 267.653 88.1026Z" fill="#B1B8AB"/>
<path id="Vector_37" fill-rule="evenodd" clip-rule="evenodd" d="M264.248 102.408C264.986 102.746 265.211 102.296 265.709 101.895L273.545 95.6968C273.962 95.4078 275.054 95.1027 274.492 94.3962C273.978 93.7379 272.003 95.5041 271.618 95.7771L266.399 99.9197C265.95 100.305 265.613 100.578 265.115 100.979C264.665 101.365 264.055 101.59 264.248 102.408Z" fill="#B1B8AB"/>
<path id="Vector_38" fill-rule="evenodd" clip-rule="evenodd" d="M293.184 182.228C295.143 182.324 297.279 182.902 297.198 181.585C297.15 180.783 296.251 180.815 295.513 180.75C294.678 180.686 293.859 180.606 293.04 180.59L293.184 182.228Z" fill="#0289C4"/>
<path id="Vector_39" fill-rule="evenodd" clip-rule="evenodd" d="M286.677 165.463C287.545 165.944 290.403 167.357 291.462 167.197C291.43 166.876 291.414 166.94 291.141 166.731L289.391 165.704C288.829 165.431 287.464 164.628 286.934 164.596C286.774 164.885 286.726 165.029 286.677 165.463Z" fill="#FEFDFD"/>
<path id="Vector_40" fill-rule="evenodd" clip-rule="evenodd" d="M392.86 172.079L395.847 169.092C395.381 169.124 393.856 169.622 393.631 169.863C393.486 170.024 393.214 170.521 393.037 170.762C392.732 171.212 392.668 171.453 392.844 172.095L392.86 172.079Z" fill="#E7E60D"/>
<path id="Vector_41" fill-rule="evenodd" clip-rule="evenodd" d="M286.325 167.263C287.015 167.472 287.69 167.873 288.493 168.114C288.83 168.21 290.371 168.58 290.741 168.548C290.821 168.532 290.532 168.821 291.126 168.419C290.821 168.098 289.151 167.729 288.637 167.536C287.754 167.215 287.144 166.894 286.421 166.541L286.325 167.263Z" fill="#FEFDFD"/>
<path id="Vector_42" fill-rule="evenodd" clip-rule="evenodd" d="M288.492 162.444C288.798 162.701 289.761 162.942 291.078 163.905C291.511 164.226 291.8 164.499 292.202 164.804C292.956 165.399 292.747 165.639 293.422 165.655C293.02 164.74 291.142 163.167 290.05 162.605C289.279 162.203 289.263 162.139 288.492 162.46V162.444Z" fill="#FEFDFD"/>
<path id="Vector_43" fill-rule="evenodd" clip-rule="evenodd" d="M287.449 169.503C287.546 169.696 287.482 169.664 287.947 169.873L292.122 172.153C291.833 171.687 288.654 168.958 287.466 169.503H287.449Z" fill="#FEFDFD"/>
</g>
</g>
<defs>
<radialGradient id="paint0_radial_204_125" cx="0" cy="0" r="1" gradientUnits="userSpaceOnUse" gradientTransform="translate(167.752 290.494) rotate(-30.0987) scale(179.23 129.907)">
<stop stop-color="#F4F112"/>
<stop offset="1" stop-color="#F4F112" stop-opacity="0"/>
</radialGradient>
</defs>
</svg>
