<svg width="250" height="232" viewBox="0 0 250 232" fill="none" xmlns="http://www.w3.org/2000/svg">
<g id="wheel">
<path id="svg-wheel" d="M14.3135 174.079L38.634 172.879C45.3679 181.478 53.6138 189.174 63.1999 195.562C62.4952 217.452 60.7934 218.941 63.2197 219.884L90.3487 230.422C91.1416 230.731 92.0505 230.543 92.6092 229.954L108.58 213.188C120.161 215.024 131.77 215.041 142.989 213.413L159.333 230.41C159.907 231.005 160.82 231.207 161.604 230.908L188.512 220.741C189.299 220.444 189.784 219.712 189.724 218.923L188.003 196.401C197.184 190.32 205.358 182.821 212.098 174.061L236.435 175.597C237.287 175.65 238.074 175.197 238.393 174.468L249.312 149.551C249.631 148.822 249.414 147.979 248.768 147.451L230.365 132.382C232.145 121.697 231.963 110.956 230.008 100.55C247.349 85.7166 249.62 85.8523 248.6 83.6276C236.899 59.2203 237.819 57.2706 235.153 57.4028L210.832 58.6026C204.098 50.0002 195.852 42.3049 186.267 35.9165C186.972 14.041 188.676 12.5376 186.247 11.5949C159.101 1.56058 158.573 -0.278442 156.856 1.52487L140.887 18.2904C129.306 16.4585 117.695 16.437 106.479 18.0654C90.3423 1.96407 90.2886 -0.346298 87.8604 0.571426C61.4258 11.0735 59.5571 10.1236 59.7426 12.5555L61.4639 35.0809C52.282 41.1622 44.1084 48.6575 37.3692 57.417C14.107 56.3993 12.0709 54.7353 11.0745 57.0135C0.743053 81.8457 -1.29075 82.3993 0.699326 84.0312L19.1018 99.0969C17.3208 109.785 17.5022 120.526 19.4581 130.932C2.17791 145.712 -0.154437 145.615 0.867033 147.854C12.5687 172.258 11.6503 174.211 14.3135 174.079Z" fill="#91B3FA"/>
<path id="svg-wheel_2" d="M127.89 94.3307C115.245 92.5296 103.292 100.459 101.524 112.446C99.7788 124.253 108.771 135.342 121.568 137.156C134.363 138.975 146.192 130.848 147.934 119.041C149.681 107.215 140.663 96.141 127.89 94.3307ZM121.222 139.487L121.239 139.493L121.222 139.487ZM96.4743 111.727C98.5972 97.3509 113 87.4536 128.579 89.6701C144.157 91.8867 155.106 105.38 152.984 119.759C150.861 134.135 136.46 144.03 120.878 141.816C105.296 139.603 94.3514 126.1 96.4743 111.727Z" fill="#BDD0FB"/>
<path id="svg-wheel_3" d="M95.2276 176.651C91.3838 174.99 87.6965 173.032 84.2328 170.806C83.1908 170.136 82.8362 168.892 83.3348 167.873C83.395 167.752 83.4659 167.637 83.5497 167.519C84.3381 166.457 85.926 166.201 87.0883 166.948C91.0722 169.507 95.378 171.687 99.8816 173.439C133.809 186.617 172.401 172.679 187.286 142.344C187.667 141.574 188.032 140.787 188.38 139.99C202.471 107.836 185.415 71.0231 150.68 57.5224C115.992 44.0485 76.2508 58.9081 62.1802 90.9715C53.8167 110.059 58.8501 123.576 57.8887 125.534C56.8499 127.653 53.4424 127.169 53.048 124.861C50.8899 112.248 52.5867 98.9159 58.6287 86.6024C84.7013 33.4773 167.676 35.6501 192.546 90.0567C200.202 106.8 200.402 125.188 193.107 141.826C192.731 142.687 192.336 143.538 191.923 144.383C184.364 159.787 170.974 171.724 153.935 178.165C135.968 184.955 116.095 184.818 97.9778 177.781C97.054 177.421 96.1342 177.045 95.2276 176.651Z" fill="#BDD0FB"/>
</g>
</svg>
