<svg width="71" height="70" viewBox="0 0 71 70" fill="none" xmlns="http://www.w3.org/2000/svg">
<rect x="0.371094" y="0.254639" width="69.769" height="69.1136" rx="34.5568" fill="#FFA42F"/>
<path d="M49.5568 33.849C50.1453 33.2808 50.3531 32.4469 50.0992 31.6717C49.8448 30.8965 49.182 30.3431 48.3677 30.2257L41.1278 29.1836C40.8195 29.1391 40.5531 28.9475 40.4153 28.6706L37.1786 22.1725C36.8152 21.4424 36.0775 20.9886 35.2555 20.9886C34.434 20.9886 33.6964 21.4424 33.333 22.1725L30.0956 28.6712C29.9579 28.9481 29.6909 29.1397 29.3825 29.1842L22.1427 30.2263C21.329 30.3431 20.6656 30.8971 20.4111 31.6723C20.1573 32.4475 20.365 33.2814 20.9536 33.8496L26.1919 38.9076C26.4152 39.1235 26.5176 39.4343 26.4649 39.7379L25.2291 46.8801C25.1196 47.5088 25.286 48.1203 25.6967 48.6025C26.335 49.354 27.4492 49.5829 28.3401 49.1191L34.8148 45.7467C35.0854 45.6061 35.4261 45.6073 35.6961 45.7467L42.1714 49.1191C42.4864 49.2834 42.8222 49.3664 43.1689 49.3664C43.8018 49.3664 44.4017 49.0877 44.8142 48.6025C45.2256 48.1203 45.3914 47.5076 45.2818 46.8801L44.0455 39.7379C43.9928 39.4337 44.0951 39.1235 44.3185 38.9076L49.5568 33.849Z" fill="white"/>
</svg>
