<svg width="1180" height="310" preserveAspectRatio="none" viewBox="0 0 1180 310" fill="none" xmlns="http://www.w3.org/2000/svg">
<path d="M654.134 90.0351C663.075 90.0351 671.491 91.9912 678.846 95.4352C686.493 78.688 705.317 66.8436 727.328 66.8436C727.459 66.8436 727.591 66.8472 727.722 66.8481C727.464 65.0195 727.328 63.1579 727.328 61.2687C727.328 36.2678 750.669 15.9999 779.463 15.9999C807.42 15.9999 830.236 35.1091 831.536 59.1047C838.089 56.9037 845.21 55.6937 852.657 55.6937C868.688 55.6937 883.213 61.2905 893.787 70.3536C899.045 68.1089 904.957 66.8436 911.212 66.8436C927.17 66.8436 940.911 75.0549 947.162 86.8725C949.974 86.3221 952.895 86.0215 955.899 86.0215C977.741 86.0215 995.449 101.397 995.449 120.363C995.449 139.329 977.741 154.705 955.899 154.705C948.583 154.705 941.737 152.973 935.858 149.967C935.859 150.06 935.867 150.152 935.867 150.245C935.867 169.211 918.159 184.587 896.316 184.587C887.142 184.587 878.704 181.867 871.993 177.315C863.503 192.321 845.731 202.65 825.177 202.65C799.971 202.65 778.944 187.118 774.095 166.476C765.585 181.434 747.842 191.723 727.328 191.723C709.53 191.723 693.819 183.977 684.412 172.159C675.876 177.455 665.424 180.573 654.134 180.573C625.341 180.573 601.999 160.305 601.999 135.304C601.999 110.303 625.341 90.0351 654.134 90.0351Z" fill="white"/>
<path d="M519.318 151.035C510.376 151.035 501.96 152.991 494.606 156.435C486.958 139.688 468.134 127.843 446.123 127.843C445.992 127.843 445.86 127.847 445.729 127.848C445.987 126.019 446.123 124.158 446.123 122.268C446.123 97.2677 422.781 76.9999 393.988 76.9999C366.03 76.9999 343.215 96.109 341.914 120.104C335.361 117.903 328.24 116.693 320.794 116.693C304.762 116.693 290.237 122.29 279.663 131.353C274.405 129.109 268.493 127.843 262.238 127.843C246.28 127.843 232.539 136.055 226.288 147.872C223.476 147.322 220.555 147.021 217.551 147.021C195.708 147.021 178 162.397 178 181.363C178 200.329 195.708 215.704 217.551 215.704C224.867 215.704 231.713 213.973 237.591 210.967C237.591 211.059 237.583 211.151 237.583 211.244C237.583 230.21 255.291 245.586 277.134 245.586C286.308 245.586 294.746 242.866 301.457 238.314C309.947 253.32 327.72 263.649 348.274 263.649C373.479 263.649 394.507 248.118 399.356 227.475C407.866 242.433 425.609 252.722 446.123 252.722C463.921 252.722 479.632 244.976 489.04 233.158C497.575 238.455 508.027 241.572 519.318 241.572C548.111 241.572 571.453 221.304 571.453 196.303C571.453 171.302 548.111 151.035 519.318 151.035Z" fill="white"/>
<path d="M506.318 99.0347C497.376 99.0347 488.96 100.991 481.606 104.435C473.958 87.6876 455.134 75.8434 433.123 75.8434C432.992 75.8434 432.86 75.8469 432.729 75.8478C432.987 74.0192 433.123 72.1576 433.123 70.2684C433.123 45.2677 409.781 24.9999 380.988 24.9999C353.03 24.9999 330.215 44.109 328.914 68.1044C322.361 65.9035 315.24 64.6935 307.794 64.6935C291.762 64.6935 277.237 70.2903 266.663 79.3533C261.405 77.1086 255.493 75.8434 249.238 75.8434C233.28 75.8434 219.539 84.0546 213.288 95.8721C210.476 95.3217 207.555 95.0211 204.551 95.0211C182.708 95.0211 165 110.397 165 129.363C165 148.329 182.708 163.704 204.551 163.704C211.867 163.704 218.713 161.973 224.591 158.967C224.591 159.059 224.583 159.151 224.583 159.244C224.583 178.21 242.291 193.586 264.134 193.586C273.308 193.586 281.746 190.866 288.457 186.314C296.947 201.32 314.72 211.649 335.274 211.649C360.479 211.649 381.507 196.118 386.356 175.475C394.866 190.433 412.609 200.722 433.123 200.722C450.921 200.722 466.632 192.976 476.04 181.158C484.575 186.455 495.027 189.572 506.318 189.572C535.111 189.572 558.453 169.304 558.453 144.303C558.453 119.302 535.111 99.0347 506.318 99.0347Z" fill="white"/>
<path d="M738.787 126.978C746.469 126.978 753.698 128.299 760.016 130.623C766.586 119.318 782.757 111.322 801.666 111.322C801.779 111.322 801.892 111.325 802.005 111.325C801.782 110.091 801.666 108.834 801.666 107.559C801.666 90.6819 821.718 76.9999 846.453 76.9999C870.47 76.9999 890.07 89.8997 891.188 106.098C896.817 104.612 902.934 103.796 909.332 103.796C923.104 103.796 935.582 107.574 944.665 113.692C949.182 112.177 954.261 111.322 959.634 111.322C973.343 111.322 985.148 116.866 990.518 124.843C992.934 124.472 995.443 124.269 998.023 124.269C1016.79 124.269 1032 134.648 1032 147.451C1032 160.255 1016.79 170.634 998.023 170.634C991.739 170.634 985.857 169.465 980.808 167.436C980.808 167.499 980.815 167.561 980.815 167.624C980.815 180.427 965.602 190.806 946.838 190.806C938.956 190.806 931.708 188.97 925.943 185.897C918.65 196.027 903.382 203 885.725 203C864.071 203 846.007 192.515 841.841 178.58C834.531 188.678 819.289 195.624 801.666 195.624C786.376 195.624 772.879 190.395 764.798 182.417C757.465 185.992 748.486 188.096 738.787 188.096C714.052 188.096 694 174.415 694 157.537C694 140.66 714.052 126.978 738.787 126.978Z" fill="white"/>
<path d="M433.134 197.035C442.075 197.035 450.491 198.991 457.846 202.435C465.493 185.688 484.317 173.844 506.328 173.844C506.459 173.844 506.591 173.847 506.722 173.848C506.464 172.02 506.328 170.158 506.328 168.269C506.328 143.268 529.669 123 558.463 123C586.42 123 609.236 142.109 610.536 166.105C617.089 163.904 624.21 162.694 631.657 162.694C647.688 162.694 662.213 168.291 672.787 177.354C678.045 175.109 683.957 173.844 690.212 173.844C706.17 173.844 719.911 182.055 726.162 193.872C728.974 193.322 731.895 193.022 734.899 193.022C756.741 193.022 778.5 202.034 778.5 221C778.5 239.966 760.843 236 739 236C731.684 236 720.737 259.973 714.858 256.967C714.859 257.06 714.867 257.152 714.867 257.245C714.867 276.211 697.159 291.587 675.316 291.587C666.142 291.587 657.704 288.867 650.993 284.315C642.503 299.321 624.731 309.65 604.177 309.65C578.971 309.65 557.944 294.118 553.095 273.476C544.585 288.434 526.842 298.723 506.328 298.723C488.53 298.723 472.819 290.977 463.412 279.159C454.876 284.455 444.424 287.573 433.134 287.573C404.341 287.573 380.999 267.305 380.999 242.304C380.999 217.303 404.341 197.035 433.134 197.035Z" fill="white"/>
<path d="M881.318 140.035C872.376 140.035 863.96 141.991 856.606 145.435C848.958 128.688 830.134 116.843 808.123 116.843C807.992 116.843 807.86 116.847 807.729 116.848C807.987 115.019 808.123 113.158 808.123 111.268C808.123 86.2677 784.781 65.9999 755.988 65.9999C728.03 65.9999 705.215 85.109 703.914 109.104C697.361 106.903 690.24 105.693 682.794 105.693C666.762 105.693 652.237 111.29 641.663 120.353C636.405 118.109 630.493 116.843 624.238 116.843C608.28 116.843 594.539 125.055 588.288 136.872C585.476 136.322 582.555 136.021 579.551 136.021C557.708 136.021 540 151.397 540 170.363C540 189.329 557.708 204.704 579.551 204.704C586.867 204.704 593.713 202.973 599.591 199.967C599.591 200.059 599.583 200.151 599.583 200.244C599.583 219.21 617.291 234.586 639.134 234.586C648.308 234.586 656.746 231.866 663.457 227.314C671.947 242.32 689.72 252.649 710.274 252.649C735.479 252.649 756.507 237.118 761.356 216.475C769.866 231.433 787.609 241.722 808.123 241.722C825.921 241.722 841.632 233.976 851.04 222.158C859.575 227.455 870.027 230.572 881.318 230.572C910.111 230.572 933.453 210.304 933.453 185.303C933.453 160.302 910.111 140.035 881.318 140.035Z" fill="white"/>
<path d="M848.318 175.035C839.376 175.035 830.96 176.991 823.606 180.435C815.958 163.688 797.134 151.843 775.123 151.843C774.992 151.843 774.86 151.847 774.729 151.848C774.987 150.019 775.123 148.158 775.123 146.268C775.123 121.268 751.781 101 722.988 101C695.03 101 672.215 120.109 670.914 144.104C664.361 141.903 657.24 140.693 649.794 140.693C633.762 140.693 619.237 146.29 608.663 155.353C603.405 153.109 597.493 151.843 591.238 151.843C575.28 151.843 561.539 160.055 555.288 171.872C552.476 171.322 549.555 171.021 546.551 171.021C524.708 171.021 507 186.397 507 205.363C507 224.329 524.708 239.704 546.551 239.704C553.867 239.704 560.713 237.973 566.591 234.967C566.591 235.059 566.583 235.151 566.583 235.244C566.583 254.21 584.291 269.586 606.134 269.586C615.308 269.586 623.746 266.866 630.457 262.314C638.947 277.32 654.446 291.5 675 291.5C700.206 291.5 723.507 272.118 728.356 251.475C736.866 266.433 754.609 276.722 775.123 276.722C792.921 276.722 808.632 268.976 818.04 257.158C826.575 262.455 837.027 265.572 848.318 265.572C877.111 265.572 900.453 245.304 900.453 220.303C900.453 195.302 877.111 175.035 848.318 175.035Z" fill="white"/>
<path d="M727.318 74.0349C718.376 74.0349 709.96 75.991 702.606 79.435C694.958 62.6879 676.134 50.8436 654.123 50.8436C653.992 50.8436 653.86 50.8472 653.729 50.8481C653.987 49.0195 654.123 47.1579 654.123 45.2686C654.123 20.2679 630.781 0.00012207 601.988 0.00012207C574.03 0.00012207 551.215 19.1093 549.914 43.1047C543.361 40.9037 536.24 39.6937 528.794 39.6937C512.762 39.6937 498.237 45.2905 487.663 54.3536C482.405 52.1089 476.493 50.8436 470.238 50.8436C454.28 50.8436 440.539 59.0548 434.288 70.8723C431.476 70.322 428.555 70.0214 425.551 70.0214C403.708 70.0214 386 85.3971 386 104.363C386 123.329 403.708 138.705 425.551 138.705C432.867 138.705 439.713 136.973 445.591 133.967C445.591 134.06 445.583 134.152 445.583 134.245C445.583 153.211 463.291 168.586 485.134 168.586C494.308 168.586 502.746 165.866 509.457 161.314C517.947 176.32 535.72 186.649 556.274 186.649C581.479 186.649 602.507 171.118 607.356 150.475C615.866 165.433 633.609 175.722 654.123 175.722C671.921 175.722 687.632 167.977 697.04 156.158C705.575 161.455 716.027 164.572 727.318 164.572C756.111 164.572 779.453 144.305 779.453 119.303C779.453 94.3027 756.111 74.0349 727.318 74.0349Z" fill="white"/>
<path d="M366.95 112.56C357.337 112.56 348.289 115.19 340.382 119.822C332.16 97.3005 311.922 81.3726 288.259 81.3726C288.117 81.3726 287.976 81.3774 287.834 81.3786C288.113 78.9196 288.259 76.4162 288.259 73.8756C288.259 40.2554 263.164 12.9999 232.208 12.9999C202.151 12.9999 177.622 38.6973 176.224 70.9656C169.178 68.0058 161.523 66.3786 153.517 66.3786C136.282 66.3786 120.665 73.905 109.297 86.0927C103.644 83.0741 97.2889 81.3726 90.564 81.3726C73.4076 81.3726 58.6347 92.4148 51.9141 108.307C48.8907 107.567 45.7503 107.162 42.5209 107.162C19.0378 107.162 0 127.839 0 153.344C0 178.849 19.0378 199.526 42.5209 199.526C50.3862 199.526 57.7467 197.197 64.0663 193.154C64.0657 193.279 64.0574 193.403 64.0574 193.528C64.0574 219.033 83.0952 239.71 106.578 239.71C116.442 239.71 125.513 236.052 132.728 229.93C141.856 250.109 160.963 264 183.061 264C210.159 264 232.766 243.114 237.979 215.354C247.128 235.469 266.204 249.306 288.259 249.306C307.393 249.306 324.284 238.89 334.398 222.997C343.574 230.119 354.811 234.311 366.95 234.311C397.906 234.311 423 207.056 423 173.435C423 139.815 397.906 112.56 366.95 112.56Z" fill="white"/>
<path d="M813.05 112.56C822.663 112.56 831.711 115.19 839.618 119.822C847.84 97.3005 868.078 81.3726 891.741 81.3726C891.883 81.3726 892.024 81.3774 892.166 81.3786C891.887 78.9196 891.741 76.4162 891.741 73.8756C891.741 40.2554 916.836 12.9999 947.792 12.9999C977.849 12.9999 1002.38 38.6973 1003.78 70.9656C1010.82 68.0058 1018.48 66.3786 1026.48 66.3786C1043.72 66.3786 1059.33 73.905 1070.7 86.0927C1076.36 83.0741 1082.71 81.3726 1089.44 81.3726C1106.59 81.3726 1121.37 92.4148 1128.09 108.307C1131.11 107.567 1134.25 107.162 1137.48 107.162C1160.96 107.162 1180 127.839 1180 153.344C1180 178.849 1160.96 199.526 1137.48 199.526C1129.61 199.526 1122.25 197.197 1115.93 193.154C1115.93 193.279 1115.94 193.403 1115.94 193.528C1115.94 219.033 1096.9 239.71 1073.42 239.71C1063.56 239.71 1054.49 236.052 1047.27 229.93C1038.14 250.109 1019.04 264 996.939 264C969.841 264 947.234 243.114 942.021 215.354C932.872 235.469 913.796 249.306 891.741 249.306C872.607 249.306 855.716 238.89 845.602 222.997C836.426 230.119 825.189 234.311 813.05 234.311C782.094 234.311 757 207.056 757 173.435C757 139.815 782.094 112.56 813.05 112.56Z" fill="white"/>
</svg>
