<svg width="21" height="20" viewBox="0 0 21 20" fill="none" xmlns="http://www.w3.org/2000/svg">
<path d="M10.164 1.07178C15.3159 1.07178 19.4842 5.09367 19.4842 10.057C19.4842 15.0204 15.3159 19.0498 10.164 19.0498C5.01209 19.0498 0.84375 15.0279 0.84375 10.0646C0.84375 5.1012 5.01209 1.07178 10.164 1.07178Z" fill="#E74D89"/>
<path d="M10.1673 19.6896C4.65636 19.6896 0.175781 15.3739 0.175781 10.0641C0.175781 4.74678 4.65636 0.431152 10.1673 0.431152C15.6783 0.431152 20.1588 4.74678 20.1588 10.0566C20.1588 15.3664 15.6783 19.6896 10.1673 19.6896ZM18.5899 11.3746C18.301 11.2842 15.9515 10.6139 13.2741 11.0206C14.3903 13.973 14.843 16.3832 14.9289 16.8803C16.8491 15.6375 18.2152 13.6642 18.5899 11.3746ZM13.5004 17.6409C13.3755 16.9179 12.876 14.4023 11.6817 11.4048C11.666 11.4123 11.6426 11.4198 11.627 11.4198C6.81078 13.0391 5.08568 16.2551 4.92956 16.5564C6.37365 17.6409 8.19242 18.2887 10.1673 18.2887C11.346 18.2962 12.4779 18.0627 13.5004 17.6409ZM3.82893 15.5697C4.02408 15.2534 6.36585 11.5177 10.7684 10.1394C10.8776 10.1018 10.9947 10.0717 11.104 10.0415C10.8933 9.57456 10.6591 9.1076 10.4093 8.64817C6.14728 9.87583 2.01016 9.82311 1.63548 9.81557C1.63548 9.89842 1.62768 9.98127 1.62768 10.0641C1.63548 12.1805 2.4629 14.1086 3.82893 15.5697ZM1.81502 8.38456C2.1975 8.39209 5.71015 8.40716 9.70676 7.38286C8.2939 4.95767 6.76395 2.92412 6.54538 2.63039C4.14898 3.71495 2.36923 5.83887 1.81502 8.38456ZM8.169 2.07305C8.40318 2.37432 9.95655 4.40786 11.3538 6.88577C14.3903 5.78615 15.6705 4.12919 15.8266 3.9183C14.32 2.63039 12.3373 1.8471 10.1673 1.8471C9.48039 1.8471 8.80909 1.92995 8.169 2.07305ZM16.7711 4.86729C16.5916 5.10077 15.1631 6.8707 12.0095 8.11342C12.2046 8.50507 12.3998 8.90425 12.5793 9.30342C12.6418 9.44652 12.7042 9.58963 12.7667 9.7252C15.608 9.37874 18.4259 9.93608 18.7069 9.9888C18.6835 8.05317 17.9654 6.26817 16.7711 4.86729Z" fill="#B2215A"/>
</svg>
