<svg width="71" height="96" viewBox="0 0 71 96" fill="none" xmlns="http://www.w3.org/2000/svg">
<g clip-path="url(#clip0)">
<path d="M64.9227 47.9752C65.304 45.8158 65.5951 44.0524 65.8046 44.067C66.0142 44.0815 66.0433 45.9017 65.6591 48.1034C65.2749 50.305 64.6214 52.0058 64.4293 51.9504C64.2372 51.8951 64.5515 50.1361 64.9227 47.9752Z" fill="#485D63"/>
<path d="M62.7098 69.233C62.7098 68.0244 65.1519 69.1631 66.1489 68.4816C67.1458 67.8001 67.8953 66.8085 68.4775 65.7456C70.9589 61.1471 69.9605 54.9353 66.1634 51.3474H60.4219V69.2242C60.4219 69.2242 62.7098 69.5329 62.7098 69.233Z" fill="#F0D7C2"/>
<path d="M63.5499 56.3245C62.1629 63.0227 68.7894 43.9475 69.3919 37.127C69.5279 35.7159 69.5896 34.2986 69.5767 32.881C69.4984 28.5971 68.4294 24.3896 66.4534 20.5884C65.0315 17.861 62.8994 15.2007 59.9042 14.512H40.6289V57.5448C40.6289 57.5448 63.6198 55.9882 63.5499 56.3245Z" fill="#E8BC70"/>
<path d="M69.1028 37.5698C68.5003 44.3845 61.8739 63.4597 63.2609 56.7615C63.2783 56.68 61.9641 56.7062 59.96 56.795C61.168 52.9625 62.1591 49.0776 62.7486 45.0994C63.7674 38.1916 63.5316 30.9867 61.136 24.4225C61.1837 26.3974 60.7273 28.3519 59.8101 30.1014C58.8663 28.1658 57.5025 26.4655 55.8183 25.1243C54.1342 23.7831 52.172 22.835 50.075 22.349C50.4761 25.157 50.3128 28.0169 49.5947 30.761C47.1688 28.0489 43.9152 26.2147 40.3398 25.5437V14.946H59.6137C62.6103 15.6362 64.7425 18.2951 66.1629 21.0224C68.1398 24.8244 69.2094 29.033 69.2877 33.3179C69.3009 34.7375 69.2392 36.1568 69.1028 37.5698V37.5698Z" fill="#9E8863"/>
<path d="M52.5504 28.7569C55.1963 28.2648 56.9588 25.737 57.9863 23.2484C58.8823 21.0711 59.446 18.7715 59.6586 16.4265C59.8219 14.6059 59.5812 12.7717 58.9537 11.055C58.3262 9.3383 57.3275 7.78145 56.0288 6.49575V6.49575C55.2327 5.69705 54.3283 5.01424 53.3422 4.46737C42.8109 -1.29888 31.811 3.3214 21.5374 10.487C10.7282 18.0282 4.71448 31.5702 5.36213 44.7423C5.53824 48.3331 6.16551 51.8845 6.52645 55.4622C6.96307 59.9398 6.98345 64.4465 6.998 68.9459C7.0111 73.1236 7.0242 77.307 6.70692 81.4686C6.38964 85.6302 5.38979 90.3437 1.80078 92.5031C4.00425 93.7932 6.42457 94.8824 8.97443 94.8737C13.6593 94.8576 17.6937 90.9785 19.1142 86.5111C20.5346 82.0438 19.804 77.1672 18.4432 72.678" fill="#E8BC70"/>
<path d="M18.8802 72.2458C20.241 76.7307 20.9701 81.6087 19.5511 86.079C18.1321 90.5493 14.0963 94.4269 9.41139 94.4415C6.86154 94.4502 4.43394 93.3625 2.23047 92.0767C2.34836 92.0054 2.46188 91.9311 2.57394 91.8569C8.47848 91.6472 14.1807 87.8831 16.569 82.4532C15.737 82.9545 14.7874 83.2271 13.8163 83.2435C12.8452 83.2599 11.887 83.0194 11.0385 82.5464C12.3528 82.2455 13.5636 81.6005 14.5466 80.6773C15.5297 79.7541 16.2498 78.586 16.6331 77.2927C15.1425 77.9459 13.4791 78.0926 11.8972 77.7106C13.4297 77.3349 14.5606 75.9633 15.118 74.4926C15.6754 73.0219 15.7613 71.4085 15.9083 69.833C16.1892 66.8392 16.716 63.8527 17.7537 61.0307C19.9455 55.0708 24.2622 50.1972 28.6051 45.5376C29.3678 49.0993 30.3065 52.6173 31.4213 56.0916L18.8802 72.2458Z" fill="#EACE9B"/>
<path d="M17.1322 68.3948C19.3284 79.5065 27.2021 86.3211 36.0946 92.3655C37.3811 93.2392 38.7594 94.1463 40.3152 94.2075C41.8419 94.2672 43.2668 93.5013 44.5766 92.7135C51.7226 88.4121 58.2981 82.4377 61.0837 74.5731C62.9757 69.2175 62.9874 63.4032 62.9757 57.7214C62.9626 52.625 62.8302 47.1296 59.7826 43.0379C57.764 40.3237 54.5432 38.3448 53.6452 35.0816C52.9684 32.6193 53.6452 29.5309 51.1841 28.0922C50.767 27.8572 50.3134 27.6938 49.8422 27.6088C45.8326 26.8196 41.8376 29.7624 37.9211 28.8145C36.2357 28.4068 34.7803 27.3132 33.1008 26.8837C30.9177 26.3245 28.5367 26.9754 26.668 28.2451C24.7992 29.5149 23.3817 31.351 22.2145 33.2848C18.1248 40.0587 16.8295 48.1285 16.0538 56.0003V56.0629C15.7573 59.1002 15.9083 62.1645 16.502 65.1579L17.1322 68.3948Z" fill="#EBCBAC"/>
<path d="M61.3227 44.8213C61.3227 44.8213 66.3395 76.6376 40.7478 94.2086C39.4889 95.0721 43.6993 93.5024 45.0077 92.7146C52.1537 88.4132 58.7292 82.4388 61.5163 74.5742C63.4083 69.2186 63.4199 63.4043 63.4083 57.7225C63.3966 53.3309 63.2948 48.6509 61.3256 44.8213" fill="#F0D7C2"/>
<path d="M53.8188 30.4289C53.7969 30.4668 53.7736 30.5032 53.7504 30.541C51.2762 34.5119 46.9988 37.6921 42.324 37.5304C40.6474 37.4707 38.9766 36.9917 37.3117 37.2101C34.7283 37.5479 32.6544 39.4947 31.0651 41.5624C24.82 49.7007 23.5247 60.9507 26.1197 70.8858C27.252 75.2193 29.0654 79.3809 29.8004 83.8002C29.9915 84.8403 30.0312 85.9026 29.9182 86.9541C24.152 82.079 19.5922 76.291 18.0044 68.2532L17.3654 65.0206C16.7715 62.0273 16.6205 58.9629 16.9172 55.9256C16.9172 55.9052 16.9172 55.8849 16.9172 55.863C17.6958 47.9868 18.9882 39.9185 23.0779 33.1475C24.2422 31.2123 25.6627 29.3776 27.5314 28.1064C29.4001 26.8352 31.7753 26.1872 33.9642 26.7464C35.6452 27.1832 37.0992 28.2695 38.7845 28.6757C42.7054 29.6237 46.696 26.6809 50.7071 27.4701C51.1783 27.5549 51.6319 27.7183 52.049 27.9535C53.0765 28.5432 53.5568 29.4257 53.8188 30.4289Z" fill="#D7AD8C"/>
<path d="M56.3212 50.1389C54.3506 51.7275 54.4627 55.8557 51.2492 56.109C49.1156 56.2808 44.8294 53.769 46.228 52.2153C46.9557 51.4145 49.8665 50.5452 49.8665 50.5452L56.3212 50.1389Z" fill="white"/>
<path d="M56.3212 50.1389C54.3521 51.7275 54.4627 55.8557 51.2492 56.109C49.1156 56.2823 44.8294 53.769 46.228 52.2153C46.363 52.0763 46.5151 51.9549 46.6807 51.8542C47.3545 53.223 50.2129 54.6383 51.8313 54.5073C54.2094 54.3151 54.7669 52.0057 55.6939 50.1739L56.3212 50.1389Z" fill="#EBDCE8"/>
<path d="M52.1821 46.9878C50.4225 47.1421 48.8754 47.7668 47.778 48.3303C46.6807 48.8939 45.9573 49.3496 45.6721 49.1297C45.5382 49.022 45.5382 48.7512 45.6939 48.3536C45.9328 47.8101 46.2715 47.3162 46.6923 46.8975C46.9764 46.6036 47.2841 46.3333 47.6121 46.0894C47.993 45.8096 48.3966 45.5622 48.8186 45.3496C50.8001 44.3506 53.0893 44.151 55.2136 44.792C55.6639 44.9286 56.1021 45.1024 56.5235 45.3118C56.8886 45.4956 57.2381 45.7089 57.5685 45.9496C58.0539 46.2875 58.472 46.7132 58.8012 47.2047C59.0239 47.5688 59.0704 47.8352 58.9569 47.9648C58.7153 48.2371 57.928 47.8993 56.7433 47.5426C55.5586 47.1858 53.9445 46.8364 52.1821 46.9878Z" fill="#D7AD8C"/>
<path d="M60.2857 47.4338C59.1492 46.4433 57.8249 45.6922 56.3918 45.2252C54.9587 44.7583 53.4462 44.5851 51.9447 44.7159C50.4432 44.8468 48.9835 45.2791 47.6527 45.987C46.3219 46.6949 45.1474 47.6638 44.1992 48.836" stroke="#42565E" stroke-width="1.4554" stroke-miterlimit="10" stroke-linecap="square"/>
<path d="M44.1602 53.3163C46.0813 52.1863 48.033 51.0637 50.1651 50.4157C52.2973 49.7677 54.6536 49.625 56.7231 50.4492" stroke="#42565E" stroke-width="1.16432" stroke-miterlimit="10"/>
<path d="M46.0273 52.8299C46.854 54.7491 49.0604 56.3144 51.194 56.1411C54.4075 55.882 54.1499 51.8995 56.1205 50.3167" stroke="#42565E" stroke-width="1.16432" stroke-miterlimit="10" stroke-linecap="round"/>
<path d="M53.6093 57.5885C53.2627 57.763 52.8975 57.8978 52.5207 57.9904C52.3561 58.029 52.1894 58.0582 52.0215 58.0778C51.8767 58.097 51.7309 58.1068 51.5849 58.1069C51.0449 58.1069 50.7247 58.0108 50.7305 57.9613C50.7364 57.9118 51.0609 57.9089 51.5659 57.839C51.6926 57.8215 51.8294 57.8011 51.9749 57.7676C52.1205 57.7341 52.2747 57.6963 52.4363 57.6541C53.1325 57.4498 53.7835 57.1147 54.3545 56.6668C54.4826 56.5605 54.6092 56.4629 54.7154 56.3581C54.8217 56.2533 54.9235 56.1586 55.0065 56.0669C55.3558 55.697 55.5406 55.4291 55.5887 55.4582C55.6367 55.4873 55.5217 55.7975 55.2059 56.2343C55.1203 56.3535 55.027 56.4668 54.9265 56.5736C54.813 56.6988 54.6925 56.8174 54.5655 56.9289C54.2726 57.184 53.9518 57.4053 53.6093 57.5885V57.5885Z" fill="#DCB79B"/>
<path d="M47.5662 57.6755C47.2514 57.546 46.9606 57.3644 46.7061 57.1384C46.514 56.9609 46.4267 56.8212 46.4601 56.7833C46.5314 56.7033 47.0306 57.054 47.7103 57.3335C48.39 57.6129 48.9867 57.7308 48.9794 57.8385C48.9794 57.888 48.815 57.9258 48.553 57.9127C48.2131 57.8896 47.8795 57.8094 47.5662 57.6755V57.6755Z" fill="#DCB79B"/>
<path d="M24.1133 50.1389C26.0839 51.7275 25.9718 55.8557 29.1853 56.109C31.3189 56.2808 35.6051 53.769 34.2064 52.2153C33.4788 51.4145 30.568 50.5452 30.568 50.5452L24.1133 50.1389Z" fill="white"/>
<path d="M24.1133 50.1389C26.0824 51.7275 25.9718 55.8557 29.1853 56.109C31.3189 56.2823 35.6051 53.769 34.2064 52.2153C34.0715 52.0763 33.9194 51.9549 33.7538 51.8542C33.08 53.223 30.2216 54.6383 28.6032 54.5073C26.2251 54.3151 25.6676 52.0057 24.7406 50.1739L24.1133 50.1389Z" fill="#EBDCE8"/>
<path d="M28.2486 46.9878C30.0082 47.1421 31.5553 47.7668 32.6526 48.3303C33.75 48.8939 34.4733 49.3496 34.7586 49.1297C34.8925 49.022 34.8925 48.7512 34.7368 48.3536C34.4979 47.8101 34.1592 47.3162 33.7384 46.8975C33.4542 46.6036 33.1466 46.3333 32.8186 46.0894C32.4377 45.8096 32.0341 45.5622 31.612 45.3496C29.6306 44.3506 27.3414 44.151 25.217 44.792C24.7667 44.9286 24.3286 45.1024 23.9072 45.3118C23.5421 45.4956 23.1926 45.7089 22.8622 45.9496C22.3768 46.2875 21.9587 46.7132 21.6295 47.2047C21.4068 47.5688 21.3602 47.8352 21.4737 47.9648C21.7153 48.2371 22.5027 47.8993 23.6874 47.5426C24.8721 47.1858 26.4876 46.8364 28.2486 46.9878Z" fill="#D7AD8C"/>
<path d="M20.1484 47.4338C21.2849 46.4433 22.6093 45.6922 24.0424 45.2252C25.4755 44.7583 26.9879 44.5851 28.4894 44.7159C29.9909 44.8468 31.4506 45.2791 32.7814 45.987C34.1122 46.6949 35.2868 47.6638 36.2349 48.836" stroke="#42565E" stroke-width="1.4554" stroke-miterlimit="10" stroke-linecap="square"/>
<path d="M36.27 53.3163C34.3489 52.1863 32.3972 51.0637 30.265 50.4157C28.1329 49.7677 25.7766 49.625 23.707 50.4492" stroke="#42565E" stroke-width="1.16432" stroke-miterlimit="10"/>
<path d="M34.4057 52.8299C33.579 54.7491 31.3726 56.3144 29.239 56.1411C26.0255 55.882 26.2831 51.8995 24.3125 50.3167" stroke="#42565E" stroke-width="1.16432" stroke-miterlimit="10" stroke-linecap="round"/>
<path d="M26.9934 57.2583C27.3171 57.4207 27.6541 57.5551 28.0006 57.6602C28.1621 57.7025 28.3149 57.7491 28.4619 57.7738C28.6089 57.7986 28.7443 57.8277 28.8709 57.8452C29.3759 57.9136 29.699 57.9092 29.7063 57.9675C29.7136 58.0257 29.3919 58.1131 28.852 58.1131C28.706 58.113 28.5601 58.1032 28.4154 58.084C28.2474 58.0644 28.0808 58.0352 27.9162 57.9966C27.1578 57.8164 26.4546 57.4546 25.867 56.9424C25.74 56.8309 25.6195 56.7123 25.506 56.5871C25.4055 56.4803 25.3122 56.3669 25.2266 56.2478C24.9093 55.811 24.8045 55.4906 24.8438 55.4717C24.8831 55.4528 25.0796 55.709 25.426 56.0803C25.5147 56.1721 25.6093 56.2726 25.717 56.3716C25.8247 56.4706 25.9499 56.574 26.078 56.6803C26.3662 56.8986 26.6725 57.0919 26.9934 57.2583V57.2583Z" fill="#DCB79B"/>
<path d="M32.7198 57.3335C33.3995 57.054 33.8987 56.7033 33.97 56.7833C34.002 56.8212 33.9162 56.9623 33.724 57.1384C33.2085 57.5904 32.5595 57.8617 31.8757 57.9113C31.6152 57.9244 31.4536 57.8865 31.4493 57.837C31.4434 57.7308 32.0431 57.6202 32.7198 57.3335Z" fill="#DCB79B"/>
<path d="M17.5697 68.6858C19.7659 79.7975 27.6396 86.6122 36.5321 92.6565C37.8186 93.5302 39.1969 94.4374 40.7527 94.4985C42.2794 94.5582 43.7043 93.7923 45.0141 93.0045C52.1601 88.7032 58.7356 82.7287 61.5212 74.8642C63.4132 69.5085 63.4249 63.6942 63.4132 58.0124C63.4001 52.916 63.2677 47.4206 60.2201 43.3289C58.2015 40.6147 54.9807 38.6358 54.0827 35.3726C53.4059 32.9103 54.0827 29.8219 51.6216 28.3833C51.2045 28.1482 50.7509 27.9848 50.2797 27.8998C46.2701 27.1106 42.2751 30.0534 38.3586 29.1055C36.6732 28.6978 35.2178 27.6042 33.5383 27.1747C31.3552 26.6155 28.9742 27.2664 27.1055 28.5362C25.2367 29.8059 23.8192 31.6421 22.652 33.5758C18.5623 40.3497 17.267 48.4195 16.4913 56.2913V56.3539C16.1948 59.3912 16.3458 62.4555 16.9395 65.4489L17.5697 68.6858Z" stroke="#42565E" stroke-width="1.4554" stroke-miterlimit="10" stroke-linecap="round"/>
<path d="M59.7578 14.1367C62.7545 14.8269 64.8866 17.4858 66.3071 20.2131C68.283 24.0143 69.3521 28.2218 69.4304 32.5057C69.4436 33.9262 69.3819 35.3465 69.2455 36.7605C68.643 43.5752 67.5791 50.5398 63.4036 55.958" stroke="#42565E" stroke-width="1.4554" stroke-miterlimit="10" stroke-linecap="round"/>
<path d="M63.1445 68.8314C64.3205 69.1036 65.5867 68.7615 66.5836 68.08C67.5806 67.3985 68.3301 66.4069 68.9123 65.3439C71.3937 60.7455 70.3953 54.5337 66.5982 50.9458" stroke="#42565E" stroke-width="1.4554" stroke-miterlimit="10" stroke-linecap="round"/>
<path d="M40.2617 58.8462V71.3688H44.6279L40.2617 58.8462Z" fill="#F0D7C2"/>
<path d="M40.2859 59.5034L40.1068 69.986L40.0938 70.7141" stroke="#42565E" stroke-width="1.4554" stroke-miterlimit="10" stroke-linecap="square"/>
<path d="M53.3273 38.6518C53.6751 38.9926 54.055 39.3027 54.3999 39.6041C54.7208 39.8753 55.0237 40.1671 55.3066 40.4778C55.5073 40.6958 55.6763 40.9409 55.8087 41.2059C55.8946 41.4039 55.9092 41.5335 55.8495 41.5815C55.7898 41.6296 55.6632 41.5961 55.49 41.5C55.3168 41.4039 55.0839 41.2612 54.7943 41.0836C54.5047 40.9059 54.1627 40.6904 53.7755 40.4327C53.3372 40.1461 52.9256 39.8205 52.5457 39.46C52.141 39.0729 51.8126 38.613 51.5779 38.1043C51.3897 37.6907 51.2763 37.247 51.2432 36.7938C51.218 36.4921 51.2471 36.1883 51.329 35.8968C51.3945 35.6915 51.4746 35.5867 51.5546 35.5925C51.7147 35.6042 51.7962 36.0294 52.016 36.6395C52.1418 36.9855 52.3007 37.3185 52.4904 37.634C52.7253 38.0073 53.0065 38.3493 53.3273 38.6518V38.6518Z" fill="white"/>
<path d="M51.5542 34.4099C51.8612 34.3873 52.086 34.0415 52.0563 33.6375C52.0265 33.2334 51.7536 32.9242 51.4465 32.9469C51.1395 32.9695 50.9147 33.3153 50.9444 33.7193C50.9742 34.1234 51.2472 34.4325 51.5542 34.4099Z" fill="white"/>
<path d="M9.9071 67.8147C9.89692 63.3386 9.64804 59.7012 9.96532 59.6605C10.1109 59.6415 10.3714 60.5341 10.5999 62.0077C10.7148 62.7445 10.8167 63.6255 10.891 64.6084C10.9652 65.5912 11.0132 66.6731 11.019 67.8118C11.0248 68.9505 10.9826 70.0324 10.9157 71.0153C10.8487 71.9982 10.7512 72.8806 10.6421 73.6174C10.4252 75.0924 10.1749 75.9879 10.0264 75.9705C9.71208 75.9312 9.9333 72.2909 9.9071 67.8147Z" fill="#485D63"/>
<path d="M16.6586 38.9096C16.8383 38.3073 17.1029 37.7336 17.4445 37.206C17.7196 36.8026 17.9699 36.5959 18.1082 36.6599C18.3891 36.7939 18.13 37.918 17.7225 39.2416C17.315 40.5652 16.8871 41.6355 16.5785 41.5875C16.433 41.5612 16.3384 41.2496 16.3399 40.7618C16.3575 40.1324 16.4648 39.5087 16.6586 38.9096V38.9096Z" fill="#485D63"/>
<path d="M11.6629 58.8364C11.0808 54.9209 10.6602 51.7276 10.9658 51.6636C11.2714 51.5995 12.1738 54.7214 12.7647 58.6704C13.3555 62.6194 13.4079 65.8695 13.1067 65.8972C12.8054 65.9248 12.2553 62.7505 11.6629 58.8364Z" fill="#485D63"/>
<path d="M62.5579 18.8865C62.7534 19.5057 62.9032 20.1384 63.0062 20.7795C63.0469 21.0707 63.0877 21.3619 63.1037 21.6255C63.1197 21.889 63.1343 22.1395 63.1357 22.3652C63.1357 23.2723 63.0178 23.8213 62.9218 23.8213C62.6991 23.8213 62.6729 21.6255 61.8506 19.1064C61.056 16.5858 59.8043 14.7861 59.9819 14.6536C60.0576 14.5953 60.4767 14.9739 61.0006 15.7136C61.1316 15.8985 61.2699 16.1039 61.4038 16.3339C61.5377 16.564 61.6774 16.813 61.8157 17.078C62.1072 17.6618 62.3553 18.2662 62.5579 18.8865V18.8865Z" fill="#485D63"/>
<path d="M63.7538 18.6528C64.0473 19.2419 64.2907 19.8547 64.4815 20.4846C64.5615 20.7758 64.6401 21.054 64.6896 21.319C64.7158 21.4515 64.7449 21.5782 64.7623 21.7005L64.8104 22.0558C64.9181 22.9658 64.8468 23.5308 64.7522 23.5366C64.6576 23.5425 64.5266 23.0022 64.2952 22.1577L64.2035 21.8272C64.1715 21.7121 64.1292 21.5956 64.0929 21.4719C64.0215 21.2258 63.9255 20.9695 63.8324 20.6972C63.4062 19.5264 62.8424 18.4104 62.1528 17.3729C61.9898 17.137 61.8414 16.9069 61.6842 16.7031C61.607 16.5997 61.5386 16.4977 61.4644 16.4031L61.2534 16.1352C60.712 15.4479 60.3438 15.0329 60.4151 14.9484C60.4864 14.864 60.9725 15.1537 61.6405 15.7799L61.8981 16.0303C61.9869 16.1177 62.0713 16.2167 62.1616 16.3216C62.3464 16.5181 62.5225 16.7453 62.7102 16.9841C63.1042 17.5101 63.4533 18.0683 63.7538 18.6528Z" fill="#485D63"/>
<path d="M64.0578 49.4373C64.0084 47.2006 63.4902 45.4256 63.6969 45.3528C63.7886 45.3208 64.0418 45.73 64.2922 46.458C64.4358 46.8861 64.5482 47.3241 64.6284 47.7685C64.8268 48.8593 64.8573 49.974 64.7186 51.0739C64.6625 51.5215 64.574 51.9643 64.4537 52.399C64.2441 53.1402 64.0171 53.5639 63.9196 53.5348C63.7115 53.4736 64.1306 51.6739 64.0578 49.4373Z" fill="#485D63"/>
<path d="M63.4805 58.3965C64.052 58.4226 64.6112 58.5714 65.1202 58.8328C65.6291 59.0942 66.0759 59.4622 66.4301 59.9116C66.7844 60.3611 67.0378 60.8816 67.1733 61.4377C67.3087 61.9938 67.3229 62.5726 67.215 63.1347" stroke="#42565E" stroke-width="1.4554" stroke-miterlimit="10"/>
<path d="M27.1641 52.1148C27.1641 52.7296 27.4082 53.3193 27.8427 53.754C28.2772 54.1887 28.8665 54.433 29.4811 54.433C30.0956 54.433 30.6849 54.1887 31.1194 53.754C31.5539 53.3193 31.798 52.7296 31.798 52.1148C31.798 50.8349 30.7603 50.0879 29.4811 50.0879C28.2018 50.0879 27.1641 50.8334 27.1641 52.1148Z" fill="#325560"/>
<path d="M30.3678 53.2414C30.5687 53.2414 30.7316 53.0785 30.7316 52.8775C30.7316 52.6766 30.5687 52.5137 30.3678 52.5137C30.1668 52.5137 30.0039 52.6766 30.0039 52.8775C30.0039 53.0785 30.1668 53.2414 30.3678 53.2414Z" fill="white"/>
<path d="M53.3449 52.1148C53.3449 52.7296 53.1008 53.3193 52.6663 53.754C52.2318 54.1887 51.6424 54.433 51.0279 54.433C50.4134 54.433 49.8241 54.1887 49.3896 53.754C48.955 53.3193 48.7109 52.7296 48.7109 52.1148C48.7109 50.8349 49.7486 50.0879 51.0279 50.0879C52.3072 50.0879 53.3449 50.8334 53.3449 52.1148Z" fill="#325560"/>
<path d="M50.1334 53.2414C50.3343 53.2414 50.4972 53.0785 50.4972 52.8775C50.4972 52.6766 50.3343 52.5137 50.1334 52.5137C49.9324 52.5137 49.7695 52.6766 49.7695 52.8775C49.7695 53.0785 49.9324 53.2414 50.1334 53.2414Z" fill="white"/>
<path d="M46.0839 89.7905C47.0082 89.7905 47.7576 89.0408 47.7576 88.116C47.7576 87.1911 47.0082 86.4414 46.0839 86.4414C45.1595 86.4414 44.4102 87.1911 44.4102 88.116C44.4102 89.0408 45.1595 89.7905 46.0839 89.7905Z" fill="#F0D7C2"/>
<path d="M48.7797 77.5593C48.5643 78.0223 48.0811 78.2961 47.6037 78.4781C45.7117 79.2062 43.8896 78.8247 42.2391 77.7501C41.59 78.3092 40.9031 78.5684 40.1914 78.5203L40.2496 77.67C40.7983 77.7064 41.3514 77.4515 41.8942 76.9084L42.1445 76.658L42.4356 76.8574C43.5374 77.6132 47.7551 76.7934 48.6298 76.6856" fill="#D7AD8C"/>
<path d="M30.8684 76.8358C30.3648 76.4135 30.033 76.1077 30.0039 76.1077L30.4405 75.6709C31.3138 75.7801 37.0058 77.6177 38.1075 76.862L38.3986 76.6625L38.649 76.913C39.1918 77.4561 39.7449 77.7109 40.2936 77.6745L40.3518 78.5249C39.6415 78.573 38.9531 78.3152 38.304 77.7546C38.0217 77.9381 37.4861 78.1157 36.8486 78.2686C35.8093 78.5142 34.7268 78.5125 33.6882 78.2636C32.6497 78.0148 31.6839 77.5258 30.8684 76.8358V76.8358Z" fill="#D7AD8C"/>
<path d="M39.9062 77.2059C40.4782 77.2452 41.1579 77.0444 41.8812 76.321C41.8812 76.321 42.117 76.4826 42.4867 76.7111C43.4062 77.2764 44.4893 77.5155 45.5613 77.3898C46.6333 77.2641 47.6318 76.781 48.3956 76.0183V76.0183" stroke="#42565E" stroke-width="1.4554" stroke-miterlimit="10"/>
<path d="M40.0101 77.2072C39.4381 77.2465 38.7584 77.0456 38.0351 76.3219L38.0206 76.3321C36.9802 77.036 35.7272 77.3553 34.477 77.2352C33.2268 77.115 32.0575 76.563 31.17 75.6739L30.6562 75.1599" stroke="#42565E" stroke-width="1.4554" stroke-miterlimit="10"/>
<path d="M57.224 8.07782C53.7415 7.06141 50.191 6.29452 46.5996 5.78297C43.3366 5.33157 39.9834 5.13354 36.7742 5.87179C33.6131 6.59985 30.5801 8.33264 28.8249 11.0556C29.1706 10.5066 29.4073 9.89597 29.522 9.25728C29.538 9.16991 29.5526 9.08254 29.5627 8.99518C28.1243 9.39681 26.7896 10.1044 25.6497 11.0697C24.5098 12.035 23.5917 13.2352 22.9582 14.5881C23.2498 13.914 23.4457 13.2023 23.5403 12.4739C23.5924 12.0776 23.6134 11.6779 23.6029 11.2784C20.675 12.7292 18.347 15.1598 17.023 18.1484C16.9284 18.361 16.8397 18.5852 16.7582 18.7963C16.744 18.7858 16.7283 18.7775 16.7116 18.7716C16.4423 18.6784 16.1775 18.9085 15.997 19.1283C15.0568 20.2636 14.4278 21.624 14.1719 23.0759L14.1632 21.6387L14.089 21.7028C12.9345 22.7061 12.035 23.9696 11.4646 25.3892C10.8942 26.8087 10.6693 28.3436 10.8085 29.8672C10.7474 29.576 10.6858 29.2848 10.6237 28.9936C10.5684 29.0882 10.5145 29.1829 10.4607 29.2848C9.0487 31.855 8.56309 34.8328 9.08532 37.7187C8.87515 37.1946 8.58499 36.7063 8.22518 36.2713C8.12767 36.1533 8.02434 36.0383 7.91664 35.9291C7.0319 38.3025 7.02158 40.9138 7.88753 43.2941C7.75664 43.1177 7.59187 42.9692 7.40288 42.8573C7.3631 42.834 7.32235 42.8122 7.28063 42.7918C7.20786 45.0808 7.24279 47.3742 7.38396 49.6589C7.15595 49.4133 6.93133 49.1633 6.71011 48.909C6.40739 47.6946 6.1003 46.4787 5.81068 45.2614C5.86162 46.2151 5.94458 47.1674 6.045 48.1168C5.98678 48.0484 5.93148 47.9712 5.87763 47.9086C5.77866 46.9519 5.70007 45.9938 5.65204 45.0328C5.62293 44.4416 5.60741 43.8499 5.60547 43.2577C5.61061 41.5535 5.72387 39.8512 5.94458 38.1613C6.21675 36.0718 6.64881 34.0063 7.23697 31.983C8.76495 26.6441 11.3841 21.6808 14.9287 17.4072C16.9377 14.9979 19.2569 12.8655 21.8259 11.0658C23.2187 10.0945 24.6246 9.17282 26.0465 8.31225C26.2066 8.11131 26.374 7.91328 26.5457 7.72107C29.602 5.90237 32.7137 4.40548 35.8384 3.42405C35.5153 3.6182 35.199 3.81963 34.8895 4.02834C41.1361 1.86454 47.4641 1.67379 53.6335 5.05054C54.1268 5.32203 54.5996 5.62912 55.0482 5.96935C55.8577 6.58208 56.5907 7.28998 57.2313 8.07782H57.224Z" fill="#F9D7A5"/>
<path d="M52.5504 28.4659C55.1963 27.9738 56.9588 25.4459 57.9863 22.9574C58.8823 20.7801 59.446 18.4805 59.6586 16.1355C59.8219 14.3149 59.5812 12.4807 58.9537 10.764C58.3262 9.04728 57.3275 7.49044 56.0288 6.20473V6.20473C55.2327 5.40603 54.3283 4.72323 53.3422 4.17635C42.8109 -1.58989 31.811 3.03038 21.5374 10.196C10.7282 17.7372 4.71448 31.2792 5.36213 44.4513C5.53824 48.042 6.16551 51.5935 6.52645 55.1712C6.96307 59.6488 6.98345 64.1555 6.998 68.6549C7.0111 72.8325 7.0242 77.016 6.70692 81.1776C6.38964 85.3392 5.38979 90.0526 1.80078 92.2121C4.00425 93.5022 6.42457 94.5914 8.97443 94.5826C13.6593 94.5666 17.6937 90.6875 19.1142 86.2201C20.5346 81.7527 19.804 76.8762 18.4432 72.387" stroke="#42565E" stroke-width="1.4554" stroke-miterlimit="10" stroke-linecap="round"/>
<path d="M7.0844 40.6756C7.55886 41.9715 8.0275 43.151 8.32294 44.0247C8.61839 44.8984 8.74501 45.4808 8.60383 45.542C8.46266 45.6031 8.09153 45.1546 7.60834 44.3567C6.98431 43.3083 6.46 42.2036 6.04234 41.0571C5.80675 40.4193 5.6123 39.7671 5.46018 39.1044C5.39905 38.7957 5.33938 38.5045 5.30591 38.2308C5.28844 38.0852 5.26807 37.9585 5.25642 37.8289L5.23022 37.4561C5.17929 36.5023 5.30591 35.9141 5.4529 35.9082C5.5999 35.9024 5.76727 36.4587 6.00886 37.3294L6.10346 37.6716L6.21262 38.04C6.28248 38.2948 6.37126 38.5642 6.45567 38.8482C6.64196 39.4073 6.85008 40.0276 7.0844 40.6756Z" fill="#485D63"/>
<path d="M8.25936 35.0025C8.45293 35.499 8.65668 35.9635 8.85025 36.3858C8.95213 36.594 9.04236 36.7964 9.14133 36.9799C9.2403 37.1633 9.32034 37.3395 9.40039 37.4997C9.72058 38.1375 9.91705 38.5598 9.79626 38.6646C9.67546 38.7695 9.26795 38.519 8.75128 37.9497C8.61078 37.7962 8.47863 37.6353 8.35542 37.4677C8.20988 37.29 8.08762 37.0891 7.95082 36.8765C7.37379 35.9386 6.97556 34.9018 6.77631 33.8186C6.73556 33.5696 6.69626 33.3323 6.68025 33.108C6.65987 32.9009 6.65064 32.6929 6.6526 32.4848C6.6526 31.7204 6.79814 31.2559 6.94368 31.2544C7.08922 31.2529 7.23476 31.6912 7.42978 32.3843C7.47781 32.5562 7.52584 32.744 7.58551 32.9435C7.64518 33.143 7.70631 33.3556 7.77035 33.5784C7.91006 34.0225 8.07016 34.5045 8.25936 35.0025Z" fill="#485D63"/>
<path d="M10.4791 27.5385C10.5722 28.0578 10.6956 28.5712 10.8488 29.0761C10.9274 29.3062 10.9943 29.5319 11.0744 29.7343C11.1137 29.8362 11.1457 29.9382 11.1835 30.0255L11.2941 30.2978C11.5852 30.9938 11.7861 31.4409 11.6594 31.5443C11.5998 31.5923 11.4688 31.5443 11.281 31.3986C11.2335 31.3637 11.185 31.3229 11.1355 31.2763C11.0831 31.2297 11.0307 31.1744 10.9739 31.1147C10.8428 30.9843 10.7212 30.8447 10.6101 30.6968L10.4209 30.4318C10.3569 30.3386 10.3001 30.2352 10.2375 30.1304C10.1067 29.9059 9.98905 29.674 9.88531 29.4358C9.40942 28.3356 9.20621 27.1367 9.29296 25.9411C9.3111 25.6802 9.34463 25.4205 9.39338 25.1635C9.41812 25.0441 9.43704 24.9291 9.46615 24.8199L9.55784 24.5083C9.61356 24.3338 9.68165 24.1634 9.7616 23.9986C9.79507 23.9244 9.82709 23.853 9.86056 23.7933C9.89404 23.7336 9.93042 23.6768 9.9639 23.6273C10.0949 23.4322 10.2011 23.3361 10.2739 23.3667C10.4267 23.422 10.3787 23.9127 10.3394 24.6641L10.3248 24.9553C10.3248 25.0572 10.3248 25.1635 10.3248 25.2727C10.3146 25.4912 10.3248 25.7241 10.3248 25.9673C10.3456 26.4936 10.3971 27.0182 10.4791 27.5385V27.5385Z" fill="#485D63"/>
<path d="M13.3231 19.9569C13.3977 19.3009 13.5321 18.6532 13.7248 18.0217C13.8208 17.7305 13.9111 17.4596 14.0159 17.2121C14.0697 17.0883 14.1163 16.9675 14.1716 16.8554L14.3346 16.535C14.7712 15.7254 15.1758 15.3148 15.3024 15.3861C15.4291 15.4575 15.2908 15.9977 15.0667 16.8277L14.9779 17.1524C14.9473 17.2645 14.9226 17.3839 14.8906 17.5062C14.8251 17.748 14.7741 18.0115 14.7115 18.2838C14.6009 18.8342 14.4961 19.4385 14.4205 20.0792C14.3448 20.7199 14.3259 21.3344 14.3157 21.895C14.3157 22.1746 14.3157 22.4425 14.3244 22.693C14.3244 22.8182 14.3244 22.9405 14.3331 23.057L14.3491 23.3933C14.3914 24.2525 14.4263 24.8058 14.2706 24.8495C14.1148 24.8932 13.8223 24.4039 13.5705 23.52L13.4788 23.172C13.4483 23.0497 13.4279 22.9216 13.4031 22.7891C13.3493 22.524 13.3187 22.2372 13.2867 21.9343C13.2385 21.2754 13.2506 20.6135 13.3231 19.9569Z" fill="#485D63"/>
<path d="M16.914 15.4225C17.214 14.7734 17.5771 14.1554 17.9982 13.5775C18.1835 13.3275 18.3812 13.0869 18.5906 12.8568C18.6895 12.749 18.7812 12.6427 18.8817 12.5495L19.1727 12.2831C19.3361 12.1313 19.5086 11.9898 19.6894 11.8593C19.768 11.8011 19.8349 11.7472 19.9135 11.7006C19.9921 11.654 20.0591 11.6176 20.1158 11.5841C20.3632 11.4516 20.5204 11.4079 20.5699 11.4676C20.6747 11.5929 20.3036 12.0603 19.7593 12.8102L19.5468 13.1014C19.4725 13.2033 19.4012 13.3154 19.327 13.4261C19.1698 13.646 19.0228 13.895 18.8598 14.1542C18.5226 14.7145 18.2156 15.2924 17.94 15.8855C17.6742 16.4832 17.4406 17.0947 17.24 17.7173C17.1556 18.0085 17.0653 18.2823 17.0027 18.5444C16.9693 18.6754 16.93 18.8007 16.9023 18.923L16.8208 19.2768C16.6127 20.1796 16.505 20.7679 16.342 20.7708C16.2649 20.7708 16.1965 20.6252 16.131 20.3514C16.1154 20.2835 16.1004 20.2073 16.0858 20.1228C16.0727 20.0398 16.0669 19.9481 16.0582 19.8505C16.0376 19.6284 16.0308 19.4052 16.0378 19.1822L16.0524 18.7934C16.0524 18.658 16.0786 18.5182 16.0946 18.374C16.125 18.0627 16.1711 17.7531 16.2328 17.4465C16.3931 16.7511 16.6212 16.0732 16.914 15.4225V15.4225Z" fill="#485D63"/>
<path d="M22.7782 11.579C23.0837 10.8871 23.4418 10.2197 23.8493 9.58263C24.0429 9.29141 24.2277 9.01766 24.4199 8.77448C24.5145 8.65217 24.6032 8.53277 24.6964 8.4221L24.9613 8.10758C25.6671 7.32418 26.2144 6.95433 26.3221 7.05335C26.5637 7.27468 24.9889 9.23753 23.7911 12.026C22.5613 14.8028 22.1902 17.2899 21.8685 17.268C21.723 17.2564 21.6226 16.6041 21.7157 15.5527L21.7594 15.1421C21.7769 14.9965 21.8045 14.8509 21.8292 14.7053C21.8758 14.398 21.953 14.0762 22.033 13.7369C22.2255 12.9995 22.4747 12.278 22.7782 11.579V11.579Z" fill="#485D63"/>
<path d="M29.8611 6.96128C30.4986 6.21499 31.1929 5.5193 31.938 4.88048C32.2872 4.58925 32.6176 4.31987 32.948 4.09126C33.1125 3.97477 33.2667 3.85828 33.4225 3.75781L33.8751 3.46658C34.1662 3.28165 34.4369 3.14187 34.677 3.01664C34.7978 2.95548 34.9084 2.89724 35.0147 2.84919C35.1209 2.80113 35.2199 2.76327 35.3057 2.72833C35.6638 2.59145 35.8777 2.54922 35.9155 2.61621C35.997 2.76182 35.3334 3.26418 34.3321 4.10728L33.9391 4.43927C33.8023 4.55431 33.667 4.68244 33.5229 4.80913C33.2318 5.05812 32.9407 5.34644 32.6234 5.63912C32.0078 6.2405 31.3529 6.92342 30.7096 7.67769C30.0663 8.43196 29.5089 9.19642 29.0184 9.9041C28.7827 10.2638 28.5469 10.6001 28.3504 10.9234C28.25 11.0865 28.1452 11.2408 28.0593 11.3952L27.7988 11.832C27.1351 12.9634 26.748 13.6988 26.5937 13.642C26.521 13.6158 26.5282 13.3973 26.6039 13.0217C26.6224 12.9246 26.6456 12.8207 26.6738 12.71C26.7029 12.5979 26.7422 12.4785 26.7829 12.3489C26.8674 12.0927 26.959 11.7956 27.0929 11.484L27.2923 11.0122C27.3666 10.8404 27.4553 10.6686 27.5427 10.488C27.7129 10.124 27.9283 9.75266 28.1525 9.35951C28.6591 8.51704 29.2303 7.71522 29.8611 6.96128V6.96128Z" fill="#485D63"/>
<path d="M59.2991 27.6666C59.8046 28.3218 60.1567 29.0821 60.3295 29.8915C60.4503 30.5118 60.3936 30.9108 60.2975 30.9108C60.2015 30.9108 60.0617 30.573 59.8274 30.0371C59.5321 29.3518 59.1569 28.7037 58.7097 28.1063C58.4622 27.7853 58.1912 27.483 57.899 27.2021C57.6663 26.9695 57.4146 26.7566 57.1466 26.5657C56.6983 26.2498 56.3418 26.1959 56.3359 26.0881C56.3359 26.0386 56.4291 25.9818 56.6168 25.9629C56.8811 25.948 57.1452 25.9949 57.3882 26.0998C57.7356 26.2458 58.0597 26.4421 58.3502 26.6822C58.7053 26.9705 59.024 27.3011 59.2991 27.6666Z" fill="#485D63"/>
<path d="M62.4894 33.155C62.0295 28.7866 61.1592 25.321 61.3731 25.2613C61.4663 25.2351 61.8097 26.0724 62.1925 27.479C62.3861 28.1809 62.5825 29.0269 62.7659 29.9734C62.9493 30.9198 63.1065 31.9682 63.2287 33.0749C63.351 34.1815 63.4107 35.2402 63.4398 36.2041C63.4689 37.1681 63.4514 38.0359 63.4121 38.764C63.3364 40.2201 63.1836 41.1112 63.0861 41.1054C62.8634 41.0923 62.9726 37.5175 62.4894 33.155Z" fill="#485D63"/>
<path d="M55.7972 22.1524C56.5603 20.6002 57.0586 18.9313 57.2715 17.2147C57.4531 15.8031 57.4678 14.3749 57.3152 12.9599C57.0503 10.5296 56.4245 9.10408 56.5875 9.02836C56.6515 8.99778 56.8931 9.31959 57.2002 9.95882C57.3821 10.3516 57.5396 10.7552 57.6718 11.1674C57.8506 11.714 57.9925 12.272 58.0967 12.8376C58.372 14.3184 58.4372 15.8307 58.2903 17.3297C58.1241 19.1804 57.6184 20.9846 56.7985 22.6518C56.1417 23.976 55.2547 25.1727 54.1788 26.1859L53.4657 26.8528L53.291 25.9019C53.0552 24.6162 52.572 23.4265 52.1602 22.3577L51.8574 21.5699C51.7614 21.3108 51.6726 21.0851 51.5751 20.8594C51.3967 20.4481 51.191 20.0492 50.9595 19.6653C50.6282 19.1179 50.2378 18.6086 49.7952 18.1466C49.4822 17.819 49.2974 17.6442 49.3323 17.5875C49.3673 17.5307 49.6147 17.6137 50.0207 17.8787C50.594 18.2628 51.0975 18.7419 51.5096 19.2955C51.8034 19.6817 52.0653 20.0913 52.2926 20.5201C52.4134 20.7487 52.5371 21.0064 52.6463 21.2481L52.997 22.0112C53.2372 22.5383 53.4919 23.1032 53.7247 23.7148C53.9828 24.3616 54.1863 25.0289 54.3331 25.7097L53.4453 25.4185C54.4033 24.4664 55.1979 23.363 55.7972 22.1524V22.1524Z" fill="#AA9777"/>
<path d="M52.1254 26.0124C52.2564 26.9312 51.9697 26.9778 51.9799 27.9053C51.7965 27.6374 49.6236 24.7441 49.4344 24.4805C48.0867 22.605 46.4872 20.7456 44.323 19.9593L44.1979 19.9141C42.9651 19.4918 41.6436 19.4554 40.3367 19.5719L40.0456 19.5996C39.7633 19.6302 39.4809 19.6666 39.2015 19.7073C36.0159 20.1697 32.9251 21.1406 30.0471 22.5832C28.9526 23.1307 27.864 23.7787 27.0664 24.6931C28.1592 23.1569 29.5094 21.8214 31.0571 20.7456C33.6332 18.9647 36.8248 17.6877 40.0456 17.3441L40.3367 17.3149C41.7595 17.1806 43.1942 17.2557 44.5952 17.5377C47.7971 18.2032 49.6294 20.2126 50.7457 22.7594C50.4342 22.6618 52.45 26.0852 52.1254 26.0124Z" fill="#9E8863"/>
<path d="M24.2539 31.2182C25.4182 26.9474 27.7017 23.1177 31.3446 20.6001C35.1446 17.9791 40.2836 16.4371 44.8798 17.3966C50.2051 18.5018 51.7347 23.3245 52.5061 28.1501" stroke="#42565E" stroke-width="1.4554" stroke-miterlimit="10"/>
<path d="M31.7674 22.2832C33.0026 21.9343 34.2783 21.7492 35.5616 21.7328C36.5353 21.7211 37.1378 21.8056 37.1538 21.957C37.1699 22.1084 36.5906 22.305 35.6548 22.5162C34.719 22.7273 33.4339 22.9603 32.0803 23.3534C30.9296 23.6813 29.8231 24.1483 28.7853 24.744C27.9878 25.2042 27.5162 25.5696 27.394 25.4604C27.3387 25.4095 27.3823 25.2478 27.5395 25.0061C27.7594 24.6723 28.0239 24.37 28.3254 24.1077C28.769 23.7141 29.2575 23.3744 29.7808 23.0957C30.4129 22.7562 31.0787 22.4839 31.7674 22.2832V22.2832Z" fill="#485D63"/>
<path d="M45.3777 19.8603C45.7858 20.3824 46.1394 20.945 46.4329 21.5392C46.5584 21.7991 46.6701 22.0655 46.7676 22.3372C46.8128 22.4653 46.8593 22.5862 46.8943 22.707L46.9889 23.055C47.0413 23.2551 47.0807 23.4585 47.1067 23.6637C47.1184 23.754 47.1315 23.837 47.1358 23.9156C47.1402 23.9942 47.1358 24.0612 47.1358 24.1311C47.1358 24.3917 47.0936 24.5403 47.018 24.5563C46.8593 24.5898 46.6294 24.0874 46.2437 23.3273L46.0982 23.0361C46.0458 22.9327 45.9832 22.8293 45.925 22.7201C45.8114 22.4988 45.6703 22.2745 45.532 22.0343C44.9089 21.005 44.1599 20.0575 43.3023 19.2138C43.1 19.023 42.9152 18.8337 42.7202 18.6735C42.627 18.592 42.5412 18.5061 42.4524 18.4318L42.1977 18.2163C41.5471 17.6674 41.1105 17.3281 41.1789 17.181C41.2124 17.1111 41.3652 17.1082 41.6155 17.165C41.6796 17.1796 41.7494 17.1975 41.8251 17.2189C41.8993 17.2422 41.9779 17.2728 42.0638 17.3063C42.2573 17.3789 42.446 17.464 42.6285 17.5611L42.9458 17.7329C43.0549 17.7941 43.1626 17.8683 43.2761 17.9411C43.5178 18.0986 43.7509 18.2688 43.9747 18.4508C44.4894 18.8713 44.9595 19.3436 45.3777 19.8603V19.8603Z" fill="#485D63"/>
<path d="M9.30491 89.3366C10.1265 88.8966 10.9106 88.3901 11.6496 87.8222C11.9974 87.5674 12.303 87.2922 12.5941 87.049L13.0031 86.6719C13.0686 86.6107 13.1355 86.5539 13.1966 86.4942L13.38 86.3209C14.3144 85.3978 14.8354 84.744 14.981 84.8328C15.1003 84.9027 14.8063 85.7225 13.9709 86.8393L13.8137 87.049C13.757 87.1203 13.6958 87.1946 13.6347 87.263L13.2461 87.7115C12.955 88.0028 12.6567 88.3231 12.3016 88.6187C11.5439 89.2783 10.7138 89.8499 9.8274 90.3224C8.94034 90.7953 8.00106 91.1628 7.02867 91.4174L6.6983 91.5047C6.58914 91.5295 6.47853 91.5499 6.37229 91.5717C6.15689 91.611 5.95022 91.6591 5.74647 91.6853C5.3702 91.7407 4.99127 91.7762 4.61126 91.7916C4.43661 91.7916 4.27361 91.8047 4.11497 91.8061C3.91979 91.8148 3.72521 91.7789 3.54591 91.7013C3.45124 91.6548 3.36743 91.5888 3.29995 91.5076C3.25025 91.4467 3.20776 91.3803 3.17333 91.3096C3.11657 91.1931 3.08309 91.1028 3.05253 91.0417C3.03054 90.9915 2.99774 90.9467 2.95648 90.9106C2.92669 90.8828 2.89282 90.8597 2.85605 90.8422C2.79929 90.8116 2.73817 90.8276 2.71051 90.8029C2.68286 90.7781 2.69014 90.7679 2.70178 90.7315C2.72586 90.6798 2.76922 90.6396 2.82258 90.6194C2.92114 90.5885 3.02636 90.5858 3.12639 90.6115C3.22642 90.6372 3.31728 90.6904 3.38873 90.765C3.48042 90.8495 3.55028 90.9427 3.61868 91.0169C3.64652 91.049 3.67831 91.0773 3.71328 91.1014C3.73503 91.1155 3.76015 91.1235 3.78605 91.1247C3.87946 91.128 3.9729 91.1192 4.06403 91.0985L4.52394 91.0067C4.84703 90.9543 5.19487 90.8611 5.56891 90.7767C5.7552 90.733 5.9444 90.6704 6.14088 90.618L6.43196 90.5335L6.73323 90.4316C7.62016 90.1408 8.48053 89.7744 9.30491 89.3366V89.3366Z" fill="#485D63"/>
<path d="M14.0295 80.084C14.3415 79.7753 14.6378 79.4512 14.9173 79.1128C15.041 78.9526 15.1676 78.8041 15.2724 78.6556C15.3263 78.5813 15.383 78.51 15.4325 78.443L15.578 78.242C15.9419 77.7295 16.1806 77.3844 16.3349 77.4324C16.4891 77.4805 16.5008 77.9217 16.2839 78.5973L16.1922 78.858C16.1587 78.9483 16.1151 79.0371 16.0714 79.1317C15.9789 79.332 15.8744 79.5265 15.7585 79.7142C15.2208 80.5772 14.4803 81.2955 13.6016 81.8066C13.4106 81.9154 13.2133 82.0126 13.0107 82.0979C12.9147 82.1372 12.8244 82.1794 12.7342 82.21L12.4722 82.2944C11.7955 82.4895 11.3487 82.4502 11.3079 82.309C11.2672 82.1677 11.6165 81.926 12.1404 81.5809L12.3456 81.4455C12.4169 81.3989 12.4911 81.3436 12.5625 81.2926C12.708 81.1921 12.8666 81.0698 13.0311 80.9519C13.3782 80.6795 13.7115 80.3899 14.0295 80.084V80.084Z" fill="#485D63"/>
<path d="M14.2555 73.1122C14.6339 71.8351 14.8377 70.6105 15.0239 69.7194C15.2102 68.8282 15.3878 68.2633 15.5421 68.2822C15.6963 68.3011 15.7953 68.8646 15.8084 69.7966C15.8261 71.0272 15.6628 72.2538 15.3238 73.4369C15.1268 74.101 14.8518 74.7393 14.5044 75.3386C14.2178 75.8306 13.8674 76.2825 13.4623 76.6826C13.1934 76.9567 12.8848 77.1889 12.5469 77.3713C12.3024 77.4936 12.1423 77.5169 12.0971 77.4587C11.9996 77.3276 12.3882 76.9083 12.8539 76.1802C13.4664 75.2304 13.9385 74.1971 14.2555 73.1122Z" fill="#485D63"/>
<path d="M44.9795 3.67122C45.5182 3.78698 46.0482 3.93975 46.5659 4.12844C46.988 4.28292 47.398 4.46835 47.7928 4.68323C48.4667 5.05599 48.8218 5.3909 48.7577 5.52632C48.6122 5.81755 46.9007 5.20889 44.7481 4.76186C42.5956 4.31483 40.788 4.14883 40.7734 3.82994C40.7734 3.68433 41.2304 3.51978 41.9974 3.4528C42.4458 3.41669 42.8963 3.41377 43.3451 3.44407C43.8945 3.48214 44.4406 3.55804 44.9795 3.67122V3.67122Z" fill="white"/>
<path d="M52.4355 7.31718C52.8288 7.77396 53.1311 8.30184 53.3262 8.87232C53.4717 9.3179 53.4528 9.62805 53.316 9.69212C53.1792 9.75619 52.939 9.57709 52.6436 9.26693C52.3481 8.95678 51.9857 8.51557 51.5826 8.03651C51.1795 7.55745 50.8083 7.12498 50.5507 6.78133C50.2931 6.43769 50.1563 6.17413 50.2465 6.05327C50.3368 5.93241 50.641 5.97027 51.0557 6.18287C51.5836 6.46975 52.0518 6.85473 52.4355 7.31718V7.31718Z" fill="white"/>
<path d="M53.8291 81.4283C54.2045 81.041 54.5567 80.6624 54.8653 80.3144L55.6949 79.3737C56.1722 78.835 56.5026 78.5001 56.6423 78.5801C56.782 78.6602 56.6831 79.1262 56.3512 79.8106C56.1548 80.209 55.9271 80.5913 55.6701 80.9536C55.0405 81.8439 54.2754 82.63 53.4026 83.2834C53.0475 83.5502 52.6718 83.7883 52.2791 83.9955C51.6038 84.3449 51.1337 84.4483 51.058 84.3187C50.9823 84.1891 51.2996 83.8426 51.825 83.3504L52.7433 82.4957C53.0824 82.1709 53.4506 81.8069 53.8291 81.4283Z" fill="white"/>
<path d="M58.511 72.6754C58.802 71.2688 59.112 70.117 59.4235 70.1345C59.569 70.1461 59.6957 70.4577 59.7422 70.9586C59.8171 72.2611 59.5555 73.561 58.9825 74.7329C58.7453 75.1785 58.5139 75.4187 58.3698 75.3707C58.0744 75.2673 58.2315 74.0893 58.511 72.6754Z" fill="white"/>
</g>
<defs>
<clipPath id="clip0">
<rect width="70.6289" height="94.4776" fill="white" transform="translate(0.371094 0.847168)"/>
</clipPath>
</defs>
</svg>
