<svg width="96" height="107" viewBox="0 0 96 107" fill="none" xmlns="http://www.w3.org/2000/svg">
<g clip-path="url(#clip0)">
<path d="M84.3921 32.1229L87.1082 32.7877L93.9277 34.4573C94.1418 34.5097 94.3361 34.6199 94.4879 34.775C94.6398 34.9301 94.7429 35.1237 94.7854 35.3333C94.8279 35.543 94.8079 35.76 94.7278 35.9591C94.6476 36.1581 94.5107 36.3311 94.3329 36.4577L84.0939 43.7399C83.9595 43.8355 83.8479 43.9579 83.7667 44.0988C83.6854 44.2397 83.6363 44.3958 83.6228 44.5566C83.6093 44.7174 83.6316 44.8792 83.6883 45.0309C83.7449 45.1826 83.8346 45.3209 83.9513 45.4362L92.7657 54.1607C92.8894 54.2833 92.9825 54.4315 93.0381 54.5941C93.0937 54.7567 93.1102 54.9294 93.0864 55.0991C93.0627 55.2688 92.9993 55.431 92.901 55.5735C92.8028 55.716 92.6723 55.8349 92.5194 55.9213L82.6467 61.493C82.4024 61.631 82.2183 61.8503 82.1289 62.1099C82.0394 62.3695 82.0507 62.6518 82.1605 62.904L86.0337 71.7084C86.1123 71.8861 86.1423 72.0803 86.121 72.2724C86.0996 72.4646 86.0275 72.6482 85.9116 72.8056C85.7958 72.963 85.64 73.089 85.4593 73.1714C85.2787 73.2538 85.0791 73.2899 84.8799 73.2762L73.0316 71.9593L23.5771 72.4453L11.3545 73.2824C11.1553 73.2961 10.9557 73.26 10.775 73.1776C10.5944 73.0952 10.4386 72.9693 10.3228 72.8119C10.2069 72.6544 10.1348 72.4708 10.1134 72.2787C10.092 72.0866 10.1221 71.8924 10.2007 71.7147L14.0739 62.9103C14.1837 62.6581 14.195 62.3758 14.1055 62.1162C14.016 61.8566 13.832 61.6373 13.5877 61.4993L3.71661 55.926C3.56374 55.8396 3.43322 55.7207 3.33497 55.5782C3.23672 55.4357 3.17331 55.2735 3.14957 55.1038C3.12582 54.9341 3.14236 54.7614 3.19793 54.5988C3.2535 54.4362 3.34664 54.288 3.47028 54.1654L12.2848 45.4409C12.4021 45.3254 12.4924 45.1868 12.5494 45.0345C12.6065 44.8823 12.6289 44.7199 12.6152 44.5585C12.6015 44.397 12.552 44.2404 12.4701 44.0991C12.3882 43.9579 12.2758 43.8353 12.1405 43.7399L1.90315 36.4577C1.72535 36.3308 1.5885 36.1577 1.50858 35.9584C1.42866 35.7591 1.40896 35.542 1.45177 35.3323C1.49458 35.1226 1.59814 34.929 1.75037 34.7741C1.9026 34.6191 2.09722 34.5093 2.31154 34.4573L9.56052 32.6826L13.377 31.742L20.7508 29.9438L14.9685 16.8876C14.8801 16.6897 14.8522 16.4714 14.8881 16.2587C14.924 16.0459 15.0222 15.8476 15.1712 15.6872C15.3201 15.5268 15.5134 15.411 15.7283 15.3537C15.9431 15.2964 16.1704 15.2999 16.3833 15.3638L35.8127 21.1973L38.2615 2.25744C38.2937 2.00911 38.4104 1.77821 38.5932 1.60113C38.776 1.42406 39.0146 1.31088 39.2712 1.27944C39.5279 1.248 39.7881 1.30008 40.0108 1.42748C40.2335 1.55489 40.406 1.75036 40.5011 1.98308L47.8636 19.987" fill="#B0D7E9"/>
<path d="M80.1095 31.0741L75.4924 29.9438L81.2763 16.8892C81.364 16.6913 81.3913 16.4732 81.3549 16.2608C81.3186 16.0483 81.22 15.8504 81.071 15.6905C80.922 15.5305 80.7288 15.4151 80.5141 15.3581C80.2995 15.301 80.0725 15.3046 79.8599 15.3685L60.4304 21.2005L59.4435 13.5562L58.839 8.87488L57.9817 2.25744C57.9495 2.00911 57.8328 1.77821 57.65 1.60113C57.4671 1.42406 57.2286 1.31088 56.9719 1.27944C56.7153 1.248 56.4551 1.30008 56.2324 1.42748C56.0097 1.55489 55.8372 1.75036 55.742 1.98308L48.3812 19.9855L47.1836 20.4715" fill="#B0D7E9"/>
<path d="M38.1319 57.6927C38.1319 62.5004 38.0384 67.3082 37.8515 72.1159L23.8333 72.2539L11.6106 73.0958C11.4114 73.1093 11.2119 73.0731 11.0312 72.9907C10.8506 72.9083 10.6948 72.7824 10.5788 72.6251C10.4629 72.4677 10.3906 72.2842 10.369 72.0922C10.3473 71.9001 10.377 71.7058 10.4551 71.528L14.3284 62.722C14.4389 62.4699 14.4505 62.1874 14.361 61.9276C14.2715 61.6678 14.087 61.4486 13.8422 61.311L3.97109 55.7361C3.81791 55.6496 3.68713 55.5305 3.58869 55.3878C3.49026 55.245 3.42675 55.0825 3.403 54.9124C3.37925 54.7424 3.39589 54.5694 3.45164 54.4065C3.50739 54.2436 3.6008 54.0952 3.72476 53.9724L12.5392 45.2495C12.6558 45.1343 12.7455 44.9962 12.8021 44.8446C12.8588 44.693 12.8811 44.5314 12.8676 44.3707C12.8541 44.21 12.805 44.054 12.7238 43.9132C12.6425 43.7725 12.5309 43.6502 12.3966 43.5548L2.15439 36.2679C1.97656 36.1414 1.83956 35.9685 1.75934 35.7696C1.67912 35.5706 1.65898 35.3537 1.70126 35.1441C1.74354 34.9345 1.84651 34.7408 1.99817 34.5856C2.14984 34.4304 2.34395 34.3201 2.55792 34.2675L9.80852 32.4928L13.6267 31.56L21.0021 29.754L15.223 16.6962C15.1351 16.4982 15.1077 16.2799 15.1441 16.0672C15.1805 15.8546 15.2792 15.6565 15.4284 15.4965C15.5777 15.3364 15.7712 15.2211 15.9861 15.1642C16.2011 15.1073 16.4283 15.1113 16.641 15.1755L23.3843 17.201C23.0602 20.4698 23.3649 23.7746 24.5998 26.8176C25.1443 28.1564 25.8655 29.4404 26.2204 30.8388C26.9302 33.6874 26.0178 36.7006 24.5998 39.2874C23.1818 41.8742 21.2565 44.174 19.7299 46.7044C18.8612 48.1498 18.1093 49.7254 18.0704 51.3966C18.0315 53.0678 18.8807 54.8457 20.4608 55.5182C22.8739 56.5451 25.5009 54.6999 27.3597 52.8907C29.2185 51.0815 31.4874 49.0074 34.0609 49.5404C35.722 49.8806 36.978 51.2885 37.5485 52.8327C38.1189 54.3769 38.1319 56.0528 38.1319 57.6927Z" fill="#54B9D3"/>
<path d="M23.9542 71.7131C28.1833 71.7131 31.6116 68.3966 31.6116 64.3055C31.6116 60.2144 28.1833 56.8979 23.9542 56.8979C19.7252 56.8979 16.2969 60.2144 16.2969 64.3055C16.2969 68.3966 19.7252 71.7131 23.9542 71.7131Z" fill="#F2C7A5"/>
<g opacity="0.5">
<path opacity="0.5" d="M26.6202 70.9081C25.5737 71.327 24.4442 71.5161 23.313 71.4618C22.1818 71.4075 21.0771 71.1111 20.0786 70.5941C19.0801 70.077 18.2126 69.3521 17.5386 68.4715C16.8646 67.591 16.401 66.5769 16.181 65.5021C15.961 64.4273 15.9902 63.3187 16.2665 62.2562C16.5428 61.1937 17.0593 60.2037 17.7788 59.3575C18.4983 58.5114 19.4029 57.8302 20.4273 57.363C21.4517 56.8958 22.5706 56.6542 23.7031 56.6558C24.0686 56.6561 24.4336 56.6813 24.7954 56.731C23.245 57.3507 21.9477 58.4459 21.1032 59.8481C20.2587 61.2504 19.9135 62.8821 20.1208 64.4925C20.3281 66.103 21.0763 67.603 22.2506 68.7621C23.4248 69.9212 24.96 70.6751 26.6202 70.9081V70.9081Z" fill="#FFAC89"/>
</g>
<path d="M23.7082 71.7131C27.9372 71.7131 31.3655 68.3966 31.3655 64.3055C31.3655 60.2144 27.9372 56.8979 23.7082 56.8979C19.4791 56.8979 16.0508 60.2144 16.0508 64.3055C16.0508 68.3966 19.4791 71.7131 23.7082 71.7131Z" stroke="#274B5B" stroke-width="1.82532" stroke-miterlimit="10"/>
<path d="M71.6574 71.7131C75.8864 71.7131 79.3147 68.3966 79.3147 64.3055C79.3147 60.2144 75.8864 56.8979 71.6574 56.8979C67.4283 56.8979 64 60.2144 64 64.3055C64 68.3966 67.4283 71.7131 71.6574 71.7131Z" fill="#F2C7A5"/>
<g opacity="0.5">
<path opacity="0.5" d="M68.9808 70.9081C70.0273 71.327 71.1568 71.5161 72.288 71.4618C73.4192 71.4075 74.5238 71.1111 75.5224 70.5941C76.5209 70.077 77.3884 69.3521 78.0624 68.4715C78.7363 67.591 79.2 66.5769 79.42 65.5021C79.64 64.4273 79.6108 63.3187 79.3345 62.2562C79.0582 61.1937 78.5417 60.2037 77.8222 59.3575C77.1027 58.5114 76.1981 57.8302 75.1737 57.363C74.1492 56.8958 73.0304 56.6542 71.8979 56.6558C71.5324 56.6561 71.1674 56.6813 70.8056 56.731C72.3562 57.3513 73.6532 58.4471 74.4973 59.85C75.3414 61.2528 75.6858 62.8851 75.4776 64.4957C75.2694 66.1064 74.52 67.6063 73.3447 68.7648C72.1695 69.9233 70.6334 70.6764 68.9727 70.9081H68.9808Z" fill="#FFAC89"/>
</g>
<path d="M71.9035 71.7131C76.1325 71.7131 79.5608 68.3966 79.5608 64.3055C79.5608 60.2144 76.1325 56.8979 71.9035 56.8979C67.6744 56.8979 64.2461 60.2144 64.2461 64.3055C64.2461 68.3966 67.6744 71.7131 71.9035 71.7131Z" stroke="#274B5B" stroke-width="1.82532" stroke-miterlimit="10"/>
<path d="M28.7266 84.3446C28.2868 83.683 27.8698 82.9995 27.4755 82.294C24.7447 77.4042 23.1484 71.5048 23.1484 65.1539C23.1484 48.2552 34.4441 34.5547 48.3781 34.5547C62.312 34.5547 73.606 48.2568 73.606 65.1555C73.606 82.0542 62.3104 95.7547 48.3781 95.7547C41.9102 95.7547 36.0112 92.8026 31.5464 87.9504" fill="#F2C7A5"/>
<g opacity="0.5">
<path opacity="0.5" d="M51.0196 95.5875C50.1437 95.6976 49.2613 95.7526 48.3781 95.7522C41.9086 95.7522 36.0096 92.8017 31.5464 87.9464L28.7266 84.3406C28.2847 83.6779 27.8671 82.9939 27.4738 82.2884C24.7431 77.397 23.1484 71.4992 23.1484 65.1483C23.1484 48.248 34.4425 34.5491 48.3781 34.5491C49.2592 34.5487 50.1394 34.6037 51.0132 34.7137C38.3189 36.3112 28.4203 49.325 28.4203 65.1467C28.4203 71.4976 30.015 77.3955 32.7457 82.2868C33.14 82.9913 33.5576 83.6753 33.9984 84.339L36.8183 87.9448C40.6688 92.1354 45.5906 94.9056 51.0196 95.5875Z" fill="#EF997B"/>
</g>
<g opacity="0.5">
<path opacity="0.5" d="M45.4844 95.4311C46.3603 95.5412 47.2427 95.5962 48.126 95.5957C54.5938 95.5973 60.4928 92.6531 64.9576 87.7931L67.7774 84.1873C68.2193 83.5246 68.6369 82.8406 69.0302 82.1351C71.7609 77.2437 73.3556 71.3459 73.3556 64.995C73.3556 48.0947 62.0616 34.3958 48.126 34.3958C47.2448 34.3954 46.3646 34.4504 45.4909 34.5604C58.1851 36.1579 68.0837 49.1717 68.0837 64.9934C68.0837 71.3443 66.4891 77.2422 63.7583 82.1335C63.364 82.838 62.9464 83.522 62.5056 84.1857L59.6825 87.7931C55.8336 91.9789 50.9166 94.7491 45.4844 95.4311Z" fill="#FCDAC3"/>
</g>
<path d="M67.8243 46.1797C71.1336 51.3532 73.1042 57.8547 73.1042 64.9126C73.1042 81.8113 61.8086 95.5118 47.8746 95.5118C41.4068 95.5118 35.5077 92.5598 31.043 87.7076" stroke="#274B5B" stroke-width="1.82532" stroke-miterlimit="10"/>
<path d="M62.9688 40.3955C64.0121 41.3451 64.9792 42.3702 65.8615 43.462" stroke="#274B5B" stroke-width="1.82532" stroke-miterlimit="10"/>
<path d="M28.2227 84.1044C27.7829 83.4428 27.3659 82.7593 26.9716 82.0538C24.2408 77.164 22.6445 71.2646 22.6445 64.9137C22.6445 48.015 33.9402 34.3145 47.8741 34.3145C52.031 34.3145 55.9529 35.5342 59.4113 37.6929" stroke="#274B5B" stroke-width="1.82532" stroke-miterlimit="10"/>
<path d="M45.926 60.7842C45.926 62.5877 45.1854 64.3173 43.8671 65.5926C42.5488 66.8678 40.7609 67.5843 38.8966 67.5843C37.0323 67.5843 35.2443 66.8678 33.926 65.5926C32.6078 64.3173 31.8672 62.5877 31.8672 60.7842" fill="white"/>
<path d="M45.6174 60.7683C45.6174 61.6613 45.4355 62.5456 45.0823 63.3706C44.729 64.1956 44.2112 64.9453 43.5585 65.5767C42.9058 66.2081 42.1309 66.709 41.278 67.0508C40.4252 67.3925 39.5111 67.5684 38.588 67.5684C37.6649 67.5684 36.7508 67.3925 35.8979 67.0508C35.0451 66.709 34.2702 66.2081 33.6175 65.5767C32.9647 64.9453 32.4469 64.1956 32.0937 63.3706C31.7404 62.5456 31.5586 61.6613 31.5586 60.7683H31.779C32.1701 62.2268 33.0507 63.5184 34.2826 64.4405C35.5145 65.3625 37.028 65.8628 38.5855 65.8628C40.1431 65.8628 41.6566 65.3625 42.8885 64.4405C44.1204 63.5184 45.001 62.2268 45.3921 60.7683H45.6174Z" fill="#DFE7EA"/>
<path d="M45.426 60.7842C45.426 62.5877 44.6854 64.3173 43.3671 65.5926C42.0488 66.8678 40.2609 67.5843 38.3966 67.5843C36.5323 67.5843 34.7443 66.8678 33.426 65.5926C32.1078 64.3173 31.3672 62.5877 31.3672 60.7842" stroke="#274B5B" stroke-width="1.82532" stroke-miterlimit="10"/>
<path d="M38.1395 64.6691C39.1098 64.6691 39.8963 63.9083 39.8963 62.9697C39.8963 62.0311 39.1098 61.2703 38.1395 61.2703C37.1693 61.2703 36.3828 62.0311 36.3828 62.9697C36.3828 63.9083 37.1693 64.6691 38.1395 64.6691Z" fill="#274B5B"/>
<path d="M40.1505 63.6983C40.8442 63.6983 41.4065 63.1543 41.4065 62.4833C41.4065 61.8123 40.8442 61.2683 40.1505 61.2683C39.4568 61.2683 38.8945 61.8123 38.8945 62.4833C38.8945 63.1543 39.4568 63.6983 40.1505 63.6983Z" fill="white"/>
<path d="M65.758 60.7842C65.758 62.5877 65.0174 64.3173 63.6991 65.5926C62.3809 66.8678 60.5929 67.5843 58.7286 67.5843C56.8643 67.5843 55.0763 66.8678 53.7581 65.5926C52.4398 64.3173 51.6992 62.5877 51.6992 60.7842" fill="white"/>
<path d="M65.1994 60.7683C65.1994 62.5718 64.4588 64.3014 63.1405 65.5767C61.8223 66.852 60.0343 67.5684 58.17 67.5684C56.3057 67.5684 54.5177 66.852 53.1995 65.5767C51.8812 64.3014 51.1406 62.5718 51.1406 60.7683H51.361C51.7521 62.2268 52.6327 63.5184 53.8646 64.4405C55.0965 65.3625 56.61 65.8628 58.1676 65.8628C59.7251 65.8628 61.2386 65.3625 62.4705 64.4405C63.7025 63.5184 64.583 62.2268 64.9741 60.7683H65.1994Z" fill="#DFE7EA"/>
<path d="M65.2541 60.7842C65.2541 62.5877 64.5135 64.3173 63.1952 65.5926C61.877 66.8678 60.089 67.5843 58.2247 67.5843C56.3604 67.5843 54.5724 66.8678 53.2542 65.5926C51.9359 64.3173 51.1953 62.5877 51.1953 60.7842" stroke="#274B5B" stroke-width="1.82532" stroke-miterlimit="10"/>
<path d="M57.9794 64.6691C58.9496 64.6691 59.7361 63.9083 59.7361 62.9697C59.7361 62.0311 58.9496 61.2703 57.9794 61.2703C57.0092 61.2703 56.2227 62.0311 56.2227 62.9697C56.2227 63.9083 57.0092 64.6691 57.9794 64.6691Z" fill="#274B5B"/>
<path d="M59.9825 63.6983C60.6762 63.6983 61.2385 63.1543 61.2385 62.4833C61.2385 61.8123 60.6762 61.2683 59.9825 61.2683C59.2889 61.2683 58.7266 61.8123 58.7266 62.4833C58.7266 63.1543 59.2889 63.6983 59.9825 63.6983Z" fill="white"/>
<path d="M18.0212 53.3361C17.8884 52.8964 17.7957 52.4463 17.7441 51.9909C17.7003 51.5685 17.6916 51.1433 17.7182 50.7195C17.7651 50.0067 17.923 49.3048 18.1865 48.6375C18.3583 48.1884 18.5969 47.7659 18.8947 47.3833C19.1151 47.1215 19.2804 47.0071 19.3517 47.0478C19.5138 47.1372 19.235 47.7972 19.0276 48.8664C18.9106 49.4869 18.8563 50.117 18.8655 50.7477C18.873 51.1149 18.9027 51.4813 18.9547 51.8451C19.0144 52.2323 19.1011 52.6152 19.214 52.9912C19.2788 53.1808 19.3371 53.3721 19.4101 53.5524C19.4763 53.7216 19.5537 53.8866 19.6418 54.0462C19.7194 54.1901 19.8141 54.3248 19.9238 54.4476L20 54.5385L20.0859 54.62C20.1409 54.6768 20.2005 54.7292 20.2641 54.7768C20.7566 55.131 21.3193 55.3829 21.9171 55.5168C22.4568 55.6594 22.9252 55.7425 23.2477 55.8303C23.5702 55.9181 23.7533 55.9871 23.7517 56.078C23.7501 56.169 23.5653 56.2348 23.2282 56.296C22.7463 56.373 22.2565 56.3925 21.7697 56.354C21.4204 56.3307 21.0745 56.2729 20.7373 56.1815C20.3262 56.0724 19.9364 55.8987 19.5835 55.6673C19.4848 55.6046 19.3911 55.5349 19.3031 55.4588L19.1654 55.3428L19.0389 55.2142C18.8654 55.0395 18.7142 54.8453 18.5884 54.6357C18.4641 54.4311 18.3558 54.2178 18.2643 53.9976C18.1687 53.7829 18.0974 53.5618 18.0212 53.3361Z" fill="#3B535C"/>
<path d="M22.6218 40.8374C23.7092 39.0784 24.6006 37.6251 24.9247 37.7552C25.0867 37.8179 25.0576 38.2725 24.8518 38.9514C24.2707 40.7015 23.2898 42.3025 21.9817 43.6358C21.4647 44.1359 21.0644 44.3742 20.9315 44.2723C20.6625 44.0528 21.5473 42.6026 22.6218 40.8374Z" fill="#3B535C"/>
<path d="M24.7409 28.219C24.2029 26.0242 23.5822 24.2605 23.8982 24.1068C24.0489 24.0363 24.4087 24.3984 24.8155 25.082C25.8284 26.8908 26.3341 28.9248 26.2821 30.9814C26.2416 31.7653 26.0925 32.2497 25.9239 32.2528C25.5707 32.2591 25.2951 30.4139 24.7409 28.219Z" fill="#3B535C"/>
<path d="M72.4298 73.6222C76.6434 77.6983 74.8267 85.8772 74.9499 91.6512L73.0473 89.6131C72.3316 93.2101 70.6032 96.546 68.0526 99.2532C67.4941 98.2653 66.7009 97.4201 65.7383 96.7871C65.0361 99.8262 63.3683 102.577 60.9689 104.653C61.3072 103.861 61.4665 103.008 61.4361 102.152C61.4056 101.296 61.1861 100.456 60.7922 99.689C60.37 100.958 59.6753 102.127 58.7536 103.118C57.832 104.109 56.7042 104.901 55.4442 105.441C55.8405 104.903 56.0885 104.276 56.1651 103.619C56.2416 102.963 56.1441 102.298 55.8818 101.688C53.9371 104.869 48.3735 104.966 46.3202 101.854C46.1776 102.481 46.2829 103.309 46.9458 103.362C44.1535 103.778 41.5978 102.64 39.6757 100.636C39.794 101.772 40.35 102.824 41.2331 103.582C39.7412 103.49 38.3005 103.02 37.0552 102.22C35.81 101.42 34.804 100.317 34.1381 99.0227C30.5355 99.2391 26.9378 96.8514 25.8487 93.5215C25.9239 93.8023 25.9221 94.0973 25.8434 94.3772C25.7646 94.6571 25.6117 94.9123 25.3998 95.1175C19.175 92.0635 19.5154 78.3552 23.5928 73.8401C23.5928 73.8401 30.704 79.034 37.3793 78.9948C41.5524 78.9713 46.4353 75.8907 51.2777 75.8703C55.3292 75.8531 57.1021 81.2195 59.7048 78.8584C66.581 72.6063 72.3423 73.5375 72.4298 73.6222Z" fill="#B0D7E9"/>
<path d="M75.086 90.8362L73.1834 88.7981C72.4671 92.3953 70.7388 95.7315 68.1887 98.4397C67.6302 97.4519 66.837 96.6067 65.8745 95.9737C65.1715 99.0129 63.5039 101.764 61.1051 103.841C61.4432 103.049 61.6026 102.197 61.5724 101.341C61.5422 100.484 61.3232 99.6446 60.93 98.8771C60.508 100.146 59.8133 101.315 58.8917 102.306C57.97 103.297 56.8421 104.089 55.582 104.629C55.978 104.091 56.2258 103.464 56.302 102.807C56.3783 102.151 56.2805 101.486 56.018 100.876C54.0732 104.059 48.5097 104.154 46.4564 101.044C46.3138 101.671 46.4758 103.986 47.1403 104.041C44.348 104.457 41.7339 101.831 39.8119 99.8256C39.9221 100.95 40.2122 102.977 41.0873 103.721C38.1119 103.574 35.5675 100.809 34.2727 98.2124C30.67 98.4303 27.0723 96.0411 25.9832 92.7112C26.0587 92.9919 26.0571 93.2867 25.9787 93.5666C25.9002 93.8465 25.7476 94.1018 25.536 94.3071C23.3854 93.2505 21.9706 90.9553 21.1992 88.2165C23.9543 90.1573 27.1955 91.4899 30.3929 92.683C32.5678 93.4919 34.7686 94.2632 37.0617 94.6677C39.2852 95.0581 41.5573 95.0989 43.818 95.138C50.0914 95.2431 56.6208 95.2948 62.293 92.6908C63.9136 91.9446 65.633 90.6637 65.5763 88.9282C65.5115 86.9388 63.2605 85.8037 61.34 85.0904C65.4304 84.5041 68.7819 81.436 70.6472 77.8678C71.344 76.512 71.8947 75.0904 72.2905 73.6255L72.8399 74.0394C73.9386 79.7099 74.9677 85.0653 75.086 90.8362Z" fill="#54B9D3"/>
<path d="M45.6594 76.0025L37.3765 78.9907L23.7455 73.0066C22.8445 74.0153 22.1607 75.1879 21.7344 76.4556C24.5892 77.0963 27.3614 78.0428 29.9995 79.2776C31.2945 79.8731 32.556 80.5346 33.7787 81.2592C34.4464 81.6543 35.8482 82.9492 36.6748 82.8504C36.9233 82.8017 37.1575 82.7 37.3603 82.5526C44.9398 77.8368 50.505 77.6299 59.3924 79.1663L55.2161 76.8146L45.6594 76.0025Z" fill="#D9EDF4"/>
<path d="M72.2877 73.6222C75.0849 79.0498 75.6748 84.9022 75.0849 91.1073L73.1823 89.0692C72.4666 92.6661 70.7382 96.002 68.1876 98.7093C67.6292 97.7214 66.8359 96.8761 65.8734 96.2432C65.1711 99.2823 63.5033 102.033 61.1039 104.109C61.4423 103.317 61.6016 102.464 61.5711 101.608C61.5406 100.752 61.3211 99.9123 60.9273 99.1451C60.505 100.414 59.8103 101.583 58.8887 102.574C57.967 103.565 56.8393 104.357 55.5793 104.897C55.9755 104.359 56.2236 103.732 56.3001 103.075C56.3767 102.419 56.2792 101.754 56.0168 101.144C54.0721 104.325 48.5085 104.422 46.4552 101.31C46.3126 101.937 47.4276 104.446 46.8004 104.72C44.0454 103.494 41.7328 102.096 39.8107 100.092C39.9226 101.216 40.2094 103.384 41.0862 104.124C38.1107 103.977 35.5664 101.075 34.2715 98.4804C30.6689 98.6967 27.0712 96.3091 25.9821 92.9792C26.0573 93.26 26.0555 93.5549 25.9768 93.8348C25.898 94.1147 25.7451 94.3699 25.5332 94.5751C19.3084 91.518 19.6407 78.0809 23.7181 73.5674" stroke="#42565E" stroke-width="1.82532" stroke-miterlimit="10" stroke-linecap="round"/>
<path d="M42.7909 89.8991C42.3443 89.8978 41.9163 89.7257 41.6005 89.4202C41.2847 89.1147 41.1068 88.7007 41.1055 88.2686V82.0384C41.1068 81.6064 41.2847 81.1924 41.6005 80.8869C41.9163 80.5814 42.3443 80.4092 42.7909 80.408H54.5841C55.0307 80.4092 55.4586 80.5814 55.7744 80.8869C56.0902 81.1924 56.2682 81.6064 56.2695 82.0384V88.2639C56.2682 88.696 56.0902 89.1099 55.7744 89.4154C55.4586 89.7209 55.0307 89.8931 54.5841 89.8944" fill="#EBCBAC"/>
<path d="M56.5586 82.7171V84.6502C56.4274 84.3592 56.2115 84.1115 55.9372 83.9372C55.663 83.7629 55.3422 83.6697 55.0141 83.6687H43.221C42.7743 83.67 42.3464 83.8422 42.0306 84.1477C41.7148 84.4532 41.5368 84.8672 41.5355 85.2992V89.5964C41.4428 89.3923 41.3948 89.1718 41.3945 88.9489V82.7171C41.3958 82.2851 41.5738 81.8711 41.8896 81.5656C42.2054 81.2601 42.6334 81.0879 43.08 81.0867H54.8731C55.3197 81.0879 55.7477 81.2601 56.0635 81.5656C56.3793 81.8711 56.5573 82.2851 56.5586 82.7171V82.7171Z" fill="#D7AD8C"/>
<path d="M48.6243 79.8264C49.8414 79.8264 51.0293 79.8343 52.1767 79.8515L53.8653 79.8813L54.277 79.8907H54.4812H54.5395H54.6254L54.7972 79.9032C55.2473 79.9538 55.6784 80.1075 56.0548 80.3516C56.4106 80.5829 56.7068 80.8902 56.9204 81.2499C57.1339 81.6095 57.2592 82.0118 57.2864 82.4257V82.5825V82.7017V82.8804L57.2718 83.2347L57.2394 83.9261C57.1941 84.8338 57.1438 85.6788 57.0871 86.4501C57.0304 87.2215 56.9688 87.9191 56.904 88.5321L56.8797 88.7578L56.8489 89.0103C56.8223 89.1968 56.7706 89.3792 56.6949 89.5527C56.5646 89.8464 56.3648 90.1063 56.1115 90.3115C55.7865 90.5867 55.365 90.7314 54.9333 90.716C54.6497 90.6909 54.5233 90.5937 54.5249 90.5168C54.5265 90.44 54.6481 90.3601 54.828 90.2425C55.0621 90.0984 55.2589 89.9042 55.4033 89.675C55.4891 89.5302 55.5442 89.3703 55.5653 89.2046C55.5761 89.1172 55.5761 89.0288 55.5653 88.9413L55.5183 88.5321C55.4519 87.9191 55.3903 87.2215 55.3352 86.4501C55.2801 85.6788 55.2283 84.8338 55.1829 83.9261L55.1505 83.2347L55.1359 82.8804V82.7017V82.6562V82.6389C55.1353 82.6285 55.1353 82.618 55.1359 82.6076C55.1192 82.5248 55.0836 82.4467 55.0317 82.3789C54.9798 82.3111 54.913 82.2553 54.8361 82.2157C54.7622 82.179 54.6808 82.1586 54.5978 82.1561L53.8929 82.1718L52.2042 82.2015C51.0568 82.2172 49.8689 82.2266 48.6518 82.2266C47.4348 82.2266 46.2469 82.2188 45.0995 82.2015L43.4108 82.1718L42.7058 82.1561C42.6228 82.1586 42.5415 82.179 42.4676 82.2157C42.3904 82.2551 42.3232 82.3108 42.2711 82.3786C42.2189 82.4465 42.1831 82.5247 42.1662 82.6076C42.1667 82.618 42.1667 82.6285 42.1662 82.6389V82.6562V82.7017V82.8804L42.1516 83.2347L42.1192 83.9261C42.0738 84.8338 42.0236 85.6788 41.9668 86.4501C41.9101 87.2215 41.8485 87.9191 41.7837 88.5321L41.7367 88.9413C41.726 89.0288 41.726 89.1172 41.7367 89.2046C41.7578 89.3703 41.8129 89.5302 41.8988 89.675C42.0432 89.9042 42.24 90.0984 42.4741 90.2425C42.6524 90.3569 42.7771 90.4291 42.7771 90.5168C42.7771 90.6046 42.6507 90.6909 42.3687 90.716C41.9371 90.7314 41.5156 90.5867 41.1906 90.3115C40.9373 90.1063 40.7374 89.8464 40.6071 89.5527C40.5315 89.3792 40.4797 89.1968 40.4532 89.0103L40.4224 88.7578L40.3981 88.5321C40.3316 87.9191 40.2701 87.2215 40.215 86.4501C40.1599 85.6788 40.108 84.8338 40.0626 83.9261L40.0302 83.2347L40.0156 82.8804V82.7017V82.5825V82.4257C40.0429 82.0118 40.1681 81.6095 40.3817 81.2499C40.5952 80.8902 40.8914 80.5829 41.2473 80.3516C41.6236 80.1075 42.0548 79.9538 42.5049 79.9032L42.6767 79.8907H42.7626H42.8209H43.0251L43.4367 79.8813L45.1254 79.8515C46.2193 79.8343 47.4072 79.8264 48.6243 79.8264Z" fill="#3F565E"/>
<path d="M49.4521 86.6303C49.7655 86.5563 50.0744 86.4658 50.3775 86.3591C50.6542 86.2576 50.9248 86.1408 51.1878 86.0095C51.6351 85.791 52.0544 85.5227 52.4373 85.2099C52.7614 84.9387 53.0077 84.6769 53.2168 84.4872C53.4258 84.2975 53.5814 84.1737 53.7208 84.2082C53.8602 84.2426 53.9542 84.4182 53.9736 84.749C53.9643 85.2104 53.8368 85.6624 53.6025 86.0644C53.2588 86.6588 52.7827 87.1718 52.2088 87.5663C51.88 87.7989 51.5282 87.9995 51.1586 88.1651C50.7639 88.3391 50.3532 88.4766 49.9318 88.5759C49.7163 88.6276 49.4991 88.6637 49.2836 88.6966C49.068 88.7295 48.8541 88.7468 48.6515 88.7546C48.2607 88.773 47.869 88.7626 47.4798 88.7232C46.8285 88.6607 46.1902 88.506 45.5853 88.2639C45.1699 88.1069 44.786 87.8808 44.4509 87.596C44.2176 87.3813 44.1268 87.1947 44.1851 87.0709C44.3067 86.8122 44.9614 86.8529 45.9127 86.8859C46.3892 86.9031 46.9434 86.9141 47.5463 86.8859C47.8477 86.8702 48.1621 86.8451 48.4846 86.8059C48.6467 86.7887 48.8087 86.7589 48.9627 86.7354C49.1167 86.7118 49.2917 86.6695 49.4521 86.6303Z" fill="#3F565E"/>
<path d="M25.5679 76.871C25.5324 77.3779 25.5618 77.8871 25.6554 78.387C25.7618 78.9028 25.9332 79.4041 26.1659 79.8795C25.7945 79.4693 25.4766 79.0165 25.2194 78.5312C24.9623 78.0255 24.7707 77.4911 24.649 76.94C24.5259 76.3732 24.4716 75.7944 24.4869 75.2154C24.4869 75.0696 24.4999 74.9239 24.5096 74.7781C24.5193 74.6323 24.5339 74.4849 24.5598 74.3375C24.5996 74.0298 24.6652 73.7257 24.7559 73.4282L26.443 74.1431C26.3177 74.3324 26.2092 74.5317 26.1189 74.7389C26.0654 74.847 26.0249 74.9599 25.9779 75.0712L25.8547 75.4161C25.7007 75.8886 25.6044 76.3769 25.5679 76.871V76.871Z" fill="#3F565E"/>
<path d="M28.1489 78.247C28.2867 79.4385 28.8377 80.6268 29.6318 81.6553C28.5626 80.8091 27.7427 79.7055 27.2543 78.4555C27.0062 77.7891 26.878 77.0865 26.8751 76.3782C26.8702 75.6302 27.0201 74.8887 27.3159 74.1975L28.9365 75.041C28.2964 75.8781 28.0079 77.0665 28.1489 78.247Z" fill="#3F565E"/>
<path d="M32.8494 79.1428C32.9889 80.2973 33.3805 81.41 33.9985 82.4069C33.1025 81.5428 32.4065 80.5045 31.9565 79.3607C31.4787 78.1627 31.2694 76.8803 31.3423 75.5981L33.1574 75.8992C32.8175 76.9469 32.7126 78.0527 32.8494 79.1428V79.1428Z" fill="#3F565E"/>
<path d="M63.496 78.4889C63.5592 78.9586 63.5433 79.4351 63.4491 79.8999C63.368 80.2573 63.2432 80.4674 63.1249 80.458C62.8932 80.436 62.8008 79.5926 62.6679 78.5767C62.535 77.5608 62.4443 76.733 62.6631 76.6625C62.77 76.628 62.9418 76.8036 63.1071 77.1328C63.3113 77.5617 63.4426 78.0196 63.496 78.4889Z" fill="#3F565E"/>
<path d="M67.4041 78.3378C67.3907 79.006 67.2575 79.667 67.0103 80.2912C66.811 80.7615 66.6003 81.0217 66.4966 80.9857C66.2745 80.9041 66.5468 79.7456 66.5776 78.3205C66.6084 76.8954 66.4155 75.7196 66.6408 75.6553C66.7462 75.6256 66.9439 75.8905 67.1173 76.3749C67.3291 77.0083 67.4262 77.6724 67.4041 78.3378V78.3378Z" fill="#3F565E"/>
<path d="M71.182 77.9163C71.2538 78.4069 71.282 78.9025 71.2663 79.3978C71.2533 79.8013 71.2051 80.203 71.1221 80.5987C70.9746 81.2728 70.7753 81.66 70.6683 81.6381C70.4301 81.5895 70.6683 79.97 70.362 78.0323C70.0557 76.0945 69.4075 74.5832 69.6263 74.4782C69.7235 74.4296 70.0217 74.751 70.3523 75.3608C70.545 75.7186 70.7076 76.0909 70.8385 76.4739C70.9936 76.9448 71.1085 77.4272 71.182 77.9163V77.9163Z" fill="#3F565E"/>
<path d="M27.0432 93.3948C26.9784 92.935 26.9638 92.47 26.9994 92.0073C27.0169 91.8064 27.0456 91.6064 27.0853 91.4084C27.1175 91.2356 27.1608 91.0649 27.215 90.8974C27.4111 90.2812 27.6558 89.9567 27.7563 89.9865C27.8568 90.0163 27.8292 90.4082 27.7903 91.0008C27.7806 91.1498 27.7692 91.3144 27.7676 91.4837C27.766 91.653 27.7676 91.8411 27.7676 92.034C27.7805 92.8708 27.9035 93.7027 28.1339 94.5094C28.1906 94.6944 28.2392 94.8732 28.2959 95.0362C28.3527 95.1992 28.4061 95.3497 28.458 95.494C28.6671 96.0521 28.8178 96.4095 28.7189 96.477C28.6201 96.5444 28.3024 96.2873 27.9345 95.748C27.834 95.6016 27.7431 95.4492 27.6623 95.2917C27.5667 95.1124 27.4813 94.9282 27.4062 94.7399C27.2368 94.3051 27.1151 93.8542 27.0432 93.3948V93.3948Z" fill="#3F565E"/>
<path d="M32.3759 95.6215C32.2704 94.8796 32.2655 94.1275 32.3613 93.3843C32.4375 92.8199 32.5526 92.4782 32.6644 92.4797C32.7762 92.4813 32.8718 92.8309 32.9464 93.3843C33.0209 93.9377 33.0776 94.6965 33.1943 95.5071C33.2559 95.9115 33.3304 96.2909 33.4115 96.6327C33.4601 96.8004 33.4957 96.9651 33.546 97.1124L33.6108 97.3288L33.6805 97.5263C33.8571 98.0311 34.0046 98.3541 33.9009 98.4246C33.7972 98.4952 33.4957 98.2678 33.1554 97.7771L33.0274 97.5796C32.9869 97.5091 32.948 97.4338 32.9075 97.3554C32.8222 97.1892 32.7464 97.0186 32.6806 96.8443C32.5392 96.447 32.4372 96.0375 32.3759 95.6215V95.6215Z" fill="#3F565E"/>
<path d="M38.7394 96.6961C38.0377 94.2896 37.9388 92.2515 38.1592 92.2249C38.3796 92.1982 38.8528 94.1328 39.5367 96.4797C40.2206 98.8266 40.8608 100.713 40.6436 100.808C40.4264 100.904 39.4346 99.1041 38.7394 96.6961Z" fill="#3F565E"/>
<path d="M56.5009 97.6902C56.8153 96.6743 57.0357 95.7211 57.2301 95.025C57.4246 94.329 57.5867 93.9088 57.7001 93.9276C57.8135 93.9464 57.8524 94.3979 57.8071 95.1191C57.7443 96.068 57.572 97.0072 57.2933 97.9191C57.1339 98.4275 56.9307 98.922 56.6856 99.3975C56.5624 99.6138 56.4506 99.8207 56.3226 100.003C56.2594 100.094 56.201 100.183 56.1395 100.266L55.9531 100.496C55.4669 101.077 55.0488 101.324 54.9807 101.254C54.9127 101.183 55.1428 100.797 55.4669 100.184L55.5966 99.9446L55.7262 99.6797C55.8202 99.4994 55.9012 99.2956 55.9968 99.0902C56.1654 98.67 56.3404 98.1966 56.5009 97.6902Z" fill="#3F565E"/>
<path d="M61.4558 95.6979C61.6794 94.4625 61.7945 93.3008 61.942 92.4652C62.0894 91.6296 62.2401 91.1169 62.3536 91.1263C62.467 91.1358 62.5254 91.6641 62.5254 92.5122C62.5345 93.6258 62.4467 94.7381 62.2628 95.8374C62.1535 96.455 61.9825 97.0609 61.7523 97.6466C61.5628 98.1288 61.317 98.5885 61.0198 99.0168C60.4996 99.7474 60.0199 100.058 59.9454 99.9872C59.8708 99.9167 60.1609 99.4762 60.511 98.733C60.7143 98.3003 60.888 97.8552 61.0312 97.4005C61.2083 96.8418 61.3501 96.2732 61.4558 95.6979V95.6979Z" fill="#3F565E"/>
<path d="M67.4649 93.7372C67.7128 92.7354 67.8814 91.8026 68.0402 91.1269C68.199 90.4512 68.34 90.0295 68.4551 90.042C68.5701 90.0546 68.6301 90.4904 68.6171 91.1912C68.6027 92.1122 68.4848 93.029 68.2655 93.9253C68.1397 94.425 67.9728 94.9141 67.7663 95.388C67.6626 95.6044 67.5686 95.8113 67.4568 95.9947C67.4033 96.0872 67.3531 96.1766 67.2947 96.2613L67.1327 96.498C66.7032 97.0922 66.3224 97.3665 66.2446 97.3022C66.1668 97.238 66.3499 96.8429 66.6206 96.2252L66.7259 95.9822L66.8312 95.7157C66.909 95.5338 66.9739 95.3331 67.0516 95.1246C67.1926 94.7045 67.332 94.2373 67.4649 93.7372Z" fill="#3F565E"/>
<path d="M69.152 92.2267C69.421 91.5996 69.6381 90.9725 69.8213 90.405C69.9039 90.1181 69.9914 89.8469 70.0546 89.5882C70.1178 89.3295 70.1827 89.0896 70.2361 88.8686C70.4436 87.9828 70.5603 87.4184 70.6737 87.4231C70.7872 87.4278 70.8795 88.0079 70.8147 88.9517C70.7969 89.1868 70.7726 89.4455 70.7272 89.7199C70.6818 89.9942 70.6251 90.2874 70.5651 90.5931C70.2484 91.9216 69.7045 93.1896 68.9559 94.3447C68.7792 94.6065 68.6123 94.8574 68.4356 95.0768C68.259 95.2963 68.0953 95.5017 67.9349 95.6789C67.2866 96.3906 66.8005 96.7324 66.7162 96.6618C66.6319 96.5913 66.9641 96.1084 67.4649 95.3402C67.5897 95.1474 67.7274 94.9389 67.8636 94.7131C67.9997 94.4874 68.1456 94.2428 68.2963 93.9763C68.5799 93.4464 68.8781 92.8601 69.152 92.2267Z" fill="#3F565E"/>
<path d="M22.574 79.8354C22.6972 79.249 23.0229 78.8383 23.2401 78.9041C23.4573 78.97 23.4994 79.4529 23.386 80.0016C23.2725 80.5503 23.0343 80.9751 22.8058 80.95C22.5773 80.925 22.4541 80.4248 22.574 79.8354Z" fill="#F2DCCA"/>
<path d="M22.7935 86.1698C22.5718 85.3919 22.4654 84.5874 22.4775 83.7805C22.4969 83.1613 22.6039 82.785 22.7141 82.7834C22.9523 82.7834 23.1063 84.2462 23.5925 85.9597C24.0787 87.6732 24.6993 89.009 24.4968 89.1281C24.4012 89.1814 24.1094 88.9102 23.7675 88.3866C23.3343 87.6968 23.0062 86.9502 22.7935 86.1698V86.1698Z" fill="#F2DCCA"/>
<path d="M72.1351 73.2654C67.9082 73.9691 63.9172 75.6421 60.4959 78.1442C59.9919 78.5142 59.4538 78.9171 58.8234 78.939C58.1525 78.9626 57.5626 78.5502 57.0002 78.1944C55.9453 77.5102 54.8008 76.965 53.5969 76.5733C52.3183 76.1751 50.9618 76.0607 49.6265 76.0293C48.2911 75.998 46.9427 75.9635 45.6268 76.0607C44.4889 76.1343 43.3654 76.3482 42.2835 76.6972C41.1832 77.0697 40.1348 77.5726 39.1622 78.1944C38.5998 78.5487 38.0099 78.961 37.339 78.939C36.707 78.9171 36.1689 78.5126 35.6665 78.1442C32.2452 75.6421 28.2542 73.9691 24.0273 73.2654" stroke="#42565E" stroke-width="1.82532" stroke-miterlimit="10" stroke-linecap="round"/>
<path d="M35.918 19.2324C37.7041 19.4201 39.3924 20.1169 40.7684 21.2344C40.8657 17.6898 38.9712 14.4132 37.1334 11.3451C37.7601 11.0807 38.4552 11.0077 39.1259 11.1357C39.7966 11.2637 40.4109 11.5867 40.8867 12.0616C40.6122 9.08016 39.797 6.16882 38.4785 3.46094C37.6779 3.81682 37.4446 4.79038 37.3182 5.63226C36.6446 10.1231 36.2711 14.6512 36.2 19.1885" fill="#54B9D3"/>
<path d="M40.712 11.7581C41.6733 12.5008 42.5743 13.3137 43.4071 14.1897C42.3165 13.6819 41.1868 13.2568 40.0281 12.9182C38.902 12.5892 37.7512 12.3454 36.5859 12.1892L37.5826 9.69653C38.6786 10.3054 39.7248 10.9946 40.712 11.7581V11.7581Z" fill="#3B535C"/>
<path d="M40.3598 20.3195C41.5915 21.4295 42.7081 22.6853 43.4811 24.0821C42.3207 22.9314 40.9513 22.077 39.5187 21.3762C38.0861 20.6754 36.5741 20.122 35.0312 19.5482L36.4655 17.2625C37.7782 18.2235 39.1265 19.2065 40.3598 20.3195Z" fill="#3B535C"/>
<path d="M7.12938 52.4633C8.0823 52.0682 8.94122 51.6308 9.60405 51.3533C10.2669 51.0758 10.7223 50.9551 10.8163 51.0947C10.9103 51.2342 10.6283 51.5979 10.0756 52.0698C9.34034 52.6894 8.51054 53.1955 7.61557 53.5701C6.54434 54.0169 5.45206 54.169 4.67741 54.0937C3.90276 54.0185 3.46195 53.7802 3.4895 53.6234C3.51705 53.4666 3.96596 53.3883 4.62393 53.244C5.48254 53.0604 6.32139 52.799 7.12938 52.4633V52.4633Z" fill="#3B535C"/>
<path d="M47.6953 19.2929C49.0149 20.1101 50.1535 21.1726 51.0451 22.419C52.3749 19.7395 52.974 16.7756 52.7856 13.8089L53.9752 15.5883C55.0908 12.3652 55.7053 8.99962 55.7983 5.60179C55.8275 4.52162 55.7854 3.3756 55.176 2.46631C52.5639 7.387 50.4259 12.53 48.7892 17.8302" fill="#54B9D3"/>
<path d="M53.8249 14.5467C54.3645 15.6167 54.8186 16.7252 55.1829 17.8625C54.4227 16.9512 53.5905 16.0983 52.6937 15.3118C51.822 14.5472 50.89 13.8495 49.9062 13.2251L51.9109 11.3877C52.6313 12.3919 53.2712 13.448 53.8249 14.5467V14.5467Z" fill="#3B535C"/>
<path d="M51.3874 20.8177C51.9271 21.8877 52.3811 22.9962 52.7454 24.1335C51.9852 23.2221 51.153 22.3693 50.2562 21.5827C49.3845 20.8182 48.4525 20.1205 47.4688 19.4961L49.4734 17.6587C50.1938 18.6629 50.8337 19.719 51.3874 20.8177V20.8177Z" fill="#3B535C"/>
<path d="M65.1953 19.7094L65.6896 22.939C68.3545 21.7315 70.6206 19.8319 72.2352 17.4519C72.5328 19.2589 72.6317 21.0914 72.5302 22.9186C75.4943 22.5141 77.6335 20.059 79.4761 17.778C80.0757 17.0349 80.6948 16.2526 80.8682 15.3245" fill="#54B9D3"/>
<path d="M66.1392 22.0906C66.0091 23.2745 65.7853 24.4469 65.4699 25.5976C65.3257 24.4351 65.0884 23.2851 64.76 22.158C64.4409 21.0625 64.0339 19.9927 63.543 18.9583L66.251 18.4299C66.3104 19.6511 66.273 20.8749 66.1392 22.0906V22.0906Z" fill="#3B535C"/>
<path d="M73.1118 21.1502C72.9818 22.334 72.758 23.5065 72.4425 24.6572C72.2983 23.4946 72.061 22.3446 71.7327 21.2176C71.4135 20.1221 71.0066 19.0522 70.5156 18.0178L73.2237 17.4895C73.283 18.7107 73.2456 19.9345 73.1118 21.1502Z" fill="#3B535C"/>
<path d="M75.6583 28.7996C75.2148 29.6679 74.5592 30.4186 73.7481 30.9865C72.9371 31.5545 71.9952 31.9226 71.0039 32.0589C71.8142 32.4493 72.6472 32.8428 73.5418 32.9995C75.2029 33.288 76.8851 32.7283 78.449 32.1169C78.8963 31.9429 79.4068 31.6842 79.4651 31.2217C79.5072 30.8862 79.2739 30.5633 78.9789 30.3861C78.6683 30.2284 78.3305 30.127 77.9822 30.0867C77.1136 29.9299 76.1996 29.7245 75.5708 29.1194" fill="#54B9D3"/>
<path d="M89.4356 32.2483C88.9922 33.1167 88.3365 33.8673 87.5255 34.4353C86.7144 35.0032 85.7725 35.3713 84.7812 35.5076C85.5916 35.898 86.4245 36.2915 87.3191 36.4483C88.9802 36.7367 90.6624 36.1771 92.2263 35.5656C92.6736 35.3916 93.1841 35.1329 93.2424 34.6705C93.2846 34.335 93.0512 34.012 92.7563 33.8348C92.4456 33.6772 92.1079 33.5757 91.7596 33.5354C90.8909 33.3786 89.9769 33.1733 89.3481 32.5681" fill="#54B9D3"/>
<path d="M73.0771 31.8842C71.9147 32.2787 70.7228 32.5864 69.5117 32.8044C70.5355 32.1791 71.5076 31.4778 72.4191 30.7068C73.3049 29.9578 74.129 29.1433 74.884 28.2705L76.5387 30.4136C75.4252 30.9885 74.268 31.4801 73.0771 31.8842V31.8842Z" fill="#3B535C"/>
<path d="M13.1289 31.2622L20.5059 29.4561L14.7236 16.4015C14.6359 16.2036 14.6086 15.9855 14.645 15.7731C14.6813 15.5607 14.7799 15.3628 14.9289 15.2028C15.0779 15.0428 15.2711 14.9275 15.4857 14.8704C15.7004 14.8134 15.9274 14.817 16.14 14.8808L35.5695 20.7144L38.0166 1.77135C38.0488 1.52302 38.1655 1.29212 38.3483 1.11505C38.5311 0.937974 38.7697 0.824796 39.0264 0.793355C39.283 0.761915 39.5432 0.814 39.7659 0.941401C39.9886 1.0688 40.1611 1.26427 40.2563 1.497L47.7807 19.8145" stroke="#274B5B" stroke-width="1.82532" stroke-miterlimit="10"/>
<path d="M6.56994 57.1897L3.47134 55.4417C3.31819 55.3554 3.18742 55.2364 3.08898 55.0938C2.99054 54.9512 2.92703 54.7888 2.90327 54.6188C2.87952 54.4489 2.89615 54.276 2.9519 54.1132C3.00766 53.9505 3.10106 53.8021 3.22501 53.6796L12.0411 44.9551C12.1577 44.8397 12.2474 44.7015 12.3041 44.5498C12.3607 44.398 12.383 44.2363 12.3695 44.0755C12.356 43.9147 12.307 43.7585 12.2257 43.6176C12.1444 43.4767 12.0329 43.3544 11.8985 43.2588L1.65788 35.9719C1.48006 35.8452 1.34311 35.6723 1.26299 35.4732C1.18287 35.2741 1.16288 35.0572 1.20533 34.8475C1.24779 34.6379 1.35096 34.4442 1.50281 34.2891C1.65466 34.134 1.84895 34.0239 2.06303 33.9715L9.31201 32.1968" stroke="#274B5B" stroke-width="1.82532" stroke-miterlimit="10"/>
<path d="M23.337 71.9593L11.1144 72.8012C10.9151 72.8148 10.7156 72.7788 10.5349 72.6963C10.3542 72.6139 10.1984 72.488 10.0826 72.3306C9.96672 72.1731 9.89464 71.9896 9.87326 71.7974C9.85187 71.6053 9.88191 71.4111 9.96048 71.2334L13.8289 62.4274C13.9387 62.1752 13.9499 61.893 13.8605 61.6333C13.771 61.3737 13.587 61.1544 13.3427 61.0164L9.10156 58.6162" stroke="#274B5B" stroke-width="1.82532" stroke-miterlimit="10"/>
<path d="M58.5811 8.38879L57.727 1.77135C57.6948 1.52302 57.5781 1.29212 57.3953 1.11505C57.2124 0.937974 56.9739 0.824796 56.7172 0.793355C56.4606 0.761915 56.2004 0.814 55.9777 0.941401C55.755 1.0688 55.5825 1.26427 55.4873 1.497L47.8008 19.8145" stroke="#274B5B" stroke-width="1.82532" stroke-miterlimit="10"/>
<path d="M79.8561 30.5883L75.2422 29.4579L81.0261 16.4033C81.1138 16.2054 81.1411 15.9874 81.1048 15.7749C81.0684 15.5625 80.9699 15.3646 80.8209 15.2046C80.6719 15.0446 80.4786 14.9293 80.264 14.8722C80.0493 14.8152 79.8223 14.8188 79.6097 14.8826L60.1705 20.7146L59.1836 13.0703" stroke="#274B5B" stroke-width="1.82532" stroke-miterlimit="10"/>
<path d="M83.2306 65.4058L81.9195 62.4271C81.8097 62.1749 81.7985 61.8927 81.8879 61.633C81.9774 61.3734 82.1614 61.1542 82.4057 61.0161L92.2784 55.4444C92.4313 55.358 92.5618 55.2391 92.6601 55.0966C92.7583 54.9542 92.8217 54.7919 92.8455 54.6222C92.8692 54.4525 92.8527 54.2798 92.7971 54.1172C92.7416 53.9546 92.6484 53.8064 92.5248 53.6838L83.7103 44.9593C83.5937 44.844 83.504 44.7058 83.4473 44.554C83.3907 44.4023 83.3683 44.2405 83.3819 44.0797C83.3954 43.9189 83.4444 43.7628 83.5257 43.6219C83.607 43.481 83.7185 43.3586 83.8529 43.263L94.0903 35.9746C94.2681 35.8479 94.405 35.675 94.4852 35.4759C94.5653 35.2768 94.5853 35.0598 94.5428 34.8502C94.5004 34.6406 94.3972 34.4469 94.2454 34.2918C94.0935 34.1367 93.8992 34.0265 93.6851 33.9741L86.8672 32.2951L84.1511 31.6304" stroke="#274B5B" stroke-width="1.82532" stroke-miterlimit="10"/>
<path d="M72.7891 71.4705L84.6389 72.7984C84.8382 72.812 85.0377 72.776 85.2184 72.6935C85.3991 72.6111 85.5549 72.4852 85.6707 72.3278C85.7866 72.1703 85.8587 71.9868 85.88 71.7946C85.9014 71.6025 85.8714 71.4083 85.7928 71.2306L84.5806 68.4761" stroke="#274B5B" stroke-width="1.82532" stroke-miterlimit="10"/>
<path d="M86.3661 35.3339C85.2038 35.7284 84.0118 36.0361 82.8008 36.2541C83.8246 35.6288 84.7967 34.9275 85.7082 34.1565C86.5939 33.4075 87.4181 32.593 88.1731 31.7202L89.8277 33.8633C88.7143 34.4382 87.5571 34.9298 86.3661 35.3339V35.3339Z" fill="#3B535C"/>
<path d="M57.1787 38.9643C57.5887 39.1239 57.9817 39.3219 58.352 39.5553C58.6538 39.7465 58.9341 39.9677 59.1883 40.2153C59.6194 40.6449 59.7863 40.9992 59.6745 41.1183C59.5626 41.2375 59.1964 41.1277 58.681 40.9098L57.7946 40.5226C57.4704 40.3815 57.1009 40.2294 56.7169 40.0789C56.3328 39.9284 55.96 39.8014 55.6197 39.6838L54.7008 39.3703C54.1709 39.1869 53.8241 39.0301 53.8322 38.8608C53.8403 38.6915 54.2114 38.5472 54.8288 38.53C55.1894 38.5197 55.55 38.546 55.9049 38.6084C56.3405 38.6866 56.7671 38.8058 57.1787 38.9643V38.9643Z" fill="white"/>
<path d="M63.2289 43.6416C63.5747 44.1279 63.809 44.6801 63.9161 45.2611C63.9858 45.7126 63.9161 46.0136 63.754 46.0622C63.5919 46.1108 63.3667 45.9055 63.1058 45.5919C62.8448 45.2784 62.5402 44.808 62.1982 44.3173C61.8563 43.8266 61.5403 43.3767 61.3263 43.0208C61.1124 42.6649 61.0022 42.3937 61.1157 42.2605C61.2291 42.1272 61.537 42.1836 61.9438 42.4172C62.4572 42.7324 62.8953 43.1498 63.2289 43.6416Z" fill="white"/>
<path d="M83.5231 56.837C84.6851 56.1848 85.792 55.9841 85.933 56.282C86.074 56.5798 85.2539 57.254 84.1503 57.8764C83.0467 58.4988 82.0289 58.8531 81.8296 58.5803C81.6303 58.3075 82.3595 57.486 83.5231 56.837Z" fill="white"/>
<path d="M88.7796 55.4976C89.1978 55.296 89.4128 54.892 89.2599 54.5952C89.107 54.2984 88.644 54.2212 88.2259 54.4228C87.8077 54.6244 87.5927 55.0284 87.7456 55.3252C87.8985 55.622 88.3614 55.6992 88.7796 55.4976Z" fill="white"/>
<path d="M83.9982 40.1646C84.7124 39.499 85.0986 38.7659 84.8608 38.527C84.6229 38.2882 83.8512 38.6342 83.1369 39.2997C82.4227 39.9653 82.0365 40.6985 82.2744 40.9373C82.5122 41.1761 83.284 40.8302 83.9982 40.1646Z" fill="white"/>
<path d="M36.4963 74.3106C36.8888 74.4284 37.2352 74.6585 37.4897 74.9706C37.6793 75.2231 37.7085 75.4519 37.5983 75.5758C37.4881 75.6996 37.2661 75.7153 37.0052 75.6793C36.3952 75.5635 35.8028 75.3739 35.2419 75.1149C35.0102 74.9942 34.84 74.8578 34.8287 74.69C34.8173 74.5223 34.981 74.3608 35.2889 74.2667C35.6867 74.1626 36.1077 74.1779 36.4963 74.3106V74.3106Z" fill="white"/>
<path d="M42.8879 73.3527C43.3433 73.27 43.8053 73.226 44.2686 73.221C44.6489 73.2171 45.0288 73.248 45.403 73.3135C46.0399 73.4311 46.4094 73.6271 46.3916 73.7839C46.3738 73.9406 45.9848 74.0582 45.3933 74.1586C45.0967 74.2072 44.7451 74.262 44.3642 74.3153C43.9834 74.3686 43.5637 74.4439 43.1261 74.5238C42.6885 74.6038 42.2753 74.6932 41.8961 74.7715C41.5168 74.8499 41.1733 74.9283 40.8783 74.9879C40.29 75.1055 39.8881 75.1447 39.8071 74.9957C39.7261 74.8468 39.9967 74.5379 40.5445 74.2025C40.8659 74.0088 41.2056 73.8451 41.559 73.7133C41.9903 73.5561 42.4349 73.4355 42.8879 73.3527Z" fill="white"/>
<path opacity="0.5" d="M65.4117 56.3193H50.9883V57.8871H65.4117V56.3193Z" fill="#EF997B"/>
<path d="M50.9883 56.3193H65.4117" stroke="#274B5B" stroke-width="1.82532" stroke-miterlimit="10"/>
<path opacity="0.5" d="M45.1461 56.3193H30.7227V57.8871H45.1461V56.3193Z" fill="#EF997B"/>
<path d="M30.7227 56.3193H45.1461" stroke="#274B5B" stroke-width="1.82532" stroke-miterlimit="10"/>
<path d="M18.7344 65.1476C19.0674 64.4854 19.6051 63.9399 20.273 63.5865C20.9408 63.2331 21.7058 63.0894 22.4618 63.1754" stroke="#274B5B" stroke-width="1.82532" stroke-miterlimit="10"/>
<path d="M77.0672 65.1476C76.7342 64.4854 76.1965 63.9399 75.5286 63.5865C74.8608 63.2331 74.0959 63.0894 73.3398 63.1754" stroke="#274B5B" stroke-width="1.82532" stroke-miterlimit="10"/>
</g>
<defs>
<clipPath id="clip0">
<rect width="95" height="107" fill="white" transform="translate(0.371094)"/>
</clipPath>
</defs>
</svg>
