<svg width="603" height="565" viewBox="0 0 603 565" fill="none" xmlns="http://www.w3.org/2000/svg">
<g id="header-svg" filter="url(#filter0_d)">
<g id="g18">
<g id="g20">
<g id="g26">
<path id="path34" d="M527.932 484.1C515.67 496.222 504.072 504.038 494.903 510.213C387.15 582.811 259.65 561.649 232.554 556.482C192.539 548.849 115.192 534.099 59.2713 472.35C-25.3316 378.929 -12.1574 231.747 53.466 134.589C65.4697 116.818 128.877 18.1814 257.749 2.36383C335.743 -7.20892 426.655 12.0977 492.495 63.8896C630.695 172.61 620.856 392.243 527.932 484.1Z" fill="url(#paint0_linear)"/>
</g>
</g>
</g>
<g id="g36">
<path id="path38" d="M10.6121 191.176C10.0235 190.923 9.61306 190.366 9.61058 189.731C9.60189 187.634 9.64036 185.498 9.72506 183.389C9.76012 182.524 10.5478 181.86 11.4854 181.906C13.7589 182.008 12.9846 184.094 13.0075 189.775C13.0119 190.643 12.2539 191.339 11.3154 191.325C11.0647 191.322 10.8268 191.269 10.6121 191.176Z" fill="#91B3FA"/>
</g>
<g id="g40">
<path id="path42" d="M259.7 60.2017C248.596 54.2189 246.316 54.6074 247.407 52.4595C248.101 51.0962 249.87 51.7398 249.666 51.7359C253.636 53.5106 257.575 55.449 261.371 57.494C262.188 57.932 262.476 58.8955 262.014 59.6457C261.573 60.3578 260.57 60.6587 259.7 60.2017ZM215.045 41.8536C215.264 41.0119 216.179 40.5054 217.09 40.7225C221.336 41.7241 225.599 42.8932 229.763 44.1994C231.901 44.8697 230.858 47.8439 228.723 47.1737C224.643 45.8941 220.463 44.7478 216.306 43.7653C215.382 43.5444 214.83 42.6837 215.045 41.8536ZM287.265 78.744C277.652 70.7848 275.359 70.7505 276.902 68.8654C277.463 68.1799 278.526 68.0581 279.278 68.5874C282.779 71.0628 286.218 73.6981 289.506 76.421C291.192 77.8148 288.958 80.1455 287.265 78.744ZM181.15 37.5084C181.176 36.6401 181.957 35.9698 182.896 36.0079C187.258 36.1907 191.676 36.5372 196.025 37.0361C198.264 37.2989 197.892 40.4102 195.664 40.1551C191.403 39.6638 187.076 39.3287 182.802 39.1497C181.865 39.1116 181.124 38.3766 181.15 37.5084ZM148.112 40.8329C147.618 40.6197 147.238 40.1932 147.135 39.6638C146.969 38.807 147.583 37.9996 148.505 37.8587C152.802 37.2113 157.186 36.7162 161.533 36.3811C162.465 36.3087 163.299 36.9523 163.391 37.8168C163.485 38.6813 162.804 39.4429 161.872 39.5153C157.613 39.8428 153.318 40.3302 149.109 40.9624C148.759 41.0157 148.413 40.9624 148.112 40.8329ZM115.308 49.0473C114.921 48.8798 114.6 48.5827 114.43 48.1867C114.079 47.3755 114.501 46.4691 115.372 46.1569C119.43 44.7135 123.598 43.3997 127.76 42.2572C128.656 42.0097 129.608 42.4857 129.889 43.3159C130.171 44.1499 129.674 45.022 128.781 45.2696C124.7 46.393 120.616 47.6763 116.639 49.093C116.192 49.253 115.715 49.2225 115.308 49.0473ZM84.3716 62.6961C83.852 61.9649 84.0645 60.9938 84.8461 60.5254C88.4885 58.347 92.2692 56.2754 96.0844 54.3674C98.0481 53.3925 99.7016 56.1573 97.7387 57.1399C93.9997 59.0097 90.2949 61.0357 86.7263 63.1721C85.946 63.6405 84.8911 63.4272 84.3716 62.6961ZM58.2225 82.6056C57.555 81.9848 57.5481 80.9871 58.2079 80.3816C61.2781 77.5558 64.5125 74.8101 67.8207 72.2129C69.5221 70.88 71.7434 73.2944 70.0436 74.6273C66.8023 77.1674 63.6328 79.8598 60.6243 82.6284C59.9653 83.2377 58.8881 83.2263 58.2225 82.6056ZM36.6183 104.929C38.9852 101.574 41.5285 98.2613 44.1785 95.089C45.5461 93.4553 48.2399 95.4089 46.8804 97.0388C44.2839 100.146 41.7917 103.391 39.4731 106.677C38.2531 108.41 35.4012 106.655 36.6183 104.929ZM20.9905 133.118C22.5739 129.352 24.3466 125.578 26.2013 122.025C27.1945 120.113 30.2213 121.598 29.2649 123.43C27.4196 126.972 25.7097 130.616 24.16 134.302C23.8222 135.106 22.8383 135.494 21.9635 135.167C21.0789 134.836 20.6563 133.918 20.9905 133.118ZM11.8827 163.752C12.5997 159.776 13.498 155.777 14.5513 151.87C14.778 151.032 15.6987 150.533 16.6092 150.758C19.0876 151.382 17.3485 152.605 15.2339 164.323C15.0798 165.176 14.205 165.74 13.2794 165.583C12.3414 165.42 11.7302 164.593 11.8827 163.752Z" fill="#91B3FA"/>
</g>
<g id="g44">
<path id="path46" d="M306.501 97.56C302.898 93.3911 300.58 91.9064 302.313 90.5261C303.017 89.9628 304.091 90.0393 304.709 90.7034C308.62 94.8723 310.612 96.5621 308.89 97.8277C308.371 98.2067 307.09 98.238 306.501 97.56Z" fill="#91B3FA"/>
</g>
<g id="g48">
<path id="path50" d="M343.271 214.695C342.61 214.407 342.188 213.751 342.283 213.053C342.557 211.004 342.787 208.928 342.967 206.879C343.044 206.012 343.864 205.383 344.801 205.469C345.733 205.558 346.432 206.325 346.353 207.189C346.17 209.279 345.934 211.397 345.657 213.491C345.542 214.349 344.692 214.95 343.763 214.828C343.589 214.806 343.424 214.759 343.271 214.695Z" fill="#91B3FA"/>
</g>
<g id="g52">
<path id="path54" d="M334.787 247.639C333.988 247.295 333.586 246.435 333.888 245.664C335.442 241.656 336.826 237.548 338.002 233.467C338.243 232.63 339.173 232.146 340.082 232.383C340.99 232.625 341.528 233.487 341.286 234.324C340.085 238.491 338.673 242.679 337.087 246.771C336.77 247.584 335.799 247.993 334.917 247.688C334.87 247.673 334.829 247.657 334.787 247.639ZM318.543 277.859C316.31 276.525 318.557 275.89 324.901 264.653C325.93 262.832 328.956 264.314 327.921 266.145C325.755 269.982 323.386 273.769 320.887 277.405C320.379 278.143 319.314 278.33 318.543 277.859ZM295.327 303.864C293.461 302.109 295.827 301.939 304.706 292.323C306.151 290.757 308.753 292.82 307.305 294.391C304.276 297.67 301.053 300.871 297.73 303.898C297.07 304.5 295.996 304.489 295.327 303.864ZM267.152 325.004C266.858 324.876 266.6 324.673 266.417 324.402C265.915 323.66 266.148 322.694 266.942 322.243C270.833 320.021 274.667 317.614 278.34 315.093C279.086 314.58 280.151 314.731 280.717 315.434C281.288 316.132 281.141 317.117 280.395 317.627C276.648 320.201 272.734 322.657 268.761 324.926C268.259 325.21 267.657 325.223 267.152 325.004ZM234.159 339.447C233.754 339.275 233.421 338.955 233.258 338.535C232.941 337.715 233.399 336.822 234.281 336.54C238.617 335.162 242.939 333.597 247.13 331.886C247.984 331.539 248.989 331.901 249.382 332.696C249.774 333.49 249.399 334.417 248.548 334.766C244.267 336.512 239.857 338.108 235.432 339.515C235.002 339.653 234.547 339.616 234.159 339.447ZM198.444 346.839C197.923 346.613 197.535 346.152 197.454 345.586C197.338 344.724 197.995 343.948 198.924 343.852C203.493 343.391 208.098 342.742 212.608 341.922C213.526 341.757 214.428 342.312 214.625 343.164C214.819 344.016 214.234 344.841 213.318 345.006C208.714 345.844 204.014 346.506 199.354 346.977C199.03 347.011 198.719 346.956 198.444 346.839ZM161.717 346.769C161.073 346.49 160.654 345.855 160.725 345.17C160.815 344.307 161.644 343.688 162.579 343.787C167.173 344.266 171.835 344.573 176.436 344.693C177.377 344.719 178.127 345.441 178.116 346.308C178.107 347.175 177.338 347.86 176.401 347.834C171.704 347.712 166.945 347.399 162.255 346.91C162.063 346.889 161.883 346.839 161.717 346.769ZM73.1533 312.181C69.4773 309.41 65.8767 306.461 62.4533 303.413C61.7721 302.804 61.7415 301.812 62.3862 301.189C64.2032 299.441 64.4925 301.637 75.2709 309.756C76.0044 310.308 76.1253 311.298 75.5411 311.97C74.9558 312.637 73.8881 312.731 73.1533 312.181ZM124.838 337.29C125.659 334.983 127.006 336.876 140.34 340.015C141.256 340.226 141.816 341.085 141.602 341.927C141.384 342.768 140.469 343.276 139.556 343.06C134.995 341.987 130.407 340.718 125.925 339.288C125.027 338.999 124.548 338.106 124.838 337.29ZM104.584 330.979C100.346 329.013 96.1458 326.859 92.1011 324.574C91.2936 324.118 91.0273 323.149 91.5063 322.412C92.8559 320.331 93.6642 322.42 106.064 328.174C106.909 328.567 107.262 329.513 106.853 330.286C106.138 331.641 104.379 330.971 104.584 330.979Z" fill="#91B3FA"/>
</g>
<g id="g56">
<path id="path58" d="M46.7801 287.429C43.0749 283.094 41.1747 281.326 42.9586 280.139C44.8149 278.904 45.6384 281.066 49.431 285.505C50.0183 286.191 49.8995 287.178 49.1676 287.709C48.4359 288.24 47.3669 288.115 46.7801 287.429Z" fill="#91B3FA"/>
</g>
<g id="g72">
<path id="path74" d="M360.997 151.814C365.108 156.364 370.022 160.333 375.622 163.499L375.897 176.267C375.924 177.68 377.215 177.132 392.203 181.947C393.593 182.365 393.438 181.149 401.605 171.369C408.123 171.869 414.578 171.347 420.743 169.907L430.558 178.758C431.647 179.743 432.143 178.497 446.368 171.947C446.793 171.742 447.031 171.309 446.964 170.866L445.049 158.218C449.891 154.357 454.118 149.743 457.494 144.484C470.475 143.985 471.671 144.828 472.128 143.503C476.819 128.976 477.919 128.58 476.743 127.756L465.871 120.087C466.404 113.97 465.848 107.906 464.318 102.117L473.744 92.9042C474.785 91.8822 473.462 91.4122 466.487 78.0593C465.828 76.8434 465.077 77.7945 451.865 79.2976C447.758 74.7472 442.844 70.7786 437.24 67.612L436.97 54.8447C436.938 53.4274 435.651 53.9794 420.66 49.1641C419.281 48.7464 419.468 49.9101 411.261 59.742C404.743 59.2422 398.288 59.7644 392.119 61.2041L382.308 52.3531C381.962 52.0436 381.446 51.9727 381.025 52.1741L366.498 59.1639C366.073 59.3653 365.831 59.8017 365.898 60.2455L367.817 72.8935C362.971 76.7539 358.748 81.3677 355.372 86.6268C342.387 87.1266 341.191 86.2837 340.738 87.6115C336.047 102.128 334.947 102.527 336.123 103.355L346.995 111.024C346.458 117.141 347.018 123.202 348.548 128.994C339.741 137.968 338.256 138.17 338.935 139.416L346.375 153.052C347.042 154.275 347.857 153.309 360.997 151.814Z" fill="#91B3FA"/>
</g>
<g id="g76">
<path id="path78" d="M394.503 114.826C394.08 121.005 399.087 126.356 405.66 126.756C416.223 127.396 422.425 115.643 415.414 108.147C408.436 100.688 395.192 104.845 394.503 114.826ZM405.496 129.134L405.511 129.141L405.496 129.134ZM389.438 114.521C390.05 105.701 398.139 99.0255 407.533 99.5969C416.923 100.168 424.035 107.767 423.427 116.588C422.818 125.387 414.704 132.08 405.332 131.512C395.96 130.94 388.833 123.321 389.438 114.521Z" fill="#BDD0FB"/>
</g>
<g id="g80">
<path id="path82" d="M320.956 139.477C320.303 137.421 319.726 135.308 319.245 133.205C319.049 132.347 319.63 131.502 320.544 131.318C322.843 130.853 322.516 133.263 324.2 138.567C324.468 139.409 323.956 140.296 323.062 140.544C322.173 140.796 321.228 140.322 320.956 139.477Z" fill="#91B3FA"/>
</g>
<g id="g84">
<path id="path86" d="M414.668 33.7356C414.774 32.8659 415.614 32.2376 416.54 32.3372C421.163 32.8276 425.77 33.6628 430.229 34.816C432.383 35.3638 431.494 38.4364 429.332 37.8771C425.039 36.7699 420.612 35.9653 416.161 35.4941C415.21 35.3906 414.57 34.5899 414.668 33.7356ZM380.118 38.4096C379.693 38.2295 379.351 37.8847 379.208 37.4326C378.93 36.5936 379.432 35.7048 380.326 35.4481C384.761 34.1723 389.339 33.2184 393.937 32.6131C394.863 32.4905 395.716 33.0958 395.846 33.9654C395.977 34.8351 395.332 35.6358 394.406 35.7584C389.987 36.3408 385.585 37.2602 381.317 38.4862C380.905 38.6049 380.481 38.5666 380.118 38.4096ZM348.86 54.5578C348.644 54.4659 348.448 54.328 348.285 54.1479C347.677 53.4813 347.758 52.4775 348.468 51.9067C351.994 49.0755 355.784 46.4818 359.729 44.1984C360.525 43.7387 361.57 43.9724 362.059 44.7195C362.549 45.4665 362.304 46.4435 361.504 46.9032C357.71 49.1023 354.062 51.5964 350.672 54.3241C350.153 54.7379 349.444 54.8107 348.86 54.5578ZM326.999 81.0425C326.159 80.6594 325.812 79.7093 326.22 78.9162C328.248 75.0046 330.622 71.208 333.282 67.6335C334.568 65.9133 337.338 67.7293 336.057 69.4533C333.499 72.8937 331.21 76.5448 329.259 80.3069C328.541 81.6938 326.795 81.0387 326.999 81.0425ZM317.342 112.04C317.529 107.826 318.064 103.439 318.998 99.0489C319.439 96.9839 322.756 97.616 322.319 99.6695C319.896 111.048 321.789 113.81 318.957 113.695C318.015 113.657 317.301 112.914 317.342 112.04Z" fill="#91B3FA"/>
</g>
<g id="g88">
<path id="path90" d="M455.069 49.1459C449.958 45.838 447.707 45.4989 448.85 43.6416C449.324 42.8843 450.339 42.613 451.165 43.0651C453.135 44.1389 455.097 45.3068 456.991 46.5312C457.762 47.0285 457.954 48.0156 457.425 48.739C456.899 49.451 455.856 49.6507 455.069 49.1459Z" fill="#91B3FA"/>
</g>
<g id="g92">
<path id="path94" d="M491.56 105.268C490.774 99.4659 489.546 97.6805 491.78 97.2445C492.697 97.066 493.589 97.6187 493.783 98.4771C494.244 100.575 494.628 102.724 494.917 104.863C495.037 105.735 494.383 106.532 493.454 106.642C492.529 106.755 491.681 106.141 491.56 105.268Z" fill="#91B3FA"/>
</g>
<g id="g96">
<path id="path98" d="M489.012 137.513C492.36 126.382 490.684 123.665 493.491 123.986C494.421 124.092 495.079 124.884 494.967 125.754C494.41 130.021 493.505 134.267 492.266 138.377C492.015 139.22 491.077 139.711 490.179 139.472C489.281 139.233 488.754 138.359 489.012 137.513ZM473.417 168.438C471.225 166.765 474.497 165.953 480.659 156.01C481.782 154.194 484.708 155.788 483.585 157.607C481.291 161.307 478.674 164.871 475.798 168.202C475.21 168.885 474.144 168.987 473.417 168.438ZM445.899 188.897C444.58 186.563 447.921 187.01 457.743 180.125C459.535 178.869 461.563 181.412 459.767 182.672C456.107 185.238 452.21 187.553 448.189 189.56C447.364 189.969 446.339 189.676 445.899 188.897ZM412.042 197.554C411.965 196.68 412.656 195.912 413.59 195.84C425.877 194.891 427.982 192.471 428.647 195.045C428.865 195.898 428.309 196.758 427.4 196.963C422.969 197.967 418.418 198.656 413.863 199.008C412.932 199.076 412.118 198.424 412.042 197.554ZM377.268 193.034C378.147 190.526 380.15 193.106 392.205 194.997C394.408 195.338 393.862 198.479 391.648 198.134C387.141 197.424 382.662 196.383 378.34 195.041C377.468 194.772 376.966 193.878 377.268 193.034Z" fill="#91B3FA"/>
</g>
<g id="g100">
<path id="path102" d="M358.198 185.994C356.272 184.828 354.372 183.578 352.549 182.281C351.809 181.749 351.662 180.752 352.227 180.053C353.65 178.295 355.066 180.317 360.033 183.323C360.817 183.798 361.042 184.781 360.536 185.518C360.023 186.267 358.97 186.463 358.198 185.994Z" fill="#91B3FA"/>
</g>
<g id="g104">
<path id="path106" d="M385.793 149.494C384.4 148.744 384.117 147.267 384.779 146.19C385.483 145.051 387.047 144.663 388.248 145.321C390.498 146.545 392.911 147.547 395.421 148.309C395.968 148.374 408.866 153.205 423.528 146.175C452.607 132.185 449.168 91.8817 418.039 82.4568C400.129 77.0332 380.962 85.2189 373.273 100.886C365.531 116.662 374.283 124.872 368.928 126.033C367.562 126.331 366.2 125.533 365.883 124.251C364.173 117.337 364.502 110.092 366.835 103.3C373.912 82.6795 397.563 71.2504 419.596 77.9204C443.304 85.0968 455.403 110.265 444.769 131.93C436.197 149.404 414.634 159.135 393.864 152.845C391.052 151.994 388.336 150.866 385.793 149.494Z" fill="#BDD0FB"/>
</g>
<g id="g264">
<g id="g266">
<g id="g272">
<path id="path280" d="M216.036 527.749C216.036 527.749 214.621 534.875 213.892 541.934C213.607 544.694 215.85 547.111 218.798 547.253C228.812 547.735 250.24 548.689 257.935 548.435C259.089 548.397 259.858 547.293 259.439 546.278C259.089 545.429 258.405 544.739 257.527 544.351L222.278 528.756L216.036 527.749Z" fill="url(#paint1_linear)"/>
</g>
</g>
</g>
<g id="g282">
<g id="g284">
<path id="path296" d="M214.977 523.547L215.969 532.093C215.969 532.093 222.142 534.859 226.41 531.845L223.937 522.308L214.977 523.547Z" fill="url(#paint2_linear)"/>
</g>
</g>
<g id="g298">
<g id="g300">
<path id="path312" d="M217.42 363.051C216.932 365.277 213.789 474.284 225.703 523.252C225.899 524.051 225.46 524.87 224.648 525.172C222.738 525.885 218.995 526.91 214.522 527.01C213.136 527.041 211.902 526.185 211.524 524.932C208.091 513.565 191.669 456.618 190.001 402.343C188.14 341.696 190.023 400.279 190.023 400.279L191.858 362.817L217.42 363.051Z" fill="url(#paint3_linear)"/>
</g>
</g>
<g id="g314">
<g id="g316">
<path id="path328" d="M175.271 531.109C175.271 531.109 173.096 534.694 170.93 544.249C170.539 545.974 171.809 547.641 173.676 547.83C176.983 548.165 182.071 548.605 186.153 548.615C188.033 548.619 189.516 547.094 189.308 545.339C188.891 541.84 187.541 536.095 183.238 531.588L175.271 531.109Z" fill="url(#paint4_linear)"/>
</g>
</g>
<g id="g330">
<g id="g332">
<path id="path344" d="M173.504 520.111L175.893 533.044C175.893 533.044 178.369 534.807 183.31 533.59L182.249 519.687L173.504 520.111Z" fill="url(#paint5_linear)"/>
</g>
</g>
<g id="g346">
<g id="g348">
<path id="path360" d="M168.261 365.957C157.524 423.389 169.017 508.148 173.016 524.753C173.261 525.77 174.124 526.555 175.216 526.736C177.075 527.041 180.132 527.305 183.16 526.508C184.202 526.234 184.943 525.36 184.994 524.345C185.691 510.955 185.519 428.715 195.308 396.303C195.804 394.661 196.889 393.235 198.381 392.258L216.863 380.167L218.473 360.373L168.261 365.957Z" fill="url(#paint6_linear)"/>
</g>
</g>
<g id="g362">
<g id="g364">
<g id="g370">
<path id="path378" d="M234.048 257.54C203.633 256.797 169.988 264.467 169.988 264.467C160.416 314.066 167.315 371.439 167.315 371.439C190.805 377.445 217.468 368.342 217.468 368.342C221.592 347.611 240.45 289.332 240.45 289.332C255.329 287.735 267.616 283.816 277.752 278.585C270.147 270.144 266.63 259.459 265.119 253.15C254.33 256.191 243.429 257.77 234.048 257.54Z" fill="url(#paint7_linear)"/>
</g>
</g>
</g>
<g id="g380">
<g id="g382">
<g id="g388">
<path id="path396" d="M324.328 216.275C321.375 212.859 317.575 214.429 317.575 214.429C312.918 232.143 289.301 246.33 265.117 253.151C266.627 259.463 270.144 270.146 277.75 278.586C317.985 257.817 324.328 216.275 324.328 216.275Z" fill="url(#paint8_linear)"/>
</g>
</g>
</g>
<g id="g398">
<g id="g400">
<g id="g406">
<path id="path414" d="M323.597 217.129C323.901 218.067 320.265 219.453 318.171 215.619C318.115 213.788 317.01 205.939 318.192 204.46C324.472 196.577 336.598 186.734 336.598 186.734C338.609 188.634 336.914 190.467 336.914 190.467L331.025 196.122C332.225 198.201 333.693 199.962 334.366 202.474C334.875 204.374 334.531 206.398 333.493 208.113C332.452 209.838 331.034 212.075 329.695 213.822C327.162 217.135 323.597 217.129 323.597 217.129Z" fill="url(#paint9_linear)"/>
</g>
</g>
</g>
<g id="g416">
<g id="g418">
<g id="g424">
<path id="path432" d="M328.436 199.799L323.081 203.982L321.367 208.181L326.057 213.156C326.057 213.156 327.735 204.814 328.938 203.017C330.141 201.221 329.535 200.338 328.436 199.799Z" fill="url(#paint10_linear)"/>
</g>
</g>
</g>
<g id="g434">
<g id="g436">
<g id="g442">
<path id="path450" d="M181.377 292.229L169.99 264.467C169.99 264.467 141.392 282.339 136.484 305.284C141.85 305.703 151.607 307.101 161.123 311.721C163.335 300.888 181.377 292.229 181.377 292.229Z" fill="url(#paint11_linear)"/>
</g>
</g>
</g>
<g id="g452">
<g id="g454">
<g id="g460">
<path id="path468" d="M205.943 318.48C205.943 318.48 173.871 335.122 163.254 320.569C161.05 317.551 160.544 314.562 161.125 311.723C151.608 307.103 141.852 305.705 136.486 305.285C135.007 312.202 135.678 319.577 139.939 327.065C158.464 359.621 210.089 325.903 210.089 325.903L205.943 318.48Z" fill="url(#paint12_linear)"/>
</g>
</g>
</g>
<g id="g470">
<g id="g472">
<g id="g478">
<path id="path486" d="M203.475 234.076L193.529 260.272C193.363 260.705 193.551 261.19 193.979 261.415C196.602 262.81 206.065 266.855 217.591 260.137C218.792 259.437 219.615 258.286 219.811 256.971L223.174 234.253L203.475 234.076Z" fill="url(#paint13_linear)"/>
</g>
</g>
</g>
<g id="g488">
<g id="g490">
<g id="g496">
<path id="path504" d="M224.779 209.925C224.779 209.925 235.218 228.808 233.778 236.384C232.339 243.96 219.171 243.297 207.731 237.031L199.898 216.673L224.779 209.925Z" fill="url(#paint14_linear)"/>
</g>
</g>
</g>
<g id="g506">
<g id="g508">
<g id="g514">
<path id="path522" d="M208.339 227.076C208.809 226.887 208.986 226.35 208.71 225.946C207.87 224.717 206.3 222.209 205.815 220.025C205.815 220.025 203.914 218.858 210.704 217.395C217.491 215.934 227.618 213.66 229.799 208.265C231.92 203.007 226.616 189.682 217.831 200.182C217.497 200.581 216.851 200.586 216.526 200.18C215.121 198.428 211.417 194.787 206.2 196.928C201.322 198.931 200.741 202.27 200.791 203.954C200.806 204.451 200.329 204.832 199.811 204.736C197.36 204.273 191.468 203.841 188.658 209.496C186.344 214.152 187.79 216.813 189.12 218.121C189.549 218.545 189.352 219.234 188.754 219.398C187.134 219.85 185.037 221.115 185.209 224.672C185.447 229.585 191.298 229.203 192.966 228.994C193.239 228.96 193.514 229.051 193.696 229.246C195.108 230.74 201.474 237.096 208.427 237.915C209.028 237.989 209.501 237.432 209.311 236.893L206.381 228.644C206.246 228.26 206.444 227.844 206.838 227.683L208.339 227.076Z" fill="url(#paint15_linear)"/>
</g>
</g>
</g>
<g id="g524">
<g id="g526">
<g id="g532">
<path id="path540" d="M209.543 228.252C209.543 228.252 202.023 223.308 201.428 227.408C200.834 231.512 208.183 233.418 211.848 231.919L209.543 228.252Z" fill="url(#paint16_linear)"/>
</g>
</g>
</g>
<g id="g542">
<g id="g544">
<g id="g550">
<path id="path558" d="M199.391 344.783L216.859 287.491C217.057 286.84 217.649 286.365 218.365 286.287C221.532 285.94 230.705 284.967 241.295 284.125C254.053 283.111 268.865 282.292 277.718 282.989C278.979 283.088 279.739 284.339 279.177 285.401C274.143 294.964 253.437 333.866 243.066 346.61C242.724 347.032 242.192 347.277 241.625 347.275L201.089 346.919C199.909 346.908 199.066 345.848 199.391 344.783Z" fill="url(#paint17_linear)"/>
</g>
</g>
</g>
<g id="g560">
<g id="g562">
<g id="g568">
<path id="path576" d="M203.608 330.941C203.608 330.941 201.174 321.543 202.155 318.211C203.139 314.876 205.041 310.59 211.381 311.541C217.721 312.495 225.2 315.003 225.2 315.003C225.2 315.003 224.821 319.344 220.004 317.944L222.991 320.115C222.991 320.115 222.567 323.594 218.494 321.734L221.274 324.613C221.274 324.613 219.526 327.469 216.529 325.638C213.538 323.808 212.103 332.073 203.608 330.941Z" fill="url(#paint18_linear)"/>
</g>
</g>
</g>
<g id="g578">
<path id="path580" d="M240.129 301.229C240.129 303.888 242.424 306.043 245.256 306.043C248.088 306.043 250.386 303.888 250.386 301.229C250.386 298.57 248.088 296.413 245.256 296.413C242.424 296.413 240.129 298.57 240.129 301.229Z" fill="#91B3FA"/>
</g>
<g id="g582">
<path id="path584" d="M218.838 304.402L217.531 304.038L221.085 292.709C221.666 290.862 223.253 289.476 225.227 289.09C236.502 286.882 266.198 286.432 267.456 286.412L267.478 287.693C267.17 287.698 236.654 288.161 225.503 290.344C224.023 290.635 222.83 291.678 222.394 293.073L218.838 304.402Z" fill="#91B3FA"/>
</g>
<path id="path586" d="M12.0595 464.739C10.197 467.328 2.79488 525.917 1.63632 547.558C1.55789 549.02 2.80454 550.241 4.3649 550.241C5.71061 550.241 6.85563 549.321 7.06341 548.072L20.6026 466.603L12.0595 464.739Z" fill="#7D97F4"/>
<path id="path588" d="M71.5741 464.739C73.4366 467.328 80.8387 525.917 81.9973 547.558C82.0757 549.02 80.8292 550.241 79.2685 550.241C77.923 550.241 76.7777 549.321 76.5704 548.072L63.0312 466.603L71.5741 464.739Z" fill="#7D97F4"/>
<path id="path590" d="M0.862262 460.167L0.855821 460.805C0.811129 465.403 5.0285 469.171 10.309 469.256L72.8894 470.257C78.0939 470.34 82.4322 466.809 82.6849 462.284L82.7174 461.698C82.9808 456.979 78.7125 453.003 73.285 452.912L10.678 451.857C5.31943 451.768 0.907384 455.503 0.862262 460.167Z" fill="#7D97F4"/>
<path id="path592" d="M132.693 545.43C121.567 545.43 116.646 544.534 114.445 543.717C114.873 545.432 116.5 546.786 118.557 546.786H157.912C159.237 546.786 160.073 545.595 159.757 544.516C155.271 544.855 145.742 545.43 132.693 545.43Z" fill="#91B3FA"/>
<g id="g594">
<g id="g596">
<path id="path608" d="M159.753 544.515C159.688 544.299 159.594 544.085 159.431 543.888C156.431 540.292 150.411 534.65 142.218 534.759C130.218 534.916 126.034 536.139 116.708 534.825L114.507 541.672C114.283 542.37 114.279 543.069 114.441 543.716C116.642 544.533 121.563 545.429 132.689 545.429C145.737 545.429 155.267 544.854 159.753 544.515Z" fill="url(#paint19_linear)"/>
</g>
</g>
<g id="g610">
<g id="g612">
<path id="path624" d="M119.411 527.447L116.711 536.071C116.711 536.071 122.694 538.628 127.956 536.576L128.99 529.103L119.411 527.447Z" fill="url(#paint20_linear)"/>
</g>
</g>
<path id="path626" d="M200.98 539.998C192.308 546.541 187.875 548.74 185.617 549.402C187.089 550.481 189.257 550.574 190.86 549.366L221.538 526.218C222.572 525.439 222.434 524.023 221.472 523.371C218.199 526.272 211.152 532.323 200.98 539.998Z" fill="#91B3FA"/>
<g id="g628">
<g id="g630">
<path id="path642" d="M221.473 523.372C221.277 523.241 221.063 523.132 220.803 523.075C216.08 522.048 207.638 521.213 201.325 526.114C192.075 533.296 189.626 536.704 181.484 541.171L184.314 547.778C184.604 548.45 185.062 548.995 185.618 549.402C187.877 548.74 192.309 546.541 200.981 539.998C211.153 532.324 218.201 526.273 221.473 523.372Z" fill="url(#paint21_linear)"/>
</g>
</g>
<g id="g644">
<g id="g646">
<path id="path658" d="M61.6426 429.188C61.6426 429.188 128.245 434.294 141.908 440.335C155.571 446.373 130.759 531.02 130.759 531.02C130.759 531.02 127.04 532.701 118.763 530.286C118.763 530.286 127.25 467.82 120.933 454.274L48.8203 443.198L61.6426 429.188Z" fill="url(#paint22_linear)"/>
</g>
</g>
<g id="g660">
<g id="g662">
<path id="path674" d="M174.863 529.281C175.482 529.81 181.481 541.17 181.481 541.17C181.481 541.17 188.159 539.815 189.521 535.846L183.512 525.591L174.863 529.281Z" fill="url(#paint23_linear)"/>
</g>
</g>
<g id="g676">
<g id="g678">
<path id="path690" d="M21.5261 428.665C21.5261 428.665 19.3555 433.57 19.444 440.087C19.5665 449.099 27.283 456.413 36.8698 456.861L115.605 460.232C117.268 460.305 118.675 461.384 119.092 462.897C120.942 469.618 129.985 490.253 174.192 531.432C175.369 532.527 177.202 532.713 178.601 531.884L184.894 528.151C185.556 527.758 185.767 526.945 185.371 526.311L139.528 452.803C137.119 449.071 133.249 446.375 128.748 445.296L61.6403 429.188L21.5261 428.665Z" fill="url(#paint24_linear)"/>
</g>
</g>
<g id="g692">
<g id="g694">
<g id="g700">
<path id="path708" d="M99.12 313.839C99.12 313.839 90.6854 327.842 82.0859 334.626L99.8607 343.938C99.8607 343.938 103.866 329.114 113.017 324.773L99.12 313.839Z" fill="url(#paint25_linear)"/>
</g>
</g>
</g>
<g id="g710">
<g id="g712">
<path id="path724" d="M20.0938 429.188C20.0938 429.188 41.3495 434.052 61.6382 429.188C61.6382 429.188 90.0279 393.354 101.011 383.599C101.011 383.599 118.531 409.559 157.525 413.237L159.699 408.673C159.699 408.673 128.656 395.236 119.098 374.588C109.542 353.943 105.704 345.136 97.0089 339.749C91.5939 336.394 88.3515 334.102 86.6762 332.851C85.7588 332.165 84.4926 332.088 83.4917 332.659C74.2643 337.939 30.8467 365.862 20.0938 429.188Z" fill="url(#paint26_linear)"/>
</g>
</g>
<g id="g726">
<g id="g728">
<path id="path740" d="M99.8618 383.094C99.4522 383.094 99.0474 382.921 98.7793 382.592C92.0101 374.306 88.2403 365.17 88.083 364.787C87.8134 364.125 88.1643 363.387 88.8673 363.132C89.5716 362.878 90.3585 363.209 90.6288 363.869C90.6659 363.96 94.4227 373.051 100.943 381.034C101.401 381.597 101.288 382.398 100.691 382.83C100.443 383.007 100.151 383.094 99.8618 383.094Z" fill="url(#paint27_linear)"/>
</g>
</g>
<g id="g742">
<g id="g744">
<path id="path756" d="M155.184 406.29L159.573 405.191L172.899 402.293C174.504 401.944 176.191 402.213 177.583 403.036L189.042 409.805L157.399 409.754L155.184 406.29Z" fill="url(#paint28_linear)"/>
</g>
</g>
<g id="g758">
<g id="g760">
<g id="g766">
<path id="path774" d="M112.51 292.841C112.51 292.841 120.707 305.635 122.129 312.707C123.552 319.779 125.836 324.201 117.264 326.717C108.693 329.237 100.727 326.049 95.7277 319.448C95.7277 319.448 87.9205 309.291 88.6991 304.637C89.478 299.985 112.51 292.841 112.51 292.841Z" fill="url(#paint29_linear)"/>
</g>
</g>
</g>
<g id="g776">
<g id="g778">
<g id="g784">
<path id="path792" d="M98.0122 313.973L99.1211 313.835C99.1211 313.835 93.3168 305.601 97.115 303.558C100.913 301.516 116.39 296.5 119.077 290.78C121.668 285.262 117.792 279.028 113.12 277.728C112.824 277.644 112.512 277.807 112.405 278.081L112.13 278.774C111.942 279.251 111.233 279.272 111.017 278.805C110.811 278.365 110.139 278.344 109.927 278.784C109.099 280.497 106.616 283.427 99.1731 285.692C88.6122 288.906 82.0335 293.908 82.8435 300.951C82.8945 301.4 82.4225 301.707 81.9852 301.525C81.1219 301.167 79.8132 301.111 78.2934 302.672C75.6507 305.388 77.7209 311.322 84.9387 315.526C85.2817 315.724 85.3429 316.179 85.0363 316.426C83.9564 317.293 82.4374 319.23 87.3208 320.956C92.3166 322.72 95.0425 322.123 96.0499 321.744C96.3211 321.642 96.4758 321.379 96.4199 321.107L95.1369 314.933C95.0705 314.614 95.3048 314.307 95.648 314.266L98.0122 313.973Z" fill="url(#paint30_linear)"/>
</g>
</g>
</g>
<g id="g794">
<g id="g796">
<g id="g802">
<path id="path810" d="M98.4672 315.244C98.4672 315.244 94.8501 306.871 91.0511 309.816C87.2523 312.756 94.5626 319.263 97.9367 319.175L98.4672 315.244Z" fill="url(#paint31_linear)"/>
</g>
</g>
</g>
<g id="g812">
<g id="g814">
<path id="path826" d="M142.959 415.634C143.01 415.636 143.062 415.638 143.116 415.638L210.716 415.573C212.388 415.573 213.742 414.302 213.739 412.734C213.737 411.169 212.377 409.873 210.71 409.902L143.107 409.964C141.437 409.966 140.084 411.237 140.086 412.803C140.088 414.322 141.36 415.559 142.959 415.634Z" fill="url(#paint32_linear)"/>
</g>
</g>
<g id="g828">
<g id="g830">
<path id="path842" d="M236.897 353.468C236.872 353.513 236.85 353.555 236.829 353.6L208.384 411.185C207.68 412.609 208.337 414.296 209.85 414.956C211.365 415.615 213.189 415.002 213.864 413.572L242.308 355.986C243.012 354.562 242.355 352.875 240.842 352.216C239.375 351.578 237.643 352.139 236.897 353.468Z" fill="url(#paint33_linear)"/>
</g>
</g>
<g id="g844">
<path id="path846" d="M413.915 545.96H406.781V473.505H413.915V545.96Z" fill="#7D97F4"/>
</g>
<g id="g848">
<path id="path850" d="M441.594 547.356H379.102C379.102 544.947 381.182 542.996 383.745 542.996H436.951C439.517 542.996 441.594 544.947 441.594 547.356Z" fill="#7D97F4"/>
</g>
<g id="g852">
<path id="path854" d="M450.876 470.991C450.876 474.953 447.425 478.195 443.203 478.195H379.978C375.756 478.195 372.305 474.953 372.305 470.991V464.476C372.305 460.514 375.756 457.272 379.978 457.272H443.203C447.425 457.272 450.876 460.514 450.876 464.476V470.991Z" fill="#7D97F4"/>
</g>
<g id="g856">
<g id="g858">
<g id="g864">
<path id="path872" d="M357.678 425.197C357.678 425.197 347.077 426.74 335.154 434.222C333.279 435.4 332.25 437.454 332.53 439.556C333.96 450.173 339.828 484.534 359.182 518.096C360.202 519.865 360.494 521.927 360.046 523.894L356.681 538.586L350.447 544.075H366.507L377.199 516.903L372.628 515.545C369.081 514.492 366.648 511.432 366.586 507.939L366.049 478.792C366.507 465.804 357.569 456.845 357.569 456.845L383.218 455.674L357.678 425.197Z" fill="url(#paint34_linear)"/>
</g>
</g>
</g>
<g id="g874">
<g id="g876">
<g id="g882">
<path id="path890" d="M344.178 546.726C342.714 548.524 359.92 550.894 368.611 546.964C368.611 546.964 380.66 527.279 380.66 517.143C380.66 517.143 379.704 515.077 372.629 515.545C372.629 515.545 368.581 538.854 364.311 541.464C360.04 544.075 352.361 541.729 352.361 541.729C352.361 541.729 346.336 544.073 344.178 546.726Z" fill="url(#paint35_linear)"/>
</g>
</g>
</g>
<g id="g892">
<g id="g894">
<g id="g900">
<path id="path908" d="M379.974 457.272C379.837 457.05 352.36 454.169 352.36 454.169C352.36 454.169 353.259 462.015 350.448 472.813C347.636 483.613 307.292 530.403 307.292 530.403L311.522 542.996C298.444 547.274 285.577 547.957 272.918 545.175L299.132 530.403C299.132 530.403 323.668 451.893 338.7 437.885L366.243 428.937L379.974 457.272Z" fill="url(#paint36_linear)"/>
</g>
</g>
</g>
<g id="g910">
<g id="g912">
<g id="g918">
<path id="path926" d="M441.594 411.587C441.594 411.587 457.429 433.7 458.726 443.786C460.026 453.872 454.391 457.97 437.778 458.646C421.169 459.321 376.823 459.311 376.823 459.311L338.973 428.937C338.973 428.937 366.556 419.696 373.724 417.084C380.899 414.469 441.594 411.587 441.594 411.587Z" fill="url(#paint37_linear)"/>
</g>
</g>
</g>
<g id="g928">
<g id="g930">
<g id="g936">
<path id="path944" d="M309.922 538.755C309.922 538.755 314.476 542.897 311.4 547.505C311.4 547.505 275.323 553.509 265.527 550.785C265.527 550.785 267.562 546.426 278.589 541.465L277.777 542.052C276.746 542.794 277.35 544.34 278.647 544.271C285.915 543.882 300.956 542.631 309.922 538.755Z" fill="url(#paint38_linear)"/>
</g>
</g>
</g>
<g id="g946">
<g id="g948">
<g id="g954">
<path id="path962" d="M373.022 271.366C405.383 266.198 420.618 290.982 419.504 296.191C419.36 296.88 420.049 297.466 420.776 297.283C424.49 296.343 432.699 295.158 437.788 301.147C442.277 306.431 438.923 311.422 436.183 314.159C435.525 314.819 436.08 315.891 437.037 315.778C443.868 314.97 458.709 314.777 461.137 327.83C463.403 340.005 454.378 343.439 449.025 344.408C448.123 344.571 447.911 345.689 448.686 346.153C451.357 347.743 454.453 351.031 453.202 357.518C451.24 367.684 430.014 366.853 427.535 366.72C427.377 366.712 427.23 366.669 427.092 366.595L393.089 348.386C392.825 348.245 392.64 347.999 392.589 347.716L385.723 310.491C385.669 310.188 385.768 309.883 385.994 309.66L363.825 280.288C355.78 279.177 372.638 271.427 373.022 271.366Z" fill="url(#paint39_linear)"/>
</g>
</g>
</g>
<g id="g964">
<g id="g966">
<g id="g972">
<path id="path980" d="M398.786 408.662C398.786 408.662 380.349 392.177 371.273 381.26C366.37 375.358 364.827 367.588 367.095 360.412C371.239 347.304 378.602 333.731 379.276 331.614C380.304 328.378 400.975 328.512 400.975 328.512C400.975 328.512 441.653 353.302 457.634 395.294L439.688 400.541C439.688 400.541 429.066 383.81 418.571 373.171C418.571 373.171 436.728 395.695 437.369 404.917L398.786 408.662Z" fill="url(#paint40_linear)"/>
</g>
</g>
</g>
<g id="g982">
<g id="g984">
<g id="g990">
<path id="path998" d="M376.773 313.517C376.99 314.19 382.386 330.986 382.807 331.333C383.228 331.682 394.639 332.258 400.011 328.811L386.686 304.344L376.773 313.517Z" fill="url(#paint41_linear)"/>
</g>
</g>
</g>
<g id="g1000">
<g id="g1002">
<g id="g1008">
<path id="path1016" d="M355.139 291.938C355.139 291.938 352.53 301.559 359.748 314.5C366.959 327.441 375.127 327.427 379.593 323.284C384.055 319.141 389.558 312.112 388.253 299.602C386.944 287.09 358.904 279.7 355.139 291.938Z" fill="url(#paint42_linear)"/>
</g>
</g>
</g>
<g id="g1018">
<g id="g1020">
<g id="g1026">
<path id="path1034" d="M378.279 300.282C378.279 300.282 366.306 283.1 355.085 296.624L354.882 301.54C354.882 301.54 341.736 300.075 344.036 288.758C346.335 277.439 357.699 270.364 372.329 275.268C386.959 280.17 395.342 285.2 396.287 295.042C397.232 304.888 388.889 302.729 388.889 302.729C388.889 302.729 386.168 295.796 382.299 295.077C378.431 294.357 379.436 299.762 379.436 299.762L378.279 300.282Z" fill="url(#paint43_linear)"/>
</g>
</g>
</g>
<g id="g1036">
<g id="g1038">
<g id="g1044">
<path id="path1052" d="M381.339 300.051C381.339 300.051 375.131 291.252 381.493 289.941C387.856 288.627 386.867 298.515 386.181 302.171L381.339 300.051Z" fill="url(#paint44_linear)"/>
</g>
</g>
</g>
<g id="g1054">
<g id="g1056">
<g id="g1062">
<path id="path1070" d="M361.223 409.885L374.768 397.627L393.505 405.059C393.505 405.059 412.159 407.773 422.833 405.059C433.507 402.346 433.507 402.346 433.507 402.346L457.63 395.294L461.421 405.348C462.379 407.9 461.415 410.735 459.064 412.302C456.975 413.696 454.529 415.226 452.971 415.867C449.794 417.172 374.658 414.963 374.658 414.963L361.223 409.885Z" fill="url(#paint45_linear)"/>
</g>
</g>
</g>
<g id="g1072">
<g id="g1074">
<g id="g1080">
<path id="path1088" d="M412.483 415.665C412.424 415.667 412.364 415.669 412.304 415.669L333.729 415.588C331.786 415.586 330.215 414.105 330.215 412.282C330.218 410.458 331.799 408.951 333.735 408.983L412.31 409.064C414.253 409.066 415.824 410.546 415.821 412.37C415.821 414.135 414.341 415.578 412.483 415.665Z" fill="url(#paint46_linear)"/>
</g>
</g>
</g>
<g id="g1090">
<g id="g1092">
<g id="g1098">
<path id="path1106" d="M263.095 348.678H328.532C333.357 348.678 337.751 351.293 339.813 355.392L370.064 415.624H288.742C285.633 415.624 282.837 413.841 281.692 411.123L258.233 355.387C256.88 352.169 259.407 348.678 263.095 348.678Z" fill="url(#paint47_linear)"/>
</g>
</g>
</g>
<g id="g1108">
<path id="path1110" d="M309.196 379.561C310.613 383.699 309.564 387.716 306.855 388.534C304.144 389.352 300.796 386.663 299.379 382.528C297.96 378.391 299.006 374.373 301.72 373.553C304.429 372.735 307.776 375.424 309.196 379.561Z" fill="#7D97F4"/>
</g>
<g id="g1112">
<g id="g1114">
<g id="g1120">
<path id="path1128" d="M502.062 538.225C502.062 538.225 502.887 542.524 503.212 547.629C503.352 549.804 501.634 551.692 499.328 551.904C491.283 552.636 472.979 553.988 461.29 552.404C459.65 552.182 459.001 550.294 460.21 549.235C465.03 545.018 476.671 536.817 495.827 535.023L502.062 538.225Z" fill="url(#paint48_linear)"/>
</g>
</g>
</g>
<g id="g1130">
<g id="g1132">
<g id="g1138">
<path id="path1146" d="M506.064 528.532L501.995 537.89C501.439 539.172 500.055 539.97 498.585 539.826C497.592 539.727 496.411 539.548 495.264 539.221C492.972 538.567 491.676 536.283 492.364 534.127L495.434 524.487L506.064 528.532Z" fill="url(#paint49_linear)"/>
</g>
</g>
</g>
<g id="g1148">
<g id="g1150">
<g id="g1156">
<path id="path1164" d="M575.58 545.677C575.58 545.677 567.44 552.075 564.267 560.281C563.392 562.538 565.239 564.915 567.798 564.915H584.552C587.001 564.915 588.883 562.843 588.458 560.575C587.389 554.91 584.312 545.701 575.58 545.677Z" fill="url(#paint50_linear)"/>
</g>
</g>
</g>
<g id="g1166">
<g id="g1168">
<g id="g1174">
<path id="path1182" d="M585.664 537.354C585.664 537.354 584.017 544.189 582.756 548.706C582.525 549.525 581.591 549.975 580.744 549.691C578.209 548.839 576.143 548.462 574.642 548.652C573.951 548.738 573.347 548.198 573.335 547.54L573.18 536.187L585.664 537.354Z" fill="url(#paint51_linear)"/>
</g>
</g>
</g>
<g id="g1184">
<g id="g1186">
<g id="g1192">
<path id="path1200" d="M542.36 383.538L492.836 525.413C492.836 525.413 502.336 531.254 506.86 531.012L565.687 416.992C565.687 416.992 575.981 487.247 570.993 537.684L587.841 538.893C587.841 538.893 615.237 409.997 594.486 365.851L542.36 383.538Z" fill="url(#paint52_linear)"/>
</g>
</g>
</g>
<g id="g1202">
<g id="g1204">
<g id="g1210">
<path id="path1218" d="M565.373 415.766C565.39 415.766 565.414 415.764 565.43 415.762C565.695 415.73 565.882 415.506 565.845 415.259L563.925 400.935C563.892 400.687 563.656 400.515 563.392 400.544C563.127 400.574 562.94 400.8 562.972 401.046L564.893 415.371C564.926 415.598 565.133 415.766 565.373 415.766Z" fill="url(#paint53_linear)"/>
</g>
</g>
</g>
<g id="g1220">
<g id="g1222">
<g id="g1228">
<path id="path1236" d="M533.079 258.696C533.079 258.696 573.202 262.041 567.527 288.887C567.527 288.887 589.709 328.082 600.075 374.254C600.417 375.757 599.343 377.222 597.734 377.48L530.905 388.223C529.065 388.52 527.289 387.44 526.818 385.74L510.85 327.8L504.627 354.738L484.863 349.902L501.503 270.741C501.503 270.741 503.827 259.192 533.079 258.696Z" fill="url(#paint54_linear)"/>
</g>
</g>
</g>
<g id="g1238">
<path id="path1240" d="M510.511 325.207C510.544 325.207 510.582 325.203 510.619 325.197C510.884 325.142 511.056 324.892 510.996 324.64L505.426 300.626C505.367 300.374 505.105 300.212 504.833 300.269C504.568 300.321 504.396 300.57 504.452 300.822L510.025 324.84C510.078 325.058 510.279 325.207 510.511 325.207Z" fill="#91B3FA"/>
</g>
<g id="g1242">
<g id="g1244">
<g id="g1250">
<path id="path1258" d="M514.545 396.673C516.648 395.585 519.113 395.285 521.447 395.829L526.094 396.917C527.08 397.147 528.062 396.509 528.177 395.557L532.987 355.347C539.002 358.028 547.68 357.71 550.543 357.512L539.471 404.918H500.719L514.545 396.673Z" fill="url(#paint55_linear)"/>
</g>
</g>
</g>
<g id="g1260">
<g id="g1262">
<g id="g1268">
<path id="path1276" d="M411.586 309.447L412.757 305.795C413.433 303.69 415.088 301.99 417.259 301.172L438.443 293.17C438.443 293.17 438.761 290.618 433.966 288.887C429.172 287.153 430.291 282.11 430.291 282.11C430.291 282.11 436.844 284.916 446.436 289.366C451.921 291.911 454.998 296.406 456.631 299.788L504.631 354.737L498.998 358.373C491.584 363.154 481.394 360.806 477.183 353.347L451.175 306.524C438.122 310.206 424.913 310.912 411.586 309.447Z" fill="url(#paint56_linear)"/>
</g>
</g>
</g>
<g id="g1278">
<g id="g1280">
<g id="g1286">
<path id="path1294" d="M520.08 233.062L532.422 265.493C532.422 265.493 521.49 273.519 513.518 270.805L507.297 252.213C507.297 252.213 512.05 229.492 520.08 233.062Z" fill="url(#paint57_linear)"/>
</g>
</g>
</g>
<g id="g1296">
<g id="g1298">
<g id="g1304">
<path id="path1312" d="M483.242 221.412C483.242 221.913 495.132 253.013 495.132 253.013L513.9 246.262L507.295 215.214C507.295 215.214 483.242 213.045 483.242 221.412Z" fill="url(#paint58_linear)"/>
</g>
</g>
</g>
<g id="g1314">
<g id="g1316">
<g id="g1322">
<path id="path1330" d="M504.002 222.776L508.84 238.866C508.905 239.077 508.935 239.284 508.935 239.498C508.939 240.808 508.593 245.325 503.694 244.712C499.248 244.155 495.185 243.705 492.601 244.851C491.438 245.361 490.883 246.617 491.317 247.752C492.396 250.575 494.957 256.901 498.077 262.076C498.712 263.128 500.099 263.535 501.266 263.036C504.793 261.53 512.131 258.158 517.36 254.15C518.067 253.604 518.409 252.751 518.238 251.906C517.417 247.788 514.966 235.273 514.86 231.687C514.757 228.318 518.782 225.749 520.552 224.782C521.134 224.464 521.544 223.943 521.704 223.329C522.259 221.16 522.734 216.257 516.068 215.175C514.673 214.95 513.765 213.694 514.046 212.392C514.613 209.801 514.43 205.986 509.19 204.58C503.862 203.153 500.51 206.165 498.803 208.474C498.115 209.409 496.823 209.712 495.721 209.248C495.09 208.984 494.33 208.973 493.513 209.619C492.411 210.49 490.739 210.226 489.93 209.105C488.379 206.961 485.555 204.816 480.775 206.268C472.296 208.845 472.703 218.023 475.811 223.015C478.916 228.004 487.942 224.721 492.214 221.413C495.463 218.901 500.407 220.403 502.592 221.267C503.284 221.541 503.797 222.098 504.002 222.776Z" fill="url(#paint59_linear)"/>
</g>
</g>
</g>
<g id="g1332">
<g id="g1334">
<g id="g1340">
<path id="path1348" d="M516.561 237.559C516.561 237.559 511.542 228.643 514.861 225.845C518.176 223.047 523.801 223.505 523.648 230.475C523.462 239.144 516.561 237.559 516.561 237.559Z" fill="url(#paint60_linear)"/>
</g>
</g>
</g>
<g id="g1350">
<path id="path1352" d="M546.655 358.114C549.392 358.114 551.343 357.921 551.559 357.899L551.914 357.86L566.526 293.895C566.583 293.643 566.412 293.393 566.143 293.34C565.87 293.284 565.61 293.447 565.553 293.697L551.091 357.001C548.915 357.18 537.305 357.904 531.174 353.827L543.835 298.251L541.192 293.576C541.065 293.348 540.76 293.261 540.519 293.382C540.275 293.504 540.181 293.786 540.312 294.014L542.784 298.39L530.07 354.221L530.327 354.398C534.755 357.523 541.888 358.114 546.655 358.114Z" fill="#91B3FA"/>
</g>
<g id="g1354">
<g id="g1356">
<path id="path1368" d="M108.623 553.14C108.288 553.14 107.947 553.072 107.619 552.929C106.327 552.358 105.73 550.824 106.286 549.501L159.677 422.293C160.232 420.97 161.729 420.358 163.023 420.927C164.314 421.498 164.909 423.032 164.355 424.355L110.963 551.563C110.549 552.549 109.61 553.14 108.623 553.14Z" fill="url(#paint61_linear)"/>
</g>
</g>
<g id="g1370">
<g id="g1372">
<path id="path1384" d="M168.77 553.14C167.784 553.14 166.845 552.549 166.43 551.563L113.04 424.355C112.484 423.032 113.081 421.498 114.372 420.927C115.663 420.358 117.161 420.97 117.716 422.293L171.108 549.501C171.664 550.824 171.067 552.358 169.776 552.929C169.447 553.072 169.105 553.14 168.77 553.14Z" fill="url(#paint62_linear)"/>
</g>
</g>
<g id="g1386">
<g id="g1388">
<g id="g1394">
<path id="path1402" d="M470.978 553.14C470.641 553.14 470.3 553.072 469.974 552.929C468.683 552.358 468.086 550.824 468.641 549.501L522.031 422.293C522.587 420.969 524.084 420.358 525.375 420.927C526.67 421.498 527.268 423.032 526.708 424.355L473.318 551.563C472.905 552.549 471.966 553.14 470.978 553.14Z" fill="url(#paint63_linear)"/>
</g>
</g>
</g>
<g id="g1404">
<g id="g1406">
<g id="g1412">
<path id="path1420" d="M531.123 553.141C530.135 553.141 529.198 552.549 528.78 551.563L475.39 424.356C474.837 423.032 475.433 421.499 476.726 420.928C478.016 420.359 479.514 420.97 480.071 422.294L533.461 549.501C534.015 550.825 533.419 552.358 532.126 552.929C531.8 553.072 531.46 553.141 531.123 553.141Z" fill="url(#paint64_linear)"/>
</g>
</g>
</g>
<g id="g1422">
<path id="path1424" d="M463.23 413.309H540.559V405.816H463.23C464.882 405.816 464.882 413.309 463.23 413.309Z" fill="#91B3FA"/>
</g>
<g id="g1426">
<g id="g1428">
<g id="g1434">
<path id="path1442" d="M539.834 413.309C540.234 413.309 540.559 413.002 540.559 412.627V406.497C540.559 406.122 540.234 405.815 539.834 405.815H461.596C461.2 405.815 460.871 405.509 460.871 405.133V404.803C460.871 404.427 461.2 404.121 461.596 404.121H544.988C546.835 404.121 548.328 405.525 548.328 407.256V412.046C548.328 413.68 546.918 415.003 545.179 415.003H461.596C461.2 415.003 460.871 414.697 460.871 414.321V413.991C460.871 413.615 461.2 413.309 461.596 413.309H539.834Z" fill="url(#paint65_linear)"/>
</g>
</g>
</g>
<g id="g1444">
<g id="g1446">
<g id="g1452">
<path id="path1460" d="M551.772 418.361C552.031 417.524 551.677 416.658 550.808 416.002C549.936 415.344 548.641 414.963 547.271 414.963H83.9181C82.1196 414.963 80.4446 415.534 79.4758 416.479C78.5062 417.423 78.3763 418.609 79.1308 419.626L84.1519 426.395C85.302 427.944 87.7932 428.937 90.5346 428.937H544.092C546.641 428.937 548.836 427.811 549.318 426.252L551.772 418.361Z" fill="url(#paint66_linear)"/>
</g>
</g>
</g>
</g>
<defs>
<filter id="filter0_d" x="0" y="0.000244141" width="607.254" height="569.915" filterUnits="userSpaceOnUse" color-interpolation-filters="sRGB">
<feFlood flood-opacity="0" result="BackgroundImageFix"/>
<feColorMatrix in="SourceAlpha" type="matrix" values="0 0 0 0 0 0 0 0 0 0 0 0 0 0 0 0 0 0 127 0"/>
<feOffset dx="3" dy="3"/>
<feGaussianBlur stdDeviation="1"/>
<feColorMatrix type="matrix" values="0 0 0 0 0 0 0 0 0 0 0 0 0 0 0 0 0 0 0.27 0"/>
<feBlend mode="normal" in2="BackgroundImageFix" result="effect1_dropShadow"/>
<feBlend mode="normal" in="SourceGraphic" in2="effect1_dropShadow" result="shape"/>
</filter>
<linearGradient id="paint0_linear" x1="1444.67" y1="802.28" x2="458.874" y2="-501.563" gradientUnits="userSpaceOnUse">
<stop stop-color="#DAE3FE"/>
<stop offset="1" stop-color="#E9EFFD"/>
</linearGradient>
<linearGradient id="paint1_linear" x1="263.991" y1="515.568" x2="139.369" y2="657.203" gradientUnits="userSpaceOnUse">
<stop stop-color="#09005D"/>
<stop offset="1" stop-color="#1A0F91"/>
</linearGradient>
<linearGradient id="paint2_linear" x1="214.934" y1="527.711" x2="226.449" y2="527.827" gradientUnits="userSpaceOnUse">
<stop stop-color="#FEBBBA"/>
<stop offset="1" stop-color="#FF928E"/>
</linearGradient>
<linearGradient id="paint3_linear" x1="268.846" y1="368.59" x2="165.92" y2="514.24" gradientUnits="userSpaceOnUse">
<stop stop-color="#09005D"/>
<stop offset="1" stop-color="#1A0F91"/>
</linearGradient>
<linearGradient id="paint4_linear" x1="228.286" y1="492.886" x2="106.038" y2="631.832" gradientUnits="userSpaceOnUse">
<stop stop-color="#09005D"/>
<stop offset="1" stop-color="#1A0F91"/>
</linearGradient>
<linearGradient id="paint5_linear" x1="173.437" y1="526.785" x2="183.38" y2="526.886" gradientUnits="userSpaceOnUse">
<stop stop-color="#FEBBBA"/>
<stop offset="1" stop-color="#FF928E"/>
</linearGradient>
<linearGradient id="paint6_linear" x1="249.321" y1="354.792" x2="146.396" y2="500.441" gradientUnits="userSpaceOnUse">
<stop stop-color="#09005D"/>
<stop offset="1" stop-color="#1A0F91"/>
</linearGradient>
<linearGradient id="paint7_linear" x1="-264.258" y1="-663.912" x2="-150.932" y2="-454.716" gradientUnits="userSpaceOnUse">
<stop stop-color="#FF928E"/>
<stop offset="1" stop-color="#FE7062"/>
</linearGradient>
<linearGradient id="paint8_linear" x1="390.665" y1="103.926" x2="469.857" y2="104.727" gradientUnits="userSpaceOnUse">
<stop stop-color="#FEBBBA"/>
<stop offset="1" stop-color="#FF928E"/>
</linearGradient>
<linearGradient id="paint9_linear" x1="486.288" y1="57.1489" x2="434.431" y2="179.629" gradientUnits="userSpaceOnUse">
<stop stop-color="#FEBBBA"/>
<stop offset="1" stop-color="#FF928E"/>
</linearGradient>
<linearGradient id="paint10_linear" x1="488.271" y1="34.9499" x2="509.515" y2="0.878335" gradientUnits="userSpaceOnUse">
<stop stop-color="#FEBBBA"/>
<stop offset="1" stop-color="#FF928E"/>
</linearGradient>
<linearGradient id="paint11_linear" x1="-300.864" y1="-604.516" x2="-190.716" y2="-401.187" gradientUnits="userSpaceOnUse">
<stop stop-color="#FF928E"/>
<stop offset="1" stop-color="#FE7062"/>
</linearGradient>
<linearGradient id="paint12_linear" x1="151.654" y1="300.234" x2="231.216" y2="301.038" gradientUnits="userSpaceOnUse">
<stop stop-color="#FEBBBA"/>
<stop offset="1" stop-color="#FF928E"/>
</linearGradient>
<linearGradient id="paint13_linear" x1="276.573" y1="132.607" x2="314.405" y2="132.99" gradientUnits="userSpaceOnUse">
<stop stop-color="#FEBBBA"/>
<stop offset="1" stop-color="#FF928E"/>
</linearGradient>
<linearGradient id="paint14_linear" x1="347.693" y1="79.2101" x2="305.557" y2="51.2519" gradientUnits="userSpaceOnUse">
<stop stop-color="#FEBBBA"/>
<stop offset="1" stop-color="#FF928E"/>
</linearGradient>
<linearGradient id="paint15_linear" x1="292.554" y1="7.59965" x2="347.746" y2="54.9376" gradientUnits="userSpaceOnUse">
<stop stop-color="#09005D"/>
<stop offset="1" stop-color="#1A0F91"/>
</linearGradient>
<linearGradient id="paint16_linear" x1="320.66" y1="108.666" x2="284.095" y2="84.4054" gradientUnits="userSpaceOnUse">
<stop stop-color="#FEBBBA"/>
<stop offset="1" stop-color="#FF928E"/>
</linearGradient>
<linearGradient id="paint17_linear" x1="275.026" y1="226.826" x2="316.487" y2="410.808" gradientUnits="userSpaceOnUse">
<stop stop-color="#09005D"/>
<stop offset="1" stop-color="#1A0F91"/>
</linearGradient>
<linearGradient id="paint18_linear" x1="216.911" y1="304.434" x2="241.353" y2="304.434" gradientUnits="userSpaceOnUse">
<stop stop-color="#FEBBBA"/>
<stop offset="1" stop-color="#FF928E"/>
</linearGradient>
<linearGradient id="paint19_linear" x1="131.994" y1="427.653" x2="136.263" y2="539.021" gradientUnits="userSpaceOnUse">
<stop stop-color="#4F52FF"/>
<stop offset="1" stop-color="#4042E2"/>
</linearGradient>
<linearGradient id="paint20_linear" x1="116.711" y1="532.41" x2="128.989" y2="532.41" gradientUnits="userSpaceOnUse">
<stop stop-color="#FEBBBA"/>
<stop offset="1" stop-color="#FF928E"/>
</linearGradient>
<linearGradient id="paint21_linear" x1="196.821" y1="425.166" x2="201.09" y2="536.538" gradientUnits="userSpaceOnUse">
<stop stop-color="#4F52FF"/>
<stop offset="1" stop-color="#4042E2"/>
</linearGradient>
<linearGradient id="paint22_linear" x1="48.8203" y1="480.389" x2="146.014" y2="480.389" gradientUnits="userSpaceOnUse">
<stop stop-color="#09005D"/>
<stop offset="1" stop-color="#1A0F91"/>
</linearGradient>
<linearGradient id="paint23_linear" x1="174.863" y1="533.381" x2="189.522" y2="533.381" gradientUnits="userSpaceOnUse">
<stop stop-color="#FEBBBA"/>
<stop offset="1" stop-color="#FF928E"/>
</linearGradient>
<linearGradient id="paint24_linear" x1="137.104" y1="442.364" x2="37.8881" y2="562.165" gradientUnits="userSpaceOnUse">
<stop stop-color="#09005D"/>
<stop offset="1" stop-color="#1A0F91"/>
</linearGradient>
<linearGradient id="paint25_linear" x1="101.578" y1="325.905" x2="108.33" y2="307.772" gradientUnits="userSpaceOnUse">
<stop stop-color="#FEBBBA"/>
<stop offset="1" stop-color="#FF928E"/>
</linearGradient>
<linearGradient id="paint26_linear" x1="288.644" y1="122.76" x2="85.9355" y2="451.72" gradientUnits="userSpaceOnUse">
<stop stop-color="#4F52FF"/>
<stop offset="1" stop-color="#4042E2"/>
</linearGradient>
<linearGradient id="paint27_linear" x1="98.1315" y1="367.557" x2="225.999" y2="140.598" gradientUnits="userSpaceOnUse">
<stop stop-color="#09005D"/>
<stop offset="1" stop-color="#1A0F91"/>
</linearGradient>
<linearGradient id="paint28_linear" x1="155.184" y1="405.975" x2="189.042" y2="405.975" gradientUnits="userSpaceOnUse">
<stop stop-color="#FEBBBA"/>
<stop offset="1" stop-color="#FF928E"/>
</linearGradient>
<linearGradient id="paint29_linear" x1="138.177" y1="267.143" x2="104.632" y2="302.776" gradientUnits="userSpaceOnUse">
<stop stop-color="#FEBBBA"/>
<stop offset="1" stop-color="#FF928E"/>
</linearGradient>
<linearGradient id="paint30_linear" x1="115.562" y1="231.012" x2="156.743" y2="274.349" gradientUnits="userSpaceOnUse">
<stop stop-color="#09005D"/>
<stop offset="1" stop-color="#1A0F91"/>
</linearGradient>
<linearGradient id="paint31_linear" x1="122.079" y1="279.421" x2="90.0413" y2="313.455" gradientUnits="userSpaceOnUse">
<stop stop-color="#FEBBBA"/>
<stop offset="1" stop-color="#FF928E"/>
</linearGradient>
<linearGradient id="paint32_linear" x1="-7100.62" y1="-6867.69" x2="-6989.12" y2="-6740.75" gradientUnits="userSpaceOnUse">
<stop stop-color="#09005D"/>
<stop offset="1" stop-color="#1A0F91"/>
</linearGradient>
<linearGradient id="paint33_linear" x1="10321.3" y1="-2742.62" x2="10157.3" y2="-2685.37" gradientUnits="userSpaceOnUse">
<stop stop-color="#09005D"/>
<stop offset="1" stop-color="#1A0F91"/>
</linearGradient>
<linearGradient id="paint34_linear" x1="419.521" y1="800.56" x2="529.796" y2="330.8" gradientUnits="userSpaceOnUse">
<stop stop-color="#FEBBBA"/>
<stop offset="1" stop-color="#FF928E"/>
</linearGradient>
<linearGradient id="paint35_linear" x1="696.305" y1="231.337" x2="589.461" y2="422.903" gradientUnits="userSpaceOnUse">
<stop stop-color="#09005D"/>
<stop offset="1" stop-color="#1A0F91"/>
</linearGradient>
<linearGradient id="paint36_linear" x1="475.977" y1="506.533" x2="497.742" y2="160.772" gradientUnits="userSpaceOnUse">
<stop stop-color="#FEBBBA"/>
<stop offset="1" stop-color="#FF928E"/>
</linearGradient>
<linearGradient id="paint37_linear" x1="595.846" y1="305.215" x2="786.371" y2="305.215" gradientUnits="userSpaceOnUse">
<stop stop-color="#09005D"/>
<stop offset="1" stop-color="#1A0F91"/>
</linearGradient>
<linearGradient id="paint38_linear" x1="525.586" y1="259.933" x2="433.997" y2="424.154" gradientUnits="userSpaceOnUse">
<stop stop-color="#09005D"/>
<stop offset="1" stop-color="#1A0F91"/>
</linearGradient>
<linearGradient id="paint39_linear" x1="733.886" y1="3.39622" x2="708.933" y2="143.008" gradientUnits="userSpaceOnUse">
<stop stop-color="#09005D"/>
<stop offset="1" stop-color="#1A0F91"/>
</linearGradient>
<linearGradient id="paint40_linear" x1="595.257" y1="454.943" x2="691.496" y2="225.161" gradientUnits="userSpaceOnUse">
<stop stop-color="#4F52FF"/>
<stop offset="1" stop-color="#4042E2"/>
</linearGradient>
<linearGradient id="paint41_linear" x1="600.919" y1="230.085" x2="591.843" y2="168.067" gradientUnits="userSpaceOnUse">
<stop stop-color="#FEBBBA"/>
<stop offset="1" stop-color="#FF928E"/>
</linearGradient>
<linearGradient id="paint42_linear" x1="530.199" y1="175.944" x2="604.352" y2="149.304" gradientUnits="userSpaceOnUse">
<stop stop-color="#FEBBBA"/>
<stop offset="1" stop-color="#FF928E"/>
</linearGradient>
<linearGradient id="paint43_linear" x1="524.124" y1="104.09" x2="607.17" y2="202.142" gradientUnits="userSpaceOnUse">
<stop stop-color="#09005D"/>
<stop offset="1" stop-color="#1A0F91"/>
</linearGradient>
<linearGradient id="paint44_linear" x1="525.676" y1="171.5" x2="599.562" y2="144.955" gradientUnits="userSpaceOnUse">
<stop stop-color="#FEBBBA"/>
<stop offset="1" stop-color="#FF928E"/>
</linearGradient>
<linearGradient id="paint45_linear" x1="735.05" y1="256.035" x2="895.635" y2="256.035" gradientUnits="userSpaceOnUse">
<stop stop-color="#FEBBBA"/>
<stop offset="1" stop-color="#FF928E"/>
</linearGradient>
<linearGradient id="paint46_linear" x1="669.407" y1="274.734" x2="579.173" y2="306.254" gradientUnits="userSpaceOnUse">
<stop stop-color="#09005D"/>
<stop offset="1" stop-color="#1A0F91"/>
</linearGradient>
<linearGradient id="paint47_linear" x1="486.661" y1="257.517" x2="430.664" y2="320.548" gradientUnits="userSpaceOnUse">
<stop stop-color="#09005D"/>
<stop offset="1" stop-color="#1A0F91"/>
</linearGradient>
<linearGradient id="paint48_linear" x1="894.183" y1="587.03" x2="893.18" y2="700.258" gradientUnits="userSpaceOnUse">
<stop stop-color="#09005D"/>
<stop offset="1" stop-color="#1A0F91"/>
</linearGradient>
<linearGradient id="paint49_linear" x1="928.07" y1="459.659" x2="933.624" y2="413.422" gradientUnits="userSpaceOnUse">
<stop stop-color="#FEBBBA"/>
<stop offset="1" stop-color="#FF928E"/>
</linearGradient>
<linearGradient id="paint50_linear" x1="1221.07" y1="578.783" x2="1219.92" y2="708.094" gradientUnits="userSpaceOnUse">
<stop stop-color="#09005D"/>
<stop offset="1" stop-color="#1A0F91"/>
</linearGradient>
<linearGradient id="paint51_linear" x1="1218.85" y1="451.571" x2="1224.98" y2="400.573" gradientUnits="userSpaceOnUse">
<stop stop-color="#FEBBBA"/>
<stop offset="1" stop-color="#FF928E"/>
</linearGradient>
<linearGradient id="paint52_linear" x1="1139.05" y1="25.6463" x2="1197.31" y2="327.646" gradientUnits="userSpaceOnUse">
<stop stop-color="#09005D"/>
<stop offset="1" stop-color="#1A0F91"/>
</linearGradient>
<linearGradient id="paint53_linear" x1="1184.72" y1="239.848" x2="1177.91" y2="225.351" gradientUnits="userSpaceOnUse">
<stop stop-color="#4F52FF"/>
<stop offset="1" stop-color="#4042E2"/>
</linearGradient>
<linearGradient id="paint54_linear" x1="1120.6" y1="-94.3963" x2="1242.04" y2="289.837" gradientUnits="userSpaceOnUse">
<stop stop-color="#4F52FF"/>
<stop offset="1" stop-color="#4042E2"/>
</linearGradient>
<linearGradient id="paint55_linear" x1="1101.46" y1="144.989" x2="1009.27" y2="144.989" gradientUnits="userSpaceOnUse">
<stop stop-color="#FEBBBA"/>
<stop offset="1" stop-color="#FF928E"/>
</linearGradient>
<linearGradient id="paint56_linear" x1="937.579" y1="80.4283" x2="777.627" y2="80.4283" gradientUnits="userSpaceOnUse">
<stop stop-color="#FEBBBA"/>
<stop offset="1" stop-color="#FF928E"/>
</linearGradient>
<linearGradient id="paint57_linear" x1="1045.59" y1="-34.3005" x2="991.108" y2="-93.8354" gradientUnits="userSpaceOnUse">
<stop stop-color="#FEBBBA"/>
<stop offset="1" stop-color="#FF928E"/>
</linearGradient>
<linearGradient id="paint58_linear" x1="930.014" y1="-102.747" x2="994.942" y2="-11.271" gradientUnits="userSpaceOnUse">
<stop stop-color="#FEBBBA"/>
<stop offset="1" stop-color="#FF928E"/>
</linearGradient>
<linearGradient id="paint59_linear" x1="1052.49" y1="-365.084" x2="985.214" y2="-157.484" gradientUnits="userSpaceOnUse">
<stop stop-color="#E1473D"/>
<stop offset="1" stop-color="#E9605A"/>
</linearGradient>
<linearGradient id="paint60_linear" x1="1051.28" y1="-44.4394" x2="997.556" y2="-103.147" gradientUnits="userSpaceOnUse">
<stop stop-color="#FEBBBA"/>
<stop offset="1" stop-color="#FF928E"/>
</linearGradient>
<linearGradient id="paint61_linear" x1="30.7248" y1="837.165" x2="137.38" y2="432.118" gradientUnits="userSpaceOnUse">
<stop stop-color="#4F52FF"/>
<stop offset="1" stop-color="#4042E2"/>
</linearGradient>
<linearGradient id="paint62_linear" x1="36.9866" y1="838.813" x2="143.642" y2="433.767" gradientUnits="userSpaceOnUse">
<stop stop-color="#4F52FF"/>
<stop offset="1" stop-color="#4042E2"/>
</linearGradient>
<linearGradient id="paint63_linear" x1="729.949" y1="1136.12" x2="920.089" y2="414.012" gradientUnits="userSpaceOnUse">
<stop stop-color="#4F52FF"/>
<stop offset="1" stop-color="#4042E2"/>
</linearGradient>
<linearGradient id="paint64_linear" x1="750.169" y1="1144.26" x2="942.363" y2="414.361" gradientUnits="userSpaceOnUse">
<stop stop-color="#4F52FF"/>
<stop offset="1" stop-color="#4042E2"/>
</linearGradient>
<linearGradient id="paint65_linear" x1="1070.25" y1="-28.0381" x2="1038.72" y2="112.968" gradientUnits="userSpaceOnUse">
<stop stop-color="#09005D"/>
<stop offset="1" stop-color="#1A0F91"/>
</linearGradient>
<linearGradient id="paint66_linear" x1="414.056" y1="1063.37" x2="611.788" y2="312.444" gradientUnits="userSpaceOnUse">
<stop stop-color="#4F52FF"/>
<stop offset="1" stop-color="#4042E2"/>
</linearGradient>
</defs>
</svg>
