<svg width="103" height="57" viewBox="0 0 103 57" fill="none" xmlns="http://www.w3.org/2000/svg">
<g filter="url(#filter0_d)">
<path d="M9.625 29.2324C9.07812 29.2324 8.70052 29.278 8.49219 29.3691C8.34896 29.4342 8.27083 30.1113 8.25781 31.4004V33.6465C8.25781 33.9329 8.36849 34.1217 8.58984 34.2129C8.8112 34.304 9.11719 34.3496 9.50781 34.3496H10.0156C10.4974 34.3496 10.9271 34.1217 11.3047 33.666C11.6953 33.2103 11.8906 32.6178 11.8906 31.8887C11.8906 30.1178 11.1354 29.2324 9.625 29.2324ZM9.9375 28.2559C10.276 28.2559 10.6276 28.2949 10.9922 28.373C11.3698 28.4382 11.7539 28.5553 12.1445 28.7246C12.5482 28.8939 12.9062 29.1022 13.2188 29.3496C13.5312 29.597 13.7852 29.9225 13.9805 30.3262C14.1758 30.7298 14.2734 31.1855 14.2734 31.6934C14.2734 32.3965 14.0456 33.0605 13.5898 33.6855C13.1341 34.3105 12.5807 34.7533 11.9297 35.0137C11.8255 35.0527 11.7995 35.1178 11.8516 35.209C12.5807 36.5241 13.3099 37.6309 14.0391 38.5293C14.4948 39.0892 14.9831 39.571 15.5039 39.9746C16.0378 40.3652 16.526 40.5605 16.9688 40.5605C17.0208 40.6387 17.0469 40.7428 17.0469 40.873C17.0469 41.0033 17.0208 41.1204 16.9688 41.2246C16.8125 41.2507 16.6107 41.2637 16.3633 41.2637C15.6992 41.2637 15.0938 41.1855 14.5469 41.0293C14.013 40.873 13.5443 40.6452 13.1406 40.3457C12.75 40.0332 12.4245 39.7337 12.1641 39.4473C11.9036 39.1608 11.6302 38.7962 11.3438 38.3535C11.1615 38.0931 10.9531 37.7871 10.7188 37.4355C10.4844 37.084 10.3021 36.8171 10.1719 36.6348C10.0547 36.4395 9.91797 36.2376 9.76172 36.0293C9.60547 35.821 9.46875 35.6647 9.35156 35.5605C9.2474 35.4564 9.14323 35.3848 9.03906 35.3457C8.96094 35.3066 8.80469 35.2871 8.57031 35.2871C8.36198 35.2871 8.25781 35.3978 8.25781 35.6191V38.373C8.25781 39.1543 8.3099 39.7077 8.41406 40.0332C8.45312 40.1895 8.66797 40.3197 9.05859 40.4238C9.46224 40.515 9.75521 40.5605 9.9375 40.5605C9.98958 40.5605 10.0156 40.6712 10.0156 40.8926C10.0156 41.0358 10.0026 41.1465 9.97656 41.2246C8.54427 41.1465 7.61979 41.1074 7.20312 41.1074C6.85156 41.1074 6.45443 41.1204 6.01172 41.1465C5.58203 41.1595 5.23698 41.1725 4.97656 41.1855L4.58594 41.2246C4.54688 41.1725 4.52734 41.0553 4.52734 40.873C4.52734 40.6647 4.54688 40.5605 4.58594 40.5605C4.75521 40.5605 5.0026 40.5215 5.32812 40.4434C5.66667 40.3522 5.86198 40.248 5.91406 40.1309C5.99219 39.8965 6.03125 39.304 6.03125 38.3535V30.9707C6.03125 30.2285 5.99219 29.6947 5.91406 29.3691C5.875 29.265 5.67969 29.1608 5.32812 29.0566C4.98958 28.9395 4.74219 28.8809 4.58594 28.8809C4.53385 28.8809 4.50781 28.7832 4.50781 28.5879C4.50781 28.3926 4.53385 28.2754 4.58594 28.2363C5.96615 28.2754 6.83203 28.2949 7.18359 28.2949C7.54818 28.2949 7.9974 28.2884 8.53125 28.2754C9.07812 28.2624 9.54688 28.2559 9.9375 28.2559ZM21.7734 33.4121C21.4609 33.4121 21.181 33.5033 20.9336 33.6855C20.6862 33.8678 20.4974 34.0892 20.3672 34.3496C20.237 34.61 20.1393 34.8574 20.0742 35.0918C20.0221 35.3132 19.9961 35.502 19.9961 35.6582C19.9961 35.7493 20.0352 35.7949 20.1133 35.7949H23.2773C23.3945 35.7949 23.4531 35.6973 23.4531 35.502C23.4531 35.0462 23.2969 34.584 22.9844 34.1152C22.6849 33.6465 22.2812 33.4121 21.7734 33.4121ZM21.9102 32.5137C22.5221 32.5137 23.069 32.6374 23.5508 32.8848C24.0326 33.1191 24.4102 33.4251 24.6836 33.8027C24.957 34.1673 25.1654 34.5514 25.3086 34.9551C25.4518 35.3457 25.5234 35.7233 25.5234 36.0879C25.5234 36.3743 25.4714 36.5566 25.3672 36.6348C25.276 36.6999 25.0807 36.7324 24.7812 36.7324H20.1133C20.0221 36.7324 19.9766 36.7715 19.9766 36.8496C19.9766 37.3184 20.0612 37.7741 20.2305 38.2168C20.3997 38.6595 20.6862 39.0436 21.0898 39.3691C21.5065 39.6947 22.0013 39.8574 22.5742 39.8574C22.7695 39.8574 22.9583 39.8509 23.1406 39.8379C23.3229 39.8118 23.4922 39.7793 23.6484 39.7402C23.8047 39.6882 23.9414 39.6426 24.0586 39.6035C24.1758 39.5645 24.293 39.5059 24.4102 39.4277C24.5404 39.3496 24.6315 39.2975 24.6836 39.2715C24.7357 39.2324 24.8138 39.1803 24.918 39.1152C25.0221 39.0371 25.0742 38.998 25.0742 38.998C25.1003 39.0111 25.1328 39.0501 25.1719 39.1152C25.2109 39.1803 25.2305 39.2454 25.2305 39.3105C25.2305 39.4538 25.1914 39.5775 25.1133 39.6816C24.918 40.0332 24.5339 40.3848 23.9609 40.7363C23.388 41.0879 22.7435 41.2637 22.0273 41.2637C20.8945 41.2637 19.918 40.847 19.0977 40.0137C18.2773 39.1673 17.8672 38.1452 17.8672 36.9473C17.8672 35.6322 18.2448 34.5645 19 33.7441C19.7682 32.9238 20.7383 32.5137 21.9102 32.5137ZM29.6445 40.0137C29.9961 40.0137 30.2956 39.9225 30.543 39.7402C30.8034 39.5579 30.9336 39.3496 30.9336 39.1152V37.123C30.8424 37.1621 30.6471 37.2272 30.3477 37.3184C30.0612 37.4095 29.8398 37.4876 29.6836 37.5527C29.5273 37.6178 29.3451 37.709 29.1367 37.8262C28.9284 37.9434 28.7721 38.0866 28.668 38.2559C28.5768 38.4251 28.5312 38.6074 28.5312 38.8027C28.5312 39.2194 28.6354 39.5254 28.8438 39.7207C29.0521 39.916 29.319 40.0137 29.6445 40.0137ZM30.5234 32.5137C31.3307 32.5137 31.9362 32.7285 32.3398 33.1582C32.7435 33.5749 32.9453 34.2975 32.9453 35.3262V39.1738C32.9453 39.4342 33.0039 39.6361 33.1211 39.7793C33.2383 39.9095 33.3945 39.9746 33.5898 39.9746C33.7852 39.9746 34.0065 39.89 34.2539 39.7207C34.332 39.7467 34.3711 39.8184 34.3711 39.9355C34.3711 40.196 34.332 40.3913 34.2539 40.5215C34.0586 40.6777 33.7982 40.8405 33.4727 41.0098C33.1471 41.179 32.8346 41.2637 32.5352 41.2637C32.2357 41.2637 31.9427 41.153 31.6562 40.9316C31.3698 40.7103 31.181 40.4694 31.0898 40.209C31.0768 40.222 31.0247 40.2676 30.9336 40.3457C30.8555 40.4108 30.7383 40.4954 30.582 40.5996C30.4388 40.7038 30.2695 40.8079 30.0742 40.9121C29.8919 41.0163 29.6706 41.1009 29.4102 41.166C29.1628 41.2441 28.9089 41.2832 28.6484 41.2832C27.9974 41.2832 27.4635 41.1074 27.0469 40.7559C26.6432 40.3913 26.4414 39.8965 26.4414 39.2715C26.4414 38.959 26.513 38.666 26.6562 38.3926C26.8125 38.1191 26.9948 37.8978 27.2031 37.7285C27.4115 37.5462 27.6914 37.3704 28.043 37.2012C28.3945 37.0319 28.694 36.9082 28.9414 36.8301C29.2018 36.7389 29.5273 36.6348 29.918 36.5176C30.3216 36.4004 30.6016 36.3158 30.7578 36.2637C30.875 36.2116 30.9336 36.1074 30.9336 35.9512V34.877C30.9336 34.4212 30.8294 34.0632 30.6211 33.8027C30.4128 33.5423 30.1328 33.4121 29.7812 33.4121C29.3906 33.4121 29.0846 33.5358 28.8633 33.7832C28.6419 34.0176 28.5312 34.3561 28.5312 34.7988C28.5312 35.0592 28.4336 35.2546 28.2383 35.3848C28.043 35.502 27.8216 35.5605 27.5742 35.5605C27.0924 35.5605 26.7539 35.4043 26.5586 35.0918C26.5586 34.4668 26.9818 33.8809 27.8281 33.334C28.6875 32.7871 29.5859 32.5137 30.5234 32.5137ZM38.6484 38.334C38.6484 39.1413 38.694 39.7272 38.7852 40.0918C38.8112 40.1829 38.9674 40.2871 39.2539 40.4043C39.5534 40.5085 39.7552 40.5605 39.8594 40.5605C39.8984 40.5605 39.918 40.6517 39.918 40.834C39.931 41.0163 39.9245 41.14 39.8984 41.2051C39.7161 41.1921 39.4688 41.1725 39.1562 41.1465C38.8568 41.1335 38.5833 41.1204 38.3359 41.1074C38.0885 41.0944 37.8542 41.0879 37.6328 41.0879C37.3854 41.0879 37.138 41.0944 36.8906 41.1074C36.6432 41.1204 36.3698 41.1335 36.0703 41.1465C35.7708 41.1725 35.5234 41.1921 35.3281 41.2051C35.276 41.153 35.25 41.0358 35.25 40.8535C35.25 40.6582 35.276 40.5605 35.3281 40.5605C35.4714 40.5605 35.6862 40.5085 35.9727 40.4043C36.2721 40.2871 36.4349 40.1829 36.4609 40.0918C36.5651 39.6361 36.6172 39.1543 36.6172 38.6465V30.5215C36.6172 30.0267 36.5781 29.584 36.5 29.1934C36.4349 28.985 36.1094 28.8809 35.5234 28.8809H35.3281C35.25 28.8809 35.2109 28.8027 35.2109 28.6465C35.2109 28.4382 35.25 28.334 35.3281 28.334C35.7318 28.2949 36.1159 28.2428 36.4805 28.1777C36.8451 28.1126 37.1445 28.0475 37.3789 27.9824C37.6263 27.9173 37.8346 27.8587 38.0039 27.8066C38.1862 27.7415 38.3294 27.6895 38.4336 27.6504L38.5703 27.5918H38.6094C38.6615 27.5918 38.7135 27.6309 38.7656 27.709C38.8307 27.7871 38.8698 27.8522 38.8828 27.9043C38.7266 28.3991 38.6484 29.0111 38.6484 29.7402V38.334ZM67.0078 30.9512C67.0078 30.1699 66.9557 29.623 66.8516 29.3105C66.7995 29.2064 66.6172 29.1087 66.3047 29.0176C65.9922 28.9134 65.7578 28.8613 65.6016 28.8613C65.5495 28.8613 65.5234 28.7637 65.5234 28.5684C65.5234 28.36 65.5365 28.2428 65.5625 28.2168C65.6276 28.2168 65.9857 28.2363 66.6367 28.2754C67.3008 28.3145 67.8086 28.334 68.1602 28.334C68.2643 28.334 69.0977 28.2949 70.6602 28.2168C70.6992 28.334 70.7188 28.4382 70.7188 28.5293C70.7188 28.7507 70.6927 28.8613 70.6406 28.8613C70.5234 28.8613 70.2891 28.9134 69.9375 29.0176C69.5859 29.1217 69.3971 29.2194 69.3711 29.3105C69.2669 29.7142 69.2148 30.2871 69.2148 31.0293V38.373C69.2148 39.0892 69.2734 39.6751 69.3906 40.1309C69.4167 40.222 69.5924 40.3197 69.918 40.4238C70.2565 40.515 70.4844 40.5605 70.6016 40.5605C70.6536 40.5605 70.6797 40.6842 70.6797 40.9316C70.6797 41.0358 70.6667 41.127 70.6406 41.2051C69.0781 41.127 68.2513 41.0879 68.1602 41.0879C67.8997 41.0879 67.6263 41.0944 67.3398 41.1074C67.0534 41.1204 66.7344 41.1335 66.3828 41.1465C66.0443 41.1725 65.7708 41.1921 65.5625 41.2051C65.5104 41.153 65.4844 41.0618 65.4844 40.9316C65.4844 40.6842 65.5104 40.5605 65.5625 40.5605C65.7188 40.5605 65.9596 40.515 66.2852 40.4238C66.6237 40.3327 66.8125 40.235 66.8516 40.1309C66.9557 39.7272 67.0078 39.1803 67.0078 38.4902V30.9512ZM76.0312 33.4121C75.3411 33.4121 74.8203 33.7051 74.4688 34.291C74.1172 34.877 73.9414 35.6647 73.9414 36.6543C73.9414 37.7611 74.1432 38.627 74.5469 39.252C74.9505 39.8639 75.5169 40.1699 76.2461 40.1699C76.6888 40.1699 77.0469 40.0592 77.3203 39.8379C77.5938 39.6035 77.7305 39.3105 77.7305 38.959V34.8574C77.7305 34.7272 77.7044 34.5905 77.6523 34.4473C77.6133 34.304 77.5352 34.1543 77.418 33.998C77.3138 33.8288 77.138 33.6921 76.8906 33.5879C76.6562 33.4707 76.3698 33.4121 76.0312 33.4121ZM76.207 32.4746C76.7669 32.4746 77.2422 32.5658 77.6328 32.748C77.6979 32.748 77.7305 32.6439 77.7305 32.4355V30.5996C77.7305 30.1048 77.6914 29.6621 77.6133 29.2715C77.5482 29.0632 77.2096 28.959 76.5977 28.959H76.4414C76.3633 28.959 76.3242 28.8548 76.3242 28.6465C76.3242 28.4382 76.3633 28.334 76.4414 28.334C76.832 28.2949 77.2096 28.2428 77.5742 28.1777C77.9518 28.1126 78.2578 28.0475 78.4922 27.9824C78.7396 27.9173 78.9479 27.8522 79.1172 27.7871C79.2995 27.722 79.4362 27.6764 79.5273 27.6504C79.6185 27.6113 79.6706 27.5918 79.6836 27.5918H79.7227C79.7747 27.5918 79.8268 27.6309 79.8789 27.709C79.931 27.7741 79.957 27.8392 79.957 27.9043C79.8268 28.4121 79.7617 29.0241 79.7617 29.7402V38.334C79.7617 38.9329 79.8008 39.4147 79.8789 39.7793C79.8919 39.8704 79.957 39.9421 80.0742 39.9941C80.1914 40.0462 80.3151 40.0788 80.4453 40.0918C80.5755 40.1048 80.6992 40.1178 80.8164 40.1309C80.9336 40.1309 80.9987 40.1309 81.0117 40.1309C81.0378 40.1569 81.0508 40.235 81.0508 40.3652C81.0508 40.6257 81.0117 40.7559 80.9336 40.7559C80.7513 40.7689 80.5169 40.7949 80.2305 40.834C79.957 40.873 79.6836 40.9186 79.4102 40.9707C79.1497 41.0098 78.8958 41.0553 78.6484 41.1074C78.4141 41.1465 78.2188 41.179 78.0625 41.2051C77.9193 41.2441 77.8477 41.2637 77.8477 41.2637C77.7695 41.2637 77.7305 41.153 77.7305 40.9316V40.5996C77.7305 40.5605 77.7174 40.5345 77.6914 40.5215C77.6784 40.5085 77.6654 40.5085 77.6523 40.5215C77.0273 41.0033 76.3503 41.2441 75.6211 41.2441C74.5664 41.2441 73.6484 40.86 72.8672 40.0918C72.0859 39.3105 71.6953 38.334 71.6953 37.1621C71.6953 35.873 72.138 34.7728 73.0234 33.8613C73.9219 32.9368 74.9831 32.4746 76.207 32.4746ZM85.8359 33.4121C85.5234 33.4121 85.2435 33.5033 84.9961 33.6855C84.7487 33.8678 84.5599 34.0892 84.4297 34.3496C84.2995 34.61 84.2018 34.8574 84.1367 35.0918C84.0846 35.3132 84.0586 35.502 84.0586 35.6582C84.0586 35.7493 84.0977 35.7949 84.1758 35.7949H87.3398C87.457 35.7949 87.5156 35.6973 87.5156 35.502C87.5156 35.0462 87.3594 34.584 87.0469 34.1152C86.7474 33.6465 86.3438 33.4121 85.8359 33.4121ZM85.9727 32.5137C86.5846 32.5137 87.1315 32.6374 87.6133 32.8848C88.0951 33.1191 88.4727 33.4251 88.7461 33.8027C89.0195 34.1673 89.2279 34.5514 89.3711 34.9551C89.5143 35.3457 89.5859 35.7233 89.5859 36.0879C89.5859 36.3743 89.5339 36.5566 89.4297 36.6348C89.3385 36.6999 89.1432 36.7324 88.8438 36.7324H84.1758C84.0846 36.7324 84.0391 36.7715 84.0391 36.8496C84.0391 37.3184 84.1237 37.7741 84.293 38.2168C84.4622 38.6595 84.7487 39.0436 85.1523 39.3691C85.569 39.6947 86.0638 39.8574 86.6367 39.8574C86.832 39.8574 87.0208 39.8509 87.2031 39.8379C87.3854 39.8118 87.5547 39.7793 87.7109 39.7402C87.8672 39.6882 88.0039 39.6426 88.1211 39.6035C88.2383 39.5645 88.3555 39.5059 88.4727 39.4277C88.6029 39.3496 88.694 39.2975 88.7461 39.2715C88.7982 39.2324 88.8763 39.1803 88.9805 39.1152C89.0846 39.0371 89.1367 38.998 89.1367 38.998C89.1628 39.0111 89.1953 39.0501 89.2344 39.1152C89.2734 39.1803 89.293 39.2454 89.293 39.3105C89.293 39.4538 89.2539 39.5775 89.1758 39.6816C88.9805 40.0332 88.5964 40.3848 88.0234 40.7363C87.4505 41.0879 86.806 41.2637 86.0898 41.2637C84.957 41.2637 83.9805 40.847 83.1602 40.0137C82.3398 39.1673 81.9297 38.1452 81.9297 36.9473C81.9297 35.6322 82.3073 34.5645 83.0625 33.7441C83.8307 32.9238 84.8008 32.5137 85.9727 32.5137ZM93.707 40.0137C94.0586 40.0137 94.3581 39.9225 94.6055 39.7402C94.8659 39.5579 94.9961 39.3496 94.9961 39.1152V37.123C94.9049 37.1621 94.7096 37.2272 94.4102 37.3184C94.1237 37.4095 93.9023 37.4876 93.7461 37.5527C93.5898 37.6178 93.4076 37.709 93.1992 37.8262C92.9909 37.9434 92.8346 38.0866 92.7305 38.2559C92.6393 38.4251 92.5938 38.6074 92.5938 38.8027C92.5938 39.2194 92.6979 39.5254 92.9062 39.7207C93.1146 39.916 93.3815 40.0137 93.707 40.0137ZM94.5859 32.5137C95.3932 32.5137 95.9987 32.7285 96.4023 33.1582C96.806 33.5749 97.0078 34.2975 97.0078 35.3262V39.1738C97.0078 39.4342 97.0664 39.6361 97.1836 39.7793C97.3008 39.9095 97.457 39.9746 97.6523 39.9746C97.8477 39.9746 98.069 39.89 98.3164 39.7207C98.3945 39.7467 98.4336 39.8184 98.4336 39.9355C98.4336 40.196 98.3945 40.3913 98.3164 40.5215C98.1211 40.6777 97.8607 40.8405 97.5352 41.0098C97.2096 41.179 96.8971 41.2637 96.5977 41.2637C96.2982 41.2637 96.0052 41.153 95.7188 40.9316C95.4323 40.7103 95.2435 40.4694 95.1523 40.209C95.1393 40.222 95.0872 40.2676 94.9961 40.3457C94.918 40.4108 94.8008 40.4954 94.6445 40.5996C94.5013 40.7038 94.332 40.8079 94.1367 40.9121C93.9544 41.0163 93.7331 41.1009 93.4727 41.166C93.2253 41.2441 92.9714 41.2832 92.7109 41.2832C92.0599 41.2832 91.526 41.1074 91.1094 40.7559C90.7057 40.3913 90.5039 39.8965 90.5039 39.2715C90.5039 38.959 90.5755 38.666 90.7188 38.3926C90.875 38.1191 91.0573 37.8978 91.2656 37.7285C91.474 37.5462 91.7539 37.3704 92.1055 37.2012C92.457 37.0319 92.7565 36.9082 93.0039 36.8301C93.2643 36.7389 93.5898 36.6348 93.9805 36.5176C94.3841 36.4004 94.6641 36.3158 94.8203 36.2637C94.9375 36.2116 94.9961 36.1074 94.9961 35.9512V34.877C94.9961 34.4212 94.8919 34.0632 94.6836 33.8027C94.4753 33.5423 94.1953 33.4121 93.8438 33.4121C93.4531 33.4121 93.1471 33.5358 92.9258 33.7832C92.7044 34.0176 92.5938 34.3561 92.5938 34.7988C92.5938 35.0592 92.4961 35.2546 92.3008 35.3848C92.1055 35.502 91.8841 35.5605 91.6367 35.5605C91.1549 35.5605 90.8164 35.4043 90.6211 35.0918C90.6211 34.4668 91.0443 33.8809 91.8906 33.334C92.75 32.7871 93.6484 32.5137 94.5859 32.5137Z" fill="black"/>
<g clip-path="url(#clip0)">
<path fill-rule="evenodd" clip-rule="evenodd" d="M49.4623 44.1544C49.3992 44.1371 49.379 43.9776 49.381 43.6894C49.3829 43.4012 49.4064 42.9834 49.4057 42.4473C49.405 41.9111 49.3795 41.2554 49.2683 40.5049C49.1571 39.7544 48.9597 38.908 48.6074 38.0232C48.2916 37.2145 47.8396 36.3757 47.2614 35.4987C46.6832 34.6217 45.9777 33.7067 45.2206 32.7174C44.6016 31.9255 43.9409 31.0711 43.3121 30.1154C42.6832 29.1599 42.0861 28.1032 41.629 26.8936C41.629 26.8936 41.629 26.8936 41.629 26.8936C41.0554 25.3318 40.7994 23.5843 40.9404 21.7978C41.0814 20.0114 41.6198 18.1865 42.6161 16.5334C43.5016 15.0765 44.7277 13.7962 46.1996 12.8182C47.6715 11.84 49.3886 11.1645 51.2193 10.9259C51.3001 10.9153 51.381 10.9057 51.462 10.8969C53.3468 10.7003 55.2234 10.9868 56.9107 11.6476C58.5981 12.3084 60.0958 13.3431 61.2681 14.6426C62.5654 16.0943 63.4125 17.8231 63.8272 19.5793C64.2418 21.3354 64.2241 23.118 63.8282 24.7486C63.5882 25.6931 63.2535 26.5467 62.897 27.3374C62.5405 28.1283 62.1622 28.8563 61.8156 29.5443C61.8156 29.5443 61.8156 29.5443 61.8156 29.5443C59.9183 33.3516 58.703 36.6427 57.8843 38.9437C57.475 40.0942 57.1643 40.9993 56.9267 41.6102C56.6892 42.2211 56.524 42.5378 56.4265 42.5168C56.3289 42.4958 56.3043 42.1379 56.3616 41.479C56.4189 40.8202 56.5588 39.8603 56.8116 38.6436C57.0645 37.427 57.431 35.9537 57.9516 34.278C58.4721 32.6022 59.1473 30.7241 60.0176 28.7098C60.0176 28.7098 60.0176 28.7098 60.0176 28.7098C60.3294 27.9795 60.6632 27.2482 60.9612 26.5093C61.2592 25.7705 61.5213 25.0242 61.6703 24.258C61.9392 22.9646 61.8979 21.5429 61.5271 20.1535C61.1561 18.764 60.4557 17.4069 59.4342 16.3131C58.5199 15.3222 57.3281 14.5297 55.9928 14.0219C54.6576 13.5141 53.1794 13.2911 51.7329 13.448C51.6705 13.4544 51.6081 13.4616 51.5457 13.4694C50.1331 13.6467 48.776 14.1792 47.6029 14.9455C46.4299 15.7117 45.4412 16.7114 44.7347 17.8384C43.9271 19.113 43.4655 20.5706 43.3129 22.0134C43.1603 23.456 43.3168 24.8832 43.7339 26.1583L43.7339 26.1583C44.0518 27.1676 44.5382 28.1054 45.0773 29.0025C45.6164 29.8996 46.2081 30.7561 46.7712 31.589C47.4818 32.617 48.1557 33.6326 48.7036 34.6338C49.2514 35.635 49.6741 36.6213 49.9509 37.5698C50.25 38.6167 50.3577 39.5857 50.3642 40.4234C50.3706 41.2611 50.2762 41.9688 50.1543 42.5296C50.0324 43.0905 49.8834 43.5057 49.7566 43.7757C49.6299 44.0457 49.5257 44.1714 49.4625 44.1541L49.4623 44.1544Z" fill="black"/>
<path fill-rule="evenodd" clip-rule="evenodd" d="M50.2264 39.0795C50.3097 38.3763 51.7631 37.9697 53.4705 38.1721C55.178 38.3744 56.4961 39.1093 56.4129 39.8126C56.3296 40.5158 54.8762 40.9223 53.1688 40.72C51.4613 40.5176 50.1433 39.7827 50.2264 39.0795V39.0795Z" fill="black"/>
<path fill-rule="evenodd" clip-rule="evenodd" d="M49.3686 42.7814C49.4268 42.0755 51.2187 41.6465 53.3684 41.8236C55.5181 42.0006 57.2157 42.7171 57.1575 43.4228C57.0994 44.1286 55.3075 44.5577 53.1577 44.3807C51.008 44.2036 49.3104 43.4872 49.3686 42.7814V42.7814Z" fill="black"/>
<path fill-rule="evenodd" clip-rule="evenodd" d="M49.497 46.2626C49.6008 45.5632 51.3476 45.2409 53.3962 45.5444C55.4448 45.8479 57.0231 46.6628 56.9195 47.3633C56.8157 48.0638 55.0689 48.386 53.0203 48.0825C50.9717 47.779 49.3934 46.9642 49.497 46.2637V46.2626Z" fill="black"/>
<path fill-rule="evenodd" clip-rule="evenodd" d="M35.6178 6.85348C36.0636 6.3033 38.1091 7.2211 40.1835 8.90213C42.258 10.5832 43.5798 12.3941 43.1339 12.9442C42.6881 13.4944 40.6426 12.5766 38.5681 10.8956C36.4936 9.21454 35.1718 7.40358 35.6178 6.85348Z" fill="black"/>
<path fill-rule="evenodd" clip-rule="evenodd" d="M50.7804 0.00142715C51.4862 -0.0565589 52.204 1.65967 52.3829 3.8321C52.5617 6.00478 52.1341 7.81543 51.4284 7.87342C50.7226 7.9314 50.0047 6.21543 49.8258 4.04275C49.647 1.87007 50.0747 0.0596698 50.7804 0.00142715V0.00142715Z" fill="black"/>
<path fill-rule="evenodd" clip-rule="evenodd" d="M69.0233 4.23887C69.5909 4.66237 68.7877 6.69982 67.2305 8.78667C65.6733 10.8736 63.9489 12.2238 63.3814 11.8001C62.8138 11.3766 63.617 9.33921 65.1742 7.25235C66.7313 5.16542 68.4558 3.81527 69.0233 4.23887Z" fill="black"/>
<path fill-rule="evenodd" clip-rule="evenodd" d="M66.5069 20.1253C66.1998 19.4873 67.9905 17.9874 70.5039 16.7776C73.0173 15.5675 75.3065 15.1033 75.6138 15.7414C75.921 16.3795 74.1304 17.8793 71.6169 19.0895C69.1034 20.2995 66.8143 20.7637 66.5069 20.1256V20.1253Z" fill="black"/>
<path fill-rule="evenodd" clip-rule="evenodd" d="M30.0414 17.7269C30.3738 17.1016 32.6192 17.6446 35.0531 18.9389C37.487 20.2332 39.1924 21.791 38.8601 22.4163C38.5277 23.0415 36.2823 22.4985 33.8484 21.2043C31.4145 19.91 29.7091 18.3522 30.0414 17.7269Z" fill="black"/>
<path d="M56.1497 39.1265C55.3631 38.1735 51.7397 37.7483 50.6257 38.4782C50.3182 38.6796 50.3181 38.6795 50.3181 38.1143C50.3181 36.3442 49.1458 33.7333 46.8744 30.4447C44.3977 26.8591 43.9248 25.9839 43.4501 24.1066C42.8312 21.6597 43.4079 18.418 44.8157 16.4306C48.3156 11.4895 55.0174 10.8485 59.2172 15.0529C61.2409 17.0787 62.2323 20.3235 61.6723 23.0876C61.4303 24.2818 61.1594 25.0287 60.038 27.5938C58.2839 31.6056 56.9465 35.8258 56.3861 39.1151C56.3456 39.353 56.337 39.3535 56.1497 39.1265H56.1497Z" fill="#FE7062"/>
<path d="M57.4536 29.1318C57.4062 29.1318 57.3588 29.1229 57.3125 29.1029C57.1309 29.0271 57.0488 28.8253 57.1275 28.6515C60.0939 22.068 57.5346 16.5411 57.5091 16.4865C57.427 16.3149 57.5056 16.1109 57.6849 16.0318C57.8642 15.9526 58.0746 16.0273 58.1567 16.2012C58.2689 16.4364 60.8722 22.0624 57.7809 28.9256C57.7231 29.0549 57.5912 29.1318 57.4536 29.1318" fill="black"/>
<path d="M55.4477 32.5781C55.3755 32.5781 55.3024 32.556 55.2396 32.5116C55.0839 32.4008 55.0514 32.1892 55.1664 32.0391C55.6358 31.4305 56.0655 30.8008 56.445 30.169C56.5422 30.0078 56.7555 29.9524 56.9228 30.0451C57.0901 30.1388 57.1476 30.3443 57.0503 30.5055C56.6583 31.1605 56.214 31.8114 55.7289 32.4411C55.6599 32.5308 55.5543 32.5781 55.4477 32.5781" fill="black"/>
</g>
</g>
<defs>
<filter id="filter0_d" x="0.507812" y="0" width="101.926" height="56.1951" filterUnits="userSpaceOnUse" color-interpolation-filters="sRGB">
<feFlood flood-opacity="0" result="BackgroundImageFix"/>
<feColorMatrix in="SourceAlpha" type="matrix" values="0 0 0 0 0 0 0 0 0 0 0 0 0 0 0 0 0 0 127 0"/>
<feOffset dy="4"/>
<feGaussianBlur stdDeviation="2"/>
<feColorMatrix type="matrix" values="0 0 0 0 0 0 0 0 0 0 0 0 0 0 0 0 0 0 0.25 0"/>
<feBlend mode="normal" in2="BackgroundImageFix" result="effect1_dropShadow"/>
<feBlend mode="normal" in="SourceGraphic" in2="effect1_dropShadow" result="shape"/>
</filter>
<clipPath id="clip0">
<rect width="45.6473" height="48.1951" fill="white" transform="translate(30)"/>
</clipPath>
</defs>
</svg>
