<svg width="240" height="233" viewBox="0 0 240 233" fill="none" xmlns="http://www.w3.org/2000/svg">
<path d="M119.906 119.829L54.5859 134.164L119.906 179.025L185.227 134.164L119.906 119.829Z" fill="#141D30"/>
<path d="M152.032 121.341L149.688 116.089L162.261 55.2329L129.657 44.5252H119.906H110.156L77.5516 55.2329L90.1249 116.089L87.7808 121.341L74.7812 129.123L105.046 152.741C109.542 155.676 115.359 153.111 116.731 147.591L119.906 134.813L123.082 147.591C124.454 153.111 130.271 155.676 134.767 152.741L165.032 129.123L152.032 121.341Z" fill="#26395E"/>
<path d="M110.176 45.9404H129.636L119.906 97.3652L110.176 45.9404Z" fill="#DEDEDE"/>
<path d="M110.398 47.1275L123.359 96.3183L117.5 100.635L110.398 47.1275Z" fill="#ABABAB"/>
<path d="M144.593 63.1473C144.593 63.1473 138.494 51.254 129.636 45.9405L119.906 97.3655L110.176 45.9405C101.319 51.254 95.2188 63.1473 95.2188 63.1473L104.01 68.734L95.2188 68.5595C95.2188 68.5595 103.053 87.9216 121.992 106.202C126.793 100.266 138.682 84.6323 144.593 68.5595L135.802 68.734L144.593 63.1473Z" fill="#141D30"/>
<path d="M110.93 41.9407H128.849L119.89 51.2468L110.93 41.9407Z" fill="white"/>
<path d="M129.634 25.0305C129.634 25.0305 130.753 20.4917 131.552 16.5339C132.351 12.5773 130.593 10.7151 129.208 10.0168C128.01 2.94788 123.576 0.00125313 119.206 1.14441e-05C118.818 1.14441e-05 118.661 0.555569 118.986 0.787724C120.642 1.97084 121.323 3.67352 121.323 3.67352C121.323 3.67352 115.676 2.21852 110.135 5.7685C104.594 9.31848 105.606 11.9367 108.217 13.5662C108.217 13.5662 108.43 19.2111 109.868 24.8561L129.634 25.0305Z" fill="#142F61"/>
<path d="M119.906 97.3654C121.431 105.745 124.708 114.824 124.708 114.824L120.312 133.271" stroke="#141D30" stroke-width="0.430642" stroke-miterlimit="10"/>
<path d="M121.753 114.678C121.753 115.755 120.954 116.628 119.968 116.628C118.983 116.628 118.184 115.755 118.184 114.678C118.184 113.602 118.983 112.729 119.968 112.729C120.954 112.729 121.753 113.602 121.753 114.678Z" fill="#DEDEDE"/>
<path d="M118.101 132.214C118.101 133.29 117.302 134.164 116.316 134.164C115.33 134.164 114.531 133.29 114.531 132.214C114.531 131.137 115.33 130.264 116.316 130.264C117.302 130.264 118.101 131.137 118.101 132.214Z" fill="#DEDEDE"/>
<path d="M112.32 103.534L120.898 111.798" stroke="#141D30" stroke-width="0.430642" stroke-miterlimit="10"/>
<path d="M119.035 117.675L112.961 121.981" stroke="#141D30" stroke-width="0.430642" stroke-miterlimit="10"/>
<path d="M108.5 129.269L92.0195 124.503L92.6196 122.027L109.1 126.793L108.5 129.269Z" fill="#496EB5"/>
<path d="M131.311 129.269L147.792 124.503L147.192 122.027L130.711 126.793L131.311 129.269Z" fill="#496EB5"/>
<path d="M144.334 184.672L156.676 192.352L154.326 208.547L138.703 198.394L144.334 184.672Z" fill="white"/>
<path d="M152.864 189.188L153.675 201.977L150.823 199.544L145.145 204.918L151.219 209.299L155.946 222.913L158.026 231.339C158.303 232.459 159.577 232.826 160.334 232.014C162.073 230.151 164.501 226.548 164.691 220.832C164.999 211.546 163.247 204.019 163.247 204.019L165.469 204.423L166.293 193.489L163.932 193.311C163.932 193.311 159.621 188.349 152.864 189.188Z" fill="#141D30"/>
<path d="M40.2476 147.535C42.5918 134.292 59.2141 128.888 74.984 138.131C90.7539 147.374 148.08 182.194 148.08 182.194L138.383 209.894C132.129 207.596 131.484 204.452 126.476 202.443C122.347 200.787 121.121 202.882 114.568 200.438C108.016 197.993 105.878 195.321 102.102 193.891C96.1083 191.621 90.5295 192.269 84.9785 190.212C75.6199 186.748 67.5679 183.751 63.4763 182.194C46.8658 175.871 37.9034 160.778 40.2476 147.535Z" fill="#26395E"/>
<path d="M133.691 203.782L139.461 176.965C141.314 178.088 142.933 179.071 144.247 179.869L133.691 203.782Z" fill="#141D30"/>
<path d="M144.249 185.453L84.3125 143.67" stroke="#141D30" stroke-width="0.430642" stroke-miterlimit="10"/>
<path d="M163.584 194.46L162.891 202.562" stroke="#496EB5" stroke-width="0.388311" stroke-miterlimit="10"/>
<path d="M138.381 209.894C135.695 208.907 134.045 207.765 132.639 206.623L142.856 179.026C146.128 181.01 148.077 182.194 148.077 182.194L138.381 209.894Z" fill="#496EB5"/>
<path d="M165.583 202.897L166.292 193.489L163.931 193.311C163.931 193.311 159.62 188.349 152.863 189.188L152.915 190.013L146.695 186.142L148.077 182.194C148.077 182.194 129.796 171.09 111.041 159.759L73.3789 185.909C76.8199 187.189 80.7632 188.653 84.9765 190.212C90.5275 192.269 96.1058 191.621 102.099 193.891C105.876 195.321 108.013 197.994 114.567 200.438C121.119 202.882 122.345 200.787 126.474 202.443C131.482 204.453 132.127 207.595 138.381 209.894L141.72 200.356L146.608 203.533L145.144 204.918L151.219 209.299L151.382 209.769L163.248 204.027C163.248 204.025 163.246 204.019 163.246 204.019L163.26 204.022L165.583 202.897Z" fill="#141D30"/>
<path d="M199.566 147.535C197.222 134.292 180.6 128.888 164.83 138.131C149.06 147.374 91.7344 182.194 91.7344 182.194L101.431 209.894C107.685 207.596 108.33 204.452 113.338 202.443C117.467 200.787 118.693 202.882 125.246 200.438C131.798 197.993 133.936 195.321 137.712 193.891C143.705 191.621 149.285 192.269 154.835 190.212C164.194 186.748 172.246 183.751 176.338 182.194C192.948 175.871 201.911 160.778 199.566 147.535Z" fill="#26395E"/>
<path d="M106.122 203.782L100.352 176.965C98.4988 178.088 96.8797 179.071 95.5664 179.869L106.122 203.782Z" fill="#141D30"/>
<path d="M95.5664 185.453L155.503 143.67" stroke="#141D30" stroke-width="0.430642" stroke-miterlimit="10"/>
<path d="M95.4782 184.672L83.1367 192.352L85.486 208.547L101.109 198.394L95.4782 184.672Z" fill="white"/>
<path d="M86.9481 189.188L86.1372 201.977L88.9883 199.544L94.6672 204.918L88.5922 209.299L83.8657 222.913L81.7858 231.339C81.5091 232.459 80.235 232.826 79.4774 232.014C77.7391 230.151 75.3102 226.548 75.121 220.832C74.8135 211.546 76.565 204.019 76.565 204.019L74.343 204.423L73.5195 193.489L75.8796 193.311C75.8796 193.311 80.1906 188.349 86.9481 189.188Z" fill="#141D30"/>
<path d="M76.2305 194.46L76.9243 202.562" stroke="#496EB5" stroke-width="0.388311" stroke-miterlimit="10"/>
<path d="M101.43 209.894C104.116 208.907 105.766 207.765 107.172 206.623L96.9546 179.026C93.683 181.01 91.7344 182.194 91.7344 182.194L101.43 209.894Z" fill="#496EB5"/>
<path d="M21.0592 115.696C17.8029 113.744 24.5178 96.6107 24.5178 96.6107L30.1751 99.2724C30.1751 99.2724 24.3359 117.661 21.0592 115.696Z" fill="#ABABAB"/>
<path d="M32.539 100.385L20.1389 94.5513C20.1389 94.5513 20.9317 90.5941 18.0607 87.6115C16.4229 85.9094 14.3447 84.2409 14.3447 84.2409L13.0712 85.5326L15.2687 88.3861L15.2034 92.0013L9.19033 92.0193L2.19756 89.663L1.67815 91.496L0.87914 91.0596L0 93.722L1.48436 94.6847L0.79901 96.6022L3.83593 99.0026L7.19223 99.7884L3.39665 99.8319L1.23886 98.3918L0.79901 99.8319L3.51656 101.535C3.51656 101.535 9.62961 104.168 16.5428 102.364L27.8506 112.808L32.539 100.385Z" fill="#FF8C8C"/>
<path d="M27.8478 112.808L32.5361 100.385L22.8906 95.8471C23.726 99.4915 23.7169 103.614 23.1321 108.453L27.8478 112.808Z" fill="#D45151"/>
<path d="M22.1774 125.648C19.3388 123.961 23.7083 114.695 23.7083 114.695L32.9157 118.988C32.9157 118.988 25.3018 127.504 22.1774 125.648Z" fill="#141D30"/>
<path d="M34.6441 101.032L27.7712 98.0894C27.7712 98.0894 25.7998 113.776 21.0586 115.697L34.6441 125.037V101.032Z" fill="white"/>
<path d="M68.4996 136.47C68.828 136.086 69.0224 135.716 69.1094 135.358C56.7491 130.871 45.0214 134.885 41.2344 144.111C48.6045 150.236 62.6065 143.365 68.4996 136.47Z" fill="#141D30"/>
<path d="M77.5539 55.233L85.8662 95.4661L75.557 126.142C71.359 138.632 58.2328 144.468 47.2422 138.731L22.1797 125.648C22.1797 125.648 28.2535 127.394 34.6467 101.032L51.7481 109.063L70.2884 70.829C70.2884 70.829 70.2748 64.0785 77.5539 55.233Z" fill="#26395E"/>
<path d="M28.8984 118.467L47.1648 128.266" stroke="#141D30" stroke-width="0.430642" stroke-miterlimit="10"/>
<path d="M36.1217 116.962C36.1217 117.71 35.567 118.316 34.8828 118.316C34.1986 118.316 33.6445 117.71 33.6445 116.962C33.6445 116.215 34.1986 115.609 34.8828 115.609C35.567 115.609 36.1217 116.215 36.1217 116.962Z" fill="#DEDEDE"/>
<path d="M43.2779 121.181C43.2779 121.929 42.7233 122.535 42.0391 122.535C41.3554 122.535 40.8008 121.929 40.8008 121.181C40.8008 120.434 41.3554 119.828 42.0391 119.828C42.7233 119.828 43.2779 120.434 43.2779 121.181Z" fill="#DEDEDE"/>
<path d="M51.7461 109.062L62.7208 114.416" stroke="#141D30" stroke-width="0.430642" stroke-miterlimit="10"/>
<path d="M54.5859 108.539L65.8909 109.063" stroke="#141D30" stroke-width="0.430642" stroke-miterlimit="10"/>
<path d="M80.1292 67.7169C79.3984 70.3488 77.7083 78.185 79.212 90.4222C79.3984 91.9374 79.2955 93.4861 78.8511 94.9362C76.2279 103.497 78.1345 111.546 79.2705 115.08L85.8626 95.4663L80.1292 67.7169Z" fill="#141D30"/>
<path d="M1.67578 91.496L8.66854 94.223L11.119 94.4558" stroke="#D45151" stroke-width="0.564406" stroke-miterlimit="10"/>
<path d="M1.48438 94.6847L6.16708 96.9287L10.2957 97.3359" stroke="#D45151" stroke-width="0.564406" stroke-miterlimit="10"/>
<path d="M11.4683 93.3833L9.97656 99.0824" stroke="#D45151" stroke-width="0.564406" stroke-miterlimit="10"/>
<path d="M11.1211 98.5242C12.6663 97.22 15.5162 95.765 18.127 97.6564" stroke="#D45151" stroke-width="0.564406" stroke-miterlimit="10"/>
<path d="M218.756 115.696C222.012 113.744 215.297 96.6107 215.297 96.6107L209.641 99.2724C209.641 99.2724 215.479 117.661 218.756 115.696Z" fill="#ABABAB"/>
<path d="M207.277 100.385L219.677 94.5512C219.677 94.5512 218.885 90.594 221.756 87.6113C223.393 85.9093 225.472 84.2407 225.472 84.2407L226.746 85.5325L224.548 88.386L224.613 92.0012L230.626 92.0192L237.619 89.6629L238.138 91.4959L238.937 91.0595L239.816 93.7219L238.332 94.6846L239.017 96.6021L235.98 99.0025L232.624 99.7883L236.42 99.8318L238.577 98.3916L239.017 99.8318L236.3 101.534C236.3 101.534 230.187 104.168 223.273 102.364L211.966 112.808L207.277 100.385Z" fill="#FF8C8C"/>
<path d="M211.966 112.808L207.277 100.385L216.923 95.8471C216.087 99.4915 216.097 103.614 216.682 108.453L211.966 112.808Z" fill="#D45151"/>
<path d="M217.641 125.648C220.479 123.961 216.11 114.695 216.11 114.695L206.902 118.988C206.902 118.988 214.517 127.504 217.641 125.648Z" fill="#141D30"/>
<path d="M205.176 101.032L212.048 98.0894C212.048 98.0894 214.019 113.776 218.761 115.697L205.176 125.037V101.032Z" fill="white"/>
<path d="M171.313 136.47C170.984 136.086 170.79 135.716 170.703 135.358C183.063 130.871 194.791 134.885 198.578 144.111C191.208 150.236 177.206 143.365 171.313 136.47Z" fill="#141D30"/>
<path d="M162.266 55.233L153.953 95.4661L164.263 126.142C168.46 138.632 181.587 144.468 192.578 138.731L217.64 125.648C217.64 125.648 211.566 127.394 205.174 101.032L188.072 109.063L169.532 70.829C169.532 70.829 169.545 64.0785 162.266 55.233Z" fill="#26395E"/>
<path d="M210.918 118.467L192.652 128.266" stroke="#141D30" stroke-width="0.430642" stroke-miterlimit="10"/>
<path d="M203.695 116.962C203.695 117.71 204.251 118.316 204.934 118.316C205.618 118.316 206.172 117.71 206.172 116.962C206.172 116.215 205.618 115.609 204.934 115.609C204.251 115.609 203.695 116.215 203.695 116.962Z" fill="#DEDEDE"/>
<path d="M196.539 121.181C196.539 121.929 197.094 122.535 197.778 122.535C198.462 122.535 199.016 121.929 199.016 121.181C199.016 120.434 198.462 119.828 197.778 119.828C197.094 119.828 196.539 120.434 196.539 121.181Z" fill="#DEDEDE"/>
<path d="M188.072 109.062L177.098 114.416" stroke="#141D30" stroke-width="0.430642" stroke-miterlimit="10"/>
<path d="M185.234 108.539L173.93 109.063" stroke="#141D30" stroke-width="0.430642" stroke-miterlimit="10"/>
<path d="M159.687 67.7169C160.418 70.3488 162.108 78.185 160.604 90.4222C160.417 91.9374 160.521 93.4861 160.965 94.9362C163.588 103.497 161.682 111.546 160.545 115.08L153.953 95.4663L159.687 67.7169Z" fill="#141D30"/>
<path d="M238.139 91.496L231.146 94.223L228.695 94.4558" stroke="#D45151" stroke-width="0.564406" stroke-miterlimit="10"/>
<path d="M238.331 94.6848L233.649 96.9288L229.52 97.336" stroke="#D45151" stroke-width="0.564406" stroke-miterlimit="10"/>
<path d="M228.348 93.3833L229.839 99.0824" stroke="#D45151" stroke-width="0.564406" stroke-miterlimit="10"/>
<path d="M228.693 98.5242C227.148 97.22 224.298 95.7649 221.688 97.6564" stroke="#D45151" stroke-width="0.564406" stroke-miterlimit="10"/>
<path d="M126.544 30.7917H119.884H113.224L112.531 44.4089L119.884 49.1228L127.236 44.4089L126.544 30.7917Z" fill="#FF8C8C"/>
<path d="M121.67 52.9639H118.1L116.41 46.7081H123.36L121.67 52.9639Z" fill="#125EC9"/>
<path d="M122.418 40.2673C123.558 40.2673 125.227 39.9669 126.971 39.1233L126.548 30.7917H119.888H113.228L113.018 34.9314C115.896 39.119 120.178 40.2673 122.418 40.2673Z" fill="#D45151"/>
<path d="M112.331 24.3033C113.173 26.0804 112.713 28.1667 111.305 28.9631C109.897 29.7595 108.072 28.9637 107.23 27.1866C106.388 25.4094 106.847 23.3225 108.256 22.5267C109.665 21.7303 111.489 22.5261 112.331 24.3033Z" fill="#D45151"/>
<path d="M108.145 25.2246C108.547 23.2847 110.476 23.0935 112.076 25.3208" stroke="#FF8C8C" stroke-width="0.400164" stroke-miterlimit="10"/>
<path d="M127.441 24.3033C126.599 26.0804 127.058 28.1667 128.467 28.9631C129.875 29.7595 131.7 28.9637 132.542 27.1866C133.384 25.4094 132.924 23.3225 131.516 22.5267C130.107 21.7303 128.282 22.5261 127.441 24.3033Z" fill="#D45151"/>
<path d="M131.627 25.2246C131.224 23.2847 129.296 23.0935 127.695 25.3208" stroke="#FF8C8C" stroke-width="0.400164" stroke-miterlimit="10"/>
<path d="M128.848 20.3849C127.685 18.9404 127.168 17.0068 127.435 15.1055C127.549 14.2961 126.976 13.5667 126.227 13.5667H119.887H113.547C112.797 13.5667 112.225 14.2961 112.338 15.1055C112.606 17.0068 112.089 18.9404 110.925 20.3849L110.137 21.3644C110.67 33.4688 117.169 36.146 119.887 36.146C122.604 36.146 129.104 33.4688 129.637 21.3644L128.848 20.3849Z" fill="#FF8C8C"/>
<path d="M113.949 21.8299C114.802 23.0521 116.64 23.023 117.839 21.7139" stroke="#142F61" stroke-width="0.423304" stroke-miterlimit="10"/>
<path d="M113.312 18.9784C114.831 18.0764 116.536 17.9312 118.054 18.9784" stroke="#142F61" stroke-width="0.564406" stroke-miterlimit="10"/>
<path d="M125.823 21.8299C124.971 23.0521 123.133 23.023 121.934 21.7139" stroke="#142F61" stroke-width="0.423304" stroke-miterlimit="10"/>
<path d="M126.461 18.9784C124.942 18.0764 123.237 17.9312 121.719 18.9784" stroke="#142F61" stroke-width="0.564406" stroke-miterlimit="10"/>
<path d="M119.434 20.4624V24.936L121.292 24.5214" stroke="#D45151" stroke-width="0.564406" stroke-miterlimit="10"/>
<path d="M116.703 26.3775C116.703 26.3775 119.207 28.2689 123.07 26.3775" stroke="#142F61" stroke-width="0.564406" stroke-miterlimit="10"/>
<path d="M118.785 29.1043H120.99" stroke="#D45151" stroke-width="0.564406" stroke-miterlimit="10"/>
<path d="M119.022 46.7078L116.645 52.2578L108.934 45.922L110.925 41.9406L119.022 46.7078Z" fill="white"/>
<path d="M120.75 46.7078L123.128 52.2578L130.839 45.922L128.847 41.9406L120.75 46.7078Z" fill="white"/>
<path d="M121.672 52.9637H118.102C118.102 52.9637 118.395 63.5547 121.219 69.1414C126.259 79.1129 137.361 77.0564 140.185 81.6529C143.009 86.2507 146.046 93.2918 159.472 91.139L167.676 82.3513L159.152 78.0452C159.152 78.0452 153.344 80.7218 149.508 75.9502C145.673 71.178 142.37 69.6653 136.989 69.8397C131.607 70.0141 122.764 66.7552 121.672 52.9637Z" fill="#125EC9"/>
<path d="M122.207 56.6979C121.964 55.5477 121.782 54.3068 121.675 52.9636H118.105C118.105 52.9636 118.109 53.0883 118.118 53.3068C119.32 54.0883 121.027 55.3236 122.207 56.6979Z" fill="#0E4899"/>
</svg>
