<svg width="21" height="16" viewBox="0 0 21 16" fill="none" xmlns="http://www.w3.org/2000/svg">
<path d="M20.1588 2.00968C19.4236 2.32429 18.6334 2.53693 17.8041 2.63256C18.6506 2.14297 19.3006 1.36776 19.6068 0.444081C18.8146 0.897349 17.9372 1.22656 17.0034 1.40401C16.2555 0.635206 15.19 0.154785 14.0109 0.154785C11.7466 0.154785 9.91097 1.9259 9.91097 4.11043C9.91097 4.42046 9.9473 4.72238 10.0172 5.01188C6.60985 4.84693 3.58896 3.27209 1.5669 0.878872C1.214 1.46311 1.01183 2.14262 1.01183 2.86755C1.01183 4.23991 1.73567 5.4507 2.83573 6.16004C2.16363 6.13952 1.53152 5.96158 0.978714 5.6653C0.978422 5.68181 0.978422 5.69838 0.978422 5.71503C0.978422 7.63163 2.39161 9.23044 4.26712 9.59379C3.92307 9.68421 3.56089 9.73252 3.18695 9.73252C2.92278 9.73252 2.66593 9.70776 2.41566 9.66157C2.93733 11.2332 4.45139 12.3768 6.2454 12.4088C4.8423 13.4697 3.07453 14.1021 1.15377 14.1021C0.822879 14.1021 0.496516 14.0834 0.175781 14.0468C1.99011 15.1692 4.14513 15.824 6.46037 15.824C14.0013 15.824 18.1249 9.79641 18.1249 4.56912C18.1249 4.39761 18.121 4.227 18.1131 4.05739C18.9141 3.49967 19.6092 2.80295 20.1588 2.00968Z" fill="#55ACEE"/>
</svg>
